<?xml version="1.0" encoding="UTF-8"?>
<svg xmlns="http://www.w3.org/2000/svg" xmlns:xlink="http://www.w3.org/1999/xlink" version="1.2" >
<font id="Energi Pro Regular">
<font-face  font-family="Energi Pro" units-per-em="1000" ascent="750" descent="-250" font-style="normal" font-weight="428" font-stretch="condensed" cap-height="702" x-height="526" underline-position="-75" underline-thickness="50" />
<missing-glyph  horiz-adv-x="492" d="M0 690 L492 690 L492 0 L0 0 L0 690 L0 690 Z M443 94 L443 597 L275 345 L443 94 L443 94 Z M49 597 L49 94 L217 345 L49 597 L49 597 Z M246 389 L414 641 L79 641 L246 389 L246 389 Z M246 301 L79 49 L413 49 L246 301 L246 301 Z " />
<glyph glyph-name="CR" unicode="&#xd;" horiz-adv-x="500" d="" />
<glyph glyph-name="space" unicode="&#x20;" horiz-adv-x="244" d="" />
<glyph glyph-name="exclam" unicode="&#x21;" horiz-adv-x="248" d="M77 15 L77 92 C77 102 82 107 92 107 L156 107 C165 107 170 102 170 92 L170 15 C170 5 165 0 156 0 L92 0 C82 0 77 5 77 15 L77 15 Z M141 197 L107 197 C96 197 91 202 91 212 L78 686 C78 697 82 702 93 702 L155 702 C165 702 170 697 170 686 L156 212 C156 202 152 197 141 197 L141 197 Z " />
<glyph glyph-name="quotedbl" unicode="&#x22;" horiz-adv-x="312" d="M106 475 L71 475 L54 622 C52 642 51 663 51 685 C51 711 63 720 88 720 C114 720 125 711 125 685 C125 663 124 642 122 622 L106 475 L106 475 Z M242 475 L205 475 L190 622 C188 642 187 663 187 685 C187 711 197 720 224 720 C249 720 260 711 260 684 C260 663 259 642 257 622 L242 475 L242 475 Z " />
<glyph glyph-name="numbersign" unicode="&#x23;" horiz-adv-x="559" d="M502 683 L454 501 L528 501 C539 501 543 497 543 486 L543 454 C543 444 539 439 528 439 L438 439 L390 260 L462 260 C472 260 477 255 477 245 L477 213 C477 202 472 198 462 198 L373 198 L322 2 C320 -7 314 -12 304 -9 L269 2 C258 5 256 10 259 19 L306 198 L172 198 L121 2 C119 -7 112 -12 103 -9 L68 2 C59 5 54 9 57 19 L104 198 L30 198 C20 198 15 202 15 213 L15 245 C15 255 20 260 30 260 L121 260 L168 439 L96 439 C86 439 82 444 82 454 L82 486 C82 497 86 501 96 501 L185 501 L237 700 C239 710 246 713 255 711 L290 702 C302 699 303 692 301 683 L253 501 L386 501 L438 700 C440 710 447 714 457 711 L492 702 C501 699 505 693 502 683 L502 683 Z M236 439 L188 260 L322 260 L369 439 L236 439 L236 439 Z " />
<glyph glyph-name="dollar" unicode="&#x24;" horiz-adv-x="477" d="M273 782 L273 711 C321 710 376 697 396 690 C406 686 410 680 408 670 L397 629 C394 619 390 613 377 618 C355 626 310 638 263 638 C169 638 128 598 128 534 C128 462 195 429 262 391 C353 340 438 294 438 177 C438 68 374 14 277 -3 L277 -80 C277 -90 273 -95 262 -95 L230 -95 C219 -95 215 -90 215 -80 L215 -8 C149 -8 87 6 58 17 C46 21 40 25 43 36 L54 78 C56 88 62 92 74 88 C100 79 148 65 207 65 C300 65 357 98 357 178 C357 255 291 285 214 328 C129 373 46 419 46 535 C46 631 98 695 211 708 L211 782 C211 793 216 797 226 797 L258 797 C269 797 273 793 273 782 L273 782 Z " />
<glyph glyph-name="percent" unicode="&#x25;" horiz-adv-x="803" d="M255 12 C251 5 247 0 236 0 L188 0 C178 0 175 6 180 15 L547 690 C552 698 556 702 567 702 L615 702 C624 702 628 696 623 687 L255 12 L255 12 Z M35 506 C35 643 91 709 180 709 C270 709 326 643 326 506 C326 370 270 305 180 305 C91 305 35 370 35 506 L35 506 Z M258 506 C258 601 231 646 180 646 C130 646 103 601 103 506 C103 411 130 368 180 368 C231 368 258 411 258 506 L258 506 Z M477 196 C477 333 533 398 623 398 C712 398 768 333 768 196 C768 59 712 -6 622 -6 C533 -6 477 59 477 196 L477 196 Z M700 196 C700 291 673 335 623 335 C572 335 546 291 546 196 C546 101 572 57 623 57 C673 57 700 101 700 196 L700 196 Z " />
<glyph glyph-name="ampersand" unicode="&#x26;" horiz-adv-x="622" d="M568 264 C568 205 555 160 527 114 L606 16 C613 8 608 0 600 0 L541 0 C529 0 529 0 525 5 L482 61 C438 16 376 -8 287 -8 C139 -8 40 68 40 207 C40 313 101 392 197 422 L179 447 C145 494 129 528 129 576 C129 651 168 713 296 713 C333 713 372 705 395 695 C406 691 412 685 410 676 L400 644 C397 634 392 628 377 634 C357 641 327 646 303 646 C226 646 201 618 201 574 C201 534 225 501 251 467 L480 172 C494 202 500 238 500 267 C500 289 493 307 492 325 C492 335 496 339 506 339 L547 339 C556 339 560 332 562 325 C566 305 568 287 568 264 L568 264 Z M289 62 C359 62 408 82 437 115 L240 367 C160 343 122 288 122 210 C122 121 186 62 289 62 L289 62 Z " />
<glyph glyph-name="quotesingle" unicode="&#x27;" horiz-adv-x="177" d="M106 475 L71 475 L54 622 C52 642 51 663 51 685 C51 711 63 720 88 720 C114 720 125 711 125 685 C125 663 124 642 122 622 L106 475 L106 475 Z " />
<glyph glyph-name="parenleft" unicode="&#x28;" horiz-adv-x="304" d="M71 297 C71 461 138 605 210 701 C214 707 219 711 228 711 L265 711 C276 711 277 702 273 696 C206 599 150 448 150 297 C150 146 208 -1 273 -101 C277 -107 276 -116 265 -116 L228 -116 C219 -116 214 -113 210 -108 C137 -10 71 134 71 297 L71 297 Z " />
<glyph glyph-name="parenright" unicode="&#x29;" horiz-adv-x="304" d="M234 297 C234 134 168 -10 95 -108 C91 -113 87 -116 77 -116 L39 -116 C29 -116 28 -107 32 -101 C100 -4 156 146 156 297 C156 448 100 599 32 696 C28 702 29 711 39 711 L77 711 C87 711 91 707 95 701 C168 605 234 461 234 297 L234 297 Z " />
<glyph glyph-name="asterisk" unicode="&#x2a;" horiz-adv-x="372" d="M187 389 C166 389 160 397 160 417 C160 439 168 484 171 524 C138 501 104 472 84 461 C67 451 56 451 46 469 C36 487 41 495 59 506 C77 517 120 532 157 550 C120 567 77 583 59 594 C41 604 36 614 46 631 C56 649 67 649 84 639 C104 628 138 598 171 576 C167 615 159 660 159 682 C159 704 165 712 186 712 C206 712 211 704 211 682 C211 660 204 615 200 576 C233 599 268 628 288 639 C305 649 316 648 325 631 C334 613 331 603 313 593 C294 582 252 567 215 551 C252 532 295 517 313 506 C331 495 335 487 325 470 C315 451 305 451 288 461 C268 472 233 501 201 524 C204 484 212 439 212 417 C212 397 206 389 187 389 L187 389 Z " />
<glyph glyph-name="plus" unicode="&#x2b;" horiz-adv-x="529" d="M463 315 L300 315 L300 134 C300 124 296 119 286 119 L244 119 C234 119 228 124 228 134 L228 315 L65 315 C55 315 51 319 51 329 L51 367 C51 376 55 380 65 380 L228 380 L228 559 C228 569 234 573 244 573 L286 573 C296 573 300 569 300 559 L300 380 L463 380 C472 380 478 376 478 367 L478 329 C478 319 472 315 463 315 L463 315 Z " />
<glyph glyph-name="comma" unicode="&#x2c;" horiz-adv-x="202" d="M142 1 L109 -94 C107 -100 103 -103 95 -103 L75 -103 C68 -103 66 -98 68 -90 L89 0 L71 0 C60 0 57 5 57 15 L57 89 C57 100 61 105 72 105 L130 105 C141 105 145 100 145 89 L145 20 C145 12 145 9 142 1 L142 1 Z " />
<glyph glyph-name="hyphen" unicode="&#x2d;" horiz-adv-x="330" d="M277 233 L52 233 C42 233 38 236 38 246 L38 284 C38 294 42 298 53 298 L277 298 C286 298 292 294 292 284 L292 246 C292 236 286 233 277 233 L277 233 Z " />
<glyph glyph-name="period" unicode="&#x2e;" horiz-adv-x="202" d="M57 15 L57 89 C57 100 61 105 72 105 L130 105 C141 105 145 100 145 89 L145 15 C145 5 141 0 131 0 L71 0 C60 0 57 5 57 15 L57 15 Z " />
<glyph glyph-name="slash" unicode="&#x2f;" horiz-adv-x="361" d="M9 17 L275 688 C278 697 283 702 295 702 L339 702 C351 702 356 695 352 685 L86 14 C82 5 79 0 67 0 L21 0 C9 0 5 7 9 17 L9 17 Z " />
<glyph glyph-name="zero" unicode="0" horiz-adv-x="571" d="M285 712 C435 712 520 599 520 352 C520 105 435 -8 285 -8 C135 -8 50 105 50 351 C50 599 135 712 285 712 L285 712 Z M285 65 C386 65 438 153 438 351 C438 550 386 638 285 638 C185 638 133 550 133 351 C133 153 185 65 285 65 L285 65 Z " />
<glyph glyph-name="one" unicode="1" horiz-adv-x="394" d="M201 16 L201 604 L82 510 C74 505 69 505 64 511 L33 544 C27 550 28 557 35 561 L196 696 C202 701 206 702 216 702 L267 702 C277 702 282 697 282 686 L282 16 C282 5 277 0 267 0 L218 0 C206 0 201 5 201 16 L201 16 Z " />
<glyph glyph-name="two" unicode="2" horiz-adv-x="520" d="M131 524 C131 505 135 490 134 477 C134 468 129 464 120 464 L74 464 C65 464 61 470 59 481 C56 494 55 514 55 528 C55 628 119 712 255 712 C407 712 460 619 460 509 C460 329 284 161 175 72 L452 72 C462 72 468 67 468 56 L468 16 C468 5 462 0 452 0 L64 0 C54 0 48 5 48 16 L48 49 C48 58 51 63 59 70 C189 170 379 340 379 505 C379 580 350 639 254 639 C162 639 131 586 131 524 L131 524 Z " />
<glyph glyph-name="three" unicode="3" horiz-adv-x="482" d="M217 401 C288 401 335 436 335 525 C335 602 293 640 212 640 C142 640 98 623 69 614 C59 611 54 615 52 624 L41 665 C39 674 43 678 53 682 C81 693 138 712 212 712 C340 712 416 652 416 532 C416 438 378 394 325 374 C382 357 433 311 433 205 C433 58 353 -8 203 -8 C133 -8 72 8 42 20 C34 23 28 28 30 36 L42 80 C45 90 50 92 59 89 C90 79 134 63 201 63 C301 63 352 109 352 205 C352 298 301 331 219 331 L160 331 C149 331 144 335 144 345 L144 386 C144 396 149 401 160 401 L217 401 L217 401 Z " />
<glyph glyph-name="four" unicode="4" horiz-adv-x="549" d="M417 0 L368 0 C358 0 353 5 353 16 L353 158 L50 158 C39 158 34 163 34 174 L34 214 C34 222 37 228 41 234 L345 690 C350 698 356 702 365 702 L417 702 C428 702 433 697 433 686 L433 229 L517 229 C527 229 532 223 532 213 L532 174 C532 163 527 158 517 158 L433 158 L433 16 C433 5 428 0 417 0 L417 0 Z M354 582 L120 229 L354 229 L354 582 L354 582 Z " />
<glyph glyph-name="five" unicode="5" horiz-adv-x="493" d="M445 224 C445 70 360 -8 208 -8 C135 -8 76 7 46 20 C37 24 31 28 34 39 L46 79 C49 89 54 93 63 89 C94 78 144 63 204 63 C313 63 364 117 364 224 C364 313 331 367 227 367 C150 367 117 342 97 342 C94 342 89 342 83 345 L62 353 C55 355 54 360 55 370 C64 458 70 598 72 686 C72 697 77 702 88 702 L394 702 C404 702 410 697 410 686 L410 646 C410 635 404 630 394 630 L141 630 C138 569 133 479 128 418 C156 429 190 437 237 437 C382 437 445 354 445 224 L445 224 Z " />
<glyph glyph-name="six" unicode="6" horiz-adv-x="539" d="M404 621 C376 632 344 640 307 640 C182 640 134 545 129 362 C149 418 204 464 296 464 C440 464 495 361 495 234 C495 91 421 -8 286 -8 C123 -8 50 121 50 335 C50 575 123 712 302 712 C349 712 394 701 419 691 C428 687 434 684 432 675 L421 632 C419 622 415 617 404 621 L404 621 Z M284 63 C372 63 416 134 416 233 C416 320 383 394 285 394 C197 394 145 337 145 233 C145 160 188 63 284 63 L284 63 Z " />
<glyph glyph-name="seven" unicode="7" horiz-adv-x="475" d="M138 15 C151 229 259 497 350 630 L51 630 C40 630 35 635 35 646 L35 686 C35 697 40 702 51 702 L421 702 C432 702 437 697 437 686 L437 648 C437 638 431 631 427 624 C335 468 222 227 221 15 C221 5 215 0 205 0 L153 0 C142 0 137 6 138 15 L138 15 Z " />
<glyph glyph-name="eight" unicode="8" horiz-adv-x="530" d="M265 -9 C122 -9 46 67 46 176 C46 285 115 340 194 365 C116 394 60 449 60 540 C60 642 130 712 265 712 C400 712 470 643 470 540 C470 449 414 394 336 365 C415 340 484 285 484 176 C484 67 408 -9 265 -9 L265 -9 Z M265 644 C179 644 138 605 138 540 C138 464 186 424 265 398 C344 424 392 464 392 540 C392 605 351 644 265 644 L265 644 Z M265 330 C184 308 126 264 126 181 C126 108 172 60 265 60 C358 60 404 108 404 181 C404 264 346 308 265 330 L265 330 Z " />
<glyph glyph-name="nine" unicode="9" horiz-adv-x="539" d="M139 80 C165 71 199 61 235 61 C357 61 408 149 413 333 C396 284 341 238 243 238 C100 238 44 341 44 467 C44 611 117 710 253 710 C416 710 488 580 488 366 C488 127 419 -9 241 -9 C193 -9 148 1 123 11 C114 14 109 19 111 28 L121 70 C123 80 128 84 139 80 L139 80 Z M255 638 C167 638 123 568 123 469 C123 383 156 307 255 307 C342 307 394 364 394 469 C394 548 352 638 255 638 L255 638 Z " />
<glyph glyph-name="colon" unicode="&#x3a;" horiz-adv-x="229" d="M70 15 L70 89 C70 100 74 105 85 105 L144 105 C154 105 159 100 159 89 L159 15 C159 5 154 0 144 0 L85 0 C74 0 70 5 70 15 L70 15 Z M70 436 L70 511 C70 522 74 526 85 526 L144 526 C154 526 159 522 159 511 L159 436 C159 426 154 422 144 422 L85 422 C74 422 70 426 70 436 L70 436 Z " />
<glyph glyph-name="semicolon" unicode="&#x3b;" horiz-adv-x="229" d="M70 436 L70 511 C70 522 74 526 85 526 L144 526 C154 526 159 522 159 511 L159 436 C159 426 154 422 144 422 L85 422 C74 422 70 426 70 436 L70 436 Z M155 1 L123 -94 C121 -100 117 -103 108 -103 L89 -103 C81 -103 79 -98 81 -90 L103 0 L85 0 C74 0 70 5 70 15 L70 89 C70 100 74 105 85 105 L144 105 C154 105 159 100 159 89 L159 20 C159 12 158 9 155 1 L155 1 Z " />
<glyph glyph-name="less" unicode="&#x3c;" horiz-adv-x="529" d="M61 347 C61 352 65 356 70 361 L393 637 C401 644 409 644 415 637 L442 607 C449 600 447 592 441 587 L155 347 L441 108 C449 102 448 95 442 88 L415 56 C410 50 402 49 395 55 L70 332 C64 337 61 341 61 347 L61 347 Z " />
<glyph glyph-name="equal" unicode="&#x3d;" horiz-adv-x="529" d="M453 407 L74 407 C65 407 61 411 61 420 L61 457 C61 467 65 472 75 472 L453 472 C463 472 468 467 468 457 L468 420 C468 411 463 407 453 407 L453 407 Z M453 224 L74 224 C65 224 61 228 61 238 L61 275 C61 285 65 289 75 289 L453 289 C463 289 468 285 468 275 L468 238 C468 228 463 224 453 224 L453 224 Z " />
<glyph glyph-name="greater" unicode="&#x3e;" horiz-adv-x="529" d="M467 347 C467 341 465 337 459 332 L133 55 C126 49 117 49 112 56 L88 88 C81 96 80 101 89 108 L375 347 L89 587 C81 593 81 599 88 607 L112 637 C118 645 125 645 133 638 L459 361 C465 356 467 353 467 347 L467 347 Z " />
<glyph glyph-name="question" unicode="&#x3f;" horiz-adv-x="438" d="M164 15 L164 92 C164 102 170 107 179 107 L243 107 C252 107 258 102 258 92 L258 15 C258 5 252 0 243 0 L179 0 C170 0 164 5 164 15 L164 15 Z M249 211 C249 201 245 197 235 197 L190 197 C180 197 175 201 175 212 L175 247 C175 355 309 414 309 542 C309 601 276 639 188 639 C131 639 85 622 60 614 C49 611 43 614 41 623 L30 666 C28 675 34 678 42 682 C70 697 119 712 195 712 C327 712 390 646 390 544 C390 388 249 341 249 247 L249 211 L249 211 Z " />
<glyph glyph-name="at" unicode="&#x40;" horiz-adv-x="842" d="M509 224 L533 391 C518 395 494 400 470 400 C352 400 304 309 304 204 C304 136 333 93 392 93 C457 93 496 140 509 224 L509 224 Z M603 -30 C611 -28 613 -30 615 -38 L622 -68 C623 -74 620 -76 614 -78 C580 -88 511 -108 430 -108 C195 -108 60 -17 60 209 C60 443 206 599 445 599 C695 599 783 469 783 302 C783 139 711 35 573 35 L525 35 C516 35 507 39 507 49 L509 106 C482 57 437 31 382 31 C287 31 231 98 231 200 C231 335 302 461 473 461 C522 461 573 448 598 438 C605 435 609 431 608 423 L560 90 L579 90 C682 90 725 169 725 303 C725 444 657 545 444 545 C243 545 118 416 118 209 C118 23 221 -56 430 -56 C506 -56 567 -41 603 -30 L603 -30 Z " />
<glyph glyph-name="A" unicode="A" horiz-adv-x="562" d="M182 259 L380 259 L282 615 L280 615 L182 259 L182 259 Z M248 702 L314 702 C328 702 332 696 335 685 L537 17 C540 7 534 0 524 0 L471 0 C461 0 456 5 453 15 L403 185 L159 185 L109 15 C106 5 102 0 92 0 L38 0 C28 0 22 7 25 17 L227 685 C230 696 234 702 248 702 L248 702 Z " />
<glyph glyph-name="B" unicode="B" horiz-adv-x="574" d="M151 398 L283 398 C387 398 428 433 428 516 C428 601 385 628 283 628 L151 628 L151 398 L151 398 Z M289 0 L87 0 C76 0 71 5 71 16 L71 686 C71 697 76 702 87 702 L285 702 C434 702 509 648 509 522 C509 424 462 383 416 369 C478 353 529 306 529 197 C529 56 446 0 289 0 L289 0 Z M151 75 L283 75 C400 75 447 105 447 202 C447 291 406 326 290 326 L151 326 L151 75 L151 75 Z " />
<glyph glyph-name="C" unicode="C" horiz-adv-x="497" d="M326 66 C368 66 406 79 429 88 C441 93 445 86 448 76 L461 37 C464 28 458 23 447 18 C423 5 372 -9 315 -9 C140 -9 48 99 48 351 C48 603 138 712 311 712 C366 712 417 698 441 686 C452 681 457 677 454 667 L443 628 C440 618 435 612 423 617 C400 626 362 637 322 637 C191 637 132 557 132 351 C132 146 191 66 326 66 L326 66 Z " />
<glyph glyph-name="D" unicode="D" horiz-adv-x="570" d="M235 0 L87 0 C76 0 71 5 71 16 L71 686 C71 697 76 702 86 702 L233 702 C419 702 523 617 523 360 C523 85 420 0 235 0 L235 0 Z M233 626 L152 626 L152 76 L235 76 C366 76 440 134 440 360 C440 569 365 626 233 626 L233 626 Z " />
<glyph glyph-name="E" unicode="E" horiz-adv-x="463" d="M390 323 L151 323 L151 75 L402 75 C413 75 418 70 418 60 L418 17 C418 5 413 0 402 0 L87 0 C76 0 71 5 71 16 L71 686 C71 697 76 702 86 702 L399 702 C410 702 415 697 415 686 L415 643 C415 632 410 627 399 627 L151 627 L151 395 L390 395 C401 395 406 390 406 379 L406 339 C406 328 401 323 390 323 L390 323 Z " />
<glyph glyph-name="F" unicode="F" horiz-adv-x="451" d="M392 314 L152 314 L152 16 C152 5 146 0 136 0 L87 0 C76 0 71 5 71 16 L71 686 C71 697 76 702 87 702 L399 702 C410 702 415 697 415 687 L415 644 C415 633 410 628 399 628 L152 628 L152 387 L392 387 C403 387 408 381 408 371 L408 330 C408 319 403 314 392 314 L392 314 Z " />
<glyph glyph-name="G" unicode="G" horiz-adv-x="570" d="M314 405 L493 405 C503 405 509 400 509 389 L509 55 C509 41 501 31 492 26 C459 6 405 -9 329 -9 C139 -9 48 93 48 352 C48 608 139 712 335 712 C392 712 444 698 474 684 C484 680 491 675 488 665 L476 625 C473 615 467 611 455 615 C431 625 391 637 341 637 C189 637 132 559 132 352 C132 142 191 66 333 66 C370 66 407 74 429 84 L429 332 L314 332 C303 332 298 337 298 348 L298 389 C298 399 303 405 314 405 L314 405 Z " />
<glyph glyph-name="H" unicode="H" horiz-adv-x="584" d="M432 16 L432 321 L152 321 L152 16 C152 5 146 0 136 0 L87 0 C76 0 71 5 71 16 L71 686 C71 697 76 702 87 702 L136 702 C146 702 152 697 152 686 L152 397 L432 397 L432 686 C432 697 437 702 448 702 L498 702 C508 702 513 697 513 686 L513 16 C513 5 508 0 498 0 L448 0 C437 0 432 5 432 16 L432 16 Z " />
<glyph glyph-name="I" unicode="I" horiz-adv-x="235" d="M77 16 L77 686 C77 697 82 702 93 702 L142 702 C153 702 159 697 159 686 L159 16 C159 5 153 0 142 0 L93 0 C82 0 77 5 77 16 L77 16 Z " />
<glyph glyph-name="J" unicode="J" horiz-adv-x="382" d="M234 195 L234 686 C234 697 239 702 250 702 L299 702 C310 702 315 697 315 686 L315 187 C315 54 263 -9 144 -9 C103 -9 60 0 37 11 C26 16 20 21 23 33 L34 74 C36 83 41 89 51 85 C73 77 100 66 137 66 C204 66 234 104 234 195 L234 195 Z " />
<glyph glyph-name="K" unicode="K" horiz-adv-x="515" d="M152 411 L391 690 C397 698 402 702 414 702 L477 702 C489 702 494 691 487 683 L217 373 L490 20 C497 10 494 0 482 0 L415 0 C404 0 398 7 392 14 L152 328 L152 16 C152 5 146 0 136 0 L87 0 C76 0 71 5 71 16 L71 686 C71 697 76 702 87 702 L136 702 C146 702 152 697 152 686 L152 411 L152 411 Z " />
<glyph glyph-name="L" unicode="L" horiz-adv-x="442" d="M152 686 L152 76 L389 76 C400 76 406 71 406 61 L406 16 C406 5 400 0 389 0 L87 0 C76 0 71 5 71 16 L71 686 C71 697 76 702 87 702 L136 702 C146 702 152 697 152 686 L152 686 Z " />
<glyph glyph-name="M" unicode="M" horiz-adv-x="672" d="M336 199 C328 199 322 203 319 209 L151 541 L151 16 C151 5 146 0 135 0 L87 0 C76 0 71 5 71 16 L71 686 C71 697 76 702 87 702 L136 702 C145 702 150 699 154 692 L336 332 L518 692 C521 699 527 702 536 702 L585 702 C596 702 601 697 601 686 L601 16 C601 5 596 0 585 0 L536 0 C526 0 521 5 521 16 L521 541 L352 209 C349 203 344 199 336 199 L336 199 Z " />
<glyph glyph-name="N" unicode="N" horiz-adv-x="589" d="M518 687 L518 16 C518 5 512 0 502 0 L451 0 C440 0 435 4 430 13 L150 551 L150 16 C150 5 145 0 135 0 L87 0 C76 0 71 5 71 16 L71 686 C71 697 76 702 87 702 L137 702 C148 702 155 698 159 690 L439 151 L439 686 C439 697 444 702 454 702 L502 702 C512 702 518 697 518 687 L518 687 Z " />
<glyph glyph-name="O" unicode="O" horiz-adv-x="597" d="M298 712 C461 712 549 603 549 351 C549 99 461 -9 298 -9 C136 -9 47 99 47 351 C47 603 136 712 298 712 L298 712 Z M298 65 C411 65 466 149 466 351 C466 553 411 638 298 638 C186 638 131 553 131 351 C131 149 186 65 298 65 L298 65 Z " />
<glyph glyph-name="P" unicode="P" horiz-adv-x="540" d="M152 291 L241 291 C360 291 406 330 406 459 C406 587 360 627 241 627 L152 627 L152 291 L152 291 Z M136 0 L87 0 C76 0 71 6 71 16 L71 686 C71 696 76 702 86 702 L241 702 C414 702 490 637 490 459 C490 280 414 216 241 216 L152 216 L152 16 C152 6 146 0 136 0 L136 0 Z " />
<glyph glyph-name="Q" unicode="Q" horiz-adv-x="597" d="M366 6 C395 -6 430 -15 471 -15 C484 -15 493 -14 501 -14 C513 -14 518 -16 518 -27 L518 -65 C518 -77 512 -82 491 -82 C416 -82 336 -59 272 -4 C126 8 47 114 47 352 C47 603 136 712 298 712 C461 712 551 603 550 352 C549 149 481 35 366 6 L366 6 Z M298 65 C411 65 466 150 466 352 C466 552 411 638 298 638 C186 638 131 553 131 352 C131 150 186 65 298 65 L298 65 Z " />
<glyph glyph-name="R" unicode="R" horiz-adv-x="541" d="M152 326 L250 326 C370 326 410 367 410 475 C410 588 368 627 248 627 L152 627 L152 326 L152 326 Z M87 702 L250 702 C421 702 493 635 493 475 C493 339 432 275 331 259 L488 20 C495 10 492 0 479 0 L422 0 C410 0 406 4 400 13 L245 251 L152 251 L152 16 C152 5 146 0 136 0 L87 0 C76 0 71 5 71 16 L71 686 C71 697 76 702 87 702 L87 702 Z " />
<glyph glyph-name="S" unicode="S" horiz-adv-x="464" d="M424 173 C424 52 342 -8 204 -8 C146 -8 84 1 54 14 C43 19 38 23 40 33 L51 75 C54 85 58 91 70 86 C97 76 147 65 200 65 C292 65 343 103 343 175 C343 250 283 285 208 328 C124 373 48 421 48 536 C48 645 107 712 254 712 C308 712 357 702 385 692 C396 688 402 683 399 673 L388 632 C386 622 381 617 368 622 C344 630 308 638 259 638 C165 638 130 603 130 535 C130 463 188 431 254 392 C344 341 424 293 424 173 L424 173 Z " />
<glyph glyph-name="T" unicode="T" horiz-adv-x="453" d="M26 642 L26 686 C26 697 32 702 42 702 L411 702 C422 702 427 697 427 686 L427 642 C427 632 422 626 411 626 L267 626 L267 16 C267 5 262 0 251 0 L202 0 C192 0 186 5 186 16 L186 626 L42 626 C32 626 26 632 26 642 L26 642 Z " />
<glyph glyph-name="U" unicode="U" horiz-adv-x="573" d="M286 -10 C136 -10 66 70 66 226 L66 686 C66 697 72 702 82 702 L131 702 C143 702 148 697 148 686 L148 232 C148 121 186 65 286 65 C387 65 425 121 425 232 L425 686 C425 697 430 702 441 702 L490 702 C501 702 506 697 506 686 L506 226 C506 70 436 -10 286 -10 L286 -10 Z " />
<glyph glyph-name="V" unicode="V" horiz-adv-x="553" d="M310 0 L243 0 C232 0 225 5 221 17 L31 685 C28 695 32 702 43 702 L98 702 C109 702 112 697 115 686 L237 252 L276 89 L277 89 L316 253 L438 686 C441 697 444 702 455 702 L510 702 C521 702 525 695 522 685 L332 17 C327 5 321 0 310 0 L310 0 Z " />
<glyph glyph-name="W" unicode="W" horiz-adv-x="879" d="M413 702 L466 702 C480 702 484 697 487 686 L583 278 L626 91 L628 91 L666 277 L760 686 C762 697 767 702 777 702 L830 702 C841 702 846 696 843 684 L683 18 C680 5 674 0 662 0 L593 0 C582 0 575 5 572 17 L479 395 L440 569 L438 569 L399 395 L308 17 C305 5 298 0 286 0 L217 0 C205 0 199 6 196 18 L36 684 C33 696 38 702 49 702 L103 702 C113 702 117 697 120 686 L213 277 L251 91 L254 91 L296 278 L392 686 C394 697 399 702 413 702 L413 702 Z " />
<glyph glyph-name="X" unicode="X" horiz-adv-x="527" d="M264 282 L117 14 C113 6 107 0 95 0 L39 0 C28 0 24 10 29 18 L220 354 L33 684 C28 693 32 702 43 702 L100 702 C112 702 117 696 121 688 L264 426 L405 688 C410 697 415 702 427 702 L484 702 C495 702 499 692 494 684 L307 354 L498 18 C503 9 499 0 489 0 L433 0 C421 0 416 6 411 14 L264 282 L264 282 Z " />
<glyph glyph-name="Y" unicode="Y" horiz-adv-x="538" d="M310 263 L310 16 C310 5 304 0 293 0 L244 0 C233 0 228 5 228 16 L228 263 L27 684 C23 692 25 702 38 702 L93 702 C106 702 109 696 113 687 L224 444 L268 339 L314 444 L425 687 C429 696 432 702 445 702 L499 702 C513 702 514 692 510 684 L310 263 L310 263 Z " />
<glyph glyph-name="Z" unicode="Z" horiz-adv-x="491" d="M46 16 L46 59 C46 69 50 76 54 84 L348 626 L70 626 C60 626 55 632 55 642 L55 686 C55 697 60 702 70 702 L423 702 C433 702 438 697 438 686 L438 643 C438 633 435 626 431 618 L139 76 L428 76 C438 76 443 71 443 60 L443 16 C443 5 438 0 428 0 L61 0 C51 0 46 5 46 16 L46 16 Z " />
<glyph glyph-name="bracketleft" unicode="&#x5b;" horiz-adv-x="304" d="M263 -61 L263 -95 C263 -105 259 -110 248 -110 L108 -110 C97 -110 93 -105 93 -95 L93 687 C93 698 97 702 108 702 L248 702 C259 702 263 698 263 687 L263 654 C263 643 259 639 248 639 L168 639 L168 -47 L248 -47 C259 -47 263 -51 263 -61 L263 -61 Z " />
<glyph glyph-name="backslash" unicode="&#x5c;" horiz-adv-x="361" d="M86 688 L352 17 C356 7 351 0 339 0 L295 0 C283 0 278 5 275 14 L9 685 C5 696 9 702 21 702 L67 702 C79 702 82 697 86 688 L86 688 Z " />
<glyph glyph-name="bracketright" unicode="&#x5d;" horiz-adv-x="306" d="M44 -95 L44 -61 C44 -51 48 -47 59 -47 L139 -47 L139 639 L59 639 C48 639 44 643 44 654 L44 687 C44 698 48 702 59 702 L199 702 C209 702 214 698 214 687 L214 -95 C214 -105 209 -110 199 -110 L59 -110 C48 -110 44 -105 44 -95 L44 -95 Z " />
<glyph glyph-name="asciicircum" unicode="&#x5e;" horiz-adv-x="529" d="M244 702 L285 702 C296 702 301 697 305 689 L473 363 C478 353 474 346 463 346 L414 346 C402 346 399 350 394 359 L264 617 L135 359 C130 350 125 346 115 346 L65 346 C55 346 50 352 56 363 L224 689 C228 696 232 702 244 702 L244 702 Z " />
<glyph glyph-name="underscore" unicode="&#x5f;" horiz-adv-x="430" d="M395 -96 L35 -96 C26 -96 21 -91 21 -82 L21 -57 C21 -47 26 -43 35 -43 L395 -43 C404 -43 409 -47 409 -57 L409 -82 C409 -91 404 -96 395 -96 L395 -96 Z " />
<glyph glyph-name="grave" unicode="&#x60;" horiz-adv-x="295" d="M171 684 L217 600 C221 593 217 587 208 587 L179 587 C170 587 165 589 158 596 L77 679 C70 686 73 696 84 696 L151 696 C162 696 167 692 171 684 L171 684 Z " />
<glyph glyph-name="a" unicode="a" horiz-adv-x="467" d="M408 366 L408 15 C408 5 403 0 393 0 L350 0 C340 0 336 5 336 15 L336 78 C317 40 275 -7 182 -7 C88 -7 34 49 34 141 C34 285 161 317 334 321 L334 362 C334 434 304 467 227 467 C173 467 129 453 95 440 C87 437 79 441 77 451 L69 490 C67 499 71 505 79 508 C114 524 179 536 233 536 C358 536 408 478 408 366 L408 366 Z M334 197 L334 261 C206 255 108 242 108 143 C108 92 136 56 196 56 C285 56 334 121 334 197 L334 197 Z " />
<glyph glyph-name="b" unicode="b" horiz-adv-x="524" d="M142 264 C142 126 191 59 276 59 C362 59 403 120 403 264 C403 408 362 468 276 468 C191 468 142 401 142 264 L142 264 Z M141 79 L141 15 C141 5 138 0 127 0 L81 0 C70 0 66 5 66 15 L66 687 C66 698 70 702 81 702 L127 702 C138 702 142 698 142 687 L142 448 C163 501 219 536 290 536 C411 536 482 447 482 264 C482 80 411 -9 290 -9 C219 -9 163 21 141 79 L141 79 Z " />
<glyph glyph-name="c" unicode="c" horiz-adv-x="406" d="M42 264 C42 445 119 536 250 536 C301 536 339 525 358 516 C368 512 373 507 370 497 L359 460 C357 452 351 447 339 452 C319 460 292 466 259 466 C168 466 121 405 121 264 C121 123 169 60 257 60 C294 60 326 70 346 79 C357 83 362 79 364 70 L374 32 C376 23 372 19 361 14 C344 5 300 -9 256 -9 C120 -9 42 84 42 264 L42 264 Z " />
<glyph glyph-name="d" unicode="d" horiz-adv-x="524" d="M383 264 C383 401 334 468 248 468 C162 468 121 408 121 264 C121 120 162 59 248 59 C334 59 383 126 383 264 L383 264 Z M383 15 L383 78 C361 21 305 -9 234 -9 C113 -9 42 80 42 264 C42 447 113 536 234 536 C305 536 362 501 382 448 L382 687 C382 698 387 702 397 702 L443 702 C454 702 459 698 459 687 L459 15 C459 5 454 0 443 0 L397 0 C387 0 383 5 383 15 L383 15 Z " />
<glyph glyph-name="e" unicode="e" horiz-adv-x="471" d="M274 56 C318 56 348 63 378 78 C387 82 395 78 398 68 L408 34 C411 24 404 19 395 15 C363 1 318 -10 270 -10 C121 -10 42 87 42 263 C42 443 116 536 242 536 C371 536 429 438 429 294 L429 243 C429 232 424 228 413 228 L118 228 C124 118 180 56 274 56 L274 56 Z M242 470 C165 470 123 414 118 293 L355 293 L355 299 C355 401 323 470 242 470 L242 470 Z " />
<glyph glyph-name="f" unicode="f" horiz-adv-x="299" d="M169 526 L267 526 C278 526 282 522 282 511 L282 472 C282 461 278 457 267 457 L169 457 L169 15 C169 4 166 0 155 0 L109 0 C98 0 94 4 94 15 L94 457 L38 457 C27 457 23 461 23 472 L23 511 C23 522 27 526 38 526 L94 526 L94 568 C94 666 135 709 220 709 C244 709 261 706 275 700 C281 698 285 694 285 685 L285 651 C285 641 282 635 270 637 C259 639 247 641 231 641 C188 641 169 622 169 565 L169 526 L169 526 Z " />
<glyph glyph-name="g" unicode="g" horiz-adv-x="500" d="M362 291 C362 412 314 470 238 470 C162 470 120 415 120 288 C120 161 162 106 238 106 C314 106 362 169 362 291 L362 291 Z M437 511 L437 63 C437 -57 361 -120 235 -120 C179 -120 130 -113 94 -97 C86 -93 81 -89 83 -80 L93 -42 C95 -32 100 -27 111 -31 C146 -42 188 -52 233 -52 C315 -52 362 -10 362 68 L362 127 C342 73 288 42 225 42 C114 42 42 121 42 288 C42 455 111 536 223 536 C286 536 343 500 362 452 L362 512 C362 522 367 526 377 526 L423 526 C433 526 437 522 437 511 L437 511 Z " />
<glyph glyph-name="h" unicode="h" horiz-adv-x="506" d="M446 360 L446 15 C446 5 442 0 432 0 L385 0 C374 0 370 5 370 15 L370 350 C370 422 343 465 270 465 C188 465 142 405 142 321 L142 15 C142 5 138 0 127 0 L81 0 C70 0 66 5 66 15 L66 687 C66 698 70 702 81 702 L127 702 C138 702 142 698 142 687 L142 453 C159 491 204 536 289 536 C395 536 446 465 446 360 L446 360 Z " />
<glyph glyph-name="i" unicode="i" horiz-adv-x="207" d="M141 511 L141 15 C141 5 137 0 127 0 L80 0 C70 0 66 5 66 15 L66 511 C66 522 70 526 80 526 L127 526 C137 526 141 522 141 511 L141 511 Z M142 682 L142 608 C142 597 138 593 128 593 L79 593 C68 593 65 597 65 608 L65 682 C65 693 68 697 79 697 L128 697 C138 697 142 693 142 682 L142 682 Z " />
<glyph glyph-name="j" unicode="j" horiz-adv-x="218" d="M76 18 L76 511 C76 522 80 526 91 526 L137 526 C148 526 152 522 152 511 L152 11 C152 -78 124 -114 47 -114 C30 -114 12 -113 0 -109 C-9 -107 -13 -102 -13 -94 L-13 -55 C-13 -45 -8 -41 2 -42 C13 -44 24 -44 34 -44 C62 -44 76 -30 76 18 L76 18 Z M154 682 L154 608 C154 597 149 593 139 593 L90 593 C79 593 75 597 75 608 L75 682 C75 693 79 697 90 697 L139 697 C149 697 154 693 154 682 L154 682 Z " />
<glyph glyph-name="k" unicode="k" horiz-adv-x="430" d="M407 0 L344 0 C333 0 328 5 322 12 L142 244 L142 15 C142 5 138 0 127 0 L81 0 C70 0 66 5 66 15 L66 687 C66 698 70 702 81 702 L127 702 C138 702 142 698 142 687 L142 337 L318 518 C323 523 328 526 339 526 L401 526 C413 526 416 516 407 507 L194 294 L415 19 C422 10 419 0 407 0 L407 0 Z " />
<glyph glyph-name="l" unicode="l" horiz-adv-x="207" d="M141 687 L141 15 C141 5 137 0 127 0 L80 0 C70 0 66 5 66 15 L66 687 C66 698 70 702 80 702 L127 702 C137 702 141 698 141 687 L141 687 Z " />
<glyph glyph-name="m" unicode="m" horiz-adv-x="760" d="M420 337 L420 15 C420 5 416 0 405 0 L359 0 C348 0 344 5 344 15 L344 355 C344 424 322 465 256 465 C182 465 139 408 139 327 L139 15 C139 5 135 0 124 0 L78 0 C67 0 63 5 63 15 L63 511 C63 522 67 526 78 526 L124 526 C135 526 139 522 139 512 L139 453 C154 490 196 536 274 536 C346 536 387 503 405 447 C427 496 473 536 555 536 C653 536 701 466 701 364 L701 15 C701 5 697 0 686 0 L640 0 C629 0 625 5 625 15 L625 354 C625 424 603 465 537 465 C465 465 420 408 420 337 L420 337 Z " />
<glyph glyph-name="n" unicode="n" horiz-adv-x="498" d="M439 360 L439 15 C439 5 434 0 424 0 L378 0 C367 0 362 5 362 15 L362 350 C362 422 336 465 263 465 C183 465 137 407 137 321 L137 15 C137 5 133 0 122 0 L76 0 C65 0 61 5 61 15 L61 511 C61 522 65 526 76 526 L121 526 C132 526 137 522 137 512 L137 453 C156 492 197 536 283 536 C389 536 439 465 439 360 L439 360 Z " />
<glyph glyph-name="o" unicode="o" horiz-adv-x="499" d="M250 -9 C117 -9 42 83 42 264 C42 444 117 536 250 536 C382 536 457 444 457 264 C457 83 382 -9 250 -9 L250 -9 Z M250 59 C333 59 378 123 378 264 C378 404 333 468 250 468 C165 468 121 404 121 264 C121 123 165 59 250 59 L250 59 Z " />
<glyph glyph-name="p" unicode="p" horiz-adv-x="521" d="M139 264 C139 126 188 59 273 59 C359 59 400 120 400 264 C400 408 359 468 273 468 C188 468 139 401 139 264 L139 264 Z M138 512 L138 448 C159 501 216 536 287 536 C408 536 479 448 479 264 C479 80 408 -9 287 -9 C216 -9 161 21 139 79 L139 -95 C139 -105 135 -110 124 -110 L78 -110 C67 -110 63 -105 63 -95 L63 511 C63 522 67 526 78 526 L123 526 C134 526 138 522 138 512 L138 512 Z " />
<glyph glyph-name="q" unicode="q" horiz-adv-x="521" d="M383 264 C383 401 334 468 248 468 C162 468 121 408 121 264 C121 120 162 59 248 59 C334 59 383 126 383 264 L383 264 Z M383 448 L383 512 C383 522 387 526 397 526 L443 526 C454 526 459 522 459 511 L459 -95 C459 -105 454 -110 443 -110 L397 -110 C387 -110 382 -105 382 -95 L382 78 C361 20 305 -9 234 -9 C113 -9 42 80 42 264 C42 447 113 536 234 536 C305 536 362 501 383 448 L383 448 Z " />
<glyph glyph-name="r" unicode="r" horiz-adv-x="318" d="M78 526 L124 526 C135 526 139 522 139 512 L139 429 C153 475 202 530 278 530 C288 530 293 528 293 517 L293 459 C293 449 289 446 280 446 C274 446 267 448 255 448 C187 448 139 368 139 276 L139 15 C139 5 135 0 124 0 L78 0 C67 0 63 5 63 15 L63 511 C63 522 67 526 78 526 L78 526 Z " />
<glyph glyph-name="s" unicode="s" horiz-adv-x="387" d="M351 138 C351 36 286 -9 177 -9 C125 -9 74 0 44 11 C35 14 31 19 32 27 L40 66 C42 75 46 80 58 76 C85 66 124 57 170 57 C242 57 276 79 276 138 C276 191 235 213 166 246 C97 281 36 306 36 399 C36 488 88 536 200 536 C248 536 291 527 320 516 C328 513 333 510 331 500 L322 464 C320 455 316 451 306 454 C282 463 250 470 209 470 C140 470 111 452 111 398 C111 351 150 330 216 299 C293 262 351 224 351 138 L351 138 Z " />
<glyph glyph-name="t" unicode="t" horiz-adv-x="308" d="M266 457 L163 457 L163 152 C163 84 176 64 231 64 C248 64 254 66 265 68 C274 69 278 65 279 56 L286 19 C287 10 283 6 275 3 C262 -2 236 -5 217 -5 C124 -5 89 33 89 145 L89 457 L32 457 C21 457 16 461 16 472 L16 511 C16 522 21 526 32 526 L90 526 L90 645 C90 656 94 660 105 660 L148 660 C159 660 163 656 163 645 L163 526 L266 526 C277 526 281 522 281 511 L281 472 C281 461 277 457 266 457 L266 457 Z " />
<glyph glyph-name="u" unicode="u" horiz-adv-x="492" d="M57 168 L57 511 C57 522 61 526 72 526 L118 526 C128 526 132 522 132 511 L132 179 C132 108 156 62 230 62 C303 62 353 117 353 204 L353 511 C353 522 358 526 368 526 L415 526 C425 526 429 522 429 511 L429 15 C429 5 425 0 415 0 L368 0 C358 0 353 5 353 15 L353 73 C336 36 297 -9 212 -9 C103 -9 57 63 57 168 L57 168 Z " />
<glyph glyph-name="v" unicode="v" horiz-adv-x="433" d="M245 0 L188 0 C178 0 172 5 169 14 L23 510 C20 520 25 526 35 526 L84 526 C94 526 98 521 101 512 L183 217 L216 89 L218 89 L250 217 L332 512 C335 521 339 526 349 526 L399 526 C409 526 413 520 410 510 L263 14 C260 5 255 0 245 0 L245 0 Z " />
<glyph glyph-name="w" unicode="w" horiz-adv-x="699" d="M325 526 L374 526 C384 526 389 520 391 512 L472 198 L496 85 L498 85 L519 198 L591 512 C593 521 598 526 608 526 L658 526 C668 526 672 520 669 510 L547 15 C545 6 538 0 528 0 L471 0 C461 0 455 5 453 15 L378 302 L351 423 L348 423 L322 302 L247 15 C245 5 239 0 229 0 L172 0 C162 0 155 6 153 15 L30 510 C28 520 32 526 42 526 L91 526 C101 526 106 521 108 512 L181 198 L201 85 L203 85 L228 198 L308 512 C310 520 315 526 325 526 L325 526 Z " />
<glyph glyph-name="x" unicode="x" horiz-adv-x="435" d="M110 515 L218 329 L325 515 C329 522 332 526 343 526 L397 526 C407 526 410 518 405 509 L258 267 L410 16 C414 9 412 0 402 0 L345 0 C335 0 331 4 327 11 L217 205 L107 11 C103 3 98 0 88 0 L32 0 C22 0 20 9 25 16 L176 267 L28 509 C23 518 25 526 35 526 L91 526 C102 526 106 521 110 515 L110 515 Z " />
<glyph glyph-name="y" unicode="y" horiz-adv-x="432" d="M410 510 L275 37 C248 -66 220 -115 121 -115 C97 -115 72 -111 59 -106 C50 -103 45 -98 47 -90 L55 -53 C57 -43 61 -40 71 -41 C82 -43 93 -47 117 -47 C159 -47 179 -24 179 9 C179 20 176 32 172 45 L24 510 C21 520 25 526 35 526 L85 526 C95 526 99 521 102 512 L190 214 L223 89 L225 89 L256 214 L332 512 C334 521 339 526 349 526 L398 526 C408 526 413 520 410 510 L410 510 Z " />
<glyph glyph-name="z" unicode="z" horiz-adv-x="417" d="M370 511 L370 481 C370 473 368 465 364 459 L139 70 L356 70 C367 70 371 66 371 55 L371 15 C371 5 367 0 356 0 L58 0 C47 0 43 5 43 15 L43 45 C43 53 46 59 49 65 L276 457 L63 457 C53 457 48 461 48 471 L48 511 C48 522 53 526 63 526 L355 526 C366 526 370 522 370 511 L370 511 Z " />
<glyph glyph-name="braceleft" unicode="&#x7b;" horiz-adv-x="304" d="M33 275 L33 317 C33 327 38 331 47 331 L62 331 C101 331 113 384 113 514 C113 653 135 702 231 702 L261 702 C272 702 277 698 277 687 L277 653 C277 643 272 638 261 638 L244 638 C195 638 185 598 185 502 C185 361 164 309 119 296 C164 283 185 231 185 91 C185 -6 195 -46 244 -46 L261 -46 C272 -46 277 -51 277 -62 L277 -95 C277 -105 272 -110 261 -110 L231 -110 C135 -110 113 -60 113 78 C113 208 101 261 62 261 L47 261 C38 261 33 265 33 275 L33 275 Z " />
<glyph glyph-name="bar" unicode="&#x7c;" horiz-adv-x="261" d="M167 707 L167 -95 C167 -105 163 -110 152 -110 L110 -110 C99 -110 94 -105 94 -95 L94 707 C94 717 99 722 110 722 L152 722 C163 722 167 717 167 707 L167 707 Z " />
<glyph glyph-name="braceright" unicode="&#x7d;" horiz-adv-x="304" d="M272 317 L272 275 C272 265 267 261 257 261 L243 261 C204 261 192 208 192 77 C192 -60 169 -110 74 -110 L43 -110 C32 -110 27 -105 27 -95 L27 -62 C27 -51 32 -46 43 -46 L61 -46 C110 -46 119 -6 119 91 C119 231 141 283 186 296 C141 309 119 361 119 502 C119 598 110 638 61 638 L43 638 C32 638 27 643 27 653 L27 687 C27 698 32 702 43 702 L74 702 C169 702 192 653 192 514 C192 384 204 331 243 331 L257 331 C267 331 272 327 272 317 L272 317 Z " />
<glyph glyph-name="asciitilde" unicode="&#x7e;" horiz-adv-x="529" d="M156 421 C185 421 203 416 247 398 L296 378 C324 367 344 360 361 360 C380 360 394 369 406 391 C409 396 412 404 415 411 C417 418 423 420 430 417 L464 403 C471 400 471 394 470 387 C460 327 425 288 372 288 C344 288 327 293 282 311 L235 331 C208 342 186 349 169 349 C149 349 135 340 123 318 C120 313 117 305 114 298 C112 291 106 289 99 292 L65 306 C58 309 58 315 59 322 C69 382 104 421 156 421 L156 421 Z " />
<glyph glyph-name="uni00A0" unicode="&#xa0;" horiz-adv-x="244" d="" />
<glyph glyph-name="exclamdown" unicode="&#xa1;" horiz-adv-x="246" d="M169 511 L169 434 C169 424 164 419 155 419 L92 419 C81 419 76 424 76 434 L76 511 C76 520 81 526 91 526 L155 526 C164 526 169 520 169 511 L169 511 Z M105 329 L141 329 C151 329 155 323 155 313 L169 -95 C169 -105 165 -110 154 -110 L92 -110 C81 -110 77 -105 77 -95 L90 313 C90 323 95 329 105 329 L105 329 Z " />
<glyph glyph-name="cent" unicode="&#xa2;" horiz-adv-x="423" d="M43 263 C43 428 110 520 227 535 L227 606 C227 617 231 621 242 621 L274 621 C284 621 289 617 289 606 L289 534 C329 532 360 521 374 514 C384 509 387 506 385 496 L375 460 C373 451 366 446 356 451 C336 459 309 466 269 466 C171 466 122 404 122 263 C122 122 170 60 270 60 C313 60 341 69 361 77 C372 82 377 77 379 69 L390 32 C393 23 389 19 378 14 C363 6 329 -5 289 -7 L289 -80 C289 -90 284 -95 274 -95 L242 -95 C231 -95 227 -90 227 -80 L227 -7 C110 8 43 98 43 263 L43 263 Z " />
<glyph glyph-name="sterling" unicode="&#xa3;" horiz-adv-x="565" d="M56 322 C45 322 41 326 41 336 L41 369 C41 378 45 382 56 382 L123 382 C103 427 83 473 83 524 C83 630 150 712 300 712 C434 712 501 644 501 543 C501 515 498 499 486 499 L443 499 C433 499 429 503 429 512 C429 522 431 531 431 542 C431 598 391 639 303 639 C208 639 162 591 162 522 C162 478 183 431 203 382 L365 382 C375 382 380 378 380 369 L380 336 C380 326 375 322 365 322 L224 322 C238 290 248 259 248 229 C248 169 220 109 160 75 C186 84 205 87 231 87 C296 87 327 65 387 65 C449 65 460 111 461 164 C462 173 466 179 477 179 L514 179 C523 179 531 174 531 160 C531 66 505 -7 407 -7 C323 -7 288 20 208 20 C165 20 123 11 87 -6 C80 -9 74 -10 70 -4 L43 37 C39 42 40 48 46 52 C142 110 169 176 169 231 C169 264 159 292 147 322 L56 322 L56 322 Z " />
<glyph glyph-name="currency" unicode="&#xa4;" horiz-adv-x="556" d="M61 108 L116 162 C96 194 86 235 86 283 C86 331 96 371 116 402 L61 458 C54 465 54 471 61 478 L83 500 C90 507 96 507 103 500 L156 447 C188 479 227 493 278 493 C328 493 368 479 400 447 L453 500 C460 507 466 507 473 500 L495 478 C502 471 502 465 495 458 L439 402 C459 370 469 330 469 283 C469 235 459 194 439 163 L495 108 C502 101 502 95 495 88 L473 66 C466 59 460 59 453 66 L400 119 C368 86 328 73 278 73 C227 73 188 86 156 119 L103 66 C96 59 90 59 83 66 L61 88 C54 95 54 101 61 108 L61 108 Z M405 283 C405 383 356 432 278 432 C199 432 151 383 151 283 C151 183 200 134 278 134 C356 134 405 183 405 283 L405 283 Z " />
<glyph glyph-name="yen" unicode="&#xa5;" horiz-adv-x="547" d="M315 16 C315 5 310 0 299 0 L249 0 C238 0 233 5 233 16 L233 178 L72 178 C62 178 58 183 58 192 L58 223 C58 233 62 237 72 237 L233 237 L233 260 L202 323 L72 323 C62 323 58 327 58 337 L58 368 C58 378 62 382 72 382 L175 382 L25 684 C21 693 23 702 36 702 L91 702 C104 702 107 696 111 687 L273 343 L275 343 L438 687 C442 695 445 702 458 702 L511 702 C525 702 526 693 522 684 L372 382 L476 382 C486 382 490 378 490 368 L490 337 C490 327 486 323 476 323 L345 323 L315 260 L315 237 L476 237 C486 237 490 233 490 223 L490 192 C490 183 486 178 476 178 L315 178 L315 16 L315 16 Z " />
<glyph glyph-name="brokenbar" unicode="&#xa6;" horiz-adv-x="261" d="M167 707 L167 405 C167 395 163 390 152 390 L110 390 C99 390 94 395 94 405 L94 707 C94 717 99 722 110 722 L152 722 C163 722 167 717 167 707 L167 707 Z M167 207 L167 -95 C167 -105 163 -110 152 -110 L110 -110 C99 -110 94 -105 94 -95 L94 207 C94 217 99 222 110 222 L152 222 C163 222 167 217 167 207 L167 207 Z " />
<glyph glyph-name="section" unicode="&#xa7;" horiz-adv-x="592" d="M84 315 C83 378 124 433 198 446 C151 476 112 509 112 567 C112 662 167 712 309 712 C380 712 428 700 454 693 C464 690 469 686 469 674 L469 636 C469 626 461 622 449 625 C425 631 385 641 319 641 C223 641 192 613 192 561 C192 510 252 487 340 447 C434 404 508 363 508 280 C508 219 468 172 393 155 C446 125 486 85 486 30 C486 -61 418 -115 269 -115 C201 -115 143 -106 124 -100 C112 -97 108 -91 108 -80 L108 -42 C108 -32 116 -27 128 -30 C147 -34 202 -45 261 -45 C363 -45 406 -12 406 35 C406 95 319 120 253 152 C150 198 84 231 84 315 L84 315 Z M265 405 C198 402 157 363 157 318 C157 261 224 237 327 194 C391 199 435 237 436 276 C436 333 362 365 265 405 L265 405 Z " />
<glyph glyph-name="dieresis" unicode="&#xa8;" horiz-adv-x="295" d="M110 662 L110 601 C110 591 106 587 95 587 L46 587 C36 587 31 591 31 601 L31 662 C31 673 36 677 46 677 L95 677 C106 677 110 673 110 662 L110 662 Z M264 662 L264 601 C264 591 259 587 249 587 L200 587 C190 587 185 591 185 601 L185 662 C185 673 190 677 200 677 L249 677 C259 677 264 673 264 662 L264 662 Z " />
<glyph glyph-name="copyright" unicode="&#xa9;" horiz-adv-x="769" d="M102 351 C102 183 192 43 384 43 C576 43 667 183 667 351 C667 519 576 660 384 660 C192 660 102 519 102 351 L102 351 Z M48 351 C48 546 158 712 384 712 C611 712 721 546 721 351 C721 157 611 -9 384 -9 C158 -9 48 157 48 351 L48 351 Z M409 206 C441 206 467 213 483 219 C489 222 495 218 496 212 L506 177 C508 169 505 167 497 163 C479 155 436 144 401 144 C293 144 220 206 220 352 C220 499 292 561 400 561 C438 561 476 550 495 541 C503 537 505 535 503 528 L493 493 C491 485 487 481 480 485 C466 492 440 499 410 499 C332 499 290 454 290 352 C290 252 333 206 409 206 L409 206 Z " />
<glyph glyph-name="ordfeminine" unicode="&#xaa;" horiz-adv-x="385" d="M271 643 L271 693 C159 692 91 676 91 604 C91 561 112 538 161 538 C234 538 271 584 271 643 L271 643 Z M272 503 L272 543 C259 517 224 482 148 482 C70 482 25 528 25 601 C25 727 140 744 271 748 L271 785 C271 841 246 860 185 860 C146 860 107 850 78 839 C69 835 62 838 60 847 L50 882 C47 892 53 894 60 897 C89 910 136 923 189 923 C292 923 338 876 338 789 L338 503 C338 493 334 487 322 487 L289 487 C277 487 272 493 272 503 L272 503 Z " />
<glyph glyph-name="guillemotleft" unicode="&#xab;" horiz-adv-x="374" d="M33 272 C33 274 34 276 35 279 L104 414 C107 421 112 425 122 425 L164 425 C173 425 177 419 172 410 L102 272 L172 134 C177 125 173 119 164 119 L122 119 C112 119 108 122 104 130 L35 265 C34 268 33 270 33 272 L33 272 Z M186 272 C186 274 187 276 188 279 L256 414 C260 421 264 425 274 425 L316 425 C326 425 329 419 324 410 L254 272 L324 134 C329 125 326 119 316 119 L274 119 C264 119 260 122 256 130 L188 265 C187 267 186 270 186 272 L186 272 Z " />
<glyph glyph-name="logicalnot" unicode="&#xac;" horiz-adv-x="531" d="M456 371 L456 162 C456 152 451 147 440 147 L397 147 C387 147 382 152 382 162 L382 316 L69 316 C58 316 53 320 53 331 L53 371 C53 381 58 385 69 385 L440 385 C451 385 456 381 456 371 L456 371 Z " />
<glyph glyph-name="uni00AD" unicode="&#xad;" horiz-adv-x="329" d="M277 233 L52 233 C42 233 38 236 38 246 L38 284 C38 294 42 298 53 298 L277 298 C286 298 292 294 292 284 L292 246 C292 236 286 233 277 233 L277 233 Z " />
<glyph glyph-name="registered" unicode="&#xae;" horiz-adv-x="421" d="M210 712 C320 712 371 630 371 537 C371 444 320 361 210 361 C101 361 49 444 49 537 C49 630 101 712 210 712 L210 712 Z M210 392 C302 392 340 456 340 537 C340 617 302 682 210 682 C118 682 81 617 81 537 C81 456 118 392 210 392 L210 392 Z M184 537 L211 537 C245 537 256 545 256 571 C256 596 245 605 212 605 L184 605 L184 537 L184 537 Z M147 448 L147 630 C147 635 150 638 155 638 L217 638 C268 638 293 615 293 571 C293 534 274 515 248 510 L289 449 C292 445 289 441 284 441 L259 441 C255 441 252 443 250 446 L210 506 L184 506 L184 448 C184 443 182 441 177 441 L155 441 C150 441 147 443 147 448 L147 448 Z " />
<glyph glyph-name="macron" unicode="&#xaf;" horiz-adv-x="295" d="M267 592 L27 592 C18 592 13 596 13 606 L13 630 C13 640 18 645 27 645 L267 645 C278 645 282 640 282 630 L282 606 C282 596 278 592 267 592 L267 592 Z " />
<glyph glyph-name="degree" unicode="&#xb0;" horiz-adv-x="334" d="M167 495 C215 495 244 528 244 578 C244 627 215 661 167 661 C119 661 90 627 90 578 C90 528 119 495 167 495 L167 495 Z M167 444 C87 444 36 501 36 578 C36 656 87 712 167 712 C247 712 298 656 298 579 C298 501 247 444 167 444 L167 444 Z " />
<glyph glyph-name="plusminus" unicode="&#xb1;" horiz-adv-x="529" d="M463 334 L300 334 L300 153 C300 143 296 139 286 139 L244 139 C234 139 228 143 228 153 L228 334 L65 334 C55 334 51 338 51 347 L51 385 C51 395 55 399 66 399 L228 399 L228 576 C228 586 234 591 244 591 L286 591 C296 591 300 586 300 576 L300 399 L463 399 C472 399 478 395 478 385 L478 347 C478 338 472 334 463 334 L463 334 Z M463 0 L65 0 C55 0 51 5 51 14 L51 45 C51 55 55 60 66 60 L463 60 C472 60 478 55 478 45 L478 14 C478 5 472 0 463 0 L463 0 Z " />
<glyph glyph-name="two.superior" unicode="&#xb2;" horiz-adv-x="361" d="M107 802 C107 793 109 785 109 775 C108 765 104 760 92 760 L59 760 C49 760 45 766 43 774 C42 781 41 795 41 803 C41 872 81 922 175 922 C276 922 311 865 311 798 C311 693 211 604 142 550 L302 550 C314 550 318 545 318 534 L318 503 C318 492 314 487 302 487 L58 487 C46 487 42 492 42 503 L42 531 C42 540 45 543 53 549 C127 609 242 702 242 796 C242 832 227 861 174 861 C122 861 107 835 107 802 L107 802 Z " />
<glyph glyph-name="three.superior" unicode="&#xb3;" horiz-adv-x="361" d="M123 677 C112 677 106 682 106 693 L106 721 C106 733 112 738 123 738 L163 738 C204 738 233 757 233 802 C233 845 200 860 148 860 C116 860 86 851 67 845 C54 841 50 844 48 854 L40 886 C38 894 41 898 50 902 C69 912 109 922 155 922 C248 922 301 888 301 808 C301 759 276 728 246 714 C279 701 308 673 308 613 C308 523 252 482 155 482 C107 482 62 494 45 502 C36 507 31 512 33 522 L41 553 C44 563 52 565 62 561 C81 553 113 544 149 544 C209 544 239 566 239 614 C239 661 209 677 162 677 L123 677 L123 677 Z " />
<glyph glyph-name="acute" unicode="&#xb4;" horiz-adv-x="295" d="M79 600 L125 684 C129 692 133 696 144 696 L212 696 C223 696 225 686 218 679 L137 596 C130 589 125 587 116 587 L88 587 C79 587 75 593 79 600 L79 600 Z " />
<glyph glyph-name="mu" unicode="&#xb5;" horiz-adv-x="495" d="M436 511 L436 167 C436 62 389 -10 281 -10 C196 -10 157 35 139 72 L139 -95 C139 -106 135 -110 124 -110 L78 -110 C67 -110 63 -105 63 -95 L63 511 C63 522 67 526 78 526 L124 526 C135 526 139 522 139 511 L139 203 C139 116 189 61 262 61 C337 61 359 107 359 178 L359 511 C359 522 364 526 375 526 L421 526 C431 526 436 522 436 511 L436 511 Z " />
<glyph glyph-name="paragraph" unicode="&#xb6;" horiz-adv-x="477" d="M451 644 L415 644 C375 644 361 632 361 588 L361 2 C361 -80 329 -114 260 -114 C236 -114 220 -111 206 -106 C199 -103 196 -99 196 -91 L196 -63 C196 -54 202 -50 211 -51 C223 -52 234 -55 246 -55 C277 -55 293 -36 293 9 L293 285 L265 285 C134 285 44 358 44 494 C44 630 128 702 262 702 L451 702 C462 702 467 698 467 687 L467 658 C467 648 462 644 451 644 L451 644 Z " />
<glyph glyph-name="periodcentered" unicode="&#xb7;" horiz-adv-x="202" d="M57 227 L57 301 C57 312 61 317 72 317 L130 317 C141 317 145 312 145 301 L145 227 C145 217 141 212 131 212 L71 212 C60 212 57 217 57 227 L57 227 Z " />
<glyph glyph-name="cedilla" unicode="&#xb8;" horiz-adv-x="295" d="M112 8 L149 8 C197 -5 244 -37 244 -82 C244 -129 211 -147 156 -147 C143 -147 129 -146 121 -143 C113 -141 111 -137 111 -131 L111 -107 C111 -101 114 -97 121 -97 L146 -97 C175 -97 189 -90 189 -70 C189 -40 161 -15 112 8 L112 8 Z " />
<glyph glyph-name="one.superior" unicode="&#xb9;" horiz-adv-x="361" d="M174 827 L105 773 C96 766 87 767 81 776 L62 801 C55 810 58 817 66 823 L172 911 C176 914 183 917 192 917 L225 917 C236 917 241 912 241 901 L241 503 C241 492 236 487 225 487 L190 487 C177 487 174 492 174 503 L174 827 L174 827 Z " />
<glyph glyph-name="ordmasculine" unicode="&#xba;" horiz-adv-x="403" d="M201 860 C136 860 101 810 101 702 C101 594 136 545 202 545 C266 545 302 594 302 702 C302 810 266 860 201 860 L201 860 Z M202 482 C91 482 29 555 29 702 C29 849 91 923 202 923 C312 923 373 849 373 702 C373 555 312 482 202 482 L202 482 Z " />
<glyph glyph-name="guillemotright" unicode="&#xbb;" horiz-adv-x="374" d="M340 272 C340 270 340 268 338 265 L269 130 C265 122 262 119 252 119 L210 119 C201 119 197 125 202 134 L273 272 L202 410 C197 419 201 425 210 425 L252 425 C262 425 266 421 269 414 L338 279 C340 276 340 274 340 272 L340 272 Z M188 272 C188 270 188 268 186 265 L117 130 C113 122 110 119 100 119 L58 119 C49 119 45 125 50 134 L120 272 L50 410 C45 419 49 425 58 425 L100 425 C110 425 114 421 117 414 L186 279 C188 276 188 274 188 272 L188 272 Z " />
<glyph glyph-name="onequarter" unicode="&#xbc;" horiz-adv-x="846" d="M660 687 L291 12 C287 5 284 0 273 0 L225 0 C215 0 211 6 216 15 L584 690 C589 698 593 702 604 702 L651 702 C661 702 665 696 660 687 L660 687 Z M174 612 L105 558 C96 551 87 552 81 561 L62 586 C55 595 58 602 66 608 L172 696 C176 699 183 702 192 702 L225 702 C236 702 241 697 241 686 L241 288 C241 277 236 272 225 272 L190 272 C177 272 174 277 174 288 L174 612 L174 612 Z M704 336 L580 157 L704 157 L704 336 L704 336 Z M810 94 L771 94 L771 16 C771 5 767 0 755 0 L720 0 C708 0 704 5 704 16 L704 94 L522 94 C510 94 505 100 505 111 L505 139 C505 146 508 151 512 156 L700 418 C705 425 710 430 719 430 L755 430 C767 430 771 425 771 414 L771 157 L810 157 C822 157 827 152 827 141 L827 111 C827 99 822 94 810 94 L810 94 Z " />
<glyph glyph-name="onehalf" unicode="&#xbd;" horiz-adv-x="846" d="M620 687 L251 12 C247 5 244 0 233 0 L185 0 C175 0 171 6 176 15 L544 690 C549 698 553 702 564 702 L611 702 C621 702 625 696 620 687 L620 687 Z M174 612 L105 558 C96 551 87 552 81 561 L62 586 C55 595 58 602 66 608 L172 696 C176 699 183 702 192 702 L225 702 C236 702 241 697 241 686 L241 288 C241 277 236 272 225 272 L190 272 C177 272 174 277 174 288 L174 612 L174 612 Z M592 315 C592 306 594 298 594 288 C593 278 589 273 577 273 L544 273 C534 273 530 279 528 287 C527 294 526 308 526 316 C526 385 566 435 660 435 C761 435 796 378 796 311 C796 206 696 117 627 63 L787 63 C799 63 803 58 803 47 L803 16 C803 5 799 0 787 0 L543 0 C531 0 527 5 527 16 L527 44 C527 53 530 56 538 62 C612 122 727 215 727 309 C727 345 712 374 659 374 C607 374 592 348 592 315 L592 315 Z " />
<glyph glyph-name="threequarters" unicode="&#xbe;" horiz-adv-x="846" d="M672 687 L303 12 C299 5 296 0 285 0 L237 0 C227 0 223 6 228 15 L596 690 C601 698 605 702 616 702 L663 702 C673 702 677 696 672 687 L672 687 Z M704 336 L580 157 L704 157 L704 336 L704 336 Z M810 94 L771 94 L771 16 C771 5 767 0 755 0 L720 0 C708 0 704 5 704 16 L704 94 L522 94 C510 94 505 100 505 111 L505 139 C505 146 508 151 512 156 L700 418 C705 425 710 430 719 430 L755 430 C767 430 771 425 771 414 L771 157 L810 157 C822 157 827 152 827 141 L827 111 C827 99 822 94 810 94 L810 94 Z M123 462 C112 462 106 467 106 478 L106 506 C106 518 112 523 123 523 L163 523 C204 523 233 542 233 587 C233 630 200 645 148 645 C116 645 86 636 67 630 C54 626 50 629 48 639 L40 671 C38 679 41 683 50 687 C69 697 109 707 155 707 C248 707 301 673 301 593 C301 544 276 513 246 499 C279 486 308 458 308 398 C308 308 252 267 155 267 C107 267 62 279 45 287 C36 292 31 297 33 307 L41 338 C44 348 52 350 62 346 C81 338 113 329 149 329 C209 329 239 351 239 399 C239 446 209 462 162 462 L123 462 L123 462 Z " />
<glyph glyph-name="questiondown" unicode="&#xbf;" horiz-adv-x="397" d="M258 511 L258 434 C258 424 253 419 243 419 L180 419 C170 419 165 424 165 434 L165 511 C165 521 170 526 180 526 L243 526 C253 526 258 521 258 511 L258 511 Z M173 314 C173 325 177 330 188 330 L235 330 C246 330 250 325 250 314 L250 297 C250 190 122 149 122 39 C122 -20 151 -44 233 -44 C281 -44 318 -30 344 -21 C355 -17 360 -22 362 -30 L374 -73 C377 -83 371 -84 361 -89 C333 -102 286 -117 218 -117 C96 -117 40 -69 40 32 C40 165 173 203 173 297 L173 314 L173 314 Z " />
<glyph glyph-name="Agrave" unicode="&#xc0;" horiz-adv-x="562" d="M182 259 L380 259 L282 615 L280 615 L182 259 L182 259 Z M248 702 L314 702 C328 702 332 696 335 685 L537 17 C540 7 534 0 524 0 L471 0 C461 0 456 5 453 15 L403 185 L159 185 L109 15 C106 5 102 0 92 0 L38 0 C28 0 22 7 25 17 L227 685 C230 696 234 702 248 702 L248 702 Z M257 846 L303 763 C306 757 303 749 294 749 L265 749 C256 749 251 752 244 759 L163 842 C157 848 159 859 170 859 L237 859 C248 859 253 853 257 846 L257 846 Z " />
<glyph glyph-name="Aacute" unicode="&#xc1;" horiz-adv-x="562" d="M182 259 L380 259 L282 615 L280 615 L182 259 L182 259 Z M248 702 L314 702 C328 702 332 696 335 685 L537 17 C540 7 534 0 524 0 L471 0 C461 0 456 5 453 15 L403 185 L159 185 L109 15 C106 5 102 0 92 0 L38 0 C28 0 22 7 25 17 L227 685 C230 696 234 702 248 702 L248 702 Z M259 763 L305 846 C309 853 313 859 324 859 L392 859 C403 859 404 849 398 842 L317 759 C310 752 305 749 296 749 L268 749 C259 749 256 757 259 763 L259 763 Z " />
<glyph glyph-name="Acircumflex" unicode="&#xc2;" horiz-adv-x="562" d="M182 259 L380 259 L282 615 L280 615 L182 259 L182 259 Z M248 702 L314 702 C328 702 332 696 335 685 L537 17 C540 7 534 0 524 0 L471 0 C461 0 456 5 453 15 L403 185 L159 185 L109 15 C106 5 102 0 92 0 L38 0 C28 0 22 7 25 17 L227 685 C230 696 234 702 248 702 L248 702 Z M338 759 L282 809 L225 759 C219 753 213 749 204 749 L167 749 C157 749 155 758 162 765 L241 849 C247 856 251 859 262 859 L301 859 C312 859 316 855 322 849 L401 765 C408 758 406 749 395 749 L359 749 C350 749 344 753 338 759 L338 759 Z " />
<glyph glyph-name="Atilde" unicode="&#xc3;" horiz-adv-x="562" d="M182 259 L380 259 L282 615 L280 615 L182 259 L182 259 Z M248 702 L314 702 C328 702 332 696 335 685 L537 17 C540 7 534 0 524 0 L471 0 C461 0 456 5 453 15 L403 185 L159 185 L109 15 C106 5 102 0 92 0 L38 0 C28 0 22 7 25 17 L227 685 C230 696 234 702 248 702 L248 702 Z M423 814 C423 776 406 746 359 746 C339 746 311 752 283 764 L258 775 C242 781 228 786 217 786 C203 786 193 779 192 767 L191 760 C190 751 184 748 176 748 L154 748 C145 748 141 753 141 767 C141 805 158 835 205 835 C224 835 253 827 281 816 L308 805 C326 797 340 793 350 793 C363 793 370 800 371 813 L372 822 C372 830 379 833 388 833 L409 833 C418 833 423 829 423 814 L423 814 Z " />
<glyph glyph-name="Adieresis" unicode="&#xc4;" horiz-adv-x="562" d="M182 259 L380 259 L282 615 L280 615 L182 259 L182 259 Z M248 702 L314 702 C328 702 332 696 335 685 L537 17 C540 7 534 0 524 0 L471 0 C461 0 456 5 453 15 L403 185 L159 185 L109 15 C106 5 102 0 92 0 L38 0 C28 0 22 7 25 17 L227 685 C230 696 234 702 248 702 L248 702 Z M243 823 L243 764 C243 754 239 749 228 749 L176 749 C166 749 162 754 162 764 L162 823 C162 833 166 838 176 838 L228 838 C239 838 243 833 243 823 L243 823 Z M402 823 L402 764 C402 754 397 749 386 749 L335 749 C324 749 320 754 320 764 L320 823 C320 833 324 838 335 838 L386 838 C397 838 402 833 402 823 L402 823 Z " />
<glyph glyph-name="Aring" unicode="&#xc5;" horiz-adv-x="562" d="M187 750 C187 801 223 838 282 838 C340 838 377 801 377 750 C377 717 363 691 338 675 L537 17 C540 7 534 0 524 0 L471 0 C461 0 456 5 453 15 L403 185 L159 185 L109 15 C106 5 102 0 92 0 L38 0 C28 0 22 7 25 17 L224 676 C200 692 187 718 187 750 L187 750 Z M182 259 L380 259 L282 615 L280 615 L182 259 L182 259 Z M231 750 C231 720 249 703 282 703 C314 703 332 720 332 750 C332 779 314 797 282 797 C249 797 231 779 231 750 L231 750 Z " />
<glyph glyph-name="AE" unicode="&#xc6;" horiz-adv-x="730" d="M657 323 L441 323 L441 76 L669 76 C680 76 685 71 685 60 L685 16 C685 5 680 0 669 0 L376 0 C365 0 360 5 360 16 L360 181 L164 181 L99 15 C95 5 90 0 80 0 L24 0 C12 0 7 8 11 17 L288 685 C293 697 296 702 310 702 L666 702 C677 702 682 697 682 686 L682 642 C682 632 677 626 666 626 L441 626 L441 395 L657 395 C668 395 673 390 673 379 L673 339 C673 328 668 323 657 323 L657 323 Z M197 254 L359 254 L359 628 L339 628 L197 254 L197 254 Z " />
<glyph glyph-name="Ccedilla" unicode="&#xc7;" horiz-adv-x="497" d="M326 66 C368 66 406 79 429 88 C441 93 445 86 448 76 L461 37 C464 28 458 23 447 18 C423 5 372 -9 315 -9 L310 -9 C341 -27 364 -54 364 -87 C364 -135 332 -157 274 -157 C260 -157 247 -157 238 -153 C231 -150 228 -146 228 -140 L228 -114 C228 -108 231 -105 238 -105 L265 -105 C294 -105 307 -94 307 -75 C307 -50 289 -25 252 -3 C118 21 48 131 48 351 C48 603 138 712 311 712 C366 712 417 698 441 686 C452 681 457 677 454 667 L443 628 C440 618 435 612 423 617 C400 626 362 637 322 637 C191 637 132 557 132 351 C132 146 191 66 326 66 L326 66 Z " />
<glyph glyph-name="Egrave" unicode="&#xc8;" horiz-adv-x="463" d="M390 323 L151 323 L151 75 L402 75 C413 75 418 70 418 60 L418 17 C418 5 413 0 402 0 L87 0 C76 0 71 5 71 16 L71 686 C71 697 76 702 86 702 L399 702 C410 702 415 697 415 686 L415 643 C415 632 410 627 399 627 L151 627 L151 395 L390 395 C401 395 406 390 406 379 L406 339 C406 328 401 323 390 323 L390 323 Z M252 846 L298 763 C301 757 298 749 289 749 L260 749 C251 749 246 752 239 759 L158 842 C152 848 154 859 165 859 L232 859 C243 859 248 853 252 846 L252 846 Z " />
<glyph glyph-name="Eacute" unicode="&#xc9;" horiz-adv-x="463" d="M390 323 L151 323 L151 75 L402 75 C413 75 418 70 418 60 L418 17 C418 5 413 0 402 0 L87 0 C76 0 71 5 71 16 L71 686 C71 697 76 702 86 702 L399 702 C410 702 415 697 415 686 L415 643 C415 632 410 627 399 627 L151 627 L151 395 L390 395 C401 395 406 390 406 379 L406 339 C406 328 401 323 390 323 L390 323 Z M210 763 L256 846 C260 853 264 859 275 859 L343 859 C354 859 355 849 349 842 L268 759 C261 752 256 749 247 749 L219 749 C210 749 207 757 210 763 L210 763 Z " />
<glyph glyph-name="Ecircumflex" unicode="&#xca;" horiz-adv-x="463" d="M390 323 L151 323 L151 75 L402 75 C413 75 418 70 418 60 L418 17 C418 5 413 0 402 0 L87 0 C76 0 71 5 71 16 L71 686 C71 697 76 702 86 702 L399 702 C410 702 415 697 415 686 L415 643 C415 632 410 627 399 627 L151 627 L151 395 L390 395 C401 395 406 390 406 379 L406 339 C406 328 401 323 390 323 L390 323 Z M306 759 L250 809 L193 759 C187 753 181 749 172 749 L135 749 C125 749 123 758 130 765 L209 849 C215 856 219 859 230 859 L269 859 C280 859 284 855 290 849 L369 765 C376 758 374 749 363 749 L327 749 C318 749 312 753 306 759 L306 759 Z " />
<glyph glyph-name="Edieresis" unicode="&#xcb;" horiz-adv-x="463" d="M390 323 L151 323 L151 75 L402 75 C413 75 418 70 418 60 L418 17 C418 5 413 0 402 0 L87 0 C76 0 71 5 71 16 L71 686 C71 697 76 702 86 702 L399 702 C410 702 415 697 415 686 L415 643 C415 632 410 627 399 627 L151 627 L151 395 L390 395 C401 395 406 390 406 379 L406 339 C406 328 401 323 390 323 L390 323 Z M210 823 L210 764 C210 754 206 749 195 749 L143 749 C133 749 129 754 129 764 L129 823 C129 833 133 838 143 838 L195 838 C206 838 210 833 210 823 L210 823 Z M369 823 L369 764 C369 754 364 749 353 749 L302 749 C291 749 287 754 287 764 L287 823 C287 833 291 838 302 838 L353 838 C364 838 369 833 369 823 L369 823 Z " />
<glyph glyph-name="Igrave" unicode="&#xcc;" horiz-adv-x="235" d="M77 16 L77 686 C77 697 82 702 93 702 L142 702 C153 702 159 697 159 686 L159 16 C159 5 153 0 142 0 L93 0 C82 0 77 5 77 16 L77 16 Z M97 846 L143 763 C146 757 143 749 134 749 L105 749 C96 749 91 752 84 759 L3 842 C-3 848 -1 859 10 859 L77 859 C88 859 93 853 97 846 L97 846 Z " />
<glyph glyph-name="Iacute" unicode="&#xcd;" horiz-adv-x="235" d="M77 16 L77 686 C77 697 82 702 93 702 L142 702 C153 702 159 697 159 686 L159 16 C159 5 153 0 142 0 L93 0 C82 0 77 5 77 16 L77 16 Z M92 763 L138 846 C142 853 146 859 157 859 L225 859 C236 859 237 849 231 842 L150 759 C143 752 138 749 129 749 L101 749 C92 749 89 757 92 763 L92 763 Z " />
<glyph glyph-name="Icircumflex" unicode="&#xce;" horiz-adv-x="235" d="M77 16 L77 686 C77 697 82 702 93 702 L142 702 C153 702 159 697 159 686 L159 16 C159 5 153 0 142 0 L93 0 C82 0 77 5 77 16 L77 16 Z M173 759 L117 809 L60 759 C54 753 48 749 39 749 L2 749 C-8 749 -10 758 -3 765 L76 849 C82 856 86 859 97 859 L136 859 C147 859 151 855 157 849 L236 765 C243 758 241 749 230 749 L194 749 C185 749 179 753 173 759 L173 759 Z " />
<glyph glyph-name="Idieresis" unicode="&#xcf;" horiz-adv-x="235" d="M77 16 L77 686 C77 697 82 702 93 702 L142 702 C153 702 159 697 159 686 L159 16 C159 5 153 0 142 0 L93 0 C82 0 77 5 77 16 L77 16 Z M78 823 L78 764 C78 754 74 749 63 749 L11 749 C1 749 -3 754 -3 764 L-3 823 C-3 833 1 838 11 838 L63 838 C74 838 78 833 78 823 L78 823 Z M237 823 L237 764 C237 754 232 749 221 749 L170 749 C159 749 155 754 155 764 L155 823 C155 833 159 838 170 838 L221 838 C232 838 237 833 237 823 L237 823 Z " />
<glyph glyph-name="Eth" unicode="&#xd0;" horiz-adv-x="572" d="M237 0 L89 0 C78 0 73 5 73 16 L73 322 L30 322 C20 322 16 326 16 336 L16 367 C16 377 20 382 30 382 L73 382 L73 686 C73 697 78 702 88 702 L235 702 C421 702 525 617 525 351 C525 85 422 0 237 0 L237 0 Z M270 322 L154 322 L154 76 L237 76 C368 76 442 134 442 351 C442 569 367 626 235 626 L154 626 L154 382 L270 382 C280 382 284 377 284 367 L284 336 C284 326 280 322 270 322 L270 322 Z " />
<glyph glyph-name="Ntilde" unicode="&#xd1;" horiz-adv-x="589" d="M518 687 L518 16 C518 5 512 0 502 0 L451 0 C440 0 435 4 430 13 L150 551 L150 16 C150 5 145 0 135 0 L87 0 C76 0 71 5 71 16 L71 686 C71 697 76 702 87 702 L137 702 C148 702 155 698 159 690 L439 151 L439 686 C439 697 444 702 454 702 L502 702 C512 702 518 697 518 687 L518 687 Z M436 814 C436 776 419 746 372 746 C352 746 324 752 296 764 L271 775 C255 781 241 786 230 786 C216 786 206 779 205 767 L204 760 C203 751 197 748 189 748 L167 748 C158 748 154 753 154 767 C154 805 171 835 218 835 C237 835 266 827 294 816 L321 805 C339 797 353 793 363 793 C376 793 383 800 384 813 L385 822 C385 830 392 833 401 833 L422 833 C431 833 436 829 436 814 L436 814 Z " />
<glyph glyph-name="Ograve" unicode="&#xd2;" horiz-adv-x="597" d="M298 712 C461 712 549 603 549 351 C549 99 461 -9 298 -9 C136 -9 47 99 47 351 C47 603 136 712 298 712 L298 712 Z M298 65 C411 65 466 149 466 351 C466 553 411 638 298 638 C186 638 131 553 131 351 C131 149 186 65 298 65 L298 65 Z M283 846 L329 763 C332 757 329 749 320 749 L291 749 C282 749 277 752 270 759 L189 842 C183 848 185 859 196 859 L263 859 C274 859 279 853 283 846 L283 846 Z " />
<glyph glyph-name="Oacute" unicode="&#xd3;" horiz-adv-x="597" d="M298 712 C461 712 549 603 549 351 C549 99 461 -9 298 -9 C136 -9 47 99 47 351 C47 603 136 712 298 712 L298 712 Z M298 65 C411 65 466 149 466 351 C466 553 411 638 298 638 C186 638 131 553 131 351 C131 149 186 65 298 65 L298 65 Z M273 763 L319 846 C323 853 327 859 338 859 L406 859 C417 859 418 849 412 842 L331 759 C324 752 319 749 310 749 L282 749 C273 749 270 757 273 763 L273 763 Z " />
<glyph glyph-name="Ocircumflex" unicode="&#xd4;" horiz-adv-x="597" d="M298 712 C461 712 549 603 549 351 C549 99 461 -9 298 -9 C136 -9 47 99 47 351 C47 603 136 712 298 712 L298 712 Z M298 65 C411 65 466 149 466 351 C466 553 411 638 298 638 C186 638 131 553 131 351 C131 149 186 65 298 65 L298 65 Z M355 759 L299 809 L242 759 C236 753 230 749 221 749 L184 749 C174 749 172 758 179 765 L258 849 C264 856 268 859 279 859 L318 859 C329 859 333 855 339 849 L418 765 C425 758 423 749 412 749 L376 749 C367 749 361 753 355 759 L355 759 Z " />
<glyph glyph-name="Otilde" unicode="&#xd5;" horiz-adv-x="597" d="M298 712 C461 712 549 603 549 351 C549 99 461 -9 298 -9 C136 -9 47 99 47 351 C47 603 136 712 298 712 L298 712 Z M298 65 C411 65 466 149 466 351 C466 553 411 638 298 638 C186 638 131 553 131 351 C131 149 186 65 298 65 L298 65 Z M440 814 C440 776 423 746 376 746 C356 746 328 752 300 764 L275 775 C259 781 245 786 234 786 C220 786 210 779 209 767 L208 760 C207 751 201 748 193 748 L171 748 C162 748 158 753 158 767 C158 805 175 835 222 835 C241 835 270 827 298 816 L325 805 C343 797 357 793 367 793 C380 793 387 800 388 813 L389 822 C389 830 396 833 405 833 L426 833 C435 833 440 829 440 814 L440 814 Z " />
<glyph glyph-name="Odieresis" unicode="&#xd6;" horiz-adv-x="597" d="M298 712 C461 712 549 603 549 351 C549 99 461 -9 298 -9 C136 -9 47 99 47 351 C47 603 136 712 298 712 L298 712 Z M298 65 C411 65 466 149 466 351 C466 553 411 638 298 638 C186 638 131 553 131 351 C131 149 186 65 298 65 L298 65 Z M260 823 L260 764 C260 754 256 749 245 749 L193 749 C183 749 179 754 179 764 L179 823 C179 833 183 838 193 838 L245 838 C256 838 260 833 260 823 L260 823 Z M419 823 L419 764 C419 754 414 749 403 749 L352 749 C341 749 337 754 337 764 L337 823 C337 833 341 838 352 838 L403 838 C414 838 419 833 419 823 L419 823 Z " />
<glyph glyph-name="multiply" unicode="&#xd7;" horiz-adv-x="529" d="M413 151 L264 298 L116 150 C109 143 102 143 95 150 L68 177 C62 184 61 191 67 197 L217 347 L67 495 C60 501 60 509 67 516 L95 542 C103 549 110 549 116 542 L264 393 L413 542 C421 550 426 549 433 542 L461 516 C468 509 468 502 460 495 L311 347 L460 197 C467 189 467 184 460 177 L433 150 C427 143 421 143 413 151 L413 151 Z " />
<glyph glyph-name="Oslash" unicode="&#xd8;" horiz-adv-x="600" d="M300 712 C374 712 433 686 473 640 L512 693 C518 701 525 703 532 698 L559 677 C568 671 569 665 562 656 L510 583 C536 526 551 452 551 351 C551 99 463 -9 300 -9 C226 -9 166 13 126 62 L85 7 C79 -2 73 -3 65 3 L38 25 C31 31 30 36 36 44 L88 118 C62 172 49 249 49 351 C49 603 137 712 300 712 L300 712 Z M300 65 C413 65 468 150 468 351 C468 408 462 463 451 508 L177 127 C209 83 242 65 300 65 L300 65 Z M132 351 C132 294 137 233 148 194 L421 572 C395 615 358 638 300 638 C187 638 132 553 132 351 L132 351 Z " />
<glyph glyph-name="Ugrave" unicode="&#xd9;" horiz-adv-x="573" d="M286 -10 C136 -10 66 70 66 226 L66 686 C66 697 72 702 82 702 L131 702 C143 702 148 697 148 686 L148 232 C148 121 186 65 286 65 C387 65 425 121 425 232 L425 686 C425 697 430 702 441 702 L490 702 C501 702 506 697 506 686 L506 226 C506 70 436 -10 286 -10 L286 -10 Z M276 846 L322 763 C325 757 322 749 313 749 L284 749 C275 749 270 752 263 759 L182 842 C176 848 178 859 189 859 L256 859 C267 859 272 853 276 846 L276 846 Z " />
<glyph glyph-name="Uacute" unicode="&#xda;" horiz-adv-x="573" d="M286 -10 C136 -10 66 70 66 226 L66 686 C66 697 72 702 82 702 L131 702 C143 702 148 697 148 686 L148 232 C148 121 186 65 286 65 C387 65 425 121 425 232 L425 686 C425 697 430 702 441 702 L490 702 C501 702 506 697 506 686 L506 226 C506 70 436 -10 286 -10 L286 -10 Z M251 763 L297 846 C301 853 305 859 316 859 L384 859 C395 859 396 849 390 842 L309 759 C302 752 297 749 288 749 L260 749 C251 749 248 757 251 763 L251 763 Z " />
<glyph glyph-name="Ucircumflex" unicode="&#xdb;" horiz-adv-x="573" d="M286 -10 C136 -10 66 70 66 226 L66 686 C66 697 72 702 82 702 L131 702 C143 702 148 697 148 686 L148 232 C148 121 186 65 286 65 C387 65 425 121 425 232 L425 686 C425 697 430 702 441 702 L490 702 C501 702 506 697 506 686 L506 226 C506 70 436 -10 286 -10 L286 -10 Z M343 759 L287 809 L230 759 C224 753 218 749 209 749 L172 749 C162 749 160 758 167 765 L246 849 C252 856 256 859 267 859 L306 859 C317 859 321 855 327 849 L406 765 C413 758 411 749 400 749 L364 749 C355 749 349 753 343 759 L343 759 Z " />
<glyph glyph-name="Udieresis" unicode="&#xdc;" horiz-adv-x="573" d="M286 -10 C136 -10 66 70 66 226 L66 686 C66 697 72 702 82 702 L131 702 C143 702 148 697 148 686 L148 232 C148 121 186 65 286 65 C387 65 425 121 425 232 L425 686 C425 697 430 702 441 702 L490 702 C501 702 506 697 506 686 L506 226 C506 70 436 -10 286 -10 L286 -10 Z M248 823 L248 764 C248 754 244 749 233 749 L181 749 C171 749 167 754 167 764 L167 823 C167 833 171 838 181 838 L233 838 C244 838 248 833 248 823 L248 823 Z M407 823 L407 764 C407 754 402 749 391 749 L340 749 C329 749 325 754 325 764 L325 823 C325 833 329 838 340 838 L391 838 C402 838 407 833 407 823 L407 823 Z " />
<glyph glyph-name="Yacute" unicode="&#xdd;" horiz-adv-x="538" d="M310 263 L310 16 C310 5 304 0 293 0 L244 0 C233 0 228 5 228 16 L228 263 L27 684 C23 692 25 702 38 702 L93 702 C106 702 109 696 113 687 L224 444 L268 339 L314 444 L425 687 C429 696 432 702 445 702 L499 702 C513 702 514 692 510 684 L310 263 L310 263 Z M242 763 L288 846 C292 853 296 859 307 859 L375 859 C386 859 387 849 381 842 L300 759 C293 752 288 749 279 749 L251 749 C242 749 239 757 242 763 L242 763 Z " />
<glyph glyph-name="Thorn" unicode="&#xde;" horiz-adv-x="522" d="M136 0 L86 0 C76 0 71 5 71 16 L71 686 C71 697 76 702 87 702 L136 702 C146 702 152 697 152 686 L152 620 L230 620 C397 620 473 558 473 387 C473 216 397 153 231 153 L152 153 L152 16 C152 5 146 0 136 0 L136 0 Z M152 228 L231 228 C345 228 390 267 390 388 C390 507 344 545 231 545 L152 545 L152 228 L152 228 Z " />
<glyph glyph-name="germandbls" unicode="&#xdf;" horiz-adv-x="536" d="M258 643 C195 643 140 615 140 535 L140 15 C140 4 137 0 126 0 L81 0 C71 0 67 4 67 15 L67 542 C67 660 148 710 260 710 C386 710 437 647 437 574 C437 464 315 442 315 404 C315 355 499 330 499 157 C499 50 442 -5 310 -5 C287 -5 257 -2 244 1 C240 2 229 4 229 17 L229 54 C229 64 234 69 244 68 C265 65 286 63 305 63 C374 63 425 88 425 160 C425 293 241 311 241 400 C241 466 365 480 365 564 C365 604 337 643 258 643 L258 643 Z " />
<glyph glyph-name="agrave" unicode="&#xe0;" horiz-adv-x="467" d="M408 366 L408 15 C408 5 403 0 393 0 L350 0 C340 0 336 5 336 15 L336 78 C317 40 275 -7 182 -7 C88 -7 34 49 34 141 C34 285 161 317 334 321 L334 362 C334 434 304 467 227 467 C173 467 129 453 95 440 C87 437 79 441 77 451 L69 490 C67 499 71 505 79 508 C114 524 179 536 233 536 C358 536 408 478 408 366 L408 366 Z M334 197 L334 261 C206 255 108 242 108 143 C108 92 136 56 196 56 C285 56 334 121 334 197 L334 197 Z M228 684 L274 600 C278 593 274 587 265 587 L236 587 C227 587 222 589 215 596 L134 679 C127 686 130 696 141 696 L208 696 C219 696 224 692 228 684 L228 684 Z " />
<glyph glyph-name="aacute" unicode="&#xe1;" horiz-adv-x="467" d="M408 366 L408 15 C408 5 403 0 393 0 L350 0 C340 0 336 5 336 15 L336 78 C317 40 275 -7 182 -7 C88 -7 34 49 34 141 C34 285 161 317 334 321 L334 362 C334 434 304 467 227 467 C173 467 129 453 95 440 C87 437 79 441 77 451 L69 490 C67 499 71 505 79 508 C114 524 179 536 233 536 C358 536 408 478 408 366 L408 366 Z M334 197 L334 261 C206 255 108 242 108 143 C108 92 136 56 196 56 C285 56 334 121 334 197 L334 197 Z M192 600 L238 684 C242 692 246 696 257 696 L325 696 C336 696 338 686 331 679 L250 596 C243 589 238 587 229 587 L201 587 C192 587 188 593 192 600 L192 600 Z " />
<glyph glyph-name="acircumflex" unicode="&#xe2;" horiz-adv-x="467" d="M408 366 L408 15 C408 5 403 0 393 0 L350 0 C340 0 336 5 336 15 L336 78 C317 40 275 -7 182 -7 C88 -7 34 49 34 141 C34 285 161 317 334 321 L334 362 C334 434 304 467 227 467 C173 467 129 453 95 440 C87 437 79 441 77 451 L69 490 C67 499 71 505 79 508 C114 524 179 536 233 536 C358 536 408 478 408 366 L408 366 Z M334 197 L334 261 C206 255 108 242 108 143 C108 92 136 56 196 56 C285 56 334 121 334 197 L334 197 Z M292 596 L233 650 L173 596 C166 590 162 587 153 587 L117 587 C106 587 104 595 111 602 L192 690 C198 697 202 700 213 700 L252 700 C263 700 267 696 273 690 L354 602 C360 595 359 587 349 587 L312 587 C304 587 299 590 292 596 L292 596 Z " />
<glyph glyph-name="atilde" unicode="&#xe3;" horiz-adv-x="467" d="M408 366 L408 15 C408 5 403 0 393 0 L350 0 C340 0 336 5 336 15 L336 78 C317 40 275 -7 182 -7 C88 -7 34 49 34 141 C34 285 161 317 334 321 L334 362 C334 434 304 467 227 467 C173 467 129 453 95 440 C87 437 79 441 77 451 L69 490 C67 499 71 505 79 508 C114 524 179 536 233 536 C358 536 408 478 408 366 L408 366 Z M334 197 L334 261 C206 255 108 242 108 143 C108 92 136 56 196 56 C285 56 334 121 334 197 L334 197 Z M364 651 C364 613 349 586 306 586 C284 586 256 593 230 604 L207 615 C192 622 181 625 172 625 C158 625 151 618 149 606 L148 598 C147 591 141 588 132 588 L111 588 C101 588 97 592 97 606 C97 644 112 672 155 672 C177 672 204 664 231 653 L255 642 C271 635 283 632 292 632 C305 632 312 638 313 652 L314 659 C315 668 321 670 329 670 L351 670 C360 670 364 665 364 651 L364 651 Z " />
<glyph glyph-name="adieresis" unicode="&#xe4;" horiz-adv-x="467" d="M408 366 L408 15 C408 5 403 0 393 0 L350 0 C340 0 336 5 336 15 L336 78 C317 40 275 -7 182 -7 C88 -7 34 49 34 141 C34 285 161 317 334 321 L334 362 C334 434 304 467 227 467 C173 467 129 453 95 440 C87 437 79 441 77 451 L69 490 C67 499 71 505 79 508 C114 524 179 536 233 536 C358 536 408 478 408 366 L408 366 Z M334 197 L334 261 C206 255 108 242 108 143 C108 92 136 56 196 56 C285 56 334 121 334 197 L334 197 Z M193 662 L193 601 C193 591 189 587 178 587 L129 587 C119 587 114 591 114 601 L114 662 C114 673 119 677 129 677 L178 677 C189 677 193 673 193 662 L193 662 Z M347 662 L347 601 C347 591 342 587 332 587 L283 587 C273 587 268 591 268 601 L268 662 C268 673 273 677 283 677 L332 677 C342 677 347 673 347 662 L347 662 Z " />
<glyph glyph-name="aring" unicode="&#xe5;" horiz-adv-x="467" d="M408 366 L408 15 C408 5 403 0 393 0 L350 0 C340 0 336 5 336 15 L336 78 C317 40 275 -7 182 -7 C88 -7 34 49 34 141 C34 285 161 317 334 321 L334 362 C334 434 304 467 227 467 C173 467 129 453 95 440 C87 437 79 441 77 451 L69 490 C67 499 71 505 79 508 C114 524 179 536 233 536 C358 536 408 478 408 366 L408 366 Z M334 197 L334 261 C206 255 108 242 108 143 C108 92 136 56 196 56 C285 56 334 121 334 197 L334 197 Z M232 621 C264 621 282 639 282 669 C282 698 264 716 231 716 C199 716 181 698 181 669 C181 639 199 621 232 621 L232 621 Z M231 757 C290 757 327 721 327 669 C327 617 290 581 232 581 C173 581 136 617 136 669 C136 721 173 757 231 757 L231 757 Z " />
<glyph glyph-name="ae" unicode="&#xe6;" horiz-adv-x="750" d="M556 56 C596 56 628 65 659 79 C667 83 674 79 677 69 L687 33 C688 23 683 19 675 14 C652 2 596 -10 552 -10 C458 -10 391 36 371 104 C342 32 284 -7 194 -7 C83 -7 34 49 34 137 C34 277 159 303 332 304 L332 369 C332 434 298 467 227 467 C171 467 126 454 92 440 C83 437 77 441 75 451 L65 490 C63 499 67 504 76 508 C115 523 172 536 228 536 C309 536 365 509 381 451 C406 505 459 536 529 536 C650 536 707 440 707 303 L707 249 C707 237 702 234 690 234 L404 234 C410 115 467 56 556 56 L556 56 Z M524 470 C452 470 408 409 403 298 L632 298 L632 306 C632 402 604 470 524 470 L524 470 Z M332 197 L332 242 C202 239 108 227 108 139 C108 91 132 58 202 58 C290 58 332 121 332 197 L332 197 Z " />
<glyph glyph-name="ccedilla" unicode="&#xe7;" horiz-adv-x="406" d="M42 264 C42 445 119 536 250 536 C301 536 339 525 358 516 C368 512 373 507 370 497 L359 460 C357 452 351 447 339 452 C319 460 292 466 259 466 C168 466 121 405 121 264 C121 123 169 60 257 60 C294 60 326 70 346 79 C357 83 362 79 364 70 L374 32 C376 23 372 19 361 14 C344 5 300 -9 256 -9 L251 -9 C281 -25 304 -51 304 -82 C304 -129 271 -147 216 -147 C203 -147 189 -146 181 -143 C173 -141 171 -137 171 -131 L171 -107 C171 -101 174 -97 181 -97 L206 -97 C235 -97 249 -90 249 -70 C249 -43 227 -20 189 0 C94 27 42 116 42 264 L42 264 Z " />
<glyph glyph-name="egrave" unicode="&#xe8;" horiz-adv-x="471" d="M274 56 C318 56 348 63 378 78 C387 82 395 78 398 68 L408 34 C411 24 404 19 395 15 C363 1 318 -10 270 -10 C121 -10 42 87 42 263 C42 443 116 536 242 536 C371 536 429 438 429 294 L429 243 C429 232 424 228 413 228 L118 228 C124 118 180 56 274 56 L274 56 Z M242 470 C165 470 123 414 118 293 L355 293 L355 299 C355 401 323 470 242 470 L242 470 Z M231 684 L277 600 C281 593 277 587 268 587 L239 587 C230 587 225 589 218 596 L137 679 C130 686 133 696 144 696 L211 696 C222 696 227 692 231 684 L231 684 Z " />
<glyph glyph-name="eacute" unicode="&#xe9;" horiz-adv-x="471" d="M274 56 C318 56 348 63 378 78 C387 82 395 78 398 68 L408 34 C411 24 404 19 395 15 C363 1 318 -10 270 -10 C121 -10 42 87 42 263 C42 443 116 536 242 536 C371 536 429 438 429 294 L429 243 C429 232 424 228 413 228 L118 228 C124 118 180 56 274 56 L274 56 Z M242 470 C165 470 123 414 118 293 L355 293 L355 299 C355 401 323 470 242 470 L242 470 Z M204 600 L250 684 C254 692 258 696 269 696 L337 696 C348 696 350 686 343 679 L262 596 C255 589 250 587 241 587 L213 587 C204 587 200 593 204 600 L204 600 Z " />
<glyph glyph-name="ecircumflex" unicode="&#xea;" horiz-adv-x="471" d="M274 56 C318 56 348 63 378 78 C387 82 395 78 398 68 L408 34 C411 24 404 19 395 15 C363 1 318 -10 270 -10 C121 -10 42 87 42 263 C42 443 116 536 242 536 C371 536 429 438 429 294 L429 243 C429 232 424 228 413 228 L118 228 C124 118 180 56 274 56 L274 56 Z M242 470 C165 470 123 414 118 293 L355 293 L355 299 C355 401 323 470 242 470 L242 470 Z M301 596 L242 650 L182 596 C175 590 171 587 162 587 L126 587 C115 587 113 595 120 602 L201 690 C207 697 211 700 222 700 L261 700 C272 700 276 696 282 690 L363 602 C369 595 368 587 358 587 L321 587 C313 587 308 590 301 596 L301 596 Z " />
<glyph glyph-name="edieresis" unicode="&#xeb;" horiz-adv-x="471" d="M274 56 C318 56 348 63 378 78 C387 82 395 78 398 68 L408 34 C411 24 404 19 395 15 C363 1 318 -10 270 -10 C121 -10 42 87 42 263 C42 443 116 536 242 536 C371 536 429 438 429 294 L429 243 C429 232 424 228 413 228 L118 228 C124 118 180 56 274 56 L274 56 Z M242 470 C165 470 123 414 118 293 L355 293 L355 299 C355 401 323 470 242 470 L242 470 Z M204 662 L204 601 C204 591 200 587 189 587 L140 587 C130 587 125 591 125 601 L125 662 C125 673 130 677 140 677 L189 677 C200 677 204 673 204 662 L204 662 Z M358 662 L358 601 C358 591 353 587 343 587 L294 587 C284 587 279 591 279 601 L279 662 C279 673 284 677 294 677 L343 677 C353 677 358 673 358 662 L358 662 Z " />
<glyph glyph-name="igrave" unicode="&#xec;" horiz-adv-x="207" d="M141 511 L141 15 C141 5 137 0 127 0 L81 0 C70 0 66 5 66 15 L66 511 C66 522 70 526 81 526 L127 526 C137 526 141 522 141 511 L141 511 Z M87 684 L133 600 C137 593 133 587 124 587 L95 587 C86 587 81 589 74 596 L-7 679 C-14 686 -11 696 0 696 L67 696 C78 696 83 692 87 684 L87 684 Z " />
<glyph glyph-name="iacute" unicode="&#xed;" horiz-adv-x="207" d="M141 511 L141 15 C141 5 137 0 127 0 L81 0 C70 0 66 5 66 15 L66 511 C66 522 70 526 81 526 L127 526 C137 526 141 522 141 511 L141 511 Z M76 600 L122 684 C126 692 130 696 141 696 L209 696 C220 696 222 686 215 679 L134 596 C127 589 122 587 113 587 L85 587 C76 587 72 593 76 600 L76 600 Z " />
<glyph glyph-name="icircumflex" unicode="&#xee;" horiz-adv-x="207" d="M141 511 L141 15 C141 5 137 0 127 0 L81 0 C70 0 66 5 66 15 L66 511 C66 522 70 526 81 526 L127 526 C137 526 141 522 141 511 L141 511 Z M163 596 L104 650 L44 596 C37 590 33 587 24 587 L-12 587 C-23 587 -25 595 -18 602 L63 690 C69 697 73 700 84 700 L123 700 C134 700 138 696 144 690 L225 602 C231 595 230 587 220 587 L183 587 C175 587 170 590 163 596 L163 596 Z " />
<glyph glyph-name="idieresis" unicode="&#xef;" horiz-adv-x="207" d="M141 511 L141 15 C141 5 137 0 127 0 L81 0 C70 0 66 5 66 15 L66 511 C66 522 70 526 81 526 L127 526 C137 526 141 522 141 511 L141 511 Z M66 662 L66 601 C66 591 62 587 51 587 L2 587 C-8 587 -13 591 -13 601 L-13 662 C-13 673 -8 677 2 677 L51 677 C62 677 66 673 66 662 L66 662 Z M220 662 L220 601 C220 591 215 587 205 587 L156 587 C146 587 141 591 141 601 L141 662 C141 673 146 677 156 677 L205 677 C215 677 220 673 220 662 L220 662 Z " />
<glyph glyph-name="eth" unicode="&#xf0;" horiz-adv-x="497" d="M415 588 L365 588 C425 493 457 379 457 264 C457 82 382 -9 250 -9 C117 -9 42 83 42 263 C42 443 117 535 246 535 C284 535 321 526 344 504 C332 532 317 560 295 588 L179 588 C169 588 164 592 164 602 L164 622 C164 632 169 636 179 636 L258 636 C241 656 215 677 199 688 C191 693 194 702 203 702 L258 702 C268 702 274 700 280 695 C296 680 318 657 335 636 L415 636 C425 636 429 632 429 622 L429 602 C429 592 425 588 415 588 L415 588 Z M250 59 C333 59 378 123 378 263 C378 404 333 468 250 468 C165 468 121 404 121 263 C121 123 165 59 250 59 L250 59 Z " />
<glyph glyph-name="ntilde" unicode="&#xf1;" horiz-adv-x="498" d="M439 360 L439 15 C439 5 434 0 424 0 L378 0 C367 0 362 5 362 15 L362 350 C362 422 336 465 263 465 C183 465 137 407 137 321 L137 15 C137 5 133 0 122 0 L76 0 C65 0 61 5 61 15 L61 511 C61 522 65 526 76 526 L121 526 C132 526 137 522 137 512 L137 453 C156 492 197 536 283 536 C389 536 439 465 439 360 L439 360 Z M383 651 C383 613 368 586 325 586 C303 586 275 593 249 604 L226 615 C211 622 200 625 191 625 C177 625 170 618 168 606 L167 598 C166 591 160 588 151 588 L130 588 C120 588 116 592 116 606 C116 644 131 672 174 672 C196 672 223 664 250 653 L274 642 C290 635 302 632 311 632 C324 632 331 638 332 652 L333 659 C334 668 340 670 348 670 L370 670 C379 670 383 665 383 651 L383 651 Z " />
<glyph glyph-name="ograve" unicode="&#xf2;" horiz-adv-x="499" d="M250 -9 C117 -9 42 83 42 264 C42 444 117 536 250 536 C382 536 457 444 457 264 C457 83 382 -9 250 -9 L250 -9 Z M250 59 C333 59 378 123 378 264 C378 404 333 468 250 468 C165 468 121 404 121 264 C121 123 165 59 250 59 L250 59 Z M239 684 L285 600 C289 593 285 587 276 587 L247 587 C238 587 233 589 226 596 L145 679 C138 686 141 696 152 696 L219 696 C230 696 235 692 239 684 L239 684 Z " />
<glyph glyph-name="oacute" unicode="&#xf3;" horiz-adv-x="499" d="M250 -9 C117 -9 42 83 42 264 C42 444 117 536 250 536 C382 536 457 444 457 264 C457 83 382 -9 250 -9 L250 -9 Z M250 59 C333 59 378 123 378 264 C378 404 333 468 250 468 C165 468 121 404 121 264 C121 123 165 59 250 59 L250 59 Z M213 600 L259 684 C263 692 267 696 278 696 L346 696 C357 696 359 686 352 679 L271 596 C264 589 259 587 250 587 L222 587 C213 587 209 593 213 600 L213 600 Z " />
<glyph glyph-name="ocircumflex" unicode="&#xf4;" horiz-adv-x="499" d="M250 -9 C117 -9 42 83 42 264 C42 444 117 536 250 536 C382 536 457 444 457 264 C457 83 382 -9 250 -9 L250 -9 Z M250 59 C333 59 378 123 378 264 C378 404 333 468 250 468 C165 468 121 404 121 264 C121 123 165 59 250 59 L250 59 Z M309 596 L250 650 L190 596 C183 590 179 587 170 587 L134 587 C123 587 121 595 128 602 L209 690 C215 697 219 700 230 700 L269 700 C280 700 284 696 290 690 L371 602 C377 595 376 587 366 587 L329 587 C321 587 316 590 309 596 L309 596 Z " />
<glyph glyph-name="otilde" unicode="&#xf5;" horiz-adv-x="499" d="M250 -9 C117 -9 42 83 42 264 C42 444 117 536 250 536 C382 536 457 444 457 264 C457 83 382 -9 250 -9 L250 -9 Z M250 59 C333 59 378 123 378 264 C378 404 333 468 250 468 C165 468 121 404 121 264 C121 123 165 59 250 59 L250 59 Z M383 651 C383 613 368 586 325 586 C303 586 275 593 249 604 L226 615 C211 622 200 625 191 625 C177 625 170 618 168 606 L167 598 C166 591 160 588 151 588 L130 588 C120 588 116 592 116 606 C116 644 131 672 174 672 C196 672 223 664 250 653 L274 642 C290 635 302 632 311 632 C324 632 331 638 332 652 L333 659 C334 668 340 670 348 670 L370 670 C379 670 383 665 383 651 L383 651 Z " />
<glyph glyph-name="odieresis" unicode="&#xf6;" horiz-adv-x="499" d="M250 -9 C117 -9 42 83 42 264 C42 444 117 536 250 536 C382 536 457 444 457 264 C457 83 382 -9 250 -9 L250 -9 Z M250 59 C333 59 378 123 378 264 C378 404 333 468 250 468 C165 468 121 404 121 264 C121 123 165 59 250 59 L250 59 Z M212 662 L212 601 C212 591 208 587 197 587 L148 587 C138 587 133 591 133 601 L133 662 C133 673 138 677 148 677 L197 677 C208 677 212 673 212 662 L212 662 Z M366 662 L366 601 C366 591 361 587 351 587 L302 587 C292 587 287 591 287 601 L287 662 C287 673 292 677 302 677 L351 677 C361 677 366 673 366 662 L366 662 Z " />
<glyph glyph-name="divide" unicode="&#xf7;" horiz-adv-x="529" d="M457 315 L71 315 C61 315 57 320 57 329 L57 366 C57 375 61 380 72 380 L457 380 C467 380 472 375 472 366 L472 329 C472 320 467 315 457 315 L457 315 Z M220 136 L220 210 C220 220 225 225 235 225 L293 225 C304 225 309 220 309 210 L309 136 C309 126 304 121 293 121 L235 121 C225 121 220 126 220 136 L220 136 Z M220 485 L220 558 C220 569 225 573 235 573 L293 573 C304 573 309 569 309 558 L309 485 C309 474 304 470 293 470 L235 470 C225 470 220 474 220 485 L220 485 Z " />
<glyph glyph-name="oslash" unicode="&#xf8;" horiz-adv-x="503" d="M252 -9 C199 -9 153 6 120 37 L97 5 C92 -3 84 -6 76 0 L58 14 C51 19 48 25 54 34 L84 80 C59 121 44 185 44 264 C44 444 119 536 252 536 C304 536 351 520 384 490 L405 520 C412 530 420 530 428 525 L446 512 C454 507 456 501 450 493 L419 447 C446 403 459 341 459 264 C459 83 384 -9 252 -9 L252 -9 Z M252 468 C167 468 123 404 123 264 C123 222 127 174 137 148 L338 430 C318 455 290 468 252 468 L252 468 Z M252 59 C335 59 380 123 380 264 C380 304 376 349 367 379 L166 96 C187 72 212 59 252 59 L252 59 Z " />
<glyph glyph-name="ugrave" unicode="&#xf9;" horiz-adv-x="492" d="M57 168 L57 511 C57 522 61 526 72 526 L118 526 C128 526 132 522 132 511 L132 179 C132 108 156 62 230 62 C303 62 353 117 353 204 L353 511 C353 522 358 526 368 526 L415 526 C425 526 429 522 429 511 L429 15 C429 5 425 0 415 0 L368 0 C358 0 353 5 353 15 L353 73 C336 36 297 -9 212 -9 C103 -9 57 63 57 168 L57 168 Z M241 684 L287 600 C291 593 287 587 278 587 L249 587 C240 587 235 589 228 596 L147 679 C140 686 143 696 154 696 L221 696 C232 696 237 692 241 684 L241 684 Z " />
<glyph glyph-name="uacute" unicode="&#xfa;" horiz-adv-x="492" d="M57 168 L57 511 C57 522 61 526 72 526 L118 526 C128 526 132 522 132 511 L132 179 C132 108 156 62 230 62 C303 62 353 117 353 204 L353 511 C353 522 358 526 368 526 L415 526 C425 526 429 522 429 511 L429 15 C429 5 425 0 415 0 L368 0 C358 0 353 5 353 15 L353 73 C336 36 297 -9 212 -9 C103 -9 57 63 57 168 L57 168 Z M205 600 L251 684 C255 692 259 696 270 696 L338 696 C349 696 351 686 344 679 L263 596 C256 589 251 587 242 587 L214 587 C205 587 201 593 205 600 L205 600 Z " />
<glyph glyph-name="ucircumflex" unicode="&#xfb;" horiz-adv-x="492" d="M57 168 L57 511 C57 522 61 526 72 526 L118 526 C128 526 132 522 132 511 L132 179 C132 108 156 62 230 62 C303 62 353 117 353 204 L353 511 C353 522 358 526 368 526 L415 526 C425 526 429 522 429 511 L429 15 C429 5 425 0 415 0 L368 0 C358 0 353 5 353 15 L353 73 C336 36 297 -9 212 -9 C103 -9 57 63 57 168 L57 168 Z M306 596 L247 650 L187 596 C180 590 176 587 167 587 L131 587 C120 587 118 595 125 602 L206 690 C212 697 216 700 227 700 L266 700 C277 700 281 696 287 690 L368 602 C374 595 373 587 363 587 L326 587 C318 587 313 590 306 596 L306 596 Z " />
<glyph glyph-name="udieresis" unicode="&#xfc;" horiz-adv-x="492" d="M57 168 L57 511 C57 522 61 526 72 526 L118 526 C128 526 132 522 132 511 L132 179 C132 108 156 62 230 62 C303 62 353 117 353 204 L353 511 C353 522 358 526 368 526 L415 526 C425 526 429 522 429 511 L429 15 C429 5 425 0 415 0 L368 0 C358 0 353 5 353 15 L353 73 C336 36 297 -9 212 -9 C103 -9 57 63 57 168 L57 168 Z M209 662 L209 601 C209 591 205 587 194 587 L145 587 C135 587 130 591 130 601 L130 662 C130 673 135 677 145 677 L194 677 C205 677 209 673 209 662 L209 662 Z M363 662 L363 601 C363 591 358 587 348 587 L299 587 C289 587 284 591 284 601 L284 662 C284 673 289 677 299 677 L348 677 C358 677 363 673 363 662 L363 662 Z " />
<glyph glyph-name="yacute" unicode="&#xfd;" horiz-adv-x="432" d="M410 510 L275 37 C248 -66 220 -115 121 -115 C97 -115 72 -111 59 -106 C50 -103 45 -98 47 -90 L55 -53 C57 -43 61 -40 71 -41 C82 -43 93 -47 117 -47 C159 -47 179 -24 179 9 C179 20 176 32 172 45 L24 510 C21 520 25 526 35 526 L85 526 C95 526 99 521 102 512 L190 214 L223 89 L225 89 L256 214 L332 512 C334 521 339 526 349 526 L398 526 C408 526 413 520 410 510 L410 510 Z M184 600 L230 684 C234 692 238 696 249 696 L317 696 C328 696 330 686 323 679 L242 596 C235 589 230 587 221 587 L193 587 C184 587 180 593 184 600 L184 600 Z " />
<glyph glyph-name="thorn" unicode="&#xfe;" horiz-adv-x="522" d="M79 702 L125 702 C136 702 140 698 140 687 L140 448 C161 501 218 536 288 536 C410 536 480 447 480 264 C480 80 410 -9 288 -9 C218 -9 161 21 140 79 L140 -95 C140 -105 136 -110 125 -110 L79 -110 C68 -110 64 -105 64 -95 L64 687 C64 698 68 702 79 702 L79 702 Z M140 264 C140 126 189 59 274 59 C360 59 401 120 401 264 C401 408 360 468 274 468 C189 468 140 401 140 264 L140 264 Z " />
<glyph glyph-name="ydieresis" unicode="&#xff;" horiz-adv-x="432" d="M410 510 L275 37 C248 -66 220 -115 121 -115 C97 -115 72 -111 59 -106 C50 -103 45 -98 47 -90 L55 -53 C57 -43 61 -40 71 -41 C82 -43 93 -47 117 -47 C159 -47 179 -24 179 9 C179 20 176 32 172 45 L24 510 C21 520 25 526 35 526 L85 526 C95 526 99 521 102 512 L190 214 L223 89 L225 89 L256 214 L332 512 C334 521 339 526 349 526 L398 526 C408 526 413 520 410 510 L410 510 Z M178 662 L178 601 C178 591 174 587 163 587 L114 587 C104 587 99 591 99 601 L99 662 C99 673 104 677 114 677 L163 677 C174 677 178 673 178 662 L178 662 Z M332 662 L332 601 C332 591 327 587 317 587 L268 587 C258 587 253 591 253 601 L253 662 C253 673 258 677 268 677 L317 677 C327 677 332 673 332 662 L332 662 Z " />
<glyph glyph-name="Amacron" unicode="&#x100;" horiz-adv-x="562" d="M182 259 L380 259 L282 615 L280 615 L182 259 L182 259 Z M248 702 L314 702 C328 702 332 696 335 685 L537 17 C540 7 534 0 524 0 L471 0 C461 0 456 5 453 15 L403 185 L159 185 L109 15 C106 5 102 0 92 0 L38 0 C28 0 22 7 25 17 L227 685 C230 696 234 702 248 702 L248 702 Z M402 759 L161 759 C151 759 147 764 147 773 L147 801 C147 811 151 815 161 815 L402 815 C412 815 417 811 417 801 L417 773 C417 764 412 759 402 759 L402 759 Z " />
<glyph glyph-name="amacron" unicode="&#x101;" horiz-adv-x="467" d="M408 366 L408 15 C408 5 403 0 393 0 L350 0 C340 0 336 5 336 15 L336 78 C317 40 275 -7 182 -7 C88 -7 34 49 34 141 C34 285 161 317 334 321 L334 362 C334 434 304 467 227 467 C173 467 129 453 95 440 C87 437 79 441 77 451 L69 490 C67 499 71 505 79 508 C114 524 179 536 233 536 C358 536 408 478 408 366 L408 366 Z M334 197 L334 261 C206 255 108 242 108 143 C108 92 136 56 196 56 C285 56 334 121 334 197 L334 197 Z M350 592 L110 592 C101 592 96 596 96 606 L96 630 C96 640 101 645 110 645 L350 645 C361 645 365 640 365 630 L365 606 C365 596 361 592 350 592 L350 592 Z " />
<glyph glyph-name="Abreve" unicode="&#x102;" horiz-adv-x="562" d="M182 259 L380 259 L282 615 L280 615 L182 259 L182 259 Z M248 702 L314 702 C328 702 332 696 335 685 L537 17 C540 7 534 0 524 0 L471 0 C461 0 456 5 453 15 L403 185 L159 185 L109 15 C106 5 102 0 92 0 L38 0 C28 0 22 7 25 17 L227 685 C230 696 234 702 248 702 L248 702 Z M282 747 C199 747 162 791 161 847 C161 856 165 859 172 859 L200 859 C209 859 212 855 214 848 C220 818 236 798 282 798 C328 798 344 818 350 848 C352 855 354 859 363 859 L391 859 C399 859 402 856 402 847 C401 791 364 747 282 747 L282 747 Z " />
<glyph glyph-name="abreve" unicode="&#x103;" horiz-adv-x="467" d="M408 366 L408 15 C408 5 403 0 393 0 L350 0 C340 0 336 5 336 15 L336 78 C317 40 275 -7 182 -7 C88 -7 34 49 34 141 C34 285 161 317 334 321 L334 362 C334 434 304 467 227 467 C173 467 129 453 95 440 C87 437 79 441 77 451 L69 490 C67 499 71 505 79 508 C114 524 179 536 233 536 C358 536 408 478 408 366 L408 366 Z M334 197 L334 261 C206 255 108 242 108 143 C108 92 136 56 196 56 C285 56 334 121 334 197 L334 197 Z M231 584 C147 584 111 630 110 686 C110 695 114 698 121 698 L149 698 C158 698 160 694 162 686 C168 656 183 635 231 635 C279 635 293 656 299 686 C301 694 303 698 312 698 L340 698 C348 698 351 695 351 686 C350 630 315 584 231 584 L231 584 Z " />
<glyph glyph-name="Aogonek" unicode="&#x104;" horiz-adv-x="562" d="M248 702 L314 702 C328 702 332 696 335 685 L537 17 C540 7 534 0 524 0 L520 0 C480 -21 461 -46 461 -75 C461 -93 477 -104 505 -104 C519 -104 527 -101 534 -100 C538 -99 542 -100 543 -105 L548 -133 C550 -141 547 -144 542 -146 C530 -152 512 -157 489 -157 C443 -157 405 -138 405 -92 C405 -57 434 -20 471 0 C461 0 456 5 453 15 L403 185 L159 185 L109 15 C106 5 102 0 92 0 L38 0 C28 0 22 7 25 17 L227 685 C230 696 234 702 248 702 L248 702 Z M182 259 L380 259 L282 615 L280 615 L182 259 L182 259 Z " />
<glyph glyph-name="aogonek" unicode="&#x105;" horiz-adv-x="467" d="M408 366 L408 15 C408 5 403 0 393 0 L388 0 C351 -19 331 -41 331 -69 C331 -89 346 -97 373 -97 C387 -97 395 -94 400 -94 C405 -93 410 -93 411 -100 L415 -125 C416 -133 413 -136 409 -138 C398 -143 379 -148 358 -148 C314 -148 278 -132 278 -87 C278 -52 307 -18 343 1 C338 3 336 7 336 15 L336 78 C317 40 275 -7 182 -7 C88 -7 34 49 34 141 C34 285 161 317 334 321 L334 362 C334 434 304 467 227 467 C173 467 129 453 95 440 C87 437 79 441 77 451 L69 490 C67 499 71 505 79 508 C114 524 179 536 233 536 C358 536 408 478 408 366 L408 366 Z M334 197 L334 261 C206 255 108 242 108 143 C108 92 136 56 196 56 C285 56 334 121 334 197 L334 197 Z " />
<glyph glyph-name="Cacute" unicode="&#x106;" horiz-adv-x="497" d="M326 66 C368 66 406 79 429 88 C441 93 445 86 448 76 L461 37 C464 28 458 23 447 18 C423 5 372 -9 315 -9 C140 -9 48 99 48 351 C48 603 138 712 311 712 C366 712 417 698 441 686 C452 681 457 677 454 667 L443 628 C440 618 435 612 423 617 C400 626 362 637 322 637 C191 637 132 557 132 351 C132 146 191 66 326 66 L326 66 Z M249 763 L295 846 C299 853 303 859 314 859 L382 859 C393 859 394 849 388 842 L307 759 C300 752 295 749 286 749 L258 749 C249 749 246 757 249 763 L249 763 Z " />
<glyph glyph-name="cacute" unicode="&#x107;" horiz-adv-x="406" d="M42 264 C42 445 119 536 250 536 C301 536 339 525 358 516 C368 512 373 507 370 497 L359 460 C357 452 351 447 339 452 C319 460 292 466 259 466 C168 466 121 405 121 264 C121 123 169 60 257 60 C294 60 326 70 346 79 C357 83 362 79 364 70 L374 32 C376 23 372 19 361 14 C344 5 300 -9 256 -9 C120 -9 42 84 42 264 L42 264 Z M206 600 L252 684 C256 692 260 696 271 696 L339 696 C350 696 352 686 345 679 L264 596 C257 589 252 587 243 587 L215 587 C206 587 202 593 206 600 L206 600 Z " />
<glyph glyph-name="Ccircumflex" unicode="&#x108;" horiz-adv-x="497" d="M326 66 C368 66 406 79 429 88 C441 93 445 86 448 76 L461 37 C464 28 458 23 447 18 C423 5 372 -9 315 -9 C140 -9 48 99 48 351 C48 603 138 712 311 712 C366 712 417 698 441 686 C452 681 457 677 454 667 L443 628 C440 618 435 612 423 617 C400 626 362 637 322 637 C191 637 132 557 132 351 C132 146 191 66 326 66 L326 66 Z M355 759 L299 809 L242 759 C236 753 230 749 221 749 L184 749 C174 749 172 758 179 765 L258 849 C264 856 268 859 279 859 L318 859 C329 859 333 855 339 849 L418 765 C425 758 423 749 412 749 L376 749 C367 749 361 753 355 759 L355 759 Z " />
<glyph glyph-name="ccircumflex" unicode="&#x109;" horiz-adv-x="406" d="M42 264 C42 445 119 536 250 536 C301 536 339 525 358 516 C368 512 373 507 370 497 L359 460 C357 452 351 447 339 452 C319 460 292 466 259 466 C168 466 121 405 121 264 C121 123 169 60 257 60 C294 60 326 70 346 79 C357 83 362 79 364 70 L374 32 C376 23 372 19 361 14 C344 5 300 -9 256 -9 C120 -9 42 84 42 264 L42 264 Z M286 596 L227 650 L167 596 C160 590 156 587 147 587 L111 587 C100 587 98 595 105 602 L186 690 C192 697 196 700 207 700 L246 700 C257 700 261 696 267 690 L348 602 C354 595 353 587 343 587 L306 587 C298 587 293 590 286 596 L286 596 Z " />
<glyph glyph-name="Cdotaccent" unicode="&#x10a;" horiz-adv-x="497" d="M326 66 C368 66 406 79 429 88 C441 93 445 86 448 76 L461 37 C464 28 458 23 447 18 C423 5 372 -9 315 -9 C140 -9 48 99 48 351 C48 603 138 712 311 712 C366 712 417 698 441 686 C452 681 457 677 454 667 L443 628 C440 618 435 612 423 617 C400 626 362 637 322 637 C191 637 132 557 132 351 C132 146 191 66 326 66 L326 66 Z M340 827 L340 764 C340 754 337 749 326 749 L272 749 C261 749 256 754 256 764 L256 827 C256 838 261 842 272 842 L326 842 C337 842 340 838 340 827 L340 827 Z " />
<glyph glyph-name="cdotaccent" unicode="&#x10b;" horiz-adv-x="406" d="M42 264 C42 445 119 536 250 536 C301 536 339 525 358 516 C368 512 373 507 370 497 L359 460 C357 452 351 447 339 452 C319 460 292 466 259 466 C168 466 121 405 121 264 C121 123 169 60 257 60 C294 60 326 70 346 79 C357 83 362 79 364 70 L374 32 C376 23 372 19 361 14 C344 5 300 -9 256 -9 C120 -9 42 84 42 264 L42 264 Z M282 664 L282 601 C282 591 279 587 268 587 L214 587 C203 587 198 591 198 601 L198 664 C198 675 203 680 214 680 L268 680 C279 680 282 675 282 664 L282 664 Z " />
<glyph glyph-name="Ccaron" unicode="&#x10c;" horiz-adv-x="497" d="M326 66 C368 66 406 79 429 88 C441 93 445 86 448 76 L461 37 C464 28 458 23 447 18 C423 5 372 -9 315 -9 C140 -9 48 99 48 351 C48 603 138 712 311 712 C366 712 417 698 441 686 C452 681 457 677 454 667 L443 628 C440 618 435 612 423 617 C400 626 362 637 322 637 C191 637 132 557 132 351 C132 146 191 66 326 66 L326 66 Z M354 848 C362 855 366 859 374 859 L411 859 C422 859 424 850 418 844 L339 758 C334 752 329 749 318 749 L279 749 C268 749 264 752 258 758 L179 844 C173 850 175 859 186 859 L223 859 C231 859 235 855 242 849 L299 799 L354 848 L354 848 Z " />
<glyph glyph-name="ccaron" unicode="&#x10d;" horiz-adv-x="406" d="M42 264 C42 445 119 536 250 536 C301 536 339 525 358 516 C368 512 373 507 370 497 L359 460 C357 452 351 447 339 452 C319 460 292 466 259 466 C168 466 121 405 121 264 C121 123 169 60 257 60 C294 60 326 70 346 79 C357 83 362 79 364 70 L374 32 C376 23 372 19 361 14 C344 5 300 -9 256 -9 C120 -9 42 84 42 264 L42 264 Z M295 690 C302 696 307 700 315 700 L352 700 C362 700 363 691 357 685 L276 596 C270 590 266 587 255 587 L216 587 C205 587 201 589 195 596 L114 685 C108 691 109 700 120 700 L156 700 C165 700 169 696 176 690 L236 636 L295 690 L295 690 Z " />
<glyph glyph-name="Dcaron" unicode="&#x10e;" horiz-adv-x="570" d="M235 0 L87 0 C76 0 71 5 71 16 L71 686 C71 697 76 702 86 702 L233 702 C419 702 523 617 523 360 C523 85 420 0 235 0 L235 0 Z M233 626 L152 626 L152 76 L235 76 C366 76 440 134 440 360 C440 569 365 626 233 626 L233 626 Z M338 848 C346 855 350 859 358 859 L395 859 C406 859 408 850 402 844 L323 758 C318 752 313 749 302 749 L263 749 C252 749 248 752 242 758 L163 844 C157 850 159 859 170 859 L207 859 C215 859 219 855 226 849 L283 799 L338 848 L338 848 Z " />
<glyph glyph-name="dcaron" unicode="&#x10f;" horiz-adv-x="608" d="M383 264 C383 401 334 468 248 468 C162 468 121 408 121 264 C121 120 162 59 248 59 C334 59 383 126 383 264 L383 264 Z M383 15 L383 78 C361 21 305 -9 234 -9 C113 -9 42 80 42 264 C42 447 113 536 234 536 C305 536 362 501 382 448 L382 687 C382 698 387 702 397 702 L443 702 C454 702 459 698 459 687 L459 15 C459 5 454 0 443 0 L397 0 C387 0 383 5 383 15 L383 15 Z M605 605 L570 510 C568 503 564 499 556 499 L537 499 C529 499 527 506 529 513 L554 604 L534 604 C523 604 518 609 518 619 L518 693 C518 703 523 708 534 708 L594 708 C604 708 609 703 609 693 L609 624 C609 616 608 612 605 605 L605 605 Z " />
<glyph glyph-name="Dcroat" unicode="&#x110;" horiz-adv-x="572" d="M237 0 L89 0 C78 0 73 5 73 16 L73 322 L30 322 C20 322 16 326 16 336 L16 367 C16 377 20 382 30 382 L73 382 L73 686 C73 697 78 702 88 702 L235 702 C421 702 525 617 525 351 C525 85 422 0 237 0 L237 0 Z M270 322 L154 322 L154 76 L237 76 C368 76 442 134 442 351 C442 569 367 626 235 626 L154 626 L154 382 L270 382 C280 382 284 377 284 367 L284 336 C284 326 280 322 270 322 L270 322 Z " />
<glyph glyph-name="dcroat" unicode="&#x111;" horiz-adv-x="524" d="M383 15 L383 78 C361 21 305 -9 234 -9 C113 -9 42 80 42 264 C42 447 113 536 234 536 C305 536 362 501 382 448 L382 589 L261 589 C251 589 246 593 246 603 L246 623 C246 633 251 637 261 637 L382 637 L382 687 C382 698 387 702 397 702 L443 702 C454 702 459 698 459 687 L459 637 L497 637 C507 637 511 633 511 623 L511 603 C511 593 507 589 497 589 L459 589 L459 15 C459 5 454 0 443 0 L397 0 C387 0 383 5 383 15 L383 15 Z M383 264 C383 401 334 468 248 468 C162 468 121 408 121 264 C121 120 162 59 248 59 C334 59 383 126 383 264 L383 264 Z " />
<glyph glyph-name="Emacron" unicode="&#x112;" horiz-adv-x="463" d="M390 323 L151 323 L151 75 L402 75 C413 75 418 70 418 60 L418 17 C418 5 413 0 402 0 L87 0 C76 0 71 5 71 16 L71 686 C71 697 76 702 86 702 L399 702 C410 702 415 697 415 686 L415 643 C415 632 410 627 399 627 L151 627 L151 395 L390 395 C401 395 406 390 406 379 L406 339 C406 328 401 323 390 323 L390 323 Z M369 759 L128 759 C118 759 114 764 114 773 L114 801 C114 811 118 815 128 815 L369 815 C379 815 384 811 384 801 L384 773 C384 764 379 759 369 759 L369 759 Z " />
<glyph glyph-name="emacron" unicode="&#x113;" horiz-adv-x="471" d="M274 56 C318 56 348 63 378 78 C387 82 395 78 398 68 L408 34 C411 24 404 19 395 15 C363 1 318 -10 270 -10 C121 -10 42 87 42 263 C42 443 116 536 242 536 C371 536 429 438 429 294 L429 243 C429 232 424 228 413 228 L118 228 C124 118 180 56 274 56 L274 56 Z M242 470 C165 470 123 414 118 293 L355 293 L355 299 C355 401 323 470 242 470 L242 470 Z M361 592 L121 592 C112 592 107 596 107 606 L107 630 C107 640 112 645 121 645 L361 645 C372 645 376 640 376 630 L376 606 C376 596 372 592 361 592 L361 592 Z " />
<glyph glyph-name="Ebreve" unicode="&#x114;" horiz-adv-x="463" d="M390 323 L151 323 L151 75 L402 75 C413 75 418 70 418 60 L418 17 C418 5 413 0 402 0 L87 0 C76 0 71 5 71 16 L71 686 C71 697 76 702 86 702 L399 702 C410 702 415 697 415 686 L415 643 C415 632 410 627 399 627 L151 627 L151 395 L390 395 C401 395 406 390 406 379 L406 339 C406 328 401 323 390 323 L390 323 Z M256 747 C173 747 136 791 135 847 C135 856 139 859 146 859 L174 859 C183 859 186 855 188 848 C194 818 210 798 256 798 C302 798 318 818 324 848 C326 855 328 859 337 859 L365 859 C373 859 376 856 376 847 C375 791 338 747 256 747 L256 747 Z " />
<glyph glyph-name="ebreve" unicode="&#x115;" horiz-adv-x="471" d="M274 56 C318 56 348 63 378 78 C387 82 395 78 398 68 L408 34 C411 24 404 19 395 15 C363 1 318 -10 270 -10 C121 -10 42 87 42 263 C42 443 116 536 242 536 C371 536 429 438 429 294 L429 243 C429 232 424 228 413 228 L118 228 C124 118 180 56 274 56 L274 56 Z M242 470 C165 470 123 414 118 293 L355 293 L355 299 C355 401 323 470 242 470 L242 470 Z M242 584 C158 584 122 630 121 686 C121 695 125 698 132 698 L160 698 C169 698 171 694 173 686 C179 656 194 635 242 635 C290 635 304 656 310 686 C312 694 314 698 323 698 L351 698 C359 698 362 695 362 686 C361 630 326 584 242 584 L242 584 Z " />
<glyph glyph-name="Edotaccent" unicode="&#x116;" horiz-adv-x="463" d="M390 323 L151 323 L151 75 L402 75 C413 75 418 70 418 60 L418 17 C418 5 413 0 402 0 L87 0 C76 0 71 5 71 16 L71 686 C71 697 76 702 86 702 L399 702 C410 702 415 697 415 686 L415 643 C415 632 410 627 399 627 L151 627 L151 395 L390 395 C401 395 406 390 406 379 L406 339 C406 328 401 323 390 323 L390 323 Z M303 827 L303 764 C303 754 300 749 289 749 L235 749 C224 749 219 754 219 764 L219 827 C219 838 224 842 235 842 L289 842 C300 842 303 838 303 827 L303 827 Z " />
<glyph glyph-name="edotaccent" unicode="&#x117;" horiz-adv-x="471" d="M274 56 C318 56 348 63 378 78 C387 82 395 78 398 68 L408 34 C411 24 404 19 395 15 C363 1 318 -10 270 -10 C121 -10 42 87 42 263 C42 443 116 536 242 536 C371 536 429 438 429 294 L429 243 C429 232 424 228 413 228 L118 228 C124 118 180 56 274 56 L274 56 Z M242 470 C165 470 123 414 118 293 L355 293 L355 299 C355 401 323 470 242 470 L242 470 Z M283 664 L283 601 C283 591 280 587 269 587 L215 587 C204 587 199 591 199 601 L199 664 C199 675 204 680 215 680 L269 680 C280 680 283 675 283 664 L283 664 Z " />
<glyph glyph-name="Eogonek" unicode="&#x118;" horiz-adv-x="463" d="M390 323 L151 323 L151 75 L402 75 C413 75 418 70 418 60 L418 17 C418 5 413 0 402 0 L391 0 C351 -21 332 -46 332 -75 C332 -93 348 -104 376 -104 C390 -104 398 -101 405 -100 C409 -99 413 -100 414 -105 L419 -133 C421 -141 418 -144 413 -146 C401 -152 383 -157 360 -157 C314 -157 276 -138 276 -92 C276 -57 305 -20 342 0 L87 0 C76 0 71 5 71 16 L71 686 C71 697 76 702 86 702 L399 702 C410 702 415 697 415 686 L415 643 C415 632 410 627 399 627 L151 627 L151 395 L390 395 C401 395 406 390 406 379 L406 339 C406 328 401 323 390 323 L390 323 Z " />
<glyph glyph-name="eogonek" unicode="&#x119;" horiz-adv-x="471" d="M274 56 C318 56 348 63 378 78 C387 82 395 78 398 68 L408 34 C411 24 404 19 395 15 C372 5 343 -3 311 -7 C282 -25 267 -44 267 -69 C267 -89 282 -97 309 -97 C323 -97 331 -94 336 -94 C341 -93 346 -93 347 -100 L351 -125 C352 -133 349 -136 345 -138 C334 -143 315 -148 294 -148 C250 -148 214 -132 214 -87 C214 -58 234 -29 262 -10 C118 -6 42 90 42 263 C42 443 116 536 242 536 C371 536 429 438 429 294 L429 243 C429 232 424 228 413 228 L118 228 C124 118 180 56 274 56 L274 56 Z M242 470 C165 470 123 414 118 293 L355 293 L355 299 C355 401 323 470 242 470 L242 470 Z " />
<glyph glyph-name="Ecaron" unicode="&#x11a;" horiz-adv-x="463" d="M390 323 L151 323 L151 75 L402 75 C413 75 418 70 418 60 L418 17 C418 5 413 0 402 0 L87 0 C76 0 71 5 71 16 L71 686 C71 697 76 702 86 702 L399 702 C410 702 415 697 415 686 L415 643 C415 632 410 627 399 627 L151 627 L151 395 L390 395 C401 395 406 390 406 379 L406 339 C406 328 401 323 390 323 L390 323 Z M307 848 C315 855 319 859 327 859 L364 859 C375 859 377 850 371 844 L292 758 C287 752 282 749 271 749 L232 749 C221 749 217 752 211 758 L132 844 C126 850 128 859 139 859 L176 859 C184 859 188 855 195 849 L252 799 L307 848 L307 848 Z " />
<glyph glyph-name="ecaron" unicode="&#x11b;" horiz-adv-x="471" d="M274 56 C318 56 348 63 378 78 C387 82 395 78 398 68 L408 34 C411 24 404 19 395 15 C363 1 318 -10 270 -10 C121 -10 42 87 42 263 C42 443 116 536 242 536 C371 536 429 438 429 294 L429 243 C429 232 424 228 413 228 L118 228 C124 118 180 56 274 56 L274 56 Z M242 470 C165 470 123 414 118 293 L355 293 L355 299 C355 401 323 470 242 470 L242 470 Z M301 690 C308 696 313 700 321 700 L358 700 C368 700 369 691 363 685 L282 596 C276 590 272 587 261 587 L222 587 C211 587 207 589 201 596 L120 685 C114 691 115 700 126 700 L162 700 C171 700 175 696 182 690 L242 636 L301 690 L301 690 Z " />
<glyph glyph-name="Gcircumflex" unicode="&#x11c;" horiz-adv-x="570" d="M314 405 L493 405 C503 405 509 400 509 389 L509 55 C509 41 501 31 492 26 C459 6 405 -9 329 -9 C139 -9 48 93 48 352 C48 608 139 712 335 712 C392 712 444 698 474 684 C484 680 491 675 488 665 L476 625 C473 615 467 611 455 615 C431 625 391 637 341 637 C189 637 132 559 132 352 C132 142 191 66 333 66 C370 66 407 74 429 84 L429 332 L314 332 C303 332 298 337 298 348 L298 389 C298 399 303 405 314 405 L314 405 Z M366 759 L310 809 L253 759 C247 753 241 749 232 749 L195 749 C185 749 183 758 190 765 L269 849 C275 856 279 859 290 859 L329 859 C340 859 344 855 350 849 L429 765 C436 758 434 749 423 749 L387 749 C378 749 372 753 366 759 L366 759 Z " />
<glyph glyph-name="gcircumflex" unicode="&#x11d;" horiz-adv-x="500" d="M362 291 C362 412 314 470 238 470 C162 470 120 415 120 288 C120 161 162 106 238 106 C314 106 362 169 362 291 L362 291 Z M437 511 L437 63 C437 -57 361 -120 235 -120 C179 -120 130 -113 94 -97 C86 -93 81 -89 83 -80 L93 -42 C95 -32 100 -27 111 -31 C146 -42 188 -52 233 -52 C315 -52 362 -10 362 68 L362 127 C342 73 288 42 225 42 C114 42 42 121 42 288 C42 455 111 536 223 536 C286 536 343 500 362 452 L362 512 C362 522 367 526 377 526 L423 526 C433 526 437 522 437 511 L437 511 Z M305 596 L246 650 L186 596 C179 590 175 587 166 587 L130 587 C119 587 117 595 124 602 L205 690 C211 697 215 700 226 700 L265 700 C276 700 280 696 286 690 L367 602 C373 595 372 587 362 587 L325 587 C317 587 312 590 305 596 L305 596 Z " />
<glyph glyph-name="Gbreve" unicode="&#x11e;" horiz-adv-x="570" d="M314 405 L493 405 C503 405 509 400 509 389 L509 55 C509 41 501 31 492 26 C459 6 405 -9 329 -9 C139 -9 48 93 48 352 C48 608 139 712 335 712 C392 712 444 698 474 684 C484 680 491 675 488 665 L476 625 C473 615 467 611 455 615 C431 625 391 637 341 637 C189 637 132 559 132 352 C132 142 191 66 333 66 C370 66 407 74 429 84 L429 332 L314 332 C303 332 298 337 298 348 L298 389 C298 399 303 405 314 405 L314 405 Z M315 747 C232 747 195 791 194 847 C194 856 198 859 205 859 L233 859 C242 859 245 855 247 848 C253 818 269 798 315 798 C361 798 377 818 383 848 C385 855 387 859 396 859 L424 859 C432 859 435 856 435 847 C434 791 397 747 315 747 L315 747 Z " />
<glyph glyph-name="gbreve" unicode="&#x11f;" horiz-adv-x="500" d="M362 291 C362 412 314 470 238 470 C162 470 120 415 120 288 C120 161 162 106 238 106 C314 106 362 169 362 291 L362 291 Z M437 511 L437 63 C437 -57 361 -120 235 -120 C179 -120 130 -113 94 -97 C86 -93 81 -89 83 -80 L93 -42 C95 -32 100 -27 111 -31 C146 -42 188 -52 233 -52 C315 -52 362 -10 362 68 L362 127 C342 73 288 42 225 42 C114 42 42 121 42 288 C42 455 111 536 223 536 C286 536 343 500 362 452 L362 512 C362 522 367 526 377 526 L423 526 C433 526 437 522 437 511 L437 511 Z M246 584 C162 584 126 630 125 686 C125 695 129 698 136 698 L164 698 C173 698 175 694 177 686 C183 656 198 635 246 635 C294 635 308 656 314 686 C316 694 318 698 327 698 L355 698 C363 698 366 695 366 686 C365 630 330 584 246 584 L246 584 Z " />
<glyph glyph-name="Gdotaccent" unicode="&#x120;" horiz-adv-x="570" d="M314 405 L493 405 C503 405 509 400 509 389 L509 55 C509 41 501 31 492 26 C459 6 405 -9 329 -9 C139 -9 48 93 48 352 C48 608 139 712 335 712 C392 712 444 698 474 684 C484 680 491 675 488 665 L476 625 C473 615 467 611 455 615 C431 625 391 637 341 637 C189 637 132 559 132 352 C132 142 191 66 333 66 C370 66 407 74 429 84 L429 332 L314 332 C303 332 298 337 298 348 L298 389 C298 399 303 405 314 405 L314 405 Z M367 827 L367 764 C367 754 364 749 353 749 L299 749 C288 749 283 754 283 764 L283 827 C283 838 288 842 299 842 L353 842 C364 842 367 838 367 827 L367 827 Z " />
<glyph glyph-name="gdotaccent" unicode="&#x121;" horiz-adv-x="500" d="M362 291 C362 412 314 470 238 470 C162 470 120 415 120 288 C120 161 162 106 238 106 C314 106 362 169 362 291 L362 291 Z M437 511 L437 63 C437 -57 361 -120 235 -120 C179 -120 130 -113 94 -97 C86 -93 81 -89 83 -80 L93 -42 C95 -32 100 -27 111 -31 C146 -42 188 -52 233 -52 C315 -52 362 -10 362 68 L362 127 C342 73 288 42 225 42 C114 42 42 121 42 288 C42 455 111 536 223 536 C286 536 343 500 362 452 L362 512 C362 522 367 526 377 526 L423 526 C433 526 437 522 437 511 L437 511 Z M291 664 L291 601 C291 591 288 587 277 587 L223 587 C212 587 207 591 207 601 L207 664 C207 675 212 680 223 680 L277 680 C288 680 291 675 291 664 L291 664 Z " />
<glyph glyph-name="Gcommaaccent" unicode="&#x122;" horiz-adv-x="570" d="M314 405 L493 405 C503 405 509 400 509 389 L509 55 C509 41 501 31 492 26 C459 6 405 -9 329 -9 C139 -9 48 93 48 352 C48 608 139 712 335 712 C392 712 444 698 474 684 C484 680 491 675 488 665 L476 625 C473 615 467 611 455 615 C431 625 391 637 341 637 C189 637 132 559 132 352 C132 142 191 66 333 66 C370 66 407 74 429 84 L429 332 L314 332 C303 332 298 337 298 348 L298 389 C298 399 303 405 314 405 L314 405 Z M382 -139 L348 -221 C345 -228 342 -232 334 -232 L324 -232 C316 -232 314 -226 316 -219 L335 -139 L311 -139 C300 -139 296 -135 296 -125 L296 -63 C296 -53 300 -48 311 -48 L370 -48 C381 -48 385 -53 385 -63 L385 -120 C385 -129 385 -131 382 -139 L382 -139 Z " />
<glyph glyph-name="gcommaaccent" unicode="&#x123;" horiz-adv-x="500" d="M362 291 C362 412 314 470 238 470 C162 470 120 415 120 288 C120 161 162 106 238 106 C314 106 362 169 362 291 L362 291 Z M437 511 L437 63 C437 -57 361 -120 235 -120 C179 -120 130 -113 94 -97 C86 -93 81 -89 83 -80 L93 -42 C95 -32 100 -27 111 -31 C146 -42 188 -52 233 -52 C315 -52 362 -10 362 68 L362 127 C342 73 288 42 225 42 C114 42 42 121 42 288 C42 455 111 536 223 536 C286 536 343 500 362 452 L362 512 C362 522 367 526 377 526 L423 526 C433 526 437 522 437 511 L437 511 Z M205 669 L235 750 C238 757 241 761 249 761 L260 761 C267 761 268 755 267 748 L250 671 L272 671 C283 671 287 666 287 656 L287 599 C287 588 283 584 272 584 L217 584 C206 584 202 588 202 599 L202 651 C202 660 202 663 205 669 L205 669 Z " />
<glyph glyph-name="Hcircumflex" unicode="&#x124;" horiz-adv-x="584" d="M432 16 L432 321 L152 321 L152 16 C152 5 146 0 136 0 L87 0 C76 0 71 5 71 16 L71 686 C71 697 76 702 87 702 L136 702 C146 702 152 697 152 686 L152 397 L432 397 L432 686 C432 697 437 702 448 702 L498 702 C508 702 513 697 513 686 L513 16 C513 5 508 0 498 0 L448 0 C437 0 432 5 432 16 L432 16 Z M346 759 L290 809 L233 759 C227 753 221 749 212 749 L175 749 C165 749 163 758 170 765 L249 849 C255 856 259 859 270 859 L309 859 C320 859 324 855 330 849 L409 765 C416 758 414 749 403 749 L367 749 C358 749 352 753 346 759 L346 759 Z " />
<glyph glyph-name="hcircumflex" unicode="&#x125;" horiz-adv-x="506" d="M446 360 L446 15 C446 5 442 0 432 0 L385 0 C374 0 370 5 370 15 L370 350 C370 422 343 465 270 465 C188 465 142 405 142 321 L142 15 C142 5 138 0 127 0 L81 0 C70 0 66 5 66 15 L66 687 C66 698 70 702 81 702 L127 702 C138 702 142 698 142 687 L142 453 C159 491 204 536 289 536 C395 536 446 465 446 360 L446 360 Z M308 759 L252 809 L195 759 C189 753 183 749 174 749 L137 749 C127 749 125 758 132 765 L211 849 C217 856 221 859 232 859 L271 859 C282 859 286 855 292 849 L371 765 C378 758 376 749 365 749 L329 749 C320 749 314 753 308 759 L308 759 Z " />
<glyph glyph-name="Hbar" unicode="&#x126;" horiz-adv-x="575" d="M432 16 L432 321 L152 321 L152 16 C152 5 146 0 136 0 L87 0 C76 0 71 5 71 16 L71 539 L31 539 C21 539 17 543 17 553 L17 573 C17 583 21 587 31 587 L71 587 L71 686 C71 697 76 702 87 702 L136 702 C146 702 152 697 152 686 L152 587 L432 587 L432 686 C432 697 437 702 448 702 L498 702 C508 702 513 697 513 686 L513 587 L553 587 C563 587 567 583 567 573 L567 553 C567 543 563 539 553 539 L513 539 L513 16 C513 5 508 0 498 0 L448 0 C437 0 432 5 432 16 L432 16 Z M152 397 L432 397 L432 539 L152 539 L152 397 L152 397 Z " />
<glyph glyph-name="hbar" unicode="&#x127;" horiz-adv-x="506" d="M446 360 L446 15 C446 5 442 0 432 0 L385 0 C374 0 370 5 370 15 L370 350 C370 422 343 465 270 465 C188 465 142 405 142 321 L142 15 C142 5 138 0 127 0 L81 0 C70 0 66 5 66 15 L66 589 L27 589 C17 589 13 593 13 603 L13 623 C13 633 17 637 27 637 L66 637 L66 687 C66 698 70 702 81 702 L127 702 C138 702 142 698 142 687 L142 637 L264 637 C274 637 278 633 278 623 L278 603 C278 593 274 589 264 589 L142 589 L142 453 C159 491 204 536 289 536 C395 536 446 465 446 360 L446 360 Z " />
<glyph glyph-name="Itilde" unicode="&#x128;" horiz-adv-x="235" d="M77 16 L77 686 C77 697 82 702 93 702 L142 702 C153 702 159 697 159 686 L159 16 C159 5 153 0 142 0 L93 0 C82 0 77 5 77 16 L77 16 Z M258 814 C258 776 241 746 194 746 C174 746 146 752 118 764 L93 775 C77 781 63 786 52 786 C38 786 28 779 27 767 L26 760 C25 751 19 748 11 748 L-11 748 C-20 748 -24 753 -24 767 C-24 805 -7 835 40 835 C59 835 88 827 116 816 L143 805 C161 797 175 793 185 793 C198 793 205 800 206 813 L207 822 C207 830 214 833 223 833 L244 833 C253 833 258 829 258 814 L258 814 Z " />
<glyph glyph-name="itilde" unicode="&#x129;" horiz-adv-x="207" d="M141 511 L141 15 C141 5 137 0 127 0 L81 0 C70 0 66 5 66 15 L66 511 C66 522 70 526 81 526 L127 526 C137 526 141 522 141 511 L141 511 Z M237 651 C237 613 222 586 179 586 C157 586 129 593 103 604 L80 615 C65 622 54 625 45 625 C31 625 24 618 22 606 L21 598 C20 591 14 588 5 588 L-16 588 C-26 588 -30 592 -30 606 C-30 644 -15 672 28 672 C50 672 77 664 104 653 L128 642 C144 635 156 632 165 632 C178 632 185 638 186 652 L187 659 C188 668 194 670 202 670 L224 670 C233 670 237 665 237 651 L237 651 Z " />
<glyph glyph-name="Imacron" unicode="&#x12a;" horiz-adv-x="235" d="M77 16 L77 686 C77 697 82 702 93 702 L142 702 C153 702 159 697 159 686 L159 16 C159 5 153 0 142 0 L93 0 C82 0 77 5 77 16 L77 16 Z M237 759 L-4 759 C-14 759 -18 764 -18 773 L-18 801 C-18 811 -14 815 -4 815 L237 815 C247 815 252 811 252 801 L252 773 C252 764 247 759 237 759 L237 759 Z " />
<glyph glyph-name="imacron" unicode="&#x12b;" horiz-adv-x="207" d="M141 511 L141 15 C141 5 137 0 127 0 L81 0 C70 0 66 5 66 15 L66 511 C66 522 70 526 81 526 L127 526 C137 526 141 522 141 511 L141 511 Z M223 592 L-17 592 C-26 592 -31 596 -31 606 L-31 630 C-31 640 -26 645 -17 645 L223 645 C234 645 238 640 238 630 L238 606 C238 596 234 592 223 592 L223 592 Z " />
<glyph glyph-name="Ibreve" unicode="&#x12c;" horiz-adv-x="235" d="M77 16 L77 686 C77 697 82 702 93 702 L142 702 C153 702 159 697 159 686 L159 16 C159 5 153 0 142 0 L93 0 C82 0 77 5 77 16 L77 16 Z M117 747 C34 747 -3 791 -4 847 C-4 856 0 859 7 859 L35 859 C44 859 47 855 49 848 C55 818 71 798 117 798 C163 798 179 818 185 848 C187 855 189 859 198 859 L226 859 C234 859 237 856 237 847 C236 791 199 747 117 747 L117 747 Z " />
<glyph glyph-name="ibreve" unicode="&#x12d;" horiz-adv-x="207" d="M141 511 L141 15 C141 5 137 0 127 0 L81 0 C70 0 66 5 66 15 L66 511 C66 522 70 526 81 526 L127 526 C137 526 141 522 141 511 L141 511 Z M104 584 C20 584 -16 630 -17 686 C-17 695 -13 698 -6 698 L22 698 C31 698 33 694 35 686 C41 656 56 635 104 635 C152 635 166 656 172 686 C174 694 176 698 185 698 L213 698 C221 698 224 695 224 686 C223 630 188 584 104 584 L104 584 Z " />
<glyph glyph-name="Iogonek" unicode="&#x12e;" horiz-adv-x="235" d="M77 16 L77 686 C77 697 82 702 93 702 L142 702 C153 702 159 697 159 686 L159 16 C159 5 153 0 142 0 L141 0 C101 -21 82 -46 82 -75 C82 -93 98 -104 126 -104 C140 -104 148 -101 155 -100 C159 -99 163 -100 164 -105 L169 -133 C171 -141 168 -144 163 -146 C151 -152 133 -157 110 -157 C64 -157 26 -138 26 -92 C26 -57 55 -20 92 0 C82 0 77 5 77 16 L77 16 Z " />
<glyph glyph-name="iogonek" unicode="&#x12f;" horiz-adv-x="207" d="M141 511 L141 15 C141 5 137 0 127 0 L121 0 C84 -19 64 -41 64 -69 C64 -89 79 -97 106 -97 C120 -97 128 -94 133 -94 C138 -93 143 -93 144 -100 L148 -125 C149 -133 146 -136 142 -138 C131 -143 112 -148 91 -148 C47 -148 11 -132 11 -87 C11 -52 40 -18 75 0 C69 2 66 7 66 15 L66 511 C66 522 70 526 80 526 L127 526 C137 526 141 522 141 511 L141 511 Z M142 682 L142 608 C142 597 138 593 128 593 L79 593 C68 593 65 597 65 608 L65 682 C65 693 68 697 79 697 L128 697 C138 697 142 693 142 682 L142 682 Z " />
<glyph glyph-name="Idotaccent" unicode="&#x130;" horiz-adv-x="235" d="M77 16 L77 686 C77 697 82 702 93 702 L142 702 C153 702 159 697 159 686 L159 16 C159 5 153 0 142 0 L93 0 C82 0 77 5 77 16 L77 16 Z M158 827 L158 764 C158 754 155 749 144 749 L90 749 C79 749 74 754 74 764 L74 827 C74 838 79 842 90 842 L144 842 C155 842 158 838 158 827 L158 827 Z " />
<glyph glyph-name="dotlessi" unicode="&#x131;" horiz-adv-x="207" d="M141 511 L141 15 C141 5 137 0 127 0 L81 0 C70 0 66 5 66 15 L66 511 C66 522 70 526 81 526 L127 526 C137 526 141 522 141 511 L141 511 Z " />
<glyph glyph-name="IJ" unicode="&#x132;" horiz-adv-x="600" d="M77 16 L77 686 C77 697 82 702 93 702 L142 702 C153 702 159 697 159 686 L159 16 C159 5 153 0 142 0 L93 0 C82 0 77 5 77 16 L77 16 Z M450 195 L450 686 C450 697 455 702 466 702 L515 702 C526 702 531 697 531 686 L531 187 C531 54 479 -9 360 -9 C319 -9 276 0 253 11 C242 16 236 21 239 33 L250 74 C252 83 257 89 267 85 C289 77 316 66 353 66 C420 66 450 104 450 195 L450 195 Z " />
<glyph glyph-name="ij" unicode="&#x133;" horiz-adv-x="424" d="M141 511 L141 15 C141 5 137 0 127 0 L80 0 C70 0 66 5 66 15 L66 511 C66 522 70 526 80 526 L127 526 C137 526 141 522 141 511 L141 511 Z M142 682 L142 608 C142 597 138 593 128 593 L79 593 C68 593 65 597 65 608 L65 682 C65 693 68 697 79 697 L128 697 C138 697 142 693 142 682 L142 682 Z M282 126 L282 511 C282 522 287 526 298 526 L344 526 C354 526 359 522 359 511 L359 119 C359 29 330 -7 254 -7 C237 -7 219 -5 206 -1 C197 1 194 6 194 14 L194 53 C194 62 200 66 209 65 C221 63 230 62 240 62 C268 62 282 77 282 126 L282 126 Z M360 682 L360 608 C360 597 355 593 345 593 L297 593 C286 593 281 597 281 608 L281 682 C281 693 286 697 297 697 L345 697 C355 697 360 693 360 682 L360 682 Z " />
<glyph glyph-name="Jcircumflex" unicode="&#x134;" horiz-adv-x="382" d="M234 195 L234 686 C234 697 239 702 250 702 L299 702 C310 702 315 697 315 686 L315 187 C315 54 263 -9 144 -9 C103 -9 60 0 37 11 C26 16 20 21 23 33 L34 74 C36 83 41 89 51 85 C73 77 100 66 137 66 C204 66 234 104 234 195 L234 195 Z M235 759 L179 809 L122 759 C116 753 110 749 101 749 L64 749 C54 749 52 758 59 765 L138 849 C144 856 148 859 159 859 L198 859 C209 859 213 855 219 849 L298 765 C305 758 303 749 292 749 L256 749 C247 749 241 753 235 759 L235 759 Z " />
<glyph glyph-name="jcircumflex" unicode="&#x135;" horiz-adv-x="219" d="M76 18 L76 511 C76 522 80 526 91 526 L137 526 C148 526 152 522 152 511 L152 11 C152 -78 124 -114 47 -114 C30 -114 12 -113 0 -109 C-9 -107 -13 -101 -13 -93 L-13 -55 C-13 -45 -9 -41 2 -42 C14 -44 25 -44 34 -44 C62 -44 76 -30 76 18 L76 18 Z M174 596 L115 650 L55 596 C48 590 44 587 35 587 L-1 587 C-12 587 -14 595 -7 602 L74 690 C80 697 84 700 95 700 L134 700 C145 700 149 696 155 690 L236 602 C242 595 241 587 231 587 L194 587 C186 587 181 590 174 596 L174 596 Z " />
<glyph glyph-name="Kcommaaccent" unicode="&#x136;" horiz-adv-x="515" d="M152 411 L391 690 C397 698 402 702 414 702 L477 702 C489 702 494 691 487 683 L217 373 L490 20 C497 10 494 0 482 0 L415 0 C404 0 398 7 392 14 L152 328 L152 16 C152 5 146 0 136 0 L87 0 C76 0 71 5 71 16 L71 686 C71 697 76 702 87 702 L136 702 C146 702 152 697 152 686 L152 411 L152 411 Z M320 -139 L286 -221 C283 -228 280 -232 272 -232 L262 -232 C254 -232 252 -226 254 -219 L273 -139 L249 -139 C238 -139 234 -135 234 -125 L234 -63 C234 -53 238 -48 249 -48 L308 -48 C319 -48 323 -53 323 -63 L323 -120 C323 -129 323 -131 320 -139 L320 -139 Z " />
<glyph glyph-name="kcommaaccent" unicode="&#x137;" horiz-adv-x="430" d="M407 0 L344 0 C333 0 328 5 322 12 L142 244 L142 15 C142 5 138 0 127 0 L81 0 C70 0 66 5 66 15 L66 687 C66 698 70 702 81 702 L127 702 C138 702 142 698 142 687 L142 337 L318 518 C323 523 328 526 339 526 L401 526 C413 526 416 516 407 507 L194 294 L415 19 C422 10 419 0 407 0 L407 0 Z M275 -133 L245 -214 C242 -221 239 -225 231 -225 L220 -225 C213 -225 212 -219 213 -212 L230 -135 L208 -135 C197 -135 193 -130 193 -120 L193 -63 C193 -52 197 -48 208 -48 L263 -48 C274 -48 278 -52 278 -63 L278 -115 C278 -124 278 -127 275 -133 L275 -133 Z " />
<glyph glyph-name="kgreenlandic" unicode="&#x138;" horiz-adv-x="426" d="M403 0 L340 0 C329 0 323 5 318 12 L138 244 L138 15 C138 4 133 0 123 0 L77 0 C66 0 61 5 61 15 L61 511 C61 522 66 526 77 526 L123 526 C133 526 138 522 138 511 L138 337 L315 518 C320 523 324 526 335 526 L397 526 C409 526 412 516 403 507 L190 294 L411 19 C418 10 414 0 403 0 L403 0 Z " />
<glyph glyph-name="Lacute" unicode="&#x139;" horiz-adv-x="442" d="M157 686 L157 76 L394 76 C405 76 411 71 411 61 L411 16 C411 5 405 0 394 0 L92 0 C81 0 76 5 76 16 L76 686 C76 697 81 702 92 702 L141 702 C151 702 157 697 157 686 L157 686 Z M97 763 L143 846 C147 853 151 859 162 859 L230 859 C241 859 242 849 236 842 L155 759 C148 752 143 749 134 749 L106 749 C97 749 94 757 97 763 L97 763 Z " />
<glyph glyph-name="lacute" unicode="&#x13a;" horiz-adv-x="207" d="M141 687 L141 15 C141 5 137 0 127 0 L80 0 C70 0 66 5 66 15 L66 687 C66 698 70 702 80 702 L127 702 C137 702 141 698 141 687 L141 687 Z M77 763 L123 846 C127 853 131 859 142 859 L210 859 C221 859 222 849 216 842 L135 759 C128 752 123 749 114 749 L86 749 C77 749 74 757 77 763 L77 763 Z " />
<glyph glyph-name="Lcommaaccent" unicode="&#x13b;" horiz-adv-x="442" d="M152 686 L152 76 L389 76 C400 76 406 71 406 61 L406 16 C406 5 400 0 389 0 L87 0 C76 0 71 5 71 16 L71 686 C71 697 76 702 87 702 L136 702 C146 702 152 697 152 686 L152 686 Z M273 -139 L239 -221 C236 -228 233 -232 225 -232 L215 -232 C207 -232 205 -226 207 -219 L226 -139 L202 -139 C191 -139 187 -135 187 -125 L187 -63 C187 -53 191 -48 202 -48 L261 -48 C272 -48 276 -53 276 -63 L276 -120 C276 -129 276 -131 273 -139 L273 -139 Z " />
<glyph glyph-name="lcommaaccent" unicode="&#x13c;" horiz-adv-x="207" d="M142 687 L142 15 C142 5 138 0 128 0 L81 0 C71 0 67 5 67 15 L67 687 C67 698 71 702 81 702 L128 702 C138 702 142 698 142 687 L142 687 Z M143 -133 L113 -214 C110 -221 107 -225 99 -225 L88 -225 C81 -225 80 -219 81 -212 L98 -135 L76 -135 C65 -135 61 -130 61 -120 L61 -63 C61 -52 65 -48 76 -48 L131 -48 C142 -48 146 -52 146 -63 L146 -115 C146 -124 146 -127 143 -133 L143 -133 Z " />
<glyph glyph-name="Lcaron" unicode="&#x13d;" horiz-adv-x="442" d="M152 686 L152 76 L389 76 C400 76 406 71 406 61 L406 16 C406 5 400 0 389 0 L87 0 C76 0 71 5 71 16 L71 686 C71 697 76 702 87 702 L136 702 C146 702 152 697 152 686 L152 686 Z M340 605 L305 510 C303 503 299 499 291 499 L272 499 C264 499 262 506 264 513 L289 604 L269 604 C258 604 253 609 253 619 L253 693 C253 703 258 708 269 708 L329 708 C339 708 344 703 344 693 L344 624 C344 616 343 612 340 605 L340 605 Z " />
<glyph glyph-name="lcaron" unicode="&#x13e;" horiz-adv-x="291" d="M142 687 L142 15 C142 5 138 0 128 0 L81 0 C71 0 67 5 67 15 L67 687 C67 698 71 702 81 702 L128 702 C138 702 142 698 142 687 L142 687 Z M289 605 L254 510 C252 503 248 499 240 499 L221 499 C213 499 211 506 213 513 L238 604 L218 604 C207 604 202 609 202 619 L202 693 C202 703 207 708 218 708 L278 708 C288 708 293 703 293 693 L293 624 C293 616 292 612 289 605 L289 605 Z " />
<glyph glyph-name="Ldot" unicode="&#x13f;" horiz-adv-x="450" d="M152 686 L152 76 L389 76 C400 76 406 71 406 61 L406 16 C406 5 400 0 389 0 L87 0 C76 0 71 5 71 16 L71 686 C71 697 76 702 87 702 L136 702 C146 702 152 697 152 686 L152 686 Z M308 287 L308 361 C308 372 312 377 323 377 L381 377 C392 377 396 372 396 361 L396 287 C396 277 392 272 382 272 L322 272 C311 272 308 277 308 287 L308 287 Z " />
<glyph glyph-name="ldot" unicode="&#x140;" horiz-adv-x="282" d="M140 687 L140 15 C140 5 136 0 126 0 L79 0 C69 0 65 5 65 15 L65 687 C65 698 69 702 79 702 L126 702 C136 702 140 698 140 687 L140 687 Z M200 228 L200 302 C200 313 204 318 215 318 L273 318 C284 318 288 313 288 302 L288 228 C288 218 284 213 274 213 L214 213 C203 213 200 218 200 228 L200 228 Z " />
<glyph glyph-name="Lslash" unicode="&#x141;" horiz-adv-x="444" d="M154 686 L154 389 L258 449 C268 455 272 453 278 444 L289 427 C294 418 292 413 283 408 L154 333 L154 76 L391 76 C402 76 408 71 408 60 L408 16 C408 5 402 0 391 0 L89 0 C78 0 73 5 73 16 L73 285 L52 274 C42 269 36 269 31 279 L22 296 C17 306 18 310 27 315 L73 342 L73 686 C73 697 78 702 89 702 L138 702 C148 702 154 697 154 686 L154 686 Z " />
<glyph glyph-name="lslash" unicode="&#x142;" horiz-adv-x="211" d="M143 687 L143 403 L157 411 C167 416 172 415 177 406 L187 388 C193 379 191 375 182 369 L143 346 L143 15 C143 5 139 0 129 0 L82 0 C72 0 68 5 68 15 L68 302 L54 294 C45 289 39 291 33 300 L23 317 C18 326 19 331 29 337 L68 359 L68 687 C68 698 72 702 82 702 L129 702 C139 702 143 698 143 687 L143 687 Z " />
<glyph glyph-name="Nacute" unicode="&#x143;" horiz-adv-x="589" d="M518 687 L518 16 C518 5 512 0 502 0 L451 0 C440 0 435 4 430 13 L150 551 L150 16 C150 5 145 0 135 0 L87 0 C76 0 71 5 71 16 L71 686 C71 697 76 702 87 702 L137 702 C148 702 155 698 159 690 L439 151 L439 686 C439 697 444 702 454 702 L502 702 C512 702 518 697 518 687 L518 687 Z M267 763 L313 846 C317 853 321 859 332 859 L400 859 C411 859 412 849 406 842 L325 759 C318 752 313 749 304 749 L276 749 C267 749 264 757 267 763 L267 763 Z " />
<glyph glyph-name="nacute" unicode="&#x144;" horiz-adv-x="498" d="M439 360 L439 15 C439 5 434 0 424 0 L378 0 C367 0 362 5 362 15 L362 350 C362 422 336 465 263 465 C183 465 137 407 137 321 L137 15 C137 5 133 0 122 0 L76 0 C65 0 61 5 61 15 L61 511 C61 522 65 526 76 526 L121 526 C132 526 137 522 137 512 L137 453 C156 492 197 536 283 536 C389 536 439 465 439 360 L439 360 Z M209 600 L255 684 C259 692 263 696 274 696 L342 696 C353 696 355 686 348 679 L267 596 C260 589 255 587 246 587 L218 587 C209 587 205 593 209 600 L209 600 Z " />
<glyph glyph-name="Ncommaaccent" unicode="&#x145;" horiz-adv-x="589" d="M518 687 L518 16 C518 5 512 0 502 0 L451 0 C440 0 435 4 430 13 L150 551 L150 16 C150 5 145 0 135 0 L87 0 C76 0 71 5 71 16 L71 686 C71 697 76 702 87 702 L137 702 C148 702 155 698 159 690 L439 151 L439 686 C439 697 444 702 454 702 L502 702 C512 702 518 697 518 687 L518 687 Z M334 -139 L300 -221 C297 -228 294 -232 286 -232 L276 -232 C268 -232 266 -226 268 -219 L287 -139 L263 -139 C252 -139 248 -135 248 -125 L248 -63 C248 -53 252 -48 263 -48 L322 -48 C333 -48 337 -53 337 -63 L337 -120 C337 -129 337 -131 334 -139 L334 -139 Z " />
<glyph glyph-name="ncommaaccent" unicode="&#x146;" horiz-adv-x="498" d="M439 360 L439 15 C439 5 434 0 424 0 L378 0 C367 0 362 5 362 15 L362 350 C362 422 336 465 263 465 C183 465 137 407 137 321 L137 15 C137 5 133 0 122 0 L76 0 C65 0 61 5 61 15 L61 511 C61 522 65 526 76 526 L121 526 C132 526 137 522 137 512 L137 453 C156 492 197 536 283 536 C389 536 439 465 439 360 L439 360 Z M292 -133 L262 -214 C259 -221 256 -225 248 -225 L237 -225 C230 -225 229 -219 230 -212 L247 -135 L225 -135 C214 -135 210 -130 210 -120 L210 -63 C210 -52 214 -48 225 -48 L280 -48 C291 -48 295 -52 295 -63 L295 -115 C295 -124 295 -127 292 -133 L292 -133 Z " />
<glyph glyph-name="Ncaron" unicode="&#x147;" horiz-adv-x="589" d="M518 687 L518 16 C518 5 512 0 502 0 L451 0 C440 0 435 4 430 13 L150 551 L150 16 C150 5 145 0 135 0 L87 0 C76 0 71 5 71 16 L71 686 C71 697 76 702 87 702 L137 702 C148 702 155 698 159 690 L439 151 L439 686 C439 697 444 702 454 702 L502 702 C512 702 518 697 518 687 L518 687 Z M348 848 C356 855 360 859 368 859 L405 859 C416 859 418 850 412 844 L333 758 C328 752 323 749 312 749 L273 749 C262 749 258 752 252 758 L173 844 C167 850 169 859 180 859 L217 859 C225 859 229 855 236 849 L293 799 L348 848 L348 848 Z " />
<glyph glyph-name="ncaron" unicode="&#x148;" horiz-adv-x="498" d="M439 360 L439 15 C439 5 434 0 424 0 L378 0 C367 0 362 5 362 15 L362 350 C362 422 336 465 263 465 C183 465 137 407 137 321 L137 15 C137 5 133 0 122 0 L76 0 C65 0 61 5 61 15 L61 511 C61 522 65 526 76 526 L121 526 C132 526 137 522 137 512 L137 453 C156 492 197 536 283 536 C389 536 439 465 439 360 L439 360 Z M305 690 C312 696 317 700 325 700 L362 700 C372 700 373 691 367 685 L286 596 C280 590 276 587 265 587 L226 587 C215 587 211 589 205 596 L124 685 C118 691 119 700 130 700 L166 700 C175 700 179 696 186 690 L246 636 L305 690 L305 690 Z " />
<glyph glyph-name="napostrophe" unicode="&#x149;" horiz-adv-x="582" d="M523 360 L523 15 C523 5 518 0 508 0 L462 0 C451 0 446 5 446 15 L446 350 C446 422 420 465 347 465 C267 465 221 407 221 321 L221 15 C221 5 217 0 206 0 L160 0 C149 0 145 5 145 15 L145 511 C145 522 149 526 160 526 L205 526 C216 526 221 522 221 512 L221 453 C240 492 281 536 367 536 C473 536 523 465 523 360 L523 360 Z M88 618 L53 523 C51 516 47 512 39 512 L20 512 C12 512 10 519 12 526 L37 617 L17 617 C6 617 1 622 1 632 L1 706 C1 716 6 721 17 721 L77 721 C87 721 92 716 92 706 L92 637 C92 629 91 625 88 618 L88 618 Z " />
<glyph glyph-name="Eng" unicode="&#x14a;" horiz-adv-x="589" d="M518 686 L518 16 C518 -75 478 -115 408 -115 C378 -115 353 -109 342 -106 C333 -104 328 -100 330 -91 L338 -52 C340 -43 345 -37 355 -40 C365 -43 379 -46 396 -46 C423 -46 438 -35 438 1 L150 551 L150 16 C150 5 145 0 135 0 L87 0 C76 0 71 5 71 16 L71 686 C71 697 76 702 87 702 L137 702 C148 702 155 698 159 690 L439 151 L439 686 C439 697 444 702 454 702 L502 702 C512 702 518 697 518 686 L518 686 Z " />
<glyph glyph-name="eng" unicode="&#x14b;" horiz-adv-x="498" d="M362 18 L362 350 C362 422 336 465 263 465 C183 465 137 407 137 321 L137 15 C137 5 133 0 122 0 L76 0 C65 0 61 5 61 15 L61 511 C61 522 65 526 76 526 L122 526 C133 526 137 522 137 512 L137 453 C156 492 197 536 283 536 C389 536 439 465 439 360 L439 11 C439 -76 408 -114 334 -114 C317 -114 299 -111 286 -108 C277 -106 274 -101 274 -93 L274 -55 C274 -45 279 -41 289 -42 C301 -44 312 -45 322 -45 C350 -45 362 -25 362 18 L362 18 Z " />
<glyph glyph-name="Omacron" unicode="&#x14c;" horiz-adv-x="597" d="M298 712 C461 712 549 603 549 351 C549 99 461 -9 298 -9 C136 -9 47 99 47 351 C47 603 136 712 298 712 L298 712 Z M298 65 C411 65 466 149 466 351 C466 553 411 638 298 638 C186 638 131 553 131 351 C131 149 186 65 298 65 L298 65 Z M419 759 L178 759 C168 759 164 764 164 773 L164 801 C164 811 168 815 178 815 L419 815 C429 815 434 811 434 801 L434 773 C434 764 429 759 419 759 L419 759 Z " />
<glyph glyph-name="omacron" unicode="&#x14d;" horiz-adv-x="499" d="M250 -9 C117 -9 42 83 42 264 C42 444 117 536 250 536 C382 536 457 444 457 264 C457 83 382 -9 250 -9 L250 -9 Z M250 59 C333 59 378 123 378 264 C378 404 333 468 250 468 C165 468 121 404 121 264 C121 123 165 59 250 59 L250 59 Z M369 592 L129 592 C120 592 115 596 115 606 L115 630 C115 640 120 645 129 645 L369 645 C380 645 384 640 384 630 L384 606 C384 596 380 592 369 592 L369 592 Z " />
<glyph glyph-name="Obreve" unicode="&#x14e;" horiz-adv-x="597" d="M298 712 C461 712 549 603 549 351 C549 99 461 -9 298 -9 C136 -9 47 99 47 351 C47 603 136 712 298 712 L298 712 Z M298 65 C411 65 466 149 466 351 C466 553 411 638 298 638 C186 638 131 553 131 351 C131 149 186 65 298 65 L298 65 Z M299 747 C216 747 179 791 178 847 C178 856 182 859 189 859 L217 859 C226 859 229 855 231 848 C237 818 253 798 299 798 C345 798 361 818 367 848 C369 855 371 859 380 859 L408 859 C416 859 419 856 419 847 C418 791 381 747 299 747 L299 747 Z " />
<glyph glyph-name="obreve" unicode="&#x14f;" horiz-adv-x="499" d="M250 -9 C117 -9 42 83 42 264 C42 444 117 536 250 536 C382 536 457 444 457 264 C457 83 382 -9 250 -9 L250 -9 Z M250 59 C333 59 378 123 378 264 C378 404 333 468 250 468 C165 468 121 404 121 264 C121 123 165 59 250 59 L250 59 Z M250 584 C166 584 130 630 129 686 C129 695 133 698 140 698 L168 698 C177 698 179 694 181 686 C187 656 202 635 250 635 C298 635 312 656 318 686 C320 694 322 698 331 698 L359 698 C367 698 370 695 370 686 C369 630 334 584 250 584 L250 584 Z " />
<glyph glyph-name="Ohungarumlaut" unicode="&#x150;" horiz-adv-x="597" d="M298 712 C461 712 549 603 549 351 C549 99 461 -9 298 -9 C136 -9 47 99 47 351 C47 603 136 712 298 712 L298 712 Z M298 65 C411 65 466 149 466 351 C466 553 411 638 298 638 C186 638 131 553 131 351 C131 149 186 65 298 65 L298 65 Z M203 763 L244 847 C248 854 252 860 264 860 L319 860 C329 860 331 849 325 842 L260 759 C254 752 249 749 239 749 L210 749 C201 749 200 757 203 763 L203 763 Z M345 763 L387 847 C391 855 395 860 407 860 L461 860 C472 860 474 849 469 842 L404 759 C397 751 392 749 382 749 L354 749 C344 749 342 756 345 763 L345 763 Z " />
<glyph glyph-name="ohungarumlaut" unicode="&#x151;" horiz-adv-x="499" d="M250 -9 C117 -9 42 83 42 264 C42 444 117 536 250 536 C382 536 457 444 457 264 C457 83 382 -9 250 -9 L250 -9 Z M250 59 C333 59 378 123 378 264 C378 404 333 468 250 468 C165 468 121 404 121 264 C121 123 165 59 250 59 L250 59 Z M150 600 L193 684 C196 692 200 696 212 696 L265 696 C275 696 277 687 271 679 L206 596 C200 589 195 587 185 587 L159 587 C150 587 147 593 150 600 L150 600 Z M291 600 L333 684 C337 692 341 696 352 696 L404 696 C415 696 417 686 412 679 L347 596 C341 588 335 587 325 587 L300 587 C290 587 288 593 291 600 L291 600 Z " />
<glyph glyph-name="OE" unicode="&#x152;" horiz-adv-x="784" d="M712 323 L486 323 L486 76 L724 76 C735 76 740 71 740 60 L740 16 C740 5 735 0 724 0 L350 0 C164 0 65 85 65 351 C65 617 165 702 351 702 L721 702 C731 702 737 697 737 686 L737 642 C737 632 731 626 721 626 L486 626 L486 395 L712 395 C722 395 727 390 727 379 L727 339 C727 328 722 323 712 323 L712 323 Z M407 626 L352 626 C220 626 149 569 149 351 C149 134 219 76 350 76 L407 76 L407 626 L407 626 Z " />
<glyph glyph-name="oe" unicode="&#x153;" horiz-adv-x="780" d="M587 56 C627 56 657 65 687 78 C697 83 704 79 707 69 L718 33 C720 24 714 19 708 16 C674 1 626 -10 583 -10 C497 -10 436 27 404 91 C375 27 318 -9 242 -9 C117 -9 42 85 42 264 C42 442 116 536 242 536 C316 536 373 503 402 440 C431 502 482 536 555 536 C677 536 737 437 737 303 L737 252 C737 241 732 238 721 238 L437 238 C442 121 499 56 587 56 L587 56 Z M242 59 C320 59 363 124 363 264 C363 402 320 468 242 468 C164 468 121 402 121 264 C121 124 164 59 242 59 L242 59 Z M556 470 C485 470 442 412 437 302 L663 302 L663 308 C663 399 632 470 556 470 L556 470 Z " />
<glyph glyph-name="Racute" unicode="&#x154;" horiz-adv-x="541" d="M152 326 L250 326 C370 326 410 367 410 475 C410 588 368 627 248 627 L152 627 L152 326 L152 326 Z M87 702 L250 702 C421 702 493 635 493 475 C493 339 432 275 331 259 L488 20 C495 10 492 0 479 0 L422 0 C410 0 406 4 400 13 L245 251 L152 251 L152 16 C152 5 146 0 136 0 L87 0 C76 0 71 5 71 16 L71 686 C71 697 76 702 87 702 L87 702 Z M235 763 L281 846 C285 853 289 859 300 859 L368 859 C379 859 380 849 374 842 L293 759 C286 752 281 749 272 749 L244 749 C235 749 232 757 235 763 L235 763 Z " />
<glyph glyph-name="racute" unicode="&#x155;" horiz-adv-x="318" d="M78 526 L124 526 C135 526 139 522 139 512 L139 429 C153 475 202 530 278 530 C288 530 293 528 293 517 L293 459 C293 449 289 446 280 446 C274 446 267 448 255 448 C187 448 139 368 139 276 L139 15 C139 5 135 0 124 0 L78 0 C67 0 63 5 63 15 L63 511 C63 522 67 526 78 526 L78 526 Z M118 600 L164 684 C168 692 172 696 183 696 L251 696 C262 696 264 686 257 679 L176 596 C169 589 164 587 155 587 L127 587 C118 587 114 593 118 600 L118 600 Z " />
<glyph glyph-name="Rcommaaccent" unicode="&#x156;" horiz-adv-x="541" d="M152 326 L250 326 C370 326 410 367 410 475 C410 588 368 627 248 627 L152 627 L152 326 L152 326 Z M87 702 L250 702 C421 702 493 635 493 475 C493 339 432 275 331 259 L488 20 C495 10 492 0 479 0 L422 0 C410 0 406 4 400 13 L245 251 L152 251 L152 16 C152 5 146 0 136 0 L87 0 C76 0 71 5 71 16 L71 686 C71 697 76 702 87 702 L87 702 Z M317 -139 L283 -221 C280 -228 277 -232 269 -232 L259 -232 C251 -232 249 -226 251 -219 L270 -139 L246 -139 C235 -139 231 -135 231 -125 L231 -63 C231 -53 235 -48 246 -48 L305 -48 C316 -48 320 -53 320 -63 L320 -120 C320 -129 320 -131 317 -139 L317 -139 Z " />
<glyph glyph-name="rcommaaccent" unicode="&#x157;" horiz-adv-x="318" d="M78 526 L124 526 C135 526 139 522 139 512 L139 429 C153 475 202 530 278 530 C288 530 293 528 293 517 L293 459 C293 449 289 446 280 446 C274 446 267 448 255 448 C187 448 139 368 139 276 L139 15 C139 5 135 0 124 0 L78 0 C67 0 63 5 63 15 L63 511 C63 522 67 526 78 526 L78 526 Z M141 -133 L111 -214 C108 -221 105 -225 97 -225 L86 -225 C79 -225 78 -219 79 -212 L96 -135 L74 -135 C63 -135 59 -130 59 -120 L59 -63 C59 -52 63 -48 74 -48 L129 -48 C140 -48 144 -52 144 -63 L144 -115 C144 -124 144 -127 141 -133 L141 -133 Z " />
<glyph glyph-name="Rcaron" unicode="&#x158;" horiz-adv-x="541" d="M152 326 L250 326 C370 326 410 367 410 475 C410 588 368 627 248 627 L152 627 L152 326 L152 326 Z M87 702 L250 702 C421 702 493 635 493 475 C493 339 432 275 331 259 L488 20 C495 10 492 0 479 0 L422 0 C410 0 406 4 400 13 L245 251 L152 251 L152 16 C152 5 146 0 136 0 L87 0 C76 0 71 5 71 16 L71 686 C71 697 76 702 87 702 L87 702 Z M326 848 C334 855 338 859 346 859 L383 859 C394 859 396 850 390 844 L311 758 C306 752 301 749 290 749 L251 749 C240 749 236 752 230 758 L151 844 C145 850 147 859 158 859 L195 859 C203 859 207 855 214 849 L271 799 L326 848 L326 848 Z " />
<glyph glyph-name="rcaron" unicode="&#x159;" horiz-adv-x="318" d="M78 526 L124 526 C135 526 139 522 139 512 L139 429 C153 475 202 530 278 530 C288 530 293 528 293 517 L293 459 C293 449 289 446 280 446 C274 446 267 448 255 448 C187 448 139 368 139 276 L139 15 C139 5 135 0 124 0 L78 0 C67 0 63 5 63 15 L63 511 C63 522 67 526 78 526 L78 526 Z M232 690 C239 696 244 700 252 700 L289 700 C299 700 300 691 294 685 L213 596 C207 590 203 587 192 587 L153 587 C142 587 138 589 132 596 L51 685 C45 691 46 700 57 700 L93 700 C102 700 106 696 113 690 L173 636 L232 690 L232 690 Z " />
<glyph glyph-name="Sacute" unicode="&#x15a;" horiz-adv-x="464" d="M424 173 C424 52 342 -8 204 -8 C146 -8 84 1 54 14 C43 19 38 23 40 33 L51 75 C54 85 58 91 70 86 C97 76 147 65 200 65 C292 65 343 103 343 175 C343 250 283 285 208 328 C124 373 48 421 48 536 C48 645 107 712 254 712 C308 712 357 702 385 692 C396 688 402 683 399 673 L388 632 C386 622 381 617 368 622 C344 630 308 638 259 638 C165 638 130 603 130 535 C130 463 188 431 254 392 C344 341 424 293 424 173 L424 173 Z M202 763 L248 846 C252 853 256 859 267 859 L335 859 C346 859 347 849 341 842 L260 759 C253 752 248 749 239 749 L211 749 C202 749 199 757 202 763 L202 763 Z " />
<glyph glyph-name="sacute" unicode="&#x15b;" horiz-adv-x="387" d="M351 138 C351 36 286 -9 177 -9 C125 -9 74 0 44 11 C35 14 31 19 32 27 L40 66 C42 75 46 80 58 76 C85 66 124 57 170 57 C242 57 276 79 276 138 C276 191 235 213 166 246 C97 281 36 306 36 399 C36 488 88 536 200 536 C248 536 291 527 320 516 C328 513 333 510 331 500 L322 464 C320 455 316 451 306 454 C282 463 250 470 209 470 C140 470 111 452 111 398 C111 351 150 330 216 299 C293 262 351 224 351 138 L351 138 Z M149 600 L195 684 C199 692 203 696 214 696 L282 696 C293 696 295 686 288 679 L207 596 C200 589 195 587 186 587 L158 587 C149 587 145 593 149 600 L149 600 Z " />
<glyph glyph-name="Scircumflex" unicode="&#x15c;" horiz-adv-x="464" d="M424 173 C424 52 342 -8 204 -8 C146 -8 84 1 54 14 C43 19 38 23 40 33 L51 75 C54 85 58 91 70 86 C97 76 147 65 200 65 C292 65 343 103 343 175 C343 250 283 285 208 328 C124 373 48 421 48 536 C48 645 107 712 254 712 C308 712 357 702 385 692 C396 688 402 683 399 673 L388 632 C386 622 381 617 368 622 C344 630 308 638 259 638 C165 638 130 603 130 535 C130 463 188 431 254 392 C344 341 424 293 424 173 L424 173 Z M286 759 L230 809 L173 759 C167 753 161 749 152 749 L115 749 C105 749 103 758 110 765 L189 849 C195 856 199 859 210 859 L249 859 C260 859 264 855 270 849 L349 765 C356 758 354 749 343 749 L307 749 C298 749 292 753 286 759 L286 759 Z " />
<glyph glyph-name="scircumflex" unicode="&#x15d;" horiz-adv-x="387" d="M351 138 C351 36 286 -9 177 -9 C125 -9 74 0 44 11 C35 14 31 19 32 27 L40 66 C42 75 46 80 58 76 C85 66 124 57 170 57 C242 57 276 79 276 138 C276 191 235 213 166 246 C97 281 36 306 36 399 C36 488 88 536 200 536 C248 536 291 527 320 516 C328 513 333 510 331 500 L322 464 C320 455 316 451 306 454 C282 463 250 470 209 470 C140 470 111 452 111 398 C111 351 150 330 216 299 C293 262 351 224 351 138 L351 138 Z M253 596 L194 650 L134 596 C127 590 123 587 114 587 L78 587 C67 587 65 595 72 602 L153 690 C159 697 163 700 174 700 L213 700 C224 700 228 696 234 690 L315 602 C321 595 320 587 310 587 L273 587 C265 587 260 590 253 596 L253 596 Z " />
<glyph glyph-name="Scedilla" unicode="&#x15e;" horiz-adv-x="464" d="M424 173 C424 67 361 8 252 -5 C286 -22 313 -52 313 -87 C313 -135 281 -157 223 -157 C209 -157 196 -157 187 -153 C180 -150 177 -146 177 -140 L177 -114 C177 -108 180 -105 187 -105 L214 -105 C243 -105 256 -94 256 -75 C256 -51 239 -28 207 -8 L204 -8 C146 -8 84 1 54 14 C43 19 38 23 40 33 L51 75 C54 85 58 91 70 86 C97 76 147 65 200 65 C292 65 343 103 343 175 C343 250 283 285 208 328 C124 373 48 421 48 536 C48 645 107 712 254 712 C308 712 357 702 385 692 C396 688 402 683 399 673 L388 632 C386 622 381 617 368 622 C344 630 308 638 259 638 C165 638 130 603 130 535 C130 463 188 431 254 392 C344 341 424 293 424 173 L424 173 Z " />
<glyph glyph-name="scedilla" unicode="&#x15f;" horiz-adv-x="387" d="M351 138 C351 45 297 0 205 -7 C236 -24 260 -50 260 -82 C260 -129 227 -147 172 -147 C159 -147 145 -146 137 -143 C129 -141 127 -137 127 -131 L127 -107 C127 -101 130 -97 137 -97 L162 -97 C191 -97 205 -90 205 -70 C205 -47 189 -27 159 -8 C114 -7 70 1 44 11 C35 14 31 19 32 27 L40 66 C42 75 46 80 58 76 C85 66 124 57 170 57 C242 57 276 79 276 138 C276 191 235 213 166 246 C97 281 36 306 36 399 C36 488 88 536 200 536 C248 536 291 527 320 516 C328 513 333 510 331 500 L322 464 C320 455 316 451 306 454 C282 463 250 470 209 470 C140 470 111 452 111 398 C111 351 150 330 216 299 C293 262 351 224 351 138 L351 138 Z " />
<glyph glyph-name="Scaron" unicode="&#x160;" horiz-adv-x="464" d="M424 173 C424 52 342 -8 204 -8 C146 -8 84 1 54 14 C43 19 38 23 40 33 L51 75 C54 85 58 91 70 86 C97 76 147 65 200 65 C292 65 343 103 343 175 C343 250 283 285 208 328 C124 373 48 421 48 536 C48 645 107 712 254 712 C308 712 357 702 385 692 C396 688 402 683 399 673 L388 632 C386 622 381 617 368 622 C344 630 308 638 259 638 C165 638 130 603 130 535 C130 463 188 431 254 392 C344 341 424 293 424 173 L424 173 Z M288 848 C296 855 300 859 308 859 L345 859 C356 859 358 850 352 844 L273 758 C268 752 263 749 252 749 L213 749 C202 749 198 752 192 758 L113 844 C107 850 109 859 120 859 L157 859 C165 859 169 855 176 849 L233 799 L288 848 L288 848 Z " />
<glyph glyph-name="scaron" unicode="&#x161;" horiz-adv-x="387" d="M351 138 C351 36 286 -9 177 -9 C125 -9 74 0 44 11 C35 14 31 19 32 27 L40 66 C42 75 46 80 58 76 C85 66 124 57 170 57 C242 57 276 79 276 138 C276 191 235 213 166 246 C97 281 36 306 36 399 C36 488 88 536 200 536 C248 536 291 527 320 516 C328 513 333 510 331 500 L322 464 C320 455 316 451 306 454 C282 463 250 470 209 470 C140 470 111 452 111 398 C111 351 150 330 216 299 C293 262 351 224 351 138 L351 138 Z M253 690 C260 696 265 700 273 700 L310 700 C320 700 321 691 315 685 L234 596 C228 590 224 587 213 587 L174 587 C163 587 159 589 153 596 L72 685 C66 691 67 700 78 700 L114 700 C123 700 127 696 134 690 L194 636 L253 690 L253 690 Z " />
<glyph glyph-name="Tcommaaccent" unicode="&#x162;" horiz-adv-x="453" d="M26 642 L26 686 C26 697 32 702 42 702 L411 702 C422 702 427 697 427 686 L427 642 C427 632 422 626 411 626 L267 626 L267 16 C267 5 262 0 251 0 L202 0 C192 0 186 5 186 16 L186 626 L42 626 C32 626 26 632 26 642 L26 642 Z M265 -139 L231 -221 C228 -228 225 -232 217 -232 L207 -232 C199 -232 197 -226 199 -219 L218 -139 L194 -139 C183 -139 179 -135 179 -125 L179 -63 C179 -53 183 -48 194 -48 L253 -48 C264 -48 268 -53 268 -63 L268 -120 C268 -129 268 -131 265 -139 L265 -139 Z " />
<glyph glyph-name="tcommaaccent" unicode="&#x163;" horiz-adv-x="308" d="M266 457 L163 457 L163 152 C163 84 176 64 231 64 C248 64 254 66 265 68 C274 69 278 65 279 56 L286 19 C287 10 283 6 275 3 C262 -2 236 -5 217 -5 C124 -5 89 33 89 145 L89 457 L32 457 C21 457 16 461 16 472 L16 511 C16 522 21 526 32 526 L90 526 L90 645 C90 656 94 660 105 660 L148 660 C159 660 163 656 163 645 L163 526 L266 526 C277 526 281 522 281 511 L281 472 C281 461 277 457 266 457 L266 457 Z M219 -133 L189 -214 C186 -221 183 -225 175 -225 L164 -225 C157 -225 156 -219 157 -212 L174 -135 L152 -135 C141 -135 137 -130 137 -120 L137 -63 C137 -52 141 -48 152 -48 L207 -48 C218 -48 222 -52 222 -63 L222 -115 C222 -124 222 -127 219 -133 L219 -133 Z " />
<glyph glyph-name="Tcaron" unicode="&#x164;" horiz-adv-x="453" d="M26 642 L26 686 C26 697 32 702 42 702 L411 702 C422 702 427 697 427 686 L427 642 C427 632 422 626 411 626 L267 626 L267 16 C267 5 262 0 251 0 L202 0 C192 0 186 5 186 16 L186 626 L42 626 C32 626 26 632 26 642 L26 642 Z M279 848 C287 855 291 859 299 859 L336 859 C347 859 349 850 343 844 L264 758 C259 752 254 749 243 749 L204 749 C193 749 189 752 183 758 L104 844 C98 850 100 859 111 859 L148 859 C156 859 160 855 167 849 L224 799 L279 848 L279 848 Z " />
<glyph glyph-name="tcaron" unicode="&#x165;" horiz-adv-x="409" d="M265 457 L162 457 L162 152 C162 84 175 64 230 64 C247 64 253 66 264 68 C273 69 277 65 278 56 L285 19 C286 10 282 6 274 3 C261 -2 235 -5 216 -5 C123 -5 88 33 88 145 L88 457 L31 457 C20 457 15 461 15 472 L15 511 C15 522 20 526 31 526 L89 526 L89 645 C89 656 93 660 104 660 L147 660 C158 660 162 656 162 645 L162 526 L265 526 C276 526 280 522 280 511 L280 472 C280 461 276 457 265 457 L265 457 Z M406 617 L371 522 C369 515 365 511 357 511 L338 511 C330 511 328 518 330 525 L355 616 L335 616 C324 616 319 621 319 631 L319 705 C319 715 324 720 335 720 L395 720 C405 720 410 715 410 705 L410 636 C410 628 409 624 406 617 L406 617 Z " />
<glyph glyph-name="Tbar" unicode="&#x166;" horiz-adv-x="453" d="M26 642 L26 686 C26 697 32 702 42 702 L411 702 C422 702 427 697 427 686 L427 642 C427 632 422 626 411 626 L267 626 L267 374 L353 374 C364 374 368 370 368 361 L368 339 C368 329 364 325 353 325 L267 325 L267 16 C267 5 262 0 251 0 L202 0 C192 0 186 5 186 16 L186 325 L100 325 C89 325 86 329 86 339 L86 361 C86 370 90 374 100 374 L186 374 L186 626 L42 626 C32 626 26 632 26 642 L26 642 Z " />
<glyph glyph-name="tbar" unicode="&#x167;" horiz-adv-x="308" d="M266 457 L163 457 L163 292 L259 292 C269 292 273 288 273 278 L273 258 C273 247 269 243 259 243 L163 243 L163 152 C163 84 176 64 231 64 C248 64 254 66 265 68 C274 69 278 65 279 56 L286 19 C287 10 283 6 275 3 C262 -2 236 -5 217 -5 C124 -5 89 33 89 145 L89 243 L31 243 C21 243 16 247 16 258 L16 278 C16 288 21 292 31 292 L89 292 L89 457 L32 457 C21 457 16 461 16 472 L16 511 C16 522 21 526 32 526 L90 526 L90 645 C90 656 94 660 105 660 L148 660 C159 660 163 656 163 645 L163 526 L266 526 C277 526 281 522 281 511 L281 472 C281 461 277 457 266 457 L266 457 Z " />
<glyph glyph-name="Utilde" unicode="&#x168;" horiz-adv-x="573" d="M286 -10 C136 -10 66 70 66 226 L66 686 C66 697 72 702 82 702 L131 702 C143 702 148 697 148 686 L148 232 C148 121 186 65 286 65 C387 65 425 121 425 232 L425 686 C425 697 430 702 441 702 L490 702 C501 702 506 697 506 686 L506 226 C506 70 436 -10 286 -10 L286 -10 Z M428 814 C428 776 411 746 364 746 C344 746 316 752 288 764 L263 775 C247 781 233 786 222 786 C208 786 198 779 197 767 L196 760 C195 751 189 748 181 748 L159 748 C150 748 146 753 146 767 C146 805 163 835 210 835 C229 835 258 827 286 816 L313 805 C331 797 345 793 355 793 C368 793 375 800 376 813 L377 822 C377 830 384 833 393 833 L414 833 C423 833 428 829 428 814 L428 814 Z " />
<glyph glyph-name="utilde" unicode="&#x169;" horiz-adv-x="492" d="M57 168 L57 511 C57 522 61 526 72 526 L118 526 C128 526 132 522 132 511 L132 179 C132 108 156 62 230 62 C303 62 353 117 353 204 L353 511 C353 522 358 526 368 526 L415 526 C425 526 429 522 429 511 L429 15 C429 5 425 0 415 0 L368 0 C358 0 353 5 353 15 L353 73 C336 36 297 -9 212 -9 C103 -9 57 63 57 168 L57 168 Z M380 651 C380 613 365 586 322 586 C300 586 272 593 246 604 L223 615 C208 622 197 625 188 625 C174 625 167 618 165 606 L164 598 C163 591 157 588 148 588 L127 588 C117 588 113 592 113 606 C113 644 128 672 171 672 C193 672 220 664 247 653 L271 642 C287 635 299 632 308 632 C321 632 328 638 329 652 L330 659 C331 668 337 670 345 670 L367 670 C376 670 380 665 380 651 L380 651 Z " />
<glyph glyph-name="Umacron" unicode="&#x16a;" horiz-adv-x="573" d="M286 -10 C136 -10 66 70 66 226 L66 686 C66 697 72 702 82 702 L131 702 C143 702 148 697 148 686 L148 232 C148 121 186 65 286 65 C387 65 425 121 425 232 L425 686 C425 697 430 702 441 702 L490 702 C501 702 506 697 506 686 L506 226 C506 70 436 -10 286 -10 L286 -10 Z M407 759 L166 759 C156 759 152 764 152 773 L152 801 C152 811 156 815 166 815 L407 815 C417 815 422 811 422 801 L422 773 C422 764 417 759 407 759 L407 759 Z " />
<glyph glyph-name="umacron" unicode="&#x16b;" horiz-adv-x="492" d="M57 168 L57 511 C57 522 61 526 72 526 L118 526 C128 526 132 522 132 511 L132 179 C132 108 156 62 230 62 C303 62 353 117 353 204 L353 511 C353 522 358 526 368 526 L415 526 C425 526 429 522 429 511 L429 15 C429 5 425 0 415 0 L368 0 C358 0 353 5 353 15 L353 73 C336 36 297 -9 212 -9 C103 -9 57 63 57 168 L57 168 Z M366 592 L126 592 C117 592 112 596 112 606 L112 630 C112 640 117 645 126 645 L366 645 C377 645 381 640 381 630 L381 606 C381 596 377 592 366 592 L366 592 Z " />
<glyph glyph-name="Ubreve" unicode="&#x16c;" horiz-adv-x="573" d="M286 -10 C136 -10 66 70 66 226 L66 686 C66 697 72 702 82 702 L131 702 C143 702 148 697 148 686 L148 232 C148 121 186 65 286 65 C387 65 425 121 425 232 L425 686 C425 697 430 702 441 702 L490 702 C501 702 506 697 506 686 L506 226 C506 70 436 -10 286 -10 L286 -10 Z M287 747 C204 747 167 791 166 847 C166 856 170 859 177 859 L205 859 C214 859 217 855 219 848 C225 818 241 798 287 798 C333 798 349 818 355 848 C357 855 359 859 368 859 L396 859 C404 859 407 856 407 847 C406 791 369 747 287 747 L287 747 Z " />
<glyph glyph-name="ubreve" unicode="&#x16d;" horiz-adv-x="492" d="M57 168 L57 511 C57 522 61 526 72 526 L118 526 C128 526 132 522 132 511 L132 179 C132 108 156 62 230 62 C303 62 353 117 353 204 L353 511 C353 522 358 526 368 526 L415 526 C425 526 429 522 429 511 L429 15 C429 5 425 0 415 0 L368 0 C358 0 353 5 353 15 L353 73 C336 36 297 -9 212 -9 C103 -9 57 63 57 168 L57 168 Z M247 584 C163 584 127 630 126 686 C126 695 130 698 137 698 L165 698 C174 698 176 694 178 686 C184 656 199 635 247 635 C295 635 309 656 315 686 C317 694 319 698 328 698 L356 698 C364 698 367 695 367 686 C366 630 331 584 247 584 L247 584 Z " />
<glyph glyph-name="Uring" unicode="&#x16e;" horiz-adv-x="573" d="M286 -10 C136 -10 66 70 66 226 L66 686 C66 697 72 702 82 702 L131 702 C143 702 148 697 148 686 L148 232 C148 121 186 65 286 65 C387 65 425 121 425 232 L425 686 C425 697 430 702 441 702 L490 702 C501 702 506 697 506 686 L506 226 C506 70 436 -10 286 -10 L286 -10 Z M236 829 C236 799 254 782 287 782 C319 782 337 799 337 829 C337 858 319 876 287 876 C254 876 236 858 236 829 L236 829 Z M192 829 C192 880 228 917 287 917 C345 917 382 880 382 829 C382 777 345 740 287 740 C228 740 192 777 192 829 L192 829 Z " />
<glyph glyph-name="uring" unicode="&#x16f;" horiz-adv-x="492" d="M57 168 L57 511 C57 522 61 526 72 526 L118 526 C128 526 132 522 132 511 L132 179 C132 108 156 62 230 62 C303 62 353 117 353 204 L353 511 C353 522 358 526 368 526 L415 526 C425 526 429 522 429 511 L429 15 C429 5 425 0 415 0 L368 0 C358 0 353 5 353 15 L353 73 C336 36 297 -9 212 -9 C103 -9 57 63 57 168 L57 168 Z M247 621 C279 621 297 639 297 669 C297 698 279 716 246 716 C214 716 196 698 196 669 C196 639 214 621 247 621 L247 621 Z M246 757 C305 757 342 721 342 669 C342 617 305 581 247 581 C188 581 151 617 151 669 C151 721 188 757 246 757 L246 757 Z " />
<glyph glyph-name="Uhungarumlaut" unicode="&#x170;" horiz-adv-x="573" d="M286 -10 C136 -10 66 70 66 226 L66 686 C66 697 72 702 82 702 L131 702 C143 702 148 697 148 686 L148 232 C148 121 186 65 286 65 C387 65 425 121 425 232 L425 686 C425 697 430 702 441 702 L490 702 C501 702 506 697 506 686 L506 226 C506 70 436 -10 286 -10 L286 -10 Z M183 763 L224 847 C228 854 232 860 244 860 L299 860 C309 860 311 849 305 842 L240 759 C234 752 229 749 219 749 L190 749 C181 749 180 757 183 763 L183 763 Z M325 763 L367 847 C371 855 375 860 387 860 L441 860 C452 860 454 849 449 842 L384 759 C377 751 372 749 362 749 L334 749 C324 749 322 756 325 763 L325 763 Z " />
<glyph glyph-name="uhungarumlaut" unicode="&#x171;" horiz-adv-x="492" d="M57 168 L57 511 C57 522 61 526 72 526 L118 526 C128 526 132 522 132 511 L132 179 C132 108 156 62 230 62 C303 62 353 117 353 204 L353 511 C353 522 358 526 368 526 L415 526 C425 526 429 522 429 511 L429 15 C429 5 425 0 415 0 L368 0 C358 0 353 5 353 15 L353 73 C336 36 297 -9 212 -9 C103 -9 57 63 57 168 L57 168 Z M137 600 L180 684 C183 692 187 696 199 696 L252 696 C262 696 264 687 258 679 L193 596 C187 589 182 587 172 587 L146 587 C137 587 134 593 137 600 L137 600 Z M278 600 L320 684 C324 692 328 696 339 696 L391 696 C402 696 404 686 399 679 L334 596 C328 588 322 587 312 587 L287 587 C277 587 275 593 278 600 L278 600 Z " />
<glyph glyph-name="Uogonek" unicode="&#x172;" horiz-adv-x="573" d="M286 -10 C136 -10 66 70 66 226 L66 686 C66 697 72 702 82 702 L131 702 C143 702 148 697 148 686 L148 232 C148 121 186 65 286 65 C387 65 425 121 425 232 L425 686 C425 697 430 702 441 702 L490 702 C501 702 506 697 506 686 L506 226 C506 95 456 18 352 -3 C317 -23 300 -48 300 -75 C300 -93 316 -104 344 -104 C358 -104 366 -101 373 -100 C377 -99 381 -100 382 -105 L387 -133 C389 -141 386 -144 381 -146 C369 -152 351 -157 328 -157 C282 -157 244 -138 244 -92 C244 -62 265 -31 294 -10 L286 -10 L286 -10 Z " />
<glyph glyph-name="uogonek" unicode="&#x173;" horiz-adv-x="492" d="M57 168 L57 511 C57 522 61 526 72 526 L118 526 C128 526 132 522 132 511 L132 179 C132 108 156 62 230 62 C303 62 353 117 353 204 L353 511 C353 522 358 526 368 526 L415 526 C425 526 429 522 429 511 L429 15 C429 5 425 0 415 0 L409 0 C372 -19 352 -41 352 -69 C352 -89 367 -97 394 -97 C408 -97 416 -94 421 -94 C426 -93 431 -93 432 -100 L436 -125 C437 -133 434 -136 430 -138 C419 -143 400 -148 379 -148 C335 -148 299 -132 299 -87 C299 -52 328 -18 363 0 C356 2 353 6 353 15 L353 73 C336 36 297 -9 212 -9 C103 -9 57 63 57 168 L57 168 Z " />
<glyph glyph-name="Wcircumflex" unicode="&#x174;" horiz-adv-x="879" d="M413 702 L466 702 C480 702 484 697 487 686 L583 278 L626 91 L628 91 L666 277 L760 686 C762 697 767 702 777 702 L830 702 C841 702 846 696 843 684 L683 18 C680 5 674 0 662 0 L593 0 C582 0 575 5 572 17 L479 395 L440 569 L438 569 L399 395 L308 17 C305 5 298 0 286 0 L217 0 C205 0 199 6 196 18 L36 684 C33 696 38 702 49 702 L103 702 C113 702 117 697 120 686 L213 277 L251 91 L254 91 L296 278 L392 686 C394 697 399 702 413 702 L413 702 Z M496 759 L440 809 L383 759 C377 753 371 749 362 749 L325 749 C315 749 313 758 320 765 L399 849 C405 856 409 859 420 859 L459 859 C470 859 474 855 480 849 L559 765 C566 758 564 749 553 749 L517 749 C508 749 502 753 496 759 L496 759 Z " />
<glyph glyph-name="wcircumflex" unicode="&#x175;" horiz-adv-x="699" d="M325 526 L374 526 C384 526 389 520 391 512 L472 198 L496 85 L498 85 L519 198 L591 512 C593 521 598 526 608 526 L658 526 C668 526 672 520 669 510 L547 15 C545 6 538 0 528 0 L471 0 C461 0 455 5 453 15 L378 302 L351 423 L348 423 L322 302 L247 15 C245 5 239 0 229 0 L172 0 C162 0 155 6 153 15 L30 510 C28 520 32 526 42 526 L91 526 C101 526 106 521 108 512 L181 198 L201 85 L203 85 L228 198 L308 512 C310 520 315 526 325 526 L325 526 Z M409 596 L350 650 L290 596 C283 590 279 587 270 587 L234 587 C223 587 221 595 228 602 L309 690 C315 697 319 700 330 700 L369 700 C380 700 384 696 390 690 L471 602 C477 595 476 587 466 587 L429 587 C421 587 416 590 409 596 L409 596 Z " />
<glyph glyph-name="Ycircumflex" unicode="&#x176;" horiz-adv-x="538" d="M310 263 L310 16 C310 5 304 0 293 0 L244 0 C233 0 228 5 228 16 L228 263 L27 684 C23 692 25 702 38 702 L93 702 C106 702 109 696 113 687 L224 444 L268 339 L314 444 L425 687 C429 696 432 702 445 702 L499 702 C513 702 514 692 510 684 L310 263 L310 263 Z M325 759 L269 809 L212 759 C206 753 200 749 191 749 L154 749 C144 749 142 758 149 765 L228 849 C234 856 238 859 249 859 L288 859 C299 859 303 855 309 849 L388 765 C395 758 393 749 382 749 L346 749 C337 749 331 753 325 759 L325 759 Z " />
<glyph glyph-name="ycircumflex" unicode="&#x177;" horiz-adv-x="432" d="M410 510 L275 37 C248 -66 220 -115 121 -115 C97 -115 72 -111 59 -106 C50 -103 45 -98 47 -90 L55 -53 C57 -43 61 -40 71 -41 C82 -43 93 -47 117 -47 C159 -47 179 -24 179 9 C179 20 176 32 172 45 L24 510 C21 520 25 526 35 526 L85 526 C95 526 99 521 102 512 L190 214 L223 89 L225 89 L256 214 L332 512 C334 521 339 526 349 526 L398 526 C408 526 413 520 410 510 L410 510 Z M275 596 L216 650 L156 596 C149 590 145 587 136 587 L100 587 C89 587 87 595 94 602 L175 690 C181 697 185 700 196 700 L235 700 C246 700 250 696 256 690 L337 602 C343 595 342 587 332 587 L295 587 C287 587 282 590 275 596 L275 596 Z " />
<glyph glyph-name="Ydieresis" unicode="&#x178;" horiz-adv-x="538" d="M310 263 L310 16 C310 5 304 0 293 0 L244 0 C233 0 228 5 228 16 L228 263 L27 684 C23 692 25 702 38 702 L93 702 C106 702 109 696 113 687 L224 444 L268 339 L314 444 L425 687 C429 696 432 702 445 702 L499 702 C513 702 514 692 510 684 L310 263 L310 263 Z M230 823 L230 764 C230 754 226 749 215 749 L163 749 C153 749 149 754 149 764 L149 823 C149 833 153 838 163 838 L215 838 C226 838 230 833 230 823 L230 823 Z M389 823 L389 764 C389 754 384 749 373 749 L322 749 C311 749 307 754 307 764 L307 823 C307 833 311 838 322 838 L373 838 C384 838 389 833 389 823 L389 823 Z " />
<glyph glyph-name="Zacute" unicode="&#x179;" horiz-adv-x="491" d="M46 16 L46 59 C46 69 50 76 54 84 L348 626 L70 626 C60 626 55 632 55 642 L55 686 C55 697 60 702 70 702 L423 702 C433 702 438 697 438 686 L438 643 C438 633 435 626 431 618 L139 76 L428 76 C438 76 443 71 443 60 L443 16 C443 5 438 0 428 0 L61 0 C51 0 46 5 46 16 L46 16 Z M217 763 L263 846 C267 853 271 859 282 859 L350 859 C361 859 362 849 356 842 L275 759 C268 752 263 749 254 749 L226 749 C217 749 214 757 217 763 L217 763 Z " />
<glyph glyph-name="zacute" unicode="&#x17a;" horiz-adv-x="417" d="M370 511 L370 481 C370 473 368 465 364 459 L139 70 L356 70 C367 70 371 66 371 55 L371 15 C371 5 367 0 356 0 L58 0 C47 0 43 5 43 15 L43 45 C43 53 46 59 49 65 L276 457 L63 457 C53 457 48 461 48 471 L48 511 C48 522 53 526 63 526 L355 526 C366 526 370 522 370 511 L370 511 Z M172 600 L218 684 C222 692 226 696 237 696 L305 696 C316 696 318 686 311 679 L230 596 C223 589 218 587 209 587 L181 587 C172 587 168 593 172 600 L172 600 Z " />
<glyph glyph-name="Zdotaccent" unicode="&#x17b;" horiz-adv-x="491" d="M46 16 L46 59 C46 69 50 76 54 84 L348 626 L70 626 C60 626 55 632 55 642 L55 686 C55 697 60 702 70 702 L423 702 C433 702 438 697 438 686 L438 643 C438 633 435 626 431 618 L139 76 L428 76 C438 76 443 71 443 60 L443 16 C443 5 438 0 428 0 L61 0 C51 0 46 5 46 16 L46 16 Z M290 827 L290 764 C290 754 287 749 276 749 L222 749 C211 749 206 754 206 764 L206 827 C206 838 211 842 222 842 L276 842 C287 842 290 838 290 827 L290 827 Z " />
<glyph glyph-name="zdotaccent" unicode="&#x17c;" horiz-adv-x="417" d="M370 511 L370 481 C370 473 368 465 364 459 L139 70 L356 70 C367 70 371 66 371 55 L371 15 C371 5 367 0 356 0 L58 0 C47 0 43 5 43 15 L43 45 C43 53 46 59 49 65 L276 457 L63 457 C53 457 48 461 48 471 L48 511 C48 522 53 526 63 526 L355 526 C366 526 370 522 370 511 L370 511 Z M250 664 L250 601 C250 591 247 587 236 587 L182 587 C171 587 166 591 166 601 L166 664 C166 675 171 680 182 680 L236 680 C247 680 250 675 250 664 L250 664 Z " />
<glyph glyph-name="Zcaron" unicode="&#x17d;" horiz-adv-x="491" d="M46 16 L46 59 C46 69 50 76 54 84 L348 626 L70 626 C60 626 55 632 55 642 L55 686 C55 697 60 702 70 702 L423 702 C433 702 438 697 438 686 L438 643 C438 633 435 626 431 618 L139 76 L428 76 C438 76 443 71 443 60 L443 16 C443 5 438 0 428 0 L61 0 C51 0 46 5 46 16 L46 16 Z M305 848 C313 855 317 859 325 859 L362 859 C373 859 375 850 369 844 L290 758 C285 752 280 749 269 749 L230 749 C219 749 215 752 209 758 L130 844 C124 850 126 859 137 859 L174 859 C182 859 186 855 193 849 L250 799 L305 848 L305 848 Z " />
<glyph glyph-name="zcaron" unicode="&#x17e;" horiz-adv-x="417" d="M370 511 L370 481 C370 473 368 465 364 459 L139 70 L356 70 C367 70 371 66 371 55 L371 15 C371 5 367 0 356 0 L58 0 C47 0 43 5 43 15 L43 45 C43 53 46 59 49 65 L276 457 L63 457 C53 457 48 461 48 471 L48 511 C48 522 53 526 63 526 L355 526 C366 526 370 522 370 511 L370 511 Z M268 690 C275 696 280 700 288 700 L325 700 C335 700 336 691 330 685 L249 596 C243 590 239 587 228 587 L189 587 C178 587 174 589 168 596 L87 685 C81 691 82 700 93 700 L129 700 C138 700 142 696 149 690 L209 636 L268 690 L268 690 Z " />
<glyph glyph-name="longs" unicode="&#x17f;" horiz-adv-x="259" d="M169 565 L169 15 C169 4 166 0 155 0 L109 0 C98 0 94 4 94 15 L94 457 L38 457 C27 457 23 461 23 472 L23 511 C23 522 27 526 38 526 L94 526 L94 568 C94 666 134 709 218 709 C243 709 258 706 273 700 C279 698 283 694 283 685 L283 651 C283 641 280 635 269 637 C258 639 245 641 229 641 C187 641 169 622 169 565 L169 565 Z " />
<glyph glyph-name="florin" unicode="&#x192;" horiz-adv-x="559" d="M339 555 L318 394 L433 394 C442 394 447 390 446 380 L441 348 C440 338 437 334 426 334 L310 334 L268 16 C256 -76 224 -116 140 -116 C119 -116 102 -114 88 -109 C80 -107 76 -103 78 -94 L84 -55 C85 -44 91 -40 101 -42 C110 -44 123 -46 130 -46 C169 -46 187 -20 193 24 L233 334 L160 334 C150 334 146 338 147 348 L151 380 C153 390 157 394 167 394 L242 394 L264 565 C278 669 319 711 406 711 C430 711 456 708 467 704 C476 700 479 696 478 688 L472 655 C471 647 465 640 454 642 C444 644 433 647 420 647 C369 647 347 616 339 555 L339 555 Z " />
<glyph glyph-name="Aringacute" unicode="&#x1fa;" horiz-adv-x="562" d="M187 751 C187 790 209 821 246 833 L283 900 C287 907 291 913 302 913 L370 913 C381 913 382 903 376 896 L315 834 C354 822 377 791 377 751 C377 718 362 692 337 676 L537 17 C540 7 534 0 524 0 L471 0 C461 0 456 5 453 15 L403 185 L159 185 L109 15 C106 5 102 0 92 0 L38 0 C28 0 22 7 25 17 L224 677 C200 693 187 719 187 751 L187 751 Z M182 259 L380 259 L282 615 L280 615 L182 259 L182 259 Z M231 751 C231 721 249 704 282 704 C314 704 332 721 332 751 C332 780 314 798 282 798 C249 798 231 780 231 751 L231 751 Z " />
<glyph glyph-name="aringacute" unicode="&#x1fb;" horiz-adv-x="467" d="M408 366 L408 15 C408 5 403 0 393 0 L350 0 C340 0 336 5 336 15 L336 78 C317 40 275 -7 182 -7 C88 -7 34 49 34 141 C34 285 161 317 334 321 L334 362 C334 434 304 467 227 467 C173 467 129 453 95 440 C87 437 79 441 77 451 L69 490 C67 499 71 505 79 508 C114 524 179 536 233 536 C358 536 408 478 408 366 L408 366 Z M334 197 L334 261 C206 255 108 242 108 143 C108 92 136 56 196 56 C285 56 334 121 334 197 L334 197 Z M137 669 C137 711 161 743 201 753 L237 819 C241 827 245 831 256 831 L324 831 C335 831 337 821 330 814 L269 751 C306 739 328 709 328 669 C328 617 291 581 233 581 C174 581 137 617 137 669 L137 669 Z M233 621 C265 621 283 639 283 669 C283 698 265 716 232 716 C200 716 182 698 182 669 C182 639 200 621 233 621 L233 621 Z " />
<glyph glyph-name="AEacute" unicode="&#x1fc;" horiz-adv-x="730" d="M657 323 L441 323 L441 76 L669 76 C680 76 685 71 685 60 L685 16 C685 5 680 0 669 0 L376 0 C365 0 360 5 360 16 L360 181 L164 181 L99 15 C95 5 90 0 80 0 L24 0 C12 0 7 8 11 17 L288 685 C293 697 296 702 310 702 L666 702 C677 702 682 697 682 686 L682 642 C682 632 677 626 666 626 L441 626 L441 395 L657 395 C668 395 673 390 673 379 L673 339 C673 328 668 323 657 323 L657 323 Z M197 254 L359 254 L359 628 L339 628 L197 254 L197 254 Z M343 763 L389 846 C393 853 397 859 408 859 L476 859 C487 859 488 849 482 842 L401 759 C394 752 389 749 380 749 L352 749 C343 749 340 757 343 763 L343 763 Z " />
<glyph glyph-name="aeacute" unicode="&#x1fd;" horiz-adv-x="750" d="M556 56 C596 56 628 65 659 79 C667 83 674 79 677 69 L687 33 C688 23 683 19 675 14 C652 2 596 -10 552 -10 C458 -10 391 36 371 104 C342 32 284 -7 194 -7 C83 -7 34 49 34 137 C34 277 159 303 332 304 L332 369 C332 434 298 467 227 467 C171 467 126 454 92 440 C83 437 77 441 75 451 L65 490 C63 499 67 504 76 508 C115 523 172 536 228 536 C309 536 365 509 381 451 C406 505 459 536 529 536 C650 536 707 440 707 303 L707 249 C707 237 702 234 690 234 L404 234 C410 115 467 56 556 56 L556 56 Z M524 470 C452 470 408 409 403 298 L632 298 L632 306 C632 402 604 470 524 470 L524 470 Z M332 197 L332 242 C202 239 108 227 108 139 C108 91 132 58 202 58 C290 58 332 121 332 197 L332 197 Z M326 600 L372 684 C376 692 380 696 391 696 L459 696 C470 696 472 686 465 679 L384 596 C377 589 372 587 363 587 L335 587 C326 587 322 593 326 600 L326 600 Z " />
<glyph glyph-name="Oslashacute" unicode="&#x1fe;" horiz-adv-x="600" d="M300 712 C374 712 433 686 473 640 L512 693 C518 701 525 703 532 698 L559 677 C568 671 569 665 562 656 L510 583 C536 526 551 452 551 351 C551 99 463 -9 300 -9 C226 -9 166 13 126 62 L85 7 C79 -2 73 -3 65 3 L38 25 C31 31 30 36 36 44 L88 118 C62 172 49 249 49 351 C49 603 137 712 300 712 L300 712 Z M300 65 C413 65 468 150 468 351 C468 408 462 463 451 508 L177 127 C209 83 242 65 300 65 L300 65 Z M132 351 C132 294 137 233 148 194 L421 572 C395 615 358 638 300 638 C187 638 132 553 132 351 L132 351 Z M265 763 L311 846 C315 853 319 859 330 859 L398 859 C409 859 410 849 404 842 L323 759 C316 752 311 749 302 749 L274 749 C265 749 262 757 265 763 L265 763 Z " />
<glyph glyph-name="oslashacute" unicode="&#x1ff;" horiz-adv-x="503" d="M252 -9 C199 -9 153 6 120 37 L97 5 C92 -3 84 -6 76 0 L58 14 C51 19 48 25 54 34 L84 80 C59 121 44 185 44 264 C44 444 119 536 252 536 C304 536 351 520 384 490 L405 520 C412 530 420 530 428 525 L446 512 C454 507 456 501 450 493 L419 447 C446 403 459 341 459 264 C459 83 384 -9 252 -9 L252 -9 Z M252 468 C167 468 123 404 123 264 C123 222 127 174 137 148 L338 430 C318 455 290 468 252 468 L252 468 Z M252 59 C335 59 380 123 380 264 C380 304 376 349 367 379 L166 96 C187 72 212 59 252 59 L252 59 Z M211 600 L257 684 C261 692 265 696 276 696 L344 696 C355 696 357 686 350 679 L269 596 C262 589 257 587 248 587 L220 587 C211 587 207 593 211 600 L211 600 Z " />
<glyph glyph-name="Scommaaccent" unicode="&#x218;" horiz-adv-x="464" d="M424 173 C424 52 342 -8 204 -8 C146 -8 84 1 54 14 C43 19 38 23 40 33 L51 75 C54 85 58 91 70 86 C97 76 147 65 200 65 C292 65 343 103 343 175 C343 250 283 285 208 328 C124 373 48 421 48 536 C48 645 107 712 254 712 C308 712 357 702 385 692 C396 688 402 683 399 673 L388 632 C386 622 381 617 368 622 C344 630 308 638 259 638 C165 638 130 603 130 535 C130 463 188 431 254 392 C344 341 424 293 424 173 L424 173 Z M271 -139 L237 -221 C234 -228 231 -232 223 -232 L213 -232 C205 -232 203 -226 205 -219 L224 -139 L200 -139 C189 -139 185 -135 185 -125 L185 -63 C185 -53 189 -48 200 -48 L259 -48 C270 -48 274 -53 274 -63 L274 -120 C274 -129 274 -131 271 -139 L271 -139 Z " />
<glyph glyph-name="scommaaccent" unicode="&#x219;" horiz-adv-x="387" d="M351 138 C351 36 286 -9 177 -9 C125 -9 74 0 44 11 C35 14 31 19 32 27 L40 66 C42 75 46 80 58 76 C85 66 124 57 170 57 C242 57 276 79 276 138 C276 191 235 213 166 246 C97 281 36 306 36 399 C36 488 88 536 200 536 C248 536 291 527 320 516 C328 513 333 510 331 500 L322 464 C320 455 316 451 306 454 C282 463 250 470 209 470 C140 470 111 452 111 398 C111 351 150 330 216 299 C293 262 351 224 351 138 L351 138 Z M236 -133 L206 -214 C203 -221 200 -225 192 -225 L181 -225 C174 -225 173 -219 174 -212 L191 -135 L169 -135 C158 -135 154 -130 154 -120 L154 -63 C154 -52 158 -48 169 -48 L224 -48 C235 -48 239 -52 239 -63 L239 -115 C239 -124 239 -127 236 -133 L236 -133 Z " />
<glyph glyph-name="uni021A" unicode="&#x21a;" horiz-adv-x="453" d="M26 642 L26 686 C26 697 32 702 42 702 L411 702 C422 702 427 697 427 686 L427 642 C427 632 422 626 411 626 L267 626 L267 16 C267 5 262 0 251 0 L202 0 C192 0 186 5 186 16 L186 626 L42 626 C32 626 26 632 26 642 L26 642 Z M265 -139 L231 -221 C228 -228 225 -232 217 -232 L207 -232 C199 -232 197 -226 199 -219 L218 -139 L194 -139 C183 -139 179 -135 179 -125 L179 -63 C179 -53 183 -48 194 -48 L253 -48 C264 -48 268 -53 268 -63 L268 -120 C268 -129 268 -131 265 -139 L265 -139 Z " />
<glyph glyph-name="uni021B" unicode="&#x21b;" horiz-adv-x="308" d="M266 457 L163 457 L163 152 C163 84 176 64 231 64 C248 64 254 66 265 68 C274 69 278 65 279 56 L286 19 C287 10 283 6 275 3 C262 -2 236 -5 217 -5 C124 -5 89 33 89 145 L89 457 L32 457 C21 457 16 461 16 472 L16 511 C16 522 21 526 32 526 L90 526 L90 645 C90 656 94 660 105 660 L148 660 C159 660 163 656 163 645 L163 526 L266 526 C277 526 281 522 281 511 L281 472 C281 461 277 457 266 457 L266 457 Z M219 -133 L189 -214 C186 -221 183 -225 175 -225 L164 -225 C157 -225 156 -219 157 -212 L174 -135 L152 -135 C141 -135 137 -130 137 -120 L137 -63 C137 -52 141 -48 152 -48 L207 -48 C218 -48 222 -52 222 -63 L222 -115 C222 -124 222 -127 219 -133 L219 -133 Z " />
<glyph glyph-name="dotlessj" unicode="&#x237;" horiz-adv-x="218" d="M76 18 L76 511 C76 522 80 526 91 526 L137 526 C148 526 152 522 152 511 L152 11 C152 -78 124 -114 47 -114 C30 -114 12 -113 0 -109 C-9 -107 -13 -101 -13 -93 L-13 -55 C-13 -45 -9 -41 2 -42 C14 -44 25 -44 34 -44 C62 -44 76 -30 76 18 L76 18 Z " />
<glyph glyph-name="circumflex" unicode="&#x2c6;" horiz-adv-x="295" d="M207 596 L148 650 L88 596 C81 590 77 587 68 587 L32 587 C21 587 19 595 26 602 L107 690 C113 697 117 700 128 700 L167 700 C178 700 182 696 188 690 L269 602 C275 595 274 587 264 587 L227 587 C219 587 214 590 207 596 L207 596 Z " />
<glyph glyph-name="caron" unicode="&#x2c7;" horiz-adv-x="295" d="M207 690 C214 696 219 700 227 700 L264 700 C274 700 275 691 269 685 L188 596 C182 590 178 587 167 587 L128 587 C117 587 113 589 107 596 L26 685 C20 691 21 700 32 700 L68 700 C77 700 81 696 88 690 L148 636 L207 690 L207 690 Z " />
<glyph glyph-name="uni02C9" unicode="&#x2c9;" horiz-adv-x="295" d="M267 592 L27 592 C18 592 13 596 13 606 L13 630 C13 640 18 645 27 645 L267 645 C278 645 282 640 282 630 L282 606 C282 596 278 592 267 592 L267 592 Z " />
<glyph glyph-name="breve" unicode="&#x2d8;" horiz-adv-x="295" d="M148 584 C64 584 28 630 27 686 C27 695 31 698 38 698 L66 698 C75 698 77 694 79 686 C85 656 100 635 148 635 C196 635 210 656 216 686 C218 694 220 698 229 698 L257 698 C265 698 268 695 268 686 C267 630 232 584 148 584 L148 584 Z " />
<glyph glyph-name="dotaccent" unicode="&#x2d9;" horiz-adv-x="295" d="M189 664 L189 601 C189 591 186 587 175 587 L121 587 C110 587 105 591 105 601 L105 664 C105 675 110 680 121 680 L175 680 C186 680 189 675 189 664 L189 664 Z " />
<glyph glyph-name="ring" unicode="&#x2da;" horiz-adv-x="295" d="M148 621 C180 621 198 639 198 669 C198 698 180 716 147 716 C115 716 97 698 97 669 C97 639 115 621 148 621 L148 621 Z M147 757 C206 757 243 721 243 669 C243 617 206 581 148 581 C89 581 52 617 52 669 C52 721 89 757 147 757 L147 757 Z " />
<glyph glyph-name="ogonek" unicode="&#x2db;" horiz-adv-x="295" d="M153 10 L192 8 C145 -14 119 -37 119 -69 C119 -89 134 -97 161 -97 C175 -97 183 -94 188 -94 C193 -93 198 -93 199 -100 L203 -125 C204 -133 201 -136 197 -138 C186 -143 167 -148 146 -148 C102 -148 66 -132 66 -87 C66 -45 108 -5 153 10 L153 10 Z " />
<glyph glyph-name="tilde" unicode="&#x2dc;" horiz-adv-x="295" d="M281 651 C281 613 266 586 223 586 C201 586 173 593 147 604 L124 615 C109 622 98 625 89 625 C75 625 68 618 66 606 L65 598 C64 591 58 588 49 588 L28 588 C18 588 14 592 14 606 C14 644 29 672 72 672 C94 672 121 664 148 653 L172 642 C188 635 200 632 209 632 C222 632 229 638 230 652 L231 659 C232 668 238 670 246 670 L268 670 C277 670 281 665 281 651 L281 651 Z " />
<glyph glyph-name="hungarumlaut" unicode="&#x2dd;" horiz-adv-x="295" d="M54 600 L97 684 C100 692 104 696 116 696 L169 696 C179 696 181 687 175 679 L110 596 C104 589 99 587 89 587 L63 587 C54 587 51 593 54 600 L54 600 Z M195 600 L237 684 C241 692 245 696 256 696 L308 696 C319 696 321 686 316 679 L251 596 C245 588 239 587 229 587 L204 587 C194 587 192 593 195 600 L195 600 Z " />
<glyph glyph-name="uni037E" unicode="&#x37e;" horiz-adv-x="202" d="M57 222 L57 296 C57 307 61 312 72 312 L130 312 C141 312 145 307 145 296 L145 222 C145 212 141 207 131 207 L71 207 C60 207 57 212 57 222 L57 222 Z " />
<glyph glyph-name="uni0394" unicode="&#x394;" horiz-adv-x="587" d="M256 702 L331 702 C343 702 348 696 351 685 L533 25 C537 10 530 0 513 0 L73 0 C57 0 50 10 54 25 L235 685 C238 696 243 702 256 702 L256 702 Z M291 627 L143 72 L443 72 L295 627 L291 627 L291 627 Z " />
<glyph glyph-name="uni03A9" unicode="&#x3a9;" horiz-adv-x="673" d="M337 713 C523 713 624 588 624 415 C624 264 544 170 465 123 L465 70 L574 76 C585 77 590 71 590 61 L590 15 C590 6 585 0 575 0 L387 0 L387 136 C387 146 393 152 400 157 C482 210 541 287 541 413 C541 545 470 639 337 639 C203 639 133 545 133 413 C133 287 189 206 273 157 C281 152 286 146 286 136 L286 0 L99 0 C89 0 84 6 84 15 L84 61 C84 71 89 77 100 76 L209 70 L209 123 C129 170 49 264 49 415 C49 588 150 713 337 713 L337 713 Z " />
<glyph glyph-name="uni03BC" unicode="&#x3bc;" horiz-adv-x="495" d="M436 511 L436 167 C436 62 389 -10 281 -10 C196 -10 157 35 139 72 L139 -95 C139 -106 135 -110 124 -110 L78 -110 C67 -110 63 -105 63 -95 L63 511 C63 522 67 526 78 526 L124 526 C135 526 139 522 139 511 L139 203 C139 116 189 61 262 61 C337 61 359 107 359 178 L359 511 C359 522 364 526 375 526 L421 526 C431 526 436 522 436 511 L436 511 Z " />
<glyph glyph-name="pi" unicode="&#x3c0;" horiz-adv-x="590" d="M452 455 L452 139 C452 78 464 60 511 60 C529 60 535 61 544 62 C556 64 561 59 561 49 L562 16 C562 7 559 3 550 1 C538 -3 517 -6 493 -6 C410 -6 377 36 377 132 L377 455 L228 455 L148 15 C146 5 142 0 131 0 L84 0 C75 0 69 5 71 15 L152 455 L59 455 C49 455 44 461 44 471 L44 511 C44 521 49 526 59 526 L545 526 C555 526 560 521 560 511 L560 471 C560 461 555 455 545 455 L452 455 L452 455 Z " />
<glyph glyph-name="Wgrave" unicode="&#x1e80;" horiz-adv-x="879" d="M413 702 L466 702 C480 702 484 697 487 686 L583 278 L626 91 L628 91 L666 277 L760 686 C762 697 767 702 777 702 L830 702 C841 702 846 696 843 684 L683 18 C680 5 674 0 662 0 L593 0 C582 0 575 5 572 17 L479 395 L440 569 L438 569 L399 395 L308 17 C305 5 298 0 286 0 L217 0 C205 0 199 6 196 18 L36 684 C33 696 38 702 49 702 L103 702 C113 702 117 697 120 686 L213 277 L251 91 L254 91 L296 278 L392 686 C394 697 399 702 413 702 L413 702 Z M412 846 L458 763 C461 757 458 749 449 749 L420 749 C411 749 406 752 399 759 L318 842 C312 848 314 859 325 859 L392 859 C403 859 408 853 412 846 L412 846 Z " />
<glyph glyph-name="wgrave" unicode="&#x1e81;" horiz-adv-x="699" d="M325 526 L374 526 C384 526 389 520 391 512 L472 198 L496 85 L498 85 L519 198 L591 512 C593 521 598 526 608 526 L658 526 C668 526 672 520 669 510 L547 15 C545 6 538 0 528 0 L471 0 C461 0 455 5 453 15 L378 302 L351 423 L348 423 L322 302 L247 15 C245 5 239 0 229 0 L172 0 C162 0 155 6 153 15 L30 510 C28 520 32 526 42 526 L91 526 C101 526 106 521 108 512 L181 198 L201 85 L203 85 L228 198 L308 512 C310 520 315 526 325 526 L325 526 Z M325 684 L371 600 C375 593 371 587 362 587 L333 587 C324 587 319 589 312 596 L231 679 C224 686 227 696 238 696 L305 696 C316 696 321 692 325 684 L325 684 Z " />
<glyph glyph-name="Wacute" unicode="&#x1e82;" horiz-adv-x="879" d="M413 702 L466 702 C480 702 484 697 487 686 L583 278 L626 91 L628 91 L666 277 L760 686 C762 697 767 702 777 702 L830 702 C841 702 846 696 843 684 L683 18 C680 5 674 0 662 0 L593 0 C582 0 575 5 572 17 L479 395 L440 569 L438 569 L399 395 L308 17 C305 5 298 0 286 0 L217 0 C205 0 199 6 196 18 L36 684 C33 696 38 702 49 702 L103 702 C113 702 117 697 120 686 L213 277 L251 91 L254 91 L296 278 L392 686 C394 697 399 702 413 702 L413 702 Z M422 763 L468 846 C472 853 476 859 487 859 L555 859 C566 859 567 849 561 842 L480 759 C473 752 468 749 459 749 L431 749 C422 749 419 757 422 763 L422 763 Z " />
<glyph glyph-name="wacute" unicode="&#x1e83;" horiz-adv-x="699" d="M325 526 L374 526 C384 526 389 520 391 512 L472 198 L496 85 L498 85 L519 198 L591 512 C593 521 598 526 608 526 L658 526 C668 526 672 520 669 510 L547 15 C545 6 538 0 528 0 L471 0 C461 0 455 5 453 15 L378 302 L351 423 L348 423 L322 302 L247 15 C245 5 239 0 229 0 L172 0 C162 0 155 6 153 15 L30 510 C28 520 32 526 42 526 L91 526 C101 526 106 521 108 512 L181 198 L201 85 L203 85 L228 198 L308 512 C310 520 315 526 325 526 L325 526 Z M327 600 L373 684 C377 692 381 696 392 696 L460 696 C471 696 473 686 466 679 L385 596 C378 589 373 587 364 587 L336 587 C327 587 323 593 327 600 L327 600 Z " />
<glyph glyph-name="Wdieresis" unicode="&#x1e84;" horiz-adv-x="879" d="M413 702 L466 702 C480 702 484 697 487 686 L583 278 L626 91 L628 91 L666 277 L760 686 C762 697 767 702 777 702 L830 702 C841 702 846 696 843 684 L683 18 C680 5 674 0 662 0 L593 0 C582 0 575 5 572 17 L479 395 L440 569 L438 569 L399 395 L308 17 C305 5 298 0 286 0 L217 0 C205 0 199 6 196 18 L36 684 C33 696 38 702 49 702 L103 702 C113 702 117 697 120 686 L213 277 L251 91 L254 91 L296 278 L392 686 C394 697 399 702 413 702 L413 702 Z M401 823 L401 764 C401 754 397 749 386 749 L334 749 C324 749 320 754 320 764 L320 823 C320 833 324 838 334 838 L386 838 C397 838 401 833 401 823 L401 823 Z M560 823 L560 764 C560 754 555 749 544 749 L493 749 C482 749 478 754 478 764 L478 823 C478 833 482 838 493 838 L544 838 C555 838 560 833 560 823 L560 823 Z " />
<glyph glyph-name="wdieresis" unicode="&#x1e85;" horiz-adv-x="699" d="M325 526 L374 526 C384 526 389 520 391 512 L472 198 L496 85 L498 85 L519 198 L591 512 C593 521 598 526 608 526 L658 526 C668 526 672 520 669 510 L547 15 C545 6 538 0 528 0 L471 0 C461 0 455 5 453 15 L378 302 L351 423 L348 423 L322 302 L247 15 C245 5 239 0 229 0 L172 0 C162 0 155 6 153 15 L30 510 C28 520 32 526 42 526 L91 526 C101 526 106 521 108 512 L181 198 L201 85 L203 85 L228 198 L308 512 C310 520 315 526 325 526 L325 526 Z M312 662 L312 601 C312 591 308 587 297 587 L248 587 C238 587 233 591 233 601 L233 662 C233 673 238 677 248 677 L297 677 C308 677 312 673 312 662 L312 662 Z M466 662 L466 601 C466 591 461 587 451 587 L402 587 C392 587 387 591 387 601 L387 662 C387 673 392 677 402 677 L451 677 C461 677 466 673 466 662 L466 662 Z " />
<glyph glyph-name="Ygrave" unicode="&#x1ef2;" horiz-adv-x="538" d="M310 263 L310 16 C310 5 304 0 293 0 L244 0 C233 0 228 5 228 16 L228 263 L27 684 C23 692 25 702 38 702 L93 702 C106 702 109 696 113 687 L224 444 L268 339 L314 444 L425 687 C429 696 432 702 445 702 L499 702 C513 702 514 692 510 684 L310 263 L310 263 Z M244 846 L290 763 C293 757 290 749 281 749 L252 749 C243 749 238 752 231 759 L150 842 C144 848 146 859 157 859 L224 859 C235 859 240 853 244 846 L244 846 Z " />
<glyph glyph-name="ygrave" unicode="&#x1ef3;" horiz-adv-x="432" d="M410 510 L275 37 C248 -66 220 -115 121 -115 C97 -115 72 -111 59 -106 C50 -103 45 -98 47 -90 L55 -53 C57 -43 61 -40 71 -41 C82 -43 93 -47 117 -47 C159 -47 179 -24 179 9 C179 20 176 32 172 45 L24 510 C21 520 25 526 35 526 L85 526 C95 526 99 521 102 512 L190 214 L223 89 L225 89 L256 214 L332 512 C334 521 339 526 349 526 L398 526 C408 526 413 520 410 510 L410 510 Z M183 684 L229 600 C233 593 229 587 220 587 L191 587 C182 587 177 589 170 596 L89 679 C82 686 85 696 96 696 L163 696 C174 696 179 692 183 684 L183 684 Z " />
<glyph glyph-name="figuredash" unicode="&#x2012;" horiz-adv-x="485" d="M414 245 L70 245 C61 245 56 249 56 259 L56 296 C56 305 61 309 71 309 L414 309 C423 309 428 305 428 296 L428 259 C428 249 423 245 414 245 L414 245 Z " />
<glyph glyph-name="endash" unicode="&#x2013;" horiz-adv-x="443" d="M390 233 L52 233 C43 233 39 236 39 246 L39 284 C39 294 43 298 53 298 L390 298 C399 298 404 294 404 284 L404 246 C404 236 399 233 390 233 L390 233 Z " />
<glyph glyph-name="emdash" unicode="&#x2014;" horiz-adv-x="651" d="M597 233 L52 233 C43 233 39 236 39 246 L39 284 C39 294 43 298 53 298 L597 298 C607 298 612 294 612 284 L612 246 C612 236 607 233 597 233 L597 233 Z " />
<glyph glyph-name="quoteleft" unicode="&#x2018;" horiz-adv-x="191" d="M56 600 L91 694 C94 701 98 704 106 704 L125 704 C134 704 136 698 134 691 L107 600 L129 600 C139 600 143 596 143 585 L143 511 C143 500 139 496 129 496 L69 496 C57 496 53 500 53 511 L53 580 C53 589 53 592 56 600 L56 600 Z " />
<glyph glyph-name="quoteright" unicode="&#x2019;" horiz-adv-x="191" d="M135 599 L100 504 C98 497 94 493 86 493 L67 493 C59 493 57 500 59 507 L84 598 L64 598 C53 598 48 603 48 613 L48 687 C48 697 53 702 64 702 L124 702 C134 702 139 697 139 687 L139 618 C139 610 138 606 135 599 L135 599 Z " />
<glyph glyph-name="quotesinglbase" unicode="&#x201a;" horiz-adv-x="191" d="M135 1 L100 -94 C98 -101 94 -105 86 -105 L67 -105 C59 -105 57 -98 59 -91 L84 0 L64 0 C53 0 48 5 48 15 L48 89 C48 99 53 104 64 104 L124 104 C134 104 139 99 139 89 L139 20 C139 12 138 8 135 1 L135 1 Z " />
<glyph glyph-name="quotedblleft" unicode="&#x201c;" horiz-adv-x="342" d="M207 600 L242 694 C245 701 248 704 257 704 L276 704 C284 704 286 698 284 691 L259 600 L279 600 C289 600 294 596 294 585 L294 511 C294 500 289 496 279 496 L219 496 C208 496 204 500 204 511 L204 580 C204 589 204 592 207 600 L207 600 Z M56 600 L91 694 C94 701 98 704 106 704 L125 704 C134 704 136 698 134 691 L108 600 L129 600 C139 600 143 596 143 585 L143 511 C143 500 139 496 129 496 L69 496 C57 496 53 500 53 511 L53 580 C53 589 53 592 56 600 L56 600 Z " />
<glyph glyph-name="quotedblright" unicode="&#x201d;" horiz-adv-x="342" d="M135 599 L100 504 C97 496 94 494 86 494 L67 494 C59 494 57 500 59 507 L84 598 L64 598 C53 598 48 602 48 613 L48 687 C48 697 53 702 64 702 L124 702 C134 702 139 697 139 687 L139 618 C139 610 138 606 135 599 L135 599 Z M286 599 L251 504 C248 496 244 494 237 494 L217 494 C209 494 207 500 209 507 L235 598 L214 598 C203 598 199 602 199 613 L199 687 C199 697 203 702 214 702 L274 702 C285 702 289 697 289 687 L289 618 C289 610 289 606 286 599 L286 599 Z " />
<glyph glyph-name="quotedblbase" unicode="&#x201e;" horiz-adv-x="342" d="M135 1 L100 -94 C97 -102 94 -104 86 -104 L67 -104 C59 -104 57 -98 59 -91 L84 0 L64 0 C53 0 48 4 48 15 L48 89 C48 99 53 104 64 104 L124 104 C134 104 139 99 139 89 L139 20 C139 12 138 8 135 1 L135 1 Z M286 1 L251 -94 C248 -102 244 -104 237 -104 L217 -104 C209 -104 207 -98 209 -91 L235 0 L214 0 C203 0 199 4 199 15 L199 89 C199 99 203 104 214 104 L274 104 C285 104 289 99 289 89 L289 20 C289 12 289 8 286 1 L286 1 Z " />
<glyph glyph-name="dagger" unicode="&#x2020;" horiz-adv-x="443" d="M408 511 L408 475 C408 464 404 459 393 459 L259 459 L259 -95 C259 -105 254 -110 245 -110 L198 -110 C188 -110 184 -105 184 -95 L184 459 L50 459 C39 459 34 464 34 475 L34 511 C34 522 39 526 50 526 L184 526 L184 687 C184 698 188 702 198 702 L245 702 C254 702 259 698 259 687 L259 526 L393 526 C404 526 408 522 408 511 L408 511 Z " />
<glyph glyph-name="daggerdbl" unicode="&#x2021;" horiz-adv-x="446" d="M410 118 L410 81 C410 70 406 66 395 66 L261 66 L261 -95 C261 -105 256 -110 246 -110 L200 -110 C190 -110 185 -105 185 -95 L185 66 L51 66 C40 66 36 70 36 81 L36 118 C36 129 40 133 51 133 L185 133 L185 459 L51 459 C40 459 36 464 36 475 L36 511 C36 522 40 526 51 526 L185 526 L185 687 C185 698 190 702 200 702 L246 702 C256 702 261 698 261 687 L261 526 L395 526 C406 526 410 522 410 511 L410 475 C410 464 406 459 395 459 L261 459 L261 133 L395 133 C406 133 410 129 410 118 L410 118 Z " />
<glyph glyph-name="bullet" unicode="&#x2022;" horiz-adv-x="344" d="M172 143 C100 143 48 196 48 270 C48 343 100 395 173 395 C244 395 296 343 296 270 C296 196 244 143 172 143 L172 143 Z " />
<glyph glyph-name="onedotenleader" unicode="&#x2024;" horiz-adv-x="202" d="M57 15 L57 89 C57 100 61 105 72 105 L130 105 C141 105 145 100 145 89 L145 15 C145 5 141 0 131 0 L71 0 C60 0 57 5 57 15 L57 15 Z " />
<glyph glyph-name="twodotenleader" unicode="&#x2025;" horiz-adv-x="401" d="M257 15 L257 89 C257 100 261 105 272 105 L330 105 C341 105 345 100 345 89 L345 15 C345 5 341 0 331 0 L271 0 C260 0 257 5 257 15 L257 15 Z M57 15 L57 89 C57 100 61 105 72 105 L130 105 C141 105 145 100 145 89 L145 15 C145 5 141 0 131 0 L71 0 C60 0 57 5 57 15 L57 15 Z " />
<glyph glyph-name="ellipsis" unicode="&#x2026;" horiz-adv-x="605" d="M57 15 L57 89 C57 100 61 105 72 105 L130 105 C141 105 145 100 145 89 L145 15 C145 5 141 0 131 0 L71 0 C60 0 57 5 57 15 L57 15 Z M258 15 L258 89 C258 100 263 105 273 105 L332 105 C343 105 346 100 346 89 L346 15 C346 5 343 0 332 0 L273 0 C262 0 258 5 258 15 L258 15 Z M460 15 L460 89 C460 100 464 105 475 105 L534 105 C544 105 548 100 548 89 L548 15 C548 5 544 0 534 0 L475 0 C464 0 460 5 460 15 L460 15 Z " />
<glyph glyph-name="perthousand" unicode="&#x2030;" horiz-adv-x="1154" d="M255 12 C251 5 247 0 236 0 L188 0 C178 0 175 6 180 15 L547 690 C552 698 556 702 567 702 L615 702 C624 702 628 696 623 687 L255 12 L255 12 Z M35 506 C35 643 91 709 180 709 C270 709 326 643 326 506 C326 370 270 305 180 305 C91 305 35 370 35 506 L35 506 Z M258 506 C258 601 231 646 180 646 C130 646 103 601 103 506 C103 411 130 368 180 368 C231 368 258 411 258 506 L258 506 Z M477 196 C477 333 533 398 623 398 C712 398 768 333 768 196 C768 59 712 -6 622 -6 C533 -6 477 59 477 196 L477 196 Z M700 196 C700 291 673 335 623 335 C572 335 546 291 546 196 C546 101 572 57 623 57 C673 57 700 101 700 196 L700 196 Z M827 196 C827 333 883 398 973 398 C1062 398 1118 333 1118 196 C1118 59 1062 -6 973 -6 C883 -6 827 59 827 196 L827 196 Z M1050 196 C1050 291 1024 335 973 335 C922 335 896 291 896 196 C896 101 922 57 973 57 C1024 57 1050 101 1050 196 L1050 196 Z " />
<glyph glyph-name="guilsinglleft" unicode="&#x2039;" horiz-adv-x="221" d="M33 272 C33 274 34 276 35 279 L104 414 C107 421 112 425 122 425 L164 425 C173 425 177 419 172 410 L102 272 L172 134 C177 125 173 119 164 119 L122 119 C112 119 108 122 104 130 L35 265 C34 268 33 270 33 272 L33 272 Z " />
<glyph glyph-name="guilsinglright" unicode="&#x203a;" horiz-adv-x="221" d="M188 272 C188 270 188 268 186 265 L117 130 C113 122 110 119 100 119 L58 119 C49 119 45 125 50 134 L120 272 L50 410 C45 419 49 425 58 425 L100 425 C110 425 114 421 117 414 L186 279 C188 276 188 274 188 272 L188 272 Z " />
<glyph glyph-name="exclamdbl" unicode="&#x203c;" horiz-adv-x="487" d="M77 15 L77 92 C77 102 82 107 92 107 L156 107 C165 107 170 102 170 92 L170 15 C170 5 165 0 156 0 L92 0 C82 0 77 5 77 15 L77 15 Z M141 197 L107 197 C96 197 91 202 91 212 L78 686 C78 697 82 702 93 702 L155 702 C165 702 170 697 170 686 L156 212 C156 202 152 197 141 197 L141 197 Z M317 15 L317 92 C317 102 322 107 332 107 L396 107 C405 107 410 102 410 92 L410 15 C410 5 405 0 396 0 L332 0 C322 0 317 5 317 15 L317 15 Z M381 197 L347 197 C336 197 331 202 331 212 L318 686 C318 697 322 702 333 702 L395 702 C405 702 410 697 410 686 L396 212 C396 202 392 197 381 197 L381 197 Z " />
<glyph glyph-name="fraction" unicode="&#x2044;" horiz-adv-x="68" d="M256 687 L-113 12 C-117 5 -120 0 -131 0 L-179 0 C-189 0 -193 6 -188 15 L180 690 C185 698 189 702 200 702 L247 702 C257 702 261 696 256 687 L256 687 Z " />
<glyph glyph-name="zero.superior" unicode="&#x2070;" horiz-adv-x="361" d="M181 482 C76 482 25 563 25 702 C25 841 76 922 181 922 C285 922 336 841 336 702 C336 563 284 482 181 482 L181 482 Z M181 546 C240 546 266 594 266 702 C266 810 240 858 181 858 C121 858 95 810 95 702 C95 594 121 546 181 546 L181 546 Z " />
<glyph glyph-name="four.superior" unicode="&#x2074;" horiz-adv-x="361" d="M219 823 L95 644 L219 644 L219 823 L219 823 Z M325 581 L286 581 L286 503 C286 492 282 487 270 487 L235 487 C223 487 219 492 219 503 L219 581 L37 581 C25 581 20 587 20 598 L20 626 C20 633 23 638 27 643 L215 905 C220 912 225 917 234 917 L270 917 C282 917 286 912 286 901 L286 644 L325 644 C337 644 342 639 342 628 L342 598 C342 586 337 581 325 581 L325 581 Z " />
<glyph glyph-name="five.superior" unicode="&#x2075;" horiz-adv-x="361" d="M314 627 C314 528 255 482 157 482 C115 482 67 491 51 499 C42 504 36 507 39 518 L47 548 C50 557 57 562 67 559 C86 552 120 544 154 544 C214 544 245 570 245 626 C245 674 226 701 167 701 C120 701 105 689 82 689 C76 688 71 690 66 692 L54 699 C50 701 45 706 46 715 C51 764 57 863 57 899 C57 910 64 917 77 917 L275 917 C286 917 291 912 291 901 L291 870 C291 859 286 854 275 854 L119 854 C118 820 116 780 112 746 C127 751 152 758 181 758 C279 758 314 701 314 627 L314 627 Z " />
<glyph glyph-name="six.superior" unicode="&#x2076;" horiz-adv-x="361" d="M273 851 C254 857 235 861 210 861 C144 861 106 820 103 733 C120 758 153 780 203 780 C295 780 335 715 335 635 C335 542 282 482 193 482 C85 482 34 561 34 697 C34 835 92 922 203 922 C237 922 269 916 286 908 C295 903 299 900 297 890 L290 861 C287 851 281 849 273 851 L273 851 Z M192 544 C240 544 270 577 270 634 C270 690 244 720 192 720 C138 720 112 680 112 633 C112 583 136 544 192 544 L192 544 Z " />
<glyph glyph-name="seven.superior" unicode="&#x2077;" horiz-adv-x="361" d="M315 876 C315 869 311 862 307 855 C240 752 171 604 171 504 C171 493 165 487 154 487 L117 487 C105 487 101 493 101 504 C102 610 168 748 239 854 L58 854 C46 854 41 859 41 870 L41 901 C41 912 46 917 58 917 L299 917 C310 917 315 912 315 901 L315 876 L315 876 Z " />
<glyph glyph-name="eight.superior" unicode="&#x2078;" horiz-adv-x="361" d="M181 482 C83 482 32 530 32 599 C32 661 68 693 114 709 C71 727 42 757 42 811 C42 878 92 922 181 922 C269 922 319 878 319 811 C319 757 289 727 246 709 C292 693 329 661 329 599 C329 530 276 482 181 482 L181 482 Z M181 683 C137 670 100 647 100 603 C100 566 130 540 181 540 C231 540 261 566 261 603 C261 647 224 670 181 683 L181 683 Z M181 734 C225 748 251 771 251 810 C251 844 227 864 181 864 C134 864 110 844 110 810 C110 771 136 748 181 734 L181 734 Z " />
<glyph glyph-name="nine.superior" unicode="&#x2079;" horiz-adv-x="361" d="M87 553 C105 546 127 542 150 542 C217 542 255 584 257 671 C241 646 208 624 157 624 C66 624 26 689 26 769 C26 862 77 922 166 922 C275 922 326 843 326 707 C326 561 269 482 158 482 C124 482 91 488 75 496 C66 501 61 504 64 514 L72 543 C75 554 79 556 87 553 L87 553 Z M169 860 C121 860 91 827 91 770 C91 714 117 684 168 684 C223 684 248 724 248 771 C248 821 224 860 169 860 L169 860 Z " />
<glyph glyph-name="parenleft.superior" unicode="&#x207d;" horiz-adv-x="201" d="M46 702 C46 790 80 870 123 919 C126 923 129 926 135 926 L171 926 C179 926 181 919 177 914 C134 857 112 782 112 702 C112 622 134 547 177 490 C181 485 179 478 171 478 L135 478 C129 478 126 481 123 485 C80 534 46 614 46 702 L46 702 Z " />
<glyph glyph-name="parenright.superior" unicode="&#x207e;" horiz-adv-x="201" d="M156 702 C156 614 122 532 79 485 C75 481 72 478 66 478 L31 478 C23 478 21 485 24 490 C64 550 90 622 90 702 C90 782 67 857 24 914 C19 920 23 926 31 926 L66 926 C72 926 74 925 79 919 C119 869 156 790 156 702 L156 702 Z " />
<glyph glyph-name="n.superior" unicode="&#x207f;" horiz-adv-x="407" d="M63 918 L98 918 C111 918 115 911 115 901 L115 857 C130 890 167 923 235 923 C322 923 360 863 360 779 L360 503 C360 493 356 487 344 487 L308 487 C296 487 291 493 291 503 L291 770 C291 824 268 857 215 857 C152 857 115 809 115 747 L115 503 C115 493 111 487 99 487 L63 487 C51 487 47 493 47 503 L47 901 C47 911 51 918 63 918 L63 918 Z " />
<glyph glyph-name="zero.inferior" unicode="&#x2080;" horiz-adv-x="361" d="M181 -220 C76 -220 25 -139 25 0 C25 139 76 220 181 220 C285 220 336 139 336 0 C336 -139 284 -220 181 -220 L181 -220 Z M181 -156 C240 -156 266 -108 266 0 C266 108 240 156 181 156 C121 156 95 108 95 0 C95 -108 121 -156 181 -156 L181 -156 Z " />
<glyph glyph-name="one.inferior" unicode="&#x2081;" horiz-adv-x="361" d="M174 125 L105 71 C96 64 87 65 81 74 L62 99 C55 108 58 115 66 121 L172 209 C176 212 183 215 192 215 L225 215 C236 215 241 210 241 199 L241 -199 C241 -210 236 -215 225 -215 L190 -215 C177 -215 174 -210 174 -199 L174 125 L174 125 Z " />
<glyph glyph-name="two.inferior" unicode="&#x2082;" horiz-adv-x="361" d="M107 100 C107 91 109 83 109 73 C108 63 104 58 92 58 L59 58 C49 58 45 64 43 72 C42 79 41 93 41 101 C41 170 81 220 175 220 C276 220 311 163 311 96 C311 -9 211 -98 142 -152 L302 -152 C314 -152 318 -157 318 -168 L318 -199 C318 -210 314 -215 302 -215 L58 -215 C46 -215 42 -210 42 -199 L42 -171 C42 -162 45 -159 53 -153 C127 -93 242 0 242 94 C242 130 227 159 174 159 C122 159 107 133 107 100 L107 100 Z " />
<glyph glyph-name="three.inferior" unicode="&#x2083;" horiz-adv-x="361" d="M123 -25 C112 -25 106 -20 106 -9 L106 19 C106 31 112 36 123 36 L163 36 C204 36 233 55 233 100 C233 143 200 158 148 158 C116 158 86 149 67 143 C54 139 50 142 48 152 L40 184 C38 192 41 196 50 200 C69 210 109 220 155 220 C248 220 301 186 301 106 C301 57 276 26 246 12 C279 -1 308 -29 308 -89 C308 -179 252 -220 155 -220 C107 -220 62 -208 45 -200 C36 -195 31 -190 33 -180 L41 -149 C44 -139 52 -137 62 -141 C81 -149 113 -158 149 -158 C209 -158 239 -136 239 -88 C239 -41 209 -25 162 -25 L123 -25 L123 -25 Z " />
<glyph glyph-name="four.inferior" unicode="&#x2084;" horiz-adv-x="361" d="M219 121 L95 -58 L219 -58 L219 121 L219 121 Z M325 -121 L286 -121 L286 -199 C286 -210 282 -215 270 -215 L235 -215 C223 -215 219 -210 219 -199 L219 -121 L37 -121 C25 -121 20 -115 20 -104 L20 -76 C20 -69 23 -64 27 -59 L215 203 C220 210 225 215 234 215 L270 215 C282 215 286 210 286 199 L286 -58 L325 -58 C337 -58 342 -63 342 -74 L342 -104 C342 -116 337 -121 325 -121 L325 -121 Z " />
<glyph glyph-name="five.inferior" unicode="&#x2085;" horiz-adv-x="361" d="M314 -75 C314 -174 255 -220 157 -220 C115 -220 67 -211 51 -203 C42 -198 36 -195 39 -184 L47 -154 C50 -145 57 -140 67 -143 C86 -150 120 -158 154 -158 C214 -158 245 -132 245 -76 C245 -28 226 -1 167 -1 C120 -1 105 -13 82 -13 C76 -14 71 -12 66 -10 L54 -3 C50 -1 45 4 46 13 C51 62 57 161 57 197 C57 208 64 215 77 215 L275 215 C286 215 291 210 291 199 L291 168 C291 157 286 152 275 152 L119 152 C118 118 116 78 112 44 C127 49 152 56 181 56 C279 56 314 -1 314 -75 L314 -75 Z " />
<glyph glyph-name="six.inferior" unicode="&#x2086;" horiz-adv-x="361" d="M273 149 C254 155 235 159 210 159 C144 159 106 118 103 31 C120 56 153 78 203 78 C295 78 335 13 335 -67 C335 -160 282 -220 193 -220 C85 -220 34 -141 34 -5 C34 133 92 220 203 220 C237 220 269 214 286 206 C295 201 299 198 297 188 L290 159 C287 149 281 147 273 149 L273 149 Z M192 -158 C240 -158 270 -125 270 -68 C270 -12 244 18 192 18 C138 18 112 -22 112 -69 C112 -119 136 -158 192 -158 L192 -158 Z " />
<glyph glyph-name="seven.inferior" unicode="&#x2087;" horiz-adv-x="361" d="M315 174 C315 167 311 160 307 153 C240 50 171 -98 171 -198 C171 -209 165 -215 154 -215 L117 -215 C105 -215 101 -209 101 -198 C102 -92 168 46 239 152 L58 152 C46 152 41 157 41 168 L41 199 C41 210 46 215 58 215 L299 215 C310 215 315 210 315 199 L315 174 L315 174 Z " />
<glyph glyph-name="eight.inferior" unicode="&#x2088;" horiz-adv-x="361" d="M181 -220 C83 -220 32 -172 32 -103 C32 -41 68 -9 114 7 C71 25 42 55 42 109 C42 176 92 220 181 220 C269 220 319 176 319 109 C319 55 289 25 246 7 C292 -9 329 -41 329 -103 C329 -172 276 -220 181 -220 L181 -220 Z M181 -19 C137 -32 100 -55 100 -99 C100 -136 130 -162 181 -162 C231 -162 261 -136 261 -99 C261 -55 224 -32 181 -19 L181 -19 Z M181 32 C225 46 251 69 251 108 C251 142 227 162 181 162 C134 162 110 142 110 108 C110 69 136 46 181 32 L181 32 Z " />
<glyph glyph-name="nine.inferior" unicode="&#x2089;" horiz-adv-x="361" d="M87 -149 C105 -156 127 -160 150 -160 C217 -160 255 -118 257 -31 C241 -56 208 -78 157 -78 C66 -78 26 -13 26 67 C26 160 77 220 166 220 C275 220 326 141 326 5 C326 -141 269 -220 158 -220 C124 -220 91 -214 75 -206 C66 -201 61 -198 64 -188 L72 -159 C75 -148 79 -146 87 -149 L87 -149 Z M169 158 C121 158 91 125 91 68 C91 12 117 -18 168 -18 C223 -18 248 22 248 69 C248 119 224 158 169 158 L169 158 Z " />
<glyph glyph-name="parenleft.inferior" unicode="&#x208d;" horiz-adv-x="201" d="M46 0 C46 88 80 168 123 217 C126 221 129 224 135 224 L171 224 C179 224 181 217 177 212 C134 155 112 80 112 0 C112 -80 134 -155 177 -212 C181 -217 179 -224 171 -224 L135 -224 C129 -224 126 -221 123 -217 C80 -168 46 -88 46 0 L46 0 Z " />
<glyph glyph-name="parenright.inferior" unicode="&#x208e;" horiz-adv-x="201" d="M156 0 C156 -88 122 -170 79 -217 C75 -221 72 -224 66 -224 L31 -224 C23 -224 21 -217 24 -212 C64 -152 90 -80 90 0 C90 80 67 155 24 212 C19 218 23 224 31 224 L66 224 C72 224 74 223 79 217 C119 167 156 88 156 0 L156 0 Z " />
<glyph glyph-name="Euro" unicode="&#x20ac;" horiz-adv-x="551" d="M40 308 L100 308 C99 322 98 337 98 351 C98 366 99 383 100 395 L40 395 C29 395 25 399 25 409 L25 442 C25 451 29 455 40 455 L106 455 C128 590 209 712 380 712 C437 712 486 697 512 685 C519 682 525 677 521 667 L505 626 C502 617 497 611 485 616 C462 625 428 637 387 637 C261 637 205 549 188 455 L418 455 C429 455 431 450 429 440 L421 409 C418 399 412 395 402 395 L183 395 C182 381 181 367 181 351 C181 339 182 321 183 308 L370 308 C381 308 384 303 381 293 L373 262 C370 251 364 247 354 247 L189 247 C205 154 260 66 388 66 C431 66 463 77 487 87 C498 92 504 85 507 76 L523 35 C527 24 520 21 514 18 C488 5 440 -9 381 -9 C208 -9 127 114 104 247 L40 247 C29 247 25 251 25 262 L25 294 C25 304 29 308 40 308 L40 308 Z " />
<glyph glyph-name="afii61289" unicode="&#x2113;" horiz-adv-x="477" d="M291 62 C314 62 331 65 345 68 C354 70 359 67 360 59 L366 20 C367 10 363 7 354 4 C340 -1 309 -6 280 -6 C184 -6 132 42 132 153 L132 213 C101 201 72 193 49 188 C43 187 39 189 36 195 L25 234 C23 240 26 244 32 245 C63 253 97 263 132 278 L132 472 C132 626 164 713 282 713 C374 713 418 647 418 554 C418 404 312 305 206 247 L206 163 C206 87 229 62 291 62 L291 62 Z M206 485 L206 317 C287 368 354 445 354 555 C354 621 332 653 287 653 C221 653 206 600 206 485 L206 485 Z " />
<glyph glyph-name="trademark" unicode="&#x2122;" horiz-adv-x="602" d="M221 653 L159 653 L159 388 C159 381 155 378 148 378 L114 378 C107 378 103 381 103 388 L103 653 L41 653 C34 653 31 657 31 663 L31 692 C31 699 34 702 41 702 L221 702 C228 702 231 699 231 692 L231 663 C231 657 228 653 221 653 L221 653 Z M419 464 C413 464 410 468 408 471 L330 613 L330 388 C330 381 326 378 320 378 L286 378 C279 378 275 381 275 388 L275 692 C275 699 279 702 286 702 L324 702 C331 702 333 701 336 695 L419 540 L502 695 C504 701 507 702 514 702 L552 702 C558 702 562 699 562 692 L562 388 C562 381 558 378 551 378 L518 378 C511 378 508 381 508 388 L508 613 L430 471 C427 467 424 464 419 464 L419 464 Z " />
<glyph glyph-name="Omega" unicode="&#x2126;" horiz-adv-x="673" d="M337 713 C523 713 624 588 624 415 C624 264 544 170 465 123 L465 70 L574 76 C585 77 590 71 590 61 L590 15 C590 6 585 0 575 0 L387 0 L387 136 C387 146 393 152 400 157 C482 210 541 287 541 413 C541 545 470 639 337 639 C203 639 133 545 133 413 C133 287 189 206 273 157 C281 152 286 146 286 136 L286 0 L99 0 C89 0 84 6 84 15 L84 61 C84 71 89 77 100 76 L209 70 L209 123 C129 170 49 264 49 415 C49 588 150 713 337 713 L337 713 Z " />
<glyph glyph-name="estimated" unicode="&#x212e;" horiz-adv-x="856" d="M820 335 L192 335 C189 335 187 334 187 331 L187 146 C187 131 190 123 195 117 C254 49 340 21 435 21 C538 21 624 57 687 130 L745 130 C673 46 562 -9 434 -9 C213 -9 40 152 40 349 C40 548 209 708 430 708 C651 708 820 548 820 349 L820 335 L820 335 Z M673 365 L673 551 C673 571 670 578 662 587 C601 647 525 678 431 678 C336 678 259 646 196 581 C191 576 187 567 187 552 L187 365 C187 362 189 359 192 359 L668 359 C672 359 673 362 673 365 L673 365 Z " />
<glyph glyph-name="onethird" unicode="&#x2153;" horiz-adv-x="844" d="M610 687 L241 12 C237 5 234 0 223 0 L175 0 C165 0 161 6 166 15 L534 690 C539 698 543 702 554 702 L601 702 C611 702 615 696 610 687 L610 687 Z M607 190 C596 190 590 195 590 206 L590 234 C590 246 596 251 607 251 L647 251 C688 251 717 270 717 315 C717 358 684 373 632 373 C600 373 570 364 551 358 C538 354 534 357 532 367 L524 399 C522 407 525 411 534 415 C553 425 593 435 639 435 C732 435 785 401 785 321 C785 272 760 241 730 227 C763 214 792 186 792 126 C792 36 736 -5 639 -5 C591 -5 546 7 529 15 C520 20 515 25 517 35 L525 66 C528 76 536 78 546 74 C565 66 597 57 633 57 C693 57 723 79 723 127 C723 174 693 190 646 190 L607 190 L607 190 Z M174 612 L105 558 C96 551 87 552 81 561 L62 586 C55 595 58 602 66 608 L172 696 C176 699 183 702 192 702 L225 702 C236 702 241 697 241 686 L241 288 C241 277 236 272 225 272 L190 272 C177 272 174 277 174 288 L174 612 L174 612 Z " />
</font>
</svg>
