<?xml version="1.0" encoding="UTF-8"?>
<svg xmlns="http://www.w3.org/2000/svg" xmlns:xlink="http://www.w3.org/1999/xlink" version="1.2" >
<font id="Energi Pro Ultra Italic">
<font-face  font-family="Energi Pro" units-per-em="1000" ascent="750" descent="-250" font-style="italic" font-weight="900" font-stretch="normal" cap-height="708" x-height="540" underline-position="-73" underline-thickness="55" />
<missing-glyph  horiz-adv-x="492" d="M0 690 L0 0 L492 0 L492 690 L0 690 Z M443 94 L275 345 L443 597 L443 94 Z M49 597 L217 345 L49 94 L49 597 Z M246 389 L79 641 L414 641 L246 389 Z M246 301 L413 49 L79 49 L246 301 Z " />
<glyph glyph-name="CR" unicode="&#xd;" horiz-adv-x="500" d="" />
<glyph glyph-name="space" unicode="&#x20;" horiz-adv-x="280" d="" />
<glyph glyph-name="exclam" unicode="&#x21;" horiz-adv-x="338" d="M240 238 C264 238 270 244 280 262 L506 666 C518 687 512 708 487 708 L315 708 C290 708 275 699 266 675 L117 273 C109 252 116 238 140 238 L240 238 Z M-13 37 C-23 17 -15 0 6 0 L150 0 C172 0 179 6 189 27 L248 153 C258 173 250 190 229 190 L85 190 C63 190 56 184 46 162 L-13 37 Z " />
<glyph glyph-name="quotedbl" unicode="&#x22;" horiz-adv-x="438" d="M385 621 C403 648 420 679 420 702 C420 723 406 738 360 738 C274 738 263 689 243 621 L192 427 L254 427 L385 621 Z M585 621 C603 648 620 679 620 702 C620 723 606 738 560 738 C474 738 463 689 443 621 L392 427 L454 427 L585 621 Z " />
<glyph glyph-name="numbersign" unicode="&#x23;" horiz-adv-x="650" d="M449 173 L525 173 C548 173 564 184 575 207 L595 251 C606 274 600 285 577 285 L530 285 L630 423 L706 423 C729 423 745 434 756 457 L777 501 C788 524 782 535 759 535 L713 535 L806 664 C819 682 816 694 800 699 L751 713 C732 718 722 716 709 699 L590 535 L465 535 L558 664 C571 682 568 694 552 699 L503 713 C484 718 474 716 461 699 L342 535 L266 535 C243 535 227 524 216 501 L195 457 C184 434 190 423 213 423 L259 423 L159 285 L84 285 C61 285 45 274 34 251 L14 207 C3 184 9 173 32 173 L78 173 L-16 44 C-29 26 -26 14 -10 9 L39 -5 C58 -10 68 -8 81 9 L201 173 L326 173 L232 44 C219 26 222 14 238 9 L287 -5 C306 -10 316 -8 329 9 L449 173 Z M382 423 L507 423 L407 285 L282 285 L382 423 Z " />
<glyph glyph-name="dollar" unicode="&#x24;" horiz-adv-x="628" d="M141 -63 C131 -83 139 -100 160 -100 L222 -100 C244 -100 251 -94 261 -73 L293 -5 C463 14 613 107 613 283 C613 361 550 396 478 428 C431 447 406 463 406 487 C406 534 455 539 505 539 C548 539 599 531 632 518 C654 510 665 510 685 533 L759 620 C774 637 776 653 761 664 C739 680 690 700 622 710 L651 771 C661 791 653 808 632 808 L570 808 C548 808 541 802 531 780 L501 716 C320 705 166 612 166 437 C166 350 229 308 298 282 C348 263 374 254 374 225 C374 179 308 169 247 169 C185 169 148 183 120 197 C100 207 82 204 63 183 L-14 93 C-29 77 -29 58 -14 48 C19 26 84 1 167 -6 L141 -63 Z " />
<glyph glyph-name="percent" unicode="&#x25;" horiz-adv-x="1000" d="M977 676 C991 690 987 708 966 708 L897 708 C874 708 863 703 848 688 L162 32 C148 18 152 0 173 0 L242 0 C265 0 276 5 291 20 L977 676 Z M175 509 C159 475 153 440 153 405 C153 334 204 290 287 290 C408 290 491 359 553 497 C568 531 575 567 575 602 C575 672 524 716 441 716 C323 716 240 646 175 509 L175 509 Z M406 503 C372 435 352 405 321 405 C305 405 295 412 295 430 C295 457 310 482 320 503 C352 572 375 601 406 601 C424 601 432 592 432 576 C432 549 416 524 406 503 L406 503 Z M590 211 C574 177 568 142 568 107 C568 36 619 -8 702 -8 C823 -8 906 61 968 199 C983 233 990 269 990 304 C990 374 939 418 856 418 C738 418 655 348 590 211 L590 211 Z M821 205 C787 137 767 107 736 107 C720 107 710 114 710 132 C710 159 725 184 735 205 C767 274 790 303 821 303 C839 303 847 294 847 278 C847 251 831 226 821 205 L821 205 Z " />
<glyph glyph-name="ampersand" unicode="&#x26;" horiz-adv-x="750" d="M769 375 C777 402 768 414 745 414 L644 414 C621 414 613 402 607 380 C593 334 582 308 548 267 L473 454 C466 472 458 486 458 508 C458 559 518 564 554 564 C587 564 612 558 636 551 C663 543 674 547 688 568 L738 643 C752 664 751 678 733 689 C710 703 647 720 562 720 C406 720 278 650 278 484 C278 464 279 446 285 430 L290 417 C133 379 31 283 31 142 C31 42 121 -10 242 -10 C316 -10 376 8 434 39 L442 22 C450 5 455 0 485 0 L617 0 C635 0 645 20 639 35 L599 134 C678 203 744 289 769 375 L769 375 Z M331 160 C281 160 255 178 255 205 C255 250 292 283 336 299 L384 170 C370 163 356 160 331 160 L331 160 Z " />
<glyph glyph-name="quotesingle" unicode="&#x27;" horiz-adv-x="238" d="M385 621 C403 648 420 679 420 702 C420 723 406 738 360 738 C274 738 263 689 243 621 L192 427 L254 427 L385 621 Z " />
<glyph glyph-name="parenleft" unicode="&#x28;" horiz-adv-x="392" d="M39 49 C39 -10 51 -59 69 -100 C72 -108 79 -118 99 -118 L207 -118 C226 -118 235 -104 231 -86 C225 -62 222 -27 222 1 C222 251 396 516 590 686 C606 700 600 718 579 718 L489 718 C469 718 463 715 451 707 C231 552 39 299 39 49 L39 49 Z " />
<glyph glyph-name="parenright" unicode="&#x29;" horiz-adv-x="392" d="M443 551 C443 610 431 659 413 700 C410 708 403 718 383 718 L275 718 C256 718 247 704 251 686 C257 662 260 627 260 599 C260 349 86 84 -108 -86 C-124 -100 -118 -118 -97 -118 L-7 -118 C13 -118 19 -115 31 -107 C251 48 443 301 443 551 L443 551 Z " />
<glyph glyph-name="asterisk" unicode="&#x2a;" horiz-adv-x="466" d="M283 308 C327 308 349 324 365 359 C381 393 374 431 385 461 C400 442 403 403 424 386 C432 379 442 376 451 376 C467 376 485 386 510 410 C528 427 537 440 540 451 C544 464 539 475 527 485 C507 502 461 502 440 514 C472 526 518 525 554 542 C581 555 598 568 604 589 C607 597 608 607 606 618 C603 641 595 651 579 651 C570 651 559 648 543 641 C507 624 466 585 433 567 C451 597 491 635 507 669 C513 680 516 690 516 697 C516 712 503 720 473 720 C429 720 410 704 393 669 C377 635 383 597 371 567 C357 586 354 625 333 642 C325 649 316 652 307 652 C291 652 272 642 246 618 C228 601 218 588 215 577 C211 563 217 553 229 543 C249 526 295 526 317 514 C284 502 238 503 203 486 C175 473 158 459 152 438 C149 430 149 421 149 410 C152 387 161 377 177 377 C187 377 199 380 214 387 C251 404 291 443 323 461 C306 431 266 393 250 359 C245 347 242 338 242 330 C242 315 254 308 283 308 L283 308 Z " />
<glyph glyph-name="plus" unicode="&#x2b;" horiz-adv-x="612" d="M183 138 C173 118 181 101 202 101 L325 101 C347 101 354 107 364 128 L429 268 L566 268 C588 268 595 274 605 295 L650 393 C660 413 652 430 631 430 L504 430 L565 560 C575 580 567 597 546 597 L423 597 C401 597 394 591 384 569 L319 430 L181 430 C159 430 152 424 142 402 L97 305 C87 285 95 268 116 268 L243 268 L183 138 Z " />
<glyph glyph-name="comma" unicode="&#x2c;" horiz-adv-x="278" d="M-39 37 C-49 17 -41 0 -20 0 L18 0 L-88 -116 C-99 -128 -94 -143 -79 -143 L-38 -143 C-22 -143 -19 -140 -9 -131 L137 6 C151 19 155 25 163 43 L214 153 C223 173 216 190 195 190 L59 190 C37 190 30 184 20 162 L-39 37 Z " />
<glyph glyph-name="hyphen" unicode="&#x2d;" horiz-adv-x="408" d="M57 245 C47 225 55 208 76 208 L345 208 C367 208 374 214 384 235 L430 333 C440 353 432 370 411 370 L142 370 C120 370 113 364 103 342 L57 245 Z " />
<glyph glyph-name="period" unicode="&#x2e;" horiz-adv-x="278" d="M-39 37 C-49 17 -41 0 -20 0 L116 0 C138 0 145 6 155 27 L214 153 C224 173 216 190 195 190 L59 190 C37 190 30 184 20 162 L-39 37 Z " />
<glyph glyph-name="slash" unicode="&#x2f;" horiz-adv-x="480" d="M-67 37 C-81 22 -76 0 -52 0 L71 0 C96 0 102 5 117 22 L687 671 C701 686 696 708 672 708 L549 708 C524 708 518 703 503 686 L-67 37 Z " />
<glyph glyph-name="zero" unicode="0" horiz-adv-x="686" d="M561 720 C362 720 227 612 111 361 C80 296 67 229 67 160 C67 48 139 -12 264 -12 C463 -12 599 96 716 346 C745 413 758 479 758 547 C758 660 687 720 561 720 L561 720 Z M333 170 C301 170 284 186 284 219 C284 269 308 314 327 355 C388 485 434 538 492 538 C524 538 543 522 543 488 C543 439 518 394 499 353 C438 223 391 170 333 170 L333 170 Z " />
<glyph glyph-name="one" unicode="1" horiz-adv-x="516" d="M647 670 C657 692 648 708 624 708 L484 708 C455 708 444 702 427 694 L194 587 C177 579 170 564 175 547 L200 461 C205 445 217 439 238 448 L352 495 L139 38 C129 16 138 0 162 0 L308 0 C331 0 338 7 349 30 L647 670 Z " />
<glyph glyph-name="two" unicode="2" horiz-adv-x="638" d="M339 170 C498 234 737 383 737 567 C737 655 666 720 517 720 C341 720 208 633 164 463 C155 428 162 418 182 418 L314 418 C337 418 351 428 358 454 C371 504 399 550 460 550 C494 550 513 535 513 511 C513 376 202 228 50 163 C27 153 12 144 2 122 L-37 38 C-47 16 -38 0 -14 0 L474 0 C497 0 504 7 515 30 L562 132 C572 154 563 170 539 170 L339 170 Z " />
<glyph glyph-name="three" unicode="3" horiz-adv-x="608" d="M311 283 C355 283 376 272 376 247 C376 175 297 159 243 159 C177 159 126 175 95 192 C76 203 61 199 48 184 L-31 91 C-43 76 -45 59 -29 48 C14 18 117 -11 217 -11 C379 -11 585 61 585 276 C585 320 561 352 530 365 C627 396 717 470 717 577 C717 682 620 719 500 719 C404 719 337 707 267 681 C239 671 226 656 224 633 L219 542 C217 520 233 513 258 522 C304 538 367 552 422 552 C463 552 487 541 487 513 C487 455 430 439 384 439 L290 439 C267 439 260 432 249 409 L208 321 C198 299 207 283 231 283 L311 283 Z " />
<glyph glyph-name="four" unicode="4" horiz-adv-x="686" d="M503 504 L408 300 L240 300 L503 504 Z M330 132 L286 38 C276 16 285 0 309 0 L453 0 C476 0 483 7 494 30 L542 132 L609 132 C632 132 639 139 650 162 L697 262 C707 284 698 300 674 300 L620 300 L792 670 C802 692 793 708 769 708 L626 708 C602 708 593 702 579 690 L93 313 C80 303 71 298 62 279 L10 170 C0 148 9 132 33 132 L330 132 Z " />
<glyph glyph-name="five" unicode="5" horiz-adv-x="626" d="M227 -11 C410 -11 620 95 620 311 C620 399 562 453 441 453 C409 453 370 449 351 446 C365 468 391 515 403 538 L678 538 C701 538 708 545 719 568 L766 670 C776 692 767 708 743 708 L346 708 C321 708 305 697 291 667 C272 624 162 423 122 348 C113 331 116 319 132 314 L198 292 C203 290 211 288 217 288 C246 288 268 309 331 309 C378 309 402 293 402 264 C402 187 317 159 256 159 C190 159 136 175 105 192 C86 203 71 199 58 184 L-21 91 C-33 76 -35 59 -19 48 C24 18 127 -11 227 -11 L227 -11 Z " />
<glyph glyph-name="six" unicode="6" horiz-adv-x="662" d="M647 542 C672 537 683 539 697 560 L755 645 C768 664 767 679 749 689 C721 704 655 720 584 720 C337 720 221 594 100 333 C73 276 56 218 56 160 C56 62 126 -12 272 -12 C472 -12 665 139 665 334 C665 418 616 477 500 477 C442 477 396 465 358 446 C394 512 444 554 553 554 C582 554 623 547 647 542 L647 542 Z M330 158 C276 158 256 181 256 211 C256 287 332 335 399 335 C446 335 470 314 470 282 C470 212 392 158 330 158 L330 158 Z " />
<glyph glyph-name="seven" unicode="7" horiz-adv-x="600" d="M785 670 C795 692 786 708 762 708 L292 708 C269 708 262 701 251 678 L204 576 C194 554 203 538 227 538 L493 538 C338 423 132 203 33 34 C23 17 30 0 50 0 L201 0 C229 0 235 6 247 27 C352 211 550 416 695 535 C709 547 734 561 749 591 L785 670 Z " />
<glyph glyph-name="eight" unicode="8" horiz-adv-x="668" d="M253 -12 C416 -12 640 48 640 255 C640 305 614 338 574 354 C675 388 777 472 777 582 C777 669 696 720 554 720 C405 720 193 660 193 472 C193 430 208 394 246 378 C133 344 18 255 18 134 C18 49 90 -12 253 -12 L253 -12 Z M504 574 C539 574 555 558 555 536 C555 474 486 439 437 424 C408 435 398 456 398 479 C398 538 452 574 504 574 L504 574 Z M381 306 C416 293 431 268 431 241 C431 175 365 142 309 142 C266 142 244 161 244 188 C244 254 333 290 381 306 L381 306 Z " />
<glyph glyph-name="nine" unicode="9" horiz-adv-x="662" d="M155 166 C130 171 119 169 105 148 L47 63 C34 44 35 29 53 19 C81 4 147 -12 218 -12 C465 -12 581 114 702 375 C729 432 746 490 746 548 C746 646 676 720 530 720 C330 720 137 569 137 374 C137 290 186 231 302 231 C360 231 406 243 444 262 C408 196 358 154 249 154 C220 154 179 161 155 166 L155 166 Z M472 550 C526 550 546 527 546 497 C546 421 470 373 403 373 C356 373 332 394 332 426 C332 496 410 550 472 550 L472 550 Z " />
<glyph glyph-name="colon" unicode="&#x3a;" horiz-adv-x="326" d="M-15 37 C-25 17 -17 0 4 0 L140 0 C162 0 169 6 179 27 L238 153 C248 173 240 190 219 190 L83 190 C61 190 54 184 44 162 L-15 37 Z M149 387 C139 367 147 350 168 350 L304 350 C326 350 333 356 343 377 L402 503 C412 523 404 540 383 540 L247 540 C225 540 218 534 208 512 L149 387 Z " />
<glyph glyph-name="semicolon" unicode="&#x3b;" horiz-adv-x="326" d="M149 387 C139 367 147 350 168 350 L304 350 C326 350 333 356 343 377 L402 503 C412 523 404 540 383 540 L247 540 C225 540 218 534 208 512 L149 387 Z M-15 37 C-25 17 -17 0 4 0 L42 0 L-64 -116 C-75 -128 -70 -143 -55 -143 L-14 -143 C2 -143 5 -140 15 -131 L161 6 C175 19 179 25 187 43 L238 153 C247 173 240 190 219 190 L83 190 C61 190 54 184 44 162 L-15 37 Z " />
<glyph glyph-name="less" unicode="&#x3c;" horiz-adv-x="612" d="M335 34 C347 19 358 17 376 31 L500 128 C518 142 519 156 507 171 L369 345 L685 529 C705 541 707 552 701 570 L673 649 C667 667 654 673 633 661 L143 374 C117 359 108 329 124 309 L335 34 Z " />
<glyph glyph-name="equal" unicode="&#x3d;" horiz-adv-x="612" d="M173 433 C163 413 171 396 192 396 L609 396 C631 396 638 402 648 423 L689 511 C699 531 691 548 670 548 L253 548 C231 548 224 542 214 520 L173 433 Z M58 187 C48 167 56 150 77 150 L494 150 C516 150 523 156 533 177 L574 265 C584 285 576 302 555 302 L138 302 C116 302 109 296 99 274 L58 187 Z " />
<glyph glyph-name="greater" unicode="&#x3e;" horiz-adv-x="612" d="M410 657 C398 672 387 674 369 660 L245 563 C227 549 226 535 238 520 L376 346 L60 162 C40 150 38 139 44 121 L72 42 C78 24 91 18 112 30 L602 317 C628 332 637 362 621 382 L410 657 Z " />
<glyph glyph-name="question" unicode="&#x3f;" horiz-adv-x="568" d="M407 277 C436 346 694 396 694 588 C694 671 623 719 493 719 C411 719 335 703 265 676 C242 667 235 658 234 637 L228 542 C227 519 241 514 267 522 C314 536 360 548 410 548 C451 548 466 538 466 513 C466 422 285 395 218 278 L214 271 C205 255 206 238 231 238 L360 238 C387 239 394 245 402 265 L407 277 Z M91 37 C81 17 89 0 110 0 L254 0 C276 0 283 6 293 27 L352 153 C362 173 354 190 333 190 L189 190 C167 190 160 184 150 162 L91 37 Z " />
<glyph glyph-name="at" unicode="&#x40;" horiz-adv-x="940" d="M537 230 C506 180 470 156 435 156 C415 156 405 166 405 184 C405 256 483 346 563 346 C579 346 597 343 606 340 L537 230 Z M574 -19 C521 -29 433 -41 367 -41 C206 -41 118 -3 118 93 C118 366 436 537 651 537 C802 537 874 488 874 405 C874 288 751 111 630 111 L616 111 L791 388 C802 405 798 417 787 425 C756 447 683 467 607 467 C421 467 228 330 228 140 C228 75 273 31 343 31 C400 31 455 54 493 88 L494 55 C495 36 506 30 527 30 L597 30 C790 30 964 230 964 416 C964 538 859 619 669 619 C369 619 25 392 25 76 C25 -61 151 -121 348 -121 C434 -121 499 -111 555 -97 C570 -93 579 -87 582 -73 L590 -36 C594 -23 589 -16 574 -19 L574 -19 Z " />
<glyph glyph-name="A" unicode="A" horiz-adv-x="706" d="M337 288 L495 494 L498 494 L458 288 L337 288 Z M496 708 C470 708 464 705 448 685 L-61 43 C-78 22 -68 0 -44 0 L110 0 C135 0 142 5 158 27 L220 110 L411 110 L397 35 C393 13 400 0 425 0 L573 0 C599 0 613 13 617 39 L707 674 C710 694 705 708 679 708 L496 708 Z " />
<glyph glyph-name="B" unicode="B" horiz-adv-x="676" d="M373 433 L427 548 L498 548 C540 548 559 539 559 516 C559 456 500 433 451 433 L373 433 Z M246 160 L305 287 L379 287 C424 287 446 274 446 247 C446 185 383 160 332 160 L246 160 Z M314 708 C291 708 284 701 273 678 L-25 38 C-35 16 -26 0 -2 0 L287 0 C470 0 662 82 662 282 C662 325 642 351 615 365 C706 397 787 477 787 582 C787 668 700 708 558 708 L314 708 Z " />
<glyph glyph-name="C" unicode="C" horiz-adv-x="635" d="M398 176 C327 176 293 196 293 245 C293 285 310 321 325 354 C382 478 451 532 559 532 C599 532 629 523 647 514 C668 503 683 506 700 525 L784 616 C801 634 800 649 785 663 C756 691 669 720 579 720 C376 720 219 616 107 359 C82 301 62 240 62 179 C62 52 157 -12 304 -12 C390 -12 454 3 509 31 C536 45 549 56 549 79 L549 180 C549 201 529 205 511 197 C479 183 444 176 398 176 L398 176 Z " />
<glyph glyph-name="D" unicode="D" horiz-adv-x="692" d="M244 0 C481 0 628 100 729 349 C755 413 770 475 770 539 C770 650 679 708 519 708 L314 708 C291 708 284 701 273 678 L-25 38 C-35 16 -26 0 -2 0 L244 0 Z M448 520 C508 520 537 503 537 459 C537 420 522 387 508 354 C447 223 388 188 294 188 L263 188 L417 520 L448 520 Z " />
<glyph glyph-name="E" unicode="E" horiz-adv-x="582" d="M379 445 L418 528 L666 528 C689 528 696 535 707 558 L759 670 C769 692 760 708 736 708 L314 708 C291 708 284 701 273 678 L-25 38 C-35 16 -26 0 -2 0 L426 0 C449 0 456 7 467 30 L519 142 C529 164 520 180 496 180 L255 180 L299 273 L532 273 C555 273 562 280 573 303 L621 407 C631 429 622 445 598 445 L379 445 Z " />
<glyph glyph-name="F" unicode="F" horiz-adv-x="568" d="M371 425 L420 528 L662 528 C685 528 692 535 703 558 L755 670 C765 692 756 708 732 708 L314 708 C291 708 284 701 273 678 L-25 38 C-35 16 -26 0 -2 0 L147 0 C170 0 177 7 188 30 L289 249 L518 249 C541 249 548 256 559 279 L609 387 C619 409 610 425 586 425 L371 425 Z " />
<glyph glyph-name="G" unicode="G" horiz-adv-x="700" d="M426 318 C416 296 425 280 449 280 L500 280 L455 184 C440 179 425 176 405 176 C320 176 293 198 293 249 C293 287 307 319 325 357 C389 492 454 532 580 532 C635 532 672 519 691 511 C713 501 729 504 748 527 L823 612 C836 629 839 648 824 660 C784 692 705 720 595 720 C383 720 234 629 111 365 C81 298 64 235 64 170 C64 42 169 -12 316 -12 C415 -12 488 3 548 31 C565 39 581 49 590 69 L745 399 C755 421 746 437 722 437 L509 437 C486 437 479 430 468 407 L426 318 Z " />
<glyph glyph-name="H" unicode="H" horiz-adv-x="700" d="M865 670 C875 692 866 708 842 708 L692 708 C669 708 662 701 651 678 L548 455 L388 455 L487 670 C497 692 488 708 464 708 L314 708 C291 708 284 701 273 678 L-25 38 C-35 16 -26 0 -2 0 L148 0 C171 0 178 7 189 30 L298 263 L458 263 L353 38 C343 16 352 0 376 0 L526 0 C549 0 556 7 567 30 L865 670 Z " />
<glyph glyph-name="I" unicode="I" horiz-adv-x="330" d="M491 670 C501 692 492 708 468 708 L318 708 C295 708 288 701 277 678 L-21 38 C-31 16 -22 0 2 0 L152 0 C175 0 182 7 193 30 L491 670 Z " />
<glyph glyph-name="J" unicode="J" horiz-adv-x="520" d="M284 267 C256 206 215 180 170 180 C134 180 109 188 94 197 C76 208 62 202 48 186 L-38 85 C-54 67 -49 50 -38 39 C-11 13 68 -10 145 -10 C312 -10 407 66 484 231 L689 670 C699 692 690 708 666 708 L516 708 C493 708 486 701 475 678 L284 267 Z " />
<glyph glyph-name="K" unicode="K" horiz-adv-x="666" d="M487 670 C497 692 488 708 464 708 L314 708 C291 708 284 701 273 678 L-25 38 C-35 16 -26 0 -2 0 L148 0 C171 0 178 7 189 30 L312 293 L352 33 C355 12 363 0 388 0 L536 0 C563 0 573 18 568 45 L515 363 L869 663 C891 682 884 708 860 708 L696 708 C671 708 664 704 641 684 L396 475 L487 670 Z " />
<glyph glyph-name="L" unicode="L" horiz-adv-x="560" d="M264 192 L487 670 C497 692 488 708 464 708 L314 708 C291 708 284 701 273 678 L-25 38 C-35 16 -26 0 -2 0 L404 0 C427 0 434 7 445 30 L503 154 C513 176 504 192 480 192 L264 192 Z " />
<glyph glyph-name="M" unicode="M" horiz-adv-x="832" d="M837 708 C816 708 803 701 789 688 L511 423 L481 684 C479 699 469 708 448 708 L314 708 C291 708 284 701 273 678 L-25 38 C-35 16 -26 0 -2 0 L140 0 C163 0 170 7 181 30 L338 369 L367 148 C369 136 374 131 388 131 C402 131 412 138 420 146 L639 352 L493 38 C483 16 492 0 516 0 L658 0 C681 0 688 7 699 30 L997 670 C1007 692 998 708 974 708 L837 708 Z " />
<glyph glyph-name="N" unicode="N" horiz-adv-x="708" d="M521 366 L495 683 C494 696 487 708 466 708 L314 708 C291 708 284 701 273 678 L-25 38 C-35 16 -26 0 -2 0 L140 0 C163 0 170 7 181 30 L327 342 L353 25 C354 12 361 0 382 0 L534 0 C557 0 564 7 575 30 L873 670 C883 692 874 708 850 708 L708 708 C685 708 678 701 667 678 L521 366 Z " />
<glyph glyph-name="O" unicode="O" horiz-adv-x="720" d="M572 720 C365 720 226 621 105 362 C73 297 59 223 59 156 C59 40 151 -12 287 -12 C494 -12 634 87 756 346 C785 410 801 483 801 551 C801 668 708 720 572 720 L572 720 Z M350 174 C311 174 286 195 286 232 C286 278 308 320 325 358 C386 489 441 534 510 534 C549 534 574 514 574 477 C574 431 552 389 535 351 C474 220 419 174 350 174 L350 174 Z " />
<glyph glyph-name="P" unicode="P" horiz-adv-x="672" d="M344 368 L420 528 L484 528 C526 528 547 515 547 490 C547 473 539 458 533 445 C507 387 477 368 416 368 L344 368 Z M314 708 C291 708 284 701 273 678 L-25 38 C-35 16 -26 0 -2 0 L147 0 C170 0 177 7 188 30 L261 188 L360 188 C552 188 662 246 747 436 C766 478 781 521 781 563 C781 668 685 708 544 708 L314 708 Z " />
<glyph glyph-name="Q" unicode="Q" horiz-adv-x="720" d="M572 720 C365 720 226 621 105 362 C73 297 59 223 59 156 C59 54 129 5 237 -5 C286 -64 363 -104 475 -104 C506 -104 511 -98 521 -77 L568 23 C575 39 569 47 554 47 C541 47 525 42 505 42 C602 94 682 190 756 346 C785 410 801 483 801 551 C801 668 708 720 572 720 L572 720 Z M350 174 C311 174 286 195 286 232 C286 278 308 320 325 358 C386 489 441 534 510 534 C549 534 574 514 574 477 C574 431 552 389 535 351 C474 220 419 174 350 174 L350 174 Z " />
<glyph glyph-name="R" unicode="R" horiz-adv-x="678" d="M351 380 L420 528 L493 528 C537 528 556 513 556 488 C556 473 550 457 544 446 C520 396 493 380 430 380 L351 380 Z M314 708 C291 708 284 701 273 678 L-25 38 C-35 16 -26 0 -2 0 L148 0 C171 0 178 7 189 30 L272 210 L335 210 L354 29 C355 10 368 0 393 0 L520 0 C545 0 561 20 558 45 L532 232 C639 270 707 334 757 442 C779 488 787 527 787 566 C787 666 704 708 562 708 L314 708 Z " />
<glyph glyph-name="S" unicode="S" horiz-adv-x="606" d="M599 283 C599 361 538 396 467 428 C422 448 397 464 397 488 C397 535 445 540 494 540 C536 540 583 532 616 519 C637 511 648 511 667 534 L741 621 C756 639 758 655 743 666 C713 688 632 719 523 719 C333 719 163 624 163 437 C163 350 225 308 292 282 C341 263 366 253 366 224 C366 178 302 168 242 168 C182 168 146 182 118 196 C99 206 81 203 63 182 L-13 92 C-28 75 -28 56 -13 46 C26 19 112 -11 220 -11 C412 -11 599 83 599 283 L599 283 Z " />
<glyph glyph-name="T" unicode="T" horiz-adv-x="590" d="M785 670 C795 692 786 708 762 708 L284 708 C261 708 254 701 243 678 L186 554 C176 532 185 516 209 516 L331 516 L109 38 C99 16 108 0 132 0 L282 0 C305 0 312 7 323 30 L549 516 L687 516 C710 516 717 523 728 546 L785 670 Z " />
<glyph glyph-name="U" unicode="U" horiz-adv-x="690" d="M858 670 C868 692 859 708 835 708 L685 708 C662 708 655 701 644 678 L461 286 C427 213 400 181 343 181 C302 181 287 197 287 222 C287 240 295 263 306 287 L484 670 C494 692 485 708 461 708 L311 708 C288 708 281 701 270 678 L92 295 C66 239 52 189 52 147 C52 46 129 -11 281 -11 C476 -11 573 58 661 247 L858 670 Z " />
<glyph glyph-name="V" unicode="V" horiz-adv-x="696" d="M344 0 C370 0 379 7 396 28 L896 665 C912 687 904 708 880 708 L730 708 C705 708 694 703 680 684 L464 385 L357 225 L353 225 L394 385 L457 675 C462 696 454 708 429 708 L271 708 C247 708 235 699 231 673 L136 35 C133 14 141 0 167 0 L344 0 Z " />
<glyph glyph-name="W" unicode="W" horiz-adv-x="1032" d="M531 37 C526 14 534 0 560 0 L709 0 C735 0 746 7 762 28 L1228 665 C1245 688 1236 708 1210 708 L1061 708 C1036 708 1023 702 1010 683 L844 436 L738 273 L734 273 L777 436 L835 674 C840 694 832 708 807 708 L679 708 C653 708 642 701 629 682 L457 436 L350 273 L346 273 L390 436 L453 673 C459 695 451 708 426 708 L277 708 C253 708 241 698 236 673 L108 37 C103 14 111 0 137 0 L294 0 C320 0 328 2 343 23 L518 264 L605 390 L609 390 L578 264 L531 37 Z " />
<glyph glyph-name="X" unicode="X" horiz-adv-x="700" d="M541 361 L885 665 C904 682 898 708 874 708 L725 708 C700 708 693 705 677 690 L498 522 L474 679 C471 700 462 708 437 708 L274 708 C251 708 241 693 245 672 L305 359 L-52 43 C-71 26 -65 0 -41 0 L119 0 C144 0 151 3 167 18 L349 188 L373 29 C376 8 385 0 410 0 L576 0 C599 0 609 15 605 36 L541 361 Z " />
<glyph glyph-name="Y" unicode="Y" horiz-adv-x="696" d="M484 261 L898 670 C915 687 910 708 886 708 L728 708 C703 708 693 704 679 688 L521 516 L449 429 L445 429 L453 516 L457 678 C457 698 450 708 425 708 L265 708 C241 708 230 694 232 672 L266 261 L162 38 C152 16 161 0 185 0 L335 0 C358 0 365 7 376 30 L484 261 Z " />
<glyph glyph-name="Z" unicode="Z" horiz-adv-x="632" d="M-35 38 C-45 16 -36 0 -12 0 L467 0 C490 0 497 7 508 30 L565 154 C575 176 566 192 542 192 L293 192 L706 511 C727 527 735 537 745 558 L797 670 C807 692 798 708 774 708 L314 708 C291 708 284 701 273 678 L216 554 C206 532 215 516 239 516 L469 516 L59 200 C38 184 27 171 17 150 L-35 38 Z " />
<glyph glyph-name="bracketleft" unicode="&#x5b;" horiz-adv-x="392" d="M-48 -73 C-58 -93 -50 -110 -29 -110 L189 -110 C211 -110 218 -104 228 -83 L263 -7 C273 13 265 30 244 30 L182 30 L434 568 L506 568 C528 568 535 574 545 595 L580 671 C590 691 582 708 561 708 L343 708 C321 708 314 702 304 680 L-48 -73 Z " />
<glyph glyph-name="backslash" unicode="&#x5c;" horiz-adv-x="480" d="M418 680 C419 697 415 708 389 708 L273 708 C247 708 238 693 237 672 L202 28 C201 11 205 0 231 0 L347 0 C373 0 382 15 383 36 L418 680 Z " />
<glyph glyph-name="bracketright" unicode="&#x5d;" horiz-adv-x="392" d="M528 671 C538 691 530 708 509 708 L291 708 C269 708 262 702 252 681 L217 605 C207 585 215 568 236 568 L298 568 L46 30 L-26 30 C-48 30 -55 24 -65 3 L-100 -73 C-110 -93 -102 -110 -81 -110 L137 -110 C159 -110 166 -104 176 -82 L528 671 Z " />
<glyph glyph-name="asciicircum" unicode="&#x5e;" horiz-adv-x="612" d="M481 708 C455 708 446 703 428 685 L134 387 C112 364 121 341 148 341 L250 341 C274 341 282 348 299 366 L461 531 L467 373 C468 353 477 341 503 341 L615 341 C642 341 652 357 650 384 L633 682 C632 700 626 708 603 708 L481 708 Z " />
<glyph glyph-name="underscore" unicode="&#x5f;" horiz-adv-x="550" d="M-124 -95 C-134 -115 -126 -132 -105 -132 L353 -132 C375 -132 382 -126 392 -105 L409 -67 C419 -47 411 -30 390 -30 L-68 -30 C-90 -30 -97 -36 -107 -58 L-124 -95 Z " />
<glyph glyph-name="grave" unicode="&#x60;" horiz-adv-x="380" d="M461 710 C462 724 459 732 439 732 L301 732 C279 732 272 710 279 698 L328 612 C334 601 340 596 360 596 L429 596 C448 596 455 606 456 621 L461 710 Z " />
<glyph glyph-name="a" unicode="a" horiz-adv-x="601" d="M347 193 C327 149 294 119 238 119 C213 119 201 127 201 148 C201 215 293 233 366 234 L347 193 Z M432 0 C454 0 461 6 471 28 L613 330 C630 367 638 399 638 427 C638 510 565 552 441 552 C358 552 285 539 219 515 C202 509 193 501 190 481 L177 392 C174 371 185 366 210 374 C254 388 308 400 362 400 C418 400 436 382 420 349 L412 334 C403 334 393 334 383 334 C213 334 -13 290 -13 105 C-13 22 45 -8 122 -8 C195 -8 251 18 290 55 L286 26 C284 12 289 0 312 0 L432 0 Z " />
<glyph glyph-name="b" unicode="b" horiz-adv-x="644" d="M287 271 C329 361 366 394 414 394 C445 394 458 376 458 352 C458 323 441 289 432 270 C389 179 354 146 306 146 C279 146 259 159 259 187 C259 218 275 246 287 271 L287 271 Z M113 0 C136 0 148 12 158 26 L181 59 C198 18 256 -12 321 -12 C458 -12 551 69 635 256 C659 309 680 369 680 421 C680 488 638 552 542 552 C488 552 436 532 397 503 L475 670 C485 691 477 708 455 708 L311 708 C289 708 282 702 272 680 L-28 38 C-38 17 -30 0 -8 0 L113 0 Z " />
<glyph glyph-name="c" unicode="c" horiz-adv-x="532" d="M69 285 C48 240 33 194 33 148 C33 41 113 -12 240 -12 C317 -12 377 4 423 27 C444 38 450 47 450 69 L451 153 C451 171 436 180 413 171 C388 161 360 153 325 153 C281 153 254 175 254 210 C254 234 264 254 273 274 C312 357 362 387 425 387 C454 387 483 380 500 373 C519 365 536 366 553 385 L623 462 C643 485 641 501 626 512 C599 531 532 552 452 552 C277 552 157 475 69 285 L69 285 Z " />
<glyph glyph-name="d" unicode="d" horiz-adv-x="644" d="M647 708 C625 708 618 702 608 680 L519 490 C498 527 444 552 384 552 C247 552 154 471 70 284 C46 231 25 171 25 119 C25 52 67 -12 163 -12 C216 -12 281 14 324 49 L321 34 C316 8 324 0 346 0 L472 0 C494 0 501 6 511 28 L811 670 C821 691 813 708 791 708 L647 708 Z M418 269 C376 179 339 146 291 146 C260 146 247 164 247 188 C247 217 264 251 273 270 C316 361 351 394 399 394 C426 394 446 381 446 353 C446 322 430 294 418 269 L418 269 Z M515 481 L514 479 C513 479 514 480 515 481 L515 481 Z " />
<glyph glyph-name="e" unicode="e" horiz-adv-x="600" d="M322 128 C258 128 218 151 235 196 L238 204 L536 204 C559 204 575 215 586 238 L608 286 C626 326 635 364 635 398 C635 490 568 552 442 552 C273 552 154 466 69 285 C49 242 37 196 37 152 C37 53 124 -12 266 -12 C342 -12 410 6 456 27 C480 38 487 44 490 65 L499 136 C502 157 487 165 469 158 C423 140 375 128 322 128 L322 128 Z M406 412 C443 411 456 394 456 370 C456 355 450 337 443 319 L440 312 L279 312 C318 381 354 413 406 412 L406 412 Z " />
<glyph glyph-name="f" unicode="f" horiz-adv-x="408" d="M108 408 C98 387 106 370 128 370 L156 370 L1 38 C-9 17 -1 0 21 0 L161 0 C183 0 190 6 200 28 L359 370 L442 370 C464 370 471 376 481 398 L517 478 C527 499 519 516 497 516 L427 516 L435 532 C448 560 462 572 498 572 C507 572 518 570 533 570 C550 570 562 574 573 597 L608 671 C618 692 608 701 592 706 C573 712 537 718 490 718 C362 718 300 679 243 557 L224 516 L183 516 C161 516 154 510 144 488 L108 408 Z " />
<glyph glyph-name="g" unicode="g" horiz-adv-x="616" d="M418 314 C387 249 354 216 310 216 C284 216 271 228 271 250 C271 273 283 295 291 314 C320 379 352 410 396 410 C431 410 443 390 431 349 C428 339 423 327 418 314 L418 314 Z M709 506 C720 529 711 540 688 540 L570 540 C547 540 537 529 526 514 L502 483 C482 526 435 550 374 550 C253 550 167 490 92 319 C73 275 62 224 62 195 C62 117 122 82 206 82 C261 82 302 103 348 142 L336 119 C305 58 266 24 178 24 C123 24 82 37 56 48 C38 56 23 54 10 36 L-46 -39 C-62 -62 -57 -73 -42 -83 C-13 -101 93 -122 161 -122 C348 -122 452 -43 517 95 L709 506 Z " />
<glyph glyph-name="h" unicode="h" horiz-adv-x="629" d="M475 670 C485 691 477 708 455 708 L311 708 C289 708 282 702 272 680 L-28 38 C-38 17 -30 0 -8 0 L136 0 C158 0 165 6 175 28 L303 300 C326 349 356 382 400 382 C425 382 433 368 433 350 C433 335 427 317 421 305 L296 38 C286 17 294 0 316 0 L460 0 C482 0 489 6 499 28 L631 309 C655 359 671 410 671 452 C671 511 639 552 552 552 C476 552 429 523 392 491 L475 670 Z " />
<glyph glyph-name="i" unicode="i" horiz-adv-x="316" d="M-24 38 C-34 17 -26 0 -4 0 L140 0 C162 0 169 6 179 28 L401 502 C411 523 403 540 381 540 L237 540 C215 540 208 534 198 512 L-24 38 Z M249 625 C239 604 247 587 269 587 L417 587 C439 587 446 593 456 615 L481 670 C491 691 483 708 461 708 L313 708 C291 708 284 702 274 680 L249 625 Z " />
<glyph glyph-name="j" unicode="j" horiz-adv-x="340" d="M16 71 C2 41 -8 32 -31 32 C-46 32 -49 35 -59 35 C-76 35 -88 31 -99 8 L-137 -72 C-145 -90 -138 -101 -121 -107 C-103 -114 -69 -120 -34 -120 C100 -120 153 -81 211 43 L425 502 C435 523 427 540 405 540 L261 540 C239 540 232 534 222 512 L16 71 Z M505 670 C515 691 507 708 485 708 L337 708 C315 708 308 702 298 680 L273 625 C263 604 271 587 293 587 L441 587 C463 587 470 593 480 615 L505 670 Z " />
<glyph glyph-name="k" unicode="k" horiz-adv-x="606" d="M472 0 C500 0 513 21 507 43 L445 278 L716 487 C726 494 730 505 730 514 C730 528 721 540 703 540 L559 540 C532 540 526 532 506 516 L342 386 L475 670 C485 691 477 708 455 708 L311 708 C289 708 282 702 272 680 L-28 38 C-38 17 -30 0 -8 0 L136 0 C158 0 165 6 175 28 L260 211 L301 32 C306 11 322 0 351 0 L472 0 Z " />
<glyph glyph-name="l" unicode="l" horiz-adv-x="312" d="M-26 38 C-36 17 -28 0 -6 0 L138 0 C160 0 167 6 177 28 L477 670 C487 691 479 708 457 708 L313 708 C291 708 284 702 274 680 L-26 38 Z " />
<glyph glyph-name="m" unicode="m" horiz-adv-x="923" d="M611 304 C634 352 656 384 700 384 C724 384 731 370 731 354 C731 338 724 320 718 307 L592 38 C582 17 590 0 612 0 L754 0 C776 0 783 6 793 28 L926 309 C950 359 966 410 966 452 C966 511 934 552 847 552 C781 552 704 509 663 466 C661 516 619 552 539 552 C468 552 420 519 380 479 L385 509 C388 528 382 540 358 540 L231 540 C209 540 202 534 192 512 L-30 38 C-40 17 -32 0 -10 0 L132 0 C154 0 161 6 171 28 L301 303 C324 352 346 384 390 384 C414 384 421 370 421 354 C421 338 414 320 408 307 L282 38 C272 17 280 0 302 0 L442 0 C464 0 471 6 481 28 L611 304 Z " />
<glyph glyph-name="n" unicode="n" horiz-adv-x="627" d="M629 309 C652 359 669 410 669 452 C669 510 637 552 550 552 C462 552 411 511 380 479 L385 509 C388 528 382 540 358 540 L231 540 C209 540 202 534 192 512 L-30 38 C-40 17 -32 0 -10 0 L134 0 C156 0 163 6 173 28 L301 300 C324 349 354 382 398 382 C423 382 431 368 431 350 C431 335 425 317 419 305 L294 38 C284 17 292 0 314 0 L458 0 C480 0 487 6 497 28 L629 309 Z " />
<glyph glyph-name="o" unicode="o" horiz-adv-x="620" d="M617 262 C639 310 649 359 649 395 C649 491 567 552 447 552 C269 552 153 467 65 278 C43 230 33 181 33 145 C33 49 115 -12 235 -12 C413 -12 529 73 617 262 L617 262 Z M272 270 C314 359 347 396 395 396 C421 396 436 381 436 357 C436 325 424 296 410 270 C368 181 335 144 287 144 C261 144 246 159 246 183 C246 215 258 244 272 270 L272 270 Z " />
<glyph glyph-name="p" unicode="p" horiz-adv-x="642" d="M285 271 C327 361 364 394 412 394 C443 394 456 376 456 352 C456 323 439 289 430 270 C387 179 352 146 304 146 C277 146 257 159 257 187 C257 218 273 246 285 271 L285 271 Z M383 509 C387 528 380 540 356 540 L231 540 C209 540 202 534 192 512 L-80 -72 C-90 -93 -82 -110 -60 -110 L83 -110 C105 -110 112 -104 122 -82 L184 50 C206 9 260 -12 320 -12 C457 -12 550 69 634 256 C658 309 679 369 679 421 C679 488 637 552 541 552 C488 552 422 529 378 485 L383 509 Z " />
<glyph glyph-name="q" unicode="q" horiz-adv-x="642" d="M419 269 C377 179 340 146 292 146 C261 146 248 164 248 188 C248 217 265 251 274 270 C317 361 352 394 400 394 C427 394 447 381 447 353 C447 322 431 294 419 269 L419 269 Z M526 485 C504 527 451 552 390 552 C253 552 153 471 69 284 C45 231 24 171 24 119 C24 52 66 -12 162 -12 C211 -12 268 9 313 48 L257 -72 C247 -93 255 -110 277 -110 L421 -110 C443 -110 450 -104 460 -82 L733 502 C743 523 735 540 713 540 L593 540 C571 540 565 536 550 517 L526 485 Z " />
<glyph glyph-name="r" unicode="r" horiz-adv-x="448" d="M231 540 C209 540 202 534 192 512 L-30 38 C-40 17 -32 0 -10 0 L134 0 C156 0 163 6 173 28 L289 272 C315 330 346 356 418 356 C437 356 461 354 476 353 C493 352 499 354 511 377 L573 511 C583 532 573 548 551 548 C482 548 408 504 371 459 L384 511 C388 528 384 540 361 540 L231 540 Z " />
<glyph glyph-name="s" unicode="s" horiz-adv-x="500" d="M461 212 C461 265 423 294 366 322 C337 337 313 352 313 367 C313 406 361 407 386 407 C421 407 453 401 475 394 C495 388 508 390 523 410 L576 480 C589 497 583 513 569 520 C537 536 466 552 403 552 C236 552 98 486 98 318 C98 254 153 231 200 211 C237 195 252 185 252 169 C252 141 218 133 160 133 C117 133 88 141 66 149 C46 156 31 152 16 132 L-33 68 C-46 51 -47 33 -29 25 C5 10 71 -12 149 -12 C327 -12 461 46 461 212 L461 212 Z " />
<glyph glyph-name="t" unicode="t" horiz-adv-x="416" d="M440 370 C462 370 469 376 479 398 L515 478 C525 499 517 516 495 516 L419 516 L470 626 C480 647 472 664 450 664 L314 664 C292 664 285 658 275 636 L219 516 L177 516 C155 516 148 510 138 488 L102 408 C92 387 100 370 122 370 L150 370 L58 174 C45 146 38 119 38 94 C38 34 80 -10 181 -10 C221 -10 236 -6 259 -1 C286 5 295 7 306 30 L345 110 C354 129 345 146 327 145 C311 144 301 142 292 142 C260 142 251 152 267 186 L354 370 L440 370 Z " />
<glyph glyph-name="u" unicode="u" horiz-adv-x="622" d="M452 0 C474 0 481 6 491 28 L713 502 C723 523 715 540 693 540 L549 540 C527 540 520 534 510 512 L380 234 C359 189 327 154 280 154 C250 154 245 169 252 194 C254 203 258 213 264 225 L393 502 C403 523 395 540 373 540 L229 540 C207 540 200 534 190 512 L42 196 C31 171 21 148 16 128 C10 107 7 89 7 73 C7 11 52 -12 132 -12 C201 -12 268 22 303 61 L298 26 C296 12 300 0 323 0 L452 0 Z " />
<glyph glyph-name="v" unicode="v" horiz-adv-x="596" d="M287 0 C309 0 316 5 330 22 L713 487 C734 512 722 540 695 540 L565 540 C538 540 526 530 511 509 L379 326 L290 198 L286 198 L317 326 L354 505 C359 528 348 540 323 540 L187 540 C163 540 154 528 151 505 L97 35 C94 12 109 0 134 0 L287 0 Z " />
<glyph glyph-name="w" unicode="w" horiz-adv-x="888" d="M544 540 C522 540 514 536 501 518 L354 315 L283 208 L280 208 L312 315 L362 505 C368 528 356 540 331 540 L193 540 C169 540 161 528 157 505 L74 35 C70 12 86 0 111 0 L240 0 C262 0 271 4 284 22 L413 195 L489 305 L493 305 L467 195 L435 34 C431 9 444 0 468 0 L598 0 C622 0 639 12 654 33 L1000 487 C1021 512 1009 540 982 540 L849 540 C822 540 809 530 795 509 L666 315 L598 208 L595 208 L624 315 L664 505 C669 528 654 540 629 540 L544 540 Z " />
<glyph glyph-name="x" unicode="x" horiz-adv-x="594" d="M371 508 C368 529 350 540 321 540 L198 540 C170 540 157 519 163 497 L222 273 L-42 53 C-51 45 -56 34 -56 25 C-56 11 -47 0 -29 0 L94 0 C121 0 128 7 147 24 L272 137 L284 32 C286 11 305 0 334 0 L463 0 C491 0 504 21 498 43 L438 273 L693 487 C702 495 707 506 707 515 C707 529 698 540 680 540 L555 540 C528 540 521 533 502 516 L387 409 L371 508 Z " />
<glyph glyph-name="y" unicode="y" horiz-adv-x="592" d="M710 487 C717 496 720 506 720 514 C720 529 709 540 692 540 L561 540 C538 540 522 530 508 509 L380 316 L297 183 L293 183 L323 316 L358 505 C362 528 352 540 327 540 L189 540 C165 540 155 528 153 505 L125 73 C123 44 111 30 69 30 C38 30 22 35 4 36 C-11 37 -23 34 -33 12 L-68 -65 C-76 -83 -71 -97 -52 -103 C-30 -110 26 -120 84 -120 C233 -120 271 -75 373 56 L710 487 Z " />
<glyph glyph-name="z" unicode="z" horiz-adv-x="550" d="M649 502 C659 523 651 540 629 540 L227 540 C205 540 198 534 188 512 L144 418 C134 397 142 380 164 380 L352 380 L23 146 C8 135 1 130 -10 108 L-46 34 C-55 11 -47 0 -24 0 L394 0 C416 0 423 6 433 28 L478 122 C488 143 480 160 458 160 L255 160 L576 389 C595 403 608 414 618 436 L649 502 Z " />
<glyph glyph-name="braceleft" unicode="&#x7b;" horiz-adv-x="392" d="M40 257 C30 237 38 221 59 221 L71 221 C88 221 95 216 95 202 C95 194 93 183 89 169 C83 151 74 126 59 95 C41 57 28 27 22 1 C9 -54 43 -110 148 -110 L201 -110 C223 -110 230 -104 240 -83 L276 -6 C286 14 278 30 257 30 L245 30 C227 30 223 40 229 62 C234 76 242 95 253 120 C264 144 272 167 279 187 C287 210 290 229 290 244 C290 276 273 291 241 299 C317 302 371 365 420 477 C453 554 466 568 496 568 L517 568 C539 568 546 574 556 595 L592 671 C601 691 594 708 573 708 L509 708 C361 708 331 678 249 503 C203 405 185 377 144 377 L123 377 C101 377 95 371 84 349 L40 257 Z " />
<glyph glyph-name="bar" unicode="&#x7c;" horiz-adv-x="352" d="M262 694 C262 717 251 728 228 728 L124 728 C101 728 90 717 90 694 L90 -76 C90 -99 101 -110 124 -110 L228 -110 C251 -110 262 -99 262 -76 L262 694 Z " />
<glyph glyph-name="braceright" unicode="&#x7d;" horiz-adv-x="392" d="M440 341 C450 361 442 377 421 377 L409 377 C392 377 385 382 385 396 C385 404 387 415 391 429 C397 447 406 472 421 503 C439 541 452 571 458 597 C471 652 437 708 332 708 L279 708 C257 708 250 702 240 681 L204 604 C194 584 202 568 223 568 L235 568 C253 568 257 558 251 536 C246 522 238 503 227 478 C216 454 208 431 201 411 C193 388 190 369 190 354 C190 322 207 307 239 299 C163 296 109 233 60 121 C27 44 14 30 -16 30 L-37 30 C-59 30 -66 24 -76 3 L-112 -73 C-121 -93 -114 -110 -93 -110 L-29 -110 C119 -110 149 -80 231 95 C277 193 295 221 336 221 L357 221 C379 221 385 227 396 249 L440 341 Z " />
<glyph glyph-name="asciitilde" unicode="&#x7e;" horiz-adv-x="612" d="M102 336 C84 303 95 297 108 288 L158 254 C173 244 187 246 203 263 L221 282 C239 303 259 313 281 313 C297 313 313 308 328 298 L367 273 C389 258 415 246 463 246 C546 246 617 317 659 394 C677 427 666 433 653 442 L603 476 C588 486 574 484 558 467 L540 448 C521 428 502 417 480 417 C465 417 449 422 435 432 L396 457 C373 472 348 484 300 484 C218 484 145 419 102 336 L102 336 Z " />
<glyph glyph-name="uni00A0" unicode="&#xa0;" horiz-adv-x="280" d="" />
<glyph glyph-name="exclamdown" unicode="&#xa1;" horiz-adv-x="338" d="M159 302 C135 302 129 296 119 278 L-107 -126 C-119 -147 -113 -168 -88 -168 L84 -168 C109 -168 124 -159 133 -135 L282 267 C290 288 283 302 259 302 L159 302 Z M412 503 C422 523 414 540 393 540 L249 540 C227 540 220 534 210 513 L151 387 C141 367 149 350 170 350 L314 350 C336 350 343 356 353 378 L412 503 Z " />
<glyph glyph-name="cent" unicode="&#xa2;" horiz-adv-x="560" d="M145 -63 C135 -83 143 -100 164 -100 L226 -100 C248 -100 255 -94 265 -73 L294 -10 C354 -5 405 8 443 27 C465 38 471 47 471 69 L472 153 C472 171 457 180 433 171 C407 161 376 153 339 153 C294 153 264 175 264 210 C264 234 274 254 283 274 C324 357 375 387 440 387 C471 387 500 380 517 373 C537 365 555 366 572 385 L645 462 C666 485 664 501 648 512 C630 524 597 536 553 544 L581 603 C591 623 583 640 562 640 L500 640 C478 640 471 634 461 612 L432 551 C270 541 157 462 71 285 C50 240 34 194 34 148 C34 64 86 13 172 -4 L145 -63 Z " />
<glyph glyph-name="sterling" unicode="&#xa3;" horiz-adv-x="662" d="M143 399 C125 399 120 396 113 381 L94 341 C86 324 95 314 112 314 L186 314 C186 236 109 188 29 149 C4 137 -4 120 0 103 L21 15 C24 1 31 -4 42 -4 C51 -4 61 0 74 4 C114 18 173 23 204 23 C277 23 319 -8 403 -8 C528 -8 602 88 635 198 C644 228 632 236 609 236 L515 236 C491 236 482 232 472 212 C455 178 432 158 392 158 C360 158 347 170 311 170 C296 170 269 167 248 162 C319 195 354 236 368 314 L494 314 C512 314 517 317 524 332 L543 372 C551 389 542 399 525 399 L381 399 C383 420 385 434 388 442 C405 501 441 554 512 554 C546 554 566 545 566 524 C566 503 553 494 553 482 C553 472 554 466 572 466 L698 466 C737 466 748 485 761 541 C765 556 766 570 766 583 C766 670 689 720 545 720 C343 720 182 594 182 414 L182 399 L143 399 Z " />
<glyph glyph-name="currency" unicode="&#xa4;" horiz-adv-x="612" d="M94 131 C83 120 83 108 94 97 L118 74 C130 63 140 62 152 74 L184 107 C218 85 259 72 306 72 C353 72 394 85 428 107 L460 74 C472 62 482 63 494 74 L518 97 C529 108 529 120 518 131 L485 164 C508 198 520 240 520 284 C520 328 508 370 485 404 L518 437 C529 448 529 460 518 471 L494 494 C482 505 472 506 460 494 L428 461 C394 483 353 496 306 496 C259 496 218 483 184 461 L152 494 C140 506 130 505 118 494 L94 471 C83 460 83 448 94 437 L127 404 C104 370 92 328 92 284 C92 240 104 198 127 164 L94 131 Z M389 284 C389 233 357 195 306 195 C255 195 223 233 223 284 C223 335 255 373 306 373 C357 373 389 335 389 284 L389 284 Z " />
<glyph glyph-name="yen" unicode="&#xa5;" horiz-adv-x="662" d="M172 387 C154 387 149 384 142 369 L123 329 C115 312 124 302 141 302 L247 302 L249 261 L239 240 L102 240 C84 240 79 237 72 222 L53 182 C45 165 54 155 71 155 L199 155 L145 38 C135 16 144 0 168 0 L318 0 C341 0 348 7 359 30 L417 155 L552 155 C570 155 575 158 582 173 L601 213 C609 230 600 240 583 240 L457 240 L467 261 L507 302 L622 302 C640 302 645 305 652 320 L671 360 C679 377 670 387 653 387 L591 387 L869 670 C886 687 881 708 857 708 L699 708 C674 708 664 704 650 688 L501 516 L433 429 L429 429 L439 516 L453 678 C453 698 446 708 421 708 L261 708 C237 708 226 694 228 672 L242 387 L172 387 Z " />
<glyph glyph-name="brokenbar" unicode="&#xa6;" horiz-adv-x="352" d="M262 694 C262 717 251 728 228 728 L124 728 C101 728 90 717 90 694 L90 424 C90 401 101 390 124 390 L228 390 C251 390 262 401 262 424 L262 694 Z M262 194 C262 217 251 228 228 228 L124 228 C101 228 90 217 90 194 L90 -76 C90 -99 101 -110 124 -110 L228 -110 C251 -110 262 -99 262 -76 L262 194 Z " />
<glyph glyph-name="section" unicode="&#xa7;" horiz-adv-x="650" d="M82 272 C82 200 140 165 240 126 C283 110 318 97 318 72 C318 36 274 28 192 28 C122 28 68 38 47 46 C27 54 10 46 -6 25 L-52 -37 C-68 -59 -67 -71 -50 -80 C-20 -96 63 -122 169 -122 C315 -122 520 -75 520 99 C520 121 514 139 502 153 C575 189 647 232 647 318 C647 395 595 434 498 471 C456 487 419 499 420 524 C420 568 497 570 523 570 C583 570 629 561 651 554 C672 548 688 554 704 575 L751 637 C767 659 767 671 749 680 C718 696 632 720 533 720 C392 720 218 677 218 494 C218 475 222 457 230 442 C153 415 82 354 82 272 L82 272 Z M323 366 C399 338 444 317 444 287 C444 263 429 240 408 230 C333 258 287 279 287 309 C287 333 302 356 323 366 L323 366 Z " />
<glyph glyph-name="dieresis" unicode="&#xa8;" horiz-adv-x="380" d="M194 633 C184 613 192 596 213 596 L318 596 C340 596 347 602 357 623 L384 680 C394 700 386 717 365 717 L260 717 C238 717 231 711 221 689 L194 633 Z M418 633 C408 613 416 596 437 596 L542 596 C564 596 571 602 581 623 L608 680 C618 700 610 717 589 717 L484 717 C462 717 455 711 445 689 L418 633 Z " />
<glyph glyph-name="copyright" unicode="&#xa9;" horiz-adv-x="886" d="M477 276 C432 276 404 299 404 359 C404 420 432 443 476 443 C498 443 519 438 534 433 C552 427 564 427 572 445 L598 506 C605 522 602 533 586 542 C559 558 505 571 457 571 C324 571 238 502 238 359 C238 217 324 148 458 148 C506 148 562 160 589 179 C604 189 609 196 601 215 L575 276 C568 292 555 295 537 288 C522 282 499 276 477 276 L477 276 Z M155 354 C155 511 248 633 443 633 C638 633 731 511 731 353 C731 197 638 75 443 75 C248 75 155 197 155 354 L155 354 Z M60 354 C60 157 192 -12 443 -12 C694 -12 826 157 826 354 C826 551 694 720 443 720 C192 720 60 551 60 354 L60 354 Z " />
<glyph glyph-name="ordfeminine" unicode="&#xaa;" horiz-adv-x="488" d="M489 647 C473 613 446 590 410 590 C390 590 381 599 381 613 C381 673 466 675 503 676 L489 647 Z M441 514 C439 503 442 492 463 492 L553 492 C573 492 585 497 595 518 L706 756 C719 784 725 808 725 829 C725 899 658 931 562 931 C495 931 446 921 388 901 C375 896 365 890 362 869 L353 808 C350 788 360 778 384 785 C418 795 458 808 501 808 C547 808 556 789 546 769 L540 757 C401 760 207 737 207 577 C207 526 247 485 311 485 C375 485 409 501 442 528 L441 514 Z " />
<glyph glyph-name="guillemotleft" unicode="&#xab;" horiz-adv-x="586" d="M69 282 L84 142 C86 126 89 119 112 119 L240 119 C259 119 268 130 266 146 L249 300 L402 447 C418 463 412 481 393 481 L277 481 C256 481 248 476 237 465 L83 316 C70 304 69 295 69 284 L69 282 Z M323 282 L338 142 C340 126 343 119 366 119 L494 119 C513 119 522 130 520 146 L503 300 L656 447 C672 463 666 481 647 481 L531 481 C510 481 502 476 491 465 L337 316 C324 304 323 295 323 284 L323 282 Z " />
<glyph glyph-name="logicalnot" unicode="&#xac;" horiz-adv-x="650" d="M342 132 C332 112 340 95 361 95 L506 95 C528 95 535 101 545 122 L674 398 C684 418 676 435 655 435 L184 435 C162 435 155 429 145 407 L98 306 C88 286 96 269 117 269 L407 269 L401 257 L342 132 Z " />
<glyph glyph-name="uni00AD" unicode="&#xad;" horiz-adv-x="408" d="M345 208 C367 208 374 214 384 235 L430 333 C440 353 432 370 411 370 L142 370 C120 370 113 364 103 342 L57 245 C47 225 55 208 76 208 L345 208 Z " />
<glyph glyph-name="registered" unicode="&#xae;" horiz-adv-x="480" d="M229 553 L229 594 L245 594 C263 594 270 589 270 573 C270 559 263 553 245 553 L229 553 Z M240 720 C117 720 52 638 52 543 C52 448 117 366 240 366 C363 366 428 448 428 543 C428 638 363 720 240 720 L240 720 Z M240 408 C143 408 98 467 98 543 C98 619 143 678 240 678 C337 678 382 619 382 543 C382 467 337 408 240 408 L240 408 Z M163 461 C163 452 168 447 177 447 L215 447 C224 447 229 452 229 461 L229 505 L241 505 L267 457 C271 450 276 447 285 447 L326 447 C333 447 338 454 333 462 L299 515 C320 525 336 543 336 573 C336 626 299 644 246 644 L177 644 C168 644 163 639 163 630 L163 461 Z " />
<glyph glyph-name="macron" unicode="&#xaf;" horiz-adv-x="380" d="M261 711 C241 711 235 708 227 691 L198 630 C189 611 199 600 218 600 L540 600 C560 600 566 603 574 620 L603 681 C612 700 602 711 583 711 L261 711 Z " />
<glyph glyph-name="degree" unicode="&#xb0;" horiz-adv-x="396" d="M339 491 C307 491 286 511 286 538 C286 593 344 629 391 629 C425 629 443 610 443 583 C443 527 388 491 339 491 L339 491 Z M416 716 C301 716 186 631 186 511 C186 448 241 404 316 404 C432 404 544 489 544 610 C544 674 490 716 416 716 L416 716 Z " />
<glyph glyph-name="plusminus" unicode="&#xb1;" horiz-adv-x="612" d="M224 228 C214 208 222 191 243 191 L366 191 C388 191 395 197 405 218 L461 338 L600 338 C622 338 629 344 639 365 L684 463 C694 483 686 500 665 500 L537 500 L589 610 C599 630 591 647 570 647 L447 647 C425 647 418 641 408 619 L352 500 L215 500 C193 500 186 494 176 472 L131 375 C121 355 129 338 150 338 L276 338 L224 228 Z M-28 37 C-38 17 -30 0 -9 0 L440 0 C462 0 469 6 479 27 L506 85 C516 105 508 122 487 122 L38 122 C16 122 9 116 -1 94 L-28 37 Z " />
<glyph glyph-name="two.superior" unicode="&#xb2;" horiz-adv-x="438" d="M186 525 C177 506 185 492 205 492 L503 492 C523 492 535 497 545 518 L571 571 C579 590 572 604 552 604 L439 604 C542 651 670 728 670 827 C670 896 628 931 526 931 C411 931 334 881 302 771 C298 756 303 746 322 746 L398 746 C421 746 427 750 432 769 C439 796 454 820 485 820 C505 820 514 813 514 799 C514 718 311 627 242 599 C218 589 215 586 208 571 L186 525 Z " />
<glyph glyph-name="three.superior" unicode="&#xb3;" horiz-adv-x="438" d="M418 662 C442 662 447 654 447 638 C447 609 418 596 381 596 C340 596 311 605 293 615 C276 624 264 622 249 605 L207 556 C192 538 193 530 208 521 C234 505 299 485 370 485 C502 485 596 542 596 646 C596 673 580 696 556 708 C622 728 676 783 676 840 C676 906 614 931 530 931 C458 931 425 924 383 908 C364 901 354 890 352 874 L349 817 C348 800 362 796 381 803 C411 814 449 822 478 822 C506 822 513 814 513 793 C513 771 491 759 461 759 L405 759 C383 759 376 753 366 732 L350 697 C341 677 350 662 369 662 L418 662 Z " />
<glyph glyph-name="acute" unicode="&#xb4;" horiz-adv-x="380" d="M309 624 C299 612 302 596 318 596 L403 596 C423 596 425 598 438 607 L568 697 C586 709 581 732 559 732 L422 732 C402 732 395 726 385 715 L309 624 Z " />
<glyph glyph-name="mu" unicode="&#xb5;" horiz-adv-x="622" d="M185 61 C193 23 246 -12 320 -12 C440 -12 495 29 561 171 L715 502 C725 523 717 540 695 540 L551 540 C529 540 522 534 512 512 L378 225 C357 181 341 154 300 154 C268 154 258 170 258 190 C258 202 262 215 267 227 L395 502 C405 523 397 540 375 540 L231 540 C209 540 202 534 192 512 L-80 -72 C-90 -93 -82 -110 -60 -110 L84 -110 C106 -110 113 -104 123 -82 L185 61 Z " />
<glyph glyph-name="paragraph" unicode="&#xb6;" horiz-adv-x="582" d="M518 612 C541 612 552 623 552 646 L552 674 C552 697 541 708 518 708 L285 708 C151 708 44 640 44 480 C44 320 151 252 285 252 L314 252 L314 34 C314 -5 301 -20 277 -20 C261 -20 247 -17 234 -17 C220 -17 213 -24 213 -36 L213 -74 C213 -89 222 -96 229 -100 C251 -113 272 -116 310 -116 C417 -116 438 -68 438 20 L438 562 C438 598 450 612 486 612 L518 612 Z " />
<glyph glyph-name="periodcentered" unicode="&#xb7;" horiz-adv-x="278" d="M50 229 C40 209 48 192 69 192 L205 192 C227 192 234 198 244 219 L303 345 C313 365 305 382 284 382 L148 382 C126 382 119 376 109 354 L50 229 Z " />
<glyph glyph-name="cedilla" unicode="&#xb8;" horiz-adv-x="380" d="M47 10 C75 -3 99 -22 99 -49 C99 -81 73 -98 39 -98 L0 -98 C-14 -98 -19 -102 -24 -113 L-45 -158 C-50 -170 -44 -179 -35 -182 C-20 -188 18 -189 40 -189 C116 -189 192 -153 192 -74 C192 -32 153 1 105 10 L47 10 Z " />
<glyph glyph-name="one.superior" unicode="&#xb9;" horiz-adv-x="438" d="M445 782 L325 525 C316 506 324 492 344 492 L427 492 C447 492 460 497 470 518 L644 891 C653 910 645 924 625 924 L538 924 C515 924 508 919 497 913 L351 840 C340 834 337 830 339 818 L348 767 C350 754 364 752 380 758 L445 782 Z " />
<glyph glyph-name="ordmasculine" unicode="&#xba;" horiz-adv-x="500" d="M529 803 C549 803 560 794 560 776 C560 753 548 727 539 708 C507 640 478 613 441 613 C421 613 410 621 410 640 C410 664 421 689 431 708 C463 776 492 803 529 803 L529 803 Z M401 485 C541 485 634 550 703 701 C720 736 733 774 733 812 C733 889 669 931 570 931 C430 931 337 866 267 715 C250 680 237 644 237 606 C237 528 299 485 401 485 L401 485 Z " />
<glyph glyph-name="guillemotright" unicode="&#xbb;" horiz-adv-x="586" d="M605 300 C607 304 608 309 607 316 L592 458 C591 474 583 481 560 481 L443 481 C421 481 409 466 410 447 L427 300 L273 153 C253 134 255 119 277 119 L394 119 C417 119 429 126 446 142 L593 284 C600 291 603 296 605 300 L605 300 Z M351 300 C353 304 354 309 353 316 L338 458 C337 474 329 481 306 481 L189 481 C167 481 155 466 156 447 L173 300 L19 153 C-1 134 1 119 23 119 L140 119 C163 119 175 126 192 142 L339 284 C346 291 349 296 351 300 L351 300 Z " />
<glyph glyph-name="onequarter" unicode="&#xbc;" horiz-adv-x="1020" d="M844 294 L796 192 L709 192 L844 294 Z M344 566 L224 309 C215 290 223 276 243 276 L326 276 C346 276 359 281 369 302 L543 675 C552 694 544 708 524 708 L437 708 C414 708 407 703 396 697 L250 624 C239 618 236 614 238 602 L247 551 C249 538 263 536 279 542 L344 566 Z M1001 676 C1015 690 1011 708 990 708 L921 708 C898 708 887 703 872 688 L186 32 C172 18 176 0 197 0 L266 0 C289 0 300 5 315 20 L1001 676 Z M916 80 C936 80 949 85 959 106 L984 159 C993 178 985 192 965 192 L942 192 L1039 398 C1048 417 1040 431 1020 431 L935 431 C916 431 913 429 899 419 L606 196 C593 186 588 181 582 167 L557 113 C548 94 556 80 576 80 L745 80 L722 32 C713 13 721 -1 741 -1 L822 -1 C842 -1 855 4 865 25 L891 80 L916 80 Z " />
<glyph glyph-name="onehalf" unicode="&#xbd;" horiz-adv-x="1020" d="M548 32 C539 13 547 -1 567 -1 L865 -1 C885 -1 897 4 907 25 L933 78 C941 97 934 111 914 111 L801 111 C904 158 1032 235 1032 334 C1032 403 990 438 888 438 C773 438 696 388 664 278 C660 263 665 253 684 253 L760 253 C783 253 789 257 794 276 C801 303 816 327 847 327 C867 327 876 320 876 306 C876 225 673 134 604 106 C580 96 577 93 570 78 L548 32 Z M972 676 C986 690 982 708 961 708 L892 708 C869 708 858 703 843 688 L157 32 C143 18 147 0 168 0 L237 0 C260 0 271 5 286 20 L972 676 Z M345 567 L225 310 C216 291 224 277 244 277 L327 277 C347 277 360 282 370 303 L544 676 C553 695 545 709 525 709 L438 709 C415 709 408 704 397 698 L251 625 C240 619 237 615 239 603 L248 552 C250 539 264 537 280 543 L345 567 Z " />
<glyph glyph-name="threequarters" unicode="&#xbe;" horiz-adv-x="1020" d="M916 80 C936 80 949 85 959 106 L984 159 C993 178 985 192 965 192 L942 192 L1039 398 C1048 417 1040 431 1020 431 L935 431 C916 431 913 429 899 419 L606 196 C593 186 588 181 582 167 L557 113 C548 94 556 80 576 80 L745 80 L722 32 C713 13 721 -1 741 -1 L822 -1 C842 -1 855 4 865 25 L891 80 L916 80 Z M318 446 C342 446 347 438 347 422 C347 393 318 380 281 380 C240 380 211 389 193 399 C176 408 164 406 149 389 L107 340 C92 322 93 314 108 305 C134 289 199 269 270 269 C402 269 496 326 496 430 C496 457 480 480 456 492 C522 512 576 567 576 624 C576 690 514 715 430 715 C358 715 325 708 283 692 C264 685 254 674 252 658 L249 601 C248 584 262 580 281 587 C311 598 349 606 378 606 C406 606 413 598 413 577 C413 555 391 543 361 543 L305 543 C283 543 276 537 266 516 L250 481 C241 461 250 446 269 446 L318 446 Z M1014 676 C1028 690 1024 708 1003 708 L934 708 C911 708 900 703 885 688 L199 32 C185 18 189 0 210 0 L279 0 C302 0 313 5 328 20 L1014 676 Z M844 294 L796 192 L709 192 L844 294 Z " />
<glyph glyph-name="questiondown" unicode="&#xbf;" horiz-adv-x="530" d="M216 263 C187 194 -71 144 -71 -48 C-71 -131 0 -179 130 -179 C212 -179 288 -163 358 -136 C381 -127 388 -118 389 -97 L395 -2 C396 21 382 26 356 18 C309 4 263 -8 213 -8 C172 -8 157 2 157 27 C157 118 338 145 405 262 L409 269 C418 285 417 302 392 302 L263 302 C236 301 229 295 221 275 L216 263 Z M532 503 C542 523 534 540 513 540 L369 540 C347 540 340 534 330 513 L271 387 C261 367 269 350 290 350 L434 350 C456 350 463 356 473 378 L532 503 Z " />
<glyph glyph-name="Agrave" unicode="&#xc0;" horiz-adv-x="706" d="M689 874 C690 888 687 896 667 896 L525 896 C503 896 496 874 503 862 L553 774 C559 763 565 758 585 758 L658 758 C677 758 684 768 685 783 L689 874 Z M337 288 L495 494 L498 494 L458 288 L337 288 Z M496 708 C470 708 464 705 448 685 L-61 43 C-78 22 -68 0 -44 0 L110 0 C135 0 142 5 158 27 L220 110 L411 110 L397 35 C393 13 400 0 425 0 L573 0 C599 0 613 13 617 39 L707 674 C710 694 705 708 679 708 L496 708 Z " />
<glyph glyph-name="Aacute" unicode="&#xc1;" horiz-adv-x="706" d="M558 786 C548 774 551 758 567 758 L655 758 C675 758 677 760 690 769 L822 861 C840 873 835 896 813 896 L673 896 C653 896 646 890 636 879 L558 786 Z M337 288 L495 494 L498 494 L458 288 L337 288 Z M496 708 C470 708 464 705 448 685 L-61 43 C-78 22 -68 0 -44 0 L110 0 C135 0 142 5 158 27 L220 110 L411 110 L397 35 C393 13 400 0 425 0 L573 0 C599 0 613 13 617 39 L707 674 C710 694 705 708 679 708 L496 708 Z " />
<glyph glyph-name="Acircumflex" unicode="&#xc2;" horiz-adv-x="706" d="M693 773 C699 766 704 758 722 758 L782 758 C802 758 806 774 801 787 L758 895 C753 910 744 916 722 916 L641 916 C616 916 614 912 599 901 L450 789 C437 779 441 758 459 758 L518 758 C536 758 542 763 555 771 L649 827 L693 773 Z M337 288 L495 494 L498 494 L458 288 L337 288 Z M496 708 C470 708 464 705 448 685 L-61 43 C-78 22 -68 0 -44 0 L110 0 C135 0 142 5 158 27 L220 110 L411 110 L397 35 C393 13 400 0 425 0 L573 0 C599 0 613 13 617 39 L707 674 C710 694 705 708 679 708 L496 708 Z " />
<glyph glyph-name="Atilde" unicode="&#xc3;" horiz-adv-x="706" d="M857 852 C871 884 868 898 846 898 L804 898 C786 898 776 893 765 877 L761 871 C755 861 742 856 728 856 C715 856 700 860 688 866 L644 887 C626 895 604 901 572 901 C511 901 459 862 429 798 C415 766 420 758 442 758 L484 758 C502 758 513 763 524 779 L527 785 C533 796 546 800 560 800 C573 800 587 797 601 790 L645 769 C662 761 685 755 720 755 C778 755 826 788 857 852 L857 852 Z M337 288 L495 494 L498 494 L458 288 L337 288 Z M496 708 C470 708 464 705 448 685 L-61 43 C-78 22 -68 0 -44 0 L110 0 C135 0 142 5 158 27 L220 110 L411 110 L397 35 C393 13 400 0 425 0 L573 0 C599 0 613 13 617 39 L707 674 C710 694 705 708 679 708 L496 708 Z " />
<glyph glyph-name="Adieresis" unicode="&#xc4;" horiz-adv-x="706" d="M430 795 C420 775 428 758 449 758 L556 758 C578 758 585 764 595 785 L622 842 C632 862 624 879 603 879 L496 879 C474 879 467 873 457 851 L430 795 Z M657 795 C647 775 655 758 676 758 L783 758 C805 758 812 764 822 785 L849 842 C859 862 851 879 830 879 L723 879 C701 879 694 873 684 851 L657 795 Z M337 288 L495 494 L498 494 L458 288 L337 288 Z M496 708 C470 708 464 705 448 685 L-61 43 C-78 22 -68 0 -44 0 L110 0 C135 0 142 5 158 27 L220 110 L411 110 L397 35 C393 13 400 0 425 0 L573 0 C599 0 613 13 617 39 L707 674 C710 694 705 708 679 708 L496 708 Z " />
<glyph glyph-name="Aring" unicode="&#xc5;" horiz-adv-x="706" d="M652 880 C563 880 474 815 474 722 C474 716 474 711 475 706 C465 704 458 698 448 685 L-61 43 C-78 22 -68 0 -44 0 L110 0 C135 0 142 5 158 27 L220 110 L411 110 L397 35 C393 13 400 0 425 0 L573 0 C599 0 613 13 617 39 L707 674 C708 681 708 688 706 694 C733 721 750 757 750 799 C750 848 709 880 652 880 L652 880 Z M337 288 L495 494 L498 494 L458 288 L337 288 Z M593 710 C570 710 554 724 554 745 C554 784 598 810 631 810 C655 810 669 797 669 776 C669 736 628 710 593 710 L593 710 Z " />
<glyph glyph-name="AE" unicode="&#xc6;" horiz-adv-x="916" d="M509 708 C483 708 477 705 460 684 L-70 43 C-89 20 -77 0 -55 0 L97 0 C122 0 129 5 146 27 L210 110 L362 110 L329 38 C319 16 328 0 352 0 L760 0 C783 0 790 7 801 30 L853 142 C863 164 854 180 830 180 L609 180 L653 273 L866 273 C889 273 896 280 907 303 L955 407 C965 429 956 445 932 445 L733 445 L772 528 L1000 528 C1023 528 1030 535 1041 558 L1093 670 C1103 692 1094 708 1070 708 L509 708 Z M333 288 L526 528 L558 528 L445 288 L333 288 Z " />
<glyph glyph-name="Ccedilla" unicode="&#xc7;" horiz-adv-x="635" d="M398 176 C327 176 293 196 293 245 C293 285 310 321 325 354 C382 478 451 532 559 532 C599 532 629 523 647 514 C668 503 683 506 700 525 L784 616 C801 634 800 649 785 663 C756 691 669 720 579 720 C376 720 219 616 107 359 C82 301 62 240 62 179 C62 95 103 38 174 10 C199 -4 219 -28 219 -52 C219 -86 192 -103 156 -103 L116 -103 C100 -103 95 -107 90 -119 L68 -166 C63 -178 70 -188 79 -191 C94 -197 134 -198 157 -198 C236 -198 316 -161 316 -79 C316 -53 302 -29 281 -11 C288 -12 296 -12 304 -12 C390 -12 454 3 509 31 C536 45 549 56 549 79 L549 180 C549 201 529 205 511 197 C479 183 444 176 398 176 L398 176 Z " />
<glyph glyph-name="Egrave" unicode="&#xc8;" horiz-adv-x="582" d="M647 874 C648 888 645 896 625 896 L483 896 C461 896 454 874 461 862 L511 774 C517 763 523 758 543 758 L616 758 C635 758 642 768 643 783 L647 874 Z M379 445 L418 528 L666 528 C689 528 696 535 707 558 L759 670 C769 692 760 708 736 708 L314 708 C291 708 284 701 273 678 L-25 38 C-35 16 -26 0 -2 0 L426 0 C449 0 456 7 467 30 L519 142 C529 164 520 180 496 180 L255 180 L299 273 L532 273 C555 273 562 280 573 303 L621 407 C631 429 622 445 598 445 L379 445 Z " />
<glyph glyph-name="Eacute" unicode="&#xc9;" horiz-adv-x="582" d="M496 786 C486 774 489 758 505 758 L593 758 C613 758 615 760 628 769 L760 861 C778 873 773 896 751 896 L611 896 C591 896 584 890 574 879 L496 786 Z M379 445 L418 528 L666 528 C689 528 696 535 707 558 L759 670 C769 692 760 708 736 708 L314 708 C291 708 284 701 273 678 L-25 38 C-35 16 -26 0 -2 0 L426 0 C449 0 456 7 467 30 L519 142 C529 164 520 180 496 180 L255 180 L299 273 L532 273 C555 273 562 280 573 303 L621 407 C631 429 622 445 598 445 L379 445 Z " />
<glyph glyph-name="Ecircumflex" unicode="&#xca;" horiz-adv-x="582" d="M641 773 C647 766 652 758 670 758 L730 758 C750 758 754 774 749 787 L706 895 C700 910 692 916 670 916 L589 916 C564 916 562 912 547 901 L398 789 C385 779 389 758 407 758 L466 758 C484 758 490 763 503 771 L597 827 L641 773 Z M379 445 L418 528 L666 528 C689 528 696 535 707 558 L759 670 C769 692 760 708 736 708 L314 708 C291 708 284 701 273 678 L-25 38 C-35 16 -26 0 -2 0 L426 0 C449 0 456 7 467 30 L519 142 C529 164 520 180 496 180 L255 180 L299 273 L532 273 C555 273 562 280 573 303 L621 407 C631 429 622 445 598 445 L379 445 Z " />
<glyph glyph-name="Edieresis" unicode="&#xcb;" horiz-adv-x="582" d="M378 795 C368 775 376 758 397 758 L504 758 C526 758 533 764 543 785 L570 842 C580 862 572 879 551 879 L444 879 C422 879 415 873 405 851 L378 795 Z M605 795 C595 775 603 758 624 758 L731 758 C753 758 760 764 770 785 L797 842 C807 862 799 879 778 879 L671 879 C649 879 642 873 632 851 L605 795 Z M379 445 L418 528 L666 528 C689 528 696 535 707 558 L759 670 C769 692 760 708 736 708 L314 708 C291 708 284 701 273 678 L-25 38 C-35 16 -26 0 -2 0 L426 0 C449 0 456 7 467 30 L519 142 C529 164 520 180 496 180 L255 180 L299 273 L532 273 C555 273 562 280 573 303 L621 407 C631 429 622 445 598 445 L379 445 Z " />
<glyph glyph-name="Igrave" unicode="&#xcc;" horiz-adv-x="330" d="M511 874 C512 888 509 896 489 896 L347 896 C325 896 318 874 325 862 L375 774 C381 763 387 758 407 758 L480 758 C499 758 506 768 507 783 L511 874 Z M491 670 C501 692 492 708 468 708 L318 708 C295 708 288 701 277 678 L-21 38 C-31 16 -22 0 2 0 L152 0 C175 0 182 7 193 30 L491 670 Z " />
<glyph glyph-name="Iacute" unicode="&#xcd;" horiz-adv-x="330" d="M370 786 C360 774 363 758 379 758 L467 758 C487 758 489 760 502 769 L634 861 C652 873 647 896 625 896 L485 896 C465 896 458 890 448 879 L370 786 Z M491 670 C501 692 492 708 468 708 L318 708 C295 708 288 701 277 678 L-21 38 C-31 16 -22 0 2 0 L152 0 C175 0 182 7 193 30 L491 670 Z " />
<glyph glyph-name="Icircumflex" unicode="&#xce;" horiz-adv-x="330" d="M505 773 C511 766 516 758 534 758 L594 758 C614 758 618 774 613 787 L570 895 C564 910 556 916 534 916 L453 916 C428 916 426 912 411 901 L262 789 C249 779 253 758 271 758 L330 758 C348 758 354 763 367 771 L461 827 L505 773 Z M491 670 C501 692 492 708 468 708 L318 708 C295 708 288 701 277 678 L-21 38 C-31 16 -22 0 2 0 L152 0 C175 0 182 7 193 30 L491 670 Z " />
<glyph glyph-name="Idieresis" unicode="&#xcf;" horiz-adv-x="330" d="M242 795 C232 775 240 758 261 758 L368 758 C390 758 397 764 407 785 L434 842 C444 862 436 879 415 879 L308 879 C286 879 279 873 269 851 L242 795 Z M469 795 C459 775 467 758 488 758 L595 758 C617 758 624 764 634 785 L661 842 C671 862 663 879 642 879 L535 879 C513 879 506 873 496 851 L469 795 Z M491 670 C501 692 492 708 468 708 L318 708 C295 708 288 701 277 678 L-21 38 C-31 16 -22 0 2 0 L152 0 C175 0 182 7 193 30 L491 670 Z " />
<glyph glyph-name="Eth" unicode="&#xd0;" horiz-adv-x="694" d="M246 0 C483 0 630 100 731 349 C757 413 772 475 772 539 C772 650 681 708 521 708 L316 708 C293 708 286 701 275 678 L148 405 L119 405 C99 405 95 401 85 381 L64 337 C54 318 61 304 81 304 L101 304 L-23 38 C-33 16 -24 0 0 0 L246 0 Z M450 520 C510 520 539 503 539 459 C539 420 524 387 510 354 C449 223 390 188 296 188 L265 188 L319 304 L398 304 C418 304 422 308 432 328 L453 372 C462 391 456 405 436 405 L366 405 L419 520 L450 520 Z " />
<glyph glyph-name="Ntilde" unicode="&#xd1;" horiz-adv-x="708" d="M858 852 C872 884 869 898 847 898 L805 898 C787 898 777 893 766 877 L762 871 C756 861 743 856 729 856 C716 856 701 860 689 866 L645 887 C627 895 605 901 573 901 C512 901 460 862 430 798 C416 766 421 758 443 758 L485 758 C503 758 514 763 525 779 L528 785 C534 796 547 800 561 800 C574 800 588 797 602 790 L646 769 C663 761 686 755 721 755 C779 755 827 788 858 852 L858 852 Z M521 366 L495 683 C494 696 487 708 466 708 L314 708 C291 708 284 701 273 678 L-25 38 C-35 16 -26 0 -2 0 L140 0 C163 0 170 7 181 30 L327 342 L353 25 C354 12 361 0 382 0 L534 0 C557 0 564 7 575 30 L873 670 C883 692 874 708 850 708 L708 708 C685 708 678 701 667 678 L521 366 Z " />
<glyph glyph-name="Ograve" unicode="&#xd2;" horiz-adv-x="720" d="M695 874 C696 888 693 896 673 896 L531 896 C509 896 502 874 509 862 L559 774 C565 763 571 758 591 758 L664 758 C683 758 690 768 691 783 L695 874 Z M572 720 C365 720 226 621 105 362 C73 297 59 223 59 156 C59 40 151 -12 287 -12 C494 -12 634 87 756 346 C785 410 801 483 801 551 C801 668 708 720 572 720 L572 720 Z M350 174 C311 174 286 195 286 232 C286 278 308 320 325 358 C386 489 441 534 510 534 C549 534 574 514 574 477 C574 431 552 389 535 351 C474 220 419 174 350 174 L350 174 Z " />
<glyph glyph-name="Oacute" unicode="&#xd3;" horiz-adv-x="720" d="M565 786 C555 774 558 758 574 758 L662 758 C682 758 684 760 697 769 L829 861 C847 873 842 896 820 896 L680 896 C660 896 653 890 643 879 L565 786 Z M572 720 C365 720 226 621 105 362 C73 297 59 223 59 156 C59 40 151 -12 287 -12 C494 -12 634 87 756 346 C785 410 801 483 801 551 C801 668 708 720 572 720 L572 720 Z M350 174 C311 174 286 195 286 232 C286 278 308 320 325 358 C386 489 441 534 510 534 C549 534 574 514 574 477 C574 431 552 389 535 351 C474 220 419 174 350 174 L350 174 Z " />
<glyph glyph-name="Ocircumflex" unicode="&#xd4;" horiz-adv-x="720" d="M700 773 C706 766 711 758 729 758 L789 758 C809 758 813 774 808 787 L765 895 C759 910 751 916 729 916 L648 916 C623 916 621 912 606 901 L457 789 C444 779 448 758 466 758 L525 758 C543 758 549 763 562 771 L656 827 L700 773 Z M572 720 C365 720 226 621 105 362 C73 297 59 223 59 156 C59 40 151 -12 287 -12 C494 -12 634 87 756 346 C785 410 801 483 801 551 C801 668 708 720 572 720 L572 720 Z M350 174 C311 174 286 195 286 232 C286 278 308 320 325 358 C386 489 441 534 510 534 C549 534 574 514 574 477 C574 431 552 389 535 351 C474 220 419 174 350 174 L350 174 Z " />
<glyph glyph-name="Otilde" unicode="&#xd5;" horiz-adv-x="720" d="M864 852 C878 884 875 898 853 898 L811 898 C793 898 783 893 772 877 L768 871 C762 861 749 856 735 856 C722 856 707 860 695 866 L651 887 C633 895 611 901 579 901 C518 901 466 862 436 798 C422 766 427 758 449 758 L491 758 C509 758 520 763 531 779 L534 785 C540 796 553 800 567 800 C580 800 594 797 608 790 L652 769 C669 761 692 755 727 755 C785 755 833 788 864 852 L864 852 Z M572 720 C365 720 226 621 105 362 C73 297 59 223 59 156 C59 40 151 -12 287 -12 C494 -12 634 87 756 346 C785 410 801 483 801 551 C801 668 708 720 572 720 L572 720 Z M350 174 C311 174 286 195 286 232 C286 278 308 320 325 358 C386 489 441 534 510 534 C549 534 574 514 574 477 C574 431 552 389 535 351 C474 220 419 174 350 174 L350 174 Z " />
<glyph glyph-name="Odieresis" unicode="&#xd6;" horiz-adv-x="720" d="M436 795 C426 775 434 758 455 758 L562 758 C584 758 591 764 601 785 L628 842 C638 862 630 879 609 879 L502 879 C480 879 473 873 463 851 L436 795 Z M663 795 C653 775 661 758 682 758 L789 758 C811 758 818 764 828 785 L855 842 C865 862 857 879 836 879 L729 879 C707 879 700 873 690 851 L663 795 Z M572 720 C365 720 226 621 105 362 C73 297 59 223 59 156 C59 40 151 -12 287 -12 C494 -12 634 87 756 346 C785 410 801 483 801 551 C801 668 708 720 572 720 L572 720 Z M350 174 C311 174 286 195 286 232 C286 278 308 320 325 358 C386 489 441 534 510 534 C549 534 574 514 574 477 C574 431 552 389 535 351 C474 220 419 174 350 174 L350 174 Z " />
<glyph glyph-name="multiply" unicode="&#xd7;" horiz-adv-x="612" d="M373 123 C379 112 388 107 398 107 C407 107 417 111 428 118 L536 192 C553 204 558 221 548 240 L492 344 L670 466 C684 475 693 488 685 503 L643 579 C634 596 612 596 589 581 L427 471 L372 573 C366 584 357 589 347 589 C338 589 328 585 317 578 L209 504 C192 492 187 475 197 456 L253 352 L75 230 C61 221 52 208 60 193 L102 117 C111 100 133 100 156 115 L318 225 L373 123 Z " />
<glyph glyph-name="Oslash" unicode="&#xd8;" horiz-adv-x="724" d="M572 720 C365 720 226 621 105 362 C73 297 59 223 59 156 C59 138 61 122 65 107 L4 56 C-8 46 -9 36 1 26 L34 -7 C43 -16 51 -17 63 -7 L113 35 C153 3 213 -12 287 -12 C494 -12 634 87 756 346 C785 410 801 483 801 551 C801 568 799 585 795 600 L859 654 C871 664 872 674 862 684 L829 717 C820 726 812 727 800 717 L747 672 C706 705 645 720 572 720 L572 720 Z M325 358 C386 489 441 534 510 534 C532 534 550 527 561 514 L298 296 C306 318 316 338 325 358 L325 358 Z M350 174 C328 174 310 181 299 193 L561 410 C553 389 543 370 535 351 C474 220 419 174 350 174 L350 174 Z " />
<glyph glyph-name="Ugrave" unicode="&#xd9;" horiz-adv-x="690" d="M691 874 C692 888 689 896 669 896 L527 896 C505 896 498 874 505 862 L555 774 C561 763 567 758 587 758 L660 758 C679 758 686 768 687 783 L691 874 Z M858 670 C868 692 859 708 835 708 L685 708 C662 708 655 701 644 678 L461 286 C427 213 400 181 343 181 C302 181 287 197 287 222 C287 240 295 263 306 287 L484 670 C494 692 485 708 461 708 L311 708 C288 708 281 701 270 678 L92 295 C66 239 52 189 52 147 C52 46 129 -11 281 -11 C476 -11 573 58 661 247 L858 670 Z " />
<glyph glyph-name="Uacute" unicode="&#xda;" horiz-adv-x="690" d="M540 786 C530 774 533 758 549 758 L637 758 C657 758 659 760 672 769 L804 861 C822 873 817 896 795 896 L655 896 C635 896 628 890 618 879 L540 786 Z M858 670 C868 692 859 708 835 708 L685 708 C662 708 655 701 644 678 L461 286 C427 213 400 181 343 181 C302 181 287 197 287 222 C287 240 295 263 306 287 L484 670 C494 692 485 708 461 708 L311 708 C288 708 281 701 270 678 L92 295 C66 239 52 189 52 147 C52 46 129 -11 281 -11 C476 -11 573 58 661 247 L858 670 Z " />
<glyph glyph-name="Ucircumflex" unicode="&#xdb;" horiz-adv-x="690" d="M685 773 C691 766 696 758 714 758 L774 758 C794 758 798 774 793 787 L750 895 C744 910 736 916 714 916 L633 916 C608 916 606 912 591 901 L442 789 C429 779 433 758 451 758 L510 758 C528 758 534 763 547 771 L641 827 L685 773 Z M858 670 C868 692 859 708 835 708 L685 708 C662 708 655 701 644 678 L461 286 C427 213 400 181 343 181 C302 181 287 197 287 222 C287 240 295 263 306 287 L484 670 C494 692 485 708 461 708 L311 708 C288 708 281 701 270 678 L92 295 C66 239 52 189 52 147 C52 46 129 -11 281 -11 C476 -11 573 58 661 247 L858 670 Z " />
<glyph glyph-name="Udieresis" unicode="&#xdc;" horiz-adv-x="690" d="M422 795 C412 775 420 758 441 758 L548 758 C570 758 577 764 587 785 L614 842 C624 862 616 879 595 879 L488 879 C466 879 459 873 449 851 L422 795 Z M649 795 C639 775 647 758 668 758 L775 758 C797 758 804 764 814 785 L841 842 C851 862 843 879 822 879 L715 879 C693 879 686 873 676 851 L649 795 Z M858 670 C868 692 859 708 835 708 L685 708 C662 708 655 701 644 678 L461 286 C427 213 400 181 343 181 C302 181 287 197 287 222 C287 240 295 263 306 287 L484 670 C494 692 485 708 461 708 L311 708 C288 708 281 701 270 678 L92 295 C66 239 52 189 52 147 C52 46 129 -11 281 -11 C476 -11 573 58 661 247 L858 670 Z " />
<glyph glyph-name="Yacute" unicode="&#xdd;" horiz-adv-x="696" d="M484 261 L898 670 C915 687 910 708 886 708 L728 708 C703 708 693 704 679 688 L521 516 L449 429 L445 429 L453 516 L457 678 C457 698 450 708 425 708 L265 708 C241 708 230 694 232 672 L266 261 L162 38 C152 16 161 0 185 0 L335 0 C358 0 365 7 376 30 L484 261 Z M555 786 C545 774 548 758 564 758 L652 758 C672 758 674 760 687 769 L819 861 C837 873 832 896 810 896 L670 896 C650 896 643 890 633 879 L555 786 Z " />
<glyph glyph-name="Thorn" unicode="&#xde;" horiz-adv-x="674" d="M147 0 C170 0 177 7 188 30 L228 118 L327 118 C525 118 627 166 712 356 C731 398 746 435 746 477 C746 581 645 626 514 626 L465 626 L485 670 C495 692 486 708 462 708 L314 708 C291 708 284 701 273 678 L-25 38 C-35 16 -26 0 -2 0 L147 0 Z M311 294 L383 450 L451 450 C493 450 514 437 514 412 C514 395 510 384 504 371 C478 313 444 294 383 294 L311 294 Z " />
<glyph glyph-name="germandbls" unicode="&#xdf;" horiz-adv-x="680" d="M371 472 C399 531 428 574 492 574 C531 574 548 555 548 536 C548 448 391 443 391 355 C391 307 448 273 448 228 C448 157 365 131 309 133 C285 134 277 133 266 111 L226 27 C211 -4 249 -12 363 -12 C508 -12 643 72 643 234 C643 307 584 328 584 354 C584 394 768 467 768 586 C768 671 680 720 532 720 C356 720 268 668 191 504 L-28 38 C-38 17 -30 0 -8 0 L125 0 C147 0 154 6 164 28 L371 472 Z " />
<glyph glyph-name="agrave" unicode="&#xe0;" horiz-adv-x="601" d="M347 193 C327 149 294 119 238 119 C213 119 201 127 201 148 C201 215 293 233 366 234 L347 193 Z M432 0 C454 0 461 6 471 28 L613 330 C630 367 638 399 638 427 C638 510 565 552 441 552 C358 552 285 539 219 515 C202 509 193 501 190 481 L177 392 C174 371 185 366 210 374 C254 388 308 400 362 400 C418 400 436 382 420 349 L412 334 C403 334 393 334 383 334 C213 334 -13 290 -13 105 C-13 22 45 -8 122 -8 C195 -8 251 18 290 55 L286 26 C284 12 289 0 312 0 L432 0 Z M570 710 C571 724 568 732 548 732 L410 732 C388 732 381 710 388 698 L437 612 C443 601 449 596 469 596 L538 596 C557 596 564 606 565 621 L570 710 Z " />
<glyph glyph-name="aacute" unicode="&#xe1;" horiz-adv-x="601" d="M347 193 C327 149 294 119 238 119 C213 119 201 127 201 148 C201 215 293 233 366 234 L347 193 Z M432 0 C454 0 461 6 471 28 L613 330 C630 367 638 399 638 427 C638 510 565 552 441 552 C358 552 285 539 219 515 C202 509 193 501 190 481 L177 392 C174 371 185 366 210 374 C254 388 308 400 362 400 C418 400 436 382 420 349 L412 334 C403 334 393 334 383 334 C213 334 -13 290 -13 105 C-13 22 45 -8 122 -8 C195 -8 251 18 290 55 L286 26 C284 12 289 0 312 0 L432 0 Z M421 624 C411 612 414 596 430 596 L515 596 C535 596 537 598 550 607 L680 697 C698 709 693 732 671 732 L534 732 C514 732 507 726 497 715 L421 624 Z " />
<glyph glyph-name="acircumflex" unicode="&#xe2;" horiz-adv-x="601" d="M347 193 C327 149 294 119 238 119 C213 119 201 127 201 148 C201 215 293 233 366 234 L347 193 Z M432 0 C454 0 461 6 471 28 L613 330 C630 367 638 399 638 427 C638 510 565 552 441 552 C358 552 285 539 219 515 C202 509 193 501 190 481 L177 392 C174 371 185 366 210 374 C254 388 308 400 362 400 C418 400 436 382 420 349 L412 334 C403 334 393 334 383 334 C213 334 -13 290 -13 105 C-13 22 45 -8 122 -8 C195 -8 251 18 290 55 L286 26 C284 12 289 0 312 0 L432 0 Z M561 611 C566 603 572 596 590 596 L650 596 C670 596 674 612 669 625 L630 733 C625 748 616 754 594 754 L513 754 C488 754 486 750 471 739 L326 627 C313 617 317 596 335 596 L394 596 C412 596 418 601 431 609 L521 665 L561 611 Z " />
<glyph glyph-name="atilde" unicode="&#xe3;" horiz-adv-x="601" d="M347 193 C327 149 294 119 238 119 C213 119 201 127 201 148 C201 215 293 233 366 234 L347 193 Z M432 0 C454 0 461 6 471 28 L613 330 C630 367 638 399 638 427 C638 510 565 552 441 552 C358 552 285 539 219 515 C202 509 193 501 190 481 L177 392 C174 371 185 366 210 374 C254 388 308 400 362 400 C418 400 436 382 420 349 L412 334 C403 334 393 334 383 334 C213 334 -13 290 -13 105 C-13 22 45 -8 122 -8 C195 -8 251 18 290 55 L286 26 C284 12 289 0 312 0 L432 0 Z M512 723 C495 730 473 737 448 737 C381 737 335 699 304 635 C291 608 300 596 322 596 L363 596 C381 596 388 599 397 613 L403 622 C410 633 421 637 434 637 C446 637 459 634 473 627 L519 607 C536 600 558 593 583 593 C650 593 696 631 727 695 C740 722 731 734 709 734 L668 734 C650 734 643 731 634 717 L628 708 C621 697 610 693 597 693 C585 693 572 697 558 703 L512 723 Z " />
<glyph glyph-name="adieresis" unicode="&#xe4;" horiz-adv-x="601" d="M347 193 C327 149 294 119 238 119 C213 119 201 127 201 148 C201 215 293 233 366 234 L347 193 Z M432 0 C454 0 461 6 471 28 L613 330 C630 367 638 399 638 427 C638 510 565 552 441 552 C358 552 285 539 219 515 C202 509 193 501 190 481 L177 392 C174 371 185 366 210 374 C254 388 308 400 362 400 C418 400 436 382 420 349 L412 334 C403 334 393 334 383 334 C213 334 -13 290 -13 105 C-13 22 45 -8 122 -8 C195 -8 251 18 290 55 L286 26 C284 12 289 0 312 0 L432 0 Z M304 633 C294 613 302 596 323 596 L428 596 C450 596 457 602 467 623 L494 680 C504 700 496 717 475 717 L370 717 C348 717 341 711 331 689 L304 633 Z M528 633 C518 613 526 596 547 596 L652 596 C674 596 681 602 691 623 L718 680 C728 700 720 717 699 717 L594 717 C572 717 565 711 555 689 L528 633 Z " />
<glyph glyph-name="aring" unicode="&#xe5;" horiz-adv-x="601" d="M347 193 C327 149 294 119 238 119 C213 119 201 127 201 148 C201 215 293 233 366 234 L347 193 Z M432 0 C454 0 461 6 471 28 L613 330 C630 367 638 399 638 427 C638 510 565 552 441 552 C358 552 285 539 219 515 C202 509 193 501 190 481 L177 392 C174 371 185 366 210 374 C254 388 308 400 362 400 C418 400 436 382 420 349 L412 334 C403 334 393 334 383 334 C213 334 -13 290 -13 105 C-13 22 45 -8 122 -8 C195 -8 251 18 290 55 L286 26 C284 12 289 0 312 0 L432 0 Z M527 658 C504 658 489 672 489 692 C489 730 531 756 563 756 C587 756 600 743 600 723 C600 684 561 658 527 658 L527 658 Z M584 824 C497 824 411 760 411 670 C411 623 452 590 508 590 C595 590 679 654 679 745 C679 792 639 824 584 824 L584 824 Z " />
<glyph glyph-name="ae" unicode="&#xe6;" horiz-adv-x="906" d="M628 128 C564 128 531 151 541 196 L547 213 L845 213 C868 213 884 224 895 247 L914 286 C924 306 931 324 936 342 C943 367 947 390 947 411 C947 499 885 552 767 552 C692 552 630 531 575 490 C556 531 507 552 436 552 C353 552 285 539 219 515 C202 509 193 501 190 481 L177 392 C174 371 185 366 210 374 C254 388 308 400 362 400 C418 400 436 382 420 349 L409 325 C400 325 390 325 380 325 C211 325 -9 282 -9 105 C-9 22 55 -8 142 -8 C256 -8 333 19 388 60 C411 13 466 -12 564 -12 C635 -12 710 -3 754 21 C780 35 793 43 796 64 L805 136 C808 157 798 166 772 157 C726 140 669 128 628 128 L628 128 Z M716 412 C756 412 772 388 760 348 C757 339 755 331 750 321 L588 321 C627 390 664 412 716 412 L716 412 Z M347 193 C327 149 294 119 238 119 C213 119 201 127 201 148 C201 215 289 224 362 225 L347 193 Z " />
<glyph glyph-name="ccedilla" unicode="&#xe7;" horiz-adv-x="532" d="M69 285 C48 240 33 194 33 148 C33 73 72 24 140 2 C161 -10 177 -27 177 -49 C177 -81 151 -98 117 -98 L78 -98 C64 -98 59 -102 54 -113 L33 -158 C28 -170 34 -179 43 -182 C58 -188 96 -189 118 -189 C194 -189 270 -153 270 -74 C270 -49 256 -27 235 -12 L240 -12 C317 -12 377 4 423 27 C444 38 450 47 450 69 L451 153 C451 171 436 180 413 171 C388 161 360 153 325 153 C281 153 254 175 254 210 C254 234 264 254 273 274 C312 357 362 387 425 387 C454 387 483 380 500 373 C519 365 536 366 553 385 L623 462 C643 485 641 501 626 512 C599 531 532 552 452 552 C277 552 157 475 69 285 L69 285 Z " />
<glyph glyph-name="egrave" unicode="&#xe8;" horiz-adv-x="600" d="M322 128 C258 128 218 151 235 196 L238 204 L536 204 C559 204 575 215 586 238 L608 286 C626 326 635 364 635 398 C635 490 568 552 442 552 C273 552 154 466 69 285 C49 242 37 196 37 152 C37 53 124 -12 266 -12 C342 -12 410 6 456 27 C480 38 487 44 490 65 L499 136 C502 157 487 165 469 158 C423 140 375 128 322 128 L322 128 Z M406 412 C443 411 456 394 456 370 C456 355 450 337 443 319 L440 312 L279 312 C318 381 354 413 406 412 L406 412 Z M569 710 C570 724 567 732 547 732 L409 732 C387 732 380 710 387 698 L436 612 C442 601 448 596 468 596 L537 596 C556 596 563 606 564 621 L569 710 Z " />
<glyph glyph-name="eacute" unicode="&#xe9;" horiz-adv-x="600" d="M322 128 C258 128 218 151 235 196 L238 204 L536 204 C559 204 575 215 586 238 L608 286 C626 326 635 364 635 398 C635 490 568 552 442 552 C273 552 154 466 69 285 C49 242 37 196 37 152 C37 53 124 -12 266 -12 C342 -12 410 6 456 27 C480 38 487 44 490 65 L499 136 C502 157 487 165 469 158 C423 140 375 128 322 128 L322 128 Z M406 412 C443 411 456 394 456 370 C456 355 450 337 443 319 L440 312 L279 312 C318 381 354 413 406 412 L406 412 Z M420 624 C410 612 413 596 429 596 L514 596 C534 596 536 598 549 607 L679 697 C697 709 692 732 670 732 L533 732 C513 732 506 726 496 715 L420 624 Z " />
<glyph glyph-name="ecircumflex" unicode="&#xea;" horiz-adv-x="600" d="M322 128 C258 128 218 151 235 196 L238 204 L536 204 C559 204 575 215 586 238 L608 286 C626 326 635 364 635 398 C635 490 568 552 442 552 C273 552 154 466 69 285 C49 242 37 196 37 152 C37 53 124 -12 266 -12 C342 -12 410 6 456 27 C480 38 487 44 490 65 L499 136 C502 157 487 165 469 158 C423 140 375 128 322 128 L322 128 Z M406 412 C443 411 456 394 456 370 C456 355 450 337 443 319 L440 312 L279 312 C318 381 354 413 406 412 L406 412 Z M565 611 C570 603 576 596 594 596 L654 596 C674 596 678 612 673 625 L634 733 C629 748 620 754 598 754 L517 754 C492 754 490 750 475 739 L330 627 C317 617 321 596 339 596 L398 596 C416 596 422 601 435 609 L525 665 L565 611 Z " />
<glyph glyph-name="edieresis" unicode="&#xeb;" horiz-adv-x="600" d="M322 128 C258 128 218 151 235 196 L238 204 L536 204 C559 204 575 215 586 238 L608 286 C626 326 635 364 635 398 C635 490 568 552 442 552 C273 552 154 466 69 285 C49 242 37 196 37 152 C37 53 124 -12 266 -12 C342 -12 410 6 456 27 C480 38 487 44 490 65 L499 136 C502 157 487 165 469 158 C423 140 375 128 322 128 L322 128 Z M406 412 C443 411 456 394 456 370 C456 355 450 337 443 319 L440 312 L279 312 C318 381 354 413 406 412 L406 412 Z M308 633 C298 613 306 596 327 596 L432 596 C454 596 461 602 471 623 L498 680 C508 700 500 717 479 717 L374 717 C352 717 345 711 335 689 L308 633 Z M532 633 C522 613 530 596 551 596 L656 596 C678 596 685 602 695 623 L722 680 C732 700 724 717 703 717 L598 717 C576 717 569 711 559 689 L532 633 Z " />
<glyph glyph-name="igrave" unicode="&#xec;" horiz-adv-x="320" d="M-23 38 C-33 17 -25 0 -3 0 L141 0 C163 0 170 6 180 28 L403 502 C413 523 405 540 383 540 L239 540 C217 540 210 534 200 512 L-23 38 Z M419 710 C420 724 417 732 397 732 L259 732 C237 732 230 710 237 698 L286 612 C292 601 298 596 318 596 L387 596 C406 596 413 606 414 621 L419 710 Z " />
<glyph glyph-name="iacute" unicode="&#xed;" horiz-adv-x="320" d="M-23 38 C-33 17 -25 0 -3 0 L141 0 C163 0 170 6 180 28 L403 502 C413 523 405 540 383 540 L239 540 C217 540 210 534 200 512 L-23 38 Z M291 624 C281 612 284 596 300 596 L385 596 C405 596 407 598 420 607 L550 697 C568 709 563 732 541 732 L404 732 C384 732 377 726 367 715 L291 624 Z " />
<glyph glyph-name="icircumflex" unicode="&#xee;" horiz-adv-x="320" d="M-23 38 C-33 17 -25 0 -3 0 L141 0 C163 0 170 6 180 28 L403 502 C413 523 405 540 383 540 L239 540 C217 540 210 534 200 512 L-23 38 Z M421 611 C426 603 432 596 450 596 L510 596 C530 596 534 612 529 625 L490 733 C485 748 476 754 454 754 L373 754 C348 754 346 750 331 739 L186 627 C173 617 177 596 195 596 L254 596 C272 596 278 601 291 609 L381 665 L421 611 Z " />
<glyph glyph-name="idieresis" unicode="&#xef;" horiz-adv-x="320" d="M-23 38 C-33 17 -25 0 -3 0 L141 0 C163 0 170 6 180 28 L403 502 C413 523 405 540 383 540 L239 540 C217 540 210 534 200 512 L-23 38 Z M164 633 C154 613 162 596 183 596 L288 596 C310 596 317 602 327 623 L354 680 C364 700 356 717 335 717 L230 717 C208 717 201 711 191 689 L164 633 Z M388 633 C378 613 386 596 407 596 L512 596 C534 596 541 602 551 623 L578 680 C588 700 580 717 559 717 L454 717 C432 717 425 711 415 689 L388 633 Z " />
<glyph glyph-name="eth" unicode="&#xf0;" horiz-adv-x="622" d="M722 571 C742 571 746 574 754 591 L770 624 C776 637 773 652 753 652 L653 652 L636 697 C630 711 625 714 608 714 L466 714 C452 714 444 694 453 683 L478 652 L419 652 C399 652 395 649 387 632 L371 599 C365 586 368 571 388 571 L510 571 C516 553 520 535 521 521 C505 533 454 537 418 537 C200 537 33 338 33 159 C33 53 106 -12 238 -12 C414 -12 531 76 624 276 C658 349 677 423 677 498 C677 522 675 547 671 571 L722 571 Z M289 144 C250 144 234 163 243 220 C249 258 307 396 399 396 C437 396 449 379 442 334 C432 270 370 144 289 144 L289 144 Z " />
<glyph glyph-name="ntilde" unicode="&#xf1;" horiz-adv-x="627" d="M629 309 C652 359 669 410 669 452 C669 510 637 552 550 552 C462 552 411 511 380 479 L385 509 C388 528 382 540 358 540 L231 540 C209 540 202 534 192 512 L-30 38 C-40 17 -32 0 -10 0 L134 0 C156 0 163 6 173 28 L301 300 C324 349 354 382 398 382 C423 382 431 368 431 350 C431 335 425 317 419 305 L294 38 C284 17 292 0 314 0 L458 0 C480 0 487 6 497 28 L629 309 Z M525 723 C508 730 486 737 461 737 C394 737 348 699 317 635 C304 608 313 596 335 596 L376 596 C394 596 401 599 410 613 L416 622 C423 633 434 637 447 637 C459 637 472 634 486 627 L532 607 C549 600 571 593 596 593 C663 593 709 631 740 695 C753 722 744 734 722 734 L681 734 C663 734 656 731 647 717 L641 708 C634 697 623 693 610 693 C598 693 585 697 571 703 L525 723 Z " />
<glyph glyph-name="ograve" unicode="&#xf2;" horiz-adv-x="620" d="M617 262 C639 310 649 359 649 395 C649 491 567 552 447 552 C269 552 153 467 65 278 C43 230 33 181 33 145 C33 49 115 -12 235 -12 C413 -12 529 73 617 262 L617 262 Z M272 270 C314 359 347 396 395 396 C421 396 436 381 436 357 C436 325 424 296 410 270 C368 181 335 144 287 144 C261 144 246 159 246 183 C246 215 258 244 272 270 L272 270 Z M569 710 C570 724 567 732 547 732 L409 732 C387 732 380 710 387 698 L436 612 C442 601 448 596 468 596 L537 596 C556 596 563 606 564 621 L569 710 Z " />
<glyph glyph-name="oacute" unicode="&#xf3;" horiz-adv-x="620" d="M617 262 C639 310 649 359 649 395 C649 491 567 552 447 552 C269 552 153 467 65 278 C43 230 33 181 33 145 C33 49 115 -12 235 -12 C413 -12 529 73 617 262 L617 262 Z M272 270 C314 359 347 396 395 396 C421 396 436 381 436 357 C436 325 424 296 410 270 C368 181 335 144 287 144 C261 144 246 159 246 183 C246 215 258 244 272 270 L272 270 Z M440 624 C430 612 433 596 449 596 L534 596 C554 596 556 598 569 607 L699 697 C717 709 712 732 690 732 L553 732 C533 732 526 726 516 715 L440 624 Z " />
<glyph glyph-name="ocircumflex" unicode="&#xf4;" horiz-adv-x="620" d="M567 611 C572 603 578 596 596 596 L650 596 C670 596 684 614 678 627 L640 733 C635 748 626 754 600 754 L528 754 C502 754 493 748 474 733 L336 627 C320 614 318 596 338 596 L396 596 C414 596 424 603 437 611 L527 665 L567 611 Z M617 262 C639 310 649 359 649 395 C649 491 567 552 447 552 C269 552 153 467 65 278 C43 230 33 181 33 145 C33 49 115 -12 235 -12 C413 -12 529 73 617 262 L617 262 Z M272 270 C314 359 347 396 395 396 C421 396 436 381 436 357 C436 325 424 296 410 270 C368 181 335 144 287 144 C261 144 246 159 246 183 C246 215 258 244 272 270 L272 270 Z " />
<glyph glyph-name="otilde" unicode="&#xf5;" horiz-adv-x="620" d="M617 262 C639 310 649 359 649 395 C649 491 567 552 447 552 C269 552 153 467 65 278 C43 230 33 181 33 145 C33 49 115 -12 235 -12 C413 -12 529 73 617 262 L617 262 Z M272 270 C314 359 347 396 395 396 C421 396 436 381 436 357 C436 325 424 296 410 270 C368 181 335 144 287 144 C261 144 246 159 246 183 C246 215 258 244 272 270 L272 270 Z M522 723 C505 730 483 737 458 737 C391 737 345 699 314 635 C301 608 310 596 332 596 L373 596 C391 596 398 599 407 613 L413 622 C420 633 431 637 444 637 C456 637 469 634 483 627 L529 607 C546 600 568 593 593 593 C660 593 706 631 737 695 C750 722 741 734 719 734 L678 734 C660 734 653 731 644 717 L638 708 C631 697 620 693 607 693 C595 693 582 697 568 703 L522 723 Z " />
<glyph glyph-name="odieresis" unicode="&#xf6;" horiz-adv-x="620" d="M617 262 C639 310 649 359 649 395 C649 491 567 552 447 552 C269 552 153 467 65 278 C43 230 33 181 33 145 C33 49 115 -12 235 -12 C413 -12 529 73 617 262 L617 262 Z M272 270 C314 359 347 396 395 396 C421 396 436 381 436 357 C436 325 424 296 410 270 C368 181 335 144 287 144 C261 144 246 159 246 183 C246 215 258 244 272 270 L272 270 Z M314 633 C304 613 312 596 333 596 L438 596 C460 596 467 602 477 623 L504 680 C514 700 506 717 485 717 L380 717 C358 717 351 711 341 689 L314 633 Z M538 633 C528 613 536 596 557 596 L662 596 C684 596 691 602 701 623 L728 680 C738 700 730 717 709 717 L604 717 C582 717 575 711 565 689 L538 633 Z " />
<glyph glyph-name="divide" unicode="&#xf7;" horiz-adv-x="612" d="M102 315 C92 295 100 278 121 278 L571 278 C593 278 600 284 610 305 L646 383 C656 403 648 420 627 420 L177 420 C155 420 148 414 138 392 L102 315 Z M355 510 C345 490 353 473 374 473 L500 473 C522 473 529 479 539 500 L591 612 C601 632 593 649 572 649 L446 649 C424 649 417 643 407 621 L355 510 Z M157 86 C147 66 155 49 176 49 L302 49 C324 49 331 55 341 76 L393 188 C403 208 395 225 374 225 L248 225 C226 225 219 219 209 197 L157 86 Z " />
<glyph glyph-name="oslash" unicode="&#xf8;" horiz-adv-x="624" d="M617 262 C639 310 649 359 649 395 C649 409 647 423 643 436 L712 485 C724 493 726 502 717 512 L689 545 C681 554 673 555 662 546 L601 502 C565 534 512 552 447 552 C269 552 153 467 65 278 C43 230 33 181 33 145 C33 128 35 113 40 99 L-21 55 C-33 47 -35 38 -26 28 L2 -5 C10 -14 18 -15 29 -7 L85 33 C120 4 172 -12 235 -12 C413 -12 529 73 617 262 L617 262 Z M272 270 C314 359 347 396 395 396 C413 396 426 388 432 376 L265 255 C267 260 269 265 272 270 L272 270 Z M287 144 C271 144 259 149 252 159 L412 274 C411 272 410 271 410 270 C368 181 335 144 287 144 L287 144 Z " />
<glyph glyph-name="ugrave" unicode="&#xf9;" horiz-adv-x="622" d="M452 0 C474 0 481 6 491 28 L713 502 C723 523 715 540 693 540 L549 540 C527 540 520 534 510 512 L380 234 C359 189 327 154 280 154 C250 154 245 169 252 194 C254 203 258 213 264 225 L393 502 C403 523 395 540 373 540 L229 540 C207 540 200 534 190 512 L42 196 C31 171 21 148 16 128 C10 107 7 89 7 73 C7 11 52 -12 132 -12 C201 -12 268 22 303 61 L298 26 C296 12 300 0 323 0 L452 0 Z M570 710 C571 724 568 732 548 732 L410 732 C388 732 381 710 388 698 L437 612 C443 601 449 596 469 596 L538 596 C557 596 564 606 565 621 L570 710 Z " />
<glyph glyph-name="uacute" unicode="&#xfa;" horiz-adv-x="622" d="M452 0 C474 0 481 6 491 28 L713 502 C723 523 715 540 693 540 L549 540 C527 540 520 534 510 512 L380 234 C359 189 327 154 280 154 C250 154 245 169 252 194 C254 203 258 213 264 225 L393 502 C403 523 395 540 373 540 L229 540 C207 540 200 534 190 512 L42 196 C31 171 21 148 16 128 C10 107 7 89 7 73 C7 11 52 -12 132 -12 C201 -12 268 22 303 61 L298 26 C296 12 300 0 323 0 L452 0 Z M441 624 C431 612 434 596 450 596 L535 596 C555 596 557 598 570 607 L700 697 C718 709 713 732 691 732 L554 732 C534 732 527 726 517 715 L441 624 Z " />
<glyph glyph-name="ucircumflex" unicode="&#xfb;" horiz-adv-x="622" d="M452 0 C474 0 481 6 491 28 L713 502 C723 523 715 540 693 540 L549 540 C527 540 520 534 510 512 L380 234 C359 189 327 154 280 154 C250 154 245 169 252 194 C254 203 258 213 264 225 L393 502 C403 523 395 540 373 540 L229 540 C207 540 200 534 190 512 L42 196 C31 171 21 148 16 128 C10 107 7 89 7 73 C7 11 52 -12 132 -12 C201 -12 268 22 303 61 L298 26 C296 12 300 0 323 0 L452 0 Z M572 611 C577 603 583 596 601 596 L661 596 C681 596 685 612 680 625 L641 733 C636 748 627 754 605 754 L524 754 C499 754 497 750 482 739 L337 627 C324 617 328 596 346 596 L405 596 C423 596 429 601 442 609 L532 665 L572 611 Z " />
<glyph glyph-name="udieresis" unicode="&#xfc;" horiz-adv-x="622" d="M452 0 C474 0 481 6 491 28 L713 502 C723 523 715 540 693 540 L549 540 C527 540 520 534 510 512 L380 234 C359 189 327 154 280 154 C250 154 245 169 252 194 C254 203 258 213 264 225 L393 502 C403 523 395 540 373 540 L229 540 C207 540 200 534 190 512 L42 196 C31 171 21 148 16 128 C10 107 7 89 7 73 C7 11 52 -12 132 -12 C201 -12 268 22 303 61 L298 26 C296 12 300 0 323 0 L452 0 Z M315 633 C305 613 313 596 334 596 L439 596 C461 596 468 602 478 623 L505 680 C515 700 507 717 486 717 L381 717 C359 717 352 711 342 689 L315 633 Z M539 633 C529 613 537 596 558 596 L663 596 C685 596 692 602 702 623 L729 680 C739 700 731 717 710 717 L605 717 C583 717 576 711 566 689 L539 633 Z " />
<glyph glyph-name="yacute" unicode="&#xfd;" horiz-adv-x="592" d="M710 487 C717 496 720 506 720 514 C720 529 709 540 692 540 L561 540 C538 540 522 530 508 509 L380 316 L297 183 L293 183 L323 316 L358 505 C362 528 352 540 327 540 L189 540 C165 540 155 528 153 505 L125 73 C123 44 111 30 69 30 C38 30 22 35 4 36 C-11 37 -23 34 -33 12 L-68 -65 C-76 -83 -71 -97 -52 -103 C-30 -110 26 -120 84 -120 C233 -120 271 -75 373 56 L710 487 Z M416 624 C406 612 409 596 425 596 L510 596 C530 596 532 598 545 607 L675 697 C693 709 688 732 666 732 L529 732 C509 732 502 726 492 715 L416 624 Z " />
<glyph glyph-name="thorn" unicode="&#xfe;" horiz-adv-x="642" d="M309 708 C287 708 280 702 270 680 L-80 -72 C-90 -93 -82 -110 -60 -110 L83 -110 C105 -110 112 -104 122 -82 L183 48 C192 9 246 -12 320 -12 C457 -12 550 69 634 256 C658 309 679 369 679 421 C679 488 637 552 541 552 C488 552 429 533 390 492 L473 670 C483 691 475 708 453 708 L309 708 Z M285 271 C327 361 364 394 412 394 C443 394 456 376 456 352 C456 323 439 289 430 270 C387 179 352 146 304 146 C277 146 257 159 257 187 C257 218 273 246 285 271 L285 271 Z " />
<glyph glyph-name="ydieresis" unicode="&#xff;" horiz-adv-x="592" d="M492 683 C502 706 495 717 472 717 L372 717 C349 717 334 706 324 683 L299 630 C289 607 295 596 318 596 L418 596 C441 596 457 607 467 630 L492 683 Z M716 683 C726 706 719 717 696 717 L596 717 C573 717 558 706 548 683 L523 630 C513 607 519 596 542 596 L642 596 C665 596 681 607 691 630 L716 683 Z M710 487 C717 496 720 506 720 514 C720 529 709 540 692 540 L561 540 C538 540 522 530 508 509 L380 316 L297 183 L293 183 L323 316 L358 505 C362 528 352 540 327 540 L189 540 C165 540 155 528 153 505 L125 73 C123 44 111 30 69 30 C38 30 22 35 4 36 C-11 37 -23 34 -33 12 L-68 -65 C-76 -83 -71 -97 -52 -103 C-30 -110 26 -120 84 -120 C233 -120 271 -75 373 56 L710 487 Z " />
<glyph glyph-name="dotlessi" unicode="&#x131;" horiz-adv-x="320" d="M-23 38 C-33 17 -25 0 -3 0 L141 0 C163 0 170 6 180 28 L403 502 C413 523 405 540 383 540 L239 540 C217 540 210 534 200 512 L-23 38 Z " />
<glyph glyph-name="Lslash" unicode="&#x141;" horiz-adv-x="562" d="M266 192 L359 392 L535 473 C548 479 551 485 550 500 L547 534 C546 550 533 551 520 545 L406 493 L489 670 C499 692 490 708 466 708 L316 708 C293 708 286 701 275 678 L129 366 L56 332 C42 326 39 320 41 306 L45 272 C46 256 59 255 72 261 L83 266 L-23 38 C-33 16 -24 0 0 0 L406 0 C429 0 436 7 447 30 L505 154 C515 176 506 192 482 192 L266 192 Z " />
<glyph glyph-name="lslash" unicode="&#x142;" horiz-adv-x="316" d="M-24 38 C-34 17 -26 0 -4 0 L140 0 C162 0 169 6 179 28 L347 388 L420 422 C433 428 436 434 435 449 L432 482 C431 495 420 500 409 495 L394 488 L479 670 C489 691 481 708 459 708 L315 708 C293 708 286 702 276 680 L129 366 L56 332 C42 326 39 320 41 306 L45 271 C46 259 56 253 68 259 L82 265 L-24 38 Z " />
<glyph glyph-name="OE" unicode="&#x152;" horiz-adv-x="936" d="M757 445 L796 528 L1020 528 C1043 528 1050 535 1061 558 L1113 670 C1123 692 1114 708 1090 708 L606 708 C369 708 222 608 121 359 C95 295 80 233 80 169 C80 58 171 0 331 0 L780 0 C803 0 810 7 821 30 L873 142 C883 164 874 180 850 180 L633 180 L677 273 L886 273 C909 273 916 280 927 303 L975 407 C985 429 976 445 952 445 L757 445 Z M402 188 C342 188 313 205 313 249 C313 288 328 321 342 354 C403 485 462 520 556 520 L577 520 L423 188 L402 188 Z " />
<glyph glyph-name="oe" unicode="&#x153;" horiz-adv-x="930" d="M652 128 C588 128 548 151 565 196 L568 204 L866 204 C889 204 905 215 916 238 L938 286 C956 326 965 364 965 398 C965 490 898 552 772 552 C695 552 635 534 586 497 C558 532 509 552 432 552 C281 552 153 467 65 278 C43 230 33 181 33 145 C33 49 115 -12 235 -12 C319 -12 381 7 433 47 C462 9 514 -12 596 -12 C672 -12 740 6 786 27 C810 38 817 44 820 65 L829 136 C832 157 817 165 799 158 C753 140 705 128 652 128 L652 128 Z M272 270 C314 359 347 396 395 396 C421 396 436 381 436 357 C436 325 424 296 410 270 C368 181 335 144 287 144 C261 144 246 159 246 183 C246 215 258 244 272 270 L272 270 Z M736 412 C773 411 786 394 786 370 C786 355 780 337 773 319 L770 312 L609 312 C648 381 684 413 736 412 L736 412 Z " />
<glyph glyph-name="Scaron" unicode="&#x160;" horiz-adv-x="606" d="M549 901 C543 908 538 916 520 916 L460 916 C440 916 436 900 441 887 L484 779 C490 764 498 758 520 758 L601 758 C626 758 628 762 643 773 L792 885 C805 895 801 916 783 916 L724 916 C706 916 700 911 687 903 L593 847 L549 901 Z M599 283 C599 361 538 396 467 428 C422 448 397 464 397 488 C397 535 445 540 494 540 C536 540 583 532 616 519 C637 511 648 511 667 534 L741 621 C756 639 758 655 743 666 C713 688 632 719 523 719 C333 719 163 624 163 437 C163 350 225 308 292 282 C341 263 366 253 366 224 C366 178 302 168 242 168 C182 168 146 182 118 196 C99 206 81 203 63 182 L-13 92 C-28 75 -28 56 -13 46 C26 19 112 -11 220 -11 C412 -11 599 83 599 283 L599 283 Z " />
<glyph glyph-name="scaron" unicode="&#x161;" horiz-adv-x="500" d="M461 212 C461 265 423 294 366 322 C337 337 313 352 313 367 C313 406 361 407 386 407 C421 407 453 401 475 394 C495 388 508 390 523 410 L576 480 C589 497 583 513 569 520 C537 536 466 552 403 552 C236 552 98 486 98 318 C98 254 153 231 200 211 C237 195 252 185 252 169 C252 141 218 133 160 133 C117 133 88 141 66 149 C46 156 31 152 16 132 L-33 68 C-46 51 -47 33 -29 25 C5 10 71 -12 149 -12 C327 -12 461 46 461 212 L461 212 Z M429 739 C424 747 418 754 400 754 L340 754 C320 754 316 738 321 725 L360 617 C365 602 374 596 396 596 L477 596 C502 596 504 600 519 611 L664 723 C677 733 673 754 655 754 L596 754 C578 754 572 749 559 741 L469 685 L429 739 Z " />
<glyph glyph-name="Ydieresis" unicode="&#x178;" horiz-adv-x="696" d="M484 261 L891 663 C913 685 910 708 886 708 L733 708 C708 708 690 695 672 675 L526 516 L454 429 L450 429 L458 516 L462 675 C462 695 452 708 427 708 L276 708 C252 708 231 685 233 663 L266 261 L161 36 C149 11 157 0 182 0 L328 0 C353 0 367 11 379 36 L484 261 Z M425 795 C415 775 423 758 444 758 L551 758 C573 758 580 764 590 785 L617 842 C627 862 619 879 598 879 L491 879 C469 879 462 873 452 851 L425 795 Z M652 795 C642 775 650 758 671 758 L778 758 C800 758 807 764 817 785 L844 842 C854 862 846 879 825 879 L718 879 C696 879 689 873 679 851 L652 795 Z " />
<glyph glyph-name="Zcaron" unicode="&#x17d;" horiz-adv-x="632" d="M566 901 C560 908 555 916 537 916 L477 916 C457 916 453 900 458 887 L501 779 C507 764 515 758 537 758 L618 758 C643 758 645 762 660 773 L809 885 C822 895 818 916 800 916 L741 916 C723 916 717 911 704 903 L610 847 L566 901 Z M-35 38 C-45 16 -36 0 -12 0 L467 0 C490 0 497 7 508 30 L565 154 C575 176 566 192 542 192 L293 192 L706 511 C727 527 735 537 745 558 L797 670 C807 692 798 708 774 708 L314 708 C291 708 284 701 273 678 L216 554 C206 532 215 516 239 516 L469 516 L59 200 C38 184 27 171 17 150 L-35 38 Z " />
<glyph glyph-name="zcaron" unicode="&#x17e;" horiz-adv-x="550" d="M649 502 C659 523 651 540 629 540 L227 540 C205 540 198 534 188 512 L144 418 C134 397 142 380 164 380 L352 380 L23 146 C8 135 1 130 -10 108 L-46 34 C-55 11 -47 0 -24 0 L394 0 C416 0 423 6 433 28 L478 122 C488 143 480 160 458 160 L255 160 L576 389 C595 403 608 414 618 436 L649 502 Z M453 739 C448 747 442 754 424 754 L364 754 C344 754 340 738 345 725 L384 617 C389 602 398 596 420 596 L501 596 C526 596 528 600 543 611 L688 723 C701 733 697 754 679 754 L620 754 C602 754 596 749 583 741 L493 685 L453 739 Z " />
<glyph glyph-name="florin" unicode="&#x192;" horiz-adv-x="650" d="M229 398 C211 398 206 395 196 380 L171 340 C161 323 168 313 185 313 L262 313 L119 71 C102 43 86 32 67 32 C52 32 48 35 37 35 C20 35 6 30 -8 6 L-54 -71 C-64 -88 -59 -100 -42 -107 C-24 -115 20 -120 56 -120 C188 -120 243 -71 314 51 L470 313 L575 313 C593 313 599 316 608 331 L633 371 C643 388 636 398 619 398 L520 398 L600 532 C616 560 636 572 672 572 C681 572 696 569 711 569 C728 569 741 573 754 596 L796 668 C806 685 804 696 786 704 C770 711 728 718 675 718 C547 718 480 680 408 558 L313 398 L229 398 Z " />
<glyph glyph-name="circumflex" unicode="&#x2c6;" horiz-adv-x="380" d="M451 611 C456 603 462 596 480 596 L540 596 C560 596 564 612 559 625 L520 733 C515 748 506 754 484 754 L403 754 C378 754 376 750 361 739 L216 627 C203 617 207 596 225 596 L284 596 C302 596 308 601 321 609 L411 665 L451 611 Z " />
<glyph glyph-name="caron" unicode="&#x2c7;" horiz-adv-x="380" d="M368 739 C363 747 357 754 339 754 L279 754 C259 754 255 738 260 725 L299 617 C304 602 313 596 335 596 L416 596 C441 596 443 600 458 611 L603 723 C616 733 612 754 594 754 L535 754 C517 754 511 749 498 741 L408 685 L368 739 Z " />
<glyph glyph-name="breve" unicode="&#x2d8;" horiz-adv-x="380" d="M389 590 C514 590 590 658 615 734 C621 752 614 760 596 760 L548 760 C530 760 522 750 512 735 C492 704 461 682 413 682 C367 682 355 699 364 735 C368 750 358 760 340 760 L292 760 C274 760 268 755 260 740 C251 723 247 706 247 689 C247 636 294 590 389 590 L389 590 Z " />
<glyph glyph-name="dotaccent" unicode="&#x2d9;" horiz-adv-x="380" d="M516 692 C527 715 519 726 496 726 L368 726 C345 726 331 715 320 692 L289 627 C278 604 285 593 308 593 L436 593 C459 593 474 604 485 627 L516 692 Z " />
<glyph glyph-name="ring" unicode="&#x2da;" horiz-adv-x="380" d="M407 658 C384 658 369 672 369 692 C369 730 411 756 443 756 C467 756 480 743 480 723 C480 684 441 658 407 658 L407 658 Z M464 824 C377 824 291 760 291 670 C291 623 332 590 388 590 C475 590 559 654 559 745 C559 792 519 824 464 824 L464 824 Z " />
<glyph glyph-name="ogonek" unicode="&#x2db;" horiz-adv-x="380" d="M107 10 C29 -2 -64 -49 -64 -127 C-64 -167 -23 -189 28 -189 C68 -189 92 -182 112 -172 C123 -167 130 -159 132 -148 L139 -105 C140 -96 137 -90 128 -90 C118 -90 113 -94 96 -94 C77 -94 67 -87 67 -76 C67 -38 137 0 165 10 L107 10 Z " />
<glyph glyph-name="tilde" unicode="&#x2dc;" horiz-adv-x="380" d="M402 723 C385 730 363 737 338 737 C271 737 225 699 194 635 C181 608 190 596 212 596 L253 596 C271 596 278 599 287 613 L293 622 C300 633 311 637 324 637 C336 637 349 634 363 627 L409 607 C426 600 448 593 473 593 C540 593 586 631 617 695 C630 722 621 734 599 734 L558 734 C540 734 533 731 524 717 L518 708 C511 697 500 693 487 693 C475 693 462 697 448 703 L402 723 Z " />
<glyph glyph-name="hungarumlaut" unicode="&#x2dd;" horiz-adv-x="380" d="M217 625 C206 610 215 596 234 596 L304 596 C324 596 328 598 343 610 L456 696 C474 710 470 732 448 732 L325 732 C305 732 298 728 287 714 L217 625 Z M427 625 C416 610 425 596 444 596 L514 596 C534 596 538 598 553 610 L666 696 C684 710 680 732 658 732 L535 732 C515 732 508 728 497 714 L427 625 Z " />
<glyph glyph-name="uni03A9" unicode="&#x3a9;" horiz-adv-x="806" d="M275 0 L343 151 C350 166 348 176 340 182 C317 202 306 232 306 263 C306 390 427 543 556 543 C616 543 653 514 653 464 C653 351 541 226 446 182 C434 176 419 165 413 151 L345 0 L617 0 C640 0 647 7 658 30 L704 130 C713 150 703 163 678 159 L574 143 L583 164 C733 234 878 350 878 518 C878 640 775 720 599 720 C365 720 128 564 128 311 C128 247 147 189 185 164 L176 143 L82 160 C57 165 46 159 36 138 L-10 38 C-20 16 -11 0 13 0 L275 0 Z " />
<glyph glyph-name="pi" unicode="&#x3c0;" horiz-adv-x="770" d="M779 374 C801 374 808 380 818 402 L865 502 C875 523 867 540 845 540 L215 540 C193 540 186 534 176 512 L129 412 C119 391 127 374 149 374 L215 374 L-8 39 C-20 21 -17 0 7 0 L139 0 C163 0 171 7 183 25 L412 374 L497 374 L402 171 C388 140 376 109 376 76 C376 16 424 -10 513 -10 C553 -10 577 -7 600 -2 C624 3 633 7 644 30 L686 116 C696 137 688 145 671 145 C656 145 642 142 633 142 C598 142 590 153 605 186 L693 374 L779 374 Z " />
<glyph glyph-name="endash" unicode="&#x2013;" horiz-adv-x="558" d="M57 245 C47 225 55 208 76 208 L496 208 C518 208 525 214 535 235 L581 333 C591 353 583 370 562 370 L142 370 C120 370 113 364 103 342 L57 245 Z " />
<glyph glyph-name="emdash" unicode="&#x2014;" horiz-adv-x="786" d="M57 245 C47 225 55 208 76 208 L724 208 C746 208 753 214 763 235 L809 333 C819 353 811 370 790 370 L142 370 C120 370 113 364 103 342 L57 245 Z " />
<glyph glyph-name="quoteleft" unicode="&#x2018;" horiz-adv-x="280" d="M396 542 C406 562 398 579 377 579 L339 579 L435 685 C446 697 441 712 426 712 L385 712 C369 712 366 709 356 700 L229 576 C215 563 211 557 203 539 L157 440 C148 420 155 403 176 403 L305 403 C327 403 334 409 344 431 L396 542 Z " />
<glyph glyph-name="quoteright" unicode="&#x2019;" horiz-adv-x="280" d="M213 569 C203 549 211 532 232 532 L270 532 L174 426 C163 414 168 399 183 399 L224 399 C240 399 243 402 253 411 L380 535 C394 548 398 554 406 572 L452 671 C461 691 454 708 433 708 L304 708 C282 708 275 702 265 680 L213 569 Z " />
<glyph glyph-name="quotesinglbase" unicode="&#x201a;" horiz-adv-x="280" d="M-35 37 C-44 17 -37 0 -16 0 L22 0 L-74 -106 C-85 -118 -80 -133 -65 -133 L-24 -133 C-8 -133 -5 -130 5 -121 L132 3 C146 16 150 22 158 40 L204 139 C213 159 206 176 185 176 L56 176 C34 176 27 170 17 148 L-35 37 Z " />
<glyph glyph-name="quotedblleft" unicode="&#x201c;" horiz-adv-x="526" d="M396 542 C405 562 398 579 377 579 L339 579 L435 685 C446 697 441 712 426 712 L385 712 C369 712 366 709 356 700 L229 576 C215 563 211 557 203 539 L157 440 C148 420 155 403 176 403 L305 403 C327 403 334 409 344 431 L396 542 Z M643 542 C652 562 645 579 624 579 L586 579 L682 685 C693 697 688 712 673 712 L632 712 C616 712 613 709 603 700 L476 576 C462 563 458 557 450 539 L404 440 C395 420 402 403 423 403 L552 403 C574 403 581 409 591 431 L643 542 Z " />
<glyph glyph-name="quotedblright" unicode="&#x201d;" horiz-adv-x="526" d="M460 569 C451 549 458 532 479 532 L517 532 L421 426 C410 414 415 399 430 399 L471 399 C487 399 490 402 500 411 L627 535 C641 548 645 554 653 572 L699 671 C708 691 701 708 680 708 L551 708 C529 708 522 702 512 680 L460 569 Z M213 569 C204 549 211 532 232 532 L270 532 L174 426 C163 414 168 399 183 399 L224 399 C240 399 243 402 253 411 L380 535 C394 548 398 554 406 572 L452 671 C461 691 454 708 433 708 L304 708 C282 708 275 702 265 680 L213 569 Z " />
<glyph glyph-name="quotedblbase" unicode="&#x201e;" horiz-adv-x="526" d="M212 37 C203 17 210 0 231 0 L269 0 L173 -106 C162 -118 167 -133 182 -133 L223 -133 C239 -133 242 -130 252 -121 L379 3 C393 16 397 22 405 40 L451 139 C460 159 453 176 432 176 L303 176 C281 176 274 170 264 148 L212 37 Z M-35 37 C-44 17 -37 0 -16 0 L22 0 L-74 -106 C-85 -118 -80 -133 -65 -133 L-24 -133 C-8 -133 -5 -130 5 -121 L132 3 C146 16 150 22 158 40 L204 139 C213 159 206 176 185 176 L56 176 C34 176 27 170 17 148 L-35 37 Z " />
<glyph glyph-name="dagger" unicode="&#x2020;" horiz-adv-x="568" d="M127 418 C117 397 125 380 147 380 L261 380 L50 -72 C40 -93 48 -110 70 -110 L214 -110 C236 -110 243 -104 253 -82 L469 380 L596 380 C618 380 625 386 635 408 L684 512 C694 533 686 550 664 550 L549 550 L605 670 C615 691 607 708 585 708 L441 708 C419 708 412 702 402 680 L341 550 L215 550 C193 550 186 544 176 522 L127 418 Z " />
<glyph glyph-name="daggerdbl" unicode="&#x2021;" horiz-adv-x="568" d="M127 418 C117 397 125 380 147 380 L261 380 L185 218 L60 218 C38 218 31 212 21 190 L-28 86 C-38 65 -30 48 -8 48 L106 48 L50 -72 C40 -93 48 -110 70 -110 L214 -110 C236 -110 243 -104 253 -82 L314 48 L441 48 C463 48 470 54 480 76 L529 180 C539 201 531 218 509 218 L393 218 L469 380 L596 380 C618 380 625 386 635 408 L684 512 C694 533 686 550 664 550 L549 550 L605 670 C615 691 607 708 585 708 L441 708 C419 708 412 702 402 680 L341 550 L215 550 C193 550 186 544 176 522 L127 418 Z " />
<glyph glyph-name="bullet" unicode="&#x2022;" horiz-adv-x="452" d="M195 116 C309 116 436 226 436 336 C436 395 395 440 326 440 C211 440 86 330 86 219 C86 161 127 116 195 116 L195 116 Z " />
<glyph glyph-name="ellipsis" unicode="&#x2026;" horiz-adv-x="834" d="M-39 37 C-49 17 -41 0 -20 0 L116 0 C138 0 145 6 155 27 L214 153 C224 173 216 190 195 190 L59 190 C37 190 30 184 20 162 L-39 37 Z M239 37 C229 17 237 0 258 0 L394 0 C416 0 423 6 433 27 L492 153 C502 173 494 190 473 190 L337 190 C315 190 308 184 298 162 L239 37 Z M517 37 C507 17 515 0 536 0 L672 0 C694 0 701 6 711 27 L770 153 C780 173 772 190 751 190 L615 190 C593 190 586 184 576 162 L517 37 Z " />
<glyph glyph-name="perthousand" unicode="&#x2030;" horiz-adv-x="1448" d="M977 676 C991 690 987 708 966 708 L897 708 C874 708 863 703 848 688 L162 32 C148 18 152 0 173 0 L242 0 C265 0 276 5 291 20 L977 676 Z M175 509 C159 475 153 440 153 405 C153 334 204 290 287 290 C408 290 491 359 553 497 C568 531 575 567 575 602 C575 672 524 716 441 716 C323 716 240 646 175 509 L175 509 Z M406 503 C372 435 352 405 321 405 C305 405 295 412 295 430 C295 457 310 482 320 503 C352 572 375 601 406 601 C424 601 432 592 432 576 C432 549 416 524 406 503 L406 503 Z M590 211 C574 177 568 142 568 107 C568 36 619 -8 702 -8 C823 -8 906 61 968 199 C983 233 990 269 990 304 C990 374 939 418 856 418 C738 418 655 348 590 211 L590 211 Z M821 205 C787 137 767 107 736 107 C720 107 710 114 710 132 C710 159 725 184 735 205 C767 274 790 303 821 303 C839 303 847 294 847 278 C847 251 831 226 821 205 L821 205 Z M1026 211 C1010 177 1004 142 1004 107 C1004 36 1055 -8 1138 -8 C1259 -8 1342 61 1404 199 C1419 233 1426 269 1426 304 C1426 374 1375 418 1292 418 C1174 418 1091 348 1026 211 L1026 211 Z M1257 205 C1223 137 1203 107 1172 107 C1156 107 1146 114 1146 132 C1146 159 1161 184 1171 205 C1203 274 1226 303 1257 303 C1275 303 1283 294 1283 278 C1283 251 1267 226 1257 205 L1257 205 Z " />
<glyph glyph-name="guilsinglleft" unicode="&#x2039;" horiz-adv-x="332" d="M69 282 L84 142 C86 126 89 119 112 119 L240 119 C259 119 268 130 266 146 L249 300 L402 447 C418 463 412 481 393 481 L277 481 C256 481 248 476 237 465 L83 316 C70 304 69 295 69 284 L69 282 Z " />
<glyph glyph-name="guilsinglright" unicode="&#x203a;" horiz-adv-x="332" d="M351 300 C353 304 354 309 353 316 L338 458 C337 474 329 481 306 481 L189 481 C167 481 155 466 156 447 L173 300 L19 153 C-1 134 1 119 23 119 L140 119 C163 119 175 126 192 142 L339 284 C346 291 349 296 351 300 L351 300 Z " />
<glyph glyph-name="fraction" unicode="&#x2044;" horiz-adv-x="86" d="M518 674 C542 697 537 708 514 708 L440 708 C417 708 400 697 376 674 L-291 34 C-314 11 -311 0 -288 0 L-214 0 C-191 0 -172 11 -149 34 L518 674 Z " />
<glyph glyph-name="Euro" unicode="&#x20ac;" horiz-adv-x="662" d="M157 463 C139 463 134 460 127 445 L108 405 C100 388 109 378 126 378 L152 378 L144 359 L132 330 L94 330 C76 330 71 327 64 312 L45 272 C37 255 46 245 63 245 L106 245 C101 223 99 201 99 179 C99 52 197 -12 341 -12 C423 -12 483 3 538 31 C565 45 578 56 578 79 L578 180 C578 201 558 205 540 197 C508 183 472 176 431 176 C364 176 330 196 330 245 L457 245 C475 245 481 251 489 259 L530 303 C542 316 536 330 519 330 L351 330 C354 338 358 346 362 354 L373 378 L580 378 C598 378 604 384 612 392 L653 436 C665 449 659 463 642 463 L431 463 C475 510 527 532 596 532 C636 532 666 523 684 514 C705 503 720 506 737 525 L821 616 C838 634 837 649 822 663 C793 691 706 720 616 720 C443 720 303 644 196 463 L157 463 Z " />
<glyph glyph-name="trademark" unicode="&#x2122;" horiz-adv-x="824" d="M304 606 C322 606 330 615 330 633 L330 681 C330 699 322 708 304 708 L54 708 C36 708 28 699 28 681 L28 633 C28 615 36 606 54 606 L117 606 L117 401 C117 383 126 375 144 375 L214 375 C232 375 241 383 241 401 L241 606 L304 606 Z M574 444 C583 444 590 450 595 458 L651 543 L651 401 C651 383 660 375 678 375 L745 375 C763 375 772 383 772 401 L772 681 C772 699 764 708 746 708 L673 708 C659 708 650 701 644 692 L574 585 L504 692 C498 701 489 708 475 708 L402 708 C384 708 376 699 376 681 L376 401 C376 383 385 375 403 375 L470 375 C488 375 497 383 497 401 L497 543 L553 458 C558 450 565 444 574 444 L574 444 Z " />
<glyph glyph-name="Omega" unicode="&#x2126;" horiz-adv-x="806" d="M275 0 L343 151 C350 166 348 176 340 182 C317 202 306 232 306 263 C306 390 427 543 556 543 C616 543 653 514 653 464 C653 351 541 226 446 182 C434 176 419 165 413 151 L345 0 L617 0 C640 0 647 7 658 30 L704 130 C713 150 703 163 678 159 L574 143 L583 164 C733 234 878 350 878 518 C878 640 775 720 599 720 C365 720 128 564 128 311 C128 247 147 189 185 164 L176 143 L82 160 C57 165 46 159 36 138 L-10 38 C-20 16 -11 0 13 0 L275 0 Z " />
<glyph glyph-name="estimated" unicode="&#x212e;" horiz-adv-x="856" d="M820 335 L820 349 C820 548 651 708 430 708 C209 708 40 548 40 349 C40 152 213 -9 434 -9 C562 -9 673 46 745 130 L687 130 C624 57 538 21 435 21 C340 21 254 49 195 117 C190 123 187 131 187 146 L187 331 C187 334 189 335 192 335 L820 335 Z M673 365 C673 362 672 359 668 359 L192 359 C189 359 187 362 187 365 L187 552 C187 567 191 576 196 581 C259 646 336 678 431 678 C525 678 601 647 662 587 C670 578 673 571 673 551 L673 365 Z " />
<glyph glyph-name="partialdiff" unicode="&#x2202;" horiz-adv-x="668" d="M358 543 C388 549 427 554 456 554 C533 554 555 526 555 494 C555 472 547 450 537 434 C514 457 458 469 403 469 C219 469 29 328 29 144 C29 60 98 -12 238 -12 C502 -12 751 260 751 542 C751 655 681 720 535 720 C471 720 420 710 389 700 C360 691 354 682 347 659 L323 572 C316 548 325 536 358 543 L358 543 Z M296 156 C254 156 229 175 229 206 C229 285 318 332 385 332 C425 332 455 316 455 283 C455 208 360 156 296 156 L296 156 Z " />
<glyph glyph-name="Delta" unicode="&#x2206;" horiz-adv-x="700" d="M490 708 C467 708 458 703 447 689 L-41 40 C-56 20 -50 0 -25 0 L542 0 C570 0 584 14 588 36 L703 680 C706 696 701 708 678 708 L490 708 Z M500 528 L504 528 L416 163 L246 163 L500 528 Z " />
<glyph glyph-name="product" unicode="&#x220f;" horiz-adv-x="840" d="M1025 670 C1035 692 1026 708 1002 708 L294 708 C271 708 264 701 253 678 L205 574 C195 552 204 536 228 536 L292 536 L59 38 C49 16 58 0 82 0 L222 0 C245 0 252 7 263 30 L500 536 L650 536 L417 38 C407 16 416 0 440 0 L580 0 C603 0 610 7 621 30 L858 536 L936 536 C959 536 966 543 977 566 L1025 670 Z " />
<glyph glyph-name="summation" unicode="&#x2211;" horiz-adv-x="628" d="M708 536 C731 536 738 543 749 566 L798 670 C808 692 799 708 775 708 L312 708 C289 708 282 701 271 678 L226 582 C211 549 212 537 221 518 L322 300 L12 81 C-16 62 -28 50 -44 16 L-84 -72 C-94 -94 -85 -110 -61 -110 L414 -110 C437 -110 444 -103 455 -80 L505 24 C515 46 506 62 482 62 L221 62 L481 243 C491 251 496 257 502 269 L526 320 C531 331 529 342 525 349 L434 536 L708 536 Z " />
<glyph glyph-name="minus" unicode="&#x2212;" horiz-adv-x="630" d="M558 221 C580 221 587 227 597 248 L631 320 C641 340 633 357 612 357 L152 357 C130 357 123 351 113 329 L79 258 C69 238 77 221 98 221 L558 221 Z " />
<glyph glyph-name="radical" unicode="&#x221a;" horiz-adv-x="802" d="M188 344 L154 -33 C152 -55 159 -70 184 -70 L362 -70 C387 -70 401 -65 418 -42 L994 730 C1010 751 1003 769 980 769 L826 769 C807 769 794 765 779 743 L365 147 L360 147 L415 463 C419 486 412 498 385 498 L187 498 C165 498 158 492 148 470 L106 381 C96 361 104 344 125 344 L188 344 Z " />
<glyph glyph-name="infinity" unicode="&#x221e;" horiz-adv-x="742" d="M489 483 C479 508 436 534 370 534 C227 534 89 414 89 275 C89 217 135 171 230 171 C310 171 360 202 393 221 C402 196 445 170 511 170 C655 170 789 287 789 428 C789 486 746 533 649 533 C571 533 521 502 489 483 L489 483 Z M369 345 C341 306 310 275 270 275 C245 275 230 288 230 308 C230 373 310 446 371 446 C398 446 419 436 423 421 L369 345 Z M512 359 C539 398 574 429 614 429 C638 429 651 416 651 397 C651 332 574 258 513 258 C486 258 461 268 458 283 L512 359 Z " />
<glyph glyph-name="integral" unicode="&#x222b;" horiz-adv-x="512" d="M510 527 C524 555 539 566 558 566 C573 566 583 563 594 563 C611 563 618 567 625 583 L665 670 C673 688 669 698 651 705 C636 711 592 718 550 718 C426 718 375 682 318 560 L90 71 C76 43 61 32 42 32 C27 32 17 35 6 35 C-11 35 -18 31 -25 15 L-65 -72 C-73 -90 -69 -100 -51 -107 C-36 -113 8 -120 50 -120 C174 -120 225 -84 282 38 L510 527 Z " />
<glyph glyph-name="approxequal" unicode="&#x2248;" horiz-adv-x="612" d="M348 561 C269 561 217 514 182 439 C176 426 173 415 173 407 C173 392 182 385 199 385 L255 385 C276 385 282 390 292 408 L296 415 C303 427 314 433 333 433 C347 433 363 428 380 421 L433 398 C453 389 472 381 513 381 C592 381 644 428 679 503 C685 516 688 527 688 535 C688 550 679 557 662 557 L606 557 C585 557 579 552 569 534 L565 527 C558 515 547 509 528 509 C514 509 501 514 484 521 L431 544 C411 553 389 561 348 561 L348 561 Z M233 316 C154 316 102 269 67 194 C61 181 58 170 58 162 C58 147 67 140 84 140 L140 140 C161 140 167 145 177 163 L181 170 C188 182 199 188 218 188 C232 188 248 183 265 176 L318 153 C338 144 357 136 398 136 C477 136 529 183 564 258 C570 271 573 282 573 290 C573 305 564 312 547 312 L491 312 C470 312 464 307 454 289 L450 282 C443 270 432 264 413 264 C399 264 386 269 369 276 L316 299 C296 308 274 316 233 316 L233 316 Z " />
<glyph glyph-name="notequal" unicode="&#x2260;" horiz-adv-x="612" d="M52 187 C42 167 50 150 71 150 L124 150 L26 37 C12 22 17 0 41 0 L114 0 C139 0 145 5 160 22 L271 150 L500 150 C522 150 529 156 539 177 L580 265 C590 285 582 302 561 302 L404 302 L486 396 L615 396 C637 396 644 402 654 423 L695 511 C705 531 697 548 676 548 L618 548 L725 671 C739 686 734 708 710 708 L637 708 C612 708 606 703 591 686 L471 548 L247 548 C225 548 218 542 208 520 L167 433 C157 413 165 396 186 396 L339 396 L257 302 L132 302 C110 302 103 296 93 274 L52 187 Z " />
<glyph glyph-name="lessequal" unicode="&#x2264;" horiz-adv-x="612" d="M385 164 C397 149 408 147 426 161 L561 257 C579 271 580 285 568 300 L439 445 L718 598 C738 610 742 622 734 639 L696 720 C688 737 676 742 655 730 L199 473 C173 458 164 428 180 408 L385 164 Z M-11 37 C-21 17 -13 0 8 0 L412 0 C434 0 441 6 451 27 L478 85 C488 105 480 122 459 122 L55 122 C33 122 26 116 16 94 L-11 37 Z " />
<glyph glyph-name="greaterequal" unicode="&#x2265;" horiz-adv-x="612" d="M455 725 C443 740 432 742 414 728 L279 632 C261 618 260 604 272 589 L401 444 L122 291 C102 279 98 267 106 250 L144 169 C152 152 164 147 185 159 L641 416 C667 431 676 461 660 481 L455 725 Z M1 37 C-9 17 -1 0 20 0 L424 0 C446 0 453 6 463 27 L490 85 C500 105 492 122 471 122 L67 122 C45 122 38 116 28 94 L1 37 Z " />
<glyph glyph-name="lozenge" unicode="&#x25ca;" horiz-adv-x="700" d="M354 213 L309 354 L486 495 L531 354 L354 213 Z M248 -15 C258 -15 268 -11 283 0 L712 338 C724 348 731 360 726 374 L612 708 C608 719 602 723 592 723 C582 723 572 719 558 708 L129 370 C118 362 110 350 115 335 L229 0 C233 -11 238 -15 248 -15 L248 -15 Z " />
<glyph glyph-name="uniF8FF" unicode="&#xf8ff;" horiz-adv-x="1300" d="M258 483 C258 489 246 493 236 497 C217 503 201 509 201 529 C201 546 216 559 241 559 C260 559 280 547 282 526 L257 526 C257 532 248 538 240 538 C230 538 226 534 226 529 C226 523 236 521 245 517 C265 510 282 503 282 484 C282 463 264 452 241 452 C219 452 200 465 198 487 L224 487 C225 478 234 473 243 473 C252 473 258 477 258 483 L258 483 Z M373 536 L342 536 L342 454 L317 454 L317 536 L286 536 L286 558 L373 558 L373 536 Z M465 454 L439 454 L430 471 L388 471 L379 454 L355 454 L400 558 L419 558 L465 454 Z M421 493 L410 523 L397 493 L421 493 Z M559 488 L581 558 L608 558 L574 454 L550 454 L526 519 L503 454 L479 454 L445 558 L471 558 L492 488 L517 558 L536 558 L559 488 Z M640 454 L614 454 L614 558 L640 558 L640 454 Z M698 488 L673 454 L645 454 L683 507 L647 558 L676 558 L698 527 L720 558 L749 558 L713 507 L751 454 L723 454 L698 488 Z M229 375 L229 356 L277 356 L277 334 L229 334 L229 292 L204 292 L204 397 L278 397 L278 375 L229 375 Z M390 345 C390 315 368 290 338 290 C308 290 286 315 286 345 C286 374 308 398 338 398 C368 398 390 374 390 345 L390 345 Z M366 345 C366 364 353 376 338 376 C323 376 310 364 310 345 C310 325 323 314 338 314 C353 314 366 325 366 345 L366 345 Z M469 397 L493 397 L493 337 C493 309 477 290 447 290 C418 290 399 309 399 337 L399 397 L425 397 L425 337 C425 322 431 314 447 314 C462 314 469 322 469 337 L469 397 Z M604 292 L580 292 L532 358 L532 292 L508 292 L508 397 L530 397 L579 330 L579 397 L604 397 L604 292 Z M617 397 L661 397 C694 397 713 376 713 346 C713 314 695 292 662 292 L617 292 L617 397 Z M662 315 C681 315 688 326 688 346 C688 362 680 374 661 374 L642 374 L642 315 L662 315 Z M749 292 L723 292 L723 397 L771 397 C792 397 810 385 810 362 C810 346 800 335 786 330 L813 292 L786 292 L759 330 L749 330 L749 292 Z M771 351 C778 351 785 356 785 362 C785 371 778 375 771 375 L749 375 L749 351 L771 351 Z M855 358 L878 397 L906 397 L868 335 L868 292 L843 292 L843 335 L805 397 L833 397 L855 358 Z M199 634 C197 634 195 637 195 639 C195 641 197 643 199 643 L1101 643 C1104 643 1106 641 1106 639 C1106 637 1104 634 1101 634 L199 634 Z M100 -164 L1200 -164 L1200 737 L100 737 L100 -164 Z M199 215 C197 215 195 218 195 220 C195 222 197 224 199 224 L1101 224 C1104 224 1106 222 1106 220 C1106 218 1104 215 1101 215 L199 215 Z " />
<glyph glyph-name="f_f" unicode="&#xfb00;" horiz-adv-x="752" d="M427 516 L444 551 C458 581 475 589 492 589 C504 589 514 587 528 587 C547 587 556 591 567 614 L595 672 C603 689 590 702 572 707 C550 713 504 718 474 718 C351 718 296 671 247 566 L223 516 L183 516 C161 516 154 510 144 488 L108 408 C98 387 106 370 128 370 L156 370 L1 38 C-9 17 -1 0 21 0 L161 0 C183 0 190 6 200 28 L360 370 L500 370 L345 38 C335 17 343 0 365 0 L505 0 C527 0 534 6 544 28 L704 370 L786 370 C808 370 815 376 825 398 L861 478 C870 499 863 516 841 516 L771 516 L779 532 C792 560 806 572 842 572 C851 572 862 570 877 570 C894 570 906 574 917 597 L952 671 C962 692 952 701 936 706 C917 712 881 718 834 718 C706 718 644 679 587 557 L568 516 L427 516 Z " />
<glyph glyph-name="fi" unicode="&#xfb01;" horiz-adv-x="684" d="M108 408 C98 387 106 370 128 370 L156 370 L1 38 C-9 17 -1 0 21 0 L161 0 C183 0 190 6 200 28 L359 370 L498 370 L342 34 C332 11 340 0 363 0 L503 0 C526 0 540 11 550 34 L759 482 C770 505 762 516 739 516 L427 516 L443 549 C456 577 468 589 498 589 C505 589 514 587 529 587 C546 587 556 591 567 614 L595 672 C605 693 595 702 579 707 C560 713 522 718 486 718 C367 718 300 679 243 557 L224 516 L183 516 C161 516 154 510 144 488 L108 408 Z M849 674 C860 697 852 708 829 708 L689 708 C666 708 652 697 641 674 L617 621 C606 598 613 587 636 587 L776 587 C799 587 814 598 825 621 L849 674 Z " />
<glyph glyph-name="fl" unicode="&#xfb02;" horiz-adv-x="682" d="M837 647 C845 665 843 678 824 685 C786 699 692 718 581 718 C366 718 287 675 228 526 L224 516 L183 516 C161 516 154 510 144 488 L108 408 C98 387 106 370 128 370 L156 370 L1 38 C-9 17 -1 0 21 0 L161 0 C183 0 190 6 200 28 L359 370 L404 370 C426 370 433 376 443 398 L479 478 C489 499 481 516 459 516 L427 516 L433 528 C451 564 477 578 537 578 C557 578 578 577 595 574 L344 38 C334 17 342 0 364 0 L508 0 C530 0 537 6 547 28 L837 647 Z " />
<glyph glyph-name="f_f_i" unicode="&#xfb03;" horiz-adv-x="1028" d="M1101 478 C1110 499 1103 516 1081 516 L771 516 L788 551 C802 581 819 589 836 589 C848 589 858 587 872 587 C891 587 900 591 911 614 L939 672 C947 689 934 702 916 707 C894 713 848 718 818 718 C695 718 640 671 591 566 L567 516 L427 516 L444 551 C458 581 475 589 492 589 C504 589 514 587 528 587 C547 587 556 591 567 614 L595 672 C603 689 590 702 572 707 C550 713 504 718 474 718 C351 718 296 671 247 566 L223 516 L183 516 C161 516 154 510 144 488 L108 408 C99 387 106 370 128 370 L156 370 L1 38 C-9 17 -1 0 21 0 L161 0 C183 0 190 6 200 28 L360 370 L500 370 L345 38 C335 17 343 0 365 0 L505 0 C527 0 534 6 544 28 L704 370 L844 370 L688 38 C678 17 686 0 708 0 L852 0 C874 0 881 6 891 28 L1101 478 Z M1191 670 C1201 691 1193 708 1171 708 L1027 708 C1005 708 998 702 988 680 L963 625 C953 604 961 587 983 587 L1127 587 C1149 587 1156 593 1166 615 L1191 670 Z " />
<glyph glyph-name="f_f_l" unicode="&#xfb04;" horiz-adv-x="1026" d="M704 370 L747 370 C769 370 776 376 786 398 L822 478 C832 499 824 516 802 516 L770 516 L776 528 C794 564 820 578 880 578 C900 578 921 577 938 574 L687 38 C677 17 685 0 707 0 L851 0 C873 0 880 6 890 28 L1180 647 C1188 665 1186 678 1167 685 C1129 699 1035 718 924 718 C709 718 631 675 571 526 L567 516 L427 516 L444 551 C458 581 475 589 492 589 C504 589 514 587 528 587 C547 587 556 591 567 614 L595 672 C603 689 590 702 572 707 C550 713 504 718 474 718 C351 718 296 671 247 566 L223 516 L183 516 C161 516 154 510 144 488 L108 408 C98 387 106 370 128 370 L156 370 L1 38 C-9 17 -1 0 21 0 L161 0 C183 0 190 6 200 28 L360 370 L500 370 L345 38 C335 17 343 0 365 0 L505 0 C527 0 534 6 544 28 L704 370 Z " />
</font>
</svg>
