<?xml version="1.0" encoding="UTF-8"?>
<svg xmlns="http://www.w3.org/2000/svg" xmlns:xlink="http://www.w3.org/1999/xlink" version="1.2" >
<font id="Energi Pro Standard Italic">
<font-face  font-family="Energi Pro" units-per-em="1000" ascent="750" descent="-250" font-style="italic" font-weight="400" font-stretch="normal" cap-height="702" x-height="518" underline-position="-83" underline-thickness="35" />
<missing-glyph  horiz-adv-x="492" d="M0 690 L0 0 L492 0 L492 690 L0 690 Z M443 94 L275 345 L443 597 L443 94 Z M49 597 L217 345 L49 94 L49 597 Z M246 389 L79 641 L414 641 L246 389 Z M246 301 L413 49 L79 49 L246 301 Z " />
<glyph glyph-name="CR" unicode="&#xd;" horiz-adv-x="500" d="" />
<glyph glyph-name="space" unicode="&#x20;" horiz-adv-x="300" d="" />
<glyph glyph-name="exclam" unicode="&#x21;" horiz-adv-x="289" d="M162 198 C174 198 177 202 182 212 L417 684 C422 695 417 702 406 702 L340 702 C328 702 324 698 320 688 L115 216 C110 205 115 198 126 198 L162 198 Z M143 92 C148 103 143 110 132 110 L64 110 C52 110 49 106 44 96 L7 18 C2 7 7 0 18 0 L86 0 C98 0 101 4 106 14 L143 92 Z " />
<glyph glyph-name="quotedbl" unicode="&#x22;" horiz-adv-x="331" d="M466 620 C476 637 487 657 498 680 C509 704 497 719 471 719 C445 719 433 708 421 682 C410 659 401 637 395 620 L343 471 L381 471 L466 620 Z " />
<glyph glyph-name="numbersign" unicode="&#x23;" horiz-adv-x="641" d="M379 444 L536 444 L396 251 L237 251 L379 444 Z M782 684 C788 692 788 700 778 703 L747 712 C738 715 732 714 725 704 L582 508 L425 508 L554 684 C560 692 560 700 550 703 L519 712 C510 715 504 714 497 704 L355 508 L246 508 C234 508 230 504 226 494 L212 462 C207 451 212 444 223 444 L309 444 L168 251 L54 251 C42 251 39 247 34 237 L19 205 C14 194 19 187 30 187 L120 187 L0 20 C-6 12 -6 5 4 1 L32 -10 C41 -13 47 -12 54 -2 L189 187 L348 187 L228 20 C222 12 222 5 232 1 L260 -10 C269 -13 275 -12 282 -2 L417 187 L527 187 C539 187 543 191 547 201 L562 233 C567 244 562 251 551 251 L465 251 L607 444 L719 444 C731 444 734 448 739 458 L754 490 C759 501 754 508 743 508 L653 508 L782 684 Z " />
<glyph glyph-name="dollar" unicode="&#x24;" horiz-adv-x="565" d="M590 784 C595 795 590 802 579 802 L548 802 C536 802 533 798 528 788 L490 709 C342 703 198 632 198 468 C198 400 246 360 318 324 C377 295 429 267 429 218 C429 106 307 68 191 68 C119 68 62 81 33 96 C22 101 15 98 9 90 L-25 49 C-32 41 -31 33 -23 28 C4 11 85 -6 161 -8 L126 -82 C121 -93 126 -100 137 -100 L168 -100 C180 -100 183 -96 188 -86 L225 -7 C370 3 517 71 517 234 C517 313 463 348 390 390 C338 420 287 442 287 488 C287 602 402 631 504 631 C568 631 610 622 638 608 C646 604 654 604 661 613 L699 657 C706 665 703 672 696 676 C671 690 616 704 554 708 L590 784 Z " />
<glyph glyph-name="percent" unicode="&#x25;" horiz-adv-x="926" d="M934 683 C943 692 938 702 929 702 L884 702 C872 702 870 700 861 692 L128 19 C119 10 124 0 133 0 L177 0 C189 0 191 2 200 10 L934 683 Z M183 501 C167 466 157 426 157 391 C157 336 203 294 274 294 C381 294 448 363 512 501 C529 538 538 579 538 615 C538 665 496 709 420 709 C314 709 247 640 183 501 L183 501 Z M440 501 C396 407 347 360 287 360 C246 360 229 383 229 411 C229 442 245 479 254 501 C297 595 348 643 407 643 C447 643 465 619 465 590 C465 558 449 521 440 501 L440 501 Z M551 200 C535 165 525 125 525 90 C525 35 571 -7 642 -7 C749 -7 816 62 880 200 C897 237 906 278 906 314 C906 364 864 408 788 408 C682 408 615 339 551 200 L551 200 Z M808 200 C764 106 715 59 655 59 C614 59 597 82 597 110 C597 141 613 178 622 200 C665 294 716 342 775 342 C815 342 833 318 833 289 C833 257 817 220 808 200 L808 200 Z " />
<glyph glyph-name="ampersand" unicode="&#x26;" horiz-adv-x="725" d="M715 324 C720 340 716 352 700 352 L666 352 C654 352 649 347 646 337 C628 275 605 225 550 175 L410 463 C399 486 392 507 390 531 C383 608 450 644 540 644 C573 644 609 638 631 627 C645 621 649 623 657 631 L685 662 C692 670 690 680 682 684 C657 698 609 714 535 714 C370 714 294 635 306 513 C309 486 317 459 327 437 L333 424 C184 388 30 311 30 146 C30 59 113 -8 258 -8 C356 -8 431 12 506 61 L528 14 C531 8 534 0 548 0 L616 0 C625 0 630 9 625 19 L581 113 C647 171 694 251 715 324 L715 324 Z M279 65 C160 65 123 107 123 164 C123 280 265 348 357 367 L478 119 C426 85 364 65 279 65 L279 65 Z " />
<glyph glyph-name="quotesingle" unicode="&#x27;" horiz-adv-x="188" d="M322 620 C332 637 343 657 354 680 C365 704 353 719 327 719 C301 719 289 708 277 682 C266 659 257 637 251 620 L199 471 L237 471 L322 620 Z " />
<glyph glyph-name="parenleft" unicode="&#x28;" horiz-adv-x="364" d="M78 74 C78 2 90 -60 110 -108 C113 -114 115 -117 125 -117 L170 -117 C182 -117 184 -108 182 -101 C167 -53 159 1 159 61 C159 322 358 549 553 697 C560 703 556 712 547 712 L510 712 C502 712 498 710 490 704 C282 549 78 330 78 74 L78 74 Z " />
<glyph glyph-name="parenright" unicode="&#x29;" horiz-adv-x="364" d="M373 521 C373 593 361 655 341 703 C338 709 336 712 326 712 L281 712 C269 712 267 703 269 696 C284 648 292 594 292 534 C292 273 93 46 -102 -102 C-109 -108 -105 -117 -96 -117 L-59 -117 C-51 -117 -47 -115 -39 -109 C169 46 373 265 373 521 L373 521 Z " />
<glyph glyph-name="asterisk" unicode="&#x2a;" horiz-adv-x="395" d="M279 367 C299 367 304 375 314 396 C325 420 342 473 356 510 C378 489 402 456 419 444 C431 433 441 433 460 451 C478 468 480 479 466 491 C452 503 411 521 385 539 C427 555 485 573 510 585 C535 596 543 602 542 620 C541 637 529 643 506 633 C478 620 422 588 381 566 C402 603 433 656 444 680 C454 702 448 710 427 710 C406 710 401 702 391 680 C380 656 364 603 349 566 C328 587 303 620 287 633 C274 643 264 643 246 625 C228 608 226 596 240 586 C254 574 294 555 321 538 C278 521 220 502 195 491 C171 479 162 475 164 457 C166 439 176 433 200 444 C227 456 282 488 324 510 C304 473 271 420 260 396 C250 375 257 367 279 367 L279 367 Z " />
<glyph glyph-name="plus" unicode="&#x2b;" horiz-adv-x="590" d="M565 309 C577 309 580 313 585 323 L602 359 C607 370 602 377 591 377 L412 377 L495 554 C500 565 495 572 484 572 L442 572 C430 572 427 568 422 558 L337 377 L154 377 C142 377 139 373 134 363 L117 327 C112 316 117 309 128 309 L306 309 L222 129 C217 118 222 111 233 111 L275 111 C287 111 290 115 295 125 L381 309 L565 309 Z " />
<glyph glyph-name="comma" unicode="&#x2c;" horiz-adv-x="228" d="M65 1 C71 8 73 12 77 21 L109 90 C114 101 109 108 98 108 L35 108 C23 108 20 104 15 94 L-21 18 C-26 7 -21 0 -10 0 L7 0 L-63 -102 C-68 -109 -65 -116 -56 -116 L-38 -116 C-29 -116 -28 -113 -22 -106 L65 1 Z " />
<glyph glyph-name="hyphen" unicode="&#x2d;" horiz-adv-x="392" d="M346 225 C357 225 360 227 365 237 L384 278 C388 287 384 294 373 294 L97 294 C86 294 83 292 78 282 L59 241 C55 232 59 225 70 225 L346 225 Z " />
<glyph glyph-name="period" unicode="&#x2e;" horiz-adv-x="228" d="M-21 18 C-26 7 -21 0 -10 0 L53 0 C65 0 68 4 73 14 L109 90 C114 101 109 108 98 108 L35 108 C23 108 20 104 15 94 L-21 18 Z " />
<glyph glyph-name="slash" unicode="&#x2f;" horiz-adv-x="432" d="M-74 18 C-81 10 -79 0 -68 0 L-23 0 C-12 0 -8 2 1 12 L645 684 C652 692 650 702 639 702 L592 702 C581 702 577 700 568 690 L-74 18 Z " />
<glyph glyph-name="zero" unicode="0" horiz-adv-x="677" d="M543 713 C348 713 233 585 128 352 C99 288 82 226 82 170 C82 68 138 -7 273 -7 C469 -7 586 116 686 352 C714 418 731 484 731 541 C731 641 679 713 543 713 L543 713 Z M280 71 C191 71 171 124 171 188 C171 244 195 307 217 354 C301 536 390 635 534 635 C623 635 643 584 643 519 C643 463 619 397 597 350 C512 168 424 71 280 71 L280 71 Z " />
<glyph glyph-name="one" unicode="1" horiz-adv-x="462" d="M154 18 C149 7 154 0 165 0 L217 0 C229 0 232 4 237 14 L549 684 C554 695 549 702 538 702 L483 702 C472 702 471 701 462 696 L203 549 C194 544 193 540 196 534 L212 497 C214 492 218 491 227 496 L425 601 L154 18 Z " />
<glyph glyph-name="two" unicode="2" horiz-adv-x="623" d="M484 58 C489 69 484 76 473 76 L166 76 C337 171 700 342 700 581 C700 659 643 713 511 713 C338 713 243 633 198 481 C193 464 193 448 212 448 L256 448 C273 448 275 465 280 482 C308 582 375 637 496 637 C565 637 616 616 616 562 C616 357 220 178 15 76 C2 70 -3 64 -8 54 L-25 18 C-30 7 -25 0 -14 0 L443 0 C455 0 458 4 463 14 L484 58 Z " />
<glyph glyph-name="three" unicode="3" horiz-adv-x="577" d="M243 347 C238 336 243 329 254 329 L336 329 C414 329 445 302 445 256 C445 122 325 67 202 67 C110 67 58 88 28 103 C19 107 14 106 8 98 L-28 54 C-34 47 -31 40 -25 37 C6 19 92 -8 187 -8 C417 -8 540 106 540 264 C540 314 504 350 461 362 C561 370 662 458 662 594 C662 670 600 713 480 713 C383 713 322 696 276 679 C260 673 259 670 258 662 L254 616 C253 608 258 599 271 603 C313 616 377 637 467 637 C535 637 571 621 571 572 C571 468 474 402 360 402 L282 402 C270 402 267 398 262 388 L243 347 Z " />
<glyph glyph-name="four" unicode="4" horiz-adv-x="651" d="M401 0 C413 0 416 4 421 14 L488 156 L595 156 C607 156 610 160 615 170 L635 212 C640 223 635 230 624 230 L522 230 L733 684 C738 695 733 702 722 702 L670 702 C661 702 659 701 649 693 L65 236 C57 230 53 224 49 216 L28 174 C23 163 28 156 39 156 L404 156 L338 18 C333 7 338 0 349 0 L401 0 Z M603 584 L439 230 L147 230 L603 584 Z " />
<glyph glyph-name="five" unicode="5" horiz-adv-x="591" d="M189 -8 C383 -8 504 81 556 261 C563 283 566 303 566 320 C566 402 495 436 397 436 C336 436 283 425 242 411 C275 468 331 574 357 627 L675 627 C687 627 690 631 695 641 L715 684 C720 695 715 702 704 702 L333 702 C321 702 318 698 313 688 C276 611 190 448 142 362 C137 353 138 345 146 342 L161 336 C169 333 171 333 176 333 C200 333 269 363 363 363 C435 363 476 346 476 297 C476 286 473 273 469 258 C427 123 339 67 211 67 C127 67 63 89 34 105 C26 109 19 108 13 100 L-21 59 C-28 51 -27 43 -21 39 C11 20 90 -8 189 -8 L189 -8 Z " />
<glyph glyph-name="six" unicode="6" horiz-adv-x="640" d="M671 613 C681 608 686 612 691 619 L725 661 C730 668 729 674 721 678 C695 693 631 713 572 713 C357 713 221 552 117 328 C93 272 76 214 76 162 C76 66 142 -8 260 -8 C454 -8 573 115 621 284 C627 304 630 323 630 341 C630 418 576 476 460 476 C336 476 259 409 209 349 C294 522 396 638 558 638 C603 638 643 628 671 613 L671 613 Z M281 67 C192 67 163 112 163 164 C163 180 165 196 170 212 C200 316 314 403 425 403 C508 403 541 368 541 319 C541 306 539 293 535 279 C504 172 415 67 281 67 L281 67 Z " />
<glyph glyph-name="seven" unicode="7" horiz-adv-x="563" d="M85 20 C80 11 83 0 96 0 L151 0 C162 0 166 6 171 16 C274 222 519 458 696 621 C704 628 714 636 719 646 L737 684 C742 695 737 702 726 702 L290 702 C278 702 275 698 270 688 L250 645 C245 634 250 627 261 627 L618 627 C458 497 203 232 85 20 L85 20 Z " />
<glyph glyph-name="eight" unicode="8" horiz-adv-x="622" d="M230 -9 C417 -9 576 78 576 244 C576 307 528 345 464 361 C575 385 720 464 720 596 C720 665 645 713 529 713 C368 713 212 636 212 487 C212 431 246 388 308 369 C188 342 33 272 33 127 C33 55 107 -9 230 -9 L230 -9 Z M505 642 C589 642 632 615 632 573 C632 468 480 419 402 399 C335 418 297 447 297 491 C297 597 421 642 505 642 L505 642 Z M369 329 C442 313 488 282 488 229 C488 117 370 63 256 63 C167 63 118 96 118 144 C118 262 282 311 369 329 L369 329 Z " />
<glyph glyph-name="nine" unicode="9" horiz-adv-x="640" d="M109 89 C99 94 94 90 89 83 L55 41 C50 34 51 28 59 24 C85 9 144 -10 203 -10 C418 -10 554 151 658 375 C682 431 699 489 699 541 C699 637 633 711 515 711 C321 711 203 588 155 419 C149 399 146 380 146 362 C146 285 199 226 315 226 C439 226 521 294 571 354 C486 181 382 64 220 64 C175 64 137 74 109 89 L109 89 Z M494 636 C584 636 615 590 615 537 C615 522 612 506 608 491 C578 387 461 299 350 299 C267 299 235 335 235 383 C235 396 238 410 242 424 C273 531 360 636 494 636 L494 636 Z " />
<glyph glyph-name="colon" unicode="&#x3a;" horiz-adv-x="258" d="M-6 18 C-11 7 -6 0 5 0 L68 0 C80 0 83 4 88 14 L124 90 C129 101 124 108 113 108 L50 108 C38 108 35 104 30 94 L-6 18 Z M184 428 C179 417 184 410 195 410 L258 410 C270 410 273 414 278 424 L314 500 C319 511 314 518 303 518 L240 518 C228 518 225 514 220 504 L184 428 Z " />
<glyph glyph-name="semicolon" unicode="&#x3b;" horiz-adv-x="258" d="M184 428 C179 417 184 410 195 410 L258 410 C270 410 273 414 278 424 L314 500 C319 511 314 518 303 518 L240 518 C228 518 225 514 220 504 L184 428 Z M80 1 C86 8 88 12 92 21 L124 90 C129 101 124 108 113 108 L50 108 C38 108 35 104 30 94 L-6 18 C-11 7 -6 0 5 0 L22 0 L-48 -102 C-53 -109 -50 -116 -41 -116 L-23 -116 C-14 -116 -13 -113 -7 -106 L80 1 Z " />
<glyph glyph-name="less" unicode="&#x3c;" horiz-adv-x="590" d="M126 344 C122 336 126 328 133 321 L380 43 C386 37 396 36 404 43 L447 78 C453 83 455 90 449 97 L228 333 L686 579 C696 584 700 589 697 599 L684 639 C681 649 673 649 664 644 L145 360 C135 354 129 351 126 344 L126 344 Z " />
<glyph glyph-name="equal" unicode="&#x3d;" horiz-adv-x="590" d="M595 400 C607 400 610 404 615 414 L632 450 C637 461 632 468 621 468 L207 468 C195 468 192 464 187 454 L171 418 C166 407 171 400 182 400 L595 400 Z M511 218 C523 218 526 222 531 232 L548 268 C553 279 548 286 537 286 L123 286 C111 286 108 282 103 272 L87 236 C82 225 87 218 98 218 L511 218 Z " />
<glyph glyph-name="greater" unicode="&#x3e;" horiz-adv-x="590" d="M592 340 C596 348 592 356 585 363 L338 641 C332 647 322 648 314 641 L271 606 C265 601 263 594 269 587 L490 351 L32 105 C22 100 18 95 21 85 L34 45 C37 35 45 35 54 40 L573 324 C583 330 589 333 592 340 L592 340 Z " />
<glyph glyph-name="question" unicode="&#x3f;" horiz-adv-x="524" d="M311 238 C363 342 643 390 643 597 C643 668 584 713 465 713 C370 713 308 697 259 676 C249 672 242 667 241 658 L236 610 C235 604 239 597 252 601 C294 615 361 637 433 637 C516 637 557 613 557 576 C557 433 292 354 238 246 L223 216 C218 205 223 198 234 198 L278 198 C290 198 293 202 298 212 L311 238 Z M117 18 C112 7 117 0 128 0 L196 0 C208 0 211 4 216 14 L253 92 C258 103 253 110 242 110 L174 110 C162 110 159 106 154 96 L117 18 Z " />
<glyph glyph-name="at" unicode="&#x40;" horiz-adv-x="929" d="M589 235 C526 137 464 96 385 96 C333 96 304 122 305 159 C305 303 471 397 596 397 C637 397 670 388 684 381 L589 235 Z M567 -20 C520 -38 442 -56 343 -56 C181 -56 95 -1 96 93 C96 368 413 543 646 543 C817 543 877 494 877 405 C877 256 766 93 602 93 L572 93 L775 409 C780 417 777 424 772 426 C746 440 689 461 619 461 C423 461 223 321 223 142 C223 76 272 32 355 32 C426 32 470 56 533 116 L498 54 C493 44 498 35 508 35 L582 35 C811 35 937 235 937 413 C937 518 858 597 655 597 C359 597 33 381 33 86 C33 -39 136 -110 336 -110 C441 -110 513 -94 563 -75 C568 -73 573 -71 574 -65 L580 -26 C581 -20 576 -16 567 -20 L567 -20 Z " />
<glyph glyph-name="A" unicode="A" horiz-adv-x="669" d="M239 260 L530 616 L532 616 L492 260 L239 260 Z M530 702 C519 702 515 701 506 690 L-58 18 C-65 10 -63 0 -52 0 L8 0 C19 0 23 2 32 12 L176 182 L483 182 L468 15 C467 6 470 0 481 0 L537 0 C548 0 552 6 553 16 L613 685 C614 696 611 702 597 702 L530 702 Z " />
<glyph glyph-name="B" unicode="B" horiz-adv-x="696" d="M265 401 L370 624 L549 624 C644 624 687 607 687 560 C687 432 537 401 449 401 L265 401 Z M293 0 C464 0 654 69 654 264 C654 318 625 349 587 360 C685 390 775 478 775 575 C775 650 712 702 568 702 L334 702 C322 702 319 698 314 688 L2 18 C-3 7 2 0 13 0 L293 0 Z M115 79 L230 325 L418 325 C525 325 569 306 569 256 C569 109 395 79 294 79 L115 79 Z " />
<glyph glyph-name="C" unicode="C" horiz-adv-x="606" d="M325 69 C213 69 171 120 171 191 C171 238 189 295 214 351 C300 537 421 634 580 634 C635 634 675 622 701 605 C711 598 718 600 725 608 L762 650 C768 657 767 665 760 670 C725 695 661 713 585 713 C388 713 232 584 126 351 C98 289 82 227 82 173 C82 67 144 -10 301 -10 C376 -10 428 3 482 30 C488 33 493 38 493 47 L494 95 C494 102 488 108 477 103 C435 84 383 69 325 69 L325 69 Z " />
<glyph glyph-name="D" unicode="D" horiz-adv-x="683" d="M466 622 C621 622 660 593 660 514 C660 476 639 416 614 363 C508 136 441 80 227 80 L118 80 L369 622 L466 622 Z M334 702 C322 702 319 698 314 688 L2 18 C-3 7 2 0 13 0 L215 0 C512 0 570 80 702 363 C732 428 746 483 746 531 C746 647 656 702 493 702 L334 702 Z " />
<glyph glyph-name="E" unicode="E" horiz-adv-x="554" d="M527 321 C539 321 542 325 547 335 L568 379 C573 390 568 397 557 397 L264 397 L368 623 L679 623 C691 623 694 627 699 637 L722 684 C727 695 722 702 711 702 L333 702 C321 702 318 698 313 688 L1 18 C-4 7 1 0 12 0 L394 0 C406 0 409 4 414 14 L436 61 C441 72 436 79 425 79 L115 79 L228 321 L527 321 Z " />
<glyph glyph-name="F" unicode="F" horiz-adv-x="541" d="M528 312 C540 312 543 316 548 326 L570 370 C575 381 570 388 559 388 L260 388 L371 624 L680 624 C692 624 695 628 700 638 L722 684 C727 695 722 702 711 702 L334 702 C322 702 319 698 314 688 L1 18 C-4 7 1 0 12 0 L66 0 C78 0 81 4 86 14 L226 312 L528 312 Z " />
<glyph glyph-name="G" unicode="G" horiz-adv-x="706" d="M605 330 L498 101 C458 82 395 69 338 69 C214 69 170 120 170 193 C170 239 188 295 215 352 C304 544 420 634 606 634 C672 634 720 618 746 600 C756 594 764 595 771 603 L807 647 C814 655 811 662 805 667 C773 691 705 713 617 713 C394 713 234 596 127 352 C98 286 81 224 81 170 C81 63 148 -10 319 -10 C417 -10 475 7 538 37 C548 42 556 45 564 63 L715 388 C720 399 715 406 704 406 L490 406 C478 406 475 402 470 392 L450 348 C445 337 450 330 461 330 L605 330 Z " />
<glyph glyph-name="H" unicode="H" horiz-adv-x="709" d="M229 319 L588 319 L447 18 C442 7 447 0 458 0 L511 0 C523 0 526 4 531 14 L843 684 C848 695 843 702 832 702 L779 702 C767 702 764 698 759 688 L625 399 L266 399 L398 684 C403 695 398 702 387 702 L334 702 C322 702 319 698 314 688 L2 18 C-3 7 2 0 13 0 L66 0 C78 0 81 4 86 14 L229 319 Z " />
<glyph glyph-name="I" unicode="I" horiz-adv-x="278" d="M9 18 C4 7 9 0 20 0 L73 0 C85 0 88 4 93 14 L405 684 C410 695 405 702 394 702 L341 702 C329 702 326 698 321 688 L9 18 Z " />
<glyph glyph-name="J" unicode="J" horiz-adv-x="477" d="M617 684 C622 695 617 702 606 702 L554 702 C542 702 539 698 534 688 L316 221 C269 118 225 67 128 67 C68 67 33 83 12 98 C4 104 -4 101 -11 92 L-40 57 C-48 47 -46 39 -39 33 C-16 15 43 -12 105 -12 C279 -12 331 70 398 213 L617 684 Z " />
<glyph glyph-name="K" unicode="K" horiz-adv-x="616" d="M278 427 L398 684 C403 695 398 702 387 702 L334 702 C322 702 319 698 314 688 L2 18 C-3 7 2 0 13 0 L66 0 C78 0 81 4 86 14 L239 342 L399 17 C404 7 412 0 424 0 L480 0 C496 0 498 13 493 22 L323 372 L801 677 C812 684 809 702 795 702 L718 702 C707 702 703 701 692 694 L278 427 Z " />
<glyph glyph-name="L" unicode="L" horiz-adv-x="538" d="M428 62 C433 73 428 80 417 80 L118 80 L398 684 C403 695 398 702 387 702 L334 702 C322 702 319 698 314 688 L1 18 C-4 7 1 0 12 0 L386 0 C398 0 401 4 406 14 L428 62 Z " />
<glyph glyph-name="M" unicode="M" horiz-adv-x="808" d="M402 197 C411 197 418 201 425 208 L794 550 L547 18 C542 7 547 0 558 0 L610 0 C622 0 625 4 630 14 L942 684 C947 695 942 702 931 702 L876 702 C866 702 863 701 856 694 L461 330 L404 692 C403 699 400 702 390 702 L334 702 C322 702 319 698 314 688 L1 18 C-4 7 1 0 12 0 L65 0 C77 0 80 4 85 14 L334 550 L387 208 C388 200 394 197 402 197 L402 197 Z " />
<glyph glyph-name="N" unicode="N" horiz-adv-x="710" d="M845 684 C850 695 845 702 834 702 L782 702 C770 702 767 698 762 688 L509 143 L407 684 C405 695 399 702 385 702 L334 702 C322 702 319 698 314 688 L2 18 C-3 7 2 0 13 0 L64 0 C76 0 79 4 84 14 L338 559 L440 18 C442 7 448 0 462 0 L512 0 C524 0 527 4 532 14 L845 684 Z " />
<glyph glyph-name="O" unicode="O" horiz-adv-x="716" d="M574 713 C379 713 229 584 124 351 C95 287 78 223 78 167 C78 65 135 -10 280 -10 C476 -10 628 115 728 351 C756 417 773 483 773 540 C773 640 720 713 574 713 L574 713 Z M297 68 C198 68 167 121 167 185 C167 241 191 306 213 353 C297 535 411 635 555 635 C654 635 685 583 685 518 C685 462 661 396 639 349 C554 167 441 68 297 68 L297 68 Z " />
<glyph glyph-name="P" unicode="P" horiz-adv-x="654" d="M216 294 L369 623 L489 623 C591 623 648 603 648 545 C648 523 638 491 622 458 C560 328 505 294 344 294 L216 294 Z M1 18 C-4 7 1 0 12 0 L66 0 C78 0 81 4 86 14 L180 215 L320 215 C556 215 621 267 707 452 C727 495 737 539 737 571 C737 656 664 702 516 702 L334 702 C322 702 319 698 314 688 L1 18 Z " />
<glyph glyph-name="Q" unicode="Q" horiz-adv-x="716" d="M298 68 C199 68 168 121 168 185 C168 241 192 306 214 353 C298 535 412 635 556 635 C655 635 686 583 686 518 C686 462 662 396 640 349 C555 167 442 68 298 68 L298 68 Z M345 5 C504 20 642 146 729 351 C757 417 774 483 774 540 C774 640 721 713 575 713 C380 713 230 584 125 351 C96 287 79 223 79 167 C79 77 123 9 233 -5 C276 -61 354 -88 443 -88 C473 -88 477 -87 483 -74 L503 -32 C507 -24 502 -18 493 -18 C485 -18 472 -17 460 -17 C411 -15 378 -13 345 5 L345 5 Z " />
<glyph glyph-name="R" unicode="R" horiz-adv-x="652" d="M234 331 L369 623 L496 623 C590 623 653 605 652 545 C652 526 645 504 633 476 C587 377 545 331 371 331 L234 331 Z M334 702 C322 702 319 698 314 688 L1 18 C-4 7 1 0 12 0 L66 0 C78 0 81 4 86 14 L197 252 L330 252 L419 17 C423 6 433 0 445 0 L496 0 C511 0 514 12 510 22 L420 255 C576 264 639 299 715 464 C733 503 743 542 743 572 C743 649 674 702 527 702 L334 702 Z " />
<glyph glyph-name="S" unicode="S" horiz-adv-x="562" d="M519 244 C519 323 465 352 392 394 C340 424 289 446 289 492 C289 606 417 635 506 635 C570 635 612 626 640 612 C648 608 656 608 663 617 L698 661 C705 669 702 676 695 680 C665 697 592 713 515 713 C359 713 200 638 200 466 C200 398 248 364 320 328 C379 299 431 271 431 222 C431 110 279 69 193 69 C121 69 64 82 35 97 C24 102 17 99 11 91 L-23 50 C-30 42 -29 34 -21 29 C9 11 102 -8 183 -8 C340 -8 519 64 519 244 L519 244 Z " />
<glyph glyph-name="T" unicode="T" horiz-adv-x="550" d="M233 640 C228 629 233 622 244 622 L426 622 L144 18 C139 7 144 0 155 0 L209 0 C221 0 224 4 229 14 L512 622 L699 622 C711 622 714 626 719 636 L742 684 C747 695 742 702 731 702 L276 702 C264 702 261 698 256 688 L233 640 Z " />
<glyph glyph-name="U" unicode="U" horiz-adv-x="696" d="M822 684 C827 695 822 702 811 702 L759 702 C747 702 744 698 739 688 L537 254 C473 117 423 67 277 67 C193 67 154 102 154 159 C154 186 162 218 179 254 L379 684 C384 695 379 702 368 702 L315 702 C303 702 300 698 295 688 L90 248 C75 216 67 184 67 153 C67 62 133 -12 258 -12 C476 -12 537 72 619 248 L822 684 Z " />
<glyph glyph-name="V" unicode="V" horiz-adv-x="661" d="M273 0 C284 0 288 1 297 12 L847 684 C854 692 852 702 841 702 L779 702 C768 702 764 700 755 690 L401 257 L271 88 L270 88 L297 256 L345 687 C346 696 343 702 332 702 L276 702 C265 702 261 696 260 686 L187 17 C186 6 189 0 203 0 L273 0 Z " />
<glyph glyph-name="W" unicode="W" horiz-adv-x="1047" d="M719 702 C708 702 704 701 695 690 L386 283 L243 89 L241 89 L281 279 L353 687 C354 696 351 702 340 702 L285 702 C274 702 271 696 269 686 L154 17 C152 6 156 0 170 0 L243 0 C254 0 258 1 267 12 L565 401 L695 578 L697 578 L663 401 L603 17 C601 6 605 0 619 0 L691 0 C702 0 706 1 715 12 L1226 684 C1232 692 1231 702 1220 702 L1161 702 C1150 702 1145 701 1137 690 L828 279 L690 88 L688 88 L724 283 L795 685 C797 696 793 702 779 702 L719 702 Z " />
<glyph glyph-name="X" unicode="X" horiz-adv-x="635" d="M364 285 L425 17 C427 6 435 0 447 0 L498 0 C512 0 516 10 514 20 L433 352 L812 677 C822 685 820 702 806 702 L746 702 C735 702 730 699 720 690 L411 420 L351 685 C349 696 341 702 329 702 L278 702 C264 702 260 692 262 682 L339 352 L-44 25 C-54 17 -52 0 -38 0 L21 0 C32 0 37 3 47 12 L364 285 Z " />
<glyph glyph-name="Y" unicode="Y" horiz-adv-x="640" d="M388 258 L831 684 C839 691 836 702 825 702 L762 702 C751 702 748 699 738 690 L479 438 L373 333 L367 438 L343 689 C342 699 340 702 328 702 L272 702 C261 702 255 696 256 686 L302 258 L190 18 C185 7 190 0 201 0 L254 0 C266 0 269 4 274 14 L388 258 Z " />
<glyph glyph-name="Z" unicode="Z" horiz-adv-x="597" d="M-29 18 C-34 7 -29 0 -18 0 L425 0 C437 0 440 4 445 14 L468 62 C473 73 468 80 457 80 L111 80 L708 612 C719 621 724 628 730 640 L751 684 C756 695 751 702 740 702 L311 702 C299 702 296 698 291 688 L268 640 C263 629 268 622 279 622 L616 622 L17 91 C7 82 -2 75 -8 62 L-29 18 Z " />
<glyph glyph-name="bracketleft" unicode="&#x5b;" horiz-adv-x="364" d="M188 -62 C193 -51 188 -44 177 -44 L81 -44 L397 636 L499 636 C511 636 514 640 519 650 L536 684 C541 695 536 702 525 702 L363 702 C351 702 348 698 343 688 L-21 -92 C-26 -103 -21 -110 -10 -110 L152 -110 C164 -110 167 -106 172 -96 L188 -62 Z " />
<glyph glyph-name="backslash" unicode="&#x5c;" horiz-adv-x="432" d="M314 689 C314 698 311 702 301 702 L254 702 C241 702 237 696 237 684 L255 13 C255 4 258 0 268 0 L315 0 C328 0 332 6 332 18 L314 689 Z " />
<glyph glyph-name="bracketright" unicode="&#x5d;" horiz-adv-x="366" d="M263 654 C258 643 263 636 274 636 L372 636 L56 -44 L-47 -44 C-59 -44 -62 -48 -67 -58 L-83 -92 C-88 -103 -83 -110 -72 -110 L89 -110 C101 -110 104 -106 109 -96 L473 684 C478 695 473 702 462 702 L299 702 C287 702 284 698 279 688 L263 654 Z " />
<glyph glyph-name="asciicircum" unicode="&#x5e;" horiz-adv-x="590" d="M504 702 C492 702 487 699 480 692 L136 364 C124 353 131 340 143 340 L194 340 C205 340 208 342 219 352 L497 621 L525 356 C526 345 531 340 543 340 L586 340 C600 340 604 348 603 359 L563 689 C562 698 557 702 546 702 L504 702 Z " />
<glyph glyph-name="underscore" unicode="&#x5f;" horiz-adv-x="491" d="M315 -98 C326 -98 330 -96 334 -86 L346 -58 C350 -49 346 -42 335 -42 L-78 -42 C-89 -42 -93 -44 -97 -54 L-108 -82 C-112 -91 -108 -98 -97 -98 L315 -98 Z " />
<glyph glyph-name="grave" unicode="&#x60;" horiz-adv-x="337" d="M413 691 C412 698 408 702 396 702 L323 702 C312 702 307 692 312 684 L368 597 C373 590 376 587 387 587 L418 587 C428 587 432 594 430 602 L413 691 Z " />
<glyph glyph-name="a" unicode="a" horiz-adv-x="557" d="M405 203 C368 124 278 57 161 57 C107 57 81 79 81 109 C81 238 265 242 426 248 L405 203 Z M321 17 C317 8 320 0 331 0 L377 0 C386 0 390 2 395 13 L541 327 C558 362 566 394 566 421 C566 490 512 530 409 530 C342 530 280 519 219 496 C212 494 207 488 206 481 L200 436 C199 425 206 421 216 424 C269 443 324 458 390 458 C457 458 485 437 485 400 C485 383 479 363 468 339 L455 311 C312 309 3 316 3 98 C3 33 50 -9 138 -9 C245 -9 311 39 348 75 L321 17 Z " />
<glyph glyph-name="b" unicode="b" horiz-adv-x="631" d="M252 -10 C402 -10 525 81 604 256 C623 302 634 346 634 385 C634 469 582 530 462 530 C403 530 333 502 282 459 L387 685 C391 694 388 702 377 702 L327 702 C318 702 314 700 309 689 L-5 17 C-9 8 -6 0 5 0 L55 0 C64 0 68 2 73 13 L108 89 C123 29 168 -10 252 -10 L252 -10 Z M264 61 C187 61 160 101 160 149 C160 185 174 226 191 260 C253 394 346 459 449 459 C526 459 552 420 552 372 C552 336 538 294 523 260 C461 126 366 61 264 61 L264 61 Z " />
<glyph glyph-name="c" unicode="c" horiz-adv-x="501" d="M79 261 C61 219 51 178 51 141 C51 54 105 -10 227 -10 C287 -10 332 5 369 21 C376 24 383 29 383 39 L385 83 C385 91 378 94 368 90 C335 77 289 62 237 62 C159 62 133 102 133 152 C133 187 146 227 162 261 C224 395 320 457 426 457 C472 457 500 447 521 434 C529 429 537 432 542 437 L578 477 C584 484 584 491 577 496 C558 510 501 530 432 530 C287 530 156 438 79 261 L79 261 Z " />
<glyph glyph-name="d" unicode="d" horiz-adv-x="631" d="M494 260 C433 129 344 61 237 61 C156 61 127 99 127 147 C127 183 144 224 161 260 C226 401 302 459 408 459 C489 459 522 416 522 364 C522 330 510 293 494 260 L494 260 Z M381 17 C377 8 380 0 391 0 L441 0 C450 0 454 2 459 13 L772 685 C776 694 773 702 762 702 L711 702 C702 702 698 700 693 689 L568 422 C554 484 504 530 411 530 C271 530 172 453 78 260 C55 213 44 163 44 119 C44 54 94 -10 200 -10 C285 -10 352 19 414 87 L381 17 Z " />
<glyph glyph-name="e" unicode="e" horiz-adv-x="570" d="M557 289 C573 327 584 364 584 396 C584 475 531 530 426 530 C273 530 168 444 82 267 C59 220 47 174 47 134 C47 48 110 -12 234 -12 C297 -12 344 -1 395 20 C405 24 413 29 414 40 L417 80 C418 89 414 96 398 89 C351 69 317 57 259 57 C162 57 124 91 124 147 C124 169 130 194 141 223 L515 223 C524 223 528 225 533 236 L557 289 Z M403 461 C484 461 504 426 504 372 C504 347 495 320 483 295 L480 290 L172 290 C231 405 307 461 403 461 L403 461 Z " />
<glyph glyph-name="f" unicode="f" horiz-adv-x="347" d="M335 518 L356 563 C381 617 409 639 467 639 C490 639 501 636 515 632 C523 630 528 633 532 641 L550 680 C553 686 553 691 546 695 C531 703 504 710 472 710 C380 710 323 666 277 566 L255 518 L183 518 C174 518 170 516 165 505 L146 463 C142 454 145 446 156 446 L221 446 L22 17 C18 8 21 0 32 0 L82 0 C91 0 95 2 100 13 L301 446 L425 446 C434 446 438 448 443 459 L462 501 C466 510 463 518 452 518 L335 518 Z " />
<glyph glyph-name="g" unicode="g" horiz-adv-x="596" d="M477 291 C422 172 337 112 244 112 C171 112 146 147 146 192 C146 222 157 257 172 288 C231 416 310 461 401 461 C475 461 500 426 500 381 C500 353 490 321 477 291 L477 291 Z M654 502 C660 513 658 518 647 518 L599 518 C588 518 581 513 576 503 L545 438 C529 496 474 530 400 530 C278 530 165 455 90 286 C72 246 62 207 62 172 C62 99 106 45 215 45 C288 45 349 70 400 125 L378 79 C338 -4 258 -51 164 -51 C111 -51 66 -44 28 -26 C19 -21 12 -24 7 -30 L-24 -68 C-30 -76 -29 -83 -23 -87 C14 -111 90 -122 154 -122 C294 -122 392 -63 456 74 L654 502 Z " />
<glyph glyph-name="h" unicode="h" horiz-adv-x="604" d="M363 17 C359 8 362 0 373 0 L423 0 C432 0 436 2 441 13 L586 326 C601 358 609 389 609 416 C609 483 562 530 466 530 C365 530 305 480 277 450 L387 685 C391 694 388 702 377 702 L327 702 C318 702 314 700 309 689 L-5 17 C-9 8 -6 0 5 0 L55 0 C64 0 68 2 73 13 L209 306 C248 390 335 455 435 455 C501 455 525 430 525 393 C525 374 519 353 509 330 L363 17 Z " />
<glyph glyph-name="i" unicode="i" horiz-adv-x="240" d="M382 682 C386 691 383 698 372 698 L322 698 C313 698 309 696 304 685 L264 602 C260 593 263 585 274 585 L325 585 C334 585 338 587 343 598 L382 682 Z M298 501 C302 510 299 518 288 518 L237 518 C228 518 224 516 219 505 L-8 17 C-12 8 -9 0 2 0 L52 0 C61 0 65 2 70 13 L298 501 Z " />
<glyph glyph-name="j" unicode="j" horiz-adv-x="251" d="M394 682 C398 691 395 698 384 698 L334 698 C325 698 321 696 316 685 L276 602 C272 593 275 585 286 585 L337 585 C346 585 350 587 355 598 L394 682 Z M10 30 C-16 -26 -34 -41 -70 -41 C-83 -41 -101 -39 -115 -36 C-128 -33 -132 -37 -136 -46 L-153 -85 C-157 -94 -155 -99 -148 -102 C-132 -108 -103 -114 -76 -114 C6 -114 39 -79 84 18 L309 501 C313 510 310 518 299 518 L249 518 C240 518 236 516 231 505 L10 30 Z " />
<glyph glyph-name="k" unicode="k" horiz-adv-x="502" d="M381 0 C393 0 397 11 393 19 L256 283 L610 490 C625 499 619 518 607 518 L533 518 C523 518 518 516 512 512 L230 347 L388 685 C392 694 389 702 378 702 L327 702 C318 702 314 700 309 689 L-5 17 C-9 8 -6 0 5 0 L57 0 C66 0 70 2 75 13 L182 245 L302 11 C306 3 311 0 322 0 L381 0 Z " />
<glyph glyph-name="l" unicode="l" horiz-adv-x="240" d="M-8 17 C-12 8 -9 0 2 0 L52 0 C61 0 65 2 70 13 L384 685 C388 694 385 702 374 702 L324 702 C315 702 311 700 306 689 L-8 17 Z " />
<glyph glyph-name="m" unicode="m" horiz-adv-x="907" d="M543 305 C584 394 654 455 738 455 C804 455 829 430 829 393 C829 374 823 353 812 330 L665 17 C661 8 664 0 675 0 L726 0 C735 0 739 2 744 13 L890 326 C905 358 913 389 913 416 C913 483 866 530 770 530 C686 530 621 491 568 432 C566 490 518 530 451 530 C364 530 312 492 275 450 L298 501 C302 510 299 518 288 518 L237 518 C228 518 224 516 219 505 L-8 17 C-12 8 -9 0 2 0 L53 0 C62 0 66 2 71 13 L206 303 C247 392 310 455 400 455 C466 455 491 430 491 393 C491 374 485 353 474 330 L328 17 C324 8 327 0 338 0 L390 0 C399 0 403 2 408 13 L543 305 Z " />
<glyph glyph-name="n" unicode="n" horiz-adv-x="595" d="M578 326 C593 358 601 389 601 416 C601 483 554 530 458 530 C367 530 312 491 272 450 L295 501 C299 510 296 518 285 518 L236 518 C227 518 223 516 218 505 L-10 17 C-14 8 -11 0 0 0 L51 0 C60 0 64 2 69 13 L206 307 C247 396 328 455 424 455 C490 455 515 430 515 393 C515 374 509 353 498 330 L352 17 C348 8 351 0 362 0 L414 0 C423 0 427 2 432 13 L578 326 Z " />
<glyph glyph-name="o" unicode="o" horiz-adv-x="598" d="M220 -10 C370 -10 491 81 570 256 C589 302 600 346 600 385 C600 469 550 530 430 530 C279 530 158 439 80 264 C60 219 49 176 49 137 C49 52 101 -10 220 -10 L220 -10 Z M232 61 C155 61 130 101 130 149 C130 185 144 226 161 260 C223 394 314 459 417 459 C494 459 518 420 518 372 C518 336 504 294 489 260 C427 126 334 61 232 61 L232 61 Z " />
<glyph glyph-name="p" unicode="p" horiz-adv-x="627" d="M297 501 C301 510 298 518 287 518 L237 518 C228 518 224 516 219 505 L-58 -92 C-62 -101 -59 -109 -48 -109 L2 -109 C11 -109 15 -107 20 -96 L105 84 C121 27 166 -10 248 -10 C398 -10 524 80 600 256 C620 302 630 346 630 385 C630 469 578 530 458 530 C399 530 328 501 277 458 L297 501 Z M186 260 C248 394 341 459 444 459 C521 459 547 420 547 372 C547 336 533 294 518 260 C456 126 361 61 259 61 C182 61 155 101 155 149 C155 185 169 226 186 260 L186 260 Z " />
<glyph glyph-name="q" unicode="q" horiz-adv-x="627" d="M494 260 C433 129 344 61 237 61 C156 61 127 99 127 147 C127 183 144 224 161 260 C226 401 302 459 408 459 C489 459 522 416 522 364 C522 330 510 293 494 260 L494 260 Z M569 422 C555 484 504 530 411 530 C271 530 172 453 78 260 C55 213 44 163 44 119 C44 54 94 -10 200 -10 C285 -10 350 19 412 87 L328 -93 C324 -102 327 -110 338 -110 L390 -110 C399 -110 403 -108 408 -97 L686 501 C690 510 687 518 676 518 L626 518 C617 518 613 516 608 505 L569 422 Z " />
<glyph glyph-name="r" unicode="r" horiz-adv-x="374" d="M236 518 C227 518 223 516 218 505 L-9 17 C-13 8 -10 0 1 0 L53 0 C62 0 66 2 71 13 L182 251 C224 341 326 434 409 434 C422 434 426 432 434 432 C445 432 447 433 452 443 L479 501 C484 511 482 520 470 520 C367 520 288 450 253 405 L298 501 C302 510 299 518 288 518 L236 518 Z " />
<glyph glyph-name="s" unicode="s" horiz-adv-x="461" d="M388 179 C388 231 350 264 292 292 C241 318 205 336 205 368 C205 446 297 461 352 461 C405 461 442 452 471 438 C479 434 484 436 489 442 L520 481 C526 489 523 494 518 497 C489 514 421 530 356 530 C232 530 122 467 122 344 C122 288 169 260 221 239 C274 216 310 194 310 160 C310 77 205 59 147 59 C95 59 47 68 15 84 C5 89 0 85 -5 78 L-34 41 C-40 34 -38 26 -31 23 C4 6 78 -10 140 -10 C265 -10 388 48 388 179 L388 179 Z " />
<glyph glyph-name="t" unicode="t" horiz-adv-x="357" d="M430 446 C439 446 443 448 448 459 L467 501 C471 510 468 518 457 518 L327 518 L384 642 C388 651 385 659 374 659 L327 659 C318 659 314 657 309 646 L250 518 L172 518 C163 518 159 516 154 505 L136 463 C132 454 135 446 146 446 L214 446 L79 155 C66 127 59 101 59 78 C59 27 94 -6 165 -6 C192 -6 214 -4 233 3 C241 6 248 9 250 18 L259 59 C261 69 255 74 245 72 C230 69 222 66 202 66 C158 66 142 78 142 100 C142 116 150 137 162 163 L293 446 L430 446 Z " />
<glyph glyph-name="u" unicode="u" horiz-adv-x="587" d="M65 194 C50 163 43 132 43 105 C43 37 88 -10 177 -10 C268 -10 325 29 365 70 L340 17 C336 8 339 0 350 0 L400 0 C409 0 413 2 418 13 L645 501 C649 510 646 518 635 518 L584 518 C575 518 571 516 566 505 L430 212 C386 118 312 64 214 64 C152 64 126 88 126 126 C126 144 132 166 143 189 L288 501 C292 510 289 518 278 518 L227 518 C218 518 214 516 209 505 L65 194 Z " />
<glyph glyph-name="v" unicode="v" horiz-adv-x="505" d="M191 0 C201 0 204 3 212 12 L612 496 C620 506 617 518 605 518 L555 518 C545 518 541 516 534 507 L319 245 L195 86 L193 86 L217 245 L244 505 C245 514 242 518 232 518 L182 518 C171 518 167 511 166 501 L115 15 C114 5 120 0 131 0 L191 0 Z " />
<glyph glyph-name="w" unicode="w" horiz-adv-x="825" d="M527 518 C517 518 513 515 506 506 L254 185 L177 83 L175 83 L199 185 L251 505 C252 514 249 518 239 518 L189 518 C178 518 175 511 173 501 L97 15 C95 5 102 0 113 0 L173 0 C183 0 187 3 194 12 L429 310 L510 419 L513 419 L495 310 L455 15 C454 5 460 0 471 0 L530 0 C540 0 544 2 551 12 L924 496 C932 506 929 518 917 518 L868 518 C858 518 854 516 847 507 L602 185 L529 83 L527 83 L547 185 L591 503 C592 513 586 518 575 518 L527 518 Z " />
<glyph glyph-name="x" unicode="x" horiz-adv-x="502" d="M248 508 C246 515 244 518 235 518 L181 518 C168 518 166 510 168 502 L234 263 L-56 20 C-65 12 -62 0 -50 0 L6 0 C16 0 23 5 31 12 L260 205 L308 11 C310 3 312 0 322 0 L374 0 C387 0 389 8 387 16 L321 263 L605 498 C614 506 611 518 599 518 L544 518 C534 518 527 513 519 506 L298 321 L248 508 Z " />
<glyph glyph-name="y" unicode="y" horiz-adv-x="501" d="M610 496 C618 506 615 518 603 518 L553 518 C543 518 539 516 532 507 L323 240 L203 85 L201 85 L222 240 L244 505 C245 514 242 518 232 518 L182 518 C171 518 167 511 166 501 L131 45 C127 -8 92 -43 31 -43 C3 -43 -11 -37 -21 -36 C-32 -34 -35 -36 -42 -46 L-68 -81 C-73 -88 -73 -95 -65 -99 C-46 -109 -17 -114 9 -114 C91 -114 135 -90 223 19 L610 496 Z " />
<glyph glyph-name="z" unicode="z" horiz-adv-x="489" d="M575 502 C579 511 576 518 565 518 L214 518 C205 518 201 516 196 505 L176 462 C172 453 175 445 186 445 L439 445 L-6 69 C-12 64 -17 57 -21 49 L-37 17 C-41 8 -38 0 -27 0 L328 0 C337 0 341 2 346 13 L366 56 C370 65 367 73 356 73 L101 73 L543 447 C550 453 556 461 560 469 L575 502 Z " />
<glyph glyph-name="braceleft" unicode="&#x7b;" horiz-adv-x="364" d="M77 278 C72 267 77 260 88 260 L101 260 C125 260 134 251 134 232 C134 221 131 206 126 187 C118 161 104 125 85 85 C66 43 50 0 50 -36 C50 -79 73 -110 139 -110 L168 -110 C180 -110 183 -106 188 -96 L204 -61 C209 -50 204 -43 193 -43 L176 -43 C142 -43 129 -33 129 -12 C129 -3 132 7 135 19 C141 40 153 66 168 98 C184 135 196 166 204 191 C211 212 213 228 213 241 C213 271 198 281 178 289 C228 288 290 356 352 495 C396 594 427 635 491 635 L514 635 C526 635 529 639 534 649 L552 684 C558 695 552 702 541 702 L500 702 C389 702 350 653 282 508 C227 389 196 333 135 333 L115 333 C103 333 99 329 95 319 L77 278 Z " />
<glyph glyph-name="bar" unicode="&#x7c;" horiz-adv-x="274" d="M175 705 C175 716 171 721 160 721 L115 721 C104 721 99 716 99 705 L99 -94 C99 -105 104 -110 115 -110 L160 -110 C171 -110 175 -105 175 -94 L175 705 Z " />
<glyph glyph-name="braceright" unicode="&#x7d;" horiz-adv-x="364" d="M373 314 C378 325 373 332 362 332 L349 332 C325 332 316 341 316 360 C316 371 319 386 324 405 C332 431 346 467 365 507 C384 549 400 592 400 628 C400 671 377 702 311 702 L282 702 C270 702 267 698 262 688 L244 653 C239 642 244 635 255 635 L274 635 C308 635 321 625 321 604 C321 595 318 585 315 573 C309 552 297 526 282 494 C266 457 254 426 246 401 C239 380 237 364 237 351 C237 321 252 311 272 303 C222 304 160 236 98 97 C54 -2 23 -43 -41 -43 L-65 -43 C-77 -43 -80 -47 -85 -57 L-101 -92 C-107 -103 -101 -110 -90 -110 L-50 -110 C61 -110 100 -61 168 84 C223 203 254 259 315 259 L335 259 C347 259 351 263 355 273 L373 314 Z " />
<glyph glyph-name="asciitilde" unicode="&#x7e;" horiz-adv-x="590" d="M269 419 C213 419 168 381 132 319 C127 310 127 303 133 300 L159 285 C165 282 171 283 178 292 C199 318 226 345 261 345 C284 345 300 338 324 326 L360 308 C398 289 424 284 455 284 C513 284 560 324 596 386 C601 395 600 400 594 403 L567 418 C561 421 555 420 548 411 C529 386 500 359 468 359 C447 359 431 365 406 376 L367 395 C328 414 301 419 269 419 L269 419 Z " />
<glyph glyph-name="uni00A0" unicode="&#xa0;" horiz-adv-x="300" d="" />
<glyph glyph-name="exclamdown" unicode="&#xa1;" horiz-adv-x="285" d="M175 319 C163 319 160 315 155 305 L-45 -92 C-50 -103 -45 -110 -34 -110 L32 -110 C44 -110 48 -106 52 -96 L222 301 C227 312 222 319 211 319 L175 319 Z M330 500 C335 511 330 518 319 518 L251 518 C239 518 236 514 231 504 L195 425 C190 414 195 407 206 407 L274 407 C286 407 289 411 294 421 L330 500 Z " />
<glyph glyph-name="cent" unicode="&#xa2;" horiz-adv-x="517" d="M78 261 C60 219 50 178 50 141 C50 67 89 9 176 -6 L142 -82 C137 -93 142 -100 153 -100 L184 -100 C196 -100 199 -96 204 -86 L239 -10 C295 -8 350 6 385 21 C392 24 399 29 399 39 L401 83 C401 91 393 95 384 90 C349 70 293 62 236 62 C168 62 132 102 132 152 C132 187 145 227 161 261 C223 395 319 457 425 457 C492 457 515 446 536 433 C544 428 552 431 557 436 L593 476 C599 483 599 490 592 495 C578 505 540 519 489 526 L523 600 C528 611 523 618 512 618 L481 618 C469 618 466 614 461 604 L427 530 C283 528 154 436 78 261 L78 261 Z " />
<glyph glyph-name="sterling" unicode="&#xa3;" horiz-adv-x="675" d="M230 320 C234 297 232 274 226 253 C199 162 88 92 -17 50 C-27 46 -26 43 -25 36 L-18 -6 C-17 -11 -12 -13 -2 -10 C50 8 118 18 176 18 C270 18 314 -7 403 -7 C528 -7 566 58 614 160 C621 175 617 181 608 181 L562 181 C551 181 548 177 542 164 C516 108 501 68 411 68 C324 68 299 88 221 88 C182 88 157 85 123 76 C208 108 283 166 307 254 C313 275 315 297 313 320 L500 320 C510 320 517 325 522 335 L538 369 C543 379 539 383 529 383 L317 383 C315 411 315 437 315 463 C315 570 400 637 562 637 C675 637 694 597 680 548 C675 532 664 517 660 504 C658 497 662 491 672 491 L718 491 C737 491 747 519 755 547 C760 563 762 579 762 593 C762 670 693 713 572 713 C354 713 228 600 228 451 C228 428 229 405 232 383 L150 383 C139 383 134 380 129 369 L113 335 C108 325 110 320 121 320 L230 320 Z " />
<glyph glyph-name="currency" unicode="&#xa4;" horiz-adv-x="638" d="M85 92 C77 85 77 78 85 71 L107 49 C115 41 120 41 128 49 L187 109 C223 82 265 73 318 73 C371 73 414 82 450 109 L510 49 C517 42 523 41 531 49 L553 71 C561 79 561 85 553 92 L494 149 C524 182 540 228 540 283 C540 337 524 382 494 416 L553 474 C561 481 560 488 553 495 L531 517 C523 525 518 525 510 517 L450 457 C414 483 371 493 318 493 C265 493 223 483 187 458 L128 517 C120 525 114 524 107 517 L85 495 C77 488 77 481 85 474 L141 417 C111 384 96 338 96 283 C96 228 111 181 141 147 L85 92 Z M472 283 C472 190 413 138 318 138 C223 138 164 190 164 283 C164 376 222 428 318 428 C413 428 472 376 472 283 L472 283 Z " />
<glyph glyph-name="yen" unicode="&#xa5;" horiz-adv-x="645" d="M351 173 L549 173 C561 173 564 177 569 187 L582 216 C587 227 582 234 571 234 L380 234 L391 259 L458 321 L617 321 C629 321 632 325 637 335 L650 364 C655 375 650 382 639 382 L518 382 L840 684 C848 691 845 702 834 702 L772 702 C761 702 758 699 748 690 L382 342 L380 342 L339 689 C338 699 336 702 324 702 L268 702 C257 702 251 696 252 686 L293 382 L166 382 C154 382 151 378 146 368 L133 339 C128 328 133 321 144 321 L295 321 L304 259 L293 234 L97 234 C85 234 82 230 77 220 L64 191 C59 180 64 173 75 173 L264 173 L191 18 C186 7 191 0 202 0 L257 0 C269 0 272 4 277 14 L351 173 Z " />
<glyph glyph-name="brokenbar" unicode="&#xa6;" horiz-adv-x="274" d="M175 705 C175 716 171 721 160 721 L115 721 C104 721 99 716 99 705 L99 406 C99 395 104 390 115 390 L160 390 C171 390 175 395 175 406 L175 705 Z M175 205 C175 216 171 221 160 221 L115 221 C104 221 99 216 99 205 L99 -94 C99 -105 104 -110 115 -110 L160 -110 C171 -110 175 -105 175 -94 L175 205 Z " />
<glyph glyph-name="section" unicode="&#xa7;" horiz-adv-x="712" d="M147 282 C147 228 195 196 280 155 C335 128 419 98 419 47 C419 -40 281 -43 214 -43 C146 -43 72 -31 50 -28 C34 -26 30 -27 24 -40 L10 -72 C5 -84 5 -90 16 -94 C33 -100 115 -115 196 -115 C337 -115 504 -86 504 61 C504 95 492 126 448 151 C536 170 652 206 652 316 C652 376 593 410 518 445 C433 485 383 512 384 545 C384 623 483 639 574 639 C658 639 706 627 735 620 C746 617 755 618 759 627 L778 667 C783 677 780 683 771 686 C742 694 685 712 596 712 C417 712 300 668 300 533 C300 505 318 474 349 453 C260 436 147 398 147 282 L147 282 Z M420 405 C521 366 581 333 566 281 C548 221 417 198 375 195 C280 235 229 255 229 293 C229 371 363 402 420 405 L420 405 Z " />
<glyph glyph-name="dieresis" unicode="&#xa8;" horiz-adv-x="337" d="M339 674 C344 685 339 692 328 692 L277 692 C265 692 262 688 257 678 L223 605 C218 594 223 587 234 587 L285 587 C297 587 300 591 305 601 L339 674 Z M519 674 C524 685 519 692 508 692 L457 692 C445 692 442 688 437 678 L403 605 C398 594 403 587 414 587 L465 587 C477 587 480 591 485 601 L519 674 Z " />
<glyph glyph-name="copyright" unicode="&#xa9;" horiz-adv-x="855" d="M448 209 C364 209 302 262 302 354 C302 447 363 498 450 498 C492 498 522 488 542 476 C550 471 554 476 556 483 L571 520 C573 526 571 529 564 533 C541 548 492 562 441 562 C322 562 229 495 229 354 C229 213 323 145 440 145 C490 145 543 162 567 175 C574 179 576 181 574 188 L560 224 C558 230 552 235 545 231 C524 220 494 209 448 209 L448 209 Z M108 351 C108 517 218 660 427 660 C636 660 747 517 747 351 C747 185 636 43 427 43 C218 43 108 185 108 351 L108 351 Z M53 351 C53 158 184 -10 427 -10 C671 -10 802 158 802 351 C802 545 671 713 427 713 C184 713 53 545 53 351 L53 351 Z " />
<glyph glyph-name="ordfeminine" unicode="&#xaa;" horiz-adv-x="460" d="M539 650 C512 589 443 539 344 539 C291 539 277 552 277 572 C277 683 487 685 555 685 L539 650 Z M473 505 C469 497 471 487 485 487 L522 487 C534 487 536 490 541 501 L665 768 C676 792 684 816 684 841 C684 895 630 923 540 923 C478 923 437 912 384 893 C377 890 370 888 369 878 L365 838 C364 831 369 825 382 830 C428 846 479 858 527 858 C587 858 610 847 610 821 C610 808 605 792 595 771 L583 744 C467 742 203 740 203 563 C201 516 240 481 317 481 C410 481 465 517 492 547 L473 505 Z " />
<glyph glyph-name="guillemotleft" unicode="&#xab;" horiz-adv-x="423" d="M68 272 C66 268 67 263 68 258 L88 129 C89 121 92 117 103 117 L145 117 C156 117 161 123 159 135 L138 264 L291 404 C300 413 297 426 285 426 L243 426 C232 426 228 421 220 414 L79 285 C73 279 69 275 68 272 L68 272 Z M239 272 C237 268 238 263 239 258 L259 129 C260 121 263 117 274 117 L316 117 C327 117 332 123 330 135 L309 264 L462 404 C471 413 468 426 456 426 L414 426 C403 426 399 421 391 414 L250 285 C244 279 240 275 239 272 L239 272 Z " />
<glyph glyph-name="logicalnot" unicode="&#xac;" horiz-adv-x="593" d="M587 366 C591 375 587 382 576 382 L152 382 C141 382 138 380 133 370 L113 326 C109 317 113 310 124 310 L483 310 L412 156 C408 147 412 140 423 140 L469 140 C480 140 483 142 488 152 L587 366 Z " />
<glyph glyph-name="uni00AD" unicode="&#xad;" horiz-adv-x="391" d="M346 225 C357 225 360 227 365 237 L384 278 C388 287 384 294 373 294 L97 294 C86 294 83 292 78 282 L59 241 C55 232 59 225 70 225 L346 225 Z " />
<glyph glyph-name="registered" unicode="&#xae;" horiz-adv-x="462" d="M198 538 L198 606 L235 606 C272 606 287 596 287 572 C287 546 273 538 231 538 L198 538 Z M231 713 C111 713 61 630 61 537 C61 444 111 360 231 360 C352 360 400 444 400 537 C400 630 352 713 231 713 L231 713 Z M231 390 C129 390 93 457 93 537 C93 616 129 684 231 684 C332 684 369 616 369 537 C369 457 332 390 231 390 L231 390 Z M161 448 C161 443 164 441 169 441 L191 441 C196 441 198 443 198 448 L198 508 L234 508 L281 446 C284 442 286 441 290 441 L317 441 C322 441 325 445 322 449 L273 512 C302 516 324 533 324 572 C324 614 293 638 240 638 L169 638 C164 638 161 636 161 630 L161 448 Z " />
<glyph glyph-name="macron" unicode="&#xaf;" horiz-adv-x="337" d="M493 593 C505 593 509 597 513 607 L524 631 C529 642 524 649 513 649 L231 649 C219 649 215 645 211 635 L200 611 C195 600 200 593 211 593 L493 593 Z " />
<glyph glyph-name="degree" unicode="&#xb0;" horiz-adv-x="366" d="M319 492 C274 492 262 510 262 538 C262 604 333 658 392 658 C428 658 449 640 449 612 C449 547 378 492 319 492 L319 492 Z M302 438 C419 438 510 529 510 630 C510 678 472 711 409 711 C293 711 201 616 201 524 C201 474 241 438 302 438 L302 438 Z " />
<glyph glyph-name="plusminus" unicode="&#xb1;" horiz-adv-x="590" d="M575 329 C587 329 590 333 595 343 L612 379 C617 390 612 397 601 397 L422 397 L503 573 C508 584 503 591 492 591 L450 591 C438 591 435 587 430 577 L347 397 L163 397 C151 397 148 393 143 383 L126 347 C121 336 126 329 137 329 L315 329 L232 151 C227 140 232 133 243 133 L285 133 C297 133 300 137 305 147 L390 329 L575 329 Z M421 0 C433 0 436 4 441 14 L456 44 C461 55 456 62 445 62 L8 62 C-4 62 -7 58 -12 48 L-27 18 C-32 7 -27 0 -16 0 L421 0 Z " />
<glyph glyph-name="two.superior" unicode="&#xb2;" horiz-adv-x="425" d="M193 507 C188 496 193 487 206 487 L492 487 C504 487 508 490 513 501 L528 533 C533 544 528 553 515 553 L340 553 C458 609 650 702 650 836 C650 883 613 922 525 922 C395 922 340 855 313 761 C311 752 315 746 329 746 L363 746 C378 746 381 755 385 769 C402 826 444 857 504 857 C550 857 572 842 572 821 C572 705 317 597 225 550 C214 544 210 542 205 532 L193 507 Z " />
<glyph glyph-name="three.superior" unicode="&#xb3;" horiz-adv-x="425" d="M331 695 C326 684 331 675 344 675 L387 675 C438 675 456 665 456 641 C456 577 405 547 323 547 C271 547 237 561 217 571 C208 575 201 573 192 563 L168 535 C161 527 165 521 173 516 C190 505 250 482 315 482 C446 482 536 542 536 642 C536 677 513 698 493 706 C548 718 614 763 614 842 C616 892 569 922 489 922 C428 922 384 915 350 901 C337 896 330 891 329 882 L327 847 C326 837 331 831 346 836 C374 845 414 857 459 857 C507 857 535 845 535 819 C535 768 484 739 424 739 L366 739 C354 739 350 736 345 725 L331 695 Z " />
<glyph glyph-name="acute" unicode="&#xb4;" horiz-adv-x="337" d="M278 602 C272 596 274 587 285 587 L312 587 C323 587 325 589 336 596 L471 684 C480 691 476 702 467 702 L399 702 C386 702 383 698 375 691 L278 602 Z " />
<glyph glyph-name="mu" unicode="&#xb5;" horiz-adv-x="591" d="M104 86 C106 45 145 -12 250 -12 C386 -12 450 59 505 177 L655 502 C659 510 656 518 645 518 L594 518 C585 518 581 516 576 505 L429 189 C393 112 352 62 252 62 C179 62 145 98 145 146 C145 165 150 186 161 207 L297 501 C301 510 298 518 287 518 L236 518 C227 518 223 516 218 505 L-59 -93 C-63 -102 -60 -110 -49 -110 L2 -110 C11 -110 15 -108 20 -97 L104 86 Z " />
<glyph glyph-name="paragraph" unicode="&#xb6;" horiz-adv-x="524" d="M502 642 C513 642 518 646 518 657 L518 687 C518 698 513 702 502 702 L297 702 C146 702 48 623 48 486 C48 349 156 269 302 269 L336 269 L336 11 C336 -31 318 -53 287 -53 C274 -53 262 -50 247 -48 C236 -47 232 -51 231 -59 L229 -89 C228 -96 232 -101 239 -104 C257 -110 275 -114 302 -114 C370 -114 407 -76 407 3 L407 588 C407 631 422 642 462 642 L502 642 Z " />
<glyph glyph-name="periodcentered" unicode="&#xb7;" horiz-adv-x="228" d="M75 225 C70 214 75 207 86 207 L149 207 C161 207 164 211 169 221 L205 297 C210 308 205 315 194 315 L131 315 C119 315 116 311 111 301 L75 225 Z " />
<glyph glyph-name="cedilla" unicode="&#xb8;" horiz-adv-x="337" d="M47 8 C89 -11 106 -28 106 -54 C106 -90 76 -101 43 -101 L6 -101 C-3 -101 -5 -103 -7 -108 L-19 -134 C-21 -139 -21 -144 -15 -146 C1 -151 24 -151 38 -151 C108 -151 158 -119 158 -59 C158 -28 127 0 88 8 L47 8 Z " />
<glyph glyph-name="one.superior" unicode="&#xb9;" horiz-adv-x="425" d="M345 507 C340 496 345 487 358 487 L392 487 C404 487 408 490 413 501 L597 897 C602 908 597 917 584 917 L555 917 C545 917 538 915 531 911 L372 826 C362 821 357 816 359 806 L365 780 C367 771 378 768 390 774 L492 824 L345 507 Z " />
<glyph glyph-name="ordmasculine" unicode="&#xba;" horiz-adv-x="483" d="M541 857 C605 857 625 825 625 786 C625 759 615 728 603 702 C555 597 486 548 406 548 C342 548 321 579 321 619 C321 645 330 675 342 702 C391 807 461 857 541 857 L541 857 Z M391 482 C524 482 612 557 679 702 C695 738 704 772 704 803 C704 873 659 923 558 923 C424 923 334 848 266 702 C251 666 243 633 243 603 C243 531 289 482 391 482 L391 482 Z " />
<glyph glyph-name="guillemotright" unicode="&#xbb;" horiz-adv-x="423" d="M417 271 C419 275 419 280 418 285 L397 414 C396 422 393 426 382 426 L340 426 C329 426 324 420 326 408 L347 279 L194 139 C185 130 188 117 200 117 L242 117 C253 117 257 122 265 129 L406 258 C412 264 416 268 417 271 L417 271 Z M246 271 C248 275 248 280 247 285 L226 414 C225 422 222 426 211 426 L169 426 C158 426 153 420 155 408 L176 279 L23 139 C14 130 17 117 29 117 L71 117 C82 117 86 122 94 129 L235 258 C241 264 245 268 246 271 L246 271 Z " />
<glyph glyph-name="onequarter" unicode="&#xbc;" horiz-adv-x="1000" d="M557 113 C552 102 557 93 570 93 L780 93 L747 20 C742 9 747 0 760 0 L794 0 C806 0 810 3 815 14 L851 93 L906 93 C918 93 922 96 927 107 L941 139 C946 150 941 159 928 159 L882 159 L999 412 C1004 424 1002 430 989 430 L954 430 C945 430 942 428 932 421 L584 156 C576 150 572 146 569 139 L557 113 Z M982 683 C991 692 986 702 977 702 L932 702 C920 702 918 700 909 692 L176 19 C167 10 172 0 181 0 L225 0 C237 0 239 2 248 10 L982 683 Z M245 292 C240 281 245 272 258 272 L292 272 C304 272 308 275 313 286 L497 682 C502 693 497 702 484 702 L455 702 C445 702 438 700 431 696 L272 611 C262 606 257 601 259 591 L265 565 C267 556 278 553 290 559 L392 609 L245 292 Z M893 335 L811 159 L661 159 L893 335 Z " />
<glyph glyph-name="onehalf" unicode="&#xbd;" horiz-adv-x="1000" d="M542 20 C537 9 542 0 555 0 L841 0 C853 0 857 3 862 14 L877 46 C882 57 877 66 864 66 L689 66 C807 122 999 215 999 349 C999 396 962 435 874 435 C744 435 689 368 662 274 C660 265 664 259 678 259 L712 259 C727 259 730 268 734 282 C751 339 793 370 853 370 C899 370 921 355 921 334 C921 218 666 110 574 63 C563 57 559 55 554 45 L542 20 Z M942 683 C951 692 946 702 937 702 L892 702 C880 702 878 700 869 692 L136 19 C127 10 132 0 141 0 L185 0 C197 0 199 2 208 10 L942 683 Z M245 292 C240 281 245 272 258 272 L292 272 C304 272 308 275 313 286 L497 682 C502 693 497 702 484 702 L455 702 C445 702 438 700 431 696 L272 611 C262 606 257 601 259 591 L265 565 C267 556 278 553 290 559 L392 609 L245 292 Z " />
<glyph glyph-name="threequarters" unicode="&#xbe;" horiz-adv-x="1000" d="M557 113 C552 102 557 93 570 93 L780 93 L747 20 C742 9 747 0 760 0 L794 0 C806 0 810 3 815 14 L851 93 L906 93 C918 93 922 96 927 107 L941 139 C946 150 941 159 928 159 L882 159 L999 412 C1004 424 1002 430 989 430 L954 430 C945 430 942 428 932 421 L584 156 C576 150 572 146 569 139 L557 113 Z M231 480 C226 469 231 460 244 460 L287 460 C338 460 356 450 356 426 C356 362 305 332 223 332 C171 332 137 346 117 356 C108 360 101 358 92 348 L68 320 C61 312 65 306 73 301 C90 290 150 267 215 267 C346 267 436 327 436 427 C436 462 413 483 393 491 C448 503 514 548 514 627 C516 677 469 707 389 707 C328 707 284 700 250 686 C237 681 230 676 229 667 L227 632 C226 622 231 616 246 621 C274 630 314 642 359 642 C407 642 435 630 435 604 C435 553 384 524 324 524 L266 524 C254 524 250 521 245 510 L231 480 Z M998 683 C1007 692 1002 702 993 702 L948 702 C936 702 934 700 925 692 L192 19 C183 10 188 0 197 0 L241 0 C253 0 255 2 264 10 L998 683 Z M893 335 L811 159 L661 159 L893 335 Z " />
<glyph glyph-name="questiondown" unicode="&#xbf;" horiz-adv-x="467" d="M437 500 C442 511 437 518 426 518 L358 518 C346 518 343 514 338 504 L302 425 C297 414 302 407 313 407 L381 407 C393 407 396 411 401 421 L437 500 Z M256 306 L245 281 C202 183 -45 135 -45 -2 C-45 -79 14 -117 123 -117 C195 -117 250 -105 299 -84 C309 -80 316 -75 317 -66 L323 -18 C324 -12 320 -5 307 -9 C265 -23 201 -41 159 -41 C72 -41 45 -25 45 9 C45 104 277 164 327 281 L336 302 C341 313 336 320 325 320 L276 320 C264 320 261 316 256 306 L256 306 Z " />
<glyph glyph-name="Agrave" unicode="&#xc0;" horiz-adv-x="669" d="M530 702 C519 702 515 701 506 690 L-58 18 C-65 10 -63 0 -52 0 L8 0 C19 0 23 2 32 12 L176 182 L483 182 L468 15 C467 6 470 0 481 0 L537 0 C548 0 552 6 553 16 L613 685 C614 696 611 702 597 702 L530 702 Z M239 260 L530 616 L532 616 L492 260 L239 260 Z M599 856 C597 866 592 869 580 869 L515 869 C499 869 495 858 501 848 L555 763 C560 755 564 754 575 754 L603 754 C615 754 618 760 616 769 L599 856 Z " />
<glyph glyph-name="Aacute" unicode="&#xc1;" horiz-adv-x="669" d="M530 702 C519 702 515 701 506 690 L-58 18 C-65 10 -63 0 -52 0 L8 0 C19 0 23 2 32 12 L176 182 L483 182 L468 15 C467 6 470 0 481 0 L537 0 C548 0 552 6 553 16 L613 685 C614 696 611 702 597 702 L530 702 Z M239 260 L530 616 L532 616 L492 260 L239 260 Z M577 769 C571 763 573 754 584 754 L611 754 C622 754 624 756 635 763 L771 851 C780 857 776 869 767 869 L699 869 C686 869 683 865 675 858 L577 769 Z " />
<glyph glyph-name="Acircumflex" unicode="&#xc2;" horiz-adv-x="669" d="M668 765 C674 758 680 754 689 754 L721 754 C732 754 736 763 731 771 L682 856 C678 863 673 867 661 867 L619 867 C610 867 607 865 599 860 L461 769 C454 764 457 754 468 754 L509 754 C520 754 522 757 533 763 L627 815 L668 765 Z M239 260 L530 616 L532 616 L492 260 L239 260 Z M530 702 C519 702 515 701 506 690 L-58 18 C-65 10 -63 0 -52 0 L8 0 C19 0 23 2 32 12 L176 182 L483 182 L468 15 C467 6 470 0 481 0 L537 0 C548 0 552 6 553 16 L613 685 C614 696 611 702 597 702 L530 702 Z " />
<glyph glyph-name="Atilde" unicode="&#xc3;" horiz-adv-x="669" d="M785 822 C793 839 783 843 777 843 L755 843 C742 843 739 840 733 830 C719 805 708 799 695 799 C681 799 664 804 643 813 L621 822 C592 833 556 844 534 844 C473 844 453 810 436 772 C429 756 435 752 443 752 L466 752 C478 752 482 755 487 765 C499 786 511 790 523 790 C539 790 559 784 579 777 L599 770 C630 759 664 749 687 749 C748 749 768 784 785 822 L785 822 Z M239 260 L530 616 L532 616 L492 260 L239 260 Z M530 702 C519 702 515 701 506 690 L-58 18 C-65 10 -63 0 -52 0 L8 0 C19 0 23 2 32 12 L176 182 L483 182 L468 15 C467 6 470 0 481 0 L537 0 C548 0 552 6 553 16 L613 685 C614 696 611 702 597 702 L530 702 Z " />
<glyph glyph-name="Adieresis" unicode="&#xc4;" horiz-adv-x="669" d="M530 702 C519 702 515 701 506 690 L-58 18 C-65 10 -63 0 -52 0 L8 0 C19 0 23 2 32 12 L176 182 L483 182 L468 15 C467 6 470 0 481 0 L537 0 C548 0 552 6 553 16 L613 685 C614 696 611 702 597 702 L530 702 Z M239 260 L530 616 L532 616 L492 260 L239 260 Z M580 838 C585 849 580 856 569 856 L515 856 C503 856 500 852 495 842 L462 772 C457 761 462 754 473 754 L527 754 C539 754 542 758 547 768 L580 838 Z M767 838 C772 849 767 856 756 856 L702 856 C690 856 687 852 682 842 L649 772 C644 761 649 754 660 754 L714 754 C726 754 729 758 734 768 L767 838 Z " />
<glyph glyph-name="Aring" unicode="&#xc5;" horiz-adv-x="669" d="M701 776 C701 815 671 848 615 848 C533 848 477 795 477 727 C477 710 485 691 498 680 L-58 18 C-65 10 -63 0 -52 0 L8 0 C19 0 23 2 32 12 L176 182 L483 182 L468 15 C467 6 470 0 481 0 L537 0 C548 0 552 6 553 16 L612 672 C655 682 701 722 701 776 L701 776 Z M239 260 L530 616 L532 616 L492 260 L239 260 Z M602 805 C636 805 652 792 652 770 C652 727 616 703 571 703 C544 703 527 714 527 736 C527 778 560 805 602 805 L602 805 Z " />
<glyph glyph-name="AE" unicode="&#xc6;" horiz-adv-x="877" d="M253 249 L623 624 L636 624 L460 249 L253 249 Z M851 321 C863 321 866 325 871 335 L892 379 C897 390 892 397 881 397 L617 397 L721 622 L1001 622 C1013 622 1016 626 1021 636 L1044 684 C1049 695 1044 702 1033 702 L626 702 C615 702 612 700 602 690 L-74 18 C-82 11 -79 0 -68 0 L-8 0 C3 0 6 2 16 12 L177 173 L426 173 L353 18 C348 7 353 0 364 0 L716 0 C728 0 731 4 736 14 L759 62 C764 73 759 80 748 80 L470 80 L581 321 L851 321 Z " />
<glyph glyph-name="Ccedilla" unicode="&#xc7;" horiz-adv-x="606" d="M325 69 C213 69 171 120 171 191 C171 238 189 295 214 351 C300 537 421 634 580 634 C635 634 675 622 701 605 C711 598 718 600 725 608 L762 650 C768 657 767 665 760 670 C725 695 661 713 585 713 C388 713 232 584 126 351 C98 289 82 227 82 173 C82 98 113 38 186 9 C217 -10 239 -41 239 -64 C239 -99 214 -110 177 -110 L139 -110 C131 -110 128 -111 125 -117 L113 -142 C110 -148 111 -154 117 -157 C125 -161 146 -164 160 -164 C240 -164 294 -137 294 -70 C294 -43 284 -23 269 -8 C279 -9 290 -10 301 -10 C376 -10 428 3 482 30 C488 33 493 38 493 47 L494 95 C494 102 488 108 477 103 C435 84 383 69 325 69 L325 69 Z " />
<glyph glyph-name="Egrave" unicode="&#xc8;" horiz-adv-x="554" d="M606 856 C604 866 599 869 587 869 L522 869 C506 869 502 858 508 848 L562 763 C567 755 571 754 582 754 L610 754 C622 754 625 760 623 769 L606 856 Z M527 321 C539 321 542 325 547 335 L568 379 C573 390 568 397 557 397 L264 397 L368 623 L679 623 C691 623 694 627 699 637 L722 684 C727 695 722 702 711 702 L333 702 C321 702 318 698 313 688 L1 18 C-4 7 1 0 12 0 L394 0 C406 0 409 4 414 14 L436 61 C441 72 436 79 425 79 L115 79 L228 321 L527 321 Z " />
<glyph glyph-name="Eacute" unicode="&#xc9;" horiz-adv-x="554" d="M520 769 C514 763 516 754 527 754 L554 754 C565 754 567 756 578 763 L714 851 C723 857 719 869 710 869 L642 869 C629 869 626 865 618 858 L520 769 Z M527 321 C539 321 542 325 547 335 L568 379 C573 390 568 397 557 397 L264 397 L368 623 L679 623 C691 623 694 627 699 637 L722 684 C727 695 722 702 711 702 L333 702 C321 702 318 698 313 688 L1 18 C-4 7 1 0 12 0 L394 0 C406 0 409 4 414 14 L436 61 C441 72 436 79 425 79 L115 79 L228 321 L527 321 Z " />
<glyph glyph-name="Ecircumflex" unicode="&#xca;" horiz-adv-x="554" d="M527 321 C539 321 542 325 547 335 L568 379 C573 390 568 397 557 397 L264 397 L368 623 L679 623 C691 623 694 627 699 637 L722 684 C727 695 722 702 711 702 L333 702 C321 702 318 698 313 688 L1 18 C-4 7 1 0 12 0 L394 0 C406 0 409 4 414 14 L436 61 C441 72 436 79 425 79 L115 79 L228 321 L527 321 Z M631 765 C637 758 643 754 652 754 L684 754 C695 754 699 763 694 771 L645 856 C641 863 636 867 624 867 L582 867 C573 867 570 865 562 860 L424 769 C417 764 420 754 431 754 L472 754 C483 754 485 757 496 763 L590 815 L631 765 Z " />
<glyph glyph-name="Edieresis" unicode="&#xcb;" horiz-adv-x="554" d="M527 321 C539 321 542 325 547 335 L568 379 C573 390 568 397 557 397 L264 397 L368 623 L679 623 C691 623 694 627 699 637 L722 684 C727 695 722 702 711 702 L333 702 C321 702 318 698 313 688 L1 18 C-4 7 1 0 12 0 L394 0 C406 0 409 4 414 14 L436 61 C441 72 436 79 425 79 L115 79 L228 321 L527 321 Z M542 838 C547 849 542 856 531 856 L477 856 C465 856 462 852 457 842 L424 772 C419 761 424 754 435 754 L489 754 C501 754 504 758 509 768 L542 838 Z M729 838 C734 849 729 856 718 856 L664 856 C652 856 649 852 644 842 L611 772 C606 761 611 754 622 754 L676 754 C688 754 691 758 696 768 L729 838 Z " />
<glyph glyph-name="Igrave" unicode="&#xcc;" horiz-adv-x="278" d="M9 18 C4 7 9 0 20 0 L73 0 C85 0 88 4 93 14 L405 684 C410 695 405 702 394 702 L341 702 C329 702 326 698 321 688 L9 18 Z M411 856 C409 866 404 869 392 869 L327 869 C311 869 307 858 313 848 L367 763 C372 755 376 754 387 754 L415 754 C427 754 430 760 428 769 L411 856 Z " />
<glyph glyph-name="Iacute" unicode="&#xcd;" horiz-adv-x="278" d="M9 18 C4 7 9 0 20 0 L73 0 C85 0 88 4 93 14 L405 684 C410 695 405 702 394 702 L341 702 C329 702 326 698 321 688 L9 18 Z M374 769 C368 763 370 754 381 754 L408 754 C419 754 421 756 432 763 L568 851 C577 857 573 869 564 869 L496 869 C483 869 480 865 472 858 L374 769 Z " />
<glyph glyph-name="Icircumflex" unicode="&#xce;" horiz-adv-x="278" d="M9 18 C4 7 9 0 20 0 L73 0 C85 0 88 4 93 14 L405 684 C410 695 405 702 394 702 L341 702 C329 702 326 698 321 688 L9 18 Z M471 765 C477 758 483 754 492 754 L524 754 C535 754 539 763 534 771 L485 856 C481 863 476 867 464 867 L422 867 C413 867 410 865 402 860 L264 769 C257 764 260 754 271 754 L312 754 C323 754 325 757 336 763 L430 815 L471 765 Z " />
<glyph glyph-name="Idieresis" unicode="&#xcf;" horiz-adv-x="278" d="M9 18 C4 7 9 0 20 0 L73 0 C85 0 88 4 93 14 L405 684 C410 695 405 702 394 702 L341 702 C329 702 326 698 321 688 L9 18 Z M383 838 C388 849 383 856 372 856 L318 856 C306 856 303 852 298 842 L265 772 C260 761 265 754 276 754 L330 754 C342 754 345 758 350 768 L383 838 Z M570 838 C575 849 570 856 559 856 L505 856 C493 856 490 852 485 842 L452 772 C447 761 452 754 463 754 L517 754 C529 754 532 758 537 768 L570 838 Z " />
<glyph glyph-name="Eth" unicode="&#xd0;" horiz-adv-x="685" d="M334 702 C322 702 319 698 314 688 L172 384 L119 384 C108 384 103 381 98 370 L82 336 C77 326 79 321 90 321 L143 321 L2 18 C-3 7 2 0 13 0 L215 0 C512 0 570 80 702 363 C732 428 746 483 746 531 C746 647 656 702 493 702 L334 702 Z M466 622 C621 622 660 593 660 514 C660 476 639 416 614 363 C508 136 441 80 227 80 L118 80 L230 321 L384 321 C395 321 400 324 405 335 L421 369 C426 379 424 384 413 384 L259 384 L369 622 L466 622 Z " />
<glyph glyph-name="Ntilde" unicode="&#xd1;" horiz-adv-x="710" d="M805 822 C813 839 803 843 797 843 L775 843 C762 843 759 840 753 830 C739 805 728 799 715 799 C701 799 684 804 663 813 L641 822 C612 833 576 844 554 844 C493 844 473 810 456 772 C449 756 455 752 463 752 L486 752 C498 752 502 755 507 765 C519 786 531 790 543 790 C559 790 579 784 599 777 L619 770 C650 759 684 749 707 749 C768 749 788 784 805 822 L805 822 Z M845 684 C850 695 845 702 834 702 L782 702 C770 702 767 698 762 688 L509 143 L407 684 C405 695 399 702 385 702 L334 702 C322 702 319 698 314 688 L2 18 C-3 7 2 0 13 0 L64 0 C76 0 79 4 84 14 L338 559 L440 18 C442 7 448 0 462 0 L512 0 C524 0 527 4 532 14 L845 684 Z " />
<glyph glyph-name="Ograve" unicode="&#xd2;" horiz-adv-x="716" d="M574 713 C379 713 229 584 124 351 C95 287 78 223 78 167 C78 65 135 -10 280 -10 C476 -10 628 115 728 351 C756 417 773 483 773 540 C773 640 720 713 574 713 L574 713 Z M297 68 C198 68 167 121 167 185 C167 241 191 306 213 353 C297 535 411 635 555 635 C654 635 685 583 685 518 C685 462 661 396 639 349 C554 167 441 68 297 68 L297 68 Z M641 856 C639 866 634 869 622 869 L557 869 C541 869 537 858 543 848 L597 763 C602 755 606 754 617 754 L645 754 C657 754 660 760 658 769 L641 856 Z " />
<glyph glyph-name="Oacute" unicode="&#xd3;" horiz-adv-x="716" d="M574 713 C379 713 229 584 124 351 C95 287 78 223 78 167 C78 65 135 -10 280 -10 C476 -10 628 115 728 351 C756 417 773 483 773 540 C773 640 720 713 574 713 L574 713 Z M297 68 C198 68 167 121 167 185 C167 241 191 306 213 353 C297 535 411 635 555 635 C654 635 685 583 685 518 C685 462 661 396 639 349 C554 167 441 68 297 68 L297 68 Z M592 769 C586 763 588 754 599 754 L626 754 C637 754 639 756 650 763 L786 851 C795 857 791 869 782 869 L714 869 C701 869 698 865 690 858 L592 769 Z " />
<glyph glyph-name="Ocircumflex" unicode="&#xd4;" horiz-adv-x="716" d="M574 713 C379 713 229 584 124 351 C95 287 78 223 78 167 C78 65 135 -10 280 -10 C476 -10 628 115 728 351 C756 417 773 483 773 540 C773 640 720 713 574 713 L574 713 Z M297 68 C198 68 167 121 167 185 C167 241 191 306 213 353 C297 535 411 635 555 635 C654 635 685 583 685 518 C685 462 661 396 639 349 C554 167 441 68 297 68 L297 68 Z M691 765 C697 758 703 754 712 754 L744 754 C755 754 759 763 754 771 L705 856 C701 863 696 867 684 867 L642 867 C633 867 630 865 622 860 L484 769 C477 764 480 754 491 754 L532 754 C543 754 545 757 556 763 L650 815 L691 765 Z " />
<glyph glyph-name="Otilde" unicode="&#xd5;" horiz-adv-x="716" d="M808 822 C816 839 806 843 800 843 L778 843 C765 843 762 840 756 830 C742 805 731 799 718 799 C704 799 687 804 666 813 L644 822 C615 833 579 844 557 844 C496 844 476 810 459 772 C452 756 458 752 466 752 L489 752 C501 752 505 755 510 765 C522 786 534 790 546 790 C562 790 582 784 602 777 L622 770 C653 759 687 749 710 749 C771 749 791 784 808 822 L808 822 Z M574 713 C379 713 229 584 124 351 C95 287 78 223 78 167 C78 65 135 -10 280 -10 C476 -10 628 115 728 351 C756 417 773 483 773 540 C773 640 720 713 574 713 L574 713 Z M297 68 C198 68 167 121 167 185 C167 241 191 306 213 353 C297 535 411 635 555 635 C654 635 685 583 685 518 C685 462 661 396 639 349 C554 167 441 68 297 68 L297 68 Z " />
<glyph glyph-name="Odieresis" unicode="&#xd6;" horiz-adv-x="716" d="M574 713 C379 713 229 584 124 351 C95 287 78 223 78 167 C78 65 135 -10 280 -10 C476 -10 628 115 728 351 C756 417 773 483 773 540 C773 640 720 713 574 713 L574 713 Z M297 68 C198 68 167 121 167 185 C167 241 191 306 213 353 C297 535 411 635 555 635 C654 635 685 583 685 518 C685 462 661 396 639 349 C554 167 441 68 297 68 L297 68 Z M603 838 C608 849 603 856 592 856 L538 856 C526 856 523 852 518 842 L485 772 C480 761 485 754 496 754 L550 754 C562 754 565 758 570 768 L603 838 Z M790 838 C795 849 790 856 779 856 L725 856 C713 856 710 852 705 842 L672 772 C667 761 672 754 683 754 L737 754 C749 754 752 758 757 768 L790 838 Z " />
<glyph glyph-name="multiply" unicode="&#xd7;" horiz-adv-x="590" d="M408 342 L638 499 C648 506 651 509 647 516 L631 544 C627 551 619 552 609 546 L375 391 L296 541 C292 548 285 552 272 543 L232 516 C223 510 224 501 227 494 L309 342 L79 185 C69 178 66 175 70 168 L86 140 C90 133 98 132 108 138 L342 293 L421 143 C425 136 432 132 445 141 L485 168 C494 174 493 183 490 190 L408 342 Z " />
<glyph glyph-name="Oslash" unicode="&#xd8;" horiz-adv-x="718" d="M574 713 C379 713 229 584 124 351 C95 287 78 223 78 167 C78 155 79 143 80 131 L-30 51 C-37 46 -41 42 -36 34 L-20 8 C-16 1 -8 3 1 10 L96 79 C123 25 181 -10 280 -10 C476 -10 628 115 728 351 C756 417 773 483 773 540 C773 550 772 560 771 569 L881 649 C888 654 892 658 887 666 L870 693 C866 700 858 698 849 691 L756 623 C731 678 675 713 574 713 L574 713 Z M213 353 C297 535 411 635 555 635 C628 635 663 607 677 566 L167 194 C169 248 192 308 213 353 L213 353 Z M297 68 C224 68 188 96 174 136 L685 506 C682 453 659 393 639 349 C554 167 441 68 297 68 L297 68 Z " />
<glyph glyph-name="Ugrave" unicode="&#xd9;" horiz-adv-x="696" d="M835 684 C840 695 835 702 824 702 L772 702 C760 702 757 698 752 688 L550 254 C486 117 436 67 290 67 C206 67 167 102 167 159 C167 186 175 218 192 254 L392 684 C397 695 392 702 381 702 L328 702 C316 702 313 698 308 688 L103 248 C88 216 80 184 80 153 C80 62 146 -12 271 -12 C489 -12 550 72 632 248 L835 684 Z M641 856 C639 866 634 869 622 869 L557 869 C541 869 537 858 543 848 L597 763 C602 755 606 754 617 754 L645 754 C657 754 660 760 658 769 L641 856 Z " />
<glyph glyph-name="Uacute" unicode="&#xda;" horiz-adv-x="696" d="M835 684 C840 695 835 702 824 702 L772 702 C760 702 757 698 752 688 L550 254 C486 117 436 67 290 67 C206 67 167 102 167 159 C167 186 175 218 192 254 L392 684 C397 695 392 702 381 702 L328 702 C316 702 313 698 308 688 L103 248 C88 216 80 184 80 153 C80 62 146 -12 271 -12 C489 -12 550 72 632 248 L835 684 Z M562 769 C556 763 558 754 569 754 L596 754 C607 754 609 756 620 763 L756 851 C765 857 761 869 752 869 L684 869 C671 869 668 865 660 858 L562 769 Z " />
<glyph glyph-name="Ucircumflex" unicode="&#xdb;" horiz-adv-x="696" d="M835 684 C840 695 835 702 824 702 L772 702 C760 702 757 698 752 688 L550 254 C486 117 436 67 290 67 C206 67 167 102 167 159 C167 186 175 218 192 254 L392 684 C397 695 392 702 381 702 L328 702 C316 702 313 698 308 688 L103 248 C88 216 80 184 80 153 C80 62 146 -12 271 -12 C489 -12 550 72 632 248 L835 684 Z M681 765 C687 758 693 754 702 754 L734 754 C745 754 749 763 744 771 L695 856 C691 863 686 867 674 867 L632 867 C623 867 620 865 612 860 L474 769 C467 764 470 754 481 754 L522 754 C533 754 535 757 546 763 L640 815 L681 765 Z " />
<glyph glyph-name="Udieresis" unicode="&#xdc;" horiz-adv-x="696" d="M835 684 C840 695 835 702 824 702 L772 702 C760 702 757 698 752 688 L550 254 C486 117 436 67 290 67 C206 67 167 102 167 159 C167 186 175 218 192 254 L392 684 C397 695 392 702 381 702 L328 702 C316 702 313 698 308 688 L103 248 C88 216 80 184 80 153 C80 62 146 -12 271 -12 C489 -12 550 72 632 248 L835 684 Z M593 838 C598 849 593 856 582 856 L528 856 C516 856 513 852 508 842 L475 772 C470 761 475 754 486 754 L540 754 C552 754 555 758 560 768 L593 838 Z M780 838 C785 849 780 856 769 856 L715 856 C703 856 700 852 695 842 L662 772 C657 761 662 754 673 754 L727 754 C739 754 742 758 747 768 L780 838 Z " />
<glyph glyph-name="Yacute" unicode="&#xdd;" horiz-adv-x="640" d="M388 258 L831 684 C839 691 836 702 825 702 L762 702 C751 702 748 699 738 690 L479 438 L373 333 L367 438 L343 689 C342 699 340 702 328 702 L272 702 C261 702 255 696 256 686 L302 258 L190 18 C185 7 190 0 201 0 L254 0 C266 0 269 4 274 14 L388 258 Z M553 769 C547 763 549 754 560 754 L587 754 C598 754 600 756 611 763 L747 851 C756 857 752 869 743 869 L675 869 C662 869 659 865 651 858 L553 769 Z " />
<glyph glyph-name="Thorn" unicode="&#xde;" horiz-adv-x="624" d="M451 620 L368 620 L398 684 C403 695 398 702 387 702 L334 702 C322 702 319 698 314 688 L2 18 C-3 7 2 0 13 0 L66 0 C78 0 81 4 86 14 L150 151 L268 151 C504 151 556 185 642 370 C662 413 672 457 672 489 C672 574 599 620 451 620 L451 620 Z M424 541 C526 541 583 521 583 463 C583 441 573 409 557 376 C495 246 453 230 292 230 L187 230 L332 541 L424 541 Z " />
<glyph glyph-name="germandbls" unicode="&#xdf;" horiz-adv-x="639" d="M316 536 C353 616 401 643 507 643 C587 643 616 614 615 583 C611 470 396 503 376 408 C359 328 506 302 506 191 C506 101 447 59 322 59 C286 59 260 62 223 71 C213 73 206 67 201 57 L187 28 C184 22 183 16 193 12 C234 -4 267 -8 315 -9 C506 -9 587 78 587 192 C587 337 449 369 458 401 C465 424 696 452 696 600 C696 666 645 714 533 714 C381 714 299 668 244 549 L-4 17 C-8 8 -5 0 6 0 L55 0 C64 0 68 2 73 13 L316 536 Z " />
<glyph glyph-name="agrave" unicode="&#xe0;" horiz-adv-x="557" d="M405 203 C368 124 278 57 161 57 C107 57 81 79 81 109 C81 238 265 242 426 248 L405 203 Z M321 17 C317 8 320 0 331 0 L377 0 C386 0 390 2 395 13 L541 327 C558 362 566 394 566 421 C566 490 512 530 409 530 C342 530 280 519 219 496 C212 494 207 488 206 481 L200 436 C199 425 206 421 216 424 C269 443 324 458 390 458 C457 458 485 437 485 400 C485 383 479 363 468 339 L455 311 C312 309 3 316 3 98 C3 33 50 -9 138 -9 C245 -9 311 39 348 75 L321 17 Z M494 691 C493 698 489 702 477 702 L404 702 C393 702 388 692 393 684 L449 597 C454 590 457 587 468 587 L499 587 C509 587 513 594 511 602 L494 691 Z " />
<glyph glyph-name="aacute" unicode="&#xe1;" horiz-adv-x="557" d="M321 17 C317 8 320 0 331 0 L377 0 C386 0 390 2 395 13 L541 327 C558 362 566 394 566 421 C566 490 512 530 409 530 C342 530 280 519 219 496 C212 494 207 488 206 481 L200 436 C199 425 206 421 216 424 C269 443 324 458 390 458 C457 458 485 437 485 400 C485 383 479 363 468 339 L455 311 C312 309 3 316 3 98 C3 33 50 -9 138 -9 C245 -9 311 39 348 75 L321 17 Z M405 203 C368 124 278 57 161 57 C107 57 81 79 81 109 C81 238 265 242 426 248 L405 203 Z M414 602 C408 596 410 587 421 587 L448 587 C459 587 461 589 472 596 L607 684 C616 691 612 702 603 702 L535 702 C522 702 519 698 511 691 L414 602 Z " />
<glyph glyph-name="acircumflex" unicode="&#xe2;" horiz-adv-x="557" d="M405 203 C368 124 278 57 161 57 C107 57 81 79 81 109 C81 238 265 242 426 248 L405 203 Z M321 17 C317 8 320 0 331 0 L377 0 C386 0 390 2 395 13 L541 327 C558 362 566 394 566 421 C566 490 512 530 409 530 C342 530 280 519 219 496 C212 494 207 488 206 481 L200 436 C199 425 206 421 216 424 C269 443 324 458 390 458 C457 458 485 437 485 400 C485 383 479 363 468 339 L455 311 C312 309 3 316 3 98 C3 33 50 -9 138 -9 C245 -9 311 39 348 75 L321 17 Z M536 598 C543 590 548 587 557 587 L590 587 C601 587 605 596 600 604 L549 692 C545 699 540 703 528 703 L486 703 C477 703 474 701 466 696 L324 602 C318 598 318 587 329 587 L370 587 C381 587 383 590 394 596 L492 652 L536 598 Z " />
<glyph glyph-name="atilde" unicode="&#xe3;" horiz-adv-x="557" d="M405 203 C368 124 278 57 161 57 C107 57 81 79 81 109 C81 238 265 242 426 248 L405 203 Z M321 17 C317 8 320 0 331 0 L377 0 C386 0 390 2 395 13 L541 327 C558 362 566 394 566 421 C566 490 512 530 409 530 C342 530 280 519 219 496 C212 494 207 488 206 481 L200 436 C199 425 206 421 216 424 C269 443 324 458 390 458 C457 458 485 437 485 400 C485 383 479 363 468 339 L455 311 C312 309 3 316 3 98 C3 33 50 -9 138 -9 C245 -9 311 39 348 75 L321 17 Z M635 655 C641 671 636 675 627 675 L603 675 C594 675 590 673 579 654 C570 639 564 634 548 634 C535 634 513 642 495 649 L475 657 C448 668 429 675 400 675 C356 675 325 649 310 608 C304 593 309 589 319 589 L342 589 C352 589 355 592 368 611 C375 622 381 627 397 627 C410 627 428 622 446 614 L463 606 C490 593 515 587 544 587 C588 587 618 613 635 655 L635 655 Z " />
<glyph glyph-name="adieresis" unicode="&#xe4;" horiz-adv-x="557" d="M321 17 C317 8 320 0 331 0 L377 0 C386 0 390 2 395 13 L541 327 C558 362 566 394 566 421 C566 490 512 530 409 530 C342 530 280 519 219 496 C212 494 207 488 206 481 L200 436 C199 425 206 421 216 424 C269 443 324 458 390 458 C457 458 485 437 485 400 C485 383 479 363 468 339 L455 311 C312 309 3 316 3 98 C3 33 50 -9 138 -9 C245 -9 311 39 348 75 L321 17 Z M405 203 C368 124 278 57 161 57 C107 57 81 79 81 109 C81 238 265 242 426 248 L405 203 Z M444 674 C449 685 444 692 433 692 L382 692 C370 692 367 688 362 678 L328 605 C323 594 328 587 339 587 L390 587 C402 587 405 591 410 601 L444 674 Z M624 674 C629 685 624 692 613 692 L562 692 C550 692 547 688 542 678 L508 605 C503 594 508 587 519 587 L570 587 C582 587 585 591 590 601 L624 674 Z " />
<glyph glyph-name="aring" unicode="&#xe5;" horiz-adv-x="557" d="M475 624 C444 624 431 635 431 655 C431 695 472 727 513 727 C544 727 557 715 557 697 C557 656 517 624 475 624 L475 624 Z M527 770 C439 770 381 712 381 644 C381 609 413 581 460 581 C548 581 607 639 607 707 C607 744 572 770 527 770 L527 770 Z M405 203 C368 124 278 57 161 57 C107 57 81 79 81 109 C81 238 265 242 426 248 L405 203 Z M321 17 C317 8 320 0 331 0 L377 0 C386 0 390 2 395 13 L541 327 C558 362 566 394 566 421 C566 490 512 530 409 530 C342 530 280 519 219 496 C212 494 207 488 206 481 L200 436 C199 425 206 421 216 424 C269 443 324 458 390 458 C457 458 485 437 485 400 C485 383 479 363 468 339 L455 311 C312 309 3 316 3 98 C3 33 50 -9 138 -9 C245 -9 311 39 348 75 L321 17 Z " />
<glyph glyph-name="ae" unicode="&#xe6;" horiz-adv-x="912" d="M406 204 C369 125 272 58 155 58 C101 58 75 80 75 110 C75 220 258 225 419 231 L406 204 Z M753 461 C834 461 851 426 847 372 C845 346 836 320 824 295 L821 290 L522 290 C581 405 657 461 753 461 L753 461 Z M449 296 C220 296 -3 278 -3 98 C-3 33 44 -9 132 -9 C273 -9 350 42 419 117 C419 47 474 -12 577 -12 C640 -12 687 -1 738 20 C748 24 756 29 757 40 L760 80 C761 89 757 96 741 89 C694 69 660 57 602 57 C524 57 478 95 478 157 C478 171 480 186 485 202 C487 209 489 216 492 223 L856 223 C865 223 869 225 874 236 L898 289 C914 327 925 364 925 396 C925 475 872 530 767 530 C674 530 611 496 558 431 C564 504 510 530 405 530 C338 530 276 519 215 496 C208 494 203 488 202 481 L196 436 C195 425 202 421 212 424 C265 443 320 458 386 458 C455 458 488 437 488 399 C488 386 484 372 476 355 L449 296 Z " />
<glyph glyph-name="ccedilla" unicode="&#xe7;" horiz-adv-x="501" d="M79 261 C61 219 51 178 51 141 C51 86 72 40 119 14 C161 -5 178 -28 178 -54 C178 -90 148 -101 115 -101 L78 -101 C69 -101 67 -103 65 -108 L53 -134 C51 -139 51 -144 57 -146 C73 -151 96 -151 110 -151 C180 -151 230 -119 230 -59 C230 -40 218 -22 200 -9 C208 -9 217 -10 227 -10 C287 -10 332 5 369 21 C376 24 383 29 383 39 L385 83 C385 91 378 94 368 90 C335 77 289 62 237 62 C159 62 133 102 133 152 C133 187 146 227 162 261 C224 395 320 457 426 457 C472 457 500 447 521 434 C529 429 537 432 542 437 L578 477 C584 484 584 491 577 496 C558 510 501 530 432 530 C287 530 156 438 79 261 L79 261 Z " />
<glyph glyph-name="egrave" unicode="&#xe8;" horiz-adv-x="570" d="M557 289 C573 327 584 364 584 396 C584 475 531 530 426 530 C273 530 168 444 82 267 C59 220 47 174 47 134 C47 48 110 -12 234 -12 C297 -12 344 -1 395 20 C405 24 413 29 414 40 L417 80 C418 89 414 96 398 89 C351 69 317 57 259 57 C162 57 124 91 124 147 C124 169 130 194 141 223 L515 223 C524 223 528 225 533 236 L557 289 Z M403 461 C484 461 504 426 504 372 C504 347 495 320 483 295 L480 290 L172 290 C231 405 307 461 403 461 L403 461 Z M502 691 C501 698 497 702 485 702 L412 702 C401 702 396 692 401 684 L457 597 C462 590 465 587 476 587 L507 587 C517 587 521 594 519 602 L502 691 Z " />
<glyph glyph-name="eacute" unicode="&#xe9;" horiz-adv-x="570" d="M557 289 C573 327 584 364 584 396 C584 475 531 530 426 530 C273 530 168 444 82 267 C59 220 47 174 47 134 C47 48 110 -12 234 -12 C297 -12 344 -1 395 20 C405 24 413 29 414 40 L417 80 C418 89 414 96 398 89 C351 69 317 57 259 57 C162 57 124 91 124 147 C124 169 130 194 141 223 L515 223 C524 223 528 225 533 236 L557 289 Z M403 461 C484 461 504 426 504 372 C504 347 495 320 483 295 L480 290 L172 290 C231 405 307 461 403 461 L403 461 Z M430 602 C424 596 426 587 437 587 L464 587 C475 587 477 589 488 596 L623 684 C632 691 628 702 619 702 L551 702 C538 702 535 698 527 691 L430 602 Z " />
<glyph glyph-name="ecircumflex" unicode="&#xea;" horiz-adv-x="570" d="M557 289 C573 327 584 364 584 396 C584 475 531 530 426 530 C273 530 168 444 82 267 C59 220 47 174 47 134 C47 48 110 -12 234 -12 C297 -12 344 -1 395 20 C405 24 413 29 414 40 L417 80 C418 89 414 96 398 89 C351 69 317 57 259 57 C162 57 124 91 124 147 C124 169 130 194 141 223 L515 223 C524 223 528 225 533 236 L557 289 Z M403 461 C484 461 504 426 504 372 C504 347 495 320 483 295 L480 290 L172 290 C231 405 307 461 403 461 L403 461 Z M550 598 C557 590 562 587 571 587 L604 587 C615 587 619 596 614 604 L563 692 C559 699 554 703 542 703 L500 703 C491 703 488 701 480 696 L338 602 C332 598 332 587 343 587 L384 587 C395 587 397 590 408 596 L506 652 L550 598 Z " />
<glyph glyph-name="edieresis" unicode="&#xeb;" horiz-adv-x="570" d="M557 289 C573 327 584 364 584 396 C584 475 531 530 426 530 C273 530 168 444 82 267 C59 220 47 174 47 134 C47 48 110 -12 234 -12 C297 -12 344 -1 395 20 C405 24 413 29 414 40 L417 80 C418 89 414 96 398 89 C351 69 317 57 259 57 C162 57 124 91 124 147 C124 169 130 194 141 223 L515 223 C524 223 528 225 533 236 L557 289 Z M403 461 C484 461 504 426 504 372 C504 347 495 320 483 295 L480 290 L172 290 C231 405 307 461 403 461 L403 461 Z M462 674 C467 685 462 692 451 692 L400 692 C388 692 385 688 380 678 L346 605 C341 594 346 587 357 587 L408 587 C420 587 423 591 428 601 L462 674 Z M642 674 C647 685 642 692 631 692 L580 692 C568 692 565 688 560 678 L526 605 C521 594 526 587 537 587 L588 587 C600 587 603 591 608 601 L642 674 Z " />
<glyph glyph-name="igrave" unicode="&#xec;" horiz-adv-x="240" d="M298 501 C302 510 299 518 288 518 L237 518 C228 518 224 516 219 505 L-8 17 C-12 8 -9 0 2 0 L52 0 C61 0 65 2 70 13 L298 501 Z M320 691 C319 698 315 702 303 702 L230 702 C219 702 214 692 219 684 L275 597 C280 590 283 587 294 587 L325 587 C335 587 339 594 337 602 L320 691 Z " />
<glyph glyph-name="iacute" unicode="&#xed;" horiz-adv-x="240" d="M298 501 C302 510 299 518 288 518 L237 518 C228 518 224 516 219 505 L-8 17 C-12 8 -9 0 2 0 L52 0 C61 0 65 2 70 13 L298 501 Z M275 602 C269 596 271 587 282 587 L309 587 C320 587 322 589 333 596 L468 684 C477 691 473 702 464 702 L396 702 C383 702 380 698 372 691 L275 602 Z " />
<glyph glyph-name="icircumflex" unicode="&#xee;" horiz-adv-x="240" d="M298 501 C302 510 299 518 288 518 L237 518 C228 518 224 516 219 505 L-8 17 C-12 8 -9 0 2 0 L52 0 C61 0 65 2 70 13 L298 501 Z M379 598 C386 590 391 587 400 587 L433 587 C444 587 448 596 443 604 L392 692 C388 699 383 703 371 703 L329 703 C320 703 317 701 309 696 L167 602 C161 598 161 587 172 587 L213 587 C224 587 226 590 237 596 L335 652 L379 598 Z " />
<glyph glyph-name="idieresis" unicode="&#xef;" horiz-adv-x="240" d="M298 501 C302 510 299 518 288 518 L237 518 C228 518 224 516 219 505 L-8 17 C-12 8 -9 0 2 0 L52 0 C61 0 65 2 70 13 L298 501 Z M471 674 C476 685 471 692 460 692 L409 692 C397 692 394 688 389 678 L355 605 C350 594 355 587 366 587 L417 587 C429 587 432 591 437 601 L471 674 Z M291 674 C296 685 291 692 280 692 L229 692 C217 692 214 688 209 678 L175 605 C170 594 175 587 186 587 L237 587 C249 587 252 591 257 601 L291 674 Z " />
<glyph glyph-name="eth" unicode="&#xf0;" horiz-adv-x="595" d="M236 61 C157 61 132 101 132 150 C132 185 145 225 160 259 C223 394 310 459 413 459 C492 459 518 418 518 368 C518 333 505 292 488 259 C426 126 338 61 236 61 L236 61 Z M601 636 C591 658 575 683 565 694 C560 699 557 702 544 702 L493 702 C482 702 475 687 485 678 C495 669 509 657 520 636 L408 636 C397 636 392 633 387 622 L378 603 C373 593 378 586 389 586 L537 586 C553 551 560 504 558 470 C535 516 479 529 428 529 C267 529 159 434 77 259 C57 214 47 171 47 133 C47 49 99 -10 220 -10 C379 -10 490 84 572 260 C605 331 624 408 624 485 C624 519 620 553 612 586 L672 586 C683 586 688 589 693 600 L702 619 C707 629 702 636 691 636 L601 636 Z " />
<glyph glyph-name="ntilde" unicode="&#xf1;" horiz-adv-x="595" d="M578 326 C593 358 601 389 601 416 C601 483 554 530 458 530 C367 530 312 491 272 450 L295 501 C299 510 296 518 285 518 L236 518 C227 518 223 516 218 505 L-10 17 C-14 8 -11 0 0 0 L51 0 C60 0 64 2 69 13 L206 307 C247 396 328 455 424 455 C490 455 515 430 515 393 C515 374 509 353 498 330 L352 17 C348 8 351 0 362 0 L414 0 C423 0 427 2 432 13 L578 326 Z M659 655 C665 671 660 675 651 675 L627 675 C618 675 614 673 603 654 C594 639 588 634 572 634 C559 634 537 642 519 649 L499 657 C472 668 453 675 424 675 C380 675 349 649 334 608 C328 593 333 589 343 589 L366 589 C376 589 379 592 392 611 C399 622 405 627 421 627 C434 627 452 622 470 614 L487 606 C514 593 539 587 568 587 C612 587 642 613 659 655 L659 655 Z " />
<glyph glyph-name="ograve" unicode="&#xf2;" horiz-adv-x="598" d="M220 -10 C370 -10 491 81 570 256 C589 302 600 346 600 385 C600 469 550 530 430 530 C279 530 158 439 80 264 C60 219 49 176 49 137 C49 52 101 -10 220 -10 L220 -10 Z M232 61 C155 61 130 101 130 149 C130 185 144 226 161 260 C223 394 314 459 417 459 C494 459 518 420 518 372 C518 336 504 294 489 260 C427 126 334 61 232 61 L232 61 Z M510 691 C509 698 505 702 493 702 L420 702 C409 702 404 692 409 684 L465 597 C470 590 473 587 484 587 L515 587 C525 587 529 594 527 602 L510 691 Z " />
<glyph glyph-name="oacute" unicode="&#xf3;" horiz-adv-x="598" d="M220 -10 C370 -10 491 81 570 256 C589 302 600 346 600 385 C600 469 550 530 430 530 C279 530 158 439 80 264 C60 219 49 176 49 137 C49 52 101 -10 220 -10 L220 -10 Z M232 61 C155 61 130 101 130 149 C130 185 144 226 161 260 C223 394 314 459 417 459 C494 459 518 420 518 372 C518 336 504 294 489 260 C427 126 334 61 232 61 L232 61 Z M440 602 C434 596 436 587 447 587 L474 587 C485 587 487 589 498 596 L633 684 C642 691 638 702 629 702 L561 702 C548 702 545 698 537 691 L440 602 Z " />
<glyph glyph-name="ocircumflex" unicode="&#xf4;" horiz-adv-x="598" d="M220 -10 C370 -10 491 81 570 256 C589 302 600 346 600 385 C600 469 550 530 430 530 C279 530 158 439 80 264 C60 219 49 176 49 137 C49 52 101 -10 220 -10 L220 -10 Z M232 61 C155 61 130 101 130 149 C130 185 144 226 161 260 C223 394 314 459 417 459 C494 459 518 420 518 372 C518 336 504 294 489 260 C427 126 334 61 232 61 L232 61 Z M557 598 C564 590 569 587 578 587 L611 587 C622 587 626 596 621 604 L570 692 C566 699 561 703 549 703 L507 703 C498 703 495 701 487 696 L345 602 C339 598 339 587 350 587 L391 587 C402 587 404 590 415 596 L513 652 L557 598 Z " />
<glyph glyph-name="otilde" unicode="&#xf5;" horiz-adv-x="598" d="M220 -10 C370 -10 491 81 570 256 C589 302 600 346 600 385 C600 469 550 530 430 530 C279 530 158 439 80 264 C60 219 49 176 49 137 C49 52 101 -10 220 -10 L220 -10 Z M232 61 C155 61 130 101 130 149 C130 185 144 226 161 260 C223 394 314 459 417 459 C494 459 518 420 518 372 C518 336 504 294 489 260 C427 126 334 61 232 61 L232 61 Z M660 655 C666 671 661 675 652 675 L628 675 C619 675 615 673 604 654 C595 639 589 634 573 634 C560 634 538 642 520 649 L500 657 C473 668 454 675 425 675 C381 675 350 649 335 608 C329 593 334 589 344 589 L367 589 C377 589 380 592 393 611 C400 622 406 627 422 627 C435 627 453 622 471 614 L488 606 C515 593 540 587 569 587 C613 587 643 613 660 655 L660 655 Z " />
<glyph glyph-name="odieresis" unicode="&#xf6;" horiz-adv-x="598" d="M220 -10 C370 -10 491 81 570 256 C589 302 600 346 600 385 C600 469 550 530 430 530 C279 530 158 439 80 264 C60 219 49 176 49 137 C49 52 101 -10 220 -10 L220 -10 Z M232 61 C155 61 130 101 130 149 C130 185 144 226 161 260 C223 394 314 459 417 459 C494 459 518 420 518 372 C518 336 504 294 489 260 C427 126 334 61 232 61 L232 61 Z M469 674 C474 685 469 692 458 692 L407 692 C395 692 392 688 387 678 L353 605 C348 594 353 587 364 587 L415 587 C427 587 430 591 435 601 L469 674 Z M649 674 C654 685 649 692 638 692 L587 692 C575 692 572 688 567 678 L533 605 C528 594 533 587 544 587 L595 587 C607 587 610 591 615 601 L649 674 Z " />
<glyph glyph-name="divide" unicode="&#xf7;" horiz-adv-x="590" d="M597 359 C602 370 597 377 586 377 L159 377 C147 377 144 373 139 363 L122 327 C117 316 122 309 133 309 L561 309 C573 309 576 313 581 323 L597 359 Z M379 489 C374 478 379 471 390 471 L453 471 C465 471 468 475 473 485 L509 560 C514 571 509 578 498 578 L435 578 C423 578 420 574 415 564 L379 489 Z M210 125 C205 114 210 107 221 107 L284 107 C296 107 299 111 304 121 L339 196 C344 207 339 214 328 214 L265 214 C253 214 250 210 245 200 L210 125 Z " />
<glyph glyph-name="oslash" unicode="&#xf8;" horiz-adv-x="602" d="M222 -10 C372 -10 493 81 572 256 C591 302 602 346 602 385 C602 400 600 415 597 429 L665 480 C672 485 676 489 671 497 L656 517 C652 524 644 522 635 515 L577 472 C551 508 504 530 432 530 C281 530 160 439 82 264 C62 219 51 176 51 137 C51 120 53 103 57 88 L-12 37 C-19 32 -23 28 -18 20 L-4 1 C0 -6 8 -4 17 3 L77 47 C104 12 151 -10 222 -10 L222 -10 Z M132 149 C132 185 146 226 163 260 C225 394 316 459 419 459 C466 459 494 444 508 421 L132 143 L132 149 Z M234 61 C188 61 160 75 145 97 L520 373 L520 372 C520 336 506 294 491 260 C429 126 336 61 234 61 L234 61 Z " />
<glyph glyph-name="ugrave" unicode="&#xf9;" horiz-adv-x="587" d="M65 194 C50 163 43 132 43 105 C43 37 88 -10 177 -10 C268 -10 325 29 365 70 L340 17 C336 8 339 0 350 0 L400 0 C409 0 413 2 418 13 L645 501 C649 510 646 518 635 518 L584 518 C575 518 571 516 566 505 L430 212 C386 118 312 64 214 64 C152 64 126 88 126 126 C126 144 132 166 143 189 L288 501 C292 510 289 518 278 518 L227 518 C218 518 214 516 209 505 L65 194 Z M509 691 C508 698 504 702 492 702 L419 702 C408 702 403 692 408 684 L464 597 C469 590 472 587 483 587 L514 587 C524 587 528 594 526 602 L509 691 Z " />
<glyph glyph-name="uacute" unicode="&#xfa;" horiz-adv-x="587" d="M65 194 C50 163 43 132 43 105 C43 37 88 -10 177 -10 C268 -10 325 29 365 70 L340 17 C336 8 339 0 350 0 L400 0 C409 0 413 2 418 13 L645 501 C649 510 646 518 635 518 L584 518 C575 518 571 516 566 505 L430 212 C386 118 312 64 214 64 C152 64 126 88 126 126 C126 144 132 166 143 189 L288 501 C292 510 289 518 278 518 L227 518 C218 518 214 516 209 505 L65 194 Z M430 602 C424 596 426 587 437 587 L464 587 C475 587 477 589 488 596 L623 684 C632 691 628 702 619 702 L551 702 C538 702 535 698 527 691 L430 602 Z " />
<glyph glyph-name="ucircumflex" unicode="&#xfb;" horiz-adv-x="587" d="M65 194 C50 163 43 132 43 105 C43 37 88 -10 177 -10 C268 -10 325 29 365 70 L340 17 C336 8 339 0 350 0 L400 0 C409 0 413 2 418 13 L645 501 C649 510 646 518 635 518 L584 518 C575 518 571 516 566 505 L430 212 C386 118 312 64 214 64 C152 64 126 88 126 126 C126 144 132 166 143 189 L288 501 C292 510 289 518 278 518 L227 518 C218 518 214 516 209 505 L65 194 Z M552 598 C559 590 564 587 573 587 L606 587 C617 587 621 596 616 604 L565 692 C561 699 556 703 544 703 L502 703 C493 703 490 701 482 696 L340 602 C334 598 334 587 345 587 L386 587 C397 587 399 590 410 596 L508 652 L552 598 Z " />
<glyph glyph-name="udieresis" unicode="&#xfc;" horiz-adv-x="587" d="M65 194 C50 163 43 132 43 105 C43 37 88 -10 177 -10 C268 -10 325 29 365 70 L340 17 C336 8 339 0 350 0 L400 0 C409 0 413 2 418 13 L645 501 C649 510 646 518 635 518 L584 518 C575 518 571 516 566 505 L430 212 C386 118 312 64 214 64 C152 64 126 88 126 126 C126 144 132 166 143 189 L288 501 C292 510 289 518 278 518 L227 518 C218 518 214 516 209 505 L65 194 Z M644 674 C649 685 644 692 633 692 L582 692 C570 692 567 688 562 678 L528 605 C523 594 528 587 539 587 L590 587 C602 587 605 591 610 601 L644 674 Z M464 674 C469 685 464 692 453 692 L402 692 C390 692 387 688 382 678 L348 605 C343 594 348 587 359 587 L410 587 C422 587 425 591 430 601 L464 674 Z " />
<glyph glyph-name="yacute" unicode="&#xfd;" horiz-adv-x="501" d="M610 496 C618 506 615 518 603 518 L553 518 C543 518 539 516 532 507 L323 240 L203 85 L201 85 L222 240 L244 505 C245 514 242 518 232 518 L182 518 C171 518 167 511 166 501 L131 45 C127 -8 92 -43 31 -43 C3 -43 -11 -37 -21 -36 C-32 -34 -35 -36 -42 -46 L-68 -81 C-73 -88 -73 -95 -65 -99 C-46 -109 -17 -114 9 -114 C91 -114 135 -90 223 19 L610 496 Z M396 602 C390 596 392 587 403 587 L430 587 C441 587 443 589 454 596 L589 684 C598 691 594 702 585 702 L517 702 C504 702 501 698 493 691 L396 602 Z " />
<glyph glyph-name="thorn" unicode="&#xfe;" horiz-adv-x="629" d="M325 702 C316 702 312 700 307 689 L-57 -93 C-61 -102 -58 -110 -47 -110 L3 -110 C12 -110 16 -108 21 -97 L106 82 C122 25 167 -12 249 -12 C399 -12 525 78 601 254 C621 300 631 344 631 383 C631 467 579 528 459 528 C400 528 330 499 279 457 L386 685 C390 694 387 702 376 702 L325 702 Z M187 258 C249 392 342 457 445 457 C522 457 548 418 548 370 C548 334 534 292 519 258 C457 124 362 59 260 59 C183 59 156 99 156 147 C156 183 170 224 187 258 L187 258 Z " />
<glyph glyph-name="ydieresis" unicode="&#xff;" horiz-adv-x="501" d="M610 496 C618 506 615 518 603 518 L553 518 C543 518 539 516 532 507 L323 240 L203 85 L201 85 L222 240 L244 505 C245 514 242 518 232 518 L182 518 C171 518 167 511 166 501 L131 45 C127 -8 92 -43 31 -43 C3 -43 -11 -37 -21 -36 C-32 -34 -35 -36 -42 -46 L-68 -81 C-73 -88 -73 -95 -65 -99 C-46 -109 -17 -114 9 -114 C91 -114 135 -90 223 19 L610 496 Z M601 674 C606 685 601 692 590 692 L539 692 C527 692 524 688 519 678 L485 605 C480 594 485 587 496 587 L547 587 C559 587 562 591 567 601 L601 674 Z M421 674 C426 685 421 692 410 692 L359 692 C347 692 344 688 339 678 L305 605 C300 594 305 587 316 587 L367 587 C379 587 382 591 387 601 L421 674 Z " />
<glyph glyph-name="dotlessi" unicode="&#x131;" horiz-adv-x="240" d="M298 501 C302 510 299 518 288 518 L237 518 C228 518 224 516 219 505 L-8 17 C-12 8 -9 0 2 0 L52 0 C61 0 65 2 70 13 L298 501 Z " />
<glyph glyph-name="Lslash" unicode="&#x141;" horiz-adv-x="540" d="M430 62 C435 73 430 80 419 80 L120 80 L231 319 L427 409 C439 414 442 416 441 426 L439 445 C438 455 433 457 421 453 L258 378 L400 684 C405 695 400 702 389 702 L336 702 C324 702 321 698 316 688 L147 327 L88 300 C76 295 73 293 74 283 L76 264 C77 254 82 252 94 256 L119 268 L3 18 C-2 7 3 0 14 0 L388 0 C400 0 403 4 408 14 L430 62 Z " />
<glyph glyph-name="lslash" unicode="&#x142;" horiz-adv-x="244" d="M-6 17 C-10 8 -7 0 4 0 L54 0 C63 0 67 2 72 13 L228 347 L276 369 C288 374 291 376 290 386 L288 405 C287 415 282 417 270 413 L255 406 L386 685 C390 694 387 702 376 702 L326 702 C317 702 313 700 308 689 L154 360 L109 340 C97 335 94 333 95 323 L97 304 C98 294 103 292 115 296 L127 301 L-6 17 Z " />
<glyph glyph-name="OE" unicode="&#x152;" horiz-adv-x="930" d="M687 622 L436 80 L391 80 C236 80 197 109 197 188 C197 226 218 286 243 339 C349 566 416 622 630 622 L687 622 Z M904 321 C916 321 919 325 924 335 L945 379 C950 390 945 397 934 397 L666 397 L770 622 L1055 622 C1067 622 1070 626 1075 636 L1098 684 C1103 695 1098 702 1087 702 L643 702 C346 702 288 622 156 339 C126 274 112 219 112 171 C112 55 202 0 365 0 L769 0 C781 0 784 4 789 14 L812 62 C817 73 812 80 801 80 L518 80 L630 321 L904 321 Z " />
<glyph glyph-name="oe" unicode="&#x153;" horiz-adv-x="947" d="M636 57 C561 57 521 98 521 160 C521 176 524 194 529 212 C531 219 533 226 536 233 L894 233 C903 233 907 235 912 246 L938 299 C954 337 961 364 961 396 C961 475 906 530 801 530 C708 530 638 481 585 416 C583 486 524 530 422 530 C278 530 157 439 79 264 C59 219 42 176 42 137 C42 52 89 -10 212 -10 C302 -10 384 26 450 111 C450 41 508 -12 611 -12 C674 -12 721 -1 772 20 C782 24 790 29 791 40 L794 80 C795 89 791 96 775 89 C728 69 694 57 636 57 L636 57 Z M224 61 C147 61 128 101 128 149 C128 185 142 226 159 260 C221 394 306 459 409 459 C469 459 504 431 504 376 C504 360 501 342 495 321 C490 303 482 282 472 260 C410 127 318 61 224 61 L224 61 Z M787 461 C868 461 885 426 881 372 C879 346 874 329 862 304 L859 299 L568 299 C627 414 699 461 787 461 L787 461 Z " />
<glyph glyph-name="Scaron" unicode="&#x160;" horiz-adv-x="562" d="M548 806 L507 856 C501 863 495 867 486 867 L454 867 C443 867 439 858 444 850 L493 765 C497 758 502 754 514 754 L556 754 C565 754 568 756 576 761 L714 852 C721 857 718 867 707 867 L666 867 C655 867 653 864 642 858 L548 806 Z M519 244 C519 323 465 352 392 394 C340 424 289 446 289 492 C289 606 417 635 506 635 C570 635 612 626 640 612 C648 608 656 608 663 617 L698 661 C705 669 702 676 695 680 C665 697 592 713 515 713 C359 713 200 638 200 466 C200 398 248 364 320 328 C379 299 431 271 431 222 C431 110 279 69 193 69 C121 69 64 82 35 97 C24 102 17 99 11 91 L-23 50 C-30 42 -29 34 -21 29 C9 11 102 -8 183 -8 C340 -8 519 64 519 244 L519 244 Z " />
<glyph glyph-name="scaron" unicode="&#x161;" horiz-adv-x="461" d="M388 179 C388 231 350 264 292 292 C241 318 205 336 205 368 C205 446 297 461 352 461 C405 461 442 452 471 438 C479 434 484 436 489 442 L520 481 C526 489 523 494 518 497 C489 514 421 530 356 530 C232 530 122 467 122 344 C122 288 169 260 221 239 C274 216 310 194 310 160 C310 77 205 59 147 59 C95 59 47 68 15 84 C5 89 0 85 -5 78 L-34 41 C-40 34 -38 26 -31 23 C4 6 78 -10 140 -10 C265 -10 388 48 388 179 L388 179 Z M427 638 L383 692 C376 700 371 703 362 703 L329 703 C318 703 314 694 319 686 L370 598 C374 591 379 587 391 587 L433 587 C442 587 445 589 453 594 L595 688 C601 692 601 703 590 703 L549 703 C538 703 536 700 525 694 L427 638 Z " />
<glyph glyph-name="Ydieresis" unicode="&#x178;" horiz-adv-x="640" d="M388 258 L831 684 C839 691 836 702 825 702 L762 702 C751 702 748 699 738 690 L479 438 L373 333 L367 438 L343 689 C342 699 340 702 328 702 L272 702 C261 702 255 696 256 686 L302 258 L190 18 C185 7 190 0 201 0 L254 0 C266 0 269 4 274 14 L388 258 Z M565 838 C570 849 565 856 554 856 L500 856 C488 856 485 852 480 842 L447 772 C442 761 447 754 458 754 L512 754 C524 754 527 758 532 768 L565 838 Z M752 838 C757 849 752 856 741 856 L687 856 C675 856 672 852 667 842 L634 772 C629 761 634 754 645 754 L699 754 C711 754 714 758 719 768 L752 838 Z " />
<glyph glyph-name="Zcaron" unicode="&#x17d;" horiz-adv-x="597" d="M-29 18 C-34 7 -29 0 -18 0 L425 0 C437 0 440 4 445 14 L468 62 C473 73 468 80 457 80 L111 80 L708 612 C719 621 724 628 730 640 L751 684 C756 695 751 702 740 702 L311 702 C299 702 296 698 291 688 L268 640 C263 629 268 622 279 622 L616 622 L17 91 C7 82 -2 75 -8 62 L-29 18 Z M566 806 L525 856 C519 863 513 867 504 867 L472 867 C461 867 457 858 462 850 L511 765 C515 758 520 754 532 754 L574 754 C583 754 586 756 594 761 L732 852 C739 857 736 867 725 867 L684 867 C673 867 671 864 660 858 L566 806 Z " />
<glyph glyph-name="zcaron" unicode="&#x17e;" horiz-adv-x="489" d="M575 502 C579 511 576 518 565 518 L214 518 C205 518 201 516 196 505 L176 462 C172 453 175 445 186 445 L439 445 L-6 69 C-12 64 -17 57 -21 49 L-37 17 C-41 8 -38 0 -27 0 L328 0 C337 0 341 2 346 13 L366 56 C370 65 367 73 356 73 L101 73 L543 447 C550 453 556 461 560 469 L575 502 Z M441 638 L397 692 C390 700 385 703 376 703 L343 703 C332 703 328 694 333 686 L384 598 C388 591 393 587 405 587 L447 587 C456 587 459 589 467 594 L609 688 C615 692 615 703 604 703 L563 703 C552 703 550 700 539 694 L441 638 Z " />
<glyph glyph-name="florin" unicode="&#x192;" horiz-adv-x="641" d="M540 553 C575 613 609 645 670 645 C687 645 703 641 717 638 C727 636 731 640 737 648 L761 682 C765 687 765 694 757 698 C747 703 714 712 682 712 C590 712 526 665 466 563 L365 394 L273 394 C264 394 260 391 254 381 L234 349 C229 341 233 332 244 332 L327 332 L147 28 C123 -12 91 -43 53 -43 C35 -43 24 -40 13 -37 C2 -34 -2 -36 -8 -46 L-34 -87 C-38 -93 -39 -100 -32 -103 C-16 -109 12 -116 40 -116 C126 -116 168 -69 221 20 L408 332 L554 332 C563 332 567 335 573 345 L591 377 C596 385 592 394 581 394 L445 394 L540 553 Z " />
<glyph glyph-name="circumflex" unicode="&#x2c6;" horiz-adv-x="337" d="M427 598 C434 590 439 587 448 587 L481 587 C492 587 496 596 491 604 L440 692 C436 699 431 703 419 703 L377 703 C368 703 365 701 357 696 L215 602 C209 598 209 587 220 587 L261 587 C272 587 274 590 285 596 L383 652 L427 598 Z " />
<glyph glyph-name="caron" unicode="&#x2c7;" horiz-adv-x="337" d="M365 638 L321 692 C314 700 309 703 300 703 L267 703 C256 703 252 694 257 686 L308 598 C312 591 317 587 329 587 L371 587 C380 587 383 589 391 594 L533 688 C539 692 539 703 528 703 L487 703 C476 703 474 700 463 694 L365 638 Z " />
<glyph glyph-name="breve" unicode="&#x2d8;" horiz-adv-x="337" d="M363 584 C466 584 510 637 533 694 C537 703 531 706 524 706 L495 706 C485 706 484 703 479 695 C457 662 435 637 374 637 C313 637 308 663 314 695 C315 703 312 706 305 706 L274 706 C265 706 263 703 260 694 C255 682 253 671 253 660 C253 618 288 584 363 584 L363 584 Z " />
<glyph glyph-name="dotaccent" unicode="&#x2d9;" horiz-adv-x="337" d="M432 677 C437 688 432 695 421 695 L365 695 C353 695 350 691 345 681 L310 605 C305 594 310 587 321 587 L377 587 C389 587 392 591 397 601 L432 677 Z " />
<glyph glyph-name="ring" unicode="&#x2da;" horiz-adv-x="337" d="M369 624 C338 624 325 635 325 655 C325 695 366 727 407 727 C438 727 451 715 451 697 C451 656 411 624 369 624 L369 624 Z M421 770 C333 770 275 712 275 644 C275 609 307 581 354 581 C442 581 501 639 501 707 C501 744 466 770 421 770 L421 770 Z " />
<glyph glyph-name="ogonek" unicode="&#x2db;" horiz-adv-x="337" d="M83 12 C28 -2 -68 -43 -68 -108 C-68 -137 -36 -152 3 -152 C29 -152 45 -149 61 -143 C66 -141 70 -139 72 -131 L79 -104 C81 -97 75 -93 67 -96 C61 -98 52 -100 35 -100 C4 -100 -4 -93 -4 -82 C-4 -36 89 -2 121 8 L83 12 Z " />
<glyph glyph-name="tilde" unicode="&#x2dc;" horiz-adv-x="337" d="M530 655 C536 671 531 675 522 675 L498 675 C489 675 485 673 474 654 C465 639 459 634 443 634 C430 634 408 642 390 649 L370 657 C343 668 324 675 295 675 C251 675 220 649 205 608 C199 593 204 589 214 589 L237 589 C247 589 250 592 263 611 C270 622 276 627 292 627 C305 627 323 622 341 614 L358 606 C385 593 410 587 439 587 C483 587 513 613 530 655 L530 655 Z " />
<glyph glyph-name="hungarumlaut" unicode="&#x2dd;" horiz-adv-x="337" d="M251 602 C245 596 247 587 258 587 L284 587 C295 587 298 588 308 596 L423 684 C432 691 428 702 419 702 L367 702 C354 702 351 698 343 691 L251 602 Z M413 602 C407 596 409 587 420 587 L446 587 C457 587 460 588 470 596 L585 684 C594 691 590 702 581 702 L529 702 C516 702 513 698 505 691 L413 602 Z " />
<glyph glyph-name="uni03A9" unicode="&#x3a9;" horiz-adv-x="804" d="M634 63 C638 72 634 79 623 79 L485 73 L507 120 C671 165 872 337 872 520 C872 636 786 714 619 714 C348 714 124 518 124 294 C124 211 165 153 220 120 L198 73 L63 79 C50 79 47 78 42 68 L17 16 C13 7 17 0 28 0 L247 0 L310 137 C313 145 312 153 304 158 C250 190 216 236 216 300 C216 319 219 339 225 361 C275 534 426 636 601 636 C721 636 778 588 778 511 C778 494 776 475 770 456 C728 311 590 210 456 158 C445 154 437 148 432 137 L369 0 L591 0 C602 0 605 2 610 12 L634 63 Z " />
<glyph glyph-name="pi" unicode="&#x3c0;" horiz-adv-x="698" d="M208 518 C196 518 193 514 188 504 L168 461 C163 450 168 443 179 443 L290 443 L2 19 C-5 9 -2 0 10 0 L58 0 C70 0 75 6 81 15 L371 443 L560 443 L424 152 C410 123 403 96 403 73 C403 24 435 -7 494 -7 C525 -7 541 -5 559 0 C568 2 574 6 577 14 L592 50 C596 59 594 67 580 65 C564 63 559 62 536 62 C499 62 487 76 487 96 C487 115 498 139 508 160 L639 443 L762 443 C774 443 777 447 782 457 L802 500 C807 511 802 518 791 518 L208 518 Z " />
<glyph glyph-name="endash" unicode="&#x2013;" horiz-adv-x="523" d="M475 225 C486 225 489 227 494 237 L513 278 C517 287 513 294 502 294 L99 294 C88 294 85 292 80 282 L61 241 C57 232 61 225 72 225 L475 225 Z " />
<glyph glyph-name="emdash" unicode="&#x2014;" horiz-adv-x="771" d="M724 225 C735 225 738 227 743 237 L762 278 C766 287 762 294 751 294 L99 294 C88 294 85 292 80 282 L61 241 C57 232 61 225 72 225 L724 225 Z " />
<glyph glyph-name="quoteleft" unicode="&#x2018;" horiz-adv-x="213" d="M246 596 C240 589 238 585 234 576 L202 509 C197 498 202 491 213 491 L280 491 C292 491 295 495 300 505 L335 580 C340 591 335 598 324 598 L305 598 L376 694 C381 701 378 708 369 708 L352 708 C343 708 341 706 334 698 L246 596 Z " />
<glyph glyph-name="quoteright" unicode="&#x2019;" horiz-adv-x="213" d="M332 597 C338 604 340 608 344 617 L376 684 C381 695 376 702 365 702 L298 702 C286 702 283 698 278 688 L243 613 C238 602 243 595 254 595 L273 595 L202 499 C197 492 200 485 209 485 L226 485 C235 485 237 487 244 495 L332 597 Z " />
<glyph glyph-name="quotesinglbase" unicode="&#x201a;" horiz-adv-x="213" d="M56 2 C62 9 64 13 68 22 L100 89 C105 100 100 107 89 107 L22 107 C10 107 7 103 2 93 L-33 18 C-38 7 -33 0 -22 0 L-3 0 L-74 -96 C-79 -103 -76 -110 -67 -110 L-50 -110 C-41 -110 -39 -108 -32 -100 L56 2 Z " />
<glyph glyph-name="quotedblleft" unicode="&#x201c;" horiz-adv-x="378" d="M246 596 C240 589 238 585 234 576 L202 509 C197 498 202 491 213 491 L280 491 C292 491 295 495 300 505 L335 580 C340 591 335 598 324 598 L305 598 L376 694 C381 701 378 708 369 708 L352 708 C343 708 341 706 334 698 L246 596 Z M411 596 C405 589 403 585 399 576 L367 509 C362 498 367 491 378 491 L445 491 C457 491 460 495 465 505 L500 580 C505 591 500 598 489 598 L470 598 L541 694 C546 701 543 708 534 708 L517 708 C508 708 506 706 499 698 L411 596 Z " />
<glyph glyph-name="quotedblright" unicode="&#x201d;" horiz-adv-x="378" d="M332 597 C338 604 340 608 344 617 L376 684 C381 695 376 702 365 702 L298 702 C286 702 283 698 278 688 L243 613 C238 602 243 595 254 595 L273 595 L202 499 C197 492 200 485 209 485 L226 485 C235 485 237 487 244 495 L332 597 Z M496 597 C502 604 504 608 508 617 L540 684 C545 695 540 702 529 702 L462 702 C450 702 447 698 442 688 L407 613 C402 602 407 595 418 595 L437 595 L366 499 C361 492 364 485 373 485 L390 485 C399 485 401 487 408 495 L496 597 Z " />
<glyph glyph-name="quotedblbase" unicode="&#x201e;" horiz-adv-x="378" d="M56 2 C62 9 64 13 68 22 L100 89 C105 100 100 107 89 107 L22 107 C10 107 7 103 2 93 L-33 18 C-38 7 -33 0 -22 0 L-3 0 L-74 -96 C-79 -103 -76 -110 -67 -110 L-50 -110 C-41 -110 -39 -108 -32 -100 L56 2 Z M220 2 C226 9 228 13 232 22 L264 89 C269 100 264 107 253 107 L186 107 C174 107 171 103 166 93 L131 18 C126 7 131 0 142 0 L161 0 L90 -96 C85 -103 88 -110 97 -110 L114 -110 C123 -110 125 -108 132 -100 L220 2 Z " />
<glyph glyph-name="dagger" unicode="&#x2020;" horiz-adv-x="525" d="M622 500 C627 511 622 518 611 518 L448 518 L526 684 C531 695 526 702 515 702 L468 702 C456 702 453 698 448 688 L369 518 L198 518 C186 518 183 514 178 504 L160 466 C155 455 160 448 171 448 L336 448 L85 -92 C80 -103 85 -110 96 -110 L142 -110 C154 -110 157 -106 162 -96 L415 448 L584 448 C596 448 599 452 604 462 L622 500 Z " />
<glyph glyph-name="daggerdbl" unicode="&#x2021;" horiz-adv-x="528" d="M450 126 C455 137 450 144 439 144 L276 144 L417 448 L586 448 C598 448 601 452 606 462 L624 500 C629 511 624 518 613 518 L450 518 L528 684 C533 695 528 702 517 702 L470 702 C458 702 455 698 450 688 L371 518 L200 518 C188 518 185 514 180 504 L162 466 C157 455 162 448 173 448 L338 448 L196 144 L26 144 C14 144 11 140 6 130 L-11 93 C-16 82 -11 75 0 75 L164 75 L86 -92 C81 -103 86 -110 97 -110 L144 -110 C156 -110 159 -106 164 -96 L244 75 L413 75 C425 75 428 79 433 89 L450 126 Z " />
<glyph glyph-name="bullet" unicode="&#x2022;" horiz-adv-x="371" d="M69 216 C69 168 103 136 159 136 C283 136 361 237 363 326 C363 374 329 406 273 406 C149 406 71 305 69 216 L69 216 Z " />
<glyph glyph-name="ellipsis" unicode="&#x2026;" horiz-adv-x="684" d="M-21 18 C-26 7 -21 0 -10 0 L53 0 C65 0 68 4 73 14 L109 90 C114 101 109 108 98 108 L35 108 C23 108 20 104 15 94 L-21 18 Z M435 18 C430 7 435 0 446 0 L509 0 C521 0 524 4 529 14 L565 90 C570 101 565 108 554 108 L491 108 C479 108 476 104 471 94 L435 18 Z M207 18 C202 7 207 0 218 0 L281 0 C293 0 296 4 301 14 L337 90 C342 101 337 108 326 108 L263 108 C251 108 248 104 243 94 L207 18 Z " />
<glyph glyph-name="perthousand" unicode="&#x2030;" horiz-adv-x="1328" d="M934 683 C943 692 938 702 929 702 L884 702 C872 702 870 700 861 692 L128 19 C119 10 124 0 133 0 L177 0 C189 0 191 2 200 10 L934 683 Z M183 501 C167 466 157 426 157 391 C157 336 203 294 274 294 C381 294 448 363 512 501 C529 538 538 579 538 615 C538 665 496 709 420 709 C314 709 247 640 183 501 L183 501 Z M440 501 C396 407 347 360 287 360 C246 360 229 383 229 411 C229 442 245 479 254 501 C297 595 348 643 407 643 C447 643 465 619 465 590 C465 558 449 521 440 501 L440 501 Z M551 200 C535 165 525 125 525 90 C525 35 571 -7 642 -7 C749 -7 816 62 880 200 C897 237 906 278 906 314 C906 364 864 408 788 408 C682 408 615 339 551 200 L551 200 Z M808 200 C764 106 715 59 655 59 C614 59 597 82 597 110 C597 141 613 178 622 200 C665 294 716 342 775 342 C815 342 833 318 833 289 C833 257 817 220 808 200 L808 200 Z M953 200 C937 165 927 125 927 90 C927 35 973 -7 1044 -7 C1151 -7 1218 62 1282 200 C1299 237 1308 278 1308 314 C1308 364 1266 408 1190 408 C1084 408 1017 339 953 200 L953 200 Z M1210 200 C1166 106 1117 59 1057 59 C1016 59 999 82 999 110 C999 141 1015 178 1024 200 C1067 294 1118 342 1177 342 C1217 342 1235 318 1235 289 C1235 257 1219 220 1210 200 L1210 200 Z " />
<glyph glyph-name="guilsinglleft" unicode="&#x2039;" horiz-adv-x="252" d="M68 272 C66 268 67 263 68 258 L88 129 C89 121 92 117 103 117 L145 117 C156 117 161 123 159 135 L138 264 L291 404 C300 413 297 426 285 426 L243 426 C232 426 228 421 220 414 L79 285 C73 279 69 275 68 272 L68 272 Z " />
<glyph glyph-name="guilsinglright" unicode="&#x203a;" horiz-adv-x="252" d="M246 271 C248 275 248 280 247 285 L226 414 C225 422 222 426 211 426 L169 426 C158 426 153 420 155 408 L176 279 L23 139 C14 130 17 117 29 117 L71 117 C82 117 86 122 94 129 L235 258 C241 264 245 268 246 271 L246 271 Z " />
<glyph glyph-name="fraction" unicode="&#x2044;" horiz-adv-x="75" d="M509 683 C518 692 513 702 504 702 L459 702 C447 702 445 700 436 692 L-297 19 C-306 10 -301 0 -292 0 L-248 0 C-236 0 -234 2 -225 10 L509 683 Z " />
<glyph glyph-name="Euro" unicode="&#x20ac;" horiz-adv-x="651" d="M85 306 C74 306 71 304 66 294 L50 259 C46 250 50 243 61 243 L130 243 C126 224 123 205 123 187 C123 83 195 -10 357 -10 C432 -10 484 3 538 30 C544 33 549 38 549 47 L550 95 C550 102 544 108 533 103 C491 84 439 69 381 69 C262 69 213 118 213 192 C213 208 216 225 220 243 L405 243 C416 243 420 245 427 254 L455 290 C461 298 457 306 447 306 L241 306 L260 351 C268 368 275 382 283 396 L546 396 C557 396 562 398 569 407 L597 443 C603 451 599 459 589 459 L319 459 C385 552 481 634 640 634 C695 634 735 622 761 605 C771 598 778 600 785 608 L822 650 C828 657 827 665 820 670 C785 695 721 713 645 713 C458 713 319 605 232 459 L157 459 C146 459 143 457 138 447 L121 412 C117 403 121 396 132 396 L196 396 L173 351 L154 306 L85 306 Z " />
<glyph glyph-name="trademark" unicode="&#x2122;" horiz-adv-x="698" d="M255 651 C262 651 265 655 265 662 L265 692 C265 699 262 702 255 702 L51 702 C44 702 41 699 41 692 L41 662 C41 655 44 651 51 651 L124 651 L124 388 C124 381 128 378 135 378 L171 378 C178 378 182 381 182 388 L182 651 L255 651 Z M488 464 C493 464 496 466 500 471 L596 614 L596 388 C596 381 599 378 606 378 L641 378 C648 378 652 381 652 388 L652 692 C652 699 648 702 642 702 L603 702 C595 702 592 700 589 694 L488 539 L388 694 C384 700 381 702 373 702 L335 702 C328 702 324 699 324 692 L324 388 C324 381 328 378 335 378 L370 378 C377 378 381 381 381 388 L381 615 L477 471 C479 468 483 464 488 464 L488 464 Z " />
<glyph glyph-name="Omega" unicode="&#x2126;" horiz-adv-x="804" d="M634 63 C638 72 634 79 623 79 L485 73 L507 120 C671 165 872 337 872 520 C872 636 786 714 619 714 C348 714 124 518 124 294 C124 211 165 153 220 120 L198 73 L63 79 C50 79 47 78 42 68 L17 16 C13 7 17 0 28 0 L247 0 L310 137 C313 145 312 153 304 158 C250 190 216 236 216 300 C216 319 219 339 225 361 C275 534 426 636 601 636 C721 636 778 588 778 511 C778 494 776 475 770 456 C728 311 590 210 456 158 C445 154 437 148 432 137 L369 0 L591 0 C602 0 605 2 610 12 L634 63 Z " />
<glyph glyph-name="estimated" unicode="&#x212e;" horiz-adv-x="856" d="M820 335 L820 349 C820 548 651 708 430 708 C209 708 40 548 40 349 C40 152 213 -9 434 -9 C562 -9 673 46 745 130 L687 130 C624 57 538 21 435 21 C340 21 254 49 195 117 C190 123 187 131 187 146 L187 331 C187 334 189 335 192 335 L820 335 Z M673 365 C673 362 672 359 668 359 L192 359 C189 359 187 362 187 365 L187 552 C187 567 191 576 196 581 C259 646 336 678 431 678 C525 678 601 647 662 587 C670 578 673 571 673 551 L673 365 Z " />
<glyph glyph-name="partialdiff" unicode="&#x2202;" horiz-adv-x="642" d="M378 619 C419 630 464 640 508 640 C607 640 636 605 636 532 C636 462 600 390 565 334 C569 345 571 356 571 368 C571 424 527 485 419 485 C222 485 29 314 29 140 C29 53 89 -10 209 -10 C478 -10 721 336 721 548 C721 651 665 714 537 714 C481 714 438 709 395 694 C383 690 376 687 374 677 L364 631 C362 623 367 616 378 619 L378 619 Z M218 64 C147 64 116 101 116 153 C116 289 266 411 409 411 C482 411 515 379 513 327 C513 193 347 64 218 64 L218 64 Z " />
<glyph glyph-name="Delta" unicode="&#x2206;" horiz-adv-x="682" d="M529 702 C518 702 514 701 505 690 L-19 32 C-28 21 -27 0 -9 0 L506 0 C530 0 538 13 540 28 L623 685 C624 696 621 702 607 702 L529 702 Z M535 630 L539 630 L467 75 L94 75 L535 630 Z " />
<glyph glyph-name="product" unicode="&#x220f;" horiz-adv-x="749" d="M244 643 C239 632 244 625 255 625 L360 625 L77 18 C72 7 77 0 88 0 L138 0 C150 0 153 4 158 14 L443 625 L698 625 L415 18 C410 7 415 0 426 0 L477 0 C489 0 492 4 497 14 L782 625 L893 625 C905 625 908 629 913 639 L933 684 C938 695 933 702 922 702 L284 702 C272 702 269 698 264 688 L244 643 Z " />
<glyph glyph-name="summation" unicode="&#x2211;" horiz-adv-x="597" d="M258 638 C252 626 252 620 254 613 L355 300 L-46 -24 C-54 -30 -59 -34 -66 -48 L-87 -92 C-92 -103 -87 -110 -76 -110 L391 -110 C403 -110 406 -106 411 -96 L431 -53 C436 -42 431 -35 420 -35 L36 -35 L425 274 C431 278 432 280 435 287 L446 310 C450 318 449 320 448 324 L345 627 L729 627 C741 627 744 631 749 641 L769 684 C774 695 769 702 758 702 L301 702 C289 702 286 698 281 688 L258 638 Z " />
<glyph glyph-name="minus" unicode="&#x2212;" horiz-adv-x="590" d="M559 309 C570 309 573 311 578 321 L597 361 C601 370 597 377 586 377 L159 377 C148 377 144 375 140 365 L121 325 C117 316 121 309 132 309 L559 309 Z " />
<glyph glyph-name="radical" unicode="&#x221a;" horiz-adv-x="673" d="M252 -70 C262 -70 266 -68 273 -58 L873 740 C881 750 878 762 866 762 L813 762 C803 762 799 760 792 751 L269 47 L265 47 L303 402 C304 412 300 418 289 418 L165 418 C154 418 151 416 146 406 L126 362 C122 353 126 346 137 346 L207 346 L171 -55 C170 -65 176 -70 187 -70 L252 -70 Z " />
<glyph glyph-name="infinity" unicode="&#x221e;" horiz-adv-x="745" d="M503 460 C491 485 449 516 366 516 C231 516 138 436 105 321 C101 308 99 294 99 282 C99 224 143 184 227 184 C299 184 338 206 378 240 C389 215 431 184 514 184 C652 184 735 270 768 384 C772 398 774 411 774 423 C774 478 734 516 652 516 C581 516 543 495 503 460 L503 460 Z M394 335 C338 263 321 240 254 240 C196 240 173 257 173 290 C173 299 175 309 178 320 C203 408 263 462 348 462 C419 462 447 439 453 411 L394 335 Z M486 365 C540 436 554 460 626 460 C689 460 717 433 702 381 C678 296 620 239 533 239 C462 239 434 262 427 289 L486 365 Z " />
<glyph glyph-name="integral" unicode="&#x222b;" horiz-adv-x="376" d="M72 40 C48 -12 22 -41 -22 -41 C-35 -41 -48 -38 -58 -37 C-68 -36 -72 -37 -78 -46 L-104 -87 C-108 -93 -107 -100 -100 -103 C-85 -109 -54 -115 -30 -115 C56 -115 105 -60 149 34 L391 553 C415 605 440 634 484 634 C497 634 510 631 520 630 C530 629 534 630 540 639 L566 680 C570 686 569 693 562 696 C547 702 516 708 492 708 C406 708 357 653 313 559 L72 40 Z " />
<glyph glyph-name="approxequal" unicode="&#x2248;" horiz-adv-x="590" d="M554 266 C563 282 557 292 544 292 L518 292 C510 292 509 292 488 267 C470 244 454 236 436 236 C405 236 384 249 358 260 L297 285 C265 299 238 308 206 308 C159 308 116 290 71 218 C60 200 66 192 79 192 L105 192 C115 192 117 194 137 217 C157 240 174 248 193 248 C221 248 238 240 262 229 L328 198 C357 185 388 176 420 176 C466 176 510 194 554 266 L554 266 Z M652 477 C661 493 655 503 642 503 L616 503 C608 503 607 503 586 478 C568 455 552 447 534 447 C503 447 482 460 456 471 L395 496 C363 510 336 519 304 519 C257 519 214 501 169 429 C158 411 164 403 177 403 L203 403 C213 403 215 405 235 428 C255 451 272 459 291 459 C319 459 336 451 360 440 L426 409 C455 396 486 387 518 387 C564 387 608 405 652 477 L652 477 Z " />
<glyph glyph-name="notequal" unicode="&#x2260;" horiz-adv-x="590" d="M516 226 C528 226 531 230 536 240 L553 276 C558 287 553 294 542 294 L346 294 L453 403 L597 403 C609 403 612 407 617 417 L634 453 C639 464 634 471 623 471 L517 471 L722 684 C729 692 727 702 716 702 L677 702 C666 702 662 700 653 690 L443 471 L207 471 C195 471 192 467 187 457 L171 421 C166 410 171 403 182 403 L378 403 L272 294 L126 294 C114 294 111 290 106 280 L90 244 C85 233 90 226 101 226 L208 226 L7 18 C0 10 2 0 13 0 L51 0 C62 0 66 2 75 12 L282 226 L516 226 Z " />
<glyph glyph-name="lessequal" unicode="&#x2264;" horiz-adv-x="590" d="M399 0 C411 0 414 4 419 14 L434 44 C439 55 434 62 423 62 L16 62 C4 62 1 58 -4 48 L-19 18 C-24 7 -19 0 -8 0 L399 0 Z M141 375 C137 367 141 359 148 352 L400 90 C406 84 416 83 424 90 L470 125 C476 130 479 138 472 144 L240 368 L689 596 C699 601 703 606 700 616 L689 654 C686 664 678 664 669 659 L160 391 C150 385 144 382 141 375 L141 375 Z " />
<glyph glyph-name="greaterequal" unicode="&#x2265;" horiz-adv-x="590" d="M604 372 C608 380 604 388 597 395 L345 657 C339 663 329 664 321 657 L275 622 C269 617 266 609 273 603 L505 379 L56 151 C46 146 42 141 45 131 L56 93 C59 83 67 83 76 88 L585 356 C595 362 601 365 604 372 L604 372 Z M413 0 C425 0 428 4 433 14 L448 44 C453 55 448 62 437 62 L30 62 C18 62 15 58 10 48 L-5 18 C-10 7 -5 0 6 0 L413 0 Z " />
<glyph glyph-name="lozenge" unicode="&#x25ca;" horiz-adv-x="682" d="M278 100 L201 341 L534 607 L610 365 L278 100 Z M242 -10 C249 -10 253 -8 262 0 L678 338 C682 341 689 346 691 350 C693 354 692 359 691 362 L587 702 C585 709 583 712 576 712 C569 712 566 709 557 702 L137 363 C131 358 128 355 127 352 C126 349 126 343 129 334 L232 0 C234 -6 235 -10 242 -10 L242 -10 Z " />
<glyph glyph-name="uniF8FF" unicode="&#xf8ff;" horiz-adv-x="1300" d="M258 483 C258 489 246 493 236 497 C217 503 201 509 201 529 C201 546 216 559 241 559 C260 559 280 547 282 526 L257 526 C257 532 248 538 240 538 C230 538 226 534 226 529 C226 523 236 521 245 517 C265 510 282 503 282 484 C282 463 264 452 241 452 C219 452 200 465 198 487 L224 487 C225 478 234 473 243 473 C252 473 258 477 258 483 L258 483 Z M373 536 L342 536 L342 454 L317 454 L317 536 L286 536 L286 558 L373 558 L373 536 Z M465 454 L439 454 L430 471 L388 471 L379 454 L355 454 L400 558 L419 558 L465 454 Z M421 493 L410 523 L397 493 L421 493 Z M559 488 L581 558 L608 558 L574 454 L550 454 L526 519 L503 454 L479 454 L445 558 L471 558 L492 488 L517 558 L536 558 L559 488 Z M640 454 L614 454 L614 558 L640 558 L640 454 Z M698 488 L673 454 L645 454 L683 507 L647 558 L676 558 L698 527 L720 558 L749 558 L713 507 L751 454 L723 454 L698 488 Z M229 375 L229 356 L277 356 L277 334 L229 334 L229 292 L204 292 L204 397 L278 397 L278 375 L229 375 Z M390 345 C390 315 368 290 338 290 C308 290 286 315 286 345 C286 374 308 398 338 398 C368 398 390 374 390 345 L390 345 Z M366 345 C366 364 353 376 338 376 C323 376 310 364 310 345 C310 325 323 314 338 314 C353 314 366 325 366 345 L366 345 Z M469 397 L493 397 L493 337 C493 309 477 290 447 290 C418 290 399 309 399 337 L399 397 L425 397 L425 337 C425 322 431 314 447 314 C462 314 469 322 469 337 L469 397 Z M604 292 L580 292 L532 358 L532 292 L508 292 L508 397 L530 397 L579 330 L579 397 L604 397 L604 292 Z M617 397 L661 397 C694 397 713 376 713 346 C713 314 695 292 662 292 L617 292 L617 397 Z M662 315 C681 315 688 326 688 346 C688 362 680 374 661 374 L642 374 L642 315 L662 315 Z M749 292 L723 292 L723 397 L771 397 C792 397 810 385 810 362 C810 346 800 335 786 330 L813 292 L786 292 L759 330 L749 330 L749 292 Z M771 351 C778 351 785 356 785 362 C785 371 778 375 771 375 L749 375 L749 351 L771 351 Z M855 358 L878 397 L906 397 L868 335 L868 292 L843 292 L843 335 L805 397 L833 397 L855 358 Z M199 634 C197 634 195 637 195 639 C195 641 197 643 199 643 L1101 643 C1104 643 1106 641 1106 639 C1106 637 1104 634 1101 634 L199 634 Z M100 -164 L1200 -164 L1200 737 L100 737 L100 -164 Z M199 215 C197 215 195 218 195 220 C195 222 197 224 199 224 L1101 224 C1104 224 1106 222 1106 220 C1106 218 1104 215 1101 215 L199 215 Z " />
<glyph glyph-name="f_f" unicode="&#xfb00;" horiz-adv-x="639" d="M628 518 L649 563 C674 617 702 639 760 639 C783 639 794 636 808 632 C816 630 821 633 825 641 L843 680 C846 686 846 691 839 695 C824 703 797 710 765 710 C673 710 616 666 570 566 L548 518 L335 518 L356 563 C381 617 409 639 467 639 C490 639 501 636 515 632 C523 630 528 633 532 641 L550 680 C553 686 553 691 546 695 C531 703 504 710 472 710 C380 710 323 666 277 566 L255 518 L183 518 C174 518 170 516 165 505 L146 463 C142 454 145 446 156 446 L221 446 L22 17 C18 8 21 0 32 0 L82 0 C91 0 95 2 100 13 L301 446 L514 446 L315 17 C311 8 314 0 325 0 L375 0 C384 0 388 2 393 13 L594 446 L718 446 C727 446 731 448 736 459 L755 501 C759 510 756 518 745 518 L628 518 Z " />
<glyph glyph-name="fi" unicode="&#xfb01;" horiz-adv-x="563" d="M334 518 L355 563 C380 617 408 639 466 639 C489 639 500 636 514 632 C522 630 527 633 531 641 L549 680 C552 686 552 691 545 695 C530 703 503 710 471 710 C379 710 323 666 277 566 L255 518 L183 518 C174 518 170 516 165 505 L146 463 C142 454 145 446 156 446 L221 446 L22 17 C18 8 21 0 32 0 L82 0 C91 0 95 2 100 13 L301 446 L514 446 L314 17 C310 8 313 0 324 0 L375 0 C384 0 388 2 393 13 L621 501 C625 510 622 518 611 518 L334 518 Z M706 686 C710 695 707 702 696 702 L648 702 C639 702 635 700 630 689 L591 607 C587 598 590 590 601 590 L648 590 C657 590 661 592 666 603 L706 686 Z " />
<glyph glyph-name="fl" unicode="&#xfb02;" horiz-adv-x="562" d="M697 668 C702 678 700 689 690 693 C673 701 610 712 537 712 C385 712 319 655 271 553 L255 518 L182 518 C173 518 169 516 164 505 L145 463 C141 454 144 446 155 446 L221 446 L22 17 C18 8 21 0 32 0 L82 0 C91 0 95 2 100 13 L301 446 L398 446 C407 446 411 448 416 459 L435 501 C439 510 436 518 425 518 L334 518 L350 553 C377 612 421 642 513 642 C546 642 582 639 601 634 L314 17 C310 8 313 0 324 0 L375 0 C384 0 388 2 393 13 L697 668 Z " />
<glyph glyph-name="f_f_i" unicode="&#xfb03;" horiz-adv-x="855" d="M998 686 C1002 695 999 702 988 702 L940 702 C931 702 927 700 922 689 L883 607 C879 598 882 590 893 590 L940 590 C949 590 953 592 958 603 L998 686 Z M807 446 L607 17 C603 8 606 0 617 0 L667 0 C676 0 680 2 685 13 L913 501 C917 510 914 518 903 518 L628 518 L649 563 C674 617 702 639 760 639 C783 639 794 636 808 632 C816 630 821 633 825 641 L843 680 C846 686 846 691 839 695 C824 703 797 710 765 710 C673 710 616 666 570 566 L548 518 L335 518 L356 563 C381 617 409 639 467 639 C490 639 501 636 515 632 C523 630 528 633 532 641 L550 680 C553 686 553 691 546 695 C531 703 504 710 472 710 C380 710 323 666 277 566 L255 518 L183 518 C174 518 170 516 165 505 L146 463 C142 454 145 446 156 446 L221 446 L22 17 C18 8 21 0 32 0 L82 0 C91 0 95 2 100 13 L301 446 L514 446 L315 17 C311 8 314 0 325 0 L375 0 C384 0 388 2 393 13 L594 446 L807 446 Z " />
<glyph glyph-name="f_f_l" unicode="&#xfb04;" horiz-adv-x="854" d="M594 446 L691 446 C700 446 704 448 709 459 L728 501 C732 510 729 518 718 518 L627 518 L643 553 C670 612 714 642 806 642 C839 642 875 639 894 634 L607 17 C603 8 606 0 617 0 L668 0 C677 0 681 2 686 13 L990 668 C995 678 993 689 983 693 C966 701 903 712 830 712 C678 712 612 655 564 553 L548 518 L335 518 L356 563 C381 617 409 639 467 639 C490 639 501 636 515 632 C523 630 528 633 532 641 L550 680 C553 686 553 691 546 695 C531 703 504 710 472 710 C380 710 323 666 277 566 L255 518 L183 518 C174 518 170 516 165 505 L146 463 C142 454 145 446 156 446 L221 446 L22 17 C18 8 21 0 32 0 L82 0 C91 0 95 2 100 13 L301 446 L514 446 L315 17 C311 8 314 0 325 0 L375 0 C384 0 388 2 393 13 L594 446 Z " />
</font>
</svg>
