<?xml version="1.0" encoding="UTF-8"?>
<svg xmlns="http://www.w3.org/2000/svg" xmlns:xlink="http://www.w3.org/1999/xlink" version="1.2" >
<font id="Energi Pro Medium">
<font-face  font-family="Energi Pro" units-per-em="1000" ascent="750" descent="-250" font-style="normal" font-weight="600" font-stretch="normal" cap-height="704" x-height="527" underline-position="-78" underline-thickness="45" />
<missing-glyph  horiz-adv-x="492" d="M0 690 L0 0 L492 0 L492 690 L0 690 Z M443 94 L275 345 L443 597 L443 94 Z M49 597 L217 345 L49 94 L49 597 Z M246 389 L79 641 L414 641 L246 389 Z M246 301 L413 49 L79 49 L246 301 Z " />
<glyph glyph-name="CR" unicode="&#xd;" horiz-adv-x="500" d="" />
<glyph glyph-name="space" unicode="&#x20;" horiz-adv-x="292" d="" />
<glyph glyph-name="exclam" unicode="&#x21;" horiz-adv-x="309" d="M83 23 C83 7 90 0 105 0 L204 0 C219 0 226 7 226 23 L226 120 C226 135 219 143 202 143 L107 143 C91 143 83 135 83 120 L83 23 Z M185 214 C201 214 208 222 209 236 L234 680 C235 697 227 704 210 704 L99 704 C82 704 74 697 75 680 L100 236 C101 222 108 214 124 214 L185 214 Z " />
<glyph glyph-name="quotedbl" unicode="&#x22;" horiz-adv-x="375" d="M154 620 C157 639 160 661 160 681 C160 711 144 727 104 727 C64 727 49 711 49 681 C49 661 51 639 54 620 L80 453 L128 453 L154 620 Z M321 620 C324 639 326 661 326 681 C326 711 311 727 270 727 C230 727 215 711 215 681 C215 661 218 639 221 620 L247 453 L295 453 L321 620 Z " />
<glyph glyph-name="numbersign" unicode="&#x23;" horiz-adv-x="645" d="M571 673 C575 689 570 698 554 702 L513 712 C499 716 489 711 485 696 L439 519 L295 519 L335 673 C339 688 335 698 318 702 L277 712 C262 716 253 711 249 696 L203 519 L109 519 C93 519 86 512 86 496 L86 459 C86 443 93 435 109 435 L181 435 L136 265 L39 265 C24 265 16 257 16 242 L16 204 C16 188 24 181 39 181 L114 181 L75 32 C71 17 77 8 92 4 L132 -8 C147 -12 157 -6 161 9 L205 181 L350 181 L311 32 C307 17 311 9 328 4 L369 -8 C383 -12 393 -6 397 9 L441 181 L535 181 C551 181 559 188 559 204 L559 242 C559 257 551 265 535 265 L463 265 L508 435 L605 435 C621 435 628 443 628 459 L628 496 C628 512 621 519 605 519 L531 519 L571 673 Z M272 435 L416 435 L372 265 L227 265 L272 435 Z " />
<glyph glyph-name="dollar" unicode="&#x24;" horiz-adv-x="591" d="M347 782 C347 798 340 804 324 804 L282 804 C266 804 258 798 258 782 L258 712 C125 700 48 633 48 523 C48 382 156 342 265 304 C347 274 415 256 415 194 C415 130 346 109 258 109 C187 109 131 127 97 140 C80 147 72 141 66 126 L43 62 C37 45 43 39 58 32 C97 14 173 -6 262 -8 L262 -77 C262 -93 270 -100 286 -100 L328 -100 C344 -100 351 -93 351 -77 L351 -3 C465 13 554 71 554 194 C554 330 448 369 333 412 C254 442 188 461 188 519 C188 568 238 596 323 596 C376 596 432 584 466 571 C484 564 492 570 497 585 L521 647 C527 663 521 670 507 677 C480 691 414 710 347 714 L347 782 Z " />
<glyph glyph-name="percent" unicode="&#x25;" horiz-adv-x="956" d="M731 682 C740 697 733 704 718 704 L659 704 C642 704 634 698 625 683 L226 23 C217 7 222 0 238 0 L298 0 C314 0 321 7 330 22 L731 682 Z M39 502 C39 366 109 292 215 292 C322 292 392 366 392 502 C392 638 322 712 215 712 C109 712 39 638 39 502 L39 502 Z M288 502 C288 418 263 378 215 378 C168 378 143 418 143 502 C143 586 168 626 215 626 C263 626 288 586 288 502 L288 502 Z M564 203 C564 67 634 -7 740 -7 C847 -7 917 67 917 203 C917 339 847 413 741 413 C634 413 564 339 564 203 L564 203 Z M814 203 C814 119 789 79 741 79 C693 79 668 119 668 203 C668 286 693 327 741 327 C789 327 814 286 814 203 L814 203 Z " />
<glyph glyph-name="ampersand" unicode="&#x26;" horiz-adv-x="735" d="M677 295 C677 322 672 346 668 359 C665 369 659 377 647 377 L579 377 C564 377 558 373 558 358 C558 344 568 325 568 302 C568 265 559 234 546 211 L317 461 C289 492 261 517 261 556 C261 588 285 611 359 611 C393 611 423 605 451 596 C472 589 480 597 484 611 L499 661 C503 674 496 684 480 691 C451 703 402 716 344 716 C192 716 140 652 140 572 C140 520 157 482 198 439 L217 419 C112 391 42 320 42 212 C42 68 167 -9 334 -9 C422 -9 493 13 546 54 L583 14 C591 5 599 0 620 0 L707 0 C719 0 725 13 715 24 L624 125 C657 169 677 223 677 295 L677 295 Z M349 104 C240 104 179 156 179 222 C179 284 213 322 284 341 L473 136 C447 115 405 104 349 104 L349 104 Z " />
<glyph glyph-name="quotesingle" unicode="&#x27;" horiz-adv-x="208" d="M154 620 C157 639 160 661 160 681 C160 711 144 727 104 727 C64 727 49 711 49 681 C49 661 51 639 54 620 L80 453 L128 453 L154 620 Z " />
<glyph glyph-name="parenleft" unicode="&#x28;" horiz-adv-x="375" d="M76 298 C76 132 155 -14 238 -106 C244 -112 251 -117 265 -117 L327 -117 C344 -117 347 -104 339 -92 C265 8 206 150 206 298 C206 447 263 592 339 690 C347 701 344 714 327 714 L265 714 C251 714 244 709 238 702 C155 611 76 465 76 298 L76 298 Z " />
<glyph glyph-name="parenright" unicode="&#x29;" horiz-adv-x="375" d="M300 298 C300 465 221 611 138 702 C132 709 125 714 111 714 L48 714 C32 714 28 701 36 690 C110 588 171 447 171 298 C171 150 108 10 36 -92 C28 -103 32 -117 48 -117 L111 -117 C125 -117 132 -112 138 -106 C221 -14 300 132 300 298 L300 298 Z " />
<glyph glyph-name="asterisk" unicode="&#x2a;" horiz-adv-x="424" d="M213 343 C243 343 252 354 252 381 C252 409 238 456 235 490 C263 470 295 434 320 420 C343 406 358 409 374 435 C389 461 382 474 359 489 C335 503 288 513 256 529 C288 543 335 553 359 567 C382 581 388 595 373 622 C359 647 343 650 320 636 C295 622 262 587 234 566 C237 601 250 647 250 676 C250 703 242 714 212 714 C181 714 172 703 172 676 C172 647 187 601 190 566 C161 587 129 622 104 637 C81 650 66 648 51 622 C35 596 42 582 66 568 C89 554 137 543 168 528 C137 513 89 502 66 489 C42 475 36 461 51 435 C65 409 81 407 104 421 C129 435 162 470 191 490 C188 456 173 409 173 381 C173 354 182 343 213 343 L213 343 Z " />
<glyph glyph-name="plus" unicode="&#x2b;" horiz-adv-x="599" d="M520 292 C535 292 543 299 543 314 L543 376 C543 392 535 399 520 399 L359 399 L359 559 C359 575 352 582 337 582 L262 582 C247 582 239 575 239 559 L239 399 L79 399 C63 399 56 392 56 376 L56 314 C56 299 63 292 79 292 L239 292 L239 130 C239 114 247 107 262 107 L337 107 C352 107 359 114 359 130 L359 292 L520 292 Z " />
<glyph glyph-name="comma" unicode="&#x2c;" horiz-adv-x="248" d="M187 3 C192 13 193 19 193 32 L193 119 C193 134 186 141 168 141 L80 141 C64 141 55 134 55 119 L55 23 C55 7 62 0 78 0 L105 0 L71 -106 C67 -118 71 -127 83 -127 L114 -127 C125 -127 129 -122 133 -114 L187 3 Z " />
<glyph glyph-name="hyphen" unicode="&#x2d;" horiz-adv-x="399" d="M335 218 C350 218 358 225 358 240 L358 303 C358 318 350 325 335 325 L63 325 C47 325 40 318 40 303 L40 240 C40 225 47 218 63 218 L335 218 Z " />
<glyph glyph-name="period" unicode="&#x2e;" horiz-adv-x="248" d="M55 23 C55 7 62 0 78 0 L170 0 C186 0 193 7 193 23 L193 119 C193 134 186 141 168 141 L80 141 C64 141 55 134 55 119 L55 23 Z " />
<glyph glyph-name="slash" unicode="&#x2f;" horiz-adv-x="452" d="M12 28 C5 12 10 0 30 0 L107 0 C126 0 133 9 138 21 L440 676 C447 692 441 704 422 704 L345 704 C326 704 319 696 313 683 L12 28 Z " />
<glyph glyph-name="zero" unicode="0" horiz-adv-x="681" d="M340 716 C162 716 52 593 52 352 C52 113 162 -10 340 -10 C518 -10 628 113 628 353 C628 593 518 716 340 716 L340 716 Z M340 110 C241 110 192 191 192 353 C192 514 241 595 340 595 C440 595 489 514 489 353 C489 191 440 110 340 110 L340 110 Z " />
<glyph glyph-name="one" unicode="1" horiz-adv-x="484" d="M231 25 C231 7 238 0 256 0 L344 0 C361 0 368 7 368 25 L368 680 C368 697 361 704 344 704 L253 704 C235 704 227 700 218 694 L38 562 C30 556 27 546 35 536 L78 482 C86 472 95 471 107 478 L231 558 L231 25 Z " />
<glyph glyph-name="two" unicode="2" horiz-adv-x="629" d="M184 508 C184 554 211 602 302 602 C396 602 425 553 425 487 C425 339 219 194 72 108 C59 100 54 94 54 78 L54 25 C54 7 62 0 78 0 L545 0 C562 0 570 7 570 25 L570 90 C570 106 562 114 545 114 L257 114 C380 189 563 334 563 497 C563 616 495 716 303 716 C130 716 56 623 56 513 C56 498 58 473 62 459 C65 443 71 436 86 436 L167 436 C182 436 188 442 188 456 C188 469 184 484 184 508 L184 508 Z " />
<glyph glyph-name="three" unicode="3" horiz-adv-x="590" d="M192 417 C175 417 167 410 167 394 L167 334 C167 318 175 310 192 310 L270 310 C355 310 401 281 401 212 C401 140 355 105 256 105 C175 105 123 123 86 139 C70 146 60 140 55 126 L31 64 C26 49 32 42 46 35 C92 14 172 -9 269 -9 C442 -9 537 64 537 208 C537 309 479 357 416 375 C476 397 519 441 519 532 C519 661 405 715 274 715 C178 715 100 692 54 672 C39 665 33 657 39 642 L63 583 C68 569 77 563 93 569 C130 584 184 602 261 602 C335 602 384 573 384 511 C384 445 343 417 266 417 L192 417 Z " />
<glyph glyph-name="four" unicode="4" horiz-adv-x="665" d="M513 0 C529 0 537 7 537 25 L537 146 L623 146 C639 146 647 154 647 171 L647 234 C647 251 639 259 623 259 L537 259 L537 680 C537 697 529 704 512 704 L420 704 C405 704 399 699 392 690 L46 265 C40 257 36 250 36 235 L36 171 C36 154 44 146 60 146 L400 146 L400 25 C400 7 408 0 424 0 L513 0 Z M401 551 L401 259 L159 259 L401 551 Z " />
<glyph glyph-name="five" unicode="5" horiz-adv-x="605" d="M555 226 C555 358 483 443 309 443 C260 443 215 434 184 423 C188 466 194 550 196 591 L491 591 C507 591 515 598 515 615 L515 680 C515 697 507 704 491 704 L109 704 C92 704 83 696 83 678 C83 615 72 436 63 356 C61 342 65 336 77 333 L121 319 C128 317 133 315 139 315 C165 315 201 341 282 341 C381 341 419 301 419 226 C419 146 372 105 267 105 C194 105 130 124 93 140 C77 147 67 141 62 127 L38 67 C32 51 38 43 52 36 C99 13 178 -9 276 -9 C453 -9 555 69 555 226 L555 226 Z " />
<glyph glyph-name="six" unicode="6" horiz-adv-x="649" d="M482 584 C501 579 509 586 513 601 L530 662 C534 676 527 683 512 689 C480 702 424 716 363 716 C142 716 52 562 52 323 C52 129 143 -10 343 -10 C504 -10 602 96 602 244 C602 376 527 476 366 476 C270 476 210 431 184 386 C187 519 243 604 373 604 C412 604 449 594 482 584 L482 584 Z M341 104 C243 104 197 178 197 241 C197 315 245 375 341 375 C436 375 476 316 476 246 C476 163 428 104 341 104 L341 104 Z " />
<glyph glyph-name="seven" unicode="7" horiz-adv-x="578" d="M147 23 C146 8 155 0 171 0 L263 0 C281 0 287 7 288 23 C299 220 421 441 518 586 C524 595 536 605 536 624 L536 680 C536 697 529 704 512 704 L63 704 C46 704 39 697 39 680 L39 615 C39 598 46 591 63 591 L389 591 C289 467 165 218 147 23 L147 23 Z " />
<glyph glyph-name="eight" unicode="8" horiz-adv-x="641" d="M320 -10 C500 -10 595 70 595 187 C595 292 522 344 434 365 C517 390 576 448 576 532 C576 648 485 716 320 716 C156 716 65 648 65 532 C65 448 124 390 207 365 C119 344 46 292 46 187 C46 70 141 -10 320 -10 L320 -10 Z M320 614 C404 614 443 581 443 527 C443 465 400 432 320 409 C241 432 198 465 198 527 C198 581 237 614 320 614 L320 614 Z M320 320 C404 300 459 262 459 196 C459 136 411 95 320 95 C230 95 181 136 181 196 C181 262 236 300 320 320 L320 320 Z " />
<glyph glyph-name="nine" unicode="9" horiz-adv-x="649" d="M169 120 C150 126 143 119 138 104 L121 44 C117 29 124 22 139 16 C173 3 228 -11 289 -11 C509 -11 597 142 597 381 C597 575 506 715 306 715 C144 715 47 609 47 460 C47 329 122 228 283 228 C384 228 443 274 467 313 C464 179 406 101 278 101 C239 101 201 110 169 120 L169 120 Z M308 600 C406 600 452 533 452 463 C452 389 403 329 308 329 C213 329 172 389 172 459 C172 542 221 600 308 600 L308 600 Z " />
<glyph glyph-name="colon" unicode="&#x3a;" horiz-adv-x="286" d="M74 23 C74 7 81 0 97 0 L188 0 C204 0 212 7 212 23 L212 119 C212 134 204 141 187 141 L98 141 C82 141 74 134 74 119 L74 23 Z M74 408 C74 392 81 386 97 386 L188 386 C204 386 212 392 212 408 L212 504 C212 520 204 527 187 527 L98 527 C82 527 74 520 74 505 L74 408 Z " />
<glyph glyph-name="semicolon" unicode="&#x3b;" horiz-adv-x="286" d="M74 408 C74 392 81 386 97 386 L188 386 C204 386 212 392 212 408 L212 504 C212 520 204 527 187 527 L99 527 C82 527 74 520 74 504 L74 408 Z M205 3 C210 13 212 19 212 32 L212 119 C212 134 204 141 187 141 L98 141 C82 141 74 134 74 119 L74 23 C74 7 81 0 97 0 L124 0 L90 -106 C86 -118 90 -127 102 -127 L132 -127 C144 -127 148 -122 152 -114 L205 3 Z " />
<glyph glyph-name="less" unicode="&#x3c;" horiz-adv-x="599" d="M59 344 C59 336 62 329 71 321 L440 38 C453 28 463 30 472 41 L516 96 C525 107 524 118 513 127 L219 344 L513 561 C523 570 525 581 516 593 L472 646 C463 658 451 658 439 648 L71 367 C62 360 59 351 59 344 L59 344 Z " />
<glyph glyph-name="equal" unicode="&#x3d;" horiz-adv-x="599" d="M507 398 C522 398 529 405 529 421 L529 478 C529 493 522 501 507 501 L92 501 C76 501 70 493 70 478 L70 421 C70 405 76 398 92 398 L507 398 Z M507 190 C522 190 529 198 529 213 L529 270 C529 286 522 293 507 293 L92 293 C76 293 70 286 70 270 L70 213 C70 198 76 190 92 190 L507 190 Z " />
<glyph glyph-name="greater" unicode="&#x3e;" horiz-adv-x="599" d="M540 345 C540 352 538 360 528 367 L157 649 C145 659 135 659 125 646 L84 593 C75 580 75 570 87 561 L381 344 L87 127 C75 118 75 108 84 96 L125 41 C134 29 145 29 157 38 L528 321 C538 329 540 337 540 345 L540 345 Z " />
<glyph glyph-name="question" unicode="&#x3f;" horiz-adv-x="542" d="M190 23 C190 7 198 0 213 0 L311 0 C327 0 335 7 335 23 L335 120 C335 135 326 143 310 143 L215 143 C199 143 190 135 190 120 L190 23 Z M327 259 C327 343 496 376 496 541 C496 649 413 715 257 715 C168 715 94 696 48 673 C34 666 28 658 33 644 L57 582 C62 568 72 562 88 569 C125 584 179 601 242 601 C330 601 361 570 361 522 C361 408 204 356 204 259 L204 237 C204 222 211 214 227 214 L303 214 C320 214 327 222 327 236 L327 259 Z " />
<glyph glyph-name="at" unicode="&#x40;" horiz-adv-x="933" d="M555 233 C541 155 500 120 439 120 C381 120 354 156 354 216 C354 307 407 376 506 376 C537 376 563 370 578 364 L555 233 Z M676 -20 C633 -35 556 -50 471 -50 C238 -50 132 32 132 215 C132 414 270 539 492 539 C722 539 804 435 804 300 C804 175 764 100 659 100 L638 100 L691 406 C693 419 686 425 677 429 C642 445 584 463 511 463 C324 463 242 346 242 203 C242 93 310 32 417 32 C477 32 529 56 561 105 L564 50 C565 36 579 33 592 33 L652 33 C796 33 876 136 876 299 C876 467 763 606 493 606 C228 606 59 446 59 215 C59 -12 203 -114 471 -114 C562 -114 647 -95 692 -79 C700 -76 704 -72 702 -63 L694 -31 C691 -21 686 -17 676 -20 L676 -20 Z " />
<glyph glyph-name="A" unicode="A" horiz-adv-x="684" d="M242 271 L341 566 L344 566 L441 271 L242 271 Z M285 704 C266 704 260 696 255 681 L22 28 C16 12 24 0 41 0 L138 0 C154 0 161 7 166 22 L212 153 L472 153 L518 22 C523 7 530 0 547 0 L644 0 C660 0 668 12 662 28 L429 681 C424 696 418 704 399 704 L285 704 Z " />
<glyph glyph-name="B" unicode="B" horiz-adv-x="688" d="M212 414 L212 593 L348 593 C447 593 482 568 482 506 C482 441 447 414 350 414 L212 414 Z M358 0 C542 0 640 58 640 204 C640 308 586 356 522 373 C572 388 618 433 618 520 C618 649 533 704 351 704 L99 704 C81 704 74 697 74 680 L74 25 C74 7 81 0 99 0 L358 0 Z M212 112 L212 309 L355 309 C466 309 502 281 502 212 C502 138 463 112 351 112 L212 112 Z " />
<glyph glyph-name="C" unicode="C" horiz-adv-x="618" d="M396 113 C256 113 190 189 190 352 C190 516 256 592 391 592 C440 592 483 580 511 567 C530 559 539 564 545 579 L572 640 C578 654 572 662 558 671 C520 694 452 716 369 716 C170 716 48 595 48 352 C48 109 172 -11 374 -11 C458 -11 528 12 565 36 C580 45 586 52 580 66 L552 128 C545 143 537 149 518 142 C490 127 447 113 396 113 L396 113 Z " />
<glyph glyph-name="D" unicode="D" horiz-adv-x="687" d="M292 0 C517 0 640 94 640 359 C640 611 517 704 291 704 L98 704 C81 704 74 697 74 680 L74 25 C74 7 81 0 99 0 L292 0 Z M286 580 C423 580 498 534 498 359 C498 171 423 124 287 124 L214 124 L214 580 L286 580 Z " />
<glyph glyph-name="E" unicode="E" horiz-adv-x="565" d="M479 301 C495 301 503 310 503 326 L503 392 C503 408 495 417 479 417 L212 417 L212 584 L492 584 C509 584 517 592 517 609 L517 680 C517 697 509 704 492 704 L98 704 C81 704 74 697 74 680 L74 25 C74 7 81 0 99 0 L496 0 C513 0 521 7 521 25 L521 96 C521 113 513 120 496 120 L212 120 L212 301 L479 301 Z " />
<glyph glyph-name="F" unicode="F" horiz-adv-x="552" d="M481 286 C497 286 505 294 505 310 L505 378 C505 395 497 403 481 403 L213 403 L213 585 L490 585 C507 585 514 593 514 610 L514 681 C514 697 507 704 490 704 L99 704 C81 704 74 697 74 680 L74 25 C74 7 81 0 99 0 L188 0 C205 0 213 7 213 25 L213 286 L481 286 Z " />
<glyph glyph-name="G" unicode="G" horiz-adv-x="704" d="M404 419 C387 419 379 410 379 394 L379 333 C379 317 387 310 404 310 L513 310 L513 133 C489 122 448 113 406 113 C260 113 190 182 190 353 C190 522 258 592 417 592 C478 592 526 576 557 563 C576 555 585 560 591 575 L616 637 C622 652 616 660 601 668 C561 692 489 716 399 716 C175 716 48 603 48 353 C48 101 174 -11 390 -11 C497 -11 571 11 618 39 C629 46 640 56 640 74 L640 394 C640 411 631 419 615 419 L404 419 Z " />
<glyph glyph-name="H" unicode="H" horiz-adv-x="705" d="M492 25 C492 7 500 0 516 0 L607 0 C624 0 631 7 631 25 L631 680 C631 697 624 704 607 704 L516 704 C500 704 492 697 492 680 L492 422 L214 422 L214 680 C214 697 206 704 189 704 L99 704 C81 704 74 697 74 680 L74 25 C74 7 81 0 99 0 L189 0 C206 0 214 7 214 25 L214 296 L492 296 L492 25 Z " />
<glyph glyph-name="I" unicode="I" horiz-adv-x="299" d="M80 25 C80 7 87 0 104 0 L195 0 C211 0 220 7 220 25 L220 680 C220 697 211 704 195 704 L104 704 C87 704 80 697 80 680 L80 25 Z " />
<glyph glyph-name="J" unicode="J" horiz-adv-x="495" d="M287 240 C287 156 250 113 177 113 C133 113 100 126 75 139 C59 147 50 139 45 125 L21 60 C14 42 23 35 36 27 C69 7 130 -11 198 -11 C348 -11 426 68 426 228 L426 680 C426 697 418 704 402 704 L311 704 C294 704 287 697 287 680 L287 240 Z " />
<glyph glyph-name="K" unicode="K" horiz-adv-x="636" d="M214 438 L214 680 C214 697 206 704 189 704 L99 704 C81 704 74 697 74 680 L74 25 C74 7 81 0 99 0 L189 0 C206 0 214 7 214 25 L214 308 L454 22 C464 10 473 0 490 0 L596 0 C615 0 620 17 609 31 L323 378 L603 674 C615 687 609 704 590 704 L486 704 C468 704 460 696 449 684 L214 438 Z " />
<glyph glyph-name="L" unicode="L" horiz-adv-x="547" d="M214 680 C214 697 206 704 189 704 L99 704 C81 704 74 697 74 680 L74 25 C74 7 81 0 99 0 L483 0 C500 0 508 7 508 25 L508 102 C508 118 500 126 483 126 L214 126 L214 680 Z " />
<glyph glyph-name="M" unicode="M" horiz-adv-x="818" d="M409 170 C419 170 426 175 431 183 L608 473 L608 25 C608 7 615 0 632 0 L719 0 C736 0 744 7 744 25 L744 680 C744 697 736 704 719 704 L633 704 C619 704 611 700 605 690 L409 368 L213 690 C207 700 199 704 184 704 L99 704 C81 704 74 697 74 680 L74 25 C74 7 81 0 99 0 L186 0 C202 0 210 7 210 25 L210 473 L387 183 C391 175 398 170 409 170 L409 170 Z " />
<glyph glyph-name="N" unicode="N" horiz-adv-x="709" d="M635 681 C635 697 627 704 611 704 L524 704 C507 704 500 697 500 680 L500 234 L219 688 C212 700 205 704 187 704 L99 704 C81 704 74 697 74 680 L74 25 C74 7 81 0 99 0 L185 0 C202 0 209 7 209 25 L209 470 L490 17 C497 5 504 0 521 0 L611 0 C627 0 635 7 635 25 L635 681 Z " />
<glyph glyph-name="O" unicode="O" horiz-adv-x="718" d="M359 716 C163 716 47 595 47 352 C47 109 163 -11 358 -11 C555 -11 671 109 671 352 C671 595 555 716 359 716 L359 716 Z M359 111 C245 111 189 191 189 352 C189 513 245 594 359 594 C472 594 528 513 528 352 C528 191 472 111 359 111 L359 111 Z " />
<glyph glyph-name="P" unicode="P" horiz-adv-x="661" d="M213 324 L213 584 L314 584 C424 584 471 549 471 454 C471 359 424 324 314 324 L213 324 Z M188 0 C205 0 213 8 213 25 L213 204 L315 204 C512 204 612 273 612 454 C612 634 512 704 315 704 L98 704 C81 704 74 696 74 680 L74 25 C74 8 81 0 99 0 L188 0 Z " />
<glyph glyph-name="Q" unicode="Q" horiz-adv-x="718" d="M472 22 C593 63 671 183 672 354 C673 596 555 716 359 716 C163 716 47 596 47 354 C47 127 148 9 324 -4 C397 -64 496 -95 590 -95 C619 -95 626 -87 626 -68 L626 -8 C626 7 619 11 605 11 C594 11 581 7 565 7 C529 7 497 13 472 22 L472 22 Z M359 115 C245 115 189 194 189 354 C189 513 245 594 358 594 C472 594 528 513 528 354 C528 194 472 115 359 115 L359 115 Z " />
<glyph glyph-name="R" unicode="R" horiz-adv-x="663" d="M213 351 L213 584 L321 584 C431 584 475 552 475 467 C475 388 434 351 320 351 L213 351 Z M99 704 C81 704 74 697 74 680 L74 25 C74 7 81 0 99 0 L188 0 C205 0 213 7 213 25 L213 235 L306 235 L468 20 C477 8 485 0 503 0 L598 0 C618 0 624 17 613 31 L443 254 C549 277 615 345 615 467 C615 635 517 704 323 704 L99 704 Z " />
<glyph glyph-name="S" unicode="S" horiz-adv-x="580" d="M542 191 C542 330 438 368 327 413 C250 444 193 463 193 520 C193 573 235 596 320 596 C375 596 422 588 458 574 C476 568 484 573 490 588 L513 650 C519 666 512 673 498 680 C459 698 393 715 307 715 C140 715 53 650 53 523 C53 385 154 344 261 304 C339 274 402 251 402 193 C402 135 342 109 255 109 C188 109 132 124 96 139 C79 146 71 139 66 124 L42 60 C36 44 43 37 57 30 C101 8 182 -9 274 -9 C428 -9 542 52 542 191 L542 191 Z " />
<glyph glyph-name="T" unicode="T" horiz-adv-x="566" d="M27 604 C27 587 35 579 52 579 L213 579 L213 25 C213 7 221 0 238 0 L328 0 C346 0 353 7 353 25 L353 579 L514 579 C532 579 539 587 539 604 L539 680 C539 697 532 704 514 704 L51 704 C35 704 27 697 27 680 L27 604 Z " />
<glyph glyph-name="U" unicode="U" horiz-adv-x="694" d="M347 -12 C532 -12 624 82 624 255 L624 680 C624 697 616 704 600 704 L509 704 C492 704 485 697 485 680 L485 267 C485 169 445 114 347 114 C248 114 209 169 209 267 L209 680 C209 697 202 704 184 704 L94 704 C77 704 69 697 69 680 L69 255 C69 82 161 -12 347 -12 L347 -12 Z " />
<glyph glyph-name="V" unicode="V" horiz-adv-x="675" d="M394 0 C411 0 420 7 426 24 L647 676 C653 693 645 704 629 704 L531 704 C514 704 506 696 502 682 L382 309 L339 144 L337 144 L293 309 L173 682 C169 696 161 704 144 704 L47 704 C30 704 22 693 28 676 L250 24 C256 7 264 0 281 0 L394 0 Z " />
<glyph glyph-name="W" unicode="W" horiz-adv-x="1041" d="M478 704 C459 704 451 697 447 682 L355 345 L310 164 L308 164 L266 343 L177 682 C173 697 164 704 148 704 L53 704 C37 704 29 694 34 676 L218 24 C223 8 231 0 250 0 L355 0 C372 0 382 8 386 24 L479 345 L519 501 L522 501 L561 345 L655 24 C660 7 669 0 686 0 L791 0 C810 0 818 7 823 24 L1006 676 C1011 694 1004 704 988 704 L893 704 C877 704 868 697 864 682 L775 343 L733 163 L730 163 L685 345 L594 682 C590 697 582 704 563 704 L478 704 Z " />
<glyph glyph-name="X" unicode="X" horiz-adv-x="662" d="M331 248 L483 22 C493 8 501 0 519 0 L617 0 C634 0 641 16 631 30 L406 356 L625 675 C635 689 628 704 612 704 L513 704 C495 704 486 696 478 683 L331 462 L184 683 C176 695 167 704 150 704 L50 704 C34 704 26 689 36 675 L254 355 L31 30 C21 15 28 0 44 0 L142 0 C160 0 169 8 178 22 L331 248 Z " />
<glyph glyph-name="Y" unicode="Y" horiz-adv-x="663" d="M401 259 L636 675 C644 689 637 704 619 704 L523 704 C504 704 497 695 490 682 L378 470 L332 372 L331 372 L284 470 L173 682 C166 696 158 704 140 704 L44 704 C26 704 19 689 27 675 L261 259 L261 25 C261 7 269 0 286 0 L377 0 C393 0 401 7 401 25 L401 259 Z " />
<glyph glyph-name="Z" unicode="Z" horiz-adv-x="611" d="M52 25 C52 7 60 0 76 0 L532 0 C549 0 556 7 556 25 L556 102 C556 118 549 126 532 126 L216 126 L535 568 C543 579 549 591 549 607 L549 680 C549 697 542 704 525 704 L84 704 C68 704 60 697 60 680 L60 604 C60 587 68 579 84 579 L387 579 L67 138 C59 126 52 114 52 98 L52 25 Z " />
<glyph glyph-name="bracketleft" unicode="&#x5b;" horiz-adv-x="375" d="M332 -37 C332 -21 326 -14 310 -14 L224 -14 L224 608 L310 608 C326 608 332 616 332 632 L332 682 C332 698 326 704 310 704 L126 704 C110 704 103 698 103 682 L103 -87 C103 -103 110 -110 126 -110 L310 -110 C326 -110 332 -103 332 -87 L332 -37 Z " />
<glyph glyph-name="backslash" unicode="&#x5c;" horiz-adv-x="452" d="M138 683 C132 696 126 704 107 704 L30 704 C10 704 4 693 12 676 L313 21 C319 9 326 0 345 0 L422 0 C441 0 447 12 440 28 L138 683 Z " />
<glyph glyph-name="bracketright" unicode="&#x5d;" horiz-adv-x="377" d="M44 -87 C44 -103 52 -110 68 -110 L251 -110 C266 -110 274 -103 274 -87 L274 682 C274 698 266 704 251 704 L68 704 C52 704 44 698 44 682 L44 632 C44 616 52 608 68 608 L153 608 L153 -14 L68 -14 C52 -14 44 -21 44 -37 L44 -87 Z " />
<glyph glyph-name="asciicircum" unicode="&#x5e;" horiz-adv-x="599" d="M263 704 C245 704 238 698 232 686 L55 370 C45 353 53 340 71 340 L144 340 C161 340 168 346 176 360 L299 584 L423 360 C431 346 438 340 455 340 L528 340 C546 340 553 353 544 370 L367 686 C361 698 353 704 336 704 L263 704 Z " />
<glyph glyph-name="underscore" unicode="&#x5f;" horiz-adv-x="515" d="M473 -112 C488 -112 496 -104 496 -89 L496 -60 C496 -45 488 -37 473 -37 L42 -37 C27 -37 19 -45 19 -60 L19 -89 C19 -104 27 -112 42 -112 L473 -112 Z " />
<glyph glyph-name="grave" unicode="&#x60;" horiz-adv-x="355" d="M208 698 C203 708 196 714 181 714 L80 714 C64 714 62 698 71 689 L160 603 C169 594 176 591 190 591 L240 591 C253 591 259 600 254 610 L208 698 Z " />
<glyph glyph-name="a" unicode="a" horiz-adv-x="575" d="M513 349 C513 473 443 539 287 539 C213 539 136 522 87 501 C75 495 69 486 73 473 L91 418 C96 404 105 399 120 404 C161 420 210 434 270 434 C350 434 384 405 384 343 L384 320 C177 316 35 291 35 144 C35 45 103 -9 206 -9 C317 -9 366 39 388 73 L392 19 C393 8 399 0 415 0 L489 0 C505 0 513 7 513 23 L513 349 Z M384 199 C384 134 341 82 249 82 C192 82 161 111 161 152 C161 226 251 238 384 242 L384 199 Z " />
<glyph glyph-name="b" unicode="b" horiz-adv-x="636" d="M202 264 C202 379 248 432 331 432 C414 432 457 385 457 264 C457 143 414 96 331 96 C248 96 202 149 202 264 L202 264 Z M198 74 C228 17 298 -11 369 -11 C508 -11 592 79 592 264 C592 448 508 539 369 539 C299 539 231 510 202 456 L202 682 C202 698 195 704 179 704 L93 704 C77 704 70 698 70 682 L70 23 C70 7 77 0 93 0 L172 0 C188 0 194 8 195 19 L198 74 Z " />
<glyph glyph-name="c" unicode="c" horiz-adv-x="514" d="M43 265 C43 84 151 -11 312 -11 C374 -11 436 8 465 26 C479 35 485 43 479 57 L455 112 C450 125 440 130 424 123 C399 110 363 99 321 99 C235 99 178 151 178 265 C178 378 234 428 323 428 C362 428 392 420 417 409 C434 402 444 407 450 420 L474 474 C480 488 475 497 461 505 C432 523 374 539 307 539 C150 539 43 446 43 265 L43 265 Z " />
<glyph glyph-name="d" unicode="d" horiz-adv-x="636" d="M435 264 C435 149 388 96 305 96 C223 96 179 143 179 264 C179 385 223 432 305 432 C388 432 435 379 435 264 L435 264 Z M441 19 C442 8 449 0 465 0 L543 0 C559 0 567 7 567 23 L567 682 C567 698 559 704 543 704 L457 704 C441 704 434 698 434 682 L434 456 C406 510 337 539 267 539 C128 539 44 448 44 264 C44 79 128 -11 267 -11 C338 -11 409 17 438 74 L441 19 Z " />
<glyph glyph-name="e" unicode="e" horiz-adv-x="582" d="M336 86 C243 86 184 136 174 215 L515 215 C532 215 539 222 539 239 L539 288 C539 436 454 539 298 539 C143 539 43 440 43 263 C43 90 148 -12 325 -12 C397 -12 457 6 499 27 C513 34 518 42 514 56 L497 103 C492 117 482 124 467 117 C429 98 387 86 336 86 L336 86 Z M300 441 C379 441 419 388 419 305 L419 299 L171 299 C178 395 222 441 300 441 L300 441 Z " />
<glyph glyph-name="f" unicode="f" horiz-adv-x="372" d="M227 517 L227 550 C227 594 246 612 287 612 C305 612 319 609 334 607 C348 605 354 615 354 629 L354 680 C354 695 347 699 335 703 C316 709 288 713 258 713 C153 713 96 666 96 559 L96 517 L42 517 C27 517 20 510 20 494 L20 438 C20 422 27 415 42 415 L96 415 L96 21 C96 6 104 0 120 0 L204 0 C220 0 227 6 227 21 L227 415 L328 415 C344 415 351 422 351 438 L351 494 C351 510 344 517 328 517 L227 517 Z " />
<glyph glyph-name="g" unicode="g" horiz-adv-x="604" d="M407 302 C407 205 364 154 291 154 C220 154 177 195 177 297 C177 400 220 440 291 440 C364 440 407 397 407 302 L407 302 Z M537 504 C537 520 530 527 514 527 L438 527 C422 527 415 519 414 507 L411 460 C384 507 322 538 253 538 C133 538 45 466 45 297 C45 128 137 60 258 60 C324 60 385 87 412 138 L412 95 C412 22 365 -20 274 -20 C220 -20 171 -9 131 5 C115 10 107 4 103 -10 L86 -64 C81 -78 88 -85 100 -91 C144 -112 218 -122 284 -122 C443 -122 537 -49 537 89 L537 504 Z " />
<glyph glyph-name="h" unicode="h" horiz-adv-x="614" d="M551 343 C551 465 494 539 369 539 C276 539 224 496 202 457 L202 682 C202 698 195 704 179 704 L93 704 C77 704 70 698 70 682 L70 23 C70 7 77 0 93 0 L179 0 C195 0 202 7 202 23 L202 304 C202 373 243 425 321 425 C392 425 419 388 419 320 L419 23 C419 7 426 0 442 0 L528 0 C544 0 551 7 551 23 L551 343 Z " />
<glyph glyph-name="i" unicode="i" horiz-adv-x="271" d="M202 504 C202 520 195 527 179 527 L92 527 C76 527 69 520 69 504 L69 23 C69 7 76 0 92 0 L179 0 C195 0 202 7 202 23 L202 504 Z M202 679 C202 695 196 702 180 702 L91 702 C75 702 69 695 69 679 L69 609 C69 593 75 586 91 586 L180 586 C196 586 202 593 202 609 L202 679 Z " />
<glyph glyph-name="j" unicode="j" horiz-adv-x="287" d="M86 47 C86 5 72 -11 43 -11 C29 -11 18 -10 4 -8 C-9 -7 -17 -12 -17 -27 L-17 -85 C-17 -100 -9 -105 4 -109 C23 -114 49 -116 77 -116 C177 -116 218 -72 218 34 L218 504 C218 520 211 527 195 527 L108 527 C93 527 86 520 86 504 L86 47 Z M219 679 C219 695 212 702 196 702 L108 702 C92 702 85 695 85 679 L85 609 C85 593 92 586 108 586 L196 586 C212 586 219 593 219 609 L219 679 Z " />
<glyph glyph-name="k" unicode="k" horiz-adv-x="544" d="M516 0 C532 0 539 16 527 29 L293 291 L516 498 C529 511 522 527 506 527 L405 527 C388 527 380 519 371 511 L202 355 L202 682 C202 698 195 704 179 704 L93 704 C77 704 70 698 70 682 L70 23 C70 7 77 0 93 0 L179 0 C195 0 202 7 202 23 L202 218 L379 18 C387 8 397 0 414 0 L516 0 Z " />
<glyph glyph-name="l" unicode="l" horiz-adv-x="269" d="M201 682 C201 698 194 704 178 704 L91 704 C75 704 69 698 69 682 L69 23 C69 7 75 0 91 0 L178 0 C194 0 201 7 201 23 L201 682 Z " />
<glyph glyph-name="m" unicode="m" horiz-adv-x="914" d="M524 315 C524 377 564 426 633 426 C697 426 719 389 719 324 L719 23 C719 7 727 0 742 0 L828 0 C844 0 851 7 851 23 L851 347 C851 467 798 539 683 539 C591 539 538 499 509 450 C486 508 438 539 357 539 C270 539 219 494 198 455 L193 507 C192 519 185 527 169 527 L90 527 C74 527 66 520 66 504 L66 23 C66 7 74 0 90 0 L175 0 C191 0 198 7 198 23 L198 309 C198 377 238 426 309 426 C372 426 393 389 393 325 L393 23 C393 7 401 0 416 0 L501 0 C517 0 524 7 524 23 L524 315 Z " />
<glyph glyph-name="n" unicode="n" horiz-adv-x="608" d="M545 344 C545 465 489 539 364 539 C269 539 220 495 196 455 L191 507 C190 519 183 527 168 527 L89 527 C73 527 66 520 66 504 L66 23 C66 7 73 0 89 0 L175 0 C191 0 198 7 198 23 L198 304 C198 377 239 425 315 425 C387 425 412 388 412 320 L412 23 C412 7 420 0 436 0 L522 0 C538 0 545 7 545 23 L545 344 Z " />
<glyph glyph-name="o" unicode="o" horiz-adv-x="607" d="M303 -11 C461 -11 564 83 564 264 C564 445 461 539 303 539 C145 539 43 445 43 264 C43 83 145 -11 303 -11 L303 -11 Z M303 95 C223 95 178 148 178 264 C178 380 223 433 303 433 C383 433 429 380 429 264 C429 148 383 95 303 95 L303 95 Z " />
<glyph glyph-name="p" unicode="p" horiz-adv-x="633" d="M198 264 C198 379 246 432 328 432 C411 432 454 385 454 264 C454 143 411 96 328 96 C246 96 198 149 198 264 L198 264 Z M192 507 C191 519 184 527 168 527 L90 527 C74 527 66 520 66 504 L66 -87 C66 -103 74 -110 90 -110 L176 -110 C192 -110 199 -103 199 -87 L199 71 C228 14 296 -11 366 -11 C505 -11 589 79 589 264 C589 449 505 539 366 539 C295 539 224 507 195 453 L192 507 Z " />
<glyph glyph-name="q" unicode="q" horiz-adv-x="633" d="M435 264 C435 149 388 96 305 96 C223 96 179 143 179 264 C179 385 223 432 305 432 C388 432 435 379 435 264 L435 264 Z M438 453 C409 507 338 539 267 539 C128 539 44 448 44 264 C44 79 128 -11 267 -11 C337 -11 406 13 434 70 L434 -87 C434 -103 441 -110 457 -110 L543 -110 C559 -110 567 -103 567 -87 L567 504 C567 520 559 527 543 527 L465 527 C449 527 442 519 441 507 L438 453 Z " />
<glyph glyph-name="r" unicode="r" horiz-adv-x="404" d="M90 527 C74 527 66 520 66 504 L66 23 C66 7 74 0 90 0 L176 0 C192 0 199 7 199 23 L199 253 C199 331 250 402 326 402 C341 402 348 400 358 400 C370 400 377 403 377 418 L377 511 C377 527 371 531 357 531 C272 531 217 471 198 427 L193 506 C192 519 185 527 169 527 L90 527 Z " />
<glyph glyph-name="s" unicode="s" horiz-adv-x="477" d="M439 142 C439 241 365 276 276 308 C210 331 168 346 168 387 C168 424 196 439 258 439 C304 439 340 429 372 419 C388 414 396 420 400 434 L415 484 C420 498 414 505 401 511 C363 527 303 539 238 539 C109 539 38 488 38 390 C38 274 123 251 202 224 C268 201 309 185 309 145 C309 103 274 89 204 89 C155 89 113 99 79 111 C63 116 55 110 51 96 L36 44 C32 31 37 23 51 18 C93 1 156 -11 224 -11 C344 -11 439 26 439 142 L439 142 Z " />
<glyph glyph-name="t" unicode="t" horiz-adv-x="381" d="M330 415 C346 415 353 422 353 438 L353 494 C353 510 346 517 330 517 L219 517 L219 640 C219 655 211 661 195 661 L115 661 C99 661 92 655 92 640 L92 517 L35 517 C19 517 11 510 11 494 L11 438 C11 422 19 415 35 415 L90 415 L90 158 C90 37 138 -8 254 -8 C286 -8 320 -3 338 3 C351 7 358 12 357 26 L351 82 C350 96 344 103 331 102 C317 100 307 97 289 97 C234 97 220 115 220 172 L220 415 L330 415 Z " />
<glyph glyph-name="u" unicode="u" horiz-adv-x="601" d="M60 180 C60 55 117 -11 241 -11 C334 -11 381 33 404 73 L408 19 C409 8 416 0 432 0 L512 0 C527 0 534 7 534 23 L534 504 C534 520 527 527 512 527 L425 527 C410 527 402 520 402 504 L402 219 C402 147 357 101 285 101 C214 101 192 141 192 205 L192 504 C192 520 186 527 170 527 L84 527 C68 527 60 520 60 504 L60 180 Z " />
<glyph glyph-name="v" unicode="v" horiz-adv-x="542" d="M320 0 C335 0 344 6 349 19 L522 501 C527 516 521 527 505 527 L415 527 C399 527 392 519 388 505 L314 278 L273 132 L270 132 L229 278 L154 505 C150 519 143 527 127 527 L39 527 C22 527 16 516 21 501 L193 19 C198 6 207 0 222 0 L320 0 Z " />
<glyph glyph-name="w" unicode="w" horiz-adv-x="851" d="M391 527 C375 527 368 518 365 507 L284 238 L258 134 L256 134 L234 238 L162 505 C158 519 150 527 135 527 L46 527 C30 527 24 516 28 501 L172 22 C176 8 185 0 201 0 L290 0 C306 0 315 7 320 23 L395 263 L424 372 L427 372 L456 263 L532 23 C537 7 546 0 562 0 L651 0 C666 0 676 8 680 22 L823 501 C828 516 822 527 805 527 L716 527 C700 527 693 519 689 505 L617 238 L595 134 L593 134 L568 238 L485 507 C482 518 476 527 460 527 L391 527 Z " />
<glyph glyph-name="x" unicode="x" horiz-adv-x="540" d="M165 508 C157 519 149 527 131 527 L40 527 C24 527 19 513 29 499 L200 267 L25 28 C14 13 20 0 35 0 L125 0 C142 0 151 7 159 18 L269 177 L378 18 C385 7 395 0 411 0 L504 0 C519 0 525 15 515 28 L339 267 L509 499 C519 513 513 527 498 527 L410 527 C393 527 384 519 376 508 L271 357 L165 508 Z " />
<glyph glyph-name="y" unicode="y" horiz-adv-x="538" d="M519 501 C524 516 517 527 500 527 L412 527 C397 527 389 519 385 505 L320 271 L283 125 L281 125 L237 271 L156 505 C151 519 144 527 129 527 L39 527 C22 527 16 516 22 501 L198 56 C214 16 197 -13 145 -13 C116 -13 101 -8 88 -7 C75 -6 69 -11 67 -25 L60 -82 C58 -96 67 -101 80 -105 C98 -110 138 -116 175 -116 C296 -116 331 -72 367 44 L519 501 Z " />
<glyph glyph-name="z" unicode="z" horiz-adv-x="514" d="M467 504 C467 520 459 527 443 527 L74 527 C59 527 51 520 51 504 L51 441 C51 425 59 418 74 418 L307 418 L54 100 C49 94 44 85 44 71 L44 23 C44 7 51 0 67 0 L445 0 C461 0 468 7 468 23 L468 86 C468 102 461 108 445 108 L204 108 L454 423 C462 432 467 442 467 456 L467 504 Z " />
<glyph glyph-name="braceleft" unicode="&#x7b;" horiz-adv-x="375" d="M31 266 C31 251 39 244 54 244 L70 244 C111 244 128 199 128 89 C128 -66 160 -110 280 -110 L323 -110 C339 -110 347 -103 347 -87 L347 -37 C347 -21 339 -13 323 -13 L305 -13 C255 -13 248 23 248 107 C248 224 219 283 164 297 C219 312 248 370 248 488 C248 572 255 608 305 608 L323 608 C339 608 347 615 347 631 L347 682 C347 698 339 704 323 704 L280 704 C160 704 128 661 128 506 C128 396 111 351 70 351 L54 351 C39 351 31 344 31 328 L31 266 Z " />
<glyph glyph-name="bar" unicode="&#x7c;" horiz-adv-x="306" d="M210 701 C210 716 204 724 188 724 L119 724 C103 724 95 716 95 701 L95 -87 C95 -103 103 -110 119 -110 L188 -110 C204 -110 210 -103 210 -87 L210 701 Z " />
<glyph glyph-name="braceright" unicode="&#x7d;" horiz-adv-x="375" d="M344 328 C344 344 337 351 321 351 L305 351 C265 351 248 396 248 506 C248 661 215 704 96 704 L53 704 C36 704 29 698 29 682 L29 631 C29 615 36 608 53 608 L70 608 C121 608 128 572 128 488 C128 370 157 312 212 297 C157 283 128 224 128 107 C128 23 121 -13 70 -13 L53 -13 C36 -13 29 -21 29 -37 L29 -87 C29 -103 36 -110 53 -110 L96 -110 C215 -110 248 -66 248 88 C248 199 265 244 305 244 L321 244 C337 244 344 251 344 266 L344 328 Z " />
<glyph glyph-name="asciitilde" unicode="&#x7e;" horiz-adv-x="599" d="M176 446 C112 446 70 396 64 326 C63 309 68 301 79 296 L125 274 C139 267 151 271 155 282 C156 287 160 297 162 300 C173 322 189 332 210 332 C227 332 249 325 275 314 L321 293 C362 276 385 268 422 268 C487 268 527 318 535 385 C537 405 531 413 520 418 L474 441 C460 448 448 443 444 432 C442 428 439 417 437 414 C426 392 411 383 390 383 C373 383 353 389 327 400 L278 421 C238 438 214 446 176 446 L176 446 Z " />
<glyph glyph-name="uni00A0" unicode="&#xa0;" horiz-adv-x="292" d="" />
<glyph glyph-name="exclamdown" unicode="&#xa1;" horiz-adv-x="307" d="M225 504 C225 519 218 527 202 527 L104 527 C89 527 81 519 81 504 L81 407 C81 392 90 384 106 384 L201 384 C217 384 225 392 225 407 L225 504 Z M122 312 C106 312 100 304 99 290 L74 -110 C73 -126 81 -134 98 -134 L209 -134 C226 -134 233 -126 232 -110 L208 290 C207 304 200 312 184 312 L122 312 Z " />
<glyph glyph-name="cent" unicode="&#xa2;" horiz-adv-x="535" d="M44 263 C44 100 134 8 273 -8 L273 -77 C273 -93 280 -100 296 -100 L339 -100 C354 -100 362 -93 362 -77 L362 -8 C416 -4 461 11 484 26 C499 35 503 42 497 57 L473 110 C467 124 457 129 441 122 C416 110 386 99 334 99 C237 99 179 150 179 263 C179 377 239 428 333 428 C382 428 411 419 436 408 C452 401 462 406 468 420 L492 474 C498 488 494 495 480 504 C457 517 416 532 362 536 L362 604 C362 620 354 627 339 627 L296 627 C280 627 273 620 273 604 L273 537 C135 521 44 426 44 263 L44 263 Z " />
<glyph glyph-name="sterling" unicode="&#xa3;" horiz-adv-x="670" d="M159 318 C171 295 181 273 181 245 C181 198 153 143 56 92 C44 84 44 73 51 63 L95 -2 C102 -12 113 -10 127 -4 C167 13 216 20 263 20 C348 20 392 -7 486 -7 C605 -7 636 63 636 174 C636 197 625 203 609 203 L549 203 C533 203 524 197 523 182 C521 135 507 105 447 105 C389 105 353 121 292 121 C263 121 239 118 213 111 C271 141 303 188 303 243 C303 269 294 294 282 318 L444 318 C456 318 462 324 462 336 L462 371 C462 384 456 390 444 390 L256 390 C239 426 221 461 221 497 C221 555 263 603 357 603 C438 603 479 569 479 525 C479 514 477 508 477 498 C476 487 482 481 497 481 L576 481 C595 481 599 502 599 527 C599 637 525 716 352 716 C164 716 86 617 86 508 C86 462 105 425 125 390 L62 390 C49 390 43 384 43 371 L43 336 C43 324 49 318 62 318 L159 318 Z " />
<glyph glyph-name="currency" unicode="&#xa4;" horiz-adv-x="627" d="M89 108 C79 99 80 91 89 82 L111 59 C120 49 128 50 138 59 L186 108 C221 83 263 73 313 73 C364 73 406 83 441 108 L490 59 C499 50 506 50 516 59 L539 82 C548 91 548 99 539 108 L490 155 C517 189 532 233 532 283 C532 333 517 377 490 411 L539 459 C548 468 547 477 539 485 L516 508 C506 517 499 517 490 508 L441 459 C406 483 364 494 313 494 C263 494 221 483 186 459 L138 508 C129 518 120 517 111 508 L89 485 C80 476 80 469 89 459 L135 412 C108 378 94 334 94 283 C94 233 108 188 135 154 L89 108 Z M438 283 C438 208 390 161 313 161 C236 161 188 208 188 283 C188 359 235 406 313 406 C390 406 438 359 438 283 L438 283 Z " />
<glyph glyph-name="yen" unicode="&#xa5;" horiz-adv-x="652" d="M396 165 L566 165 C579 165 585 171 585 184 L585 218 C585 230 579 236 566 236 L396 236 L396 256 L429 313 L566 313 C579 313 585 319 585 332 L585 366 C585 378 579 384 566 384 L465 384 L629 675 C637 690 630 704 612 704 L517 704 C498 704 491 697 484 682 L328 377 L325 377 L169 682 C162 696 154 704 136 704 L40 704 C22 704 15 690 23 675 L187 384 L86 384 C73 384 68 378 68 366 L68 332 C68 319 73 313 86 313 L223 313 L256 256 L256 236 L86 236 C73 236 68 230 68 218 L68 184 C68 171 73 165 86 165 L256 165 L256 25 C256 7 264 0 280 0 L371 0 C389 0 396 7 396 25 L396 165 Z " />
<glyph glyph-name="brokenbar" unicode="&#xa6;" horiz-adv-x="306" d="M210 701 C210 716 204 724 188 724 L119 724 C103 724 95 716 95 701 L95 413 C95 397 103 390 119 390 L188 390 C204 390 210 397 210 413 L210 701 Z M210 201 C210 216 204 224 188 224 L119 224 C103 224 95 216 95 201 L95 -87 C95 -103 103 -110 119 -110 L188 -110 C204 -110 210 -103 210 -87 L210 201 Z " />
<glyph glyph-name="section" unicode="&#xa7;" horiz-adv-x="687" d="M74 316 C75 218 154 192 293 141 C361 116 449 96 449 46 C449 8 404 -14 301 -14 C232 -14 166 -4 142 2 C126 6 115 1 113 -13 L105 -65 C103 -81 107 -90 123 -95 C151 -105 219 -118 310 -118 C488 -118 582 -63 582 37 C582 90 543 130 489 158 C565 180 609 219 609 277 C609 372 520 412 391 458 C296 493 241 511 241 550 C241 590 272 611 369 611 C442 611 491 601 520 593 C536 589 546 594 549 608 L558 660 C561 676 555 684 540 689 C504 700 440 715 347 715 C180 715 108 666 108 563 C108 505 145 473 191 443 C115 429 74 373 74 316 L74 316 Z M288 387 C405 350 481 323 481 272 C480 245 445 219 392 212 C269 253 203 272 203 321 C203 355 233 380 288 387 L288 387 Z " />
<glyph glyph-name="dieresis" unicode="&#xa8;" horiz-adv-x="355" d="M137 679 C137 695 130 702 114 702 L43 702 C27 702 19 695 19 679 L19 613 C19 598 27 591 43 591 L114 591 C130 591 137 598 137 613 L137 679 Z M335 679 C335 695 328 702 312 702 L241 702 C225 702 217 695 217 679 L217 613 C217 598 225 591 241 591 L312 591 C328 591 335 598 335 613 L335 679 Z " />
<glyph glyph-name="copyright" unicode="&#xa9;" horiz-adv-x="868" d="M460 236 C392 236 344 277 344 356 C344 436 391 476 461 476 C494 476 520 467 539 458 C551 452 558 456 563 467 L582 514 C586 524 584 531 573 537 C548 552 497 566 448 566 C323 566 233 498 233 356 C233 215 323 146 447 146 C497 146 551 161 576 177 C586 183 590 187 585 199 L566 245 C562 255 553 259 542 254 C523 245 496 236 460 236 L460 236 Z M127 352 C127 515 230 649 434 649 C637 649 740 515 740 352 C740 190 637 56 434 56 C230 56 127 190 127 352 L127 352 Z M56 352 C56 158 187 -11 434 -11 C680 -11 812 158 812 352 C812 547 680 716 434 716 C187 716 56 547 56 352 L56 352 Z " />
<glyph glyph-name="ordfeminine" unicode="&#xaa;" horiz-adv-x="471" d="M312 649 C312 599 277 560 202 560 C156 560 134 580 134 612 C134 668 201 681 312 681 L312 649 Z M318 509 C319 498 325 489 342 489 L398 489 C414 489 421 497 421 512 L421 776 C421 873 362 926 233 926 C169 926 111 911 69 893 C58 888 51 883 56 869 L72 824 C76 811 85 806 100 812 C134 825 177 838 223 838 C288 838 312 818 312 770 L312 748 C152 746 26 732 26 605 C26 527 83 483 169 483 C254 483 297 515 315 539 L318 509 Z " />
<glyph glyph-name="guillemotleft" unicode="&#xab;" horiz-adv-x="490" d="M33 283 C33 280 33 277 36 272 L119 134 C125 123 131 118 147 118 L220 118 C236 118 241 129 233 142 L148 283 L233 425 C241 438 236 448 220 448 L147 448 C131 448 125 443 119 432 L36 294 C33 289 33 287 33 283 L33 283 Z M237 282 C237 280 238 276 241 272 L323 134 C330 123 336 118 352 118 L425 118 C441 118 446 128 438 142 L353 283 L438 425 C446 438 441 448 425 448 L352 448 C336 448 329 443 323 432 L241 294 C238 289 237 285 237 282 L237 282 Z " />
<glyph glyph-name="logicalnot" unicode="&#xac;" horiz-adv-x="616" d="M541 381 C541 397 534 404 518 404 L77 404 C62 404 54 397 54 381 L54 316 C54 300 62 293 77 293 L410 293 L410 145 C410 129 418 122 434 122 L518 122 C534 122 541 129 541 145 L541 381 Z " />
<glyph glyph-name="uni00AD" unicode="&#xad;" horiz-adv-x="398" d="M335 218 C350 218 358 225 358 240 L358 303 C358 318 350 325 335 325 L63 325 C47 325 40 318 40 303 L40 240 C40 225 47 218 63 218 L335 218 Z " />
<glyph glyph-name="registered" unicode="&#xae;" horiz-adv-x="469" d="M211 544 L211 601 L239 601 C268 601 280 593 280 572 C280 551 269 544 237 544 L211 544 Z M235 716 C113 716 57 633 57 539 C57 446 113 362 235 362 C356 362 411 446 411 539 C411 633 356 716 235 716 L235 716 Z M235 397 C135 397 95 461 95 539 C95 617 135 682 235 682 C334 682 374 617 374 539 C374 461 334 397 235 397 L235 397 Z M162 453 C162 447 166 443 172 443 L201 443 C207 443 211 447 211 453 L211 507 L237 507 L275 450 C279 445 282 443 288 443 L321 443 C326 443 330 449 326 454 L284 513 C309 520 329 537 329 572 C329 619 295 640 242 640 L172 640 C166 640 162 637 162 630 L162 453 Z " />
<glyph glyph-name="macron" unicode="&#xaf;" horiz-adv-x="355" d="M326 596 C342 596 348 602 348 618 L348 652 C348 667 342 674 326 674 L28 674 C14 674 7 667 7 652 L7 618 C7 602 14 596 28 596 L326 596 Z " />
<glyph glyph-name="degree" unicode="&#xb0;" horiz-adv-x="378" d="M189 491 C142 491 110 522 110 569 C110 615 142 647 189 647 C236 647 269 615 269 569 C269 522 236 491 189 491 L189 491 Z M189 424 C278 424 341 484 341 569 C341 654 278 713 189 713 C100 713 38 654 38 569 C38 484 100 424 189 424 L189 424 Z " />
<glyph glyph-name="plusminus" unicode="&#xb1;" horiz-adv-x="599" d="M520 333 C535 333 543 340 543 355 L543 417 C543 432 535 439 520 439 L359 439 L359 591 C359 606 352 614 337 614 L262 614 C247 614 239 606 239 591 L239 439 L79 439 C63 439 56 432 56 417 L56 355 C56 340 63 333 79 333 L239 333 L239 179 C239 164 247 157 262 157 L337 157 C352 157 359 164 359 179 L359 333 L520 333 Z M520 0 C535 0 543 7 543 23 L543 64 C543 79 535 86 520 86 L79 86 C63 86 56 79 56 64 L56 23 C56 7 63 0 79 0 L520 0 Z " />
<glyph glyph-name="two.superior" unicode="&#xb2;" horiz-adv-x="430" d="M141 792 C141 818 156 841 205 841 C256 841 271 817 271 786 C271 703 148 623 63 569 C52 562 46 558 46 547 L46 512 C46 496 54 489 70 489 L362 489 C378 489 386 496 386 512 L386 550 C386 565 378 573 362 573 L197 573 C272 617 375 696 375 792 C375 863 331 925 209 925 C92 925 45 868 45 796 C45 788 46 772 48 763 C51 752 57 746 71 746 L121 746 C136 746 142 752 142 765 C142 776 141 783 141 792 L141 792 Z " />
<glyph glyph-name="three.superior" unicode="&#xb3;" horiz-adv-x="430" d="M200 669 C246 669 270 655 270 620 C270 586 243 567 192 567 C145 567 110 579 87 589 C72 595 61 589 56 576 L41 538 C36 524 42 519 56 512 C82 499 137 483 205 483 C311 483 374 529 374 617 C374 673 343 701 307 717 C339 731 366 761 366 809 C366 890 296 925 201 925 C135 925 88 912 57 897 C45 892 41 884 45 872 L60 833 C65 820 73 815 90 822 C114 832 148 842 186 842 C233 842 263 827 263 795 C263 762 240 747 199 747 L150 747 C135 747 127 739 127 723 L127 693 C127 677 135 669 150 669 L200 669 Z " />
<glyph glyph-name="acute" unicode="&#xb4;" horiz-adv-x="355" d="M102 610 C97 600 102 591 115 591 L165 591 C179 591 186 594 195 603 L283 689 C293 699 291 714 275 714 L174 714 C159 714 152 708 147 698 L102 610 Z " />
<glyph glyph-name="mu" unicode="&#xb5;" horiz-adv-x="604" d="M541 504 C541 520 534 527 518 527 L432 527 C416 527 408 520 408 504 L408 204 C408 140 387 100 315 100 C245 100 199 146 199 218 L199 504 C199 520 192 527 176 527 L90 527 C74 527 66 520 66 504 L66 -87 C66 -103 74 -110 90 -110 L175 -110 C191 -110 199 -104 199 -88 L198 72 C220 32 268 -12 360 -12 C485 -12 541 54 541 179 L541 504 Z " />
<glyph glyph-name="paragraph" unicode="&#xb6;" horiz-adv-x="548" d="M509 630 C524 630 532 637 532 653 L532 682 C532 698 524 704 509 704 L292 704 C148 704 46 630 46 484 C46 337 154 262 295 262 L327 262 L327 20 C327 -20 311 -40 283 -40 C269 -40 256 -35 242 -35 C229 -35 224 -40 224 -50 L222 -83 C222 -93 228 -99 235 -102 C255 -111 274 -115 305 -115 C389 -115 420 -73 420 10 L420 577 C420 618 433 630 472 630 L509 630 Z " />
<glyph glyph-name="periodcentered" unicode="&#xb7;" horiz-adv-x="248" d="M55 224 C55 208 62 201 78 201 L170 201 C186 201 193 208 193 224 L193 320 C193 335 186 342 168 342 L80 342 C64 342 55 335 55 320 L55 224 Z " />
<glyph glyph-name="cedilla" unicode="&#xb8;" horiz-adv-x="355" d="M138 9 C191 -11 225 -36 225 -69 C225 -89 210 -100 177 -100 L147 -100 C137 -100 132 -105 132 -113 L132 -146 C132 -154 137 -159 146 -161 C158 -166 176 -167 193 -167 C263 -167 303 -141 303 -89 C303 -38 245 -2 186 9 L138 9 Z " />
<glyph glyph-name="one.superior" unicode="&#xb9;" horiz-adv-x="430" d="M193 806 L193 512 C193 497 200 489 216 489 L272 489 C288 489 296 497 296 512 L296 896 C296 911 288 919 272 919 L218 919 C202 919 194 915 188 911 L76 834 C68 828 64 819 71 807 L94 772 C101 761 113 760 126 767 L193 806 Z " />
<glyph glyph-name="ordmasculine" unicode="&#xba;" horiz-adv-x="490" d="M245 835 C308 835 344 794 344 704 C344 615 308 575 245 575 C182 575 146 615 146 704 C146 794 182 835 245 835 L245 835 Z M245 483 C376 483 459 557 459 704 C459 852 376 926 245 926 C114 926 31 852 31 704 C31 557 114 483 245 483 L245 483 Z " />
<glyph glyph-name="guillemotright" unicode="&#xbb;" horiz-adv-x="490" d="M457 283 C457 286 457 289 454 294 L371 432 C365 443 358 448 342 448 L269 448 C254 448 249 438 257 425 L342 283 L257 142 C249 128 254 118 269 118 L342 118 C358 118 364 123 371 134 L454 272 C457 277 457 280 457 283 L457 283 Z M252 283 C252 286 252 289 249 294 L166 432 C160 443 154 448 138 448 L65 448 C49 448 44 438 52 425 L137 283 L52 142 C44 128 49 118 65 118 L138 118 C154 118 159 123 166 134 L249 272 C252 277 252 280 252 283 L252 283 Z " />
<glyph glyph-name="onequarter" unicode="&#xbc;" horiz-adv-x="1008" d="M768 682 C777 697 771 704 756 704 L696 704 C680 704 672 698 663 683 L263 23 C254 7 260 0 276 0 L335 0 C352 0 359 7 368 22 L768 682 Z M193 591 L193 297 C193 282 200 274 216 274 L272 274 C288 274 296 282 296 297 L296 681 C296 696 288 704 272 704 L218 704 C202 704 194 700 188 696 L76 619 C68 613 64 604 71 592 L94 557 C101 546 113 545 126 552 L193 591 Z M821 318 L821 172 L697 172 L821 318 Z M963 88 C979 88 987 95 987 111 L987 149 C987 164 979 172 963 172 L923 172 L923 407 C923 422 916 430 899 430 L842 430 C829 430 824 425 817 417 L609 172 C603 166 600 159 600 150 L600 109 C600 95 607 88 623 88 L821 88 L821 23 C821 8 828 0 844 0 L899 0 C916 0 923 8 923 23 L923 88 L963 88 Z " />
<glyph glyph-name="onehalf" unicode="&#xbd;" horiz-adv-x="1008" d="M732 682 C741 697 735 704 720 704 L660 704 C644 704 636 698 627 683 L227 23 C218 7 224 0 240 0 L299 0 C316 0 323 7 332 22 L732 682 Z M193 591 L193 297 C193 282 200 274 216 274 L272 274 C288 274 296 282 296 297 L296 681 C296 696 288 704 272 704 L218 704 C202 704 194 700 188 696 L76 619 C68 613 64 604 71 592 L94 557 C101 546 113 545 126 552 L193 591 Z M723 303 C723 294 724 287 724 276 C724 263 718 257 703 257 L653 257 C639 257 633 263 630 274 C628 283 627 299 627 307 C627 379 674 436 791 436 C913 436 957 374 957 303 C957 207 854 128 779 84 L944 84 C960 84 968 76 968 61 L968 23 C968 7 960 0 944 0 L652 0 C636 0 628 7 628 23 L628 58 C628 69 634 73 645 80 C730 134 853 214 853 297 C853 328 838 352 787 352 C738 352 723 329 723 303 L723 303 Z " />
<glyph glyph-name="threequarters" unicode="&#xbe;" horiz-adv-x="1008" d="M784 682 C793 697 787 704 772 704 L712 704 C696 704 688 698 679 683 L279 23 C270 7 276 0 292 0 L351 0 C368 0 375 7 384 22 L784 682 Z M821 318 L821 172 L697 172 L821 318 Z M963 88 C979 88 987 95 987 111 L987 149 C987 164 979 172 963 172 L923 172 L923 407 C923 422 916 430 899 430 L842 430 C829 430 824 425 817 417 L609 172 C603 166 600 159 600 150 L600 109 C600 95 607 88 623 88 L821 88 L821 23 C821 8 828 0 844 0 L899 0 C916 0 923 8 923 23 L923 88 L963 88 Z M200 454 C246 454 270 440 270 405 C270 371 243 352 192 352 C145 352 110 364 87 374 C72 380 61 374 56 361 L41 323 C36 309 42 304 56 297 C82 284 137 268 205 268 C311 268 374 314 374 402 C374 458 343 486 307 502 C339 516 366 546 366 594 C366 675 296 710 201 710 C135 710 88 697 57 682 C45 677 41 669 45 657 L60 618 C65 605 73 600 90 607 C114 617 148 627 186 627 C233 627 263 612 263 580 C263 547 240 532 199 532 L150 532 C135 532 127 524 127 508 L127 478 C127 462 135 454 150 454 L200 454 Z " />
<glyph glyph-name="questiondown" unicode="&#xbf;" horiz-adv-x="493" d="M338 504 C338 519 330 527 315 527 L217 527 C201 527 194 519 194 504 L194 407 C194 392 202 384 218 384 L314 384 C329 384 338 392 338 406 L338 504 Z M201 290 C201 304 207 313 225 313 L303 313 C320 313 327 305 327 290 L327 273 C327 190 177 145 177 38 C177 -8 201 -28 286 -28 C338 -28 384 -14 421 1 C438 8 447 3 452 -11 L476 -73 C482 -88 476 -95 462 -102 C415 -125 341 -142 265 -142 C116 -142 41 -91 41 17 C41 170 201 202 201 273 L201 290 Z " />
<glyph glyph-name="Agrave" unicode="&#xc0;" horiz-adv-x="684" d="M242 271 L341 566 L344 566 L441 271 L242 271 Z M285 704 C266 704 260 696 255 681 L22 28 C16 12 24 0 41 0 L138 0 C154 0 161 7 166 22 L212 153 L472 153 L518 22 C523 7 530 0 547 0 L644 0 C660 0 668 12 662 28 L429 681 C424 696 418 704 399 704 L285 704 Z M335 863 C330 873 322 880 307 880 L206 880 C190 880 188 863 197 854 L286 769 C295 760 302 756 317 756 L366 756 C380 756 385 765 380 775 L335 863 Z " />
<glyph glyph-name="Aacute" unicode="&#xc1;" horiz-adv-x="684" d="M242 271 L341 566 L344 566 L441 271 L242 271 Z M285 704 C266 704 260 696 255 681 L22 28 C16 12 24 0 41 0 L138 0 C154 0 161 7 166 22 L212 153 L472 153 L518 22 C523 7 530 0 547 0 L644 0 C660 0 668 12 662 28 L429 681 C424 696 418 704 399 704 L285 704 Z M304 775 C299 765 304 756 318 756 L367 756 C382 756 389 760 398 769 L486 854 C496 864 494 880 478 880 L377 880 C361 880 354 873 349 863 L304 775 Z " />
<glyph glyph-name="Acircumflex" unicode="&#xc2;" horiz-adv-x="684" d="M242 271 L341 566 L344 566 L441 271 L242 271 Z M285 704 C266 704 260 696 255 681 L22 28 C16 12 24 0 41 0 L138 0 C154 0 161 7 166 22 L212 153 L472 153 L518 22 C523 7 530 0 547 0 L644 0 C660 0 668 12 662 28 L429 681 C424 696 418 704 399 704 L285 704 Z M409 768 C417 761 424 756 437 756 L484 756 C499 756 502 769 493 778 L401 873 C392 883 387 887 369 887 L315 887 C298 887 293 883 283 873 L192 778 C183 769 186 756 201 756 L247 756 C260 756 267 762 275 768 L343 820 L409 768 Z " />
<glyph glyph-name="Atilde" unicode="&#xc3;" horiz-adv-x="684" d="M242 271 L341 566 L344 566 L441 271 L242 271 Z M285 704 C266 704 260 696 255 681 L22 28 C16 12 24 0 41 0 L138 0 C154 0 161 7 166 22 L212 153 L472 153 L518 22 C523 7 530 0 547 0 L644 0 C660 0 668 12 662 28 L429 681 C424 696 418 704 399 704 L285 704 Z M521 834 C521 857 514 865 499 865 L469 865 C455 865 448 862 446 849 L445 841 C443 827 435 822 421 822 C407 822 389 827 368 835 L330 849 C301 859 271 867 245 867 C189 867 164 831 164 783 C164 760 171 754 185 754 L216 754 C229 754 237 758 239 771 L240 779 C241 791 250 795 264 795 C279 795 299 790 320 782 L355 769 C384 758 414 751 442 751 C497 751 521 786 521 834 L521 834 Z " />
<glyph glyph-name="Adieresis" unicode="&#xc4;" horiz-adv-x="684" d="M242 271 L341 566 L344 566 L441 271 L242 271 Z M285 704 C266 704 260 696 255 681 L22 28 C16 12 24 0 41 0 L138 0 C154 0 161 7 166 22 L212 153 L472 153 L518 22 C523 7 530 0 547 0 L644 0 C660 0 668 12 662 28 L429 681 C424 696 418 704 399 704 L285 704 Z M302 842 C302 858 294 865 278 865 L203 865 C188 865 181 858 181 842 L181 779 C181 763 188 756 203 756 L278 756 C294 756 302 763 302 779 L302 842 Z M504 842 C504 858 497 865 481 865 L406 865 C390 865 384 858 384 842 L384 779 C384 763 390 756 406 756 L481 756 C497 756 504 763 504 779 L504 842 Z " />
<glyph glyph-name="Aring" unicode="&#xc5;" horiz-adv-x="684" d="M228 756 C228 726 238 701 256 683 C255 682 255 682 255 681 L22 28 C16 12 24 0 41 0 L138 0 C154 0 161 7 166 22 L212 153 L472 153 L518 22 C523 7 530 0 547 0 L644 0 C660 0 668 12 662 28 L429 681 L428 682 C447 700 458 726 458 756 C458 819 410 861 343 861 C275 861 228 819 228 756 L228 756 Z M242 271 L341 566 L344 566 L441 271 L242 271 Z M287 756 C287 787 309 807 343 807 C376 807 397 787 397 756 C397 724 376 705 343 705 C309 705 287 724 287 756 L287 756 Z " />
<glyph glyph-name="AE" unicode="&#xc6;" horiz-adv-x="893" d="M807 301 C823 301 830 310 830 326 L830 392 C830 408 823 417 807 417 L565 417 L565 584 L819 584 C836 584 843 592 843 608 L843 680 C843 697 836 704 819 704 L348 704 C329 704 323 697 316 681 L9 28 C2 13 10 0 26 0 L126 0 C142 0 149 8 156 22 L216 147 L427 147 L427 25 C427 7 435 0 451 0 L824 0 C840 0 848 7 848 25 L848 97 C848 113 840 121 824 121 L565 121 L565 301 L807 301 Z M256 265 L404 585 L426 585 L426 265 L256 265 Z " />
<glyph glyph-name="Ccedilla" unicode="&#xc7;" horiz-adv-x="618" d="M396 113 C256 113 190 189 190 352 C190 516 256 592 391 592 C440 592 483 580 511 567 C530 559 539 564 545 579 L572 640 C578 654 572 662 558 671 C520 694 452 716 369 716 C170 716 48 595 48 352 C48 141 141 23 297 -4 C334 -23 355 -47 355 -74 C355 -93 340 -107 306 -107 L275 -107 C265 -107 260 -112 260 -121 L260 -156 C260 -164 265 -169 274 -172 C287 -177 305 -178 323 -178 C397 -178 437 -148 437 -96 C437 -60 411 -30 375 -11 C459 -10 528 12 565 36 C580 45 586 52 580 66 L552 128 C545 143 537 149 518 142 C490 127 447 113 396 113 L396 113 Z " />
<glyph glyph-name="Egrave" unicode="&#xc8;" horiz-adv-x="565" d="M479 301 C495 301 503 310 503 326 L503 392 C503 408 495 417 479 417 L212 417 L212 584 L492 584 C509 584 517 592 517 609 L517 680 C517 697 509 704 492 704 L98 704 C81 704 74 697 74 680 L74 25 C74 7 81 0 99 0 L496 0 C513 0 521 7 521 25 L521 96 C521 113 513 120 496 120 L212 120 L212 301 L479 301 Z M322 863 C317 873 309 880 294 880 L193 880 C177 880 175 863 184 854 L273 769 C282 760 289 756 304 756 L353 756 C367 756 372 765 367 775 L322 863 Z " />
<glyph glyph-name="Eacute" unicode="&#xc9;" horiz-adv-x="565" d="M479 301 C495 301 503 310 503 326 L503 392 C503 408 495 417 479 417 L212 417 L212 584 L492 584 C509 584 517 592 517 609 L517 680 C517 697 509 704 492 704 L98 704 C81 704 74 697 74 680 L74 25 C74 7 81 0 99 0 L496 0 C513 0 521 7 521 25 L521 96 C521 113 513 120 496 120 L212 120 L212 301 L479 301 Z M245 775 C240 765 245 756 259 756 L308 756 C323 756 330 760 339 769 L427 854 C437 864 435 880 419 880 L318 880 C302 880 295 873 290 863 L245 775 Z " />
<glyph glyph-name="Ecircumflex" unicode="&#xca;" horiz-adv-x="565" d="M479 301 C495 301 503 310 503 326 L503 392 C503 408 495 417 479 417 L212 417 L212 584 L492 584 C509 584 517 592 517 609 L517 680 C517 697 509 704 492 704 L98 704 C81 704 74 697 74 680 L74 25 C74 7 81 0 99 0 L496 0 C513 0 521 7 521 25 L521 96 C521 113 513 120 496 120 L212 120 L212 301 L479 301 Z M366 768 C374 761 381 756 394 756 L441 756 C456 756 459 769 450 778 L358 873 C349 883 344 887 326 887 L272 887 C255 887 250 883 240 873 L149 778 C140 769 143 756 158 756 L204 756 C217 756 224 762 232 768 L300 820 L366 768 Z " />
<glyph glyph-name="Edieresis" unicode="&#xcb;" horiz-adv-x="565" d="M479 301 C495 301 503 310 503 326 L503 392 C503 408 495 417 479 417 L212 417 L212 584 L492 584 C509 584 517 592 517 609 L517 680 C517 697 509 704 492 704 L98 704 C81 704 74 697 74 680 L74 25 C74 7 81 0 99 0 L496 0 C513 0 521 7 521 25 L521 96 C521 113 513 120 496 120 L212 120 L212 301 L479 301 Z M258 842 C258 858 250 865 234 865 L159 865 C144 865 137 858 137 842 L137 779 C137 763 144 756 159 756 L234 756 C250 756 258 763 258 779 L258 842 Z M460 842 C460 858 453 865 437 865 L362 865 C346 865 340 858 340 842 L340 779 C340 763 346 756 362 756 L437 756 C453 756 460 763 460 779 L460 842 Z " />
<glyph glyph-name="Igrave" unicode="&#xcc;" horiz-adv-x="299" d="M80 25 C80 7 87 0 104 0 L195 0 C211 0 220 7 220 25 L220 680 C220 697 211 704 195 704 L104 704 C87 704 80 697 80 680 L80 25 Z M151 863 C146 873 138 880 123 880 L22 880 C6 880 4 863 13 854 L102 769 C111 760 118 756 133 756 L182 756 C196 756 201 765 196 775 L151 863 Z " />
<glyph glyph-name="Iacute" unicode="&#xcd;" horiz-adv-x="299" d="M80 25 C80 7 87 0 104 0 L195 0 C211 0 220 7 220 25 L220 680 C220 697 211 704 195 704 L104 704 C87 704 80 697 80 680 L80 25 Z M107 775 C102 765 107 756 121 756 L170 756 C185 756 192 760 201 769 L289 854 C299 864 297 880 281 880 L180 880 C164 880 157 873 152 863 L107 775 Z " />
<glyph glyph-name="Icircumflex" unicode="&#xce;" horiz-adv-x="299" d="M80 25 C80 7 87 0 104 0 L195 0 C211 0 220 7 220 25 L220 680 C220 697 211 704 195 704 L104 704 C87 704 80 697 80 680 L80 25 Z M215 768 C223 761 230 756 243 756 L290 756 C305 756 308 769 299 778 L207 873 C198 883 193 887 175 887 L121 887 C104 887 99 883 89 873 L-2 778 C-11 769 -8 756 7 756 L53 756 C66 756 73 762 81 768 L149 820 L215 768 Z " />
<glyph glyph-name="Idieresis" unicode="&#xcf;" horiz-adv-x="299" d="M80 25 C80 7 87 0 104 0 L195 0 C211 0 220 7 220 25 L220 680 C220 697 211 704 195 704 L104 704 C87 704 80 697 80 680 L80 25 Z M108 842 C108 858 100 865 84 865 L9 865 C-6 865 -13 858 -13 842 L-13 779 C-13 763 -6 756 9 756 L84 756 C100 756 108 763 108 779 L108 842 Z M310 842 C310 858 303 865 287 865 L212 865 C196 865 190 858 190 842 L190 779 C190 763 196 756 212 756 L287 756 C303 756 310 763 310 779 L310 842 Z " />
<glyph glyph-name="Eth" unicode="&#xd0;" horiz-adv-x="689" d="M294 0 C520 0 642 94 642 352 C642 611 519 704 293 704 L100 704 C83 704 76 697 76 680 L76 393 L31 393 C19 393 13 386 13 374 L13 332 C13 320 19 314 31 314 L76 314 L76 25 C76 7 83 0 101 0 L294 0 Z M338 314 C351 314 356 320 356 332 L356 374 C356 386 351 393 338 393 L216 393 L216 580 L288 580 C425 580 500 534 500 352 C500 171 425 124 289 124 L216 124 L216 314 L338 314 Z " />
<glyph glyph-name="Ntilde" unicode="&#xd1;" horiz-adv-x="709" d="M635 681 C635 697 627 704 611 704 L524 704 C507 704 500 697 500 680 L500 234 L219 688 C212 700 205 704 187 704 L99 704 C81 704 74 697 74 680 L74 25 C74 7 81 0 99 0 L185 0 C202 0 209 7 209 25 L209 470 L490 17 C497 5 504 0 521 0 L611 0 C627 0 635 7 635 25 L635 681 Z M533 834 C533 857 526 865 511 865 L481 865 C467 865 460 862 458 849 L457 841 C455 827 447 822 433 822 C419 822 401 827 380 835 L342 849 C313 859 283 867 257 867 C201 867 176 831 176 783 C176 760 183 754 197 754 L228 754 C241 754 249 758 251 771 L252 779 C253 791 262 795 276 795 C291 795 311 790 332 782 L367 769 C396 758 426 751 454 751 C509 751 533 786 533 834 L533 834 Z " />
<glyph glyph-name="Ograve" unicode="&#xd2;" horiz-adv-x="718" d="M359 716 C163 716 47 595 47 352 C47 109 163 -11 358 -11 C555 -11 671 109 671 352 C671 595 555 716 359 716 L359 716 Z M359 111 C245 111 189 191 189 352 C189 513 245 594 359 594 C472 594 528 513 528 352 C528 191 472 111 359 111 L359 111 Z M362 863 C357 873 349 880 334 880 L233 880 C217 880 215 863 224 854 L313 769 C322 760 329 756 344 756 L393 756 C407 756 412 765 407 775 L362 863 Z " />
<glyph glyph-name="Oacute" unicode="&#xd3;" horiz-adv-x="718" d="M359 716 C163 716 47 595 47 352 C47 109 163 -11 358 -11 C555 -11 671 109 671 352 C671 595 555 716 359 716 L359 716 Z M359 111 C245 111 189 191 189 352 C189 513 245 594 359 594 C472 594 528 513 528 352 C528 191 472 111 359 111 L359 111 Z M316 775 C311 765 316 756 330 756 L379 756 C394 756 401 760 410 769 L498 854 C508 864 506 880 490 880 L389 880 C373 880 366 873 361 863 L316 775 Z " />
<glyph glyph-name="Ocircumflex" unicode="&#xd4;" horiz-adv-x="718" d="M359 716 C163 716 47 595 47 352 C47 109 163 -11 358 -11 C555 -11 671 109 671 352 C671 595 555 716 359 716 L359 716 Z M359 111 C245 111 189 191 189 352 C189 513 245 594 359 594 C472 594 528 513 528 352 C528 191 472 111 359 111 L359 111 Z M425 768 C433 761 440 756 453 756 L500 756 C515 756 518 769 509 778 L417 873 C408 883 403 887 385 887 L331 887 C314 887 309 883 299 873 L208 778 C199 769 202 756 217 756 L263 756 C276 756 283 762 291 768 L359 820 L425 768 Z " />
<glyph glyph-name="Otilde" unicode="&#xd5;" horiz-adv-x="718" d="M359 716 C163 716 47 595 47 352 C47 109 163 -11 358 -11 C555 -11 671 109 671 352 C671 595 555 716 359 716 L359 716 Z M359 111 C245 111 189 191 189 352 C189 513 245 594 359 594 C472 594 528 513 528 352 C528 191 472 111 359 111 L359 111 Z M537 834 C537 857 530 865 515 865 L485 865 C471 865 464 862 462 849 L461 841 C459 827 451 822 437 822 C423 822 405 827 384 835 L346 849 C317 859 287 867 261 867 C205 867 180 831 180 783 C180 760 187 754 201 754 L232 754 C245 754 253 758 255 771 L256 779 C257 791 266 795 280 795 C295 795 315 790 336 782 L371 769 C400 758 430 751 458 751 C513 751 537 786 537 834 L537 834 Z " />
<glyph glyph-name="Odieresis" unicode="&#xd6;" horiz-adv-x="718" d="M359 716 C163 716 47 595 47 352 C47 109 163 -11 358 -11 C555 -11 671 109 671 352 C671 595 555 716 359 716 L359 716 Z M359 111 C245 111 189 191 189 352 C189 513 245 594 359 594 C472 594 528 513 528 352 C528 191 472 111 359 111 L359 111 Z M318 842 C318 858 310 865 294 865 L219 865 C204 865 197 858 197 842 L197 779 C197 763 204 756 219 756 L294 756 C310 756 318 763 318 779 L318 842 Z M520 842 C520 858 513 865 497 865 L422 865 C406 865 400 858 400 842 L400 779 C400 763 406 756 422 756 L497 756 C513 756 520 763 520 779 L520 842 Z " />
<glyph glyph-name="multiply" unicode="&#xd7;" horiz-adv-x="599" d="M436 128 C448 116 457 116 468 127 L516 176 C527 187 527 196 516 208 L379 345 L516 481 C528 493 529 503 517 514 L468 562 C457 573 447 573 436 562 L299 425 L163 562 C152 573 142 573 130 562 L82 514 C71 502 71 491 82 481 L219 345 L82 208 C72 198 71 187 82 176 L130 127 C141 115 152 116 163 127 L299 264 L436 128 Z " />
<glyph glyph-name="Oslash" unicode="&#xd8;" horiz-adv-x="720" d="M360 716 C164 716 48 595 48 352 C48 250 69 171 106 114 L59 59 C49 47 50 38 62 29 L93 4 C106 -6 114 -4 125 8 L165 52 C213 10 279 -11 360 -11 C556 -11 672 109 672 352 C672 454 651 531 613 590 L659 644 C669 657 668 667 655 676 L624 700 C611 710 603 707 592 695 L554 653 C506 692 441 716 360 716 L360 716 Z M360 111 C307 111 276 125 245 155 L514 466 C525 431 530 391 530 352 C530 194 474 111 360 111 L360 111 Z M191 352 C191 512 247 594 360 594 C412 594 447 576 473 549 L206 239 C195 269 191 313 191 352 L191 352 Z " />
<glyph glyph-name="Ugrave" unicode="&#xd9;" horiz-adv-x="694" d="M347 -12 C532 -12 624 82 624 255 L624 680 C624 697 616 704 600 704 L509 704 C492 704 485 697 485 680 L485 267 C485 169 445 114 347 114 C248 114 209 169 209 267 L209 680 C209 697 202 704 184 704 L94 704 C77 704 69 697 69 680 L69 255 C69 82 161 -12 347 -12 L347 -12 Z M360 863 C355 873 347 880 332 880 L231 880 C215 880 213 863 222 854 L311 769 C320 760 327 756 342 756 L391 756 C405 756 410 765 405 775 L360 863 Z " />
<glyph glyph-name="Uacute" unicode="&#xda;" horiz-adv-x="694" d="M347 -12 C532 -12 624 82 624 255 L624 680 C624 697 616 704 600 704 L509 704 C492 704 485 697 485 680 L485 267 C485 169 445 114 347 114 C248 114 209 169 209 267 L209 680 C209 697 202 704 184 704 L94 704 C77 704 69 697 69 680 L69 255 C69 82 161 -12 347 -12 L347 -12 Z M288 775 C283 765 288 756 302 756 L351 756 C366 756 373 760 382 769 L470 854 C480 864 478 880 462 880 L361 880 C345 880 338 873 333 863 L288 775 Z " />
<glyph glyph-name="Ucircumflex" unicode="&#xdb;" horiz-adv-x="694" d="M347 -12 C532 -12 624 82 624 255 L624 680 C624 697 616 704 600 704 L509 704 C492 704 485 697 485 680 L485 267 C485 169 445 114 347 114 C248 114 209 169 209 267 L209 680 C209 697 202 704 184 704 L94 704 C77 704 69 697 69 680 L69 255 C69 82 161 -12 347 -12 L347 -12 Z M413 768 C421 761 428 756 441 756 L488 756 C503 756 506 769 497 778 L405 873 C396 883 391 887 373 887 L319 887 C302 887 297 883 287 873 L196 778 C187 769 190 756 205 756 L251 756 C264 756 271 762 279 768 L347 820 L413 768 Z " />
<glyph glyph-name="Udieresis" unicode="&#xdc;" horiz-adv-x="694" d="M347 -12 C532 -12 624 82 624 255 L624 680 C624 697 616 704 600 704 L509 704 C492 704 485 697 485 680 L485 267 C485 169 445 114 347 114 C248 114 209 169 209 267 L209 680 C209 697 202 704 184 704 L94 704 C77 704 69 697 69 680 L69 255 C69 82 161 -12 347 -12 L347 -12 Z M306 842 C306 858 298 865 282 865 L207 865 C192 865 185 858 185 842 L185 779 C185 763 192 756 207 756 L282 756 C298 756 306 763 306 779 L306 842 Z M508 842 C508 858 501 865 485 865 L410 865 C394 865 388 858 388 842 L388 779 C388 763 394 756 410 756 L485 756 C501 756 508 763 508 779 L508 842 Z " />
<glyph glyph-name="Yacute" unicode="&#xdd;" horiz-adv-x="663" d="M401 259 L636 675 C644 689 637 704 619 704 L523 704 C504 704 497 695 490 682 L378 470 L332 372 L331 372 L284 470 L173 682 C166 696 158 704 140 704 L44 704 C26 704 19 689 27 675 L261 259 L261 25 C261 7 269 0 286 0 L377 0 C393 0 401 7 401 25 L401 259 Z M288 775 C283 765 288 756 302 756 L351 756 C366 756 373 760 382 769 L470 854 C480 864 478 880 462 880 L361 880 C345 880 338 873 333 863 L288 775 Z " />
<glyph glyph-name="Thorn" unicode="&#xde;" horiz-adv-x="644" d="M188 0 C205 0 213 7 213 25 L213 138 L307 138 C498 138 595 203 595 380 C595 558 498 622 307 622 L213 622 L213 680 C213 697 205 704 188 704 L99 704 C81 704 74 697 74 680 L74 25 C74 7 81 0 98 0 L188 0 Z M213 256 L213 504 L306 504 C410 504 456 472 456 381 C456 289 412 256 306 256 L213 256 Z " />
<glyph glyph-name="germandbls" unicode="&#xdf;" horiz-adv-x="656" d="M315 615 C396 615 423 577 423 539 C423 470 298 450 298 392 C298 312 485 293 485 180 C485 120 436 92 357 92 C342 92 325 93 308 95 C292 96 285 89 285 75 L285 20 C285 12 293 6 305 2 C337 -9 398 -8 413 -8 C550 -8 615 54 615 163 C615 337 425 355 425 394 C425 430 552 450 552 560 C552 652 474 716 325 716 C168 716 70 656 70 518 L70 21 C70 7 77 0 93 0 L173 0 C190 0 196 7 196 21 L196 508 C196 579 240 615 315 615 L315 615 Z " />
<glyph glyph-name="agrave" unicode="&#xe0;" horiz-adv-x="575" d="M513 349 C513 473 443 539 287 539 C213 539 136 522 87 501 C75 495 69 486 73 473 L91 418 C96 404 105 399 120 404 C161 420 210 434 270 434 C350 434 384 405 384 343 L384 320 C177 316 35 291 35 144 C35 45 103 -9 206 -9 C317 -9 366 39 388 73 L392 19 C393 8 399 0 415 0 L489 0 C505 0 513 7 513 23 L513 349 Z M384 199 C384 134 341 82 249 82 C192 82 161 111 161 152 C161 226 251 238 384 242 L384 199 Z M300 698 C295 708 288 714 273 714 L172 714 C156 714 154 698 163 689 L252 603 C261 594 268 591 282 591 L332 591 C345 591 351 600 346 610 L300 698 Z " />
<glyph glyph-name="aacute" unicode="&#xe1;" horiz-adv-x="575" d="M513 349 C513 473 443 539 287 539 C213 539 136 522 87 501 C75 495 69 486 73 473 L91 418 C96 404 105 399 120 404 C161 420 210 434 270 434 C350 434 384 405 384 343 L384 320 C177 316 35 291 35 144 C35 45 103 -9 206 -9 C317 -9 366 39 388 73 L392 19 C393 8 399 0 415 0 L489 0 C505 0 513 7 513 23 L513 349 Z M384 199 C384 134 341 82 249 82 C192 82 161 111 161 152 C161 226 251 238 384 242 L384 199 Z M228 610 C223 600 228 591 241 591 L291 591 C305 591 312 594 321 603 L409 689 C419 699 417 714 401 714 L300 714 C285 714 278 708 273 698 L228 610 Z " />
<glyph glyph-name="acircumflex" unicode="&#xe2;" horiz-adv-x="575" d="M513 349 C513 473 443 539 287 539 C213 539 136 522 87 501 C75 495 69 486 73 473 L91 418 C96 404 105 399 120 404 C161 420 210 434 270 434 C350 434 384 405 384 343 L384 320 C177 316 35 291 35 144 C35 45 103 -9 206 -9 C317 -9 366 39 388 73 L392 19 C393 8 399 0 415 0 L489 0 C505 0 513 7 513 23 L513 349 Z M384 199 C384 134 341 82 249 82 C192 82 161 111 161 152 C161 226 251 238 384 242 L384 199 Z M355 603 C364 596 370 591 382 591 L428 591 C443 591 446 603 437 613 L345 710 C336 720 331 724 313 724 L259 724 C242 724 236 720 227 710 L135 613 C126 603 130 591 145 591 L191 591 C203 591 209 596 218 603 L287 657 L355 603 Z " />
<glyph glyph-name="atilde" unicode="&#xe3;" horiz-adv-x="575" d="M513 349 C513 473 443 539 287 539 C213 539 136 522 87 501 C75 495 69 486 73 473 L91 418 C96 404 105 399 120 404 C161 420 210 434 270 434 C350 434 384 405 384 343 L384 320 C177 316 35 291 35 144 C35 45 103 -9 206 -9 C317 -9 366 39 388 73 L392 19 C393 8 399 0 415 0 L489 0 C505 0 513 7 513 23 L513 349 Z M384 199 C384 134 341 82 249 82 C192 82 161 111 161 152 C161 226 251 238 384 242 L384 199 Z M454 669 C454 690 448 699 434 699 L403 699 C390 699 383 696 381 683 L380 676 C378 663 370 658 358 658 C346 658 328 663 309 670 L273 683 C245 693 217 700 189 700 C137 700 114 668 114 619 C114 597 121 592 136 592 L166 592 C179 592 186 596 188 607 L190 615 C194 637 222 634 261 619 L296 606 C322 597 352 589 381 589 C431 589 454 620 454 669 L454 669 Z " />
<glyph glyph-name="adieresis" unicode="&#xe4;" horiz-adv-x="575" d="M513 349 C513 473 443 539 287 539 C213 539 136 522 87 501 C75 495 69 486 73 473 L91 418 C96 404 105 399 120 404 C161 420 210 434 270 434 C350 434 384 405 384 343 L384 320 C177 316 35 291 35 144 C35 45 103 -9 206 -9 C317 -9 366 39 388 73 L392 19 C393 8 399 0 415 0 L489 0 C505 0 513 7 513 23 L513 349 Z M384 199 C384 134 341 82 249 82 C192 82 161 111 161 152 C161 226 251 238 384 242 L384 199 Z M244 679 C244 695 237 702 221 702 L150 702 C134 702 126 695 126 679 L126 613 C126 598 134 591 150 591 L221 591 C237 591 244 598 244 613 L244 679 Z M442 679 C442 695 435 702 419 702 L348 702 C332 702 324 695 324 679 L324 613 C324 598 332 591 348 591 L419 591 C435 591 442 598 442 613 L442 679 Z " />
<glyph glyph-name="aring" unicode="&#xe5;" horiz-adv-x="575" d="M513 349 C513 473 443 539 287 539 C213 539 136 522 87 501 C75 495 69 486 73 473 L91 418 C96 404 105 399 120 404 C161 420 210 434 270 434 C350 434 384 405 384 343 L384 320 C177 316 35 291 35 144 C35 45 103 -9 206 -9 C317 -9 366 39 388 73 L392 19 C393 8 399 0 415 0 L489 0 C505 0 513 7 513 23 L513 349 Z M384 199 C384 134 341 82 249 82 C192 82 161 111 161 152 C161 226 251 238 384 242 L384 199 Z M290 638 C256 638 234 657 234 689 C234 719 256 739 289 739 C322 739 344 719 344 689 C344 657 322 638 290 638 L290 638 Z M289 792 C223 792 176 750 176 689 C176 627 223 585 290 585 C356 585 404 627 404 689 C404 750 356 792 289 792 L289 792 Z " />
<glyph glyph-name="ae" unicode="&#xe6;" horiz-adv-x="910" d="M668 86 C580 86 523 138 512 219 L842 219 C858 219 866 226 866 242 L866 296 C866 441 782 539 639 539 C557 539 491 505 460 450 C436 512 374 539 281 539 C208 539 137 522 84 501 C71 495 66 486 70 473 L89 418 C94 404 102 398 117 404 C159 420 209 434 271 434 C348 434 383 405 384 353 L384 308 C178 306 35 295 35 144 C35 45 95 -9 232 -9 C336 -9 407 30 447 96 C473 34 548 -12 658 -12 C724 -12 793 6 828 26 C841 34 847 41 843 54 L826 102 C821 117 811 124 796 117 C757 100 716 86 668 86 L668 86 Z M633 441 C709 441 746 391 746 310 L746 303 L509 303 C515 394 560 441 633 441 L633 441 Z M385 204 C385 139 345 83 253 83 C187 83 161 110 161 152 C161 225 251 226 385 229 L385 204 Z " />
<glyph glyph-name="ccedilla" unicode="&#xe7;" horiz-adv-x="514" d="M43 265 C43 111 121 19 243 -4 C278 -22 299 -43 299 -69 C299 -89 284 -100 251 -100 L221 -100 C211 -100 206 -105 206 -113 L206 -146 C206 -154 211 -159 220 -161 C232 -166 250 -167 267 -167 C337 -167 377 -141 377 -89 C377 -55 352 -28 318 -11 C378 -10 437 8 465 26 C479 35 485 43 479 57 L455 112 C450 125 440 130 424 123 C399 110 363 99 321 99 C235 99 178 151 178 265 C178 378 234 428 323 428 C362 428 392 420 417 409 C434 402 444 407 450 420 L474 474 C480 488 475 497 461 505 C432 523 374 539 307 539 C150 539 43 446 43 265 L43 265 Z " />
<glyph glyph-name="egrave" unicode="&#xe8;" horiz-adv-x="582" d="M336 86 C243 86 184 136 174 215 L515 215 C532 215 539 222 539 239 L539 288 C539 436 454 539 298 539 C143 539 43 440 43 263 C43 90 148 -12 325 -12 C397 -12 457 6 499 27 C513 34 518 42 514 56 L497 103 C492 117 482 124 467 117 C429 98 387 86 336 86 L336 86 Z M300 441 C379 441 419 388 419 305 L419 299 L171 299 C178 395 222 441 300 441 L300 441 Z M305 698 C300 708 293 714 278 714 L177 714 C161 714 159 698 168 689 L257 603 C266 594 273 591 287 591 L337 591 C350 591 356 600 351 610 L305 698 Z " />
<glyph glyph-name="eacute" unicode="&#xe9;" horiz-adv-x="582" d="M336 86 C243 86 184 136 174 215 L515 215 C532 215 539 222 539 239 L539 288 C539 436 454 539 298 539 C143 539 43 440 43 263 C43 90 148 -12 325 -12 C397 -12 457 6 499 27 C513 34 518 42 514 56 L497 103 C492 117 482 124 467 117 C429 98 387 86 336 86 L336 86 Z M300 441 C379 441 419 388 419 305 L419 299 L171 299 C178 395 222 441 300 441 L300 441 Z M238 610 C233 600 238 591 251 591 L301 591 C315 591 322 594 331 603 L419 689 C429 699 427 714 411 714 L310 714 C295 714 288 708 283 698 L238 610 Z " />
<glyph glyph-name="ecircumflex" unicode="&#xea;" horiz-adv-x="582" d="M336 86 C243 86 184 136 174 215 L515 215 C532 215 539 222 539 239 L539 288 C539 436 454 539 298 539 C143 539 43 440 43 263 C43 90 148 -12 325 -12 C397 -12 457 6 499 27 C513 34 518 42 514 56 L497 103 C492 117 482 124 467 117 C429 98 387 86 336 86 L336 86 Z M300 441 C379 441 419 388 419 305 L419 299 L171 299 C178 395 222 441 300 441 L300 441 Z M365 603 C374 596 380 591 392 591 L438 591 C453 591 456 603 447 613 L355 710 C346 720 341 724 323 724 L269 724 C252 724 246 720 237 710 L145 613 C136 603 140 591 155 591 L201 591 C213 591 219 596 228 603 L297 657 L365 603 Z " />
<glyph glyph-name="edieresis" unicode="&#xeb;" horiz-adv-x="582" d="M336 86 C243 86 184 136 174 215 L515 215 C532 215 539 222 539 239 L539 288 C539 436 454 539 298 539 C143 539 43 440 43 263 C43 90 148 -12 325 -12 C397 -12 457 6 499 27 C513 34 518 42 514 56 L497 103 C492 117 482 124 467 117 C429 98 387 86 336 86 L336 86 Z M300 441 C379 441 419 388 419 305 L419 299 L171 299 C178 395 222 441 300 441 L300 441 Z M256 679 C256 695 249 702 233 702 L162 702 C146 702 138 695 138 679 L138 613 C138 598 146 591 162 591 L233 591 C249 591 256 598 256 613 L256 679 Z M454 679 C454 695 447 702 431 702 L360 702 C344 702 336 695 336 679 L336 613 C336 598 344 591 360 591 L431 591 C447 591 454 598 454 613 L454 679 Z " />
<glyph glyph-name="igrave" unicode="&#xec;" horiz-adv-x="273" d="M202 504 C202 520 196 527 180 527 L94 527 C78 527 70 520 70 504 L70 23 C70 7 78 0 94 0 L180 0 C196 0 202 7 202 23 L202 504 Z M136 698 C131 708 124 714 109 714 L8 714 C-8 714 -10 698 -1 689 L88 603 C97 594 104 591 118 591 L168 591 C181 591 187 600 182 610 L136 698 Z " />
<glyph glyph-name="iacute" unicode="&#xed;" horiz-adv-x="273" d="M202 504 C202 520 196 527 180 527 L94 527 C78 527 70 520 70 504 L70 23 C70 7 78 0 94 0 L180 0 C196 0 202 7 202 23 L202 504 Z M93 610 C88 600 93 591 106 591 L156 591 C170 591 177 594 186 603 L274 689 C284 699 282 714 266 714 L165 714 C150 714 143 708 138 698 L93 610 Z " />
<glyph glyph-name="icircumflex" unicode="&#xee;" horiz-adv-x="273" d="M202 504 C202 520 196 527 180 527 L94 527 C78 527 70 520 70 504 L70 23 C70 7 78 0 94 0 L180 0 C196 0 202 7 202 23 L202 504 Z M205 603 C214 596 220 591 232 591 L278 591 C293 591 296 603 287 613 L195 710 C186 720 181 724 163 724 L109 724 C92 724 86 720 77 710 L-15 613 C-24 603 -20 591 -5 591 L41 591 C53 591 59 596 68 603 L137 657 L205 603 Z " />
<glyph glyph-name="idieresis" unicode="&#xef;" horiz-adv-x="273" d="M202 504 C202 520 196 527 180 527 L94 527 C78 527 70 520 70 504 L70 23 C70 7 78 0 94 0 L180 0 C196 0 202 7 202 23 L202 504 Z M96 679 C96 695 89 702 73 702 L2 702 C-14 702 -22 695 -22 679 L-22 613 C-22 598 -14 591 2 591 L73 591 C89 591 96 598 96 613 L96 679 Z M294 679 C294 695 287 702 271 702 L200 702 C184 702 176 695 176 679 L176 613 C176 598 184 591 200 591 L271 591 C287 591 294 598 294 613 L294 679 Z " />
<glyph glyph-name="eth" unicode="&#xf0;" horiz-adv-x="606" d="M517 580 C530 580 536 586 536 599 L536 624 C536 637 530 643 517 643 L418 643 C391 674 377 685 365 695 C356 704 347 707 333 707 L248 707 C235 707 231 691 243 684 C251 680 287 655 299 643 L209 643 C197 643 191 637 191 624 L191 599 C191 586 197 580 209 580 L351 580 C375 552 393 524 405 500 C379 523 339 532 294 532 C150 532 43 440 43 261 C43 84 145 -11 303 -11 C461 -11 564 81 564 267 C564 379 524 492 461 580 L517 580 Z M303 95 C223 95 178 148 178 261 C178 376 223 433 303 433 C383 433 429 375 429 261 C429 149 383 95 303 95 L303 95 Z " />
<glyph glyph-name="ntilde" unicode="&#xf1;" horiz-adv-x="608" d="M545 344 C545 465 489 539 364 539 C269 539 220 495 196 455 L191 507 C190 519 183 527 168 527 L89 527 C73 527 66 520 66 504 L66 23 C66 7 73 0 89 0 L175 0 C191 0 198 7 198 23 L198 304 C198 377 239 425 315 425 C387 425 412 388 412 320 L412 23 C412 7 420 0 436 0 L522 0 C538 0 545 7 545 23 L545 344 Z M474 669 C474 690 468 699 454 699 L423 699 C410 699 403 696 401 683 L400 676 C398 663 390 658 378 658 C366 658 348 663 329 670 L293 683 C265 693 237 700 209 700 C157 700 134 668 134 619 C134 597 141 592 156 592 L186 592 C199 592 206 596 208 607 L210 615 C214 637 242 634 281 619 L316 606 C342 597 372 589 401 589 C451 589 474 620 474 669 L474 669 Z " />
<glyph glyph-name="ograve" unicode="&#xf2;" horiz-adv-x="607" d="M303 -11 C145 -11 43 83 43 264 C43 445 145 539 303 539 C461 539 564 445 564 264 C564 83 461 -11 303 -11 L303 -11 Z M303 95 C383 95 429 148 429 264 C429 380 383 433 303 433 C223 433 178 380 178 264 C178 148 223 95 303 95 L303 95 Z M309 698 C304 708 297 714 282 714 L181 714 C165 714 163 698 172 689 L261 603 C270 594 277 591 291 591 L341 591 C354 591 360 600 355 610 L309 698 Z " />
<glyph glyph-name="oacute" unicode="&#xf3;" horiz-adv-x="607" d="M303 -11 C145 -11 43 83 43 264 C43 445 145 539 303 539 C461 539 564 445 564 264 C564 83 461 -11 303 -11 L303 -11 Z M303 95 C383 95 429 148 429 264 C429 380 383 433 303 433 C223 433 178 380 178 264 C178 148 223 95 303 95 L303 95 Z M251 610 C246 600 251 591 264 591 L314 591 C328 591 335 594 344 603 L432 689 C442 699 440 714 424 714 L323 714 C308 714 301 708 296 698 L251 610 Z " />
<glyph glyph-name="ocircumflex" unicode="&#xf4;" horiz-adv-x="607" d="M303 -11 C145 -11 43 83 43 264 C43 445 145 539 303 539 C461 539 564 445 564 264 C564 83 461 -11 303 -11 L303 -11 Z M303 95 C383 95 429 148 429 264 C429 380 383 433 303 433 C223 433 178 380 178 264 C178 148 223 95 303 95 L303 95 Z M372 603 C381 596 387 591 399 591 L445 591 C460 591 463 603 454 613 L362 710 C353 720 348 724 330 724 L276 724 C259 724 253 720 244 710 L152 613 C143 603 147 591 162 591 L208 591 C220 591 226 596 235 603 L304 657 L372 603 Z " />
<glyph glyph-name="otilde" unicode="&#xf5;" horiz-adv-x="607" d="M303 -11 C461 -11 564 83 564 264 C564 445 461 539 303 539 C145 539 43 445 43 264 C43 83 145 -11 303 -11 L303 -11 Z M303 95 C223 95 178 148 178 264 C178 380 223 433 303 433 C383 433 429 380 429 264 C429 148 383 95 303 95 L303 95 Z M473 669 C473 690 467 699 453 699 L422 699 C409 699 402 696 400 683 L399 676 C397 663 389 658 377 658 C365 658 347 663 328 670 L292 683 C264 693 236 700 208 700 C156 700 133 668 133 619 C133 597 140 592 155 592 L185 592 C198 592 205 596 207 607 L209 615 C213 637 241 634 280 619 L315 606 C341 597 371 589 400 589 C450 589 473 620 473 669 L473 669 Z " />
<glyph glyph-name="odieresis" unicode="&#xf6;" horiz-adv-x="607" d="M303 -11 C145 -11 43 83 43 264 C43 445 145 539 303 539 C461 539 564 445 564 264 C564 83 461 -11 303 -11 L303 -11 Z M303 95 C383 95 429 148 429 264 C429 380 383 433 303 433 C223 433 178 380 178 264 C178 148 223 95 303 95 L303 95 Z M263 679 C263 695 256 702 240 702 L169 702 C153 702 145 695 145 679 L145 613 C145 598 153 591 169 591 L240 591 C256 591 263 598 263 613 L263 679 Z M461 679 C461 695 454 702 438 702 L367 702 C351 702 343 695 343 679 L343 613 C343 598 351 591 367 591 L438 591 C454 591 461 598 461 613 L461 679 Z " />
<glyph glyph-name="divide" unicode="&#xf7;" horiz-adv-x="599" d="M517 296 C533 296 540 304 540 319 L540 372 C540 387 533 395 517 395 L82 395 C66 395 59 387 59 372 L59 319 C59 304 66 296 81 296 L517 296 Z M233 107 C233 91 240 83 256 83 L343 83 C359 83 366 91 366 107 L366 196 C366 211 358 218 342 218 L257 218 C241 218 233 211 233 196 L233 107 Z M233 495 C233 479 240 472 256 472 L343 472 C359 472 366 479 366 495 L366 584 C366 600 358 607 342 607 L257 607 C241 607 233 600 233 584 L233 495 Z " />
<glyph glyph-name="oslash" unicode="&#xf8;" horiz-adv-x="611" d="M305 -11 C463 -11 566 83 566 264 C566 339 549 399 516 444 L546 479 C556 491 554 500 543 509 L522 527 C511 536 501 536 489 523 L464 494 C423 523 367 539 305 539 C147 539 45 445 45 264 C45 188 64 126 95 84 L65 49 C54 37 58 27 68 18 L89 0 C100 -10 111 -8 121 3 L147 33 C189 4 244 -11 305 -11 L305 -11 Z M305 433 C342 433 369 423 388 403 L194 186 C185 205 180 238 180 264 C180 380 225 433 305 433 L305 433 Z M305 95 C269 95 244 105 223 124 L417 341 C427 321 431 290 431 264 C431 148 385 95 305 95 L305 95 Z " />
<glyph glyph-name="ugrave" unicode="&#xf9;" horiz-adv-x="601" d="M60 180 C60 55 117 -11 241 -11 C334 -11 381 33 404 73 L408 19 C409 8 416 0 432 0 L512 0 C527 0 534 7 534 23 L534 504 C534 520 527 527 512 527 L425 527 C410 527 402 520 402 504 L402 219 C402 147 357 101 285 101 C214 101 192 141 192 205 L192 504 C192 520 186 527 170 527 L84 527 C68 527 60 520 60 504 L60 180 Z M309 698 C304 708 297 714 282 714 L181 714 C165 714 163 698 172 689 L261 603 C270 594 277 591 291 591 L341 591 C354 591 360 600 355 610 L309 698 Z " />
<glyph glyph-name="uacute" unicode="&#xfa;" horiz-adv-x="601" d="M60 180 C60 55 117 -11 241 -11 C334 -11 381 33 404 73 L408 19 C409 8 416 0 432 0 L512 0 C527 0 534 7 534 23 L534 504 C534 520 527 527 512 527 L425 527 C410 527 402 520 402 504 L402 219 C402 147 357 101 285 101 C214 101 192 141 192 205 L192 504 C192 520 186 527 170 527 L84 527 C68 527 60 520 60 504 L60 180 Z M246 610 C241 600 246 591 259 591 L309 591 C323 591 330 594 339 603 L427 689 C437 699 435 714 419 714 L318 714 C303 714 296 708 291 698 L246 610 Z " />
<glyph glyph-name="ucircumflex" unicode="&#xfb;" horiz-adv-x="601" d="M60 180 C60 55 117 -11 241 -11 C334 -11 381 33 404 73 L408 19 C409 8 416 0 432 0 L512 0 C527 0 534 7 534 23 L534 504 C534 520 527 527 512 527 L425 527 C410 527 402 520 402 504 L402 219 C402 147 357 101 285 101 C214 101 192 141 192 205 L192 504 C192 520 186 527 170 527 L84 527 C68 527 60 520 60 504 L60 180 Z M369 603 C378 596 384 591 396 591 L442 591 C457 591 460 603 451 613 L359 710 C350 720 345 724 327 724 L273 724 C256 724 250 720 241 710 L149 613 C140 603 144 591 159 591 L205 591 C217 591 223 596 232 603 L301 657 L369 603 Z " />
<glyph glyph-name="udieresis" unicode="&#xfc;" horiz-adv-x="601" d="M60 180 C60 55 117 -11 241 -11 C334 -11 381 33 404 73 L408 19 C409 8 416 0 432 0 L512 0 C527 0 534 7 534 23 L534 504 C534 520 527 527 512 527 L425 527 C410 527 402 520 402 504 L402 219 C402 147 357 101 285 101 C214 101 192 141 192 205 L192 504 C192 520 186 527 170 527 L84 527 C68 527 60 520 60 504 L60 180 Z M260 679 C260 695 253 702 237 702 L166 702 C150 702 142 695 142 679 L142 613 C142 598 150 591 166 591 L237 591 C253 591 260 598 260 613 L260 679 Z M458 679 C458 695 451 702 435 702 L364 702 C348 702 340 695 340 679 L340 613 C340 598 348 591 364 591 L435 591 C451 591 458 598 458 613 L458 679 Z " />
<glyph glyph-name="yacute" unicode="&#xfd;" horiz-adv-x="538" d="M519 501 C524 516 517 527 500 527 L412 527 C397 527 389 519 385 505 L320 271 L283 125 L281 125 L237 271 L156 505 C151 519 144 527 129 527 L39 527 C22 527 16 516 22 501 L198 56 C214 16 197 -13 145 -13 C116 -13 101 -8 88 -7 C75 -6 69 -11 67 -25 L60 -82 C58 -96 67 -101 80 -105 C98 -110 138 -116 175 -116 C296 -116 331 -72 367 44 L519 501 Z M216 610 C211 600 216 591 229 591 L279 591 C293 591 300 594 309 603 L397 689 C407 699 405 714 389 714 L288 714 C273 714 266 708 261 698 L216 610 Z " />
<glyph glyph-name="thorn" unicode="&#xfe;" horiz-adv-x="634" d="M91 704 C75 704 68 698 68 682 L68 -87 C68 -103 75 -110 91 -110 L177 -110 C193 -110 200 -103 200 -87 L200 71 C229 14 297 -11 367 -11 C506 -11 590 79 590 264 C590 448 506 539 367 539 C297 539 229 510 200 456 L200 682 C200 698 193 704 177 704 L91 704 Z M200 264 C200 379 246 432 329 432 C412 432 455 385 455 264 C455 143 412 96 329 96 C246 96 200 149 200 264 L200 264 Z " />
<glyph glyph-name="ydieresis" unicode="&#xff;" horiz-adv-x="538" d="M519 501 C524 516 517 527 500 527 L412 527 C397 527 389 519 385 505 L320 271 L283 125 L281 125 L237 271 L156 505 C151 519 144 527 129 527 L39 527 C22 527 16 516 22 501 L198 56 C214 16 197 -13 145 -13 C116 -13 101 -8 88 -7 C75 -6 69 -11 67 -25 L60 -82 C58 -96 67 -101 80 -105 C98 -110 138 -116 175 -116 C296 -116 331 -72 367 44 L519 501 Z M229 679 C229 695 222 702 206 702 L135 702 C119 702 111 695 111 679 L111 613 C111 598 119 591 135 591 L206 591 C222 591 229 598 229 613 L229 679 Z M427 679 C427 695 420 702 404 702 L333 702 C317 702 309 695 309 679 L309 613 C309 598 317 591 333 591 L404 591 C420 591 427 598 427 613 L427 679 Z " />
<glyph glyph-name="Amacron" unicode="&#x100;" horiz-adv-x="684" d="M242 271 L341 566 L344 566 L441 271 L242 271 Z M285 704 C266 704 260 696 255 681 L22 28 C16 12 24 0 41 0 L138 0 C154 0 161 7 166 22 L212 153 L472 153 L518 22 C523 7 530 0 547 0 L644 0 C660 0 668 12 662 28 L429 681 C424 696 418 704 399 704 L285 704 Z M493 765 C508 765 515 772 515 786 L515 824 C515 840 508 846 493 846 L192 846 C176 846 170 840 170 824 L170 786 C170 772 176 765 192 765 L493 765 Z " />
<glyph glyph-name="amacron" unicode="&#x101;" horiz-adv-x="575" d="M513 349 C513 473 443 539 287 539 C213 539 136 522 87 501 C75 495 69 486 73 473 L91 418 C96 404 105 399 120 404 C161 420 210 434 270 434 C350 434 384 405 384 343 L384 320 C177 316 35 291 35 144 C35 45 103 -9 206 -9 C317 -9 366 39 388 73 L392 19 C393 8 399 0 415 0 L489 0 C505 0 513 7 513 23 L513 349 Z M384 199 C384 134 341 82 249 82 C192 82 161 111 161 152 C161 226 251 238 384 242 L384 199 Z M433 596 C449 596 455 602 455 618 L455 652 C455 667 449 674 433 674 L135 674 C121 674 114 667 114 652 L114 618 C114 602 121 596 135 596 L433 596 Z " />
<glyph glyph-name="Abreve" unicode="&#x102;" horiz-adv-x="684" d="M242 271 L341 566 L344 566 L441 271 L242 271 Z M285 704 C266 704 260 696 255 681 L22 28 C16 12 24 0 41 0 L138 0 C154 0 161 7 166 22 L212 153 L472 153 L518 22 C523 7 530 0 547 0 L644 0 C660 0 668 12 662 28 L429 681 C424 696 418 704 399 704 L285 704 Z M343 753 C450 753 496 813 497 875 C497 887 491 893 479 893 L441 893 C428 893 423 887 420 876 C413 844 395 823 343 823 C290 823 272 845 265 876 C262 887 257 893 244 893 L206 893 C194 893 188 887 188 875 C189 813 235 753 343 753 L343 753 Z " />
<glyph glyph-name="abreve" unicode="&#x103;" horiz-adv-x="575" d="M513 349 C513 473 443 539 287 539 C213 539 136 522 87 501 C75 495 69 486 73 473 L91 418 C96 404 105 399 120 404 C161 420 210 434 270 434 C350 434 384 405 384 343 L384 320 C177 316 35 291 35 144 C35 45 103 -9 206 -9 C317 -9 366 39 388 73 L392 19 C393 8 399 0 415 0 L489 0 C505 0 513 7 513 23 L513 349 Z M384 199 C384 134 341 82 249 82 C192 82 161 111 161 152 C161 226 251 238 384 242 L384 199 Z M285 586 C394 586 437 648 438 710 C438 723 433 728 420 728 L384 728 C371 728 366 722 363 711 C356 680 339 655 285 655 C230 655 212 680 205 711 C203 722 198 728 185 728 L149 728 C136 728 131 723 131 710 C131 648 175 586 285 586 L285 586 Z " />
<glyph glyph-name="Aogonek" unicode="&#x104;" horiz-adv-x="684" d="M285 704 C266 704 260 696 255 681 L22 28 C16 12 24 0 41 0 L138 0 C154 0 161 7 166 22 L212 153 L472 153 L518 22 C523 7 530 0 547 0 L562 0 C519 -21 483 -61 483 -101 C483 -155 528 -177 586 -177 C620 -177 648 -169 662 -160 C668 -157 673 -151 671 -142 L661 -107 C659 -101 655 -99 648 -99 C640 -100 634 -104 615 -104 C582 -104 566 -92 566 -72 C566 -45 585 -20 625 0 L644 0 C660 0 668 12 662 28 L429 681 C424 696 418 704 399 704 L285 704 Z M242 271 L341 566 L344 566 L441 271 L242 271 Z " />
<glyph glyph-name="aogonek" unicode="&#x105;" horiz-adv-x="575" d="M513 349 C513 473 443 539 287 539 C213 539 136 522 87 501 C75 495 69 486 73 473 L91 418 C96 404 105 399 120 404 C161 420 210 434 270 434 C350 434 384 405 384 343 L384 320 C177 316 35 291 35 144 C35 45 103 -9 206 -9 C317 -9 366 39 388 73 L392 19 C393 8 399 0 415 0 L417 0 C376 -19 341 -56 341 -96 C341 -149 385 -167 440 -167 C472 -167 499 -159 513 -151 C518 -149 523 -143 521 -134 L512 -102 C510 -94 505 -92 499 -93 C492 -94 485 -98 466 -98 C436 -98 421 -88 421 -67 C421 -40 439 -19 476 0 L489 0 C505 0 513 7 513 23 L513 349 Z M384 199 C384 134 341 82 249 82 C192 82 161 111 161 152 C161 226 251 238 384 242 L384 199 Z " />
<glyph glyph-name="Cacute" unicode="&#x106;" horiz-adv-x="618" d="M396 113 C256 113 190 189 190 352 C190 516 256 592 391 592 C440 592 483 580 511 567 C530 559 539 564 545 579 L572 640 C578 654 572 662 558 671 C520 694 452 716 369 716 C170 716 48 595 48 352 C48 109 172 -11 374 -11 C458 -11 528 12 565 36 C580 45 586 52 580 66 L552 128 C545 143 537 149 518 142 C490 127 447 113 396 113 L396 113 Z M296 775 C291 765 296 756 310 756 L359 756 C374 756 381 760 390 769 L478 854 C488 864 486 880 470 880 L369 880 C353 880 346 873 341 863 L296 775 Z " />
<glyph glyph-name="cacute" unicode="&#x107;" horiz-adv-x="514" d="M43 265 C43 84 151 -11 312 -11 C374 -11 436 8 465 26 C479 35 485 43 479 57 L455 112 C450 125 440 130 424 123 C399 110 363 99 321 99 C235 99 178 151 178 265 C178 378 234 428 323 428 C362 428 392 420 417 409 C434 402 444 407 450 420 L474 474 C480 488 475 497 461 505 C432 523 374 539 307 539 C150 539 43 446 43 265 L43 265 Z M245 610 C240 600 245 591 258 591 L308 591 C322 591 329 594 338 603 L426 689 C436 699 434 714 418 714 L317 714 C302 714 295 708 290 698 L245 610 Z " />
<glyph glyph-name="Ccircumflex" unicode="&#x108;" horiz-adv-x="618" d="M396 113 C256 113 190 189 190 352 C190 516 256 592 391 592 C440 592 483 580 511 567 C530 559 539 564 545 579 L572 640 C578 654 572 662 558 671 C520 694 452 716 369 716 C170 716 48 595 48 352 C48 109 172 -11 374 -11 C458 -11 528 12 565 36 C580 45 586 52 580 66 L552 128 C545 143 537 149 518 142 C490 127 447 113 396 113 L396 113 Z M426 768 C434 761 441 756 454 756 L501 756 C516 756 519 769 510 778 L418 873 C409 883 404 887 386 887 L332 887 C315 887 310 883 300 873 L209 778 C200 769 203 756 218 756 L264 756 C277 756 284 762 292 768 L360 820 L426 768 Z " />
<glyph glyph-name="ccircumflex" unicode="&#x109;" horiz-adv-x="514" d="M43 265 C43 84 151 -11 312 -11 C374 -11 436 8 465 26 C479 35 485 43 479 57 L455 112 C450 125 440 130 424 123 C399 110 363 99 321 99 C235 99 178 151 178 265 C178 378 234 428 323 428 C362 428 392 420 417 409 C434 402 444 407 450 420 L474 474 C480 488 475 497 461 505 C432 523 374 539 307 539 C150 539 43 446 43 265 L43 265 Z M353 603 C362 596 368 591 380 591 L426 591 C441 591 444 603 435 613 L343 710 C334 720 329 724 311 724 L257 724 C240 724 234 720 225 710 L133 613 C124 603 128 591 143 591 L189 591 C201 591 207 596 216 603 L285 657 L353 603 Z " />
<glyph glyph-name="Cdotaccent" unicode="&#x10a;" horiz-adv-x="618" d="M396 113 C256 113 190 189 190 352 C190 516 256 592 391 592 C440 592 483 580 511 567 C530 559 539 564 545 579 L572 640 C578 654 572 662 558 671 C520 694 452 716 369 716 C170 716 48 595 48 352 C48 109 172 -11 374 -11 C458 -11 528 12 565 36 C580 45 586 52 580 66 L552 128 C545 143 537 149 518 142 C490 127 447 113 396 113 L396 113 Z M423 852 C423 868 416 875 400 875 L313 875 C297 875 290 868 290 852 L290 778 C290 762 297 755 313 755 L400 755 C416 755 423 762 423 778 L423 852 Z " />
<glyph glyph-name="cdotaccent" unicode="&#x10b;" horiz-adv-x="514" d="M43 265 C43 84 151 -11 312 -11 C374 -11 436 8 465 26 C479 35 485 43 479 57 L455 112 C450 125 440 130 424 123 C399 110 363 99 321 99 C235 99 178 151 178 265 C178 378 234 428 323 428 C362 428 392 420 417 409 C434 402 444 407 450 420 L474 474 C480 488 475 497 461 505 C432 523 374 539 307 539 C150 539 43 446 43 265 L43 265 Z M359 684 C359 700 352 708 336 708 L249 708 C233 708 226 700 226 684 L226 612 C226 596 233 589 249 589 L336 589 C352 589 359 596 359 612 L359 684 Z " />
<glyph glyph-name="Ccaron" unicode="&#x10c;" horiz-adv-x="618" d="M396 113 C256 113 190 189 190 352 C190 516 256 592 391 592 C440 592 483 580 511 567 C530 559 539 564 545 579 L572 640 C578 654 572 662 558 671 C520 694 452 716 369 716 C170 716 48 595 48 352 C48 109 172 -11 374 -11 C458 -11 528 12 565 36 C580 45 586 52 580 66 L552 128 C545 143 537 149 518 142 C490 127 447 113 396 113 L396 113 Z M360 823 L292 875 C284 881 278 887 266 887 L219 887 C204 887 200 874 209 865 L300 770 C310 760 315 756 332 756 L386 756 C404 756 409 760 418 770 L510 865 C518 874 515 887 499 887 L453 887 C440 887 435 881 426 874 L360 823 Z " />
<glyph glyph-name="ccaron" unicode="&#x10d;" horiz-adv-x="514" d="M43 265 C43 84 151 -11 312 -11 C374 -11 436 8 465 26 C479 35 485 43 479 57 L455 112 C450 125 440 130 424 123 C399 110 363 99 321 99 C235 99 178 151 178 265 C178 378 234 428 323 428 C362 428 392 420 417 409 C434 402 444 407 450 420 L474 474 C480 488 475 497 461 505 C432 523 374 539 307 539 C150 539 43 446 43 265 L43 265 Z M290 657 L221 712 C213 719 206 724 194 724 L148 724 C133 724 129 711 138 702 L230 605 C240 595 245 591 262 591 L316 591 C334 591 339 595 348 605 L440 702 C449 711 446 724 431 724 L385 724 C373 724 366 719 358 712 L290 657 Z " />
<glyph glyph-name="Dcaron" unicode="&#x10e;" horiz-adv-x="687" d="M292 0 C517 0 640 94 640 359 C640 611 517 704 291 704 L98 704 C81 704 74 697 74 680 L74 25 C74 7 81 0 99 0 L292 0 Z M286 580 C423 580 498 534 498 359 C498 171 423 124 287 124 L214 124 L214 580 L286 580 Z M329 823 L261 875 C253 881 247 887 235 887 L188 887 C173 887 169 874 178 865 L269 770 C279 760 284 756 301 756 L355 756 C373 756 378 760 387 770 L479 865 C487 874 484 887 468 887 L422 887 C409 887 404 881 395 874 L329 823 Z " />
<glyph glyph-name="dcaron" unicode="&#x10f;" horiz-adv-x="767" d="M435 264 C435 149 388 96 305 96 C223 96 179 143 179 264 C179 385 223 432 305 432 C388 432 435 379 435 264 L435 264 Z M441 19 C442 8 449 0 465 0 L543 0 C559 0 567 7 567 23 L567 682 C567 698 559 704 543 704 L457 704 C441 704 434 698 434 682 L434 456 C406 510 337 539 267 539 C128 539 44 448 44 264 C44 79 128 -11 267 -11 C338 -11 409 17 438 74 L441 19 Z M762 577 C767 587 768 593 768 607 L768 690 C768 705 760 713 743 713 L655 713 C639 713 631 705 631 690 L631 601 C631 585 638 578 654 578 L685 578 L651 478 C648 468 651 458 662 458 L691 458 C703 458 708 464 712 472 L762 577 Z " />
<glyph glyph-name="Dcroat" unicode="&#x110;" horiz-adv-x="689" d="M294 0 C520 0 642 94 642 352 C642 611 519 704 293 704 L100 704 C83 704 76 697 76 680 L76 393 L31 393 C19 393 13 386 13 374 L13 332 C13 320 19 314 31 314 L76 314 L76 25 C76 7 83 0 101 0 L294 0 Z M338 314 C351 314 356 320 356 332 L356 374 C356 386 351 393 338 393 L216 393 L216 580 L288 580 C425 580 500 534 500 352 C500 171 425 124 289 124 L216 124 L216 314 L338 314 Z " />
<glyph glyph-name="dcroat" unicode="&#x111;" horiz-adv-x="636" d="M441 19 C442 8 449 0 465 0 L543 0 C559 0 567 7 567 23 L567 587 L608 587 C621 587 626 593 626 605 L626 631 C626 644 621 650 608 650 L567 650 L567 682 C567 698 559 704 543 704 L457 704 C441 704 434 698 434 682 L434 650 L299 650 C287 650 280 644 280 631 L280 605 C280 593 287 587 299 587 L434 587 L434 456 C406 510 337 539 267 539 C128 539 44 448 44 264 C44 79 128 -11 267 -11 C338 -11 409 17 438 74 L441 19 Z M435 264 C435 149 388 96 305 96 C223 96 179 143 179 264 C179 385 223 432 305 432 C388 432 435 379 435 264 L435 264 Z " />
<glyph glyph-name="Emacron" unicode="&#x112;" horiz-adv-x="565" d="M479 301 C495 301 503 310 503 326 L503 392 C503 408 495 417 479 417 L212 417 L212 584 L492 584 C509 584 517 592 517 609 L517 680 C517 697 509 704 492 704 L98 704 C81 704 74 697 74 680 L74 25 C74 7 81 0 99 0 L496 0 C513 0 521 7 521 25 L521 96 C521 113 513 120 496 120 L212 120 L212 301 L479 301 Z M451 765 C466 765 473 772 473 786 L473 824 C473 840 466 846 451 846 L150 846 C134 846 128 840 128 824 L128 786 C128 772 134 765 150 765 L451 765 Z " />
<glyph glyph-name="emacron" unicode="&#x113;" horiz-adv-x="582" d="M336 86 C243 86 184 136 174 215 L515 215 C532 215 539 222 539 239 L539 288 C539 436 454 539 298 539 C143 539 43 440 43 263 C43 90 148 -12 325 -12 C397 -12 457 6 499 27 C513 34 518 42 514 56 L497 103 C492 117 482 124 467 117 C429 98 387 86 336 86 L336 86 Z M300 441 C379 441 419 388 419 305 L419 299 L171 299 C178 395 222 441 300 441 L300 441 Z M447 596 C463 596 469 602 469 618 L469 652 C469 667 463 674 447 674 L149 674 C135 674 128 667 128 652 L128 618 C128 602 135 596 149 596 L447 596 Z " />
<glyph glyph-name="Ebreve" unicode="&#x114;" horiz-adv-x="565" d="M479 301 C495 301 503 310 503 326 L503 392 C503 408 495 417 479 417 L212 417 L212 584 L492 584 C509 584 517 592 517 609 L517 680 C517 697 509 704 492 704 L98 704 C81 704 74 697 74 680 L74 25 C74 7 81 0 99 0 L496 0 C513 0 521 7 521 25 L521 96 C521 113 513 120 496 120 L212 120 L212 301 L479 301 Z M305 753 C412 753 458 813 459 875 C459 887 453 893 441 893 L403 893 C390 893 385 887 382 876 C375 844 357 823 305 823 C252 823 234 845 227 876 C224 887 219 893 206 893 L168 893 C156 893 150 887 150 875 C151 813 197 753 305 753 L305 753 Z " />
<glyph glyph-name="ebreve" unicode="&#x115;" horiz-adv-x="582" d="M336 86 C243 86 184 136 174 215 L515 215 C532 215 539 222 539 239 L539 288 C539 436 454 539 298 539 C143 539 43 440 43 263 C43 90 148 -12 325 -12 C397 -12 457 6 499 27 C513 34 518 42 514 56 L497 103 C492 117 482 124 467 117 C429 98 387 86 336 86 L336 86 Z M300 441 C379 441 419 388 419 305 L419 299 L171 299 C178 395 222 441 300 441 L300 441 Z M299 586 C408 586 451 648 452 710 C452 723 447 728 434 728 L398 728 C385 728 380 722 377 711 C370 680 353 655 299 655 C244 655 226 680 219 711 C217 722 212 728 199 728 L163 728 C150 728 145 723 145 710 C145 648 189 586 299 586 L299 586 Z " />
<glyph glyph-name="Edotaccent" unicode="&#x116;" horiz-adv-x="565" d="M479 301 C495 301 503 310 503 326 L503 392 C503 408 495 417 479 417 L212 417 L212 584 L492 584 C509 584 517 592 517 609 L517 680 C517 697 509 704 492 704 L98 704 C81 704 74 697 74 680 L74 25 C74 7 81 0 99 0 L496 0 C513 0 521 7 521 25 L521 96 C521 113 513 120 496 120 L212 120 L212 301 L479 301 Z M376 852 C376 868 369 875 353 875 L266 875 C250 875 243 868 243 852 L243 778 C243 762 250 755 266 755 L353 755 C369 755 376 762 376 778 L376 852 Z " />
<glyph glyph-name="edotaccent" unicode="&#x117;" horiz-adv-x="582" d="M336 86 C243 86 184 136 174 215 L515 215 C532 215 539 222 539 239 L539 288 C539 436 454 539 298 539 C143 539 43 440 43 263 C43 90 148 -12 325 -12 C397 -12 457 6 499 27 C513 34 518 42 514 56 L497 103 C492 117 482 124 467 117 C429 98 387 86 336 86 L336 86 Z M300 441 C379 441 419 388 419 305 L419 299 L171 299 C178 395 222 441 300 441 L300 441 Z M365 684 C365 700 358 708 342 708 L255 708 C239 708 232 700 232 684 L232 612 C232 596 239 589 255 589 L342 589 C358 589 365 596 365 612 L365 684 Z " />
<glyph glyph-name="Eogonek" unicode="&#x118;" horiz-adv-x="565" d="M479 301 C495 301 503 310 503 326 L503 392 C503 408 495 417 479 417 L212 417 L212 584 L492 584 C509 584 517 592 517 609 L517 680 C517 697 509 704 492 704 L98 704 C81 704 74 697 74 680 L74 25 C74 7 81 0 99 0 L411 0 C368 -21 332 -61 332 -101 C332 -155 377 -177 435 -177 C469 -177 497 -169 511 -160 C517 -157 522 -151 520 -142 L510 -107 C508 -101 504 -99 497 -99 C489 -100 483 -104 464 -104 C431 -104 415 -92 415 -72 C415 -45 434 -20 474 0 L496 0 C513 0 521 7 521 25 L521 96 C521 113 513 120 496 120 L212 120 L212 301 L479 301 Z " />
<glyph glyph-name="eogonek" unicode="&#x119;" horiz-adv-x="582" d="M336 86 C243 86 184 136 174 215 L515 215 C532 215 539 222 539 239 L539 288 C539 436 454 539 298 539 C143 539 43 440 43 263 C43 90 148 -12 324 -12 C293 -32 270 -63 270 -96 C270 -149 314 -167 369 -167 C401 -167 428 -159 442 -151 C447 -149 452 -143 450 -134 L441 -102 C439 -94 434 -92 428 -93 C421 -94 414 -98 395 -98 C365 -98 350 -88 350 -67 C350 -43 364 -23 393 -6 C435 0 471 13 499 27 C513 34 518 42 514 56 L497 103 C492 117 482 124 467 117 C429 98 387 86 336 86 L336 86 Z M300 441 C379 441 419 388 419 305 L419 299 L171 299 C178 395 222 441 300 441 L300 441 Z " />
<glyph glyph-name="Ecaron" unicode="&#x11a;" horiz-adv-x="565" d="M479 301 C495 301 503 310 503 326 L503 392 C503 408 495 417 479 417 L212 417 L212 584 L492 584 C509 584 517 592 517 609 L517 680 C517 697 509 704 492 704 L98 704 C81 704 74 697 74 680 L74 25 C74 7 81 0 99 0 L496 0 C513 0 521 7 521 25 L521 96 C521 113 513 120 496 120 L212 120 L212 301 L479 301 Z M301 823 L233 875 C225 881 219 887 207 887 L160 887 C145 887 141 874 150 865 L241 770 C251 760 256 756 273 756 L327 756 C345 756 350 760 359 770 L451 865 C459 874 456 887 440 887 L394 887 C381 887 376 881 367 874 L301 823 Z " />
<glyph glyph-name="ecaron" unicode="&#x11b;" horiz-adv-x="582" d="M336 86 C243 86 184 136 174 215 L515 215 C532 215 539 222 539 239 L539 288 C539 436 454 539 298 539 C143 539 43 440 43 263 C43 90 148 -12 325 -12 C397 -12 457 6 499 27 C513 34 518 42 514 56 L497 103 C492 117 482 124 467 117 C429 98 387 86 336 86 L336 86 Z M300 441 C379 441 419 388 419 305 L419 299 L171 299 C178 395 222 441 300 441 L300 441 Z M299 657 L230 712 C222 719 215 724 203 724 L157 724 C142 724 138 711 147 702 L239 605 C249 595 254 591 271 591 L325 591 C343 591 348 595 357 605 L449 702 C458 711 455 724 440 724 L394 724 C382 724 375 719 367 712 L299 657 Z " />
<glyph glyph-name="Gcircumflex" unicode="&#x11c;" horiz-adv-x="704" d="M404 419 C387 419 379 410 379 394 L379 333 C379 317 387 310 404 310 L513 310 L513 133 C489 122 448 113 406 113 C260 113 190 182 190 353 C190 522 258 592 417 592 C478 592 526 576 557 563 C576 555 585 560 591 575 L616 637 C622 652 616 660 601 668 C561 692 489 716 399 716 C175 716 48 603 48 353 C48 101 174 -11 390 -11 C497 -11 571 11 618 39 C629 46 640 56 640 74 L640 394 C640 411 631 419 615 419 L404 419 Z M441 768 C449 761 456 756 469 756 L516 756 C531 756 534 769 525 778 L433 873 C424 883 419 887 401 887 L347 887 C330 887 325 883 315 873 L224 778 C215 769 218 756 233 756 L279 756 C292 756 299 762 307 768 L375 820 L441 768 Z " />
<glyph glyph-name="gcircumflex" unicode="&#x11d;" horiz-adv-x="604" d="M407 302 C407 205 364 154 291 154 C220 154 177 195 177 297 C177 400 220 440 291 440 C364 440 407 397 407 302 L407 302 Z M537 504 C537 520 530 527 514 527 L438 527 C422 527 415 519 414 507 L411 460 C384 507 322 538 253 538 C133 538 45 466 45 297 C45 128 137 60 258 60 C324 60 385 87 412 138 L412 95 C412 22 365 -20 274 -20 C220 -20 171 -9 131 5 C115 10 107 4 103 -10 L86 -64 C81 -78 88 -85 100 -91 C144 -112 218 -122 284 -122 C443 -122 537 -49 537 89 L537 504 Z M365 603 C374 596 380 591 392 591 L438 591 C453 591 456 603 447 613 L355 710 C346 720 341 724 323 724 L269 724 C252 724 246 720 237 710 L145 613 C136 603 140 591 155 591 L201 591 C213 591 219 596 228 603 L297 657 L365 603 Z " />
<glyph glyph-name="Gbreve" unicode="&#x11e;" horiz-adv-x="704" d="M404 419 C387 419 379 410 379 394 L379 333 C379 317 387 310 404 310 L513 310 L513 133 C489 122 448 113 406 113 C260 113 190 182 190 353 C190 522 258 592 417 592 C478 592 526 576 557 563 C576 555 585 560 591 575 L616 637 C622 652 616 660 601 668 C561 692 489 716 399 716 C175 716 48 603 48 353 C48 101 174 -11 390 -11 C497 -11 571 11 618 39 C629 46 640 56 640 74 L640 394 C640 411 631 419 615 419 L404 419 Z M378 753 C485 753 531 813 532 875 C532 887 526 893 514 893 L476 893 C463 893 458 887 455 876 C448 844 430 823 378 823 C325 823 307 845 300 876 C297 887 292 893 279 893 L241 893 C229 893 223 887 223 875 C224 813 270 753 378 753 L378 753 Z " />
<glyph glyph-name="gbreve" unicode="&#x11f;" horiz-adv-x="604" d="M407 302 C407 205 364 154 291 154 C220 154 177 195 177 297 C177 400 220 440 291 440 C364 440 407 397 407 302 L407 302 Z M537 504 C537 520 530 527 514 527 L438 527 C422 527 415 519 414 507 L411 460 C384 507 322 538 253 538 C133 538 45 466 45 297 C45 128 137 60 258 60 C324 60 385 87 412 138 L412 95 C412 22 365 -20 274 -20 C220 -20 171 -9 131 5 C115 10 107 4 103 -10 L86 -64 C81 -78 88 -85 100 -91 C144 -112 218 -122 284 -122 C443 -122 537 -49 537 89 L537 504 Z M297 586 C406 586 449 648 450 710 C450 723 445 728 432 728 L396 728 C383 728 378 722 375 711 C368 680 351 655 297 655 C242 655 224 680 217 711 C215 722 210 728 197 728 L161 728 C148 728 143 723 143 710 C143 648 187 586 297 586 L297 586 Z " />
<glyph glyph-name="Gdotaccent" unicode="&#x120;" horiz-adv-x="704" d="M404 419 C387 419 379 410 379 394 L379 333 C379 317 387 310 404 310 L513 310 L513 133 C489 122 448 113 406 113 C260 113 190 182 190 353 C190 522 258 592 417 592 C478 592 526 576 557 563 C576 555 585 560 591 575 L616 637 C622 652 616 660 601 668 C561 692 489 716 399 716 C175 716 48 603 48 353 C48 101 174 -11 390 -11 C497 -11 571 11 618 39 C629 46 640 56 640 74 L640 394 C640 411 631 419 615 419 L404 419 Z M452 852 C452 868 445 875 429 875 L342 875 C326 875 319 868 319 852 L319 778 C319 762 326 755 342 755 L429 755 C445 755 452 762 452 778 L452 852 Z " />
<glyph glyph-name="gdotaccent" unicode="&#x121;" horiz-adv-x="604" d="M407 302 C407 205 364 154 291 154 C220 154 177 195 177 297 C177 400 220 440 291 440 C364 440 407 397 407 302 L407 302 Z M537 504 C537 520 530 527 514 527 L438 527 C422 527 415 519 414 507 L411 460 C384 507 322 538 253 538 C133 538 45 466 45 297 C45 128 137 60 258 60 C324 60 385 87 412 138 L412 95 C412 22 365 -20 274 -20 C220 -20 171 -9 131 5 C115 10 107 4 103 -10 L86 -64 C81 -78 88 -85 100 -91 C144 -112 218 -122 284 -122 C443 -122 537 -49 537 89 L537 504 Z M369 684 C369 700 362 708 346 708 L259 708 C243 708 236 700 236 684 L236 612 C236 596 243 589 259 589 L346 589 C362 589 369 596 369 612 L369 684 Z " />
<glyph glyph-name="Gcommaaccent" unicode="&#x122;" horiz-adv-x="704" d="M404 419 C387 419 379 410 379 394 L379 333 C379 317 387 310 404 310 L513 310 L513 133 C489 122 448 113 406 113 C260 113 190 182 190 353 C190 522 258 592 417 592 C478 592 526 576 557 563 C576 555 585 560 591 575 L616 637 C622 652 616 660 601 668 C561 692 489 716 399 716 C175 716 48 603 48 353 C48 101 174 -11 390 -11 C497 -11 571 11 618 39 C629 46 640 56 640 74 L640 394 C640 411 631 419 615 419 L404 419 Z M463 -168 C468 -158 469 -153 469 -141 L469 -69 C469 -55 462 -48 447 -48 L364 -48 C349 -48 342 -55 342 -69 L342 -149 C342 -163 349 -170 363 -170 L392 -170 L367 -261 C364 -271 368 -279 379 -279 L399 -279 C410 -279 414 -273 418 -264 L463 -168 Z " />
<glyph glyph-name="gcommaaccent" unicode="&#x123;" horiz-adv-x="604" d="M407 302 C407 205 364 154 291 154 C220 154 177 195 177 297 C177 400 220 440 291 440 C364 440 407 397 407 302 L407 302 Z M537 504 C537 520 530 527 514 527 L438 527 C422 527 415 519 414 507 L411 460 C384 507 322 538 253 538 C133 538 45 466 45 297 C45 128 137 60 258 60 C324 60 385 87 412 138 L412 95 C412 22 365 -20 274 -20 C220 -20 171 -9 131 5 C115 10 107 4 103 -10 L86 -64 C81 -78 88 -85 100 -91 C144 -112 218 -122 284 -122 C443 -122 537 -49 537 89 L537 504 Z M239 708 C235 699 233 694 233 682 L233 615 C233 601 240 595 255 595 L333 595 C347 595 354 601 354 615 L354 690 C354 703 348 710 333 710 L307 710 L328 798 C330 807 328 815 317 815 L298 815 C287 815 284 810 279 801 L239 708 Z " />
<glyph glyph-name="Hcircumflex" unicode="&#x124;" horiz-adv-x="705" d="M492 25 C492 7 500 0 516 0 L607 0 C624 0 631 7 631 25 L631 680 C631 697 624 704 607 704 L516 704 C500 704 492 697 492 680 L492 422 L214 422 L214 680 C214 697 206 704 189 704 L99 704 C81 704 74 697 74 680 L74 25 C74 7 81 0 99 0 L189 0 C206 0 214 7 214 25 L214 296 L492 296 L492 25 Z M402 768 C410 761 417 756 430 756 L477 756 C492 756 495 769 486 778 L394 873 C385 883 380 887 362 887 L308 887 C291 887 286 883 276 873 L185 778 C176 769 179 756 194 756 L240 756 C253 756 260 762 268 768 L336 820 L402 768 Z " />
<glyph glyph-name="hcircumflex" unicode="&#x125;" horiz-adv-x="614" d="M551 343 C551 465 494 539 369 539 C276 539 224 496 202 457 L202 682 C202 698 195 704 179 704 L93 704 C77 704 70 698 70 682 L70 23 C70 7 77 0 93 0 L179 0 C195 0 202 7 202 23 L202 304 C202 373 243 425 321 425 C392 425 419 388 419 320 L419 23 C419 7 426 0 442 0 L528 0 C544 0 551 7 551 23 L551 343 Z M364 768 C372 761 379 756 392 756 L439 756 C454 756 457 769 448 778 L356 873 C347 883 342 887 324 887 L270 887 C253 887 248 883 238 873 L147 778 C138 769 141 756 156 756 L202 756 C215 756 222 762 230 768 L298 820 L364 768 Z " />
<glyph glyph-name="Hbar" unicode="&#x126;" horiz-adv-x="694" d="M492 25 C492 7 500 0 516 0 L607 0 C624 0 631 7 631 25 L631 537 L674 537 C687 537 692 542 692 555 L692 581 C692 594 687 599 674 599 L631 599 L631 680 C631 697 624 704 607 704 L516 704 C500 704 492 697 492 680 L492 599 L214 599 L214 680 C214 697 206 704 189 704 L99 704 C81 704 74 697 74 680 L74 599 L32 599 C19 599 13 594 13 581 L13 555 C13 542 19 537 32 537 L74 537 L74 25 C74 7 81 0 99 0 L189 0 C206 0 214 7 214 25 L214 296 L492 296 L492 25 Z M214 422 L214 537 L492 537 L492 422 L214 422 Z " />
<glyph glyph-name="hbar" unicode="&#x127;" horiz-adv-x="625" d="M557 350 C557 467 493 539 368 539 C266 539 215 494 194 459 L194 587 L344 587 C357 587 363 593 363 605 L363 633 C363 646 357 652 344 652 L194 652 L194 684 C194 698 188 704 173 704 L98 704 C84 704 77 698 77 684 L77 652 L31 652 C18 652 13 646 13 633 L13 605 C13 593 18 587 31 587 L77 587 L77 21 C77 7 84 0 98 0 L173 0 C188 0 194 7 194 21 L194 303 C194 376 242 428 329 428 C409 428 440 391 440 323 L440 21 C440 7 446 0 461 0 L536 0 C551 0 557 7 557 21 L557 350 Z " />
<glyph glyph-name="Itilde" unicode="&#x128;" horiz-adv-x="299" d="M80 25 C80 7 87 0 104 0 L195 0 C211 0 220 7 220 25 L220 680 C220 697 211 704 195 704 L104 704 C87 704 80 697 80 680 L80 25 Z M327 834 C327 857 320 865 305 865 L275 865 C261 865 254 862 252 849 L251 841 C249 827 241 822 227 822 C213 822 195 827 174 835 L136 849 C107 859 77 867 51 867 C-5 867 -30 831 -30 783 C-30 760 -23 754 -9 754 L22 754 C35 754 43 758 45 771 L46 779 C47 791 56 795 70 795 C85 795 105 790 126 782 L161 769 C190 758 220 751 248 751 C303 751 327 786 327 834 L327 834 Z " />
<glyph glyph-name="itilde" unicode="&#x129;" horiz-adv-x="273" d="M202 504 C202 520 196 527 180 527 L94 527 C78 527 70 520 70 504 L70 23 C70 7 78 0 94 0 L180 0 C196 0 202 7 202 23 L202 504 Z M306 669 C306 690 300 699 286 699 L255 699 C242 699 235 696 233 683 L232 676 C230 663 222 658 210 658 C198 658 180 663 161 670 L125 683 C97 693 69 700 41 700 C-11 700 -34 668 -34 619 C-34 597 -27 592 -12 592 L18 592 C31 592 38 596 40 607 L42 615 C46 637 74 634 113 619 L148 606 C174 597 204 589 233 589 C283 589 306 620 306 669 L306 669 Z " />
<glyph glyph-name="Imacron" unicode="&#x12a;" horiz-adv-x="299" d="M80 25 C80 7 87 0 104 0 L195 0 C211 0 220 7 220 25 L220 680 C220 697 211 704 195 704 L104 704 C87 704 80 697 80 680 L80 25 Z M299 765 C314 765 321 772 321 786 L321 824 C321 840 314 846 299 846 L-2 846 C-18 846 -24 840 -24 824 L-24 786 C-24 772 -18 765 -2 765 L299 765 Z " />
<glyph glyph-name="imacron" unicode="&#x12b;" horiz-adv-x="273" d="M202 504 C202 520 196 527 180 527 L94 527 C78 527 70 520 70 504 L70 23 C70 7 78 0 94 0 L180 0 C196 0 202 7 202 23 L202 504 Z M285 596 C301 596 307 602 307 618 L307 652 C307 667 301 674 285 674 L-13 674 C-27 674 -34 667 -34 652 L-34 618 C-34 602 -27 596 -13 596 L285 596 Z " />
<glyph glyph-name="Ibreve" unicode="&#x12c;" horiz-adv-x="299" d="M80 25 C80 7 87 0 104 0 L195 0 C211 0 220 7 220 25 L220 680 C220 697 211 704 195 704 L104 704 C87 704 80 697 80 680 L80 25 Z M149 753 C256 753 302 813 303 875 C303 887 297 893 285 893 L247 893 C234 893 229 887 226 876 C219 844 201 823 149 823 C96 823 78 845 71 876 C68 887 63 893 50 893 L12 893 C0 893 -6 887 -6 875 C-5 813 41 753 149 753 L149 753 Z " />
<glyph glyph-name="ibreve" unicode="&#x12d;" horiz-adv-x="273" d="M202 504 C202 520 196 527 180 527 L94 527 C78 527 70 520 70 504 L70 23 C70 7 78 0 94 0 L180 0 C196 0 202 7 202 23 L202 504 Z M137 586 C246 586 289 648 290 710 C290 723 285 728 272 728 L236 728 C223 728 218 722 215 711 C208 680 191 655 137 655 C82 655 64 680 57 711 C55 722 50 728 37 728 L1 728 C-12 728 -17 723 -17 710 C-17 648 27 586 137 586 L137 586 Z " />
<glyph glyph-name="Iogonek" unicode="&#x12e;" horiz-adv-x="299" d="M80 25 C80 7 87 0 104 0 L120 0 C77 -21 41 -61 41 -101 C41 -155 86 -177 144 -177 C178 -177 206 -169 220 -160 C226 -157 231 -151 229 -142 L219 -107 C217 -101 213 -99 206 -99 C198 -100 192 -104 173 -104 C140 -104 124 -92 124 -72 C124 -45 143 -20 183 0 L195 0 C211 0 220 7 220 25 L220 680 C220 697 211 704 195 704 L104 704 C87 704 80 697 80 680 L80 25 Z " />
<glyph glyph-name="iogonek" unicode="&#x12f;" horiz-adv-x="271" d="M202 504 C202 520 195 527 179 527 L92 527 C76 527 69 520 69 504 L69 23 C69 7 76 0 92 0 L104 0 C63 -19 28 -56 28 -96 C28 -149 72 -167 127 -167 C159 -167 186 -159 200 -151 C205 -149 210 -143 208 -134 L199 -102 C197 -94 192 -92 186 -93 C179 -94 172 -98 153 -98 C123 -98 108 -88 108 -67 C108 -40 126 -19 163 0 L179 0 C195 0 202 7 202 23 L202 504 Z M202 679 C202 695 196 702 180 702 L91 702 C75 702 69 695 69 679 L69 609 C69 593 75 586 91 586 L180 586 C196 586 202 593 202 609 L202 679 Z " />
<glyph glyph-name="Idotaccent" unicode="&#x130;" horiz-adv-x="299" d="M80 25 C80 7 87 0 104 0 L195 0 C211 0 220 7 220 25 L220 680 C220 697 211 704 195 704 L104 704 C87 704 80 697 80 680 L80 25 Z M215 852 C215 868 208 875 192 875 L105 875 C89 875 82 868 82 852 L82 778 C82 762 89 755 105 755 L192 755 C208 755 215 762 215 778 L215 852 Z " />
<glyph glyph-name="dotlessi" unicode="&#x131;" horiz-adv-x="273" d="M202 504 C202 520 196 527 180 527 L94 527 C78 527 70 520 70 504 L70 23 C70 7 78 0 94 0 L180 0 C196 0 202 7 202 23 L202 504 Z " />
<glyph glyph-name="IJ" unicode="&#x132;" horiz-adv-x="782" d="M80 25 C80 7 87 0 104 0 L195 0 C211 0 220 7 220 25 L220 680 C220 697 211 704 195 704 L104 704 C87 704 80 697 80 680 L80 25 Z M572 240 C572 156 535 113 462 113 C418 113 385 126 360 139 C344 147 335 139 330 125 L306 60 C299 42 308 35 321 27 C354 7 415 -11 483 -11 C633 -11 711 68 711 228 L711 680 C711 697 703 704 687 704 L596 704 C579 704 572 697 572 680 L572 240 Z " />
<glyph glyph-name="ij" unicode="&#x133;" horiz-adv-x="554" d="M202 504 C202 520 195 527 179 527 L92 527 C76 527 69 520 69 504 L69 23 C69 7 76 0 92 0 L179 0 C195 0 202 7 202 23 L202 504 Z M202 679 C202 695 196 702 180 702 L91 702 C75 702 69 695 69 679 L69 609 C69 593 75 586 91 586 L180 586 C196 586 202 593 202 609 L202 679 Z M352 155 C352 113 338 96 309 96 C296 96 285 98 271 100 C258 101 250 95 250 81 L250 23 C250 9 257 3 270 0 C289 -5 316 -9 344 -9 C444 -9 485 36 485 142 L485 504 C485 520 477 527 462 527 L375 527 C359 527 352 520 352 504 L352 155 Z M486 679 C486 695 478 702 462 702 L375 702 C359 702 351 695 351 679 L351 609 C351 593 359 586 375 586 L462 586 C478 586 486 593 486 609 L486 679 Z " />
<glyph glyph-name="Jcircumflex" unicode="&#x134;" horiz-adv-x="495" d="M287 240 C287 156 250 113 177 113 C133 113 100 126 75 139 C59 147 50 139 45 125 L21 60 C14 42 23 35 36 27 C69 7 130 -11 198 -11 C348 -11 426 68 426 228 L426 680 C426 697 418 704 402 704 L311 704 C294 704 287 697 287 680 L287 240 Z M303 768 C311 761 318 756 331 756 L378 756 C393 756 396 769 387 778 L295 873 C286 883 281 887 263 887 L209 887 C192 887 187 883 177 873 L86 778 C77 769 80 756 95 756 L141 756 C154 756 161 762 169 768 L237 820 L303 768 Z " />
<glyph glyph-name="jcircumflex" unicode="&#x135;" horiz-adv-x="288" d="M86 47 C86 5 73 -11 43 -11 C33 -11 18 -9 4 -8 C-9 -7 -17 -12 -17 -27 L-17 -85 C-17 -99 -9 -105 4 -109 C23 -114 49 -116 77 -116 C177 -116 218 -72 218 34 L218 504 C218 520 211 527 195 527 L108 527 C93 527 86 520 86 504 L86 47 Z M216 603 C225 596 231 591 243 591 L289 591 C304 591 307 603 298 613 L206 710 C197 720 192 724 174 724 L120 724 C103 724 97 720 88 710 L-4 613 C-13 603 -9 591 6 591 L52 591 C64 591 70 596 79 603 L148 657 L216 603 Z " />
<glyph glyph-name="Kcommaaccent" unicode="&#x136;" horiz-adv-x="636" d="M214 438 L214 680 C214 697 206 704 189 704 L99 704 C81 704 74 697 74 680 L74 25 C74 7 81 0 99 0 L189 0 C206 0 214 7 214 25 L214 308 L454 22 C464 10 473 0 490 0 L596 0 C615 0 620 17 609 31 L323 378 L603 674 C615 687 609 704 590 704 L486 704 C468 704 460 696 449 684 L214 438 Z M399 -168 C404 -158 405 -153 405 -141 L405 -69 C405 -55 398 -48 383 -48 L300 -48 C285 -48 278 -55 278 -69 L278 -149 C278 -163 285 -170 299 -170 L328 -170 L303 -261 C300 -271 304 -279 315 -279 L335 -279 C346 -279 350 -273 354 -264 L399 -168 Z " />
<glyph glyph-name="kcommaaccent" unicode="&#x137;" horiz-adv-x="544" d="M516 0 C532 0 539 16 527 29 L293 291 L516 498 C529 511 522 527 506 527 L405 527 C388 527 380 519 371 511 L202 355 L202 682 C202 698 195 704 179 704 L93 704 C77 704 70 698 70 682 L70 23 C70 7 77 0 93 0 L179 0 C195 0 202 7 202 23 L202 218 L379 18 C387 8 397 0 414 0 L516 0 Z M353 -161 C357 -152 359 -147 359 -135 L359 -68 C359 -54 352 -48 337 -48 L259 -48 C245 -48 238 -54 238 -68 L238 -143 C238 -156 244 -163 259 -163 L285 -163 L264 -251 C262 -260 264 -268 275 -268 L294 -268 C305 -268 308 -263 313 -254 L353 -161 Z " />
<glyph glyph-name="kgreenlandic" unicode="&#x138;" horiz-adv-x="541" d="M513 0 C529 0 535 15 524 29 L290 291 L513 498 C526 511 519 527 503 527 L402 527 C385 527 377 520 369 511 L199 355 L199 504 C199 520 192 527 176 527 L90 527 C74 527 67 520 67 504 L67 23 C67 7 74 0 90 0 L178 0 C193 0 199 6 199 21 L199 218 L376 18 C384 8 394 0 411 0 L513 0 Z " />
<glyph glyph-name="Lacute" unicode="&#x139;" horiz-adv-x="547" d="M221 680 C221 697 213 704 196 704 L106 704 C88 704 81 697 81 680 L81 25 C81 7 88 0 106 0 L490 0 C507 0 515 7 515 25 L515 102 C515 118 507 126 490 126 L221 126 L221 680 Z M116 775 C111 765 116 756 130 756 L179 756 C194 756 201 760 210 769 L298 854 C308 864 306 880 290 880 L189 880 C173 880 166 873 161 863 L116 775 Z " />
<glyph glyph-name="lacute" unicode="&#x13a;" horiz-adv-x="269" d="M201 682 C201 698 194 704 178 704 L91 704 C75 704 69 698 69 682 L69 23 C69 7 75 0 91 0 L178 0 C194 0 201 7 201 23 L201 682 Z M91 775 C86 765 91 756 105 756 L154 756 C169 756 176 760 185 769 L273 854 C283 864 281 880 265 880 L164 880 C148 880 141 873 136 863 L91 775 Z " />
<glyph glyph-name="Lcommaaccent" unicode="&#x13b;" horiz-adv-x="547" d="M214 680 C214 697 206 704 189 704 L99 704 C81 704 74 697 74 680 L74 25 C74 7 81 0 99 0 L483 0 C500 0 508 7 508 25 L508 102 C508 118 500 126 483 126 L214 126 L214 680 Z M340 -168 C345 -158 346 -153 346 -141 L346 -69 C346 -55 339 -48 324 -48 L241 -48 C226 -48 219 -55 219 -69 L219 -149 C219 -163 226 -170 240 -170 L269 -170 L244 -261 C241 -271 245 -279 256 -279 L276 -279 C287 -279 291 -273 295 -264 L340 -168 Z " />
<glyph glyph-name="lcommaaccent" unicode="&#x13c;" horiz-adv-x="269" d="M202 682 C202 698 195 704 179 704 L92 704 C76 704 70 698 70 682 L70 23 C70 7 76 0 92 0 L179 0 C195 0 202 7 202 23 L202 682 Z M189 -161 C193 -152 195 -147 195 -135 L195 -68 C195 -54 188 -48 173 -48 L95 -48 C81 -48 74 -54 74 -68 L74 -143 C74 -156 80 -163 95 -163 L121 -163 L100 -251 C98 -260 100 -268 111 -268 L130 -268 C141 -268 144 -263 149 -254 L189 -161 Z " />
<glyph glyph-name="Lcaron" unicode="&#x13d;" horiz-adv-x="547" d="M214 680 C214 697 206 704 189 704 L99 704 C81 704 74 697 74 680 L74 25 C74 7 81 0 99 0 L483 0 C500 0 508 7 508 25 L508 102 C508 118 500 126 483 126 L214 126 L214 680 Z M448 578 C453 588 454 594 454 608 L454 691 C454 706 446 714 429 714 L341 714 C325 714 317 706 317 691 L317 602 C317 586 324 579 340 579 L371 579 L337 479 C334 469 337 459 348 459 L377 459 C389 459 394 465 398 473 L448 578 Z " />
<glyph glyph-name="lcaron" unicode="&#x13e;" horiz-adv-x="403" d="M202 682 C202 698 195 704 179 704 L92 704 C76 704 70 698 70 682 L70 23 C70 7 76 0 92 0 L179 0 C195 0 202 7 202 23 L202 682 Z M398 577 C403 587 404 593 404 607 L404 690 C404 705 396 713 379 713 L291 713 C275 713 267 705 267 690 L267 601 C267 585 274 578 290 578 L321 578 L287 478 C284 468 287 458 298 458 L327 458 C339 458 344 464 348 472 L398 577 Z " />
<glyph glyph-name="Ldot" unicode="&#x13f;" horiz-adv-x="556" d="M214 680 C214 697 206 704 189 704 L99 704 C81 704 74 697 74 680 L74 25 C74 7 81 0 99 0 L483 0 C500 0 508 7 508 25 L508 102 C508 118 500 126 483 126 L214 126 L214 680 Z M362 298 C362 282 369 275 385 275 L477 275 C493 275 500 282 500 298 L500 394 C500 409 493 416 475 416 L387 416 C371 416 362 409 362 394 L362 298 Z " />
<glyph glyph-name="ldot" unicode="&#x140;" horiz-adv-x="389" d="M200 682 C200 698 193 704 177 704 L90 704 C74 704 68 698 68 682 L68 23 C68 7 74 0 90 0 L177 0 C193 0 200 7 200 23 L200 682 Z M259 232 C259 216 266 209 282 209 L374 209 C390 209 397 216 397 232 L397 328 C397 343 390 350 372 350 L284 350 C268 350 259 343 259 328 L259 232 Z " />
<glyph glyph-name="Lslash" unicode="&#x141;" horiz-adv-x="549" d="M216 680 C216 697 208 704 191 704 L101 704 C83 704 76 697 76 680 L76 344 L28 316 C16 309 14 302 21 290 L35 266 C42 254 49 252 61 259 L76 267 L76 25 C76 7 83 0 101 0 L485 0 C502 0 510 7 510 25 L510 102 C510 118 502 126 485 126 L216 126 L216 349 L360 433 C371 440 373 447 367 459 L354 483 C347 495 339 497 326 490 L216 424 L216 680 Z " />
<glyph glyph-name="lslash" unicode="&#x142;" horiz-adv-x="273" d="M203 682 C203 698 196 704 180 704 L93 704 C77 704 71 698 71 682 L71 364 L30 340 C17 333 16 326 22 314 L36 290 C43 278 51 276 63 283 L71 287 L71 23 C71 7 77 0 93 0 L180 0 C196 0 203 7 203 23 L203 364 L244 389 C256 396 258 402 251 414 L237 439 C231 450 224 451 211 445 L203 441 L203 682 Z " />
<glyph glyph-name="Nacute" unicode="&#x143;" horiz-adv-x="709" d="M635 681 C635 697 627 704 611 704 L524 704 C507 704 500 697 500 680 L500 234 L219 688 C212 700 205 704 187 704 L99 704 C81 704 74 697 74 680 L74 25 C74 7 81 0 99 0 L185 0 C202 0 209 7 209 25 L209 470 L490 17 C497 5 504 0 521 0 L611 0 C627 0 635 7 635 25 L635 681 Z M302 775 C297 765 302 756 316 756 L365 756 C380 756 387 760 396 769 L484 854 C494 864 492 880 476 880 L375 880 C359 880 352 873 347 863 L302 775 Z " />
<glyph glyph-name="nacute" unicode="&#x144;" horiz-adv-x="608" d="M545 344 C545 465 489 539 364 539 C269 539 220 495 196 455 L191 507 C190 519 183 527 168 527 L89 527 C73 527 66 520 66 504 L66 23 C66 7 73 0 89 0 L175 0 C191 0 198 7 198 23 L198 304 C198 377 239 425 315 425 C387 425 412 388 412 320 L412 23 C412 7 420 0 436 0 L522 0 C538 0 545 7 545 23 L545 344 Z M235 610 C230 600 235 591 248 591 L298 591 C312 591 319 594 328 603 L416 689 C426 699 424 714 408 714 L307 714 C292 714 285 708 280 698 L235 610 Z " />
<glyph glyph-name="Ncommaaccent" unicode="&#x145;" horiz-adv-x="709" d="M635 681 C635 697 627 704 611 704 L524 704 C507 704 500 697 500 680 L500 234 L219 688 C212 700 205 704 187 704 L99 704 C81 704 74 697 74 680 L74 25 C74 7 81 0 99 0 L185 0 C202 0 209 7 209 25 L209 470 L490 17 C497 5 504 0 521 0 L611 0 C627 0 635 7 635 25 L635 681 Z M397 -168 C402 -158 403 -153 403 -141 L403 -69 C403 -55 396 -48 381 -48 L298 -48 C283 -48 276 -55 276 -69 L276 -149 C276 -163 283 -170 297 -170 L326 -170 L301 -261 C298 -271 302 -279 313 -279 L333 -279 C344 -279 348 -273 352 -264 L397 -168 Z " />
<glyph glyph-name="ncommaaccent" unicode="&#x146;" horiz-adv-x="608" d="M545 344 C545 465 489 539 364 539 C269 539 220 495 196 455 L191 507 C190 519 183 527 168 527 L89 527 C73 527 66 520 66 504 L66 23 C66 7 73 0 89 0 L175 0 C191 0 198 7 198 23 L198 304 C198 377 239 425 315 425 C387 425 412 388 412 320 L412 23 C412 7 420 0 436 0 L522 0 C538 0 545 7 545 23 L545 344 Z M363 -161 C367 -152 369 -147 369 -135 L369 -68 C369 -54 362 -48 347 -48 L269 -48 C255 -48 248 -54 248 -68 L248 -143 C248 -156 254 -163 269 -163 L295 -163 L274 -251 C272 -260 274 -268 285 -268 L304 -268 C315 -268 318 -263 323 -254 L363 -161 Z " />
<glyph glyph-name="Ncaron" unicode="&#x147;" horiz-adv-x="709" d="M635 681 C635 697 627 704 611 704 L524 704 C507 704 500 697 500 680 L500 234 L219 688 C212 700 205 704 187 704 L99 704 C81 704 74 697 74 680 L74 25 C74 7 81 0 99 0 L185 0 C202 0 209 7 209 25 L209 470 L490 17 C497 5 504 0 521 0 L611 0 C627 0 635 7 635 25 L635 681 Z M340 823 L272 875 C264 881 258 887 246 887 L199 887 C184 887 180 874 189 865 L280 770 C290 760 295 756 312 756 L366 756 C384 756 389 760 398 770 L490 865 C498 874 495 887 479 887 L433 887 C420 887 415 881 406 874 L340 823 Z " />
<glyph glyph-name="ncaron" unicode="&#x148;" horiz-adv-x="608" d="M545 344 C545 465 489 539 364 539 C269 539 220 495 196 455 L191 507 C190 519 183 527 168 527 L89 527 C73 527 66 520 66 504 L66 23 C66 7 73 0 89 0 L175 0 C191 0 198 7 198 23 L198 304 C198 377 239 425 315 425 C387 425 412 388 412 320 L412 23 C412 7 420 0 436 0 L522 0 C538 0 545 7 545 23 L545 344 Z M300 657 L231 712 C223 719 216 724 204 724 L158 724 C143 724 139 711 148 702 L240 605 C250 595 255 591 272 591 L326 591 C344 591 349 595 358 605 L450 702 C459 711 456 724 441 724 L395 724 C383 724 376 719 368 712 L300 657 Z " />
<glyph glyph-name="napostrophe" unicode="&#x149;" horiz-adv-x="741" d="M678 344 C678 465 622 539 497 539 C402 539 353 495 329 455 L324 507 C323 519 316 527 301 527 L222 527 C206 527 199 520 199 504 L199 23 C199 7 206 0 222 0 L308 0 C324 0 331 7 331 23 L331 304 C331 377 372 425 448 425 C520 425 545 388 545 320 L545 23 C545 7 553 0 569 0 L655 0 C671 0 678 7 678 23 L678 344 Z M134 592 C139 602 140 608 140 622 L140 705 C140 720 132 728 115 728 L27 728 C11 728 3 720 3 705 L3 616 C3 600 10 593 26 593 L57 593 L23 493 C20 483 23 473 34 473 L63 473 C75 473 80 479 84 487 L134 592 Z " />
<glyph glyph-name="Eng" unicode="&#x14a;" horiz-adv-x="709" d="M635 680 C635 697 627 704 611 704 L524 704 C507 704 500 697 500 680 L500 238 L219 688 C212 700 205 704 187 704 L99 704 C81 704 74 697 74 680 L74 25 C74 7 81 0 99 0 L185 0 C202 0 209 7 209 25 L209 470 L500 27 C500 -1 487 -12 461 -12 C447 -12 434 -10 424 -8 C411 -6 404 -12 402 -26 L394 -84 C392 -98 402 -104 415 -107 C430 -111 462 -116 495 -116 C587 -116 635 -72 635 22 L635 680 Z " />
<glyph glyph-name="eng" unicode="&#x14b;" horiz-adv-x="608" d="M412 47 C412 12 400 -11 372 -11 C361 -11 348 -10 334 -8 C320 -6 313 -12 313 -27 L313 -84 C313 -98 320 -104 333 -107 C352 -112 377 -116 405 -116 C503 -116 545 -70 545 34 L545 343 C545 465 489 539 364 539 C269 539 220 495 196 455 L192 507 C191 519 184 527 168 527 L89 527 C73 527 66 520 66 504 L66 23 C66 7 73 0 89 0 L175 0 C191 0 198 7 198 23 L198 304 C198 377 239 425 315 425 C387 425 412 388 412 320 L412 47 Z " />
<glyph glyph-name="Omacron" unicode="&#x14c;" horiz-adv-x="718" d="M359 716 C163 716 47 595 47 352 C47 109 163 -11 358 -11 C555 -11 671 109 671 352 C671 595 555 716 359 716 L359 716 Z M359 111 C245 111 189 191 189 352 C189 513 245 594 359 594 C472 594 528 513 528 352 C528 191 472 111 359 111 L359 111 Z M509 765 C524 765 531 772 531 786 L531 824 C531 840 524 846 509 846 L208 846 C192 846 186 840 186 824 L186 786 C186 772 192 765 208 765 L509 765 Z " />
<glyph glyph-name="omacron" unicode="&#x14d;" horiz-adv-x="607" d="M303 -11 C145 -11 43 83 43 264 C43 445 145 539 303 539 C461 539 564 445 564 264 C564 83 461 -11 303 -11 L303 -11 Z M303 95 C383 95 429 148 429 264 C429 380 383 433 303 433 C223 433 178 380 178 264 C178 148 223 95 303 95 L303 95 Z M452 596 C468 596 474 602 474 618 L474 652 C474 667 468 674 452 674 L154 674 C140 674 133 667 133 652 L133 618 C133 602 140 596 154 596 L452 596 Z " />
<glyph glyph-name="Obreve" unicode="&#x14e;" horiz-adv-x="718" d="M359 716 C163 716 47 595 47 352 C47 109 163 -11 358 -11 C555 -11 671 109 671 352 C671 595 555 716 359 716 L359 716 Z M359 111 C245 111 189 191 189 352 C189 513 245 594 359 594 C472 594 528 513 528 352 C528 191 472 111 359 111 L359 111 Z M359 753 C466 753 512 813 513 875 C513 887 507 893 495 893 L457 893 C444 893 439 887 436 876 C429 844 411 823 359 823 C306 823 288 845 281 876 C278 887 273 893 260 893 L222 893 C210 893 204 887 204 875 C205 813 251 753 359 753 L359 753 Z " />
<glyph glyph-name="obreve" unicode="&#x14f;" horiz-adv-x="607" d="M303 -11 C461 -11 564 83 564 264 C564 445 461 539 303 539 C145 539 43 445 43 264 C43 83 145 -11 303 -11 L303 -11 Z M303 95 C223 95 178 148 178 264 C178 380 223 433 303 433 C383 433 429 380 429 264 C429 148 383 95 303 95 L303 95 Z M304 586 C413 586 456 648 457 710 C457 723 452 728 439 728 L403 728 C390 728 385 722 382 711 C375 680 358 655 304 655 C249 655 231 680 224 711 C222 722 217 728 204 728 L168 728 C155 728 150 723 150 710 C150 648 194 586 304 586 L304 586 Z " />
<glyph glyph-name="Ohungarumlaut" unicode="&#x150;" horiz-adv-x="718" d="M359 716 C163 716 47 595 47 352 C47 109 163 -11 358 -11 C555 -11 671 109 671 352 C671 595 555 716 359 716 L359 716 Z M359 111 C245 111 189 191 189 352 C189 513 245 594 359 594 C472 594 528 513 528 352 C528 191 472 111 359 111 L359 111 Z M223 778 C219 768 223 758 237 758 L285 758 C301 758 308 761 316 771 L391 859 C399 868 397 886 381 886 L291 886 C274 886 268 878 263 868 L223 778 Z M410 778 C406 768 411 758 426 758 L473 758 C489 758 496 760 505 771 L579 859 C588 869 584 886 568 886 L479 886 C462 886 456 879 451 868 L410 778 Z " />
<glyph glyph-name="ohungarumlaut" unicode="&#x151;" horiz-adv-x="607" d="M303 -11 C145 -11 43 83 43 264 C43 445 145 539 303 539 C461 539 564 445 564 264 C564 83 461 -11 303 -11 L303 -11 Z M303 95 C383 95 429 148 429 264 C429 380 383 433 303 433 C223 433 178 380 178 264 C178 148 223 95 303 95 L303 95 Z M166 610 C162 600 167 591 181 591 L225 591 C240 591 247 594 255 603 L328 689 C337 699 333 714 318 714 L233 714 C217 714 211 707 207 698 L166 610 Z M348 610 C344 600 349 591 362 591 L406 591 C421 591 429 593 437 603 L510 689 C518 698 515 714 499 714 L414 714 C398 714 392 708 388 698 L348 610 Z " />
<glyph glyph-name="OE" unicode="&#x152;" horiz-adv-x="932" d="M846 301 C862 301 870 310 870 326 L870 392 C870 408 862 417 846 417 L604 417 L604 584 L859 584 C876 584 884 592 884 608 L884 680 C884 697 876 704 859 704 L420 704 C194 704 76 611 76 352 C76 94 193 0 419 0 L863 0 C880 0 888 7 888 25 L888 97 C888 113 880 121 863 121 L604 121 L604 301 L846 301 Z M467 580 L467 124 L423 124 C287 124 218 171 218 352 C218 534 288 580 424 580 L467 580 Z " />
<glyph glyph-name="oe" unicode="&#x153;" horiz-adv-x="940" d="M699 86 C614 86 555 138 545 221 L873 221 C889 221 896 227 896 244 L896 293 C896 436 810 539 666 539 C583 539 520 506 484 447 C447 507 379 539 292 539 C144 539 43 444 43 264 C43 85 145 -11 296 -11 C381 -11 450 26 486 85 C524 26 599 -12 688 -12 C755 -12 816 5 860 27 C872 34 878 41 873 54 L856 103 C851 117 840 123 825 116 C787 97 745 86 699 86 L699 86 Z M298 95 C222 95 178 149 178 264 C178 379 222 433 298 433 C373 433 419 379 419 264 C419 149 373 95 298 95 L298 95 Z M664 441 C738 441 776 386 776 310 L776 304 L542 304 C549 394 594 441 664 441 L664 441 Z " />
<glyph glyph-name="Racute" unicode="&#x154;" horiz-adv-x="663" d="M213 351 L213 584 L321 584 C431 584 475 552 475 467 C475 388 434 351 320 351 L213 351 Z M99 704 C81 704 74 697 74 680 L74 25 C74 7 81 0 99 0 L188 0 C205 0 213 7 213 25 L213 235 L306 235 L468 20 C477 8 485 0 503 0 L598 0 C618 0 624 17 613 31 L443 254 C549 277 615 345 615 467 C615 635 517 704 323 704 L99 704 Z M278 775 C273 765 278 756 292 756 L341 756 C356 756 363 760 372 769 L460 854 C470 864 468 880 452 880 L351 880 C335 880 328 873 323 863 L278 775 Z " />
<glyph glyph-name="racute" unicode="&#x155;" horiz-adv-x="404" d="M90 527 C74 527 66 520 66 504 L66 23 C66 7 74 0 90 0 L176 0 C192 0 199 7 199 23 L199 253 C199 331 250 402 326 402 C341 402 348 400 358 400 C370 400 377 403 377 418 L377 511 C377 527 371 531 357 531 C272 531 217 471 198 427 L193 506 C192 519 185 527 169 527 L90 527 Z M143 610 C138 600 143 591 156 591 L206 591 C220 591 227 594 236 603 L324 689 C334 699 332 714 316 714 L215 714 C200 714 193 708 188 698 L143 610 Z " />
<glyph glyph-name="Rcommaaccent" unicode="&#x156;" horiz-adv-x="663" d="M213 351 L213 584 L321 584 C431 584 475 552 475 467 C475 388 434 351 320 351 L213 351 Z M99 704 C81 704 74 697 74 680 L74 25 C74 7 81 0 99 0 L188 0 C205 0 213 7 213 25 L213 235 L306 235 L468 20 C477 8 485 0 503 0 L598 0 C618 0 624 17 613 31 L443 254 C549 277 615 345 615 467 C615 635 517 704 323 704 L99 704 Z M390 -168 C395 -158 396 -153 396 -141 L396 -69 C396 -55 389 -48 374 -48 L291 -48 C276 -48 269 -55 269 -69 L269 -149 C269 -163 276 -170 290 -170 L319 -170 L294 -261 C291 -271 295 -279 306 -279 L326 -279 C337 -279 341 -273 345 -264 L390 -168 Z " />
<glyph glyph-name="rcommaaccent" unicode="&#x157;" horiz-adv-x="404" d="M90 527 C74 527 66 520 66 504 L66 23 C66 7 74 0 90 0 L176 0 C192 0 199 7 199 23 L199 253 C199 331 250 402 326 402 C341 402 348 400 358 400 C370 400 377 403 377 418 L377 511 C377 527 371 531 357 531 C272 531 217 471 198 427 L193 506 C192 519 185 527 169 527 L90 527 Z M188 -161 C192 -152 194 -147 194 -135 L194 -68 C194 -54 187 -48 172 -48 L94 -48 C80 -48 73 -54 73 -68 L73 -143 C73 -156 79 -163 94 -163 L120 -163 L99 -251 C97 -260 99 -268 110 -268 L129 -268 C140 -268 143 -263 148 -254 L188 -161 Z " />
<glyph glyph-name="Rcaron" unicode="&#x158;" horiz-adv-x="663" d="M213 351 L213 584 L321 584 C431 584 475 552 475 467 C475 388 434 351 320 351 L213 351 Z M99 704 C81 704 74 697 74 680 L74 25 C74 7 81 0 99 0 L188 0 C205 0 213 7 213 25 L213 235 L306 235 L468 20 C477 8 485 0 503 0 L598 0 C618 0 624 17 613 31 L443 254 C549 277 615 345 615 467 C615 635 517 704 323 704 L99 704 Z M329 823 L261 875 C253 881 247 887 235 887 L188 887 C173 887 169 874 178 865 L269 770 C279 760 284 756 301 756 L355 756 C373 756 378 760 387 770 L479 865 C487 874 484 887 468 887 L422 887 C409 887 404 881 395 874 L329 823 Z " />
<glyph glyph-name="rcaron" unicode="&#x159;" horiz-adv-x="404" d="M90 527 C74 527 66 520 66 504 L66 23 C66 7 74 0 90 0 L176 0 C192 0 199 7 199 23 L199 253 C199 331 250 402 326 402 C341 402 348 400 358 400 C370 400 377 403 377 418 L377 511 C377 527 371 531 357 531 C272 531 217 471 198 427 L193 506 C192 519 185 527 169 527 L90 527 Z M214 657 L145 712 C137 719 130 724 118 724 L72 724 C57 724 53 711 62 702 L154 605 C164 595 169 591 186 591 L240 591 C258 591 263 595 272 605 L364 702 C373 711 370 724 355 724 L309 724 C297 724 290 719 282 712 L214 657 Z " />
<glyph glyph-name="Sacute" unicode="&#x15a;" horiz-adv-x="580" d="M542 191 C542 330 438 368 327 413 C250 444 193 463 193 520 C193 573 235 596 320 596 C375 596 422 588 458 574 C476 568 484 573 490 588 L513 650 C519 666 512 673 498 680 C459 698 393 715 307 715 C140 715 53 650 53 523 C53 385 154 344 261 304 C339 274 402 251 402 193 C402 135 342 109 255 109 C188 109 132 124 96 139 C79 146 71 139 66 124 L42 60 C36 44 43 37 57 30 C101 8 182 -9 274 -9 C428 -9 542 52 542 191 L542 191 Z M238 775 C233 765 238 756 252 756 L301 756 C316 756 323 760 332 769 L420 854 C430 864 428 880 412 880 L311 880 C295 880 288 873 283 863 L238 775 Z " />
<glyph glyph-name="sacute" unicode="&#x15b;" horiz-adv-x="477" d="M439 142 C439 241 365 276 276 308 C210 331 168 346 168 387 C168 424 196 439 258 439 C304 439 340 429 372 419 C388 414 396 420 400 434 L415 484 C420 498 414 505 401 511 C363 527 303 539 238 539 C109 539 38 488 38 390 C38 274 123 251 202 224 C268 201 309 185 309 145 C309 103 274 89 204 89 C155 89 113 99 79 111 C63 116 55 110 51 96 L36 44 C32 31 37 23 51 18 C93 1 156 -11 224 -11 C344 -11 439 26 439 142 L439 142 Z M177 610 C172 600 177 591 190 591 L240 591 C254 591 261 594 270 603 L358 689 C368 699 366 714 350 714 L249 714 C234 714 227 708 222 698 L177 610 Z " />
<glyph glyph-name="Scircumflex" unicode="&#x15c;" horiz-adv-x="580" d="M542 191 C542 330 438 368 327 413 C250 444 193 463 193 520 C193 573 235 596 320 596 C375 596 422 588 458 574 C476 568 484 573 490 588 L513 650 C519 666 512 673 498 680 C459 698 393 715 307 715 C140 715 53 650 53 523 C53 385 154 344 261 304 C339 274 402 251 402 193 C402 135 342 109 255 109 C188 109 132 124 96 139 C79 146 71 139 66 124 L42 60 C36 44 43 37 57 30 C101 8 182 -9 274 -9 C428 -9 542 52 542 191 L542 191 Z M353 768 C361 761 368 756 381 756 L428 756 C443 756 446 769 437 778 L345 873 C336 883 331 887 313 887 L259 887 C242 887 237 883 227 873 L136 778 C127 769 130 756 145 756 L191 756 C204 756 211 762 219 768 L287 820 L353 768 Z " />
<glyph glyph-name="scircumflex" unicode="&#x15d;" horiz-adv-x="477" d="M439 142 C439 241 365 276 276 308 C210 331 168 346 168 387 C168 424 196 439 258 439 C304 439 340 429 372 419 C388 414 396 420 400 434 L415 484 C420 498 414 505 401 511 C363 527 303 539 238 539 C109 539 38 488 38 390 C38 274 123 251 202 224 C268 201 309 185 309 145 C309 103 274 89 204 89 C155 89 113 99 79 111 C63 116 55 110 51 96 L36 44 C32 31 37 23 51 18 C93 1 156 -11 224 -11 C344 -11 439 26 439 142 L439 142 Z M307 603 C316 596 322 591 334 591 L380 591 C395 591 398 603 389 613 L297 710 C288 720 283 724 265 724 L211 724 C194 724 188 720 179 710 L87 613 C78 603 82 591 97 591 L143 591 C155 591 161 596 170 603 L239 657 L307 603 Z " />
<glyph glyph-name="Scedilla" unicode="&#x15e;" horiz-adv-x="580" d="M542 191 C542 330 438 368 327 413 C250 444 193 463 193 520 C193 573 235 596 320 596 C375 596 422 588 458 574 C476 568 484 573 490 588 L513 650 C519 666 512 673 498 680 C459 698 393 715 307 715 C140 715 53 650 53 523 C53 385 154 344 261 304 C339 274 402 251 402 193 C402 135 342 109 255 109 C188 109 132 124 96 139 C79 146 71 139 66 124 L42 60 C36 44 43 37 57 30 C98 9 171 -7 256 -9 C288 -27 306 -49 306 -74 C306 -93 291 -107 257 -107 L226 -107 C216 -107 211 -112 211 -121 L211 -156 C211 -164 216 -169 225 -172 C238 -177 256 -178 274 -178 C348 -178 388 -148 388 -96 C388 -58 358 -26 318 -7 C449 4 542 65 542 191 L542 191 Z " />
<glyph glyph-name="scedilla" unicode="&#x15f;" horiz-adv-x="477" d="M439 142 C439 241 365 276 276 308 C210 331 168 346 168 387 C168 424 196 439 258 439 C304 439 340 429 372 419 C388 414 396 420 400 434 L415 484 C420 498 414 505 401 511 C363 527 303 539 238 539 C109 539 38 488 38 390 C38 274 123 251 202 224 C268 201 309 185 309 145 C309 103 274 89 204 89 C155 89 113 99 79 111 C63 116 55 110 51 96 L36 44 C32 31 37 23 51 18 C89 2 144 -8 204 -10 C231 -26 248 -46 248 -69 C248 -89 233 -100 200 -100 L170 -100 C160 -100 155 -105 155 -113 L155 -146 C155 -154 160 -159 169 -161 C181 -166 199 -167 216 -167 C286 -167 326 -141 326 -89 C326 -54 300 -27 264 -9 C364 -1 439 39 439 142 L439 142 Z " />
<glyph glyph-name="Scaron" unicode="&#x160;" horiz-adv-x="580" d="M542 191 C542 330 438 368 327 413 C250 444 193 463 193 520 C193 573 235 596 320 596 C375 596 422 588 458 574 C476 568 484 573 490 588 L513 650 C519 666 512 673 498 680 C459 698 393 715 307 715 C140 715 53 650 53 523 C53 385 154 344 261 304 C339 274 402 251 402 193 C402 135 342 109 255 109 C188 109 132 124 96 139 C79 146 71 139 66 124 L42 60 C36 44 43 37 57 30 C101 8 182 -9 274 -9 C428 -9 542 52 542 191 L542 191 Z M286 823 L218 875 C210 881 204 887 192 887 L145 887 C130 887 126 874 135 865 L226 770 C236 760 241 756 258 756 L312 756 C330 756 335 760 344 770 L436 865 C444 874 441 887 425 887 L379 887 C366 887 361 881 352 874 L286 823 Z " />
<glyph glyph-name="scaron" unicode="&#x161;" horiz-adv-x="477" d="M439 142 C439 241 365 276 276 308 C210 331 168 346 168 387 C168 424 196 439 258 439 C304 439 340 429 372 419 C388 414 396 420 400 434 L415 484 C420 498 414 505 401 511 C363 527 303 539 238 539 C109 539 38 488 38 390 C38 274 123 251 202 224 C268 201 309 185 309 145 C309 103 274 89 204 89 C155 89 113 99 79 111 C63 116 55 110 51 96 L36 44 C32 31 37 23 51 18 C93 1 156 -11 224 -11 C344 -11 439 26 439 142 L439 142 Z M239 657 L170 712 C162 719 155 724 143 724 L97 724 C82 724 78 711 87 702 L179 605 C189 595 194 591 211 591 L265 591 C283 591 288 595 297 605 L389 702 C398 711 395 724 380 724 L334 724 C322 724 315 719 307 712 L239 657 Z " />
<glyph glyph-name="Tcommaaccent" unicode="&#x162;" horiz-adv-x="566" d="M27 604 C27 587 35 579 52 579 L213 579 L213 25 C213 7 221 0 238 0 L328 0 C346 0 353 7 353 25 L353 579 L514 579 C532 579 539 587 539 604 L539 680 C539 697 532 704 514 704 L51 704 C35 704 27 697 27 680 L27 604 Z M339 -168 C344 -158 345 -153 345 -141 L345 -69 C345 -55 338 -48 323 -48 L240 -48 C225 -48 218 -55 218 -69 L218 -149 C218 -163 225 -170 239 -170 L268 -170 L243 -261 C240 -271 244 -279 255 -279 L275 -279 C286 -279 290 -273 294 -264 L339 -168 Z " />
<glyph glyph-name="tcommaaccent" unicode="&#x163;" horiz-adv-x="381" d="M330 415 C346 415 353 422 353 438 L353 494 C353 510 346 517 330 517 L219 517 L219 640 C219 655 211 661 195 661 L115 661 C99 661 92 655 92 640 L92 517 L35 517 C19 517 11 510 11 494 L11 438 C11 422 19 415 35 415 L90 415 L90 158 C90 37 138 -8 254 -8 C286 -8 320 -3 338 3 C351 7 358 12 357 26 L351 82 C350 96 344 103 331 102 C317 100 307 97 289 97 C234 97 220 115 220 172 L220 415 L330 415 Z M264 -161 C268 -152 270 -147 270 -135 L270 -68 C270 -54 263 -48 248 -48 L170 -48 C156 -48 149 -54 149 -68 L149 -143 C149 -156 155 -163 170 -163 L196 -163 L175 -251 C173 -260 175 -268 186 -268 L205 -268 C216 -268 219 -263 224 -254 L264 -161 Z " />
<glyph glyph-name="Tcaron" unicode="&#x164;" horiz-adv-x="566" d="M27 604 C27 587 35 579 52 579 L213 579 L213 25 C213 7 221 0 238 0 L328 0 C346 0 353 7 353 25 L353 579 L514 579 C532 579 539 587 539 604 L539 680 C539 697 532 704 514 704 L51 704 C35 704 27 697 27 680 L27 604 Z M282 823 L214 875 C206 881 200 887 188 887 L141 887 C126 887 122 874 131 865 L222 770 C232 760 237 756 254 756 L308 756 C326 756 331 760 340 770 L432 865 C440 874 437 887 421 887 L375 887 C362 887 357 881 348 874 L282 823 Z " />
<glyph glyph-name="tcaron" unicode="&#x165;" horiz-adv-x="520" d="M329 415 C345 415 352 422 352 438 L352 494 C352 510 345 517 329 517 L218 517 L218 640 C218 655 210 661 194 661 L114 661 C98 661 91 655 91 640 L91 517 L34 517 C18 517 10 510 10 494 L10 438 C10 422 18 415 34 415 L89 415 L89 158 C89 37 137 -8 253 -8 C285 -8 319 -3 337 3 C350 7 357 12 356 26 L350 82 C349 96 343 103 330 102 C316 100 306 97 288 97 C233 97 219 115 219 172 L219 415 L329 415 Z M516 584 C521 594 522 600 522 614 L522 697 C522 712 514 720 497 720 L409 720 C393 720 385 712 385 697 L385 608 C385 592 392 585 408 585 L439 585 L405 485 C402 475 405 465 416 465 L445 465 C457 465 462 471 466 479 L516 584 Z " />
<glyph glyph-name="Tbar" unicode="&#x166;" horiz-adv-x="566" d="M27 604 C27 587 35 579 52 579 L213 579 L213 367 L117 367 C104 367 98 361 98 349 L98 313 C98 301 102 295 117 295 L213 295 L213 25 C213 7 221 0 238 0 L328 0 C346 0 353 7 353 25 L353 295 L450 295 C463 295 469 301 469 313 L469 349 C469 361 463 367 450 367 L353 367 L353 579 L514 579 C532 579 539 587 539 604 L539 680 C539 697 532 704 514 704 L52 704 C35 704 27 697 27 680 L27 604 Z " />
<glyph glyph-name="tbar" unicode="&#x167;" horiz-adv-x="381" d="M330 415 C346 415 353 422 353 438 L353 494 C353 510 346 517 330 517 L219 517 L219 640 C219 655 211 661 195 661 L115 661 C99 661 92 655 92 640 L92 517 L35 517 C19 517 11 510 11 494 L11 438 C11 422 19 415 35 415 L90 415 L90 298 L30 298 C18 298 11 293 11 280 L11 250 C11 237 18 231 30 231 L90 231 L90 159 C90 37 138 -8 254 -8 C286 -8 320 -3 338 3 C351 7 358 12 357 26 L351 82 C350 96 344 103 331 102 C317 100 307 97 289 97 C234 97 220 115 220 172 L220 231 L319 231 C332 231 338 237 338 250 L338 280 C338 293 332 298 319 298 L220 298 L220 415 L330 415 Z " />
<glyph glyph-name="Utilde" unicode="&#x168;" horiz-adv-x="694" d="M347 -12 C532 -12 624 82 624 255 L624 680 C624 697 616 704 600 704 L509 704 C492 704 485 697 485 680 L485 267 C485 169 445 114 347 114 C248 114 209 169 209 267 L209 680 C209 697 202 704 184 704 L94 704 C77 704 69 697 69 680 L69 255 C69 82 161 -12 347 -12 L347 -12 Z M525 834 C525 857 518 865 503 865 L473 865 C459 865 452 862 450 849 L449 841 C447 827 439 822 425 822 C411 822 393 827 372 835 L334 849 C305 859 275 867 249 867 C193 867 168 831 168 783 C168 760 175 754 189 754 L220 754 C233 754 241 758 243 771 L244 779 C245 791 254 795 268 795 C283 795 303 790 324 782 L359 769 C388 758 418 751 446 751 C501 751 525 786 525 834 L525 834 Z " />
<glyph glyph-name="utilde" unicode="&#x169;" horiz-adv-x="601" d="M60 180 C60 55 117 -11 241 -11 C334 -11 381 33 404 73 L408 19 C409 8 416 0 432 0 L512 0 C527 0 534 7 534 23 L534 504 C534 520 527 527 512 527 L425 527 C410 527 402 520 402 504 L402 219 C402 147 357 101 285 101 C214 101 192 141 192 205 L192 504 C192 520 186 527 170 527 L84 527 C68 527 60 520 60 504 L60 180 Z M470 669 C470 690 464 699 450 699 L419 699 C406 699 399 696 397 683 L396 676 C394 663 386 658 374 658 C362 658 344 663 325 670 L289 683 C261 693 233 700 205 700 C153 700 130 668 130 619 C130 597 137 592 152 592 L182 592 C195 592 202 596 204 607 L206 615 C210 637 238 634 277 619 L312 606 C338 597 368 589 397 589 C447 589 470 620 470 669 L470 669 Z " />
<glyph glyph-name="Umacron" unicode="&#x16a;" horiz-adv-x="694" d="M347 -12 C532 -12 624 82 624 255 L624 680 C624 697 616 704 600 704 L509 704 C492 704 485 697 485 680 L485 267 C485 169 445 114 347 114 C248 114 209 169 209 267 L209 680 C209 697 202 704 184 704 L94 704 C77 704 69 697 69 680 L69 255 C69 82 161 -12 347 -12 L347 -12 Z M497 765 C512 765 519 772 519 786 L519 824 C519 840 512 846 497 846 L196 846 C180 846 174 840 174 824 L174 786 C174 772 180 765 196 765 L497 765 Z " />
<glyph glyph-name="umacron" unicode="&#x16b;" horiz-adv-x="601" d="M60 180 C60 55 117 -11 241 -11 C334 -11 381 33 404 73 L408 19 C409 8 416 0 432 0 L512 0 C527 0 534 7 534 23 L534 504 C534 520 527 527 512 527 L425 527 C410 527 402 520 402 504 L402 219 C402 147 357 101 285 101 C214 101 192 141 192 205 L192 504 C192 520 186 527 170 527 L84 527 C68 527 60 520 60 504 L60 180 Z M449 596 C465 596 471 602 471 618 L471 652 C471 667 465 674 449 674 L151 674 C137 674 130 667 130 652 L130 618 C130 602 137 596 151 596 L449 596 Z " />
<glyph glyph-name="Ubreve" unicode="&#x16c;" horiz-adv-x="694" d="M347 -12 C532 -12 624 82 624 255 L624 680 C624 697 616 704 600 704 L509 704 C492 704 485 697 485 680 L485 267 C485 169 445 114 347 114 C248 114 209 169 209 267 L209 680 C209 697 202 704 184 704 L94 704 C77 704 69 697 69 680 L69 255 C69 82 161 -12 347 -12 L347 -12 Z M347 753 C454 753 500 813 501 875 C501 887 495 893 483 893 L445 893 C432 893 427 887 424 876 C417 844 399 823 347 823 C294 823 276 845 269 876 C266 887 261 893 248 893 L210 893 C198 893 192 887 192 875 C193 813 239 753 347 753 L347 753 Z " />
<glyph glyph-name="ubreve" unicode="&#x16d;" horiz-adv-x="601" d="M60 180 C60 55 117 -11 241 -11 C334 -11 381 33 404 73 L408 19 C409 8 416 0 432 0 L512 0 C527 0 534 7 534 23 L534 504 C534 520 527 527 512 527 L425 527 C410 527 402 520 402 504 L402 219 C402 147 357 101 285 101 C214 101 192 141 192 205 L192 504 C192 520 186 527 170 527 L84 527 C68 527 60 520 60 504 L60 180 Z M301 586 C410 586 453 648 454 710 C454 723 449 728 436 728 L400 728 C387 728 382 722 379 711 C372 680 355 655 301 655 C246 655 228 680 221 711 C219 722 214 728 201 728 L165 728 C152 728 147 723 147 710 C147 648 191 586 301 586 L301 586 Z " />
<glyph glyph-name="Uring" unicode="&#x16e;" horiz-adv-x="694" d="M347 -12 C532 -12 624 82 624 255 L624 680 C624 697 616 704 600 704 L509 704 C492 704 485 697 485 680 L485 267 C485 169 445 114 347 114 C248 114 209 169 209 267 L209 680 C209 697 202 704 184 704 L94 704 C77 704 69 697 69 680 L69 255 C69 82 161 -12 347 -12 L347 -12 Z M291 844 C291 875 313 895 347 895 C380 895 401 875 401 844 C401 812 380 793 347 793 C313 793 291 812 291 844 L291 844 Z M232 844 C232 781 279 739 347 739 C414 739 462 781 462 844 C462 907 414 949 347 949 C279 949 232 907 232 844 L232 844 Z " />
<glyph glyph-name="uring" unicode="&#x16f;" horiz-adv-x="601" d="M60 180 C60 55 117 -11 241 -11 C334 -11 381 33 404 73 L408 19 C409 8 416 0 432 0 L512 0 C527 0 534 7 534 23 L534 504 C534 520 527 527 512 527 L425 527 C410 527 402 520 402 504 L402 219 C402 147 357 101 285 101 C214 101 192 141 192 205 L192 504 C192 520 186 527 170 527 L84 527 C68 527 60 520 60 504 L60 180 Z M301 638 C267 638 245 657 245 689 C245 719 267 739 300 739 C333 739 355 719 355 689 C355 657 333 638 301 638 L301 638 Z M300 792 C234 792 187 750 187 689 C187 627 234 585 301 585 C367 585 415 627 415 689 C415 750 367 792 300 792 L300 792 Z " />
<glyph glyph-name="Uhungarumlaut" unicode="&#x170;" horiz-adv-x="694" d="M347 -12 C532 -12 624 82 624 255 L624 680 C624 697 616 704 600 704 L509 704 C492 704 485 697 485 680 L485 267 C485 169 445 114 347 114 C248 114 209 169 209 267 L209 680 C209 697 202 704 184 704 L94 704 C77 704 69 697 69 680 L69 255 C69 82 161 -12 347 -12 L347 -12 Z M197 778 C193 768 197 758 211 758 L259 758 C275 758 282 761 290 771 L365 859 C373 868 371 886 355 886 L265 886 C248 886 242 878 237 868 L197 778 Z M384 778 C380 768 385 758 400 758 L447 758 C463 758 470 760 479 771 L553 859 C562 869 558 886 542 886 L453 886 C436 886 430 879 425 868 L384 778 Z " />
<glyph glyph-name="uhungarumlaut" unicode="&#x171;" horiz-adv-x="601" d="M60 180 C60 55 117 -11 241 -11 C334 -11 381 33 404 73 L408 19 C409 8 416 0 432 0 L512 0 C527 0 534 7 534 23 L534 504 C534 520 527 527 512 527 L425 527 C410 527 402 520 402 504 L402 219 C402 147 357 101 285 101 C214 101 192 141 192 205 L192 504 C192 520 186 527 170 527 L84 527 C68 527 60 520 60 504 L60 180 Z M154 610 C150 600 155 591 169 591 L213 591 C228 591 235 594 243 603 L316 689 C325 699 321 714 306 714 L221 714 C205 714 199 707 195 698 L154 610 Z M336 610 C332 600 337 591 350 591 L394 591 C409 591 417 593 425 603 L498 689 C506 698 503 714 487 714 L402 714 C386 714 380 708 376 698 L336 610 Z " />
<glyph glyph-name="Uogonek" unicode="&#x172;" horiz-adv-x="694" d="M624 255 L624 680 C624 697 616 704 600 704 L509 704 C492 704 485 697 485 680 L485 267 C485 169 445 114 347 114 C248 114 209 169 209 267 L209 680 C209 697 202 704 184 704 L94 704 C77 704 69 697 69 680 L69 255 C69 83 159 -10 341 -12 C308 -34 283 -68 283 -101 C283 -155 328 -177 386 -177 C420 -177 448 -169 462 -160 C468 -157 473 -151 471 -142 L461 -107 C459 -101 455 -99 448 -99 C440 -100 434 -104 415 -104 C382 -104 366 -92 366 -72 C366 -49 381 -26 411 -7 C553 12 624 103 624 255 L624 255 Z " />
<glyph glyph-name="uogonek" unicode="&#x173;" horiz-adv-x="601" d="M60 180 C60 55 117 -11 241 -11 C334 -11 381 33 404 73 L408 19 C409 8 416 0 432 0 L437 0 C396 -19 361 -56 361 -96 C361 -149 405 -167 460 -167 C492 -167 519 -159 533 -151 C538 -149 543 -143 541 -134 L532 -102 C530 -94 525 -92 519 -93 C512 -94 505 -98 486 -98 C456 -98 441 -88 441 -67 C441 -40 459 -19 496 0 L512 0 C527 0 534 7 534 23 L534 504 C534 520 527 527 512 527 L425 527 C410 527 402 520 402 504 L402 219 C402 147 357 101 285 101 C214 101 192 141 192 205 L192 504 C192 520 186 527 170 527 L84 527 C68 527 60 520 60 504 L60 180 Z " />
<glyph glyph-name="Wcircumflex" unicode="&#x174;" horiz-adv-x="1041" d="M478 704 C459 704 451 697 447 682 L355 345 L310 164 L308 164 L266 343 L177 682 C173 697 164 704 148 704 L53 704 C37 704 29 694 34 676 L218 24 C223 8 231 0 250 0 L355 0 C372 0 382 8 386 24 L479 345 L519 501 L522 501 L561 345 L655 24 C660 7 669 0 686 0 L791 0 C810 0 818 7 823 24 L1006 676 C1011 694 1004 704 988 704 L893 704 C877 704 868 697 864 682 L775 343 L733 163 L730 163 L685 345 L594 682 C590 697 582 704 563 704 L478 704 Z M587 768 C595 761 602 756 615 756 L662 756 C677 756 680 769 671 778 L579 873 C570 883 565 887 547 887 L493 887 C476 887 471 883 461 873 L370 778 C361 769 364 756 379 756 L425 756 C438 756 445 762 453 768 L521 820 L587 768 Z " />
<glyph glyph-name="wcircumflex" unicode="&#x175;" horiz-adv-x="851" d="M391 527 C375 527 368 518 365 507 L284 238 L258 134 L256 134 L234 238 L162 505 C158 519 150 527 135 527 L46 527 C30 527 24 516 28 501 L172 22 C176 8 185 0 201 0 L290 0 C306 0 315 7 320 23 L395 263 L424 372 L427 372 L456 263 L532 23 C537 7 546 0 562 0 L651 0 C666 0 676 8 680 22 L823 501 C828 516 822 527 805 527 L716 527 C700 527 693 519 689 505 L617 238 L595 134 L593 134 L568 238 L485 507 C482 518 476 527 460 527 L391 527 Z M494 603 C503 596 509 591 521 591 L567 591 C582 591 585 603 576 613 L484 710 C475 720 470 724 452 724 L398 724 C381 724 375 720 366 710 L274 613 C265 603 269 591 284 591 L330 591 C342 591 348 596 357 603 L426 657 L494 603 Z " />
<glyph glyph-name="Ycircumflex" unicode="&#x176;" horiz-adv-x="663" d="M401 259 L636 675 C644 689 637 704 619 704 L523 704 C504 704 497 695 490 682 L378 470 L332 372 L331 372 L284 470 L173 682 C166 696 158 704 140 704 L44 704 C26 704 19 689 27 675 L261 259 L261 25 C261 7 269 0 286 0 L377 0 C393 0 401 7 401 25 L401 259 Z M398 768 C406 761 413 756 426 756 L473 756 C488 756 491 769 482 778 L390 873 C381 883 376 887 358 887 L304 887 C287 887 282 883 272 873 L181 778 C172 769 175 756 190 756 L236 756 C249 756 256 762 264 768 L332 820 L398 768 Z " />
<glyph glyph-name="ycircumflex" unicode="&#x177;" horiz-adv-x="538" d="M519 501 C524 516 517 527 500 527 L412 527 C397 527 389 519 385 505 L320 271 L283 125 L281 125 L237 271 L156 505 C151 519 144 527 129 527 L39 527 C22 527 16 516 22 501 L198 56 C214 16 197 -13 145 -13 C116 -13 101 -8 88 -7 C75 -6 69 -11 67 -25 L60 -82 C58 -96 67 -101 80 -105 C98 -110 138 -116 175 -116 C296 -116 331 -72 367 44 L519 501 Z M338 603 C347 596 353 591 365 591 L411 591 C426 591 429 603 420 613 L328 710 C319 720 314 724 296 724 L242 724 C225 724 219 720 210 710 L118 613 C109 603 113 591 128 591 L174 591 C186 591 192 596 201 603 L270 657 L338 603 Z " />
<glyph glyph-name="Ydieresis" unicode="&#x178;" horiz-adv-x="663" d="M401 259 L636 675 C644 689 637 704 619 704 L523 704 C504 704 497 695 490 682 L378 470 L332 372 L331 372 L284 470 L173 682 C166 696 158 704 140 704 L44 704 C26 704 19 689 27 675 L261 259 L261 25 C261 7 269 0 286 0 L377 0 C393 0 401 7 401 25 L401 259 Z M291 842 C291 858 283 865 267 865 L192 865 C177 865 170 858 170 842 L170 779 C170 763 177 756 192 756 L267 756 C283 756 291 763 291 779 L291 842 Z M493 842 C493 858 486 865 470 865 L395 865 C379 865 373 858 373 842 L373 779 C373 763 379 756 395 756 L470 756 C486 756 493 763 493 779 L493 842 Z " />
<glyph glyph-name="Zacute" unicode="&#x179;" horiz-adv-x="611" d="M52 25 C52 7 60 0 76 0 L532 0 C549 0 556 7 556 25 L556 102 C556 118 549 126 532 126 L216 126 L535 568 C543 579 549 591 549 607 L549 680 C549 697 542 704 525 704 L84 704 C68 704 60 697 60 680 L60 604 C60 587 68 579 84 579 L387 579 L67 138 C59 126 52 114 52 98 L52 25 Z M255 775 C250 765 255 756 269 756 L318 756 C333 756 340 760 349 769 L437 854 C447 864 445 880 429 880 L328 880 C312 880 305 873 300 863 L255 775 Z " />
<glyph glyph-name="zacute" unicode="&#x17a;" horiz-adv-x="514" d="M467 504 C467 520 459 527 443 527 L74 527 C59 527 51 520 51 504 L51 441 C51 425 59 418 74 418 L307 418 L54 100 C49 94 44 85 44 71 L44 23 C44 7 51 0 67 0 L445 0 C461 0 468 7 468 23 L468 86 C468 102 461 108 445 108 L204 108 L454 423 C462 432 467 442 467 456 L467 504 Z M198 610 C193 600 198 591 211 591 L261 591 C275 591 282 594 291 603 L379 689 C389 699 387 714 371 714 L270 714 C255 714 248 708 243 698 L198 610 Z " />
<glyph glyph-name="Zdotaccent" unicode="&#x17b;" horiz-adv-x="611" d="M52 25 C52 7 60 0 76 0 L532 0 C549 0 556 7 556 25 L556 102 C556 118 549 126 532 126 L216 126 L535 568 C543 579 549 591 549 607 L549 680 C549 697 542 704 525 704 L84 704 C68 704 60 697 60 680 L60 604 C60 587 68 579 84 579 L387 579 L67 138 C59 126 52 114 52 98 L52 25 Z M372 852 C372 868 365 875 349 875 L262 875 C246 875 239 868 239 852 L239 778 C239 762 246 755 262 755 L349 755 C365 755 372 762 372 778 L372 852 Z " />
<glyph glyph-name="zdotaccent" unicode="&#x17c;" horiz-adv-x="514" d="M467 504 C467 520 459 527 443 527 L74 527 C59 527 51 520 51 504 L51 441 C51 425 59 418 74 418 L307 418 L54 100 C49 94 44 85 44 71 L44 23 C44 7 51 0 67 0 L445 0 C461 0 468 7 468 23 L468 86 C468 102 461 108 445 108 L204 108 L454 423 C462 432 467 442 467 456 L467 504 Z M324 684 C324 700 317 708 301 708 L214 708 C198 708 191 700 191 684 L191 612 C191 596 198 589 214 589 L301 589 C317 589 324 596 324 612 L324 684 Z " />
<glyph glyph-name="Zcaron" unicode="&#x17d;" horiz-adv-x="611" d="M52 25 C52 7 60 0 76 0 L532 0 C549 0 556 7 556 25 L556 102 C556 118 549 126 532 126 L216 126 L535 568 C543 579 549 591 549 607 L549 680 C549 697 542 704 525 704 L84 704 C68 704 60 697 60 680 L60 604 C60 587 68 579 84 579 L387 579 L67 138 C59 126 52 114 52 98 L52 25 Z M304 823 L236 875 C228 881 222 887 210 887 L163 887 C148 887 144 874 153 865 L244 770 C254 760 259 756 276 756 L330 756 C348 756 353 760 362 770 L454 865 C462 874 459 887 443 887 L397 887 C384 887 379 881 370 874 L304 823 Z " />
<glyph glyph-name="zcaron" unicode="&#x17e;" horiz-adv-x="514" d="M467 504 C467 520 459 527 443 527 L74 527 C59 527 51 520 51 504 L51 441 C51 425 59 418 74 418 L307 418 L54 100 C49 94 44 85 44 71 L44 23 C44 7 51 0 67 0 L445 0 C461 0 468 7 468 23 L468 86 C468 102 461 108 445 108 L204 108 L454 423 C462 432 467 442 467 456 L467 504 Z M258 657 L189 712 C181 719 174 724 162 724 L116 724 C101 724 97 711 106 702 L198 605 C208 595 213 591 230 591 L284 591 C302 591 307 595 316 605 L408 702 C417 711 414 724 399 724 L353 724 C341 724 334 719 326 712 L258 657 Z " />
<glyph glyph-name="longs" unicode="&#x17f;" horiz-adv-x="329" d="M224 550 C224 594 243 612 284 612 C301 612 315 609 331 607 C344 605 351 615 351 629 L351 680 C351 695 343 700 332 703 C313 709 285 713 256 713 C151 713 96 666 96 559 L96 517 L42 517 C27 517 20 510 20 494 L20 438 C20 422 27 415 42 415 L96 415 L96 21 C96 6 104 0 120 0 L201 0 C217 0 224 6 224 21 L224 550 Z " />
<glyph glyph-name="florin" unicode="&#x192;" horiz-adv-x="645" d="M406 544 C411 591 435 615 482 615 C496 615 509 612 525 610 C538 609 546 618 548 632 L557 681 C559 695 552 700 538 705 C523 710 487 714 454 714 C347 714 289 667 275 557 L255 396 L168 396 C156 396 149 390 147 378 L143 343 C142 331 146 324 159 324 L245 324 L209 46 C205 10 187 -12 157 -12 C145 -12 133 -9 121 -8 C109 -6 100 -11 98 -27 L90 -85 C87 -100 94 -104 107 -108 C126 -113 157 -118 181 -118 C283 -118 327 -70 339 33 L378 324 L504 324 C517 324 523 330 525 343 L529 377 C530 390 525 396 513 396 L387 396 L406 544 Z " />
<glyph glyph-name="Aringacute" unicode="&#x1fa;" horiz-adv-x="684" d="M228 756 C228 726 238 701 256 683 C255 682 255 682 255 681 L22 28 C16 12 24 0 41 0 L138 0 C154 0 161 7 166 22 L212 153 L472 153 L518 22 C523 7 530 0 547 0 L644 0 C660 0 668 12 662 28 L429 681 L428 682 C447 700 458 726 458 756 C458 799 435 833 399 849 L465 913 C475 923 473 939 457 939 L356 939 C340 939 333 932 328 922 L292 852 C252 836 228 801 228 756 L228 756 Z M242 271 L341 566 L344 566 L441 271 L242 271 Z M287 756 C287 787 309 807 343 807 C376 807 397 787 397 756 C397 724 376 705 343 705 C309 705 287 724 287 756 L287 756 Z " />
<glyph glyph-name="aringacute" unicode="&#x1fb;" horiz-adv-x="575" d="M513 349 C513 473 443 539 287 539 C213 539 136 522 87 501 C75 495 69 486 73 473 L91 418 C96 404 105 399 120 404 C161 420 210 434 270 434 C350 434 384 405 384 343 L384 320 C177 316 35 291 35 144 C35 45 103 -9 206 -9 C317 -9 366 39 388 73 L392 19 C393 8 399 0 415 0 L489 0 C505 0 513 7 513 23 L513 349 Z M173 689 C173 627 220 585 287 585 C353 585 401 627 401 689 C401 730 379 762 345 779 L414 847 C424 857 422 872 406 872 L305 872 C290 872 283 866 278 856 L241 785 C200 770 173 735 173 689 L173 689 Z M384 199 C384 134 341 82 249 82 C192 82 161 111 161 152 C161 226 251 238 384 242 L384 199 Z M287 638 C253 638 231 657 231 689 C231 719 253 739 286 739 C319 739 341 719 341 689 C341 657 319 638 287 638 L287 638 Z " />
<glyph glyph-name="AEacute" unicode="&#x1fc;" horiz-adv-x="893" d="M807 301 C823 301 830 310 830 326 L830 392 C830 408 823 417 807 417 L565 417 L565 584 L819 584 C836 584 843 592 843 608 L843 680 C843 697 836 704 819 704 L348 704 C329 704 323 697 316 681 L9 28 C2 13 10 0 26 0 L126 0 C142 0 149 8 156 22 L216 147 L427 147 L427 25 C427 7 435 0 451 0 L824 0 C840 0 848 7 848 25 L848 97 C848 113 840 121 824 121 L565 121 L565 301 L807 301 Z M256 265 L404 585 L426 585 L426 265 L256 265 Z M405 775 C400 765 405 756 419 756 L468 756 C483 756 490 760 499 769 L587 854 C597 864 595 880 579 880 L478 880 C462 880 455 873 450 863 L405 775 Z " />
<glyph glyph-name="aeacute" unicode="&#x1fd;" horiz-adv-x="910" d="M668 86 C580 86 523 138 512 219 L842 219 C858 219 866 226 866 242 L866 296 C866 441 782 539 639 539 C557 539 491 505 460 450 C436 512 374 539 281 539 C208 539 137 522 84 501 C71 495 66 486 70 473 L89 418 C94 404 102 398 117 404 C159 420 209 434 271 434 C348 434 383 405 384 353 L384 308 C178 306 35 295 35 144 C35 45 95 -9 232 -9 C336 -9 407 30 447 96 C473 34 548 -12 658 -12 C724 -12 793 6 828 26 C841 34 847 41 843 54 L826 102 C821 117 811 124 796 117 C757 100 716 86 668 86 L668 86 Z M633 441 C709 441 746 391 746 310 L746 303 L509 303 C515 394 560 441 633 441 L633 441 Z M385 204 C385 139 345 83 253 83 C187 83 161 110 161 152 C161 225 251 226 385 229 L385 204 Z M381 610 C376 600 381 591 394 591 L444 591 C458 591 465 594 474 603 L562 689 C572 699 570 714 554 714 L453 714 C438 714 431 708 426 698 L381 610 Z " />
<glyph glyph-name="Oslashacute" unicode="&#x1fe;" horiz-adv-x="720" d="M360 716 C164 716 48 595 48 352 C48 250 69 171 106 114 L59 59 C49 47 50 38 62 29 L93 4 C106 -6 114 -4 125 8 L165 52 C213 10 279 -11 360 -11 C556 -11 672 109 672 352 C672 454 651 531 613 590 L659 644 C669 657 668 667 655 676 L624 700 C611 710 603 707 592 695 L554 653 C506 692 441 716 360 716 L360 716 Z M360 111 C307 111 276 125 245 155 L514 466 C525 431 530 391 530 352 C530 194 474 111 360 111 L360 111 Z M191 352 C191 512 247 594 360 594 C412 594 447 576 473 549 L206 239 C195 269 191 313 191 352 L191 352 Z M311 775 C306 765 311 756 325 756 L374 756 C389 756 396 760 405 769 L493 854 C503 864 501 880 485 880 L384 880 C368 880 361 873 356 863 L311 775 Z " />
<glyph glyph-name="oslashacute" unicode="&#x1ff;" horiz-adv-x="611" d="M305 -11 C244 -11 189 4 147 33 L121 3 C111 -8 100 -10 89 0 L68 18 C58 27 54 37 65 49 L95 84 C64 126 45 188 45 264 C45 445 147 539 305 539 C367 539 423 523 464 494 L489 523 C501 536 511 536 522 527 L543 509 C554 500 556 491 546 479 L516 444 C549 399 566 339 566 264 C566 83 463 -11 305 -11 L305 -11 Z M305 433 C225 433 180 380 180 264 C180 238 185 205 194 186 L388 403 C369 423 342 433 305 433 L305 433 Z M305 95 C385 95 431 148 431 264 C431 290 427 321 417 341 L223 124 C244 105 269 95 305 95 L305 95 Z M247 610 C242 600 247 591 260 591 L310 591 C324 591 331 594 340 603 L428 689 C438 699 436 714 420 714 L319 714 C304 714 297 708 292 698 L247 610 Z " />
<glyph glyph-name="Scommaaccent" unicode="&#x218;" horiz-adv-x="580" d="M542 191 C542 330 438 368 327 413 C250 444 193 463 193 520 C193 573 235 596 320 596 C375 596 422 588 458 574 C476 568 484 573 490 588 L513 650 C519 666 512 673 498 680 C459 698 393 715 307 715 C140 715 53 650 53 523 C53 385 154 344 261 304 C339 274 402 251 402 193 C402 135 342 109 255 109 C188 109 132 124 96 139 C79 146 71 139 66 124 L42 60 C36 44 43 37 57 30 C101 8 182 -9 274 -9 C428 -9 542 52 542 191 L542 191 Z M352 -168 C357 -158 358 -153 358 -141 L358 -69 C358 -55 351 -48 336 -48 L253 -48 C238 -48 231 -55 231 -69 L231 -149 C231 -163 238 -170 252 -170 L281 -170 L256 -261 C253 -271 257 -279 268 -279 L288 -279 C299 -279 303 -273 307 -264 L352 -168 Z " />
<glyph glyph-name="scommaaccent" unicode="&#x219;" horiz-adv-x="477" d="M439 142 C439 241 365 276 276 308 C210 331 168 346 168 387 C168 424 196 439 258 439 C304 439 340 429 372 419 C388 414 396 420 400 434 L415 484 C420 498 414 505 401 511 C363 527 303 539 238 539 C109 539 38 488 38 390 C38 274 123 251 202 224 C268 201 309 185 309 145 C309 103 274 89 204 89 C155 89 113 99 79 111 C63 116 55 110 51 96 L36 44 C32 31 37 23 51 18 C93 1 156 -11 224 -11 C344 -11 439 26 439 142 L439 142 Z M297 -161 C301 -152 303 -147 303 -135 L303 -68 C303 -54 296 -48 281 -48 L203 -48 C189 -48 182 -54 182 -68 L182 -143 C182 -156 188 -163 203 -163 L229 -163 L208 -251 C206 -260 208 -268 219 -268 L238 -268 C249 -268 252 -263 257 -254 L297 -161 Z " />
<glyph glyph-name="uni021A" unicode="&#x21a;" horiz-adv-x="566" d="M27 604 C27 587 35 579 52 579 L213 579 L213 25 C213 7 221 0 238 0 L328 0 C346 0 353 7 353 25 L353 579 L514 579 C532 579 539 587 539 604 L539 680 C539 697 532 704 514 704 L51 704 C35 704 27 697 27 680 L27 604 Z M339 -168 C344 -158 345 -153 345 -141 L345 -69 C345 -55 338 -48 323 -48 L240 -48 C225 -48 218 -55 218 -69 L218 -149 C218 -163 225 -170 239 -170 L268 -170 L243 -261 C240 -271 244 -279 255 -279 L275 -279 C286 -279 290 -273 294 -264 L339 -168 Z " />
<glyph glyph-name="uni021B" unicode="&#x21b;" horiz-adv-x="381" d="M330 415 C346 415 353 422 353 438 L353 494 C353 510 346 517 330 517 L219 517 L219 640 C219 655 211 661 195 661 L115 661 C99 661 92 655 92 640 L92 517 L35 517 C19 517 11 510 11 494 L11 438 C11 422 19 415 35 415 L90 415 L90 158 C90 37 138 -8 254 -8 C286 -8 320 -3 338 3 C351 7 358 12 357 26 L351 82 C350 96 344 103 331 102 C317 100 307 97 289 97 C234 97 220 115 220 172 L220 415 L330 415 Z M264 -161 C268 -152 270 -147 270 -135 L270 -68 C270 -54 263 -48 248 -48 L170 -48 C156 -48 149 -54 149 -68 L149 -143 C149 -156 155 -163 170 -163 L196 -163 L175 -251 C173 -260 175 -268 186 -268 L205 -268 C216 -268 219 -263 224 -254 L264 -161 Z " />
<glyph glyph-name="dotlessj" unicode="&#x237;" horiz-adv-x="287" d="M86 47 C86 5 73 -11 43 -11 C33 -11 18 -9 4 -8 C-9 -7 -17 -12 -17 -27 L-17 -85 C-17 -99 -9 -105 4 -109 C23 -114 49 -116 77 -116 C177 -116 218 -72 218 34 L218 504 C218 520 211 527 195 527 L108 527 C93 527 86 520 86 504 L86 47 Z " />
<glyph glyph-name="circumflex" unicode="&#x2c6;" horiz-adv-x="355" d="M246 603 C255 596 261 591 273 591 L319 591 C334 591 337 603 328 613 L236 710 C227 720 222 724 204 724 L150 724 C133 724 127 720 118 710 L26 613 C17 603 21 591 36 591 L82 591 C94 591 100 596 109 603 L178 657 L246 603 Z " />
<glyph glyph-name="caron" unicode="&#x2c7;" horiz-adv-x="355" d="M178 657 L109 712 C101 719 94 724 82 724 L36 724 C21 724 17 711 26 702 L118 605 C128 595 133 591 150 591 L204 591 C222 591 227 595 236 605 L328 702 C337 711 334 724 319 724 L273 724 C261 724 254 719 246 712 L178 657 Z " />
<glyph glyph-name="uni02C9" unicode="&#x2c9;" horiz-adv-x="355" d="M326 596 C342 596 348 602 348 618 L348 652 C348 667 342 674 326 674 L28 674 C14 674 7 667 7 652 L7 618 C7 602 14 596 28 596 L326 596 Z " />
<glyph glyph-name="breve" unicode="&#x2d8;" horiz-adv-x="355" d="M178 586 C287 586 330 648 331 710 C331 723 326 728 313 728 L277 728 C264 728 259 722 256 711 C249 680 232 655 178 655 C123 655 105 680 98 711 C96 722 91 728 78 728 L42 728 C29 728 24 723 24 710 C24 648 68 586 178 586 L178 586 Z " />
<glyph glyph-name="dotaccent" unicode="&#x2d9;" horiz-adv-x="355" d="M244 684 C244 700 237 708 221 708 L134 708 C118 708 111 700 111 684 L111 612 C111 596 118 589 134 589 L221 589 C237 589 244 596 244 612 L244 684 Z " />
<glyph glyph-name="ring" unicode="&#x2da;" horiz-adv-x="355" d="M178 638 C144 638 122 657 122 689 C122 719 144 739 177 739 C210 739 232 719 232 689 C232 657 210 638 178 638 L178 638 Z M177 792 C111 792 64 750 64 689 C64 627 111 585 178 585 C244 585 292 627 292 689 C292 750 244 792 177 792 L177 792 Z " />
<glyph glyph-name="ogonek" unicode="&#x2db;" horiz-adv-x="355" d="M183 11 C131 0 75 -46 75 -96 C75 -149 119 -167 174 -167 C206 -167 233 -159 247 -151 C252 -149 257 -143 255 -134 L246 -102 C244 -94 239 -92 233 -93 C226 -94 219 -98 200 -98 C170 -98 155 -88 155 -67 C155 -36 180 -12 230 9 L183 11 Z " />
<glyph glyph-name="tilde" unicode="&#x2dc;" horiz-adv-x="355" d="M347 669 C347 690 341 699 327 699 L296 699 C283 699 276 696 274 683 L273 676 C271 663 263 658 251 658 C239 658 221 663 202 670 L166 683 C138 693 110 700 82 700 C30 700 7 668 7 619 C7 597 14 592 29 592 L59 592 C72 592 79 596 81 607 L83 615 C87 637 115 634 154 619 L189 606 C215 597 245 589 274 589 C324 589 347 620 347 669 L347 669 Z " />
<glyph glyph-name="hungarumlaut" unicode="&#x2dd;" horiz-adv-x="355" d="M48 610 C44 600 49 591 63 591 L107 591 C122 591 129 594 137 603 L210 689 C219 699 215 714 200 714 L115 714 C99 714 93 707 89 698 L48 610 Z M230 610 C226 600 231 591 244 591 L288 591 C303 591 311 593 319 603 L392 689 C400 698 397 714 381 714 L296 714 C280 714 274 708 270 698 L230 610 Z " />
<glyph glyph-name="uni037E" unicode="&#x37e;" horiz-adv-x="248" d="M55 215 C55 199 62 192 78 192 L170 192 C186 192 193 199 193 215 L193 311 C193 326 186 333 168 333 L80 333 C64 333 55 326 55 311 L55 215 Z " />
<glyph glyph-name="uni0394" unicode="&#x394;" horiz-adv-x="689" d="M282 704 C264 704 259 698 255 684 L49 31 C44 14 51 0 72 0 L617 0 C638 0 645 14 640 31 L434 684 C429 698 424 704 407 704 L282 704 Z M343 588 L347 588 L489 111 L199 111 L343 588 Z " />
<glyph glyph-name="uni03A9" unicode="&#x3a9;" horiz-adv-x="805" d="M402 716 C178 716 55 592 55 413 C55 270 146 182 237 138 L237 102 L116 112 C99 114 89 105 89 91 L89 22 C89 8 98 0 114 0 L352 0 L352 143 C352 154 345 163 336 168 C251 218 193 285 193 396 C193 520 269 598 402 598 C536 598 612 520 612 396 C612 285 554 218 469 168 C460 163 453 154 453 143 L453 0 L692 0 C707 0 715 8 715 22 L715 91 C715 105 707 114 689 112 L569 102 L569 138 C659 182 750 270 750 413 C750 592 627 716 402 716 L402 716 Z " />
<glyph glyph-name="uni03BC" unicode="&#x3bc;" horiz-adv-x="604" d="M541 504 C541 520 534 527 518 527 L432 527 C416 527 408 520 408 504 L408 204 C408 140 387 100 315 100 C245 100 199 146 199 218 L199 504 C199 520 192 527 176 527 L90 527 C74 527 66 520 66 504 L66 -87 C66 -103 74 -110 90 -110 L175 -110 C191 -110 199 -104 199 -88 L198 72 C220 32 268 -12 360 -12 C485 -12 541 54 541 179 L541 504 Z " />
<glyph glyph-name="pi" unicode="&#x3c0;" horiz-adv-x="727" d="M563 415 L667 415 C682 415 690 423 690 438 L690 504 C690 519 682 527 667 527 L65 527 C50 527 42 519 42 504 L42 438 C42 423 50 415 65 415 L161 415 L79 22 C76 7 85 0 101 0 L182 0 C199 0 207 7 209 22 L290 415 L436 415 L436 156 C436 37 482 -8 591 -8 C625 -8 652 -4 670 1 C683 4 690 9 690 23 L689 77 C689 92 682 100 667 98 C653 97 644 95 627 95 C577 95 563 112 563 171 L563 415 Z " />
<glyph glyph-name="Wgrave" unicode="&#x1e80;" horiz-adv-x="1041" d="M478 704 C459 704 451 697 447 682 L355 345 L310 164 L308 164 L266 343 L177 682 C173 697 164 704 148 704 L53 704 C37 704 29 694 34 676 L218 24 C223 8 231 0 250 0 L355 0 C372 0 382 8 386 24 L479 345 L519 501 L522 501 L561 345 L655 24 C660 7 669 0 686 0 L791 0 C810 0 818 7 823 24 L1006 676 C1011 694 1004 704 988 704 L893 704 C877 704 868 697 864 682 L775 343 L733 163 L730 163 L685 345 L594 682 C590 697 582 704 563 704 L478 704 Z M508 863 C503 873 495 880 480 880 L379 880 C363 880 361 863 370 854 L459 769 C468 760 475 756 490 756 L539 756 C553 756 558 765 553 775 L508 863 Z " />
<glyph glyph-name="wgrave" unicode="&#x1e81;" horiz-adv-x="851" d="M391 527 C375 527 368 518 365 507 L284 238 L258 134 L256 134 L234 238 L162 505 C158 519 150 527 135 527 L46 527 C30 527 24 516 28 501 L172 22 C176 8 185 0 201 0 L290 0 C306 0 315 7 320 23 L395 263 L424 372 L427 372 L456 263 L532 23 C537 7 546 0 562 0 L651 0 C666 0 676 8 680 22 L823 501 C828 516 822 527 805 527 L716 527 C700 527 693 519 689 505 L617 238 L595 134 L593 134 L568 238 L485 507 C482 518 476 527 460 527 L391 527 Z M417 698 C412 708 405 714 390 714 L289 714 C273 714 271 698 280 689 L369 603 C378 594 385 591 399 591 L449 591 C462 591 468 600 463 610 L417 698 Z " />
<glyph glyph-name="Wacute" unicode="&#x1e82;" horiz-adv-x="1041" d="M478 704 C459 704 451 697 447 682 L355 345 L310 164 L308 164 L266 343 L177 682 C173 697 164 704 148 704 L53 704 C37 704 29 694 34 676 L218 24 C223 8 231 0 250 0 L355 0 C372 0 382 8 386 24 L479 345 L519 501 L522 501 L561 345 L655 24 C660 7 669 0 686 0 L791 0 C810 0 818 7 823 24 L1006 676 C1011 694 1004 704 988 704 L893 704 C877 704 868 697 864 682 L775 343 L733 163 L730 163 L685 345 L594 682 C590 697 582 704 563 704 L478 704 Z M488 775 C483 765 488 756 502 756 L551 756 C566 756 573 760 582 769 L670 854 C680 864 678 880 662 880 L561 880 C545 880 538 873 533 863 L488 775 Z " />
<glyph glyph-name="wacute" unicode="&#x1e83;" horiz-adv-x="851" d="M391 527 C375 527 368 518 365 507 L284 238 L258 134 L256 134 L234 238 L162 505 C158 519 150 527 135 527 L46 527 C30 527 24 516 28 501 L172 22 C176 8 185 0 201 0 L290 0 C306 0 315 7 320 23 L395 263 L424 372 L427 372 L456 263 L532 23 C537 7 546 0 562 0 L651 0 C666 0 676 8 680 22 L823 501 C828 516 822 527 805 527 L716 527 C700 527 693 519 689 505 L617 238 L595 134 L593 134 L568 238 L485 507 C482 518 476 527 460 527 L391 527 Z M387 610 C382 600 387 591 400 591 L450 591 C464 591 471 594 480 603 L568 689 C578 699 576 714 560 714 L459 714 C444 714 437 708 432 698 L387 610 Z " />
<glyph glyph-name="Wdieresis" unicode="&#x1e84;" horiz-adv-x="1041" d="M478 704 C459 704 451 697 447 682 L355 345 L310 164 L308 164 L266 343 L177 682 C173 697 164 704 148 704 L53 704 C37 704 29 694 34 676 L218 24 C223 8 231 0 250 0 L355 0 C372 0 382 8 386 24 L479 345 L519 501 L522 501 L561 345 L655 24 C660 7 669 0 686 0 L791 0 C810 0 818 7 823 24 L1006 676 C1011 694 1004 704 988 704 L893 704 C877 704 868 697 864 682 L775 343 L733 163 L730 163 L685 345 L594 682 C590 697 582 704 563 704 L478 704 Z M480 842 C480 858 472 865 456 865 L381 865 C366 865 359 858 359 842 L359 779 C359 763 366 756 381 756 L456 756 C472 756 480 763 480 779 L480 842 Z M682 842 C682 858 675 865 659 865 L584 865 C568 865 562 858 562 842 L562 779 C562 763 568 756 584 756 L659 756 C675 756 682 763 682 779 L682 842 Z " />
<glyph glyph-name="wdieresis" unicode="&#x1e85;" horiz-adv-x="851" d="M391 527 C375 527 368 518 365 507 L284 238 L258 134 L256 134 L234 238 L162 505 C158 519 150 527 135 527 L46 527 C30 527 24 516 28 501 L172 22 C176 8 185 0 201 0 L290 0 C306 0 315 7 320 23 L395 263 L424 372 L427 372 L456 263 L532 23 C537 7 546 0 562 0 L651 0 C666 0 676 8 680 22 L823 501 C828 516 822 527 805 527 L716 527 C700 527 693 519 689 505 L617 238 L595 134 L593 134 L568 238 L485 507 C482 518 476 527 460 527 L391 527 Z M385 679 C385 695 378 702 362 702 L291 702 C275 702 267 695 267 679 L267 613 C267 598 275 591 291 591 L362 591 C378 591 385 598 385 613 L385 679 Z M583 679 C583 695 576 702 560 702 L489 702 C473 702 465 695 465 679 L465 613 C465 598 473 591 489 591 L560 591 C576 591 583 598 583 613 L583 679 Z " />
<glyph glyph-name="Ygrave" unicode="&#x1ef2;" horiz-adv-x="663" d="M401 259 L636 675 C644 689 637 704 619 704 L523 704 C504 704 497 695 490 682 L378 470 L332 372 L331 372 L284 470 L173 682 C166 696 158 704 140 704 L44 704 C26 704 19 689 27 675 L261 259 L261 25 C261 7 269 0 286 0 L377 0 C393 0 401 7 401 25 L401 259 Z M324 863 C319 873 311 880 296 880 L195 880 C179 880 177 863 186 854 L275 769 C284 760 291 756 306 756 L355 756 C369 756 374 765 369 775 L324 863 Z " />
<glyph glyph-name="ygrave" unicode="&#x1ef3;" horiz-adv-x="538" d="M519 501 C524 516 517 527 500 527 L412 527 C397 527 389 519 385 505 L320 271 L283 125 L281 125 L237 271 L156 505 C151 519 144 527 129 527 L39 527 C22 527 16 516 22 501 L198 56 C214 16 197 -13 145 -13 C116 -13 101 -8 88 -7 C75 -6 69 -11 67 -25 L60 -82 C58 -96 67 -101 80 -105 C98 -110 138 -116 175 -116 C296 -116 331 -72 367 44 L519 501 Z M253 698 C248 708 241 714 226 714 L125 714 C109 714 107 698 116 689 L205 603 C214 594 221 591 235 591 L285 591 C298 591 304 600 299 610 L253 698 Z " />
<glyph glyph-name="figuredash" unicode="&#x2012;" horiz-adv-x="590" d="M509 232 C523 232 530 239 530 253 L530 308 C530 322 523 328 509 328 L80 328 C66 328 59 322 59 308 L59 253 C59 239 66 232 79 232 L509 232 Z " />
<glyph glyph-name="endash" unicode="&#x2013;" horiz-adv-x="537" d="M473 218 C488 218 496 225 496 240 L496 303 C496 318 488 325 473 325 L64 325 C48 325 42 318 42 303 L42 240 C42 225 48 218 64 218 L473 218 Z " />
<glyph glyph-name="emdash" unicode="&#x2014;" horiz-adv-x="777" d="M713 218 C728 218 736 225 736 240 L736 303 C736 318 728 325 713 325 L64 325 C48 325 42 318 42 303 L42 240 C42 225 48 218 64 218 L713 218 Z " />
<glyph glyph-name="quoteleft" unicode="&#x2018;" horiz-adv-x="240" d="M61 592 C56 581 55 575 55 562 L55 478 C55 463 62 456 79 456 L168 456 C184 456 192 463 192 478 L192 568 C192 584 185 591 169 591 L138 591 L172 691 C175 701 172 710 160 710 L131 710 C120 710 115 705 111 697 L61 592 Z " />
<glyph glyph-name="quoteright" unicode="&#x2019;" horiz-adv-x="240" d="M180 571 C185 581 186 587 186 601 L186 684 C186 699 178 707 161 707 L73 707 C57 707 49 699 49 684 L49 595 C49 579 56 572 72 572 L103 572 L69 472 C66 462 69 452 80 452 L109 452 C121 452 126 458 130 466 L180 571 Z " />
<glyph glyph-name="quotesinglbase" unicode="&#x201a;" horiz-adv-x="240" d="M180 -1 C185 9 186 15 186 29 L186 112 C186 127 178 135 161 135 L73 135 C57 135 49 127 49 112 L49 23 C49 7 56 0 72 0 L103 0 L69 -100 C66 -110 69 -120 80 -120 L109 -120 C121 -120 126 -114 130 -106 L180 -1 Z " />
<glyph glyph-name="quotedblleft" unicode="&#x201c;" horiz-adv-x="438" d="M259 592 C254 582 252 575 252 562 L252 478 C252 463 260 456 277 456 L365 456 C382 456 390 463 390 478 L390 568 C390 584 382 591 367 591 L336 591 L369 691 C373 701 370 710 358 710 L329 710 C317 710 313 705 309 697 L259 592 Z M61 592 C56 581 55 575 55 562 L55 478 C55 463 62 456 79 456 L168 456 C184 456 192 463 192 478 L192 568 C192 584 185 591 169 591 L138 591 L172 691 C175 701 172 710 160 710 L131 710 C120 710 115 705 111 697 L61 592 Z " />
<glyph glyph-name="quotedblright" unicode="&#x201d;" horiz-adv-x="438" d="M180 571 C185 580 186 587 186 601 L186 684 C186 699 178 707 161 707 L73 707 C57 707 49 699 49 684 L49 594 C49 579 56 572 72 572 L103 572 L69 472 C66 462 69 452 80 452 L109 452 C121 452 126 457 130 466 L180 571 Z M378 571 C383 580 384 587 384 601 L384 684 C384 699 376 707 360 707 L271 707 C254 707 247 699 247 684 L247 594 C247 579 253 572 269 572 L301 572 L267 472 C263 462 266 452 278 452 L307 452 C318 452 324 457 328 466 L378 571 Z " />
<glyph glyph-name="quotedblbase" unicode="&#x201e;" horiz-adv-x="438" d="M180 -1 C185 8 186 15 186 29 L186 112 C186 127 178 135 161 135 L73 135 C57 135 49 127 49 112 L49 22 C49 7 56 0 72 0 L103 0 L69 -100 C66 -110 69 -120 80 -120 L109 -120 C121 -120 126 -115 130 -106 L180 -1 Z M378 -1 C383 8 384 15 384 29 L384 112 C384 127 376 135 360 135 L271 135 C254 135 247 127 247 112 L247 22 C247 7 253 0 269 0 L301 0 L267 -100 C263 -110 266 -120 278 -120 L307 -120 C318 -120 324 -115 328 -106 L378 -1 Z " />
<glyph glyph-name="dagger" unicode="&#x2020;" horiz-adv-x="543" d="M507 508 C507 524 501 531 485 531 L337 531 L337 682 C337 698 330 704 314 704 L228 704 C212 704 205 698 205 682 L205 531 L58 531 C42 531 35 524 35 508 L35 444 C35 428 42 420 58 420 L205 420 L205 -87 C205 -103 212 -110 228 -110 L314 -110 C330 -110 337 -103 337 -87 L337 420 L485 420 C501 420 507 428 507 444 L507 508 Z " />
<glyph glyph-name="daggerdbl" unicode="&#x2021;" horiz-adv-x="544" d="M509 151 C509 167 502 174 486 174 L338 174 L338 420 L486 420 C502 420 509 428 509 444 L509 508 C509 524 502 531 486 531 L338 531 L338 682 C338 698 331 704 315 704 L229 704 C213 704 206 698 206 682 L206 531 L58 531 C43 531 36 524 36 508 L36 444 C36 428 43 420 58 420 L206 420 L206 174 L58 174 C43 174 36 167 36 151 L36 87 C36 71 43 64 58 64 L206 64 L206 -87 C206 -103 213 -110 229 -110 L315 -110 C331 -110 338 -103 338 -87 L338 64 L486 64 C502 64 509 71 509 87 L509 151 Z " />
<glyph glyph-name="bullet" unicode="&#x2022;" horiz-adv-x="404" d="M202 128 C284 128 347 191 347 274 C347 357 284 419 202 419 C120 419 57 357 57 274 C57 191 120 128 202 128 L202 128 Z " />
<glyph glyph-name="onedotenleader" unicode="&#x2024;" horiz-adv-x="248" d="M55 23 C55 7 62 0 78 0 L170 0 C186 0 193 7 193 23 L193 119 C193 134 186 141 168 141 L80 141 C64 141 55 134 55 119 L55 23 Z " />
<glyph glyph-name="twodotenleader" unicode="&#x2025;" horiz-adv-x="494" d="M301 23 C301 7 308 0 324 0 L416 0 C432 0 439 7 439 23 L439 119 C439 134 432 141 414 141 L326 141 C310 141 301 134 301 119 L301 23 Z M55 23 C55 7 62 0 78 0 L170 0 C186 0 193 7 193 23 L193 119 C193 134 186 141 168 141 L80 141 C64 141 55 134 55 119 L55 23 Z " />
<glyph glyph-name="ellipsis" unicode="&#x2026;" horiz-adv-x="745" d="M55 23 C55 7 62 0 78 0 L170 0 C186 0 193 7 193 23 L193 119 C193 134 186 141 168 141 L80 141 C64 141 55 134 55 119 L55 23 Z M304 23 C304 7 311 0 327 0 L419 0 C435 0 441 7 441 23 L441 119 C441 134 434 141 417 141 L328 141 C312 141 304 134 304 119 L304 23 Z M552 23 C552 7 560 0 576 0 L667 0 C683 0 690 7 690 23 L690 119 C690 134 683 141 666 141 L577 141 C560 141 552 134 552 119 L552 23 Z " />
<glyph glyph-name="perthousand" unicode="&#x2030;" horiz-adv-x="1377" d="M731 682 C740 697 733 704 718 704 L659 704 C642 704 634 698 625 683 L226 23 C217 8 222 0 238 0 L298 0 C314 0 321 7 330 22 L731 682 Z M39 502 C39 366 109 292 215 292 C322 292 392 366 392 502 C392 638 322 712 215 712 C109 712 39 638 39 502 L39 502 Z M288 502 C288 418 263 378 215 378 C168 378 143 418 143 502 C143 586 168 626 215 626 C263 626 288 586 288 502 L288 502 Z M564 203 C564 67 634 -7 740 -7 C847 -7 917 67 917 203 C917 339 847 413 741 413 C634 413 564 339 564 203 L564 203 Z M814 203 C814 119 789 79 741 79 C693 79 668 119 668 203 C668 286 693 327 741 327 C789 327 814 286 814 203 L814 203 Z M980 203 C980 67 1050 -7 1157 -7 C1263 -7 1333 67 1333 203 C1333 339 1263 413 1157 413 C1050 413 980 339 980 203 L980 203 Z M1230 203 C1230 119 1205 79 1157 79 C1109 79 1085 119 1085 203 C1085 286 1109 327 1157 327 C1205 327 1230 286 1230 203 L1230 203 Z " />
<glyph glyph-name="guilsinglleft" unicode="&#x2039;" horiz-adv-x="285" d="M33 282 C33 280 33 277 36 272 L119 134 C125 123 131 118 147 118 L220 118 C236 118 241 129 233 142 L148 283 L233 425 C241 438 236 448 220 448 L147 448 C131 448 125 443 119 432 L36 294 C33 289 33 285 33 282 L33 282 Z " />
<glyph glyph-name="guilsinglright" unicode="&#x203a;" horiz-adv-x="285" d="M252 282 C252 285 252 289 249 294 L166 432 C160 443 154 448 138 448 L65 448 C49 448 44 438 52 425 L137 283 L52 142 C44 128 49 118 65 118 L138 118 C154 118 159 123 166 134 L249 273 C252 277 252 280 252 282 L252 282 Z " />
<glyph glyph-name="exclamdbl" unicode="&#x203c;" horiz-adv-x="611" d="M83 23 C83 7 90 0 105 0 L204 0 C219 0 226 7 226 23 L226 120 C226 135 219 143 202 143 L107 143 C91 143 83 135 83 120 L83 23 Z M185 214 C201 214 208 222 209 236 L234 680 C235 697 227 704 210 704 L99 704 C82 704 74 697 75 680 L100 236 C101 222 108 214 124 214 L185 214 Z M385 23 C385 7 392 0 407 0 L506 0 C521 0 528 7 528 23 L528 120 C528 135 521 143 504 143 L409 143 C393 143 385 135 385 120 L385 23 Z M487 214 C503 214 510 222 511 236 L536 680 C537 697 529 704 512 704 L401 704 C384 704 376 697 377 680 L402 236 C403 222 410 214 426 214 L487 214 Z " />
<glyph glyph-name="fraction" unicode="&#x2044;" horiz-adv-x="79" d="M292 682 C301 697 295 704 280 704 L220 704 C204 704 196 698 187 683 L-213 23 C-222 7 -216 0 -200 0 L-141 0 C-124 0 -117 7 -108 22 L292 682 Z " />
<glyph glyph-name="zero.superior" unicode="&#x2070;" horiz-adv-x="430" d="M215 483 C334 483 404 565 404 704 C404 843 335 925 215 925 C96 925 26 843 26 704 C26 565 96 483 215 483 L215 483 Z M215 571 C158 571 132 617 132 704 C132 791 158 837 215 837 C273 837 299 791 299 704 C299 617 273 571 215 571 L215 571 Z " />
<glyph glyph-name="four.superior" unicode="&#x2074;" horiz-adv-x="430" d="M243 807 L243 661 L119 661 L243 807 Z M385 577 C401 577 409 584 409 600 L409 638 C409 653 401 661 385 661 L345 661 L345 896 C345 911 338 919 321 919 L264 919 C251 919 246 914 239 906 L31 661 C25 655 22 648 22 639 L22 598 C22 584 29 577 45 577 L243 577 L243 512 C243 497 250 489 266 489 L321 489 C338 489 345 497 345 512 L345 577 L385 577 Z " />
<glyph glyph-name="five.superior" unicode="&#x2075;" horiz-adv-x="430" d="M379 630 C379 708 336 763 221 763 C192 763 163 756 146 751 C149 775 151 813 152 835 L329 835 C345 835 353 843 353 858 L353 896 C353 912 345 919 329 919 L91 919 C73 919 64 911 64 895 C64 869 56 759 52 714 C51 701 56 696 66 692 L90 682 C101 678 109 678 120 680 C142 681 157 692 200 692 C256 692 277 672 277 632 C277 590 251 567 192 567 C149 567 111 577 87 587 C73 592 64 590 58 577 L43 539 C37 525 43 517 57 510 C83 495 138 483 203 483 C314 483 379 534 379 630 L379 630 Z " />
<glyph glyph-name="six.superior" unicode="&#x2076;" horiz-adv-x="430" d="M323 832 C336 828 346 833 350 845 L361 883 C365 896 359 901 347 907 C324 917 285 925 242 925 C109 925 40 826 40 690 C40 578 95 483 228 483 C335 483 398 546 398 641 C398 724 350 784 249 784 C197 784 161 763 142 742 C147 804 185 843 254 843 C281 843 301 838 323 832 L323 832 Z M228 567 C171 567 150 600 150 640 C150 675 173 712 229 712 C278 712 304 688 304 641 C304 595 275 567 228 567 L228 567 Z " />
<glyph glyph-name="seven.superior" unicode="&#x2077;" horiz-adv-x="430" d="M377 897 C377 912 369 919 352 919 L71 919 C56 919 48 912 48 896 L48 858 C48 843 56 835 71 835 L266 835 C190 737 116 607 114 511 C114 497 121 489 137 489 L195 489 C211 489 217 497 218 512 C225 609 299 746 364 836 C370 845 377 854 377 867 L377 897 Z " />
<glyph glyph-name="eight.superior" unicode="&#x2078;" horiz-adv-x="430" d="M215 483 C331 483 392 534 392 606 C392 665 356 695 306 711 C352 728 382 761 382 809 C382 881 321 925 215 925 C109 925 48 881 48 809 C48 761 79 728 124 711 C74 695 39 665 39 606 C39 534 99 483 215 483 L215 483 Z M215 681 C259 671 291 648 291 614 C291 583 264 559 215 559 C167 559 139 583 139 614 C139 648 171 671 215 681 L215 681 Z M215 740 C172 753 148 772 148 804 C148 832 171 849 215 849 C259 849 282 832 282 804 C282 772 258 753 215 740 L215 740 Z " />
<glyph glyph-name="nine.superior" unicode="&#x2079;" horiz-adv-x="430" d="M107 576 C94 580 85 576 81 563 L69 525 C65 513 71 507 83 501 C106 491 146 483 188 483 C322 483 390 576 390 718 C390 830 334 925 201 925 C94 925 32 862 32 767 C32 684 80 624 181 624 C234 624 270 645 288 666 C283 604 245 564 176 564 C151 564 128 569 107 576 L107 576 Z M202 841 C259 841 281 808 281 768 C281 733 257 696 201 696 C153 696 126 720 126 767 C126 813 156 841 202 841 L202 841 Z " />
<glyph glyph-name="parenleft.superior" unicode="&#x207d;" horiz-adv-x="246" d="M48 704 C48 618 89 532 136 490 C141 486 146 481 158 481 L207 481 C221 481 223 492 218 500 C176 560 151 630 151 704 C151 778 176 848 218 908 C223 916 221 927 207 927 L158 927 C146 927 141 922 136 918 C89 876 48 790 48 704 L48 704 Z " />
<glyph glyph-name="parenright.superior" unicode="&#x207e;" horiz-adv-x="246" d="M198 704 C198 790 156 874 111 918 C105 924 100 927 89 927 L40 927 C26 927 22 917 29 908 C74 851 96 778 96 704 C96 630 72 559 29 500 C23 492 26 481 40 481 L89 481 C100 481 105 486 111 490 C161 528 198 618 198 704 L198 704 Z " />
<glyph glyph-name="n.superior" unicode="&#x207f;" horiz-adv-x="496" d="M74 920 C58 920 51 913 51 898 L51 512 C51 497 58 489 74 489 L140 489 C156 489 163 497 163 512 L163 734 C163 789 197 830 257 830 C310 830 333 799 333 745 L333 512 C333 497 340 489 356 489 L422 489 C438 489 445 497 445 512 L445 764 C445 862 403 926 299 926 C224 926 180 897 161 863 L158 900 C157 912 150 920 133 920 L74 920 Z " />
<glyph glyph-name="zero.inferior" unicode="&#x2080;" horiz-adv-x="430" d="M215 -221 C334 -221 404 -139 404 0 C404 139 335 221 215 221 C96 221 26 139 26 0 C26 -139 96 -221 215 -221 L215 -221 Z M215 -133 C158 -133 132 -87 132 0 C132 87 158 133 215 133 C273 133 299 87 299 0 C299 -87 273 -133 215 -133 L215 -133 Z " />
<glyph glyph-name="one.inferior" unicode="&#x2081;" horiz-adv-x="430" d="M193 102 L193 -192 C193 -207 200 -215 216 -215 L272 -215 C288 -215 296 -207 296 -192 L296 192 C296 207 288 215 272 215 L218 215 C202 215 194 211 188 207 L76 130 C68 124 64 115 71 103 L94 68 C101 57 113 56 126 63 L193 102 Z " />
<glyph glyph-name="two.inferior" unicode="&#x2082;" horiz-adv-x="430" d="M141 88 C141 114 156 137 205 137 C256 137 271 113 271 82 C271 -1 148 -81 63 -135 C52 -142 46 -146 46 -157 L46 -192 C46 -208 54 -215 70 -215 L362 -215 C378 -215 386 -208 386 -192 L386 -154 C386 -139 378 -131 362 -131 L197 -131 C272 -87 375 -8 375 88 C375 159 331 221 209 221 C92 221 45 164 45 92 C45 84 46 68 48 59 C51 48 57 42 71 42 L121 42 C136 42 142 48 142 61 C142 72 141 79 141 88 L141 88 Z " />
<glyph glyph-name="three.inferior" unicode="&#x2083;" horiz-adv-x="430" d="M200 -35 C246 -35 270 -49 270 -84 C270 -118 243 -137 192 -137 C145 -137 110 -125 87 -115 C72 -109 61 -115 56 -128 L41 -166 C36 -180 42 -185 56 -192 C82 -205 137 -221 205 -221 C311 -221 374 -175 374 -87 C374 -31 343 -3 307 13 C339 27 366 57 366 105 C366 186 296 221 201 221 C135 221 88 208 57 193 C45 188 41 180 45 168 L60 129 C65 116 73 111 90 118 C114 128 148 138 186 138 C233 138 263 123 263 91 C263 58 240 43 199 43 L150 43 C135 43 127 35 127 19 L127 -11 C127 -27 135 -35 150 -35 L200 -35 Z " />
<glyph glyph-name="four.inferior" unicode="&#x2084;" horiz-adv-x="430" d="M243 103 L243 -43 L119 -43 L243 103 Z M385 -127 C401 -127 409 -120 409 -104 L409 -66 C409 -51 401 -43 385 -43 L345 -43 L345 192 C345 207 338 215 321 215 L264 215 C251 215 246 210 239 202 L31 -43 C25 -49 22 -56 22 -65 L22 -106 C22 -120 29 -127 45 -127 L243 -127 L243 -192 C243 -207 250 -215 266 -215 L321 -215 C338 -215 345 -207 345 -192 L345 -127 L385 -127 Z " />
<glyph glyph-name="five.inferior" unicode="&#x2085;" horiz-adv-x="430" d="M379 -74 C379 4 336 59 221 59 C192 59 163 52 146 47 C149 71 151 109 152 131 L329 131 C345 131 353 139 353 154 L353 192 C353 208 345 215 329 215 L91 215 C73 215 64 207 64 191 C64 165 56 55 52 10 C51 -3 56 -8 66 -12 L90 -22 C101 -26 109 -26 120 -24 C142 -23 157 -12 200 -12 C256 -12 277 -32 277 -72 C277 -114 251 -137 192 -137 C149 -137 111 -127 87 -117 C73 -112 64 -114 58 -127 L43 -165 C37 -179 43 -187 57 -194 C83 -209 138 -221 203 -221 C314 -221 379 -170 379 -74 L379 -74 Z " />
<glyph glyph-name="six.inferior" unicode="&#x2086;" horiz-adv-x="430" d="M323 128 C336 124 346 129 350 141 L361 179 C365 192 359 197 347 203 C324 213 285 221 242 221 C109 221 40 122 40 -14 C40 -126 95 -221 228 -221 C335 -221 398 -158 398 -63 C398 20 350 80 249 80 C197 80 161 59 142 38 C147 100 185 139 254 139 C281 139 301 134 323 128 L323 128 Z M228 -137 C171 -137 150 -104 150 -64 C150 -29 173 8 229 8 C278 8 304 -16 304 -63 C304 -109 275 -137 228 -137 L228 -137 Z " />
<glyph glyph-name="seven.inferior" unicode="&#x2087;" horiz-adv-x="430" d="M377 193 C377 208 369 215 352 215 L71 215 C56 215 48 208 48 192 L48 154 C48 139 56 131 71 131 L266 131 C190 33 116 -97 114 -193 C114 -207 121 -215 137 -215 L195 -215 C211 -215 217 -207 218 -192 C225 -95 299 42 364 132 C370 141 377 150 377 163 L377 193 Z " />
<glyph glyph-name="eight.inferior" unicode="&#x2088;" horiz-adv-x="430" d="M215 -221 C331 -221 392 -170 392 -98 C392 -39 356 -9 306 7 C352 24 382 57 382 105 C382 177 321 221 215 221 C109 221 48 177 48 105 C48 57 79 24 124 7 C74 -9 39 -39 39 -98 C39 -170 99 -221 215 -221 L215 -221 Z M215 -23 C259 -33 291 -56 291 -90 C291 -121 264 -145 215 -145 C167 -145 139 -121 139 -90 C139 -56 171 -33 215 -23 L215 -23 Z M215 36 C172 49 148 68 148 100 C148 128 171 145 215 145 C259 145 282 128 282 100 C282 68 258 49 215 36 L215 36 Z " />
<glyph glyph-name="nine.inferior" unicode="&#x2089;" horiz-adv-x="430" d="M107 -128 C94 -124 85 -128 81 -141 L69 -179 C65 -191 71 -197 83 -203 C106 -213 146 -221 188 -221 C322 -221 390 -128 390 14 C390 126 334 221 201 221 C94 221 32 158 32 63 C32 -20 80 -80 181 -80 C234 -80 270 -59 288 -38 C283 -100 245 -140 176 -140 C151 -140 128 -135 107 -128 L107 -128 Z M202 137 C259 137 281 104 281 64 C281 29 257 -8 201 -8 C153 -8 126 16 126 63 C126 109 156 137 202 137 L202 137 Z " />
<glyph glyph-name="parenleft.inferior" unicode="&#x208d;" horiz-adv-x="246" d="M48 0 C48 -86 89 -172 136 -214 C141 -218 146 -223 158 -223 L207 -223 C221 -223 223 -212 218 -204 C176 -144 151 -74 151 0 C151 74 176 144 218 204 C223 212 221 223 207 223 L158 223 C146 223 141 218 136 214 C89 172 48 86 48 0 L48 0 Z " />
<glyph glyph-name="parenright.inferior" unicode="&#x208e;" horiz-adv-x="246" d="M198 0 C198 86 156 170 111 214 C105 220 100 223 89 223 L40 223 C26 223 22 213 29 204 C74 147 96 74 96 0 C96 -74 72 -145 29 -204 C23 -212 26 -223 40 -223 L89 -223 C100 -223 105 -218 111 -214 C161 -176 198 -86 198 0 L198 0 Z " />
<glyph glyph-name="Euro" unicode="&#x20ac;" horiz-adv-x="655" d="M39 316 C26 316 21 310 21 297 L21 262 C21 249 26 244 39 244 L102 244 C133 97 245 -11 426 -11 C514 -11 576 12 614 36 C626 44 633 50 626 65 L597 127 C590 142 582 149 564 141 C534 128 494 113 443 113 C332 113 271 174 249 244 L404 244 C416 244 425 248 430 261 L443 295 C448 307 443 316 430 316 L238 316 C237 326 236 341 236 352 C236 366 236 377 238 389 L471 389 C484 389 492 393 497 406 L510 440 C515 453 510 461 497 461 L248 461 C271 530 333 592 441 592 C490 592 532 579 561 565 C579 557 587 563 594 577 L622 639 C629 654 623 661 610 669 C572 691 510 716 424 716 C245 716 134 608 103 461 L39 461 C26 461 21 455 21 443 L21 407 C21 395 26 389 39 389 L96 389 C95 381 94 365 94 352 C94 340 95 327 96 316 L39 316 Z " />
<glyph glyph-name="afii61289" unicode="&#x2113;" horiz-adv-x="491" d="M328 96 C270 96 245 115 245 183 L245 256 C356 313 459 407 459 548 C459 642 414 716 300 716 C158 716 119 622 119 467 L119 293 C87 282 55 272 25 265 C18 264 15 258 17 249 L30 195 C33 187 39 185 47 187 C68 191 92 197 119 205 L119 168 C119 41 185 -8 298 -8 C335 -8 378 -1 396 6 C410 11 417 16 414 31 L403 87 C401 99 395 106 384 104 C368 102 352 96 328 96 L328 96 Z M245 485 C245 582 252 628 314 628 C354 628 373 600 373 550 C373 462 319 398 245 352 L245 485 Z " />
<glyph glyph-name="trademark" unicode="&#x2122;" horiz-adv-x="749" d="M275 633 C286 633 292 639 292 650 L292 688 C292 699 286 704 275 704 L52 704 C41 704 36 699 36 688 L36 650 C36 639 41 633 52 633 L121 633 L121 393 C121 382 127 377 139 377 L189 377 C200 377 206 382 206 393 L206 633 L275 633 Z M523 456 C530 456 534 459 539 466 L618 585 L618 393 C618 382 624 377 635 377 L683 377 C695 377 701 382 701 393 L701 688 C701 699 695 704 684 704 L632 704 C621 704 616 700 611 693 L523 558 L435 693 C431 700 425 704 415 704 L362 704 C351 704 345 699 345 688 L345 393 C345 382 351 377 363 377 L411 377 C422 377 428 382 428 393 L428 586 L508 466 C511 461 516 456 523 456 L523 456 Z " />
<glyph glyph-name="Omega" unicode="&#x2126;" horiz-adv-x="805" d="M402 716 C178 716 55 592 55 413 C55 270 146 182 237 138 L237 102 L116 112 C99 114 89 105 89 91 L89 22 C89 8 98 0 114 0 L352 0 L352 143 C352 154 345 163 336 168 C251 218 193 285 193 396 C193 520 269 598 402 598 C536 598 612 520 612 396 C612 285 554 218 469 168 C460 163 453 154 453 143 L453 0 L692 0 C707 0 715 8 715 22 L715 91 C715 105 707 114 689 112 L569 102 L569 138 C659 182 750 270 750 413 C750 592 627 716 402 716 L402 716 Z " />
<glyph glyph-name="estimated" unicode="&#x212e;" horiz-adv-x="856" d="M820 335 L820 349 C820 548 651 708 430 708 C209 708 40 548 40 349 C40 152 213 -9 434 -9 C562 -9 673 46 745 130 L687 130 C624 57 538 21 435 21 C340 21 254 49 195 117 C190 123 187 131 187 146 L187 331 C187 334 189 335 192 335 L820 335 Z M673 365 C673 362 672 359 668 359 L192 359 C189 359 187 362 187 365 L187 552 C187 567 191 576 196 581 C259 646 336 678 431 678 C525 678 601 647 662 587 C670 578 673 571 673 551 L673 365 Z " />
<glyph glyph-name="onethird" unicode="&#x2153;" horiz-adv-x="999" d="M715 682 C724 697 718 704 703 704 L643 704 C627 704 619 698 610 683 L210 23 C201 7 207 0 223 0 L282 0 C299 0 306 7 315 22 L715 682 Z M719 180 C704 180 696 188 696 204 L696 234 C696 250 704 258 719 258 L768 258 C809 258 832 273 832 306 C832 338 802 353 755 353 C717 353 683 343 659 333 C642 326 634 331 629 344 L614 383 C610 395 614 403 626 408 C657 423 704 436 770 436 C865 436 935 401 935 320 C935 272 908 242 876 228 C912 212 943 184 943 128 C943 40 880 -6 774 -6 C706 -6 651 10 625 23 C611 30 605 35 610 49 L625 87 C630 100 641 106 656 100 C679 90 714 78 761 78 C812 78 839 97 839 131 C839 166 815 180 769 180 L719 180 Z M193 591 L193 297 C193 282 200 274 216 274 L272 274 C288 274 296 282 296 297 L296 681 C296 696 288 704 272 704 L218 704 C202 704 194 700 188 696 L76 619 C68 613 64 604 71 592 L94 557 C101 546 113 545 126 552 L193 591 Z " />
<glyph glyph-name="twothirds" unicode="&#x2154;" horiz-adv-x="999" d="M141 577 C141 603 156 626 205 626 C256 626 271 602 271 571 C271 488 148 408 63 354 C52 347 46 343 46 332 L46 297 C46 281 54 274 70 274 L362 274 C378 274 386 281 386 297 L386 335 C386 350 378 358 362 358 L197 358 C272 402 375 481 375 577 C375 648 331 710 209 710 C92 710 45 653 45 581 C45 573 46 557 48 548 C51 537 57 531 71 531 L121 531 C136 531 142 537 142 550 C142 561 141 568 141 577 L141 577 Z M760 682 C769 697 763 704 748 704 L688 704 C672 704 664 698 655 683 L255 23 C246 7 252 0 268 0 L327 0 C344 0 351 7 360 22 L760 682 Z M769 180 C815 180 839 166 839 131 C839 97 812 78 761 78 C714 78 679 90 656 100 C641 106 630 100 625 87 L610 49 C605 35 611 30 625 23 C651 10 706 -6 774 -6 C880 -6 943 40 943 128 C943 184 912 212 876 228 C908 242 935 272 935 320 C935 401 865 436 770 436 C704 436 657 423 626 408 C614 403 610 395 614 383 L629 344 C634 331 642 326 659 333 C683 343 717 353 755 353 C802 353 832 338 832 306 C832 273 809 258 768 258 L719 258 C704 258 696 250 696 234 L696 204 C696 188 704 180 719 180 L769 180 Z " />
<glyph glyph-name="oneeighth" unicode="&#x215b;" horiz-adv-x="999" d="M730 682 C739 697 733 704 718 704 L658 704 C642 704 634 698 625 683 L225 23 C216 7 222 0 238 0 L297 0 C314 0 321 7 330 22 L730 682 Z M784 -6 C668 -6 608 45 608 117 C608 176 643 206 693 222 C648 239 617 272 617 320 C617 392 678 436 784 436 C890 436 951 392 951 320 C951 272 921 239 875 222 C925 206 961 176 961 117 C961 45 900 -6 784 -6 L784 -6 Z M784 192 C740 182 708 159 708 125 C708 94 736 70 784 70 C833 70 860 94 860 125 C860 159 828 182 784 192 L784 192 Z M784 251 C827 264 851 283 851 315 C851 343 828 360 784 360 C740 360 717 343 717 315 C717 283 741 264 784 251 L784 251 Z M193 591 L193 297 C193 282 200 274 216 274 L272 274 C288 274 296 282 296 297 L296 681 C296 696 288 704 272 704 L218 704 C202 704 194 700 188 696 L76 619 C68 613 64 604 71 592 L94 557 C101 546 113 545 126 552 L193 591 Z " />
<glyph glyph-name="threeeighths" unicode="&#x215c;" horiz-adv-x="999" d="M200 454 C246 454 270 440 270 405 C270 371 243 352 192 352 C145 352 110 364 87 374 C72 380 61 374 56 361 L41 323 C36 309 42 304 56 297 C82 284 137 268 205 268 C311 268 374 314 374 402 C374 458 343 486 307 502 C339 516 366 546 366 594 C366 675 296 710 201 710 C135 710 88 697 57 682 C45 677 41 669 45 657 L60 618 C65 605 73 600 90 607 C114 617 148 627 186 627 C233 627 263 612 263 580 C263 547 240 532 199 532 L150 532 C135 532 127 524 127 508 L127 478 C127 462 135 454 150 454 L200 454 Z M744 682 C753 697 747 704 732 704 L672 704 C656 704 648 698 639 683 L239 23 C230 7 236 0 252 0 L311 0 C328 0 335 7 344 22 L744 682 Z M784 -6 C900 -6 961 45 961 117 C961 176 925 206 875 222 C921 239 951 272 951 320 C951 392 890 436 784 436 C678 436 617 392 617 320 C617 272 648 239 693 222 C643 206 608 176 608 117 C608 45 668 -6 784 -6 L784 -6 Z M784 192 C828 182 860 159 860 125 C860 94 833 70 784 70 C736 70 708 94 708 125 C708 159 740 182 784 192 L784 192 Z M784 251 C741 264 717 283 717 315 C717 343 740 360 784 360 C828 360 851 343 851 315 C851 283 827 264 784 251 L784 251 Z " />
</font>
</svg>
