<?xml version="1.0" encoding="UTF-8"?>
<svg xmlns="http://www.w3.org/2000/svg" xmlns:xlink="http://www.w3.org/1999/xlink" version="1.2" >
<font id="Energi Pro ExtraLight">
<font-face  font-family="Energi Pro" units-per-em="1000" ascent="750" descent="-250" font-style="normal" font-weight="200" font-stretch="condensed" cap-height="701" x-height="516" underline-position="-82.5" underline-thickness="35" />
<missing-glyph  horiz-adv-x="492" d="M0 690 L492 690 L492 0 L0 0 L0 690 L0 690 Z M443 94 L443 597 L275 345 L443 94 L443 94 Z M49 597 L49 94 L217 345 L49 597 L49 597 Z M246 389 L414 641 L79 641 L246 389 L246 389 Z M246 301 L79 49 L413 49 L246 301 L246 301 Z " />
<glyph glyph-name="CR" unicode="&#xd;" horiz-adv-x="500" d="" />
<glyph glyph-name="space" unicode="&#x20;" horiz-adv-x="251" d="" />
<glyph glyph-name="exclam" unicode="&#x21;" horiz-adv-x="224" d="M84 8 L84 70 C84 75 87 77 93 77 L131 77 C137 77 140 75 140 70 L140 8 C140 3 137 0 131 0 L93 0 C87 0 84 3 84 8 L84 8 Z M120 183 L104 183 C99 183 96 186 96 191 L90 692 C90 698 93 701 98 701 L126 701 C131 701 134 698 134 692 L128 191 C128 186 125 183 120 183 L120 183 Z " />
<glyph glyph-name="quotedbl" unicode="&#x22;" horiz-adv-x="273" d="M89 493 L68 493 L60 623 C58 646 57 666 57 687 C57 708 62 715 78 715 C94 715 98 708 98 687 C98 666 97 646 96 623 L89 493 L89 493 Z M205 493 L184 493 L177 623 C176 646 174 666 174 687 C174 708 179 715 195 715 C210 715 215 708 215 686 C215 666 214 646 213 623 L205 493 L205 493 Z " />
<glyph glyph-name="numbersign" unicode="&#x23;" horiz-adv-x="543" d="M489 694 L434 490 L520 490 C525 490 527 487 527 482 L527 466 C527 460 525 457 520 457 L425 457 L367 245 L451 245 C457 245 460 242 460 237 L460 221 C460 215 457 213 451 213 L358 213 L301 -1 C300 -7 296 -10 291 -8 L274 -3 C268 -1 267 2 268 7 L324 213 L144 213 L87 -1 C86 -7 82 -10 77 -8 L59 -3 C55 -2 53 2 54 7 L110 213 L24 213 C19 213 16 215 16 221 L16 237 C16 242 19 245 24 245 L118 245 L176 457 L92 457 C86 457 83 460 83 466 L83 482 C83 487 86 490 92 490 L184 490 L242 702 C243 708 246 709 252 708 L269 704 C275 703 276 698 275 694 L219 490 L399 490 L457 702 C458 708 460 710 466 708 L484 704 C488 703 490 699 489 694 L489 694 Z M211 457 L153 245 L333 245 L389 457 L211 457 L211 457 Z " />
<glyph glyph-name="dollar" unicode="&#x24;" horiz-adv-x="456" d="M250 787 L250 710 C302 709 350 697 374 689 C380 687 383 684 381 677 L377 661 C375 655 371 652 365 654 C338 661 295 674 245 674 C134 674 91 624 91 547 C91 456 159 420 232 378 C317 330 410 282 410 163 C410 61 348 3 251 -7 L251 -86 C251 -92 248 -95 243 -95 L226 -95 C221 -95 219 -92 219 -86 L219 -9 C141 -9 84 4 55 15 C48 18 46 20 48 27 L52 43 C53 49 57 52 63 49 C90 37 145 26 215 26 C311 26 372 74 372 163 C372 263 289 304 210 348 C130 393 52 437 52 547 C52 637 101 700 217 708 L217 787 C217 793 220 796 226 796 L242 796 C248 796 250 793 250 787 L250 787 Z " />
<glyph glyph-name="percent" unicode="&#x25;" horiz-adv-x="762" d="M210 8 C207 2 204 0 197 0 L177 0 C170 0 168 4 172 10 L551 693 C554 698 557 701 564 701 L585 701 C590 701 593 697 590 691 L210 8 L210 8 Z M40 509 C40 638 88 707 174 707 C260 707 309 638 309 509 C309 380 260 312 174 312 C88 312 40 380 40 509 L40 509 Z M273 509 C273 619 239 675 174 675 C110 675 75 619 75 509 C75 399 110 344 174 344 C239 344 273 399 273 509 L273 509 Z M453 192 C453 321 501 389 587 389 C672 389 721 321 721 192 C721 63 672 -6 588 -6 C501 -6 453 63 453 192 L453 192 Z M687 192 C687 302 652 357 587 357 C522 357 487 302 487 192 C487 82 522 26 587 26 C652 26 687 82 687 192 L687 192 Z " />
<glyph glyph-name="ampersand" unicode="&#x26;" horiz-adv-x="604" d="M539 238 C539 190 528 146 503 101 L574 9 C578 5 575 0 570 0 L545 0 C535 0 530 7 526 12 L482 73 C439 22 374 -8 285 -8 C140 -8 48 67 48 202 C48 302 105 393 212 422 L192 450 C156 499 136 537 136 585 C136 654 175 710 292 710 C332 710 368 703 393 693 C399 690 402 687 401 682 L396 668 C394 662 390 660 383 662 C358 671 327 677 294 677 C203 677 172 636 172 585 C172 542 193 507 226 463 L479 130 C498 168 503 209 503 239 C503 261 499 281 496 300 C495 305 498 309 504 309 L523 309 C527 309 530 305 532 300 C539 278 539 260 539 238 L539 238 Z M285 26 C366 26 425 54 458 100 L234 396 C133 368 87 288 87 203 C87 93 163 26 285 26 L285 26 Z " />
<glyph glyph-name="quotesingle" unicode="&#x27;" horiz-adv-x="156" d="M89 493 L68 493 L60 623 C58 646 57 666 57 687 C57 708 62 715 78 715 C94 715 98 708 98 687 C98 666 97 646 96 623 L89 493 L89 493 Z " />
<glyph glyph-name="parenleft" unicode="&#x28;" horiz-adv-x="284" d="M81 296 C81 463 143 608 212 702 C215 706 218 708 224 708 L242 708 C248 708 248 703 246 700 C176 605 120 453 120 296 C120 140 184 -5 246 -106 C248 -110 248 -115 242 -115 L224 -115 C218 -115 215 -114 212 -110 C143 -15 81 130 81 296 L81 296 Z " />
<glyph glyph-name="parenright" unicode="&#x29;" horiz-adv-x="284" d="M204 296 C204 130 143 -15 73 -110 C70 -114 67 -115 62 -115 L44 -115 C37 -115 37 -110 39 -106 C101 -6 165 140 165 296 C165 453 110 605 39 700 C37 703 37 708 44 708 L62 708 C67 708 70 706 73 702 C143 608 204 463 204 296 L204 296 Z " />
<glyph glyph-name="asterisk" unicode="&#x2a;" horiz-adv-x="360" d="M180 406 C167 406 164 413 164 430 C164 450 167 497 171 542 C133 516 96 491 77 480 C63 472 55 471 49 482 C42 493 47 499 61 507 C79 518 121 538 162 558 C121 578 79 597 61 608 C47 616 42 622 49 633 C55 645 63 643 77 635 C96 624 133 598 170 574 C167 619 163 665 163 686 C163 703 166 709 179 709 C193 709 196 703 196 686 C196 665 191 619 188 574 C226 599 264 625 282 635 C297 644 304 645 310 634 C316 622 313 616 298 608 C280 598 238 578 197 558 C238 538 281 517 298 507 C313 498 316 493 310 482 C304 471 296 471 282 480 C264 490 226 516 188 542 C192 497 196 450 196 430 C196 413 193 406 180 406 L180 406 Z " />
<glyph glyph-name="plus" unicode="&#x2b;" horiz-adv-x="515" d="M454 336 L275 336 L275 138 C275 132 272 130 267 130 L248 130 C243 130 240 132 240 138 L240 336 L61 336 C55 336 52 339 52 345 L52 361 C52 367 55 370 61 370 L240 370 L240 567 C240 573 243 575 248 575 L267 575 C272 575 275 573 275 567 L275 370 L454 370 C459 370 462 367 462 361 L462 345 C462 339 459 336 454 336 L454 336 Z " />
<glyph glyph-name="comma" unicode="&#x2c;" horiz-adv-x="178" d="M115 -1 L91 -89 C90 -94 87 -96 82 -96 L74 -96 C68 -96 67 -92 68 -87 L85 0 L70 0 C64 0 62 3 62 8 L62 69 C62 75 65 77 71 77 L107 77 C114 77 116 75 116 69 L116 10 C116 6 116 4 115 -1 L115 -1 Z " />
<glyph glyph-name="hyphen" unicode="&#x2d;" horiz-adv-x="326" d="M276 247 L51 247 C45 247 42 249 42 254 L42 272 C42 277 45 280 51 280 L276 280 C281 280 284 277 284 272 L284 254 C284 249 281 247 276 247 L276 247 Z " />
<glyph glyph-name="period" unicode="&#x2e;" horiz-adv-x="178" d="M62 8 L62 69 C62 75 65 77 71 77 L107 77 C114 77 116 75 116 69 L116 8 C116 3 114 0 108 0 L70 0 C64 0 62 3 62 8 L62 8 Z " />
<glyph glyph-name="slash" unicode="&#x2f;" horiz-adv-x="334" d="M10 9 L286 693 C288 698 291 701 298 701 L317 701 C324 701 326 697 324 691 L48 8 C46 2 43 0 37 0 L17 0 C10 0 8 3 10 9 L10 9 Z " />
<glyph glyph-name="zero" unicode="0" horiz-adv-x="547" d="M274 710 C418 710 494 593 494 350 C494 106 418 -9 274 -9 C128 -9 53 106 53 350 C53 593 128 710 274 710 L274 710 Z M274 26 C395 26 455 130 455 349 C455 570 395 674 274 674 C152 674 92 570 92 350 C92 130 152 26 274 26 L274 26 Z " />
<glyph glyph-name="one" unicode="1" horiz-adv-x="345" d="M194 8 L194 652 L59 546 C54 542 51 542 48 546 L35 561 C32 565 32 569 36 572 L190 697 C193 700 196 701 202 701 L223 701 C229 701 232 698 232 692 L232 8 C232 3 229 0 223 0 L202 0 C197 0 194 3 194 8 L194 8 Z " />
<glyph glyph-name="two" unicode="2" horiz-adv-x="509" d="M100 534 C100 518 102 503 102 492 C102 487 100 484 94 484 L75 484 C70 484 67 487 66 493 C63 505 62 523 62 536 C62 630 116 710 249 710 C388 710 438 623 438 516 C438 326 233 137 115 35 L444 35 C450 35 452 32 452 27 L452 8 C452 3 450 0 444 0 L63 0 C58 0 55 3 55 8 L55 24 C55 29 55 33 61 38 C193 150 399 336 399 516 C399 604 363 675 249 675 C138 675 100 611 100 534 L100 534 Z " />
<glyph glyph-name="three" unicode="3" horiz-adv-x="459" d="M215 384 C294 384 353 429 353 533 C353 627 303 675 198 675 C140 675 88 661 59 650 C54 648 51 650 49 656 L43 672 C41 678 45 680 50 683 C79 694 133 710 198 710 C327 710 392 649 392 534 C392 434 341 384 285 370 C347 358 408 310 408 194 C408 58 332 -9 192 -9 C125 -9 68 6 39 18 C33 20 30 22 31 27 L36 44 C38 51 42 52 47 51 C79 42 130 25 192 25 C307 25 369 83 369 194 C369 311 303 349 215 349 L159 349 C153 349 149 352 149 358 L149 375 C149 381 153 384 159 384 L215 384 L215 384 Z " />
<glyph glyph-name="four" unicode="4" horiz-adv-x="530" d="M396 0 L376 0 C370 0 367 3 367 8 L367 175 L44 175 C39 175 36 178 36 184 L36 202 C36 207 37 210 40 215 L362 694 C365 698 368 701 373 701 L396 701 C402 701 405 698 405 692 L405 210 L501 210 C507 210 509 207 509 201 L509 184 C509 178 507 175 501 175 L405 175 L405 8 C405 3 402 0 396 0 L396 0 Z M367 640 L79 210 L367 210 L367 640 L367 640 Z " />
<glyph glyph-name="five" unicode="5" horiz-adv-x="472" d="M423 215 C423 71 347 -9 202 -9 C129 -9 77 5 48 17 C41 20 39 23 41 28 L46 45 C47 50 51 52 57 50 C88 38 137 25 201 25 C324 25 383 93 383 215 C383 316 347 391 224 391 C139 391 100 365 85 365 C82 365 82 366 77 368 L66 372 C61 374 60 378 61 384 C69 475 77 599 79 692 C79 698 81 701 88 701 L378 701 C384 701 387 698 387 692 L387 674 C387 668 384 666 378 666 L113 666 C111 588 104 477 97 401 C128 413 175 425 226 425 C372 425 423 336 423 215 L423 215 Z " />
<glyph glyph-name="six" unicode="6" horiz-adv-x="514" d="M389 657 C362 665 327 675 293 675 C163 675 92 578 92 348 C92 333 92 317 93 301 C105 377 165 447 276 447 C417 447 470 346 470 222 C470 87 403 -10 275 -10 C126 -10 53 108 53 340 C53 580 126 710 292 710 C332 710 372 702 398 691 C404 689 406 686 405 681 L400 664 C399 658 395 655 389 657 L389 657 Z M275 26 C377 26 430 109 430 222 C430 324 391 413 273 413 C175 413 107 349 107 220 C107 137 156 26 275 26 L275 26 Z " />
<glyph glyph-name="seven" unicode="7" horiz-adv-x="457" d="M136 8 C144 222 261 509 369 666 L49 666 C43 666 40 668 40 674 L40 692 C40 698 43 701 49 701 L405 701 C412 701 414 698 414 692 L414 675 C414 671 412 667 409 661 C300 504 180 213 176 8 C176 3 173 0 168 0 L145 0 C139 0 136 3 136 8 L136 8 Z " />
<glyph glyph-name="eight" unicode="8" horiz-adv-x="503" d="M252 -10 C118 -10 48 63 48 168 C48 280 127 339 213 364 C128 393 61 448 61 547 C61 641 125 710 252 710 C379 710 442 641 442 547 C442 448 375 393 291 364 C376 339 455 280 455 168 C455 63 385 -10 252 -10 L252 -10 Z M252 677 C151 677 99 623 99 547 C99 459 162 409 252 382 C343 409 404 459 404 547 C404 623 352 677 252 677 L252 677 Z M252 346 C161 323 87 269 87 169 C87 83 143 24 252 24 C361 24 416 83 416 169 C416 269 342 323 252 346 L252 346 Z " />
<glyph glyph-name="nine" unicode="9" horiz-adv-x="514" d="M127 42 C153 32 188 25 222 25 C351 25 423 120 423 350 C423 365 423 380 422 396 C411 324 351 253 238 253 C98 253 44 355 44 478 C44 613 112 710 239 710 C389 710 461 592 461 360 C461 120 390 -9 224 -9 C184 -9 143 -2 117 9 C112 11 108 14 110 20 L116 36 C118 43 120 44 127 42 L127 42 Z M240 674 C137 674 84 591 84 478 C84 376 123 288 242 288 C339 288 407 351 407 480 C407 566 358 674 240 674 L240 674 Z " />
<glyph glyph-name="colon" unicode="&#x3a;" horiz-adv-x="207" d="M76 8 L76 69 C76 75 79 77 85 77 L122 77 C128 77 131 75 131 69 L131 8 C131 3 128 0 122 0 L85 0 C79 0 76 3 76 8 L76 8 Z M76 446 L76 505 C76 512 79 514 85 514 L122 514 C128 514 131 512 131 506 L131 446 C131 440 128 437 122 437 L85 437 C79 437 76 440 76 446 L76 446 Z " />
<glyph glyph-name="semicolon" unicode="&#x3b;" horiz-adv-x="207" d="M76 446 L76 506 C76 512 79 514 84 514 L122 514 C128 514 131 512 131 506 L131 446 C131 440 128 437 122 437 L85 437 C79 437 76 440 76 446 L76 446 Z M129 -1 L106 -89 C105 -94 102 -96 97 -96 L88 -96 C82 -96 81 -92 82 -87 L99 0 L85 0 C79 0 76 3 76 8 L76 69 C76 75 79 77 85 77 L122 77 C128 77 131 75 131 69 L131 10 C131 6 130 4 129 -1 L129 -1 Z " />
<glyph glyph-name="less" unicode="&#x3c;" horiz-adv-x="515" d="M66 352 C66 356 68 360 72 363 L398 638 C401 641 406 641 409 637 L422 623 C425 619 425 615 421 611 L112 352 L421 93 C425 89 425 86 422 82 L409 67 C406 63 402 63 398 66 L72 342 C68 345 66 348 66 352 L66 352 Z " />
<glyph glyph-name="equal" unicode="&#x3d;" horiz-adv-x="515" d="M446 435 L68 435 C64 435 61 437 61 443 L61 460 C61 465 64 468 69 468 L446 468 C451 468 454 465 454 460 L454 443 C454 437 451 435 446 435 L446 435 Z M446 238 L68 238 C64 238 61 240 61 245 L61 263 C61 268 64 270 69 270 L446 270 C451 270 454 268 454 263 L454 245 C454 240 451 238 446 238 L446 238 Z " />
<glyph glyph-name="greater" unicode="&#x3e;" horiz-adv-x="515" d="M448 352 C448 348 446 345 443 342 L116 66 C113 63 108 63 105 67 L93 82 C90 86 89 89 94 93 L402 352 L94 611 C89 615 89 619 93 623 L105 637 C108 641 112 641 116 638 L443 363 C446 360 448 357 448 352 L448 352 Z " />
<glyph glyph-name="question" unicode="&#x3f;" horiz-adv-x="420" d="M170 8 L170 70 C170 75 172 77 178 77 L217 77 C222 77 225 75 225 70 L225 8 C225 3 222 0 217 0 L178 0 C172 0 170 3 170 8 L170 8 Z M216 192 C216 186 213 183 207 183 L188 183 C182 183 179 186 179 191 L179 236 C179 361 327 413 327 549 C327 625 292 675 187 675 C126 675 80 660 54 649 C48 647 45 649 43 655 L37 672 C36 677 38 679 44 682 C71 695 120 710 188 710 C318 710 366 645 366 549 C366 397 216 351 216 236 L216 192 L216 192 Z " />
<glyph glyph-name="at" unicode="&#x40;" horiz-adv-x="817" d="M518 232 L544 417 C524 423 495 429 459 429 C324 429 276 313 276 194 C276 116 308 63 373 63 C453 63 503 133 518 232 L518 232 Z M572 -53 C577 -52 580 -53 582 -59 L585 -71 C586 -76 584 -78 579 -80 C547 -92 488 -105 412 -105 C183 -105 65 -18 65 207 C65 447 203 602 433 602 C678 602 752 478 752 305 C752 152 686 36 545 36 L513 36 C504 36 497 40 498 51 L507 123 C480 65 432 31 369 31 C285 31 240 98 240 192 C240 321 297 460 460 460 C504 460 550 449 575 441 C579 439 582 436 581 431 L528 65 L545 65 C668 65 722 167 722 306 C722 464 658 573 432 573 C222 573 95 435 95 207 C95 1 201 -77 412 -77 C482 -77 537 -63 572 -53 L572 -53 Z " />
<glyph glyph-name="A" unicode="A" horiz-adv-x="537" d="M144 249 L394 249 L270 650 L268 650 L144 249 L144 249 Z M256 701 L281 701 C289 701 291 697 293 692 L509 9 C511 3 508 0 502 0 L479 0 C473 0 471 3 469 8 L404 214 L133 214 L69 8 C67 3 64 0 59 0 L35 0 C30 0 27 3 29 9 L245 692 C246 697 248 701 256 701 L256 701 Z " />
<glyph glyph-name="B" unicode="B" horiz-adv-x="548" d="M116 381 L269 381 C391 381 441 425 441 525 C441 629 388 665 266 665 L116 665 L116 381 L116 381 Z M263 0 L87 0 C81 0 78 3 78 8 L78 692 C78 698 81 701 87 701 L266 701 C408 701 478 651 478 527 C478 424 426 377 365 366 C438 354 498 307 498 191 C498 53 420 0 263 0 L263 0 Z M116 36 L262 36 C398 36 459 76 459 192 C459 299 407 346 272 346 L116 346 L116 36 L116 36 Z " />
<glyph glyph-name="C" unicode="C" horiz-adv-x="480" d="M310 27 C359 27 397 38 420 49 C426 51 428 48 431 42 L438 26 C440 21 436 18 430 16 C403 5 361 -9 306 -9 C133 -9 52 103 52 350 C52 598 132 710 303 710 C355 710 397 698 423 686 C429 683 433 680 431 674 L425 659 C423 653 420 650 413 653 C390 663 353 674 306 674 C157 674 92 575 92 350 C92 126 157 27 310 27 L310 27 Z " />
<glyph glyph-name="D" unicode="D" horiz-adv-x="549" d="M222 0 L87 0 C81 0 78 3 78 8 L78 692 C78 698 81 701 87 701 L221 701 C395 701 498 623 498 353 C498 77 395 0 222 0 L222 0 Z M221 665 L116 665 L116 36 L222 36 C371 36 458 100 458 353 C458 601 371 665 221 665 L221 665 Z " />
<glyph glyph-name="E" unicode="E" horiz-adv-x="443" d="M377 341 L116 341 L116 36 L387 36 C393 36 396 33 396 28 L396 9 C396 3 393 0 387 0 L87 0 C81 0 78 3 78 8 L78 692 C78 698 81 701 87 701 L385 701 C391 701 394 698 394 692 L394 673 C394 668 391 665 385 665 L116 665 L116 377 L377 377 C383 377 386 374 386 368 L386 350 C386 344 383 341 377 341 L377 341 Z " />
<glyph glyph-name="F" unicode="F" horiz-adv-x="429" d="M376 339 L116 339 L116 8 C116 3 113 0 108 0 L87 0 C81 0 78 3 78 8 L78 692 C78 698 81 701 87 701 L382 701 C388 701 391 698 391 692 L391 673 C391 668 388 665 382 665 L116 665 L116 374 L376 374 C382 374 385 371 385 366 L385 347 C385 342 382 339 376 339 L376 339 Z " />
<glyph glyph-name="G" unicode="G" horiz-adv-x="539" d="M283 383 L464 383 C469 383 473 381 473 375 L473 39 C473 29 467 24 461 20 C434 6 384 -9 317 -9 C135 -9 52 97 52 351 C52 603 134 710 317 710 C371 710 418 697 445 685 C451 682 455 679 453 673 L447 657 C445 651 442 648 435 651 C410 660 369 674 318 674 C158 674 92 579 92 351 C92 121 159 27 318 27 C368 27 410 38 435 49 L435 348 L283 348 C276 348 274 351 274 357 L274 375 C274 381 276 383 283 383 L283 383 Z " />
<glyph glyph-name="H" unicode="H" horiz-adv-x="563" d="M446 8 L446 341 L116 341 L116 8 C116 3 113 0 108 0 L87 0 C81 0 78 3 78 8 L78 692 C78 698 81 701 87 701 L108 701 C113 701 116 698 116 692 L116 377 L446 377 L446 692 C446 698 449 701 455 701 L476 701 C482 701 485 698 485 692 L485 8 C485 3 482 0 476 0 L455 0 C449 0 446 3 446 8 L446 8 Z " />
<glyph glyph-name="I" unicode="I" horiz-adv-x="205" d="M84 8 L84 692 C84 698 86 701 92 701 L113 701 C119 701 122 698 122 692 L122 8 C122 3 119 0 113 0 L92 0 C86 0 84 3 84 8 L84 8 Z " />
<glyph glyph-name="J" unicode="J" horiz-adv-x="363" d="M250 171 L250 692 C250 698 252 701 257 701 L279 701 C285 701 287 698 287 692 L287 168 C287 48 242 -8 138 -8 C97 -8 58 3 35 16 C28 19 25 21 27 28 L32 45 C34 51 37 54 43 50 C64 38 97 28 137 28 C217 28 250 71 250 171 L250 171 Z " />
<glyph glyph-name="K" unicode="K" horiz-adv-x="477" d="M116 387 L399 694 C403 698 405 701 412 701 L440 701 C448 701 449 695 445 690 L146 367 L453 11 C457 6 455 0 449 0 L419 0 C413 0 410 3 406 7 L116 344 L116 8 C116 3 113 0 108 0 L87 0 C81 0 78 3 78 8 L78 692 C78 698 81 701 87 701 L108 701 C113 701 116 698 116 692 L116 387 L116 387 Z " />
<glyph glyph-name="L" unicode="L" horiz-adv-x="422" d="M116 692 L116 36 L376 36 C382 36 386 33 386 27 L386 8 C386 3 382 0 376 0 L87 0 C81 0 78 3 78 8 L78 692 C78 698 81 701 87 701 L108 701 C113 701 116 698 116 692 L116 692 Z " />
<glyph glyph-name="M" unicode="M" horiz-adv-x="644" d="M323 218 C315 218 313 220 310 226 L116 625 L116 8 C116 3 113 0 108 0 L87 0 C81 0 78 3 78 8 L78 692 C78 698 81 701 87 701 L109 701 C115 701 118 699 121 694 L323 278 L524 694 C526 699 530 701 535 701 L558 701 C564 701 566 698 566 692 L566 8 C566 3 564 0 558 0 L537 0 C531 0 528 3 528 8 L528 625 L334 226 C331 220 329 218 323 218 L323 218 Z " />
<glyph glyph-name="N" unicode="N" horiz-adv-x="568" d="M490 692 L490 8 C490 3 487 0 482 0 L460 0 C454 0 450 2 447 7 L116 629 L116 8 C116 3 113 0 108 0 L87 0 C81 0 78 3 78 8 L78 692 C78 698 81 701 87 701 L108 701 C115 701 119 698 121 694 L453 71 L453 692 C453 698 455 701 461 701 L482 701 C487 701 490 698 490 692 L490 692 Z " />
<glyph glyph-name="O" unicode="O" horiz-adv-x="578" d="M289 710 C448 710 526 598 526 350 C526 103 448 -9 290 -9 C131 -9 51 103 51 350 C51 598 131 710 289 710 L289 710 Z M289 26 C424 26 487 126 487 350 C487 574 424 674 289 674 C153 674 91 574 91 350 C91 126 153 26 289 26 L289 26 Z " />
<glyph glyph-name="P" unicode="P" horiz-adv-x="509" d="M116 265 L221 265 C368 265 419 314 419 465 C419 616 368 665 221 665 L116 665 L116 265 L116 265 Z M108 0 L87 0 C81 0 78 3 78 8 L78 692 C78 697 81 701 87 701 L221 701 C392 701 459 638 459 465 C459 291 392 229 221 229 L116 229 L116 8 C116 3 113 0 108 0 L108 0 Z " />
<glyph glyph-name="Q" unicode="Q" horiz-adv-x="578" d="M316 -4 C350 -26 401 -42 458 -42 C469 -42 478 -41 486 -41 C495 -41 498 -42 498 -50 L498 -65 C498 -74 494 -76 475 -76 C396 -76 321 -53 267 -7 C123 3 51 115 51 351 C51 598 131 710 289 710 C448 710 526 598 526 351 C526 120 456 7 316 -4 L316 -4 Z M289 26 C424 26 487 126 487 351 C487 574 424 674 290 674 C153 674 91 574 91 351 C91 126 153 26 289 26 L289 26 Z " />
<glyph glyph-name="R" unicode="R" horiz-adv-x="520" d="M116 297 L230 297 C372 297 427 344 427 481 C427 619 373 665 227 665 L116 665 L116 297 L116 297 Z M87 701 L227 701 C398 701 466 641 466 481 C466 338 410 276 284 265 L459 11 C463 6 461 0 454 0 L430 0 C423 0 420 3 417 7 L242 261 L116 261 L116 8 C116 3 113 0 108 0 L87 0 C81 0 78 3 78 8 L78 692 C78 698 81 701 87 701 L87 701 Z " />
<glyph glyph-name="S" unicode="S" horiz-adv-x="434" d="M390 162 C390 57 326 -9 193 -9 C135 -9 81 0 52 11 C46 14 42 17 44 22 L50 39 C52 45 54 48 60 45 C87 34 137 26 192 26 C301 26 352 80 352 163 C352 263 279 303 200 348 C122 393 49 436 49 547 C49 643 99 710 234 710 C287 710 328 700 355 690 C362 688 364 685 363 679 L358 662 C357 656 353 654 347 656 C323 666 284 674 235 674 C125 674 88 624 88 547 C88 455 149 421 221 379 C305 330 390 284 390 162 L390 162 Z " />
<glyph glyph-name="T" unicode="T" horiz-adv-x="424" d="M28 673 L28 692 C28 698 31 701 37 701 L388 701 C393 701 396 698 396 692 L396 673 C396 668 393 665 388 665 L231 665 L231 8 C231 3 228 0 223 0 L202 0 C196 0 193 3 193 8 L193 665 L37 665 C31 665 28 668 28 673 L28 673 Z " />
<glyph glyph-name="U" unicode="U" horiz-adv-x="554" d="M277 -10 C133 -10 74 66 74 221 L74 692 C74 698 76 701 82 701 L103 701 C109 701 112 698 112 692 L112 223 C112 89 156 25 277 25 C398 25 442 89 442 223 L442 692 C442 698 445 701 450 701 L472 701 C478 701 481 698 481 692 L481 221 C481 66 420 -10 277 -10 L277 -10 Z " />
<glyph glyph-name="V" unicode="V" horiz-adv-x="524" d="M276 0 L248 0 C242 0 238 2 236 9 L33 691 C31 696 34 701 40 701 L62 701 C68 701 70 698 72 692 L212 225 L260 48 L263 48 L312 224 L452 692 C454 698 455 701 462 701 L484 701 C490 701 493 696 491 691 L287 9 C285 2 282 0 276 0 L276 0 Z " />
<glyph glyph-name="W" unicode="W" horiz-adv-x="816" d="M397 701 L420 701 C427 701 429 698 431 692 L540 240 L584 48 L587 48 L630 239 L738 692 C739 698 742 701 748 701 L770 701 C776 701 779 697 777 690 L613 10 C611 3 608 0 601 0 L572 0 C565 0 562 3 560 9 L446 473 L409 636 L407 636 L369 473 L256 9 C254 2 251 0 245 0 L215 0 C208 0 205 3 203 10 L39 690 C37 697 40 701 46 701 L68 701 C74 701 77 698 79 692 L186 239 L228 48 L231 48 L276 240 L385 692 C386 698 390 701 397 701 L397 701 Z " />
<glyph glyph-name="X" unicode="X" horiz-adv-x="495" d="M247 322 L72 7 C70 2 67 0 60 0 L36 0 C29 0 27 5 30 10 L226 356 L37 691 C34 696 36 701 43 701 L67 701 C74 701 76 698 78 694 L247 390 L415 694 C417 698 420 701 426 701 L452 701 C458 701 460 696 457 691 L268 356 L464 10 C467 5 465 0 459 0 L435 0 C428 0 425 1 422 7 L247 322 L247 322 Z " />
<glyph glyph-name="Y" unicode="Y" horiz-adv-x="511" d="M275 271 L275 9 C275 3 272 0 266 0 L245 0 C239 0 236 3 236 9 L236 271 L33 691 C31 696 32 700 39 700 L62 700 C69 700 71 698 74 693 L204 421 L254 309 L256 309 L307 421 L437 693 C439 698 442 700 449 700 L472 700 C479 700 480 695 478 691 L275 271 L275 271 Z " />
<glyph glyph-name="Z" unicode="Z" horiz-adv-x="465" d="M48 8 L48 27 C48 33 51 36 53 40 L369 665 L66 665 C60 665 57 668 57 673 L57 692 C57 698 60 701 66 701 L405 701 C411 701 413 698 413 692 L413 674 C413 669 412 665 409 660 L93 36 L408 36 C414 36 416 33 416 28 L416 8 C416 3 414 0 408 0 L56 0 C51 0 48 3 48 8 L48 8 Z " />
<glyph glyph-name="bracketleft" unicode="&#x5b;" horiz-adv-x="284" d="M236 -86 L236 -102 C236 -107 234 -110 229 -110 L110 -110 C104 -110 101 -107 101 -102 L101 692 C101 698 104 701 110 701 L229 701 C234 701 236 698 236 692 L236 677 C236 671 234 668 229 668 L137 668 L137 -78 L229 -78 C234 -78 236 -80 236 -86 L236 -86 Z " />
<glyph glyph-name="backslash" unicode="&#x5c;" horiz-adv-x="334" d="M48 693 L324 9 C326 3 324 0 317 0 L298 0 C291 0 288 2 286 8 L10 691 C8 697 10 701 17 701 L37 701 C43 701 46 698 48 693 L48 693 Z " />
<glyph glyph-name="bracketright" unicode="&#x5d;" horiz-adv-x="285" d="M49 -102 L49 -86 C49 -80 52 -78 58 -78 L148 -78 L148 668 L58 668 C52 668 49 671 49 677 L49 692 C49 698 52 701 58 701 L176 701 C181 701 184 698 184 692 L184 -102 C184 -107 181 -110 176 -110 L58 -110 C52 -110 49 -107 49 -102 L49 -102 Z " />
<glyph glyph-name="asciicircum" unicode="&#x5e;" horiz-adv-x="515" d="M249 701 L266 701 C272 701 275 698 277 693 L450 357 C453 350 450 347 444 347 L423 347 C417 347 414 348 411 354 L257 655 L104 354 C101 348 98 347 92 347 L71 347 C65 347 61 350 65 357 L237 693 C239 697 243 701 249 701 L249 701 Z " />
<glyph glyph-name="underscore" unicode="&#x5f;" horiz-adv-x="402" d="M372 -79 L30 -79 C25 -79 22 -76 22 -71 L22 -58 C22 -52 25 -50 30 -50 L372 -50 C377 -50 380 -52 380 -58 L380 -71 C380 -76 377 -79 372 -79 L372 -79 Z " />
<glyph glyph-name="grave" unicode="&#x60;" horiz-adv-x="283" d="M137 679 L197 592 C200 588 198 583 192 583 L180 583 C174 583 172 585 168 589 L87 676 C83 681 83 688 91 688 L121 688 C130 688 133 684 137 679 L137 679 Z " />
<glyph glyph-name="a" unicode="a" horiz-adv-x="444" d="M379 370 L379 8 C379 3 376 0 370 0 L352 0 C346 0 343 3 343 8 L343 94 C327 52 285 -6 181 -6 C87 -6 38 51 38 139 C38 285 167 303 343 307 L343 368 C343 454 311 493 223 493 C173 493 123 477 86 465 C81 463 77 466 76 471 L72 487 C71 492 72 496 78 498 C113 513 172 526 226 526 C333 526 379 475 379 370 L379 370 Z M343 187 L343 277 C192 271 73 264 73 140 C73 72 108 25 186 25 C287 25 343 98 343 187 L343 187 Z " />
<glyph glyph-name="b" unicode="b" horiz-adv-x="492" d="M108 259 C108 104 162 24 262 24 C362 24 410 106 410 259 C410 412 362 493 262 493 C162 493 108 413 108 259 L108 259 Z M107 103 L107 8 C107 3 105 0 100 0 L80 0 C74 0 71 3 71 8 L71 692 C71 698 74 701 80 701 L100 701 C105 701 108 698 108 692 L108 413 C130 482 185 526 265 526 C387 526 447 431 447 259 C447 86 387 -9 265 -9 C185 -9 130 33 107 103 L107 103 Z " />
<glyph glyph-name="c" unicode="c" horiz-adv-x="386" d="M45 259 C45 434 107 526 237 526 C283 526 319 516 341 505 C346 502 350 499 348 493 L342 478 C340 473 338 470 331 473 C310 484 280 493 240 493 C130 493 82 414 82 259 C82 104 130 25 238 25 C282 25 314 34 335 45 C341 49 345 45 346 41 L351 25 C353 19 350 17 344 14 C322 3 285 -9 239 -9 C107 -9 45 85 45 259 L45 259 Z " />
<glyph glyph-name="d" unicode="d" horiz-adv-x="492" d="M385 259 C385 413 330 493 230 493 C130 493 82 412 82 259 C82 106 130 24 230 24 C330 24 385 104 385 259 L385 259 Z M384 8 L384 104 C362 34 306 -9 227 -9 C106 -9 45 86 45 259 C45 431 106 526 227 526 C306 526 362 482 384 413 L384 692 C384 698 386 701 392 701 L412 701 C418 701 421 698 421 692 L421 8 C421 3 418 0 412 0 L392 0 C386 0 384 3 384 8 L384 8 Z " />
<glyph glyph-name="e" unicode="e" horiz-adv-x="444" d="M252 23 C298 23 335 28 365 46 C369 49 373 46 375 40 L380 26 C382 21 379 18 373 15 C343 1 298 -10 250 -10 C109 -10 45 83 45 259 C45 432 106 526 229 526 C351 526 401 427 401 282 L401 249 C401 243 398 241 393 241 L82 241 C85 98 136 23 252 23 L252 23 Z M229 494 C130 494 84 418 82 273 L365 273 L365 283 C365 409 329 494 229 494 L229 494 Z " />
<glyph glyph-name="f" unicode="f" horiz-adv-x="280" d="M137 516 L249 516 C255 516 257 514 257 508 L257 492 C257 486 255 483 249 483 L137 483 L137 8 C137 3 134 0 129 0 L110 0 C104 0 101 3 101 8 L101 483 L32 483 C26 483 24 486 24 492 L24 508 C24 514 26 516 32 516 L101 516 L101 567 C101 661 133 706 210 706 C229 706 246 703 257 700 C262 699 265 696 264 689 L263 676 C263 670 260 666 253 668 C242 671 229 673 213 673 C156 673 137 639 137 563 L137 516 L137 516 Z " />
<glyph glyph-name="g" unicode="g" horiz-adv-x="472" d="M368 286 C368 420 315 494 221 494 C127 494 82 416 82 282 C82 149 127 71 221 71 C315 71 368 151 368 286 L368 286 Z M403 508 L403 61 C403 -64 338 -120 224 -120 C174 -120 125 -107 90 -92 C84 -90 80 -87 82 -82 L88 -66 C89 -62 92 -59 98 -61 C133 -76 179 -87 223 -87 C317 -87 367 -43 367 63 L367 148 C346 82 292 39 218 39 C105 39 45 130 45 282 C45 436 103 526 217 526 C291 526 346 483 367 419 L367 508 C367 514 370 516 376 516 L395 516 C400 516 403 514 403 508 L403 508 Z " />
<glyph glyph-name="h" unicode="h" horiz-adv-x="481" d="M415 359 L415 8 C415 3 412 0 407 0 L388 0 C381 0 379 3 379 8 L379 356 C379 440 346 492 261 492 C172 492 108 426 108 331 L108 9 C108 3 105 0 100 0 L80 0 C74 0 71 3 71 8 L71 692 C71 698 74 701 80 701 L100 701 C105 701 108 698 108 692 L108 425 C125 470 172 526 266 526 C368 526 415 460 415 359 L415 359 Z " />
<glyph glyph-name="i" unicode="i" horiz-adv-x="184" d="M109 508 L109 8 C109 3 107 0 102 0 L82 0 C76 0 73 3 73 8 L73 508 C73 514 76 516 82 516 L102 516 C107 516 109 514 109 508 L109 508 Z M111 681 L111 603 C111 598 109 595 103 595 L81 595 C75 595 72 598 72 603 L72 681 C72 686 75 689 81 689 L103 689 C109 689 111 686 111 681 L111 681 Z " />
<glyph glyph-name="j" unicode="j" horiz-adv-x="191" d="M81 -3 L81 508 C81 514 84 516 90 516 L109 516 C114 516 117 514 117 508 L117 -6 C117 -77 97 -114 35 -114 C23 -114 10 -113 0 -111 C-6 -109 -8 -106 -8 -100 L-7 -84 C-7 -78 -4 -77 3 -78 C12 -80 23 -81 32 -81 C70 -81 81 -55 81 -3 L81 -3 Z M118 681 L118 603 C118 598 115 595 110 595 L89 595 C83 595 80 598 80 603 L80 681 C80 686 83 689 89 689 L110 689 C115 689 118 686 118 681 L118 681 Z " />
<glyph glyph-name="k" unicode="k" horiz-adv-x="393" d="M368 0 L342 0 C335 0 331 2 327 7 L108 266 L108 8 C108 3 105 0 100 0 L80 0 C74 0 71 3 71 8 L71 692 C71 698 74 701 80 701 L100 701 C105 701 108 698 108 692 L108 308 L319 511 C323 514 327 516 333 516 L361 516 C368 516 370 510 364 505 L134 289 L373 11 C378 6 375 0 368 0 L368 0 Z " />
<glyph glyph-name="l" unicode="l" horiz-adv-x="184" d="M109 692 L109 8 C109 3 107 0 102 0 L82 0 C76 0 73 3 73 8 L73 692 C73 698 76 701 82 701 L102 701 C107 701 109 698 109 692 L109 692 Z " />
<glyph glyph-name="m" unicode="m" horiz-adv-x="741" d="M390 342 L390 8 C390 3 387 0 381 0 L362 0 C356 0 354 3 354 8 L354 361 C354 443 323 492 246 492 C166 492 105 427 105 335 L105 8 C105 3 102 0 97 0 L77 0 C71 0 68 3 68 8 L68 508 C68 514 71 516 77 516 L97 516 C102 516 105 514 105 508 L105 428 C119 471 168 526 251 526 C326 526 369 487 381 423 C398 473 450 526 536 526 C630 526 675 462 675 363 L675 8 C675 3 672 0 666 0 L647 0 C641 0 638 3 638 8 L638 361 C638 443 608 492 531 492 C451 492 390 431 390 342 L390 342 Z " />
<glyph glyph-name="n" unicode="n" horiz-adv-x="477" d="M410 359 L410 8 C410 3 408 0 402 0 L383 0 C377 0 374 3 374 8 L374 357 C374 440 341 492 257 492 C167 492 104 424 104 330 L104 8 C104 3 101 0 96 0 L77 0 C71 0 68 3 68 8 L68 508 C68 514 71 516 77 516 L96 516 C101 516 104 514 104 508 L104 425 C122 469 168 526 262 526 C365 526 410 460 410 359 L410 359 Z " />
<glyph glyph-name="o" unicode="o" horiz-adv-x="471" d="M236 -9 C108 -9 45 84 45 259 C45 433 108 526 236 526 C363 526 426 433 426 259 C426 84 363 -9 236 -9 L236 -9 Z M236 24 C340 24 388 104 388 259 C388 414 340 493 236 493 C131 493 82 414 82 259 C82 104 131 24 236 24 L236 24 Z " />
<glyph glyph-name="p" unicode="p" horiz-adv-x="489" d="M105 259 C105 104 159 24 259 24 C359 24 407 106 407 259 C407 412 359 493 259 493 C159 493 105 413 105 259 L105 259 Z M104 508 L104 413 C127 482 182 526 262 526 C384 526 444 431 444 259 C444 86 384 -9 262 -9 C182 -9 127 33 105 103 L105 -102 C105 -107 102 -110 97 -110 L77 -110 C71 -110 68 -107 68 -102 L68 508 C68 514 71 516 77 516 L96 516 C101 516 104 514 104 508 L104 508 Z " />
<glyph glyph-name="q" unicode="q" horiz-adv-x="489" d="M385 259 C385 413 330 493 230 493 C130 493 82 412 82 259 C82 106 130 24 230 24 C330 24 385 104 385 259 L385 259 Z M384 413 L384 508 C384 514 386 516 392 516 L412 516 C418 516 421 514 421 508 L421 -102 C421 -107 418 -110 412 -110 L392 -110 C386 -110 384 -107 384 -102 L384 104 C362 34 306 -9 227 -9 C106 -9 45 86 45 259 C45 431 106 526 227 526 C306 526 362 482 384 413 L384 413 Z " />
<glyph glyph-name="r" unicode="r" horiz-adv-x="289" d="M77 516 L97 516 C102 516 105 514 105 508 L105 406 C118 458 171 523 253 523 C261 523 264 520 264 513 L264 492 C264 485 261 483 256 483 C251 483 245 484 239 484 C169 484 105 402 105 303 L105 8 C105 3 102 0 97 0 L77 0 C71 0 68 3 68 8 L68 508 C68 514 71 516 77 516 L77 516 Z " />
<glyph glyph-name="s" unicode="s" horiz-adv-x="373" d="M334 130 C334 41 280 -9 175 -9 C122 -9 73 1 44 13 C38 15 36 18 37 24 L41 38 C42 44 46 46 52 44 C81 34 125 24 173 24 C259 24 298 62 298 130 C298 201 243 222 171 259 C103 293 41 319 41 403 C41 482 88 526 190 526 C237 526 278 518 303 508 C310 506 312 503 310 497 L306 482 C305 477 302 475 296 477 C271 485 235 494 193 494 C113 494 77 465 77 403 C77 340 125 319 192 286 C268 247 334 219 334 130 L334 130 Z " />
<glyph glyph-name="t" unicode="t" horiz-adv-x="291" d="M249 483 L131 483 L131 134 C131 51 150 28 208 28 C225 28 237 31 250 33 C255 34 258 32 259 26 L262 11 C263 6 261 2 255 1 C243 -2 223 -5 205 -5 C128 -5 95 27 95 131 L95 483 L27 483 C21 483 18 486 18 492 L18 508 C18 514 21 516 27 516 L96 516 L96 649 C96 655 98 658 104 658 L123 658 C129 658 131 655 131 649 L131 516 L249 516 C255 516 258 514 258 508 L258 492 C258 486 255 483 249 483 L249 483 Z " />
<glyph glyph-name="u" unicode="u" horiz-adv-x="471" d="M64 164 L64 508 C64 514 67 516 73 516 L93 516 C99 516 101 514 101 508 L101 167 C101 81 134 25 221 25 C308 25 366 95 366 188 L366 508 C366 514 368 516 374 516 L394 516 C400 516 402 514 402 508 L402 8 C402 3 400 0 394 0 L374 0 C368 0 366 3 366 8 L366 92 C351 49 308 -9 216 -9 C111 -9 64 58 64 164 L64 164 Z " />
<glyph glyph-name="v" unicode="v" horiz-adv-x="401" d="M212 0 L189 0 C184 0 180 3 179 8 L27 507 C25 513 28 516 34 516 L55 516 C60 516 63 514 65 508 L160 187 L200 49 L202 49 L242 187 L338 508 C340 514 341 516 348 516 L369 516 C375 516 377 513 375 507 L222 8 C221 3 219 0 212 0 L212 0 Z " />
<glyph glyph-name="w" unicode="w" horiz-adv-x="645" d="M311 516 L333 516 C339 516 342 514 343 509 L435 152 L459 47 L461 47 L484 152 L572 508 C573 514 576 516 582 516 L603 516 C609 516 611 513 609 507 L483 8 C482 3 478 0 472 0 L449 0 C443 0 439 3 438 8 L349 352 L323 463 L321 463 L296 352 L205 8 C204 3 201 0 194 0 L172 0 C166 0 162 3 161 8 L35 507 C33 513 36 516 42 516 L62 516 C68 516 71 514 72 508 L160 152 L183 47 L185 47 L209 152 L302 509 C303 514 306 516 311 516 L311 516 Z " />
<glyph glyph-name="x" unicode="x" horiz-adv-x="406" d="M72 511 L203 293 L334 511 C336 515 339 516 345 516 L368 516 C374 516 376 512 373 506 L223 262 L378 10 C381 5 379 0 373 0 L349 0 C343 0 341 2 339 6 L203 232 L67 6 C65 2 63 0 57 0 L33 0 C27 0 26 5 29 10 L182 262 L33 506 C29 512 31 516 37 516 L61 516 C68 516 70 515 72 511 L72 511 Z " />
<glyph glyph-name="y" unicode="y" horiz-adv-x="405" d="M378 507 L232 12 C208 -72 181 -115 108 -115 C85 -115 67 -111 54 -107 C48 -105 45 -102 46 -97 L50 -82 C52 -76 55 -74 61 -75 C74 -79 87 -82 107 -82 C173 -82 195 -10 184 25 L29 507 C27 513 29 516 35 516 L57 516 C63 516 65 514 67 508 L167 186 L208 50 L210 50 L249 186 L340 508 C342 514 345 516 350 516 L371 516 C378 516 380 513 378 507 L378 507 Z " />
<glyph glyph-name="z" unicode="z" horiz-adv-x="401" d="M351 508 L351 494 C351 490 349 486 347 483 L90 33 L346 33 C352 33 355 31 355 26 L355 8 C355 3 352 0 346 0 L53 0 C48 0 45 3 45 8 L45 22 C45 26 46 30 48 32 L306 483 L59 483 C54 483 51 485 51 491 L51 508 C51 514 54 516 59 516 L343 516 C348 516 351 514 351 508 L351 508 Z " />
<glyph glyph-name="braceleft" unicode="&#x7b;" horiz-adv-x="284" d="M42 286 L42 304 C42 310 45 313 51 313 L63 313 C107 313 121 375 121 519 C121 642 134 701 217 701 L244 701 C251 701 253 698 253 692 L253 676 C253 671 251 668 244 668 L221 668 C164 668 156 621 156 516 C156 358 137 306 97 295 C137 284 156 232 156 75 C156 -30 164 -78 221 -78 L244 -78 C251 -78 253 -81 253 -86 L253 -102 C253 -107 251 -110 244 -110 L217 -110 C134 -110 121 -51 121 71 C121 216 107 278 63 278 L51 278 C45 278 42 281 42 286 L42 286 Z " />
<glyph glyph-name="bar" unicode="&#x7c;" horiz-adv-x="239" d="M138 711 L138 -102 C138 -107 135 -110 129 -110 L111 -110 C105 -110 102 -107 102 -102 L102 711 C102 717 105 720 111 720 L129 720 C135 720 138 717 138 711 L138 711 Z " />
<glyph glyph-name="braceright" unicode="&#x7d;" horiz-adv-x="284" d="M242 304 L242 286 C242 281 239 278 234 278 L222 278 C178 278 164 216 164 71 C164 -51 152 -110 68 -110 L40 -110 C34 -110 31 -107 31 -102 L31 -86 C31 -81 34 -78 40 -78 L64 -78 C121 -78 129 -30 129 75 C129 232 148 284 187 295 C148 306 129 358 129 516 C129 621 121 668 64 668 L40 668 C34 668 31 671 31 676 L31 692 C31 698 34 701 40 701 L68 701 C152 701 164 642 164 519 C164 375 178 313 222 313 L234 313 C239 313 242 310 242 304 L242 304 Z " />
<glyph glyph-name="asciitilde" unicode="&#x7e;" horiz-adv-x="515" d="M153 406 C179 406 203 399 239 384 L286 365 C313 354 338 345 359 345 C378 345 394 353 407 374 C411 380 414 388 417 398 C419 403 424 404 429 401 L443 395 C448 392 448 389 447 384 C434 333 404 306 362 306 C335 306 312 314 275 328 L226 348 C200 359 176 368 156 368 C137 368 120 360 107 339 C103 332 100 324 97 315 C96 310 91 308 85 311 L71 318 C67 320 66 324 67 329 C81 379 110 406 153 406 L153 406 Z " />
<glyph glyph-name="uni00A0" unicode="&#xa0;" horiz-adv-x="251" d="" />
<glyph glyph-name="exclamdown" unicode="&#xa1;" horiz-adv-x="222" d="M139 508 L139 447 C139 442 136 438 130 438 L92 438 C86 438 83 442 83 447 L83 508 C83 514 86 516 92 516 L130 516 C136 516 139 514 139 508 L139 508 Z M103 334 L119 334 C124 334 127 331 127 325 L133 -102 C133 -107 131 -110 125 -110 L97 -110 C92 -110 89 -107 89 -102 L95 325 C95 331 98 334 103 334 L103 334 Z " />
<glyph glyph-name="cent" unicode="&#xa2;" horiz-adv-x="404" d="M46 258 C46 423 105 516 227 526 L227 603 C227 609 230 611 236 611 L251 611 C257 611 260 609 260 603 L260 526 C302 524 336 511 356 503 C362 501 364 498 362 492 L358 478 C356 472 352 469 347 472 C325 483 293 493 249 493 C135 493 83 413 83 258 C83 103 133 25 250 25 C296 25 328 35 350 46 C356 49 360 46 361 41 L366 26 C368 20 366 18 359 15 C340 5 304 -7 260 -8 L260 -86 C260 -92 257 -95 251 -95 L236 -95 C230 -95 227 -92 227 -86 L227 -8 C103 0 46 92 46 258 L46 258 Z " />
<glyph glyph-name="sterling" unicode="&#xa3;" horiz-adv-x="544" d="M56 341 C51 341 48 344 48 349 L48 365 C48 370 51 372 56 372 L131 372 C110 421 90 473 90 533 C90 631 153 710 289 710 C420 710 473 639 473 551 C473 522 471 513 462 513 L445 513 C439 513 436 516 436 521 C436 531 437 541 437 551 C437 620 395 675 291 675 C180 675 128 614 128 533 C128 476 150 424 171 372 L346 372 C351 372 354 370 354 365 L354 349 C354 344 351 341 346 341 L183 341 C201 300 215 258 215 213 C215 148 183 79 115 41 C145 51 165 57 197 57 C269 57 311 28 381 28 C455 28 464 91 464 155 C464 161 468 164 473 164 L490 164 C497 164 500 161 500 155 C500 73 484 -6 383 -6 C303 -6 273 23 190 23 C150 23 104 15 67 -4 C63 -6 58 -6 56 -2 L45 17 C43 20 43 24 48 26 C156 84 176 158 176 215 C176 260 162 300 145 341 L56 341 L56 341 Z " />
<glyph glyph-name="currency" unicode="&#xa4;" horiz-adv-x="543" d="M63 97 L120 154 C98 187 87 230 87 283 C87 336 98 379 120 411 L63 469 C59 473 59 477 63 481 L74 491 C78 495 81 495 85 491 L140 437 C171 474 215 493 271 493 C327 493 371 474 402 437 L457 491 C461 495 465 495 469 491 L480 481 C484 477 483 472 480 469 L422 411 C443 378 455 335 455 283 C455 230 443 187 422 155 L480 97 C483 94 484 88 480 85 L469 75 C465 71 461 71 457 75 L402 130 C371 91 327 73 271 73 C215 73 171 91 140 130 L85 75 C82 71 78 72 74 75 L63 85 C59 89 59 94 63 97 L63 97 Z M421 283 C421 400 366 462 271 462 C177 462 120 400 120 283 C120 166 177 104 271 104 C366 104 421 166 421 283 L421 283 Z " />
<glyph glyph-name="yen" unicode="&#xa5;" horiz-adv-x="527" d="M282 8 C282 3 280 0 274 0 L253 0 C248 0 245 3 245 8 L245 199 L68 199 C63 199 60 202 60 208 L60 222 C60 228 63 231 68 231 L245 231 L245 258 L204 341 L68 341 C63 341 60 344 60 349 L60 364 C60 369 63 372 68 372 L189 372 L31 691 C29 696 30 701 37 701 L60 701 C67 701 69 697 71 693 L263 299 L264 299 L456 693 C458 697 461 701 468 701 L491 701 C497 701 499 696 497 691 L338 372 L460 372 C465 372 467 369 467 364 L467 349 C467 344 465 341 460 341 L323 341 L282 258 L282 231 L460 231 C465 231 467 228 467 222 L467 208 C467 202 465 199 460 199 L282 199 L282 8 L282 8 Z " />
<glyph glyph-name="brokenbar" unicode="&#xa6;" horiz-adv-x="239" d="M138 711 L138 398 C138 393 135 390 129 390 L111 390 C105 390 102 393 102 398 L102 711 C102 717 105 720 111 720 L129 720 C135 720 138 717 138 711 L138 711 Z M138 211 L138 -102 C138 -107 135 -110 129 -110 L111 -110 C105 -110 102 -107 102 -102 L102 211 C102 217 105 220 111 220 L129 220 C135 220 138 217 138 211 L138 211 Z " />
<glyph glyph-name="section" unicode="&#xa7;" horiz-adv-x="579" d="M95 314 C95 379 145 439 232 447 C176 479 127 515 127 580 C127 661 172 709 304 709 C375 709 420 695 444 690 C451 689 453 686 453 679 L453 665 C453 658 448 656 442 658 C417 665 376 676 306 676 C197 676 164 640 164 578 C164 516 226 485 319 440 C405 397 483 357 483 276 C483 216 432 163 345 151 C407 118 457 77 457 15 C457 -61 404 -114 267 -114 C201 -114 147 -105 130 -99 C123 -97 120 -94 120 -87 L120 -73 C120 -67 126 -64 131 -66 C153 -73 205 -82 265 -82 C380 -82 420 -39 420 16 C420 87 328 123 257 157 C162 203 96 235 95 314 L95 314 Z M270 424 C185 423 131 374 131 314 C131 247 206 219 308 172 C389 176 447 226 447 277 C447 344 365 382 270 424 L270 424 Z " />
<glyph glyph-name="dieresis" unicode="&#xa8;" horiz-adv-x="283" d="M90 647 L90 591 C90 586 88 583 82 583 L58 583 C53 583 50 586 50 591 L50 647 C50 653 53 656 58 656 L82 656 C88 656 90 653 90 647 L90 647 Z M234 647 L234 591 C234 586 231 583 225 583 L202 583 C196 583 193 586 193 591 L193 647 C193 653 196 656 202 656 L225 656 C231 656 234 653 234 647 L234 647 Z " />
<glyph glyph-name="copyright" unicode="&#xa9;" horiz-adv-x="747" d="M90 350 C90 174 170 20 373 20 C576 20 657 174 657 350 C657 527 576 681 373 681 C170 681 90 527 90 350 L90 350 Z M60 350 C60 542 152 710 373 710 C595 710 687 542 687 350 C687 158 595 -9 373 -9 C152 -9 60 158 60 350 L60 350 Z M392 174 C428 174 455 182 473 190 C476 191 480 189 481 185 L485 170 C486 165 485 163 480 161 C462 153 427 143 390 143 C285 143 226 211 226 351 C226 492 285 560 390 560 C426 560 460 551 478 542 C483 540 484 537 483 533 L479 518 C477 513 474 511 470 513 C454 522 426 529 393 529 C305 529 262 472 262 351 C262 232 306 174 392 174 L392 174 Z " />
<glyph glyph-name="ordfeminine" unicode="&#xaa;" horiz-adv-x="375" d="M287 641 L287 711 C160 709 65 700 65 600 C65 548 94 512 158 512 C242 512 287 569 287 641 L287 641 Z M288 497 L288 560 C273 527 237 483 154 483 C75 483 32 531 32 600 C32 723 146 737 287 740 L287 790 C287 860 259 888 188 888 C148 888 102 880 74 866 C69 863 65 866 64 870 L60 885 C59 890 61 893 66 895 C94 907 143 919 189 919 C279 919 321 877 321 792 L321 497 C321 491 318 488 311 488 L296 488 C290 488 288 491 288 497 L288 497 Z " />
<glyph glyph-name="guillemotleft" unicode="&#xab;" horiz-adv-x="318" d="M38 261 C38 263 38 264 39 267 L108 398 C110 402 112 405 118 405 L137 405 C143 405 145 401 142 396 L73 261 L142 127 C145 122 143 118 137 118 L118 118 C112 118 110 120 108 124 L39 257 C38 259 38 260 38 261 L38 261 Z M161 261 C161 263 162 264 163 267 L231 398 C233 402 235 405 241 405 L261 405 C267 405 268 401 266 396 L197 261 L266 127 C268 122 267 118 261 118 L241 118 C235 118 233 120 231 124 L163 257 C162 259 161 259 161 261 L161 261 Z " />
<glyph glyph-name="logicalnot" unicode="&#xac;" horiz-adv-x="516" d="M433 362 L433 177 C433 171 431 169 425 169 L407 169 C401 169 398 171 398 177 L398 336 L67 336 C61 336 58 339 58 345 L58 362 C58 368 61 370 67 370 L425 370 C431 370 433 368 433 362 L433 362 Z " />
<glyph glyph-name="uni00AD" unicode="&#xad;" horiz-adv-x="326" d="M276 247 L51 247 C45 247 42 249 42 254 L42 272 C42 277 45 280 51 280 L276 280 C281 280 284 277 284 272 L284 254 C284 249 281 247 276 247 L276 247 Z " />
<glyph glyph-name="registered" unicode="&#xae;" horiz-adv-x="418" d="M209 710 C316 710 370 628 370 534 C370 440 316 358 209 358 C102 358 48 440 48 534 C48 628 102 710 209 710 L209 710 Z M209 380 C303 380 348 452 348 534 C348 616 303 688 209 688 C115 688 70 616 70 534 C70 452 115 380 209 380 L209 380 Z M176 531 L208 531 C248 531 260 541 260 572 C260 601 249 613 208 613 L176 613 L176 531 L176 531 Z M152 444 L152 629 C152 633 154 635 158 635 L210 635 C261 635 285 614 285 572 C285 533 265 514 235 511 L280 445 C282 441 280 438 276 438 L262 438 C258 438 256 440 254 442 L209 509 L176 509 L176 444 C176 439 174 438 171 438 L158 438 C154 438 152 439 152 444 L152 444 Z " />
<glyph glyph-name="macron" unicode="&#xaf;" horiz-adv-x="283" d="M246 591 L38 591 C32 591 29 594 29 599 L29 612 C29 617 32 620 38 620 L246 620 C251 620 254 617 254 612 L254 599 C254 594 251 591 246 591 L246 591 Z " />
<glyph glyph-name="degree" unicode="&#xb0;" horiz-adv-x="314" d="M157 490 C211 490 244 529 244 586 C244 643 211 683 157 683 C103 683 70 643 70 586 C70 529 103 490 157 490 L157 490 Z M157 461 C84 461 40 515 40 586 C40 659 84 711 157 711 C230 711 275 659 275 587 C275 515 230 461 157 461 L157 461 Z " />
<glyph glyph-name="plusminus" unicode="&#xb1;" horiz-adv-x="515" d="M454 341 L275 341 L275 143 C275 138 272 135 267 135 L248 135 C243 135 240 138 240 143 L240 341 L61 341 C55 341 52 344 52 349 L52 366 C52 372 55 375 61 375 L240 375 L240 571 C240 577 243 580 248 580 L267 580 C272 580 275 577 275 571 L275 375 L454 375 C459 375 462 372 462 366 L462 349 C462 344 459 341 454 341 L454 341 Z M454 0 L61 0 C55 0 52 3 52 8 L52 23 C52 29 55 32 61 32 L454 32 C459 32 462 29 462 23 L462 8 C462 3 459 0 454 0 L454 0 Z " />
<glyph glyph-name="two.superior" unicode="&#xb2;" horiz-adv-x="338" d="M77 811 C77 802 78 795 79 786 C79 780 76 777 70 777 L55 777 C50 777 48 779 46 785 C45 790 43 802 43 811 C43 871 75 920 164 920 C254 920 284 867 284 802 C284 688 165 582 91 519 L284 519 C290 519 293 517 293 510 L293 498 C293 491 290 488 284 488 L50 488 C44 488 41 491 41 498 L41 510 C41 515 42 517 46 521 C123 587 250 697 250 801 C250 851 231 890 163 890 C98 890 77 854 77 811 L77 811 Z " />
<glyph glyph-name="three.superior" unicode="&#xb3;" horiz-adv-x="338" d="M120 695 C114 695 110 698 110 704 L110 716 C110 723 114 726 120 726 L156 726 C204 726 240 751 240 810 C240 864 207 889 143 889 C110 889 79 880 61 874 C54 871 50 874 49 878 L45 892 C44 897 46 899 52 902 C70 911 103 920 145 920 C230 920 274 884 274 811 C274 755 245 724 213 712 C248 704 284 673 284 607 C284 523 234 482 143 482 C100 482 62 493 45 501 C40 503 37 505 39 511 L42 524 C43 529 47 532 53 530 C72 522 104 513 141 513 C212 513 249 544 249 607 C249 674 208 695 156 695 L120 695 L120 695 Z " />
<glyph glyph-name="acute" unicode="&#xb4;" horiz-adv-x="283" d="M87 592 L147 679 C150 684 153 688 162 688 L193 688 C200 688 201 682 196 676 L115 589 C112 585 109 583 104 583 L91 583 C85 583 84 588 87 592 L87 592 Z " />
<glyph glyph-name="mu" unicode="&#xb5;" horiz-adv-x="472" d="M406 508 L406 163 C406 57 359 -10 255 -10 C163 -10 119 48 105 91 L105 -102 C105 -107 102 -110 97 -110 L77 -110 C71 -110 68 -107 68 -102 L68 508 C68 514 71 516 77 516 L97 516 C102 516 105 514 105 508 L105 187 C105 94 162 24 250 24 C337 24 369 80 369 166 L369 508 C369 514 372 516 378 516 L398 516 C403 516 406 514 406 508 L406 508 Z " />
<glyph glyph-name="paragraph" unicode="&#xb6;" horiz-adv-x="434" d="M404 670 L369 670 C329 670 316 655 316 610 L316 -9 C316 -84 291 -114 225 -114 C207 -114 191 -111 181 -108 C175 -106 172 -103 173 -98 L174 -85 C175 -79 178 -78 183 -79 C194 -81 208 -83 222 -83 C266 -83 281 -62 281 -6 L281 304 L254 304 C133 304 47 374 47 502 C47 632 126 701 251 701 L404 701 C410 701 413 698 413 692 L413 678 C413 673 410 670 404 670 L404 670 Z " />
<glyph glyph-name="periodcentered" unicode="&#xb7;" horiz-adv-x="178" d="M62 228 L62 289 C62 295 65 297 71 297 L107 297 C114 297 116 295 116 289 L116 228 C116 223 114 220 108 220 L70 220 C64 220 62 223 62 228 L62 228 Z " />
<glyph glyph-name="cedilla" unicode="&#xb8;" horiz-adv-x="283" d="M115 9 L141 9 C191 -11 224 -48 224 -83 C224 -125 193 -139 150 -139 C139 -139 129 -139 123 -137 C118 -135 117 -132 117 -128 L117 -117 C117 -113 119 -111 124 -111 L146 -111 C176 -111 192 -102 192 -79 C192 -48 167 -17 115 9 L115 9 Z " />
<glyph glyph-name="one.superior" unicode="&#xb9;" horiz-adv-x="338" d="M177 867 L87 792 C82 788 78 789 74 794 L65 805 C61 810 62 814 66 817 L175 910 C178 912 182 914 187 914 L201 914 C207 914 210 911 210 904 L210 498 C210 491 207 488 201 488 L186 488 C179 488 177 491 177 498 L177 867 L177 867 Z " />
<glyph glyph-name="ordmasculine" unicode="&#xba;" horiz-adv-x="389" d="M195 889 C111 889 71 823 71 701 C71 578 111 512 195 512 C279 512 319 578 319 701 C319 823 279 889 195 889 L195 889 Z M195 482 C89 482 35 559 35 701 C35 843 89 919 195 919 C301 919 353 843 353 701 C353 559 301 482 195 482 L195 482 Z " />
<glyph glyph-name="guillemotright" unicode="&#xbb;" horiz-adv-x="318" d="M280 261 C280 260 280 259 279 257 L210 124 C208 120 206 118 200 118 L180 118 C175 118 173 122 176 127 L245 261 L176 396 C173 401 175 405 180 405 L200 405 C206 405 208 402 210 398 L279 267 C280 264 280 263 280 261 L280 261 Z M156 261 C156 260 156 259 155 257 L87 124 C85 120 83 118 77 118 L57 118 C52 118 50 122 53 127 L121 261 L53 396 C50 401 52 405 57 405 L77 405 C83 405 85 402 87 398 L155 267 C156 264 156 263 156 261 L156 261 Z " />
<glyph glyph-name="onequarter" unicode="&#xbc;" horiz-adv-x="808" d="M629 691 L249 8 C246 2 243 0 236 0 L216 0 C209 0 207 4 211 10 L590 693 C593 698 595 701 603 701 L623 701 C629 701 632 697 629 691 L629 691 Z M177 654 L87 579 C82 575 78 576 74 581 L65 592 C61 597 62 601 66 604 L175 697 C178 699 182 701 187 701 L201 701 C207 701 210 698 210 691 L210 285 C210 278 207 275 201 275 L186 275 C179 275 177 278 177 285 L177 654 L177 654 Z M696 374 L532 133 L696 133 L696 374 L696 374 Z M784 102 L730 102 L730 10 C730 3 727 0 721 0 L706 0 C699 0 696 3 696 10 L696 102 L502 102 C495 102 492 106 492 112 L492 125 C492 130 495 133 497 136 L694 419 C697 423 700 426 705 426 L721 426 C727 426 730 423 730 416 L730 133 L784 133 C790 133 794 131 794 124 L794 112 C794 105 790 102 784 102 L784 102 Z " />
<glyph glyph-name="onehalf" unicode="&#xbd;" horiz-adv-x="808" d="M589 691 L209 8 C206 2 203 0 196 0 L176 0 C169 0 167 4 171 10 L550 693 C553 698 555 701 563 701 L583 701 C589 701 592 697 589 691 L589 691 Z M177 654 L87 579 C82 575 78 576 74 581 L65 592 C61 597 62 601 66 604 L175 697 C178 699 182 701 187 701 L201 701 C207 701 210 698 210 691 L210 285 C210 278 207 275 201 275 L186 275 C179 275 177 278 177 285 L177 654 L177 654 Z M547 323 C547 314 548 307 549 298 C549 292 546 289 540 289 L525 289 C520 289 518 291 516 297 C515 302 513 314 513 323 C513 383 545 432 634 432 C724 432 754 379 754 314 C754 200 635 94 561 31 L754 31 C760 31 763 29 763 22 L763 10 C763 3 760 0 754 0 L520 0 C514 0 511 3 511 10 L511 22 C511 27 512 29 516 33 C593 99 720 209 720 313 C720 363 701 402 633 402 C568 402 547 366 547 323 L547 323 Z " />
<glyph glyph-name="threequarters" unicode="&#xbe;" horiz-adv-x="808" d="M643 691 L263 8 C260 2 257 0 250 0 L230 0 C223 0 221 4 225 10 L604 693 C607 698 609 701 617 701 L637 701 C643 701 646 697 643 691 L643 691 Z M696 374 L532 133 L696 133 L696 374 L696 374 Z M784 102 L730 102 L730 10 C730 3 727 0 721 0 L706 0 C699 0 696 3 696 10 L696 102 L502 102 C495 102 492 106 492 112 L492 125 C492 130 495 133 497 136 L694 419 C697 423 700 426 705 426 L721 426 C727 426 730 423 730 416 L730 133 L784 133 C790 133 794 131 794 124 L794 112 C794 105 790 102 784 102 L784 102 Z M120 482 C114 482 110 485 110 491 L110 503 C110 510 114 513 120 513 L156 513 C204 513 240 538 240 597 C240 651 207 676 143 676 C110 676 79 667 61 661 C54 658 50 661 49 665 L45 679 C44 684 46 686 52 689 C70 698 103 707 145 707 C230 707 274 671 274 598 C274 542 245 511 213 499 C248 491 284 460 284 394 C284 310 234 269 143 269 C100 269 62 280 45 288 C40 290 37 292 39 298 L42 311 C43 316 47 319 53 317 C72 309 104 300 141 300 C212 300 249 331 249 394 C249 461 208 482 156 482 L120 482 L120 482 Z " />
<glyph glyph-name="questiondown" unicode="&#xbf;" horiz-adv-x="389" d="M238 508 L238 447 C238 442 235 438 229 438 L190 438 C185 438 182 442 182 447 L182 508 C182 514 185 516 191 516 L229 516 C235 516 238 514 238 508 L238 508 Z M191 325 C191 331 193 334 199 334 L220 334 C226 334 229 331 229 325 L229 299 C229 175 91 131 91 26 C91 -49 129 -81 217 -81 C269 -81 309 -69 336 -58 C342 -56 345 -58 347 -64 L353 -81 C354 -86 351 -88 345 -90 C317 -103 273 -116 214 -116 C102 -116 52 -71 52 25 C52 144 191 186 191 299 L191 325 L191 325 Z " />
<glyph glyph-name="Agrave" unicode="&#xc0;" horiz-adv-x="537" d="M144 249 L394 249 L270 650 L268 650 L144 249 L144 249 Z M256 701 L281 701 C289 701 291 697 293 692 L509 9 C511 3 508 0 502 0 L479 0 C473 0 471 3 469 8 L404 214 L133 214 L69 8 C67 3 64 0 59 0 L35 0 C30 0 27 3 29 9 L245 692 C246 697 248 701 256 701 L256 701 Z M216 843 L274 761 C277 757 275 752 270 752 L257 752 C251 752 249 754 245 758 L165 841 C161 846 162 853 169 853 L200 853 C209 853 212 849 216 843 L216 843 Z " />
<glyph glyph-name="Aacute" unicode="&#xc1;" horiz-adv-x="537" d="M144 249 L394 249 L270 650 L268 650 L144 249 L144 249 Z M256 701 L281 701 C289 701 291 697 293 692 L509 9 C511 3 508 0 502 0 L479 0 C473 0 471 3 469 8 L404 214 L133 214 L69 8 C67 3 64 0 59 0 L35 0 C30 0 27 3 29 9 L245 692 C246 697 248 701 256 701 L256 701 Z M263 761 L321 843 C325 848 327 853 336 853 L367 853 C374 853 376 846 371 841 L292 758 C288 754 286 752 279 752 L267 752 C261 752 260 756 263 761 L263 761 Z " />
<glyph glyph-name="Acircumflex" unicode="&#xc2;" horiz-adv-x="537" d="M144 249 L394 249 L270 650 L268 650 L144 249 L144 249 Z M256 701 L281 701 C289 701 291 697 293 692 L509 9 C511 3 508 0 502 0 L479 0 C473 0 471 3 469 8 L404 214 L133 214 L69 8 C67 3 64 0 59 0 L35 0 C30 0 27 3 29 9 L245 692 C246 697 248 701 256 701 L256 701 Z M340 758 L269 824 L197 758 C193 755 190 752 186 752 L170 752 C163 752 162 757 166 761 L245 846 C249 850 251 853 259 853 L278 853 C287 853 289 850 293 846 L371 761 C375 757 374 752 367 752 L352 752 C347 752 344 754 340 758 L340 758 Z " />
<glyph glyph-name="Atilde" unicode="&#xc3;" horiz-adv-x="537" d="M144 249 L394 249 L270 650 L268 650 L144 249 L144 249 Z M256 701 L281 701 C289 701 291 697 293 692 L509 9 C511 3 508 0 502 0 L479 0 C473 0 471 3 469 8 L404 214 L133 214 L69 8 C67 3 64 0 59 0 L35 0 C30 0 27 3 29 9 L245 692 C246 697 248 701 256 701 L256 701 Z M394 810 C394 775 373 748 336 748 C315 748 296 756 274 767 L248 782 C233 790 220 794 208 794 C190 794 177 786 175 770 L174 760 C173 753 169 751 163 751 L153 751 C147 751 144 753 144 761 C144 797 165 824 202 824 C223 824 242 816 263 805 L288 790 C304 781 319 776 332 776 C349 776 360 784 363 802 L364 812 C365 818 368 821 375 821 L385 821 C391 821 394 818 394 810 L394 810 Z " />
<glyph glyph-name="Adieresis" unicode="&#xc4;" horiz-adv-x="537" d="M144 249 L394 249 L270 650 L268 650 L144 249 L144 249 Z M256 701 L281 701 C289 701 291 697 293 692 L509 9 C511 3 508 0 502 0 L479 0 C473 0 471 3 469 8 L404 214 L133 214 L69 8 C67 3 64 0 59 0 L35 0 C30 0 27 3 29 9 L245 692 C246 697 248 701 256 701 L256 701 Z M217 814 L217 761 C217 755 214 752 208 752 L182 752 C177 752 175 755 175 761 L175 814 C175 820 177 822 182 822 L208 822 C214 822 217 820 217 814 L217 814 Z M363 814 L363 761 C363 755 361 752 355 752 L329 752 C323 752 321 755 321 761 L321 814 C321 820 323 822 329 822 L355 822 C361 822 363 820 363 814 L363 814 Z " />
<glyph glyph-name="Aring" unicode="&#xc5;" horiz-adv-x="537" d="M183 756 C183 804 215 836 269 836 C322 836 354 804 354 756 C354 718 333 688 297 678 L509 9 C511 3 508 0 502 0 L479 0 C473 0 471 3 469 8 L404 214 L133 214 L69 8 C67 3 64 0 59 0 L35 0 C30 0 27 3 29 9 L240 678 C204 688 183 718 183 756 L183 756 Z M144 249 L394 249 L270 650 L268 650 L144 249 L144 249 Z M210 756 C210 721 231 701 269 701 L274 701 C308 703 327 722 327 756 C327 791 306 812 269 812 C231 812 210 791 210 756 L210 756 Z " />
<glyph glyph-name="AE" unicode="&#xc6;" horiz-adv-x="692" d="M626 341 L390 341 L390 36 L636 36 C643 36 645 33 645 28 L645 8 C645 3 643 0 636 0 L359 0 C354 0 351 3 351 8 L351 206 L136 206 L57 8 C55 3 53 0 47 0 L23 0 C16 0 14 4 16 9 L295 692 C298 698 299 701 307 701 L634 701 C640 701 643 698 643 692 L643 673 C643 668 640 665 634 665 L390 665 L390 377 L626 377 C632 377 635 374 635 368 L635 350 C635 344 632 341 626 341 L626 341 Z M152 241 L350 241 L350 665 L321 665 L152 241 L152 241 Z " />
<glyph glyph-name="Ccedilla" unicode="&#xc7;" horiz-adv-x="480" d="M310 27 C359 27 397 38 420 49 C426 51 428 48 431 42 L438 26 C440 21 436 18 430 16 C403 5 361 -9 306 -9 C300 -9 295 -8 289 -8 C321 -29 340 -58 340 -87 C340 -131 307 -147 262 -147 C251 -147 240 -146 234 -144 C228 -142 227 -139 227 -135 L227 -123 C227 -119 229 -117 234 -117 L259 -117 C289 -117 307 -107 307 -83 C307 -55 289 -28 252 -4 C116 18 52 130 52 350 C52 598 132 710 303 710 C355 710 397 698 423 686 C429 683 433 680 431 674 L425 659 C423 653 420 650 413 653 C390 663 353 674 306 674 C157 674 92 575 92 350 C92 126 157 27 310 27 L310 27 Z " />
<glyph glyph-name="Egrave" unicode="&#xc8;" horiz-adv-x="443" d="M377 341 L116 341 L116 36 L387 36 C393 36 396 33 396 28 L396 9 C396 3 393 0 387 0 L87 0 C81 0 78 3 78 8 L78 692 C78 698 81 701 87 701 L385 701 C391 701 394 698 394 692 L394 673 C394 668 391 665 385 665 L116 665 L116 377 L377 377 C383 377 386 374 386 368 L386 350 C386 344 383 341 377 341 L377 341 Z M217 843 L275 761 C278 757 276 752 271 752 L258 752 C252 752 250 754 246 758 L166 841 C162 846 163 853 170 853 L201 853 C210 853 213 849 217 843 L217 843 Z " />
<glyph glyph-name="Eacute" unicode="&#xc9;" horiz-adv-x="443" d="M377 341 L116 341 L116 36 L387 36 C393 36 396 33 396 28 L396 9 C396 3 393 0 387 0 L87 0 C81 0 78 3 78 8 L78 692 C78 698 81 701 87 701 L385 701 C391 701 394 698 394 692 L394 673 C394 668 391 665 385 665 L116 665 L116 377 L377 377 C383 377 386 374 386 368 L386 350 C386 344 383 341 377 341 L377 341 Z M217 761 L275 843 C279 848 281 853 290 853 L321 853 C328 853 330 846 325 841 L246 758 C242 754 240 752 233 752 L221 752 C215 752 214 756 217 761 L217 761 Z " />
<glyph glyph-name="Ecircumflex" unicode="&#xca;" horiz-adv-x="443" d="M377 341 L116 341 L116 36 L387 36 C393 36 396 33 396 28 L396 9 C396 3 393 0 387 0 L87 0 C81 0 78 3 78 8 L78 692 C78 698 81 701 87 701 L385 701 C391 701 394 698 394 692 L394 673 C394 668 391 665 385 665 L116 665 L116 377 L377 377 C383 377 386 374 386 368 L386 350 C386 344 383 341 377 341 L377 341 Z M314 758 L243 824 L171 758 C167 755 164 752 160 752 L144 752 C137 752 136 757 140 761 L219 846 C223 850 225 853 233 853 L252 853 C261 853 263 850 267 846 L345 761 C349 757 348 752 341 752 L326 752 C321 752 318 754 314 758 L314 758 Z " />
<glyph glyph-name="Edieresis" unicode="&#xcb;" horiz-adv-x="443" d="M377 341 L116 341 L116 36 L387 36 C393 36 396 33 396 28 L396 9 C396 3 393 0 387 0 L87 0 C81 0 78 3 78 8 L78 692 C78 698 81 701 87 701 L385 701 C391 701 394 698 394 692 L394 673 C394 668 391 665 385 665 L116 665 L116 377 L377 377 C383 377 386 374 386 368 L386 350 C386 344 383 341 377 341 L377 341 Z M191 814 L191 761 C191 755 188 752 182 752 L156 752 C151 752 149 755 149 761 L149 814 C149 820 151 822 156 822 L182 822 C188 822 191 820 191 814 L191 814 Z M337 814 L337 761 C337 755 335 752 329 752 L303 752 C297 752 295 755 295 761 L295 814 C295 820 297 822 303 822 L329 822 C335 822 337 820 337 814 L337 814 Z " />
<glyph glyph-name="Igrave" unicode="&#xcc;" horiz-adv-x="205" d="M84 8 L84 692 C84 698 86 701 92 701 L113 701 C119 701 122 698 122 692 L122 8 C122 3 119 0 113 0 L92 0 C86 0 84 3 84 8 L84 8 Z M55 843 L113 761 C116 757 114 752 109 752 L96 752 C90 752 88 754 84 758 L4 841 C0 846 1 853 8 853 L39 853 C48 853 51 849 55 843 L55 843 Z " />
<glyph glyph-name="Iacute" unicode="&#xcd;" horiz-adv-x="205" d="M84 8 L84 692 C84 698 86 701 92 701 L113 701 C119 701 122 698 122 692 L122 8 C122 3 119 0 113 0 L92 0 C86 0 84 3 84 8 L84 8 Z M93 761 L151 843 C155 848 157 853 166 853 L197 853 C204 853 206 846 201 841 L122 758 C118 754 116 752 109 752 L97 752 C91 752 90 756 93 761 L93 761 Z " />
<glyph glyph-name="Icircumflex" unicode="&#xce;" horiz-adv-x="205" d="M84 8 L84 692 C84 698 86 701 92 701 L113 701 C119 701 122 698 122 692 L122 8 C122 3 119 0 113 0 L92 0 C86 0 84 3 84 8 L84 8 Z M174 758 L103 824 L31 758 C27 755 24 752 20 752 L4 752 C-3 752 -4 757 0 761 L79 846 C83 850 85 853 93 853 L112 853 C121 853 123 850 127 846 L205 761 C209 757 208 752 201 752 L186 752 C181 752 178 754 174 758 L174 758 Z " />
<glyph glyph-name="Idieresis" unicode="&#xcf;" horiz-adv-x="205" d="M84 8 L84 692 C84 698 86 701 92 701 L113 701 C119 701 122 698 122 692 L122 8 C122 3 119 0 113 0 L92 0 C86 0 84 3 84 8 L84 8 Z M51 814 L51 761 C51 755 48 752 42 752 L16 752 C11 752 9 755 9 761 L9 814 C9 820 11 822 16 822 L42 822 C48 822 51 820 51 814 L51 814 Z M197 814 L197 761 C197 755 195 752 189 752 L163 752 C157 752 155 755 155 761 L155 814 C155 820 157 822 163 822 L189 822 C195 822 197 820 197 814 L197 814 Z " />
<glyph glyph-name="Eth" unicode="&#xd0;" horiz-adv-x="551" d="M224 0 L89 0 C83 0 80 3 80 8 L80 336 L29 336 C24 336 21 338 21 344 L21 358 C21 364 24 366 29 366 L80 366 L80 692 C80 698 83 701 89 701 L223 701 C397 701 500 623 500 350 C500 77 398 0 224 0 L224 0 Z M245 336 L118 336 L118 36 L224 36 C373 36 460 100 460 350 C460 601 373 665 223 665 L118 665 L118 366 L245 366 C250 366 253 364 253 358 L253 344 C253 338 250 336 245 336 L245 336 Z " />
<glyph glyph-name="Ntilde" unicode="&#xd1;" horiz-adv-x="568" d="M490 692 L490 8 C490 3 487 0 482 0 L460 0 C454 0 450 2 447 7 L116 629 L116 8 C116 3 113 0 108 0 L87 0 C81 0 78 3 78 8 L78 692 C78 698 81 701 87 701 L108 701 C115 701 119 698 121 694 L453 71 L453 692 C453 698 455 701 461 701 L482 701 C487 701 490 698 490 692 L490 692 Z M409 810 C409 775 388 748 351 748 C330 748 311 756 289 767 L263 782 C248 790 235 794 223 794 C205 794 192 786 190 770 L189 760 C188 753 184 751 178 751 L168 751 C162 751 159 753 159 761 C159 797 180 824 217 824 C238 824 257 816 278 805 L303 790 C319 781 334 776 347 776 C364 776 375 784 378 802 L379 812 C380 818 383 821 390 821 L400 821 C406 821 409 818 409 810 L409 810 Z " />
<glyph glyph-name="Ograve" unicode="&#xd2;" horiz-adv-x="578" d="M289 710 C448 710 526 598 526 350 C526 103 448 -9 290 -9 C131 -9 51 103 51 350 C51 598 131 710 289 710 L289 710 Z M289 26 C424 26 487 126 487 350 C487 574 424 674 289 674 C153 674 91 574 91 350 C91 126 153 26 289 26 L289 26 Z M253 843 L311 761 C314 757 312 752 307 752 L294 752 C288 752 286 754 282 758 L202 841 C198 846 199 853 206 853 L237 853 C246 853 249 849 253 843 L253 843 Z " />
<glyph glyph-name="Oacute" unicode="&#xd3;" horiz-adv-x="578" d="M289 710 C448 710 526 598 526 350 C526 103 448 -9 290 -9 C131 -9 51 103 51 350 C51 598 131 710 289 710 L289 710 Z M289 26 C424 26 487 126 487 350 C487 574 424 674 289 674 C153 674 91 574 91 350 C91 126 153 26 289 26 L289 26 Z M272 761 L330 843 C334 848 336 853 345 853 L376 853 C383 853 385 846 380 841 L301 758 C297 754 295 752 288 752 L276 752 C270 752 269 756 272 761 L272 761 Z " />
<glyph glyph-name="Ocircumflex" unicode="&#xd4;" horiz-adv-x="578" d="M289 710 C448 710 526 598 526 350 C526 103 448 -9 290 -9 C131 -9 51 103 51 350 C51 598 131 710 289 710 L289 710 Z M289 26 C424 26 487 126 487 350 C487 574 424 674 289 674 C153 674 91 574 91 350 C91 126 153 26 289 26 L289 26 Z M360 758 L289 824 L217 758 C213 755 210 752 206 752 L190 752 C183 752 182 757 186 761 L265 846 C269 850 271 853 279 853 L298 853 C307 853 309 850 313 846 L391 761 C395 757 394 752 387 752 L372 752 C367 752 364 754 360 758 L360 758 Z " />
<glyph glyph-name="Otilde" unicode="&#xd5;" horiz-adv-x="578" d="M289 710 C448 710 526 598 526 350 C526 103 448 -9 290 -9 C131 -9 51 103 51 350 C51 598 131 710 289 710 L289 710 Z M289 26 C424 26 487 126 487 350 C487 574 424 674 289 674 C153 674 91 574 91 350 C91 126 153 26 289 26 L289 26 Z M414 810 C414 775 393 748 356 748 C335 748 316 756 294 767 L268 782 C253 790 240 794 228 794 C210 794 197 786 195 770 L194 760 C193 753 189 751 183 751 L173 751 C167 751 164 753 164 761 C164 797 185 824 222 824 C243 824 262 816 283 805 L308 790 C324 781 339 776 352 776 C369 776 380 784 383 802 L384 812 C385 818 388 821 395 821 L405 821 C411 821 414 818 414 810 L414 810 Z " />
<glyph glyph-name="Odieresis" unicode="&#xd6;" horiz-adv-x="578" d="M289 710 C448 710 526 598 526 350 C526 103 448 -9 290 -9 C131 -9 51 103 51 350 C51 598 131 710 289 710 L289 710 Z M289 26 C424 26 487 126 487 350 C487 574 424 674 289 674 C153 674 91 574 91 350 C91 126 153 26 289 26 L289 26 Z M237 814 L237 761 C237 755 234 752 228 752 L202 752 C197 752 195 755 195 761 L195 814 C195 820 197 822 202 822 L228 822 C234 822 237 820 237 814 L237 814 Z M383 814 L383 761 C383 755 381 752 375 752 L349 752 C343 752 341 755 341 761 L341 814 C341 820 343 822 349 822 L375 822 C381 822 383 820 383 814 L383 814 Z " />
<glyph glyph-name="multiply" unicode="&#xd7;" horiz-adv-x="515" d="M417 169 L257 328 L98 169 C94 165 90 165 86 169 L74 181 C69 185 69 189 73 193 L233 353 L73 512 C69 516 69 520 73 524 L86 536 C90 540 95 541 99 536 L257 376 L417 536 C421 540 425 540 429 536 L441 524 C446 520 445 516 441 512 L282 353 L441 193 C445 189 445 185 441 181 L429 169 C425 165 421 165 417 169 L417 169 Z " />
<glyph glyph-name="Oslash" unicode="&#xd8;" horiz-adv-x="583" d="M292 710 C371 710 431 680 469 620 L518 687 C521 692 525 693 530 690 L543 680 C548 676 547 673 544 668 L487 589 C514 530 529 453 529 350 C529 103 449 -9 292 -9 C212 -9 152 19 114 80 L63 12 C60 8 56 7 52 10 L39 21 C35 25 34 27 37 32 L95 111 C68 168 54 247 54 350 C54 598 133 710 292 710 L292 710 Z M292 26 C427 26 489 126 489 350 C489 433 479 502 460 554 L138 112 C172 53 219 26 292 26 L292 26 Z M93 350 C93 267 102 196 122 146 L444 588 C412 645 363 674 292 674 C156 674 93 574 93 350 L93 350 Z " />
<glyph glyph-name="Ugrave" unicode="&#xd9;" horiz-adv-x="554" d="M277 -10 C133 -10 74 66 74 221 L74 692 C74 698 76 701 82 701 L103 701 C109 701 112 698 112 692 L112 223 C112 89 156 25 277 25 C398 25 442 89 442 223 L442 692 C442 698 445 701 450 701 L472 701 C478 701 481 698 481 692 L481 221 C481 66 420 -10 277 -10 L277 -10 Z M246 843 L304 761 C307 757 305 752 300 752 L287 752 C281 752 279 754 275 758 L195 841 C191 846 192 853 199 853 L230 853 C239 853 242 849 246 843 L246 843 Z " />
<glyph glyph-name="Uacute" unicode="&#xda;" horiz-adv-x="554" d="M277 -10 C133 -10 74 66 74 221 L74 692 C74 698 76 701 82 701 L103 701 C109 701 112 698 112 692 L112 223 C112 89 156 25 277 25 C398 25 442 89 442 223 L442 692 C442 698 445 701 450 701 L472 701 C478 701 481 698 481 692 L481 221 C481 66 420 -10 277 -10 L277 -10 Z M251 761 L309 843 C313 848 315 853 324 853 L355 853 C362 853 364 846 359 841 L280 758 C276 754 274 752 267 752 L255 752 C249 752 248 756 251 761 L251 761 Z " />
<glyph glyph-name="Ucircumflex" unicode="&#xdb;" horiz-adv-x="554" d="M277 -10 C133 -10 74 66 74 221 L74 692 C74 698 76 701 82 701 L103 701 C109 701 112 698 112 692 L112 223 C112 89 156 25 277 25 C398 25 442 89 442 223 L442 692 C442 698 445 701 450 701 L472 701 C478 701 481 698 481 692 L481 221 C481 66 420 -10 277 -10 L277 -10 Z M348 758 L277 824 L205 758 C201 755 198 752 194 752 L178 752 C171 752 170 757 174 761 L253 846 C257 850 259 853 267 853 L286 853 C295 853 297 850 301 846 L379 761 C383 757 382 752 375 752 L360 752 C355 752 352 754 348 758 L348 758 Z " />
<glyph glyph-name="Udieresis" unicode="&#xdc;" horiz-adv-x="554" d="M277 -10 C133 -10 74 66 74 221 L74 692 C74 698 76 701 82 701 L103 701 C109 701 112 698 112 692 L112 223 C112 89 156 25 277 25 C398 25 442 89 442 223 L442 692 C442 698 445 701 450 701 L472 701 C478 701 481 698 481 692 L481 221 C481 66 420 -10 277 -10 L277 -10 Z M225 814 L225 761 C225 755 222 752 216 752 L190 752 C185 752 183 755 183 761 L183 814 C183 820 185 822 190 822 L216 822 C222 822 225 820 225 814 L225 814 Z M371 814 L371 761 C371 755 369 752 363 752 L337 752 C331 752 329 755 329 761 L329 814 C329 820 331 822 337 822 L363 822 C369 822 371 820 371 814 L371 814 Z " />
<glyph glyph-name="Yacute" unicode="&#xdd;" horiz-adv-x="510" d="M275 271 L275 9 C275 3 272 0 266 0 L245 0 C239 0 236 3 236 9 L236 271 L33 691 C31 696 32 700 39 700 L62 700 C69 700 71 698 74 693 L204 421 L254 309 L256 309 L307 421 L437 693 C439 698 442 700 449 700 L472 700 C479 700 480 695 478 691 L275 271 L275 271 Z M237 761 L295 843 C299 848 301 853 310 853 L341 853 C348 853 350 846 345 841 L266 758 C262 754 260 752 253 752 L241 752 C235 752 234 756 237 761 L237 761 Z " />
<glyph glyph-name="Thorn" unicode="&#xde;" horiz-adv-x="484" d="M108 0 L87 0 C81 0 78 3 78 8 L78 692 C78 698 81 701 87 701 L108 701 C113 701 116 698 116 692 L116 617 L207 617 C366 617 434 554 434 396 C434 238 366 175 208 175 L116 175 L116 8 C116 3 113 0 108 0 L108 0 Z M116 211 L208 211 C341 211 395 260 395 396 C395 531 342 581 208 581 L116 581 L116 211 L116 211 Z " />
<glyph glyph-name="germandbls" unicode="&#xdf;" horiz-adv-x="499" d="M244 674 C173 674 108 640 108 540 L108 8 C108 3 105 0 100 0 L79 0 C73 0 71 3 71 8 L71 544 C71 659 147 708 245 708 C360 708 403 646 403 585 C403 475 277 464 277 409 C277 346 459 319 459 149 C459 29 387 -5 300 -5 C279 -5 258 -3 236 0 C225 1 220 4 220 11 L220 25 C220 31 224 33 229 33 C249 33 271 27 292 27 C359 27 421 52 421 150 C421 304 239 328 239 407 C239 479 367 490 367 582 C367 627 335 674 244 674 L244 674 Z " />
<glyph glyph-name="agrave" unicode="&#xe0;" horiz-adv-x="444" d="M379 370 L379 8 C379 3 376 0 370 0 L352 0 C346 0 343 3 343 8 L343 94 C327 52 285 -6 181 -6 C87 -6 38 51 38 139 C38 285 167 303 343 307 L343 368 C343 454 311 493 223 493 C173 493 123 477 86 465 C81 463 77 466 76 471 L72 487 C71 492 72 496 78 498 C113 513 172 526 226 526 C333 526 379 475 379 370 L379 370 Z M343 187 L343 277 C192 271 73 264 73 140 C73 72 108 25 186 25 C287 25 343 98 343 187 L343 187 Z M188 679 L248 592 C251 588 249 583 243 583 L231 583 C225 583 223 585 219 589 L138 676 C134 681 134 688 142 688 L172 688 C181 688 184 684 188 679 L188 679 Z " />
<glyph glyph-name="aacute" unicode="&#xe1;" horiz-adv-x="444" d="M379 370 L379 8 C379 3 376 0 370 0 L352 0 C346 0 343 3 343 8 L343 94 C327 52 285 -6 181 -6 C87 -6 38 51 38 139 C38 285 167 303 343 307 L343 368 C343 454 311 493 223 493 C173 493 123 477 86 465 C81 463 77 466 76 471 L72 487 C71 492 72 496 78 498 C113 513 172 526 226 526 C333 526 379 475 379 370 L379 370 Z M343 187 L343 277 C192 271 73 264 73 140 C73 72 108 25 186 25 C287 25 343 98 343 187 L343 187 Z M196 592 L256 679 C259 684 262 688 271 688 L302 688 C309 688 310 682 305 676 L224 589 C221 585 218 583 213 583 L200 583 C194 583 193 588 196 592 L196 592 Z " />
<glyph glyph-name="acircumflex" unicode="&#xe2;" horiz-adv-x="444" d="M379 370 L379 8 C379 3 376 0 370 0 L352 0 C346 0 343 3 343 8 L343 94 C327 52 285 -6 181 -6 C87 -6 38 51 38 139 C38 285 167 303 343 307 L343 368 C343 454 311 493 223 493 C173 493 123 477 86 465 C81 463 77 466 76 471 L72 487 C71 492 72 496 78 498 C113 513 172 526 226 526 C333 526 379 475 379 370 L379 370 Z M343 187 L343 277 C192 271 73 264 73 140 C73 72 108 25 186 25 C287 25 343 98 343 187 L343 187 Z M294 589 L222 662 L150 589 C146 585 143 583 139 583 L123 583 C117 583 115 588 119 592 L198 683 C201 687 204 689 212 689 L231 689 C240 689 242 687 246 683 L325 592 C328 588 326 583 321 583 L305 583 C301 583 298 585 294 589 L294 589 Z " />
<glyph glyph-name="atilde" unicode="&#xe3;" horiz-adv-x="444" d="M379 370 L379 8 C379 3 376 0 370 0 L352 0 C346 0 343 3 343 8 L343 94 C327 52 285 -6 181 -6 C87 -6 38 51 38 139 C38 285 167 303 343 307 L343 368 C343 454 311 493 223 493 C173 493 123 477 86 465 C81 463 77 466 76 471 L72 487 C71 492 72 496 78 498 C113 513 172 526 226 526 C333 526 379 475 379 370 L379 370 Z M343 187 L343 277 C192 271 73 264 73 140 C73 72 108 25 186 25 C287 25 343 98 343 187 L343 187 Z M341 641 C341 606 322 582 287 582 C266 582 249 588 228 600 L203 614 C189 623 176 626 166 626 C149 626 138 616 135 603 L133 593 C132 587 129 584 123 584 L113 584 C107 584 104 587 104 595 C104 629 123 655 158 655 C179 655 198 647 218 636 L242 622 C257 613 270 610 281 610 C298 610 309 619 311 634 L312 643 C313 650 317 651 322 651 L333 651 C339 651 341 649 341 641 L341 641 Z " />
<glyph glyph-name="adieresis" unicode="&#xe4;" horiz-adv-x="444" d="M379 370 L379 8 C379 3 376 0 370 0 L352 0 C346 0 343 3 343 8 L343 94 C327 52 285 -6 181 -6 C87 -6 38 51 38 139 C38 285 167 303 343 307 L343 368 C343 454 311 493 223 493 C173 493 123 477 86 465 C81 463 77 466 76 471 L72 487 C71 492 72 496 78 498 C113 513 172 526 226 526 C333 526 379 475 379 370 L379 370 Z M343 187 L343 277 C192 271 73 264 73 140 C73 72 108 25 186 25 C287 25 343 98 343 187 L343 187 Z M171 647 L171 591 C171 586 169 583 163 583 L139 583 C134 583 131 586 131 591 L131 647 C131 653 134 656 139 656 L163 656 C169 656 171 653 171 647 L171 647 Z M315 647 L315 591 C315 586 312 583 306 583 L283 583 C277 583 274 586 274 591 L274 647 C274 653 277 656 283 656 L306 656 C312 656 315 653 315 647 L315 647 Z " />
<glyph glyph-name="aring" unicode="&#xe5;" horiz-adv-x="444" d="M379 370 L379 8 C379 3 376 0 370 0 L352 0 C346 0 343 3 343 8 L343 94 C327 52 285 -6 181 -6 C87 -6 38 51 38 139 C38 285 167 303 343 307 L343 368 C343 454 311 493 223 493 C173 493 123 477 86 465 C81 463 77 466 76 471 L72 487 C71 492 72 496 78 498 C113 513 172 526 226 526 C333 526 379 475 379 370 L379 370 Z M343 187 L343 277 C192 271 73 264 73 140 C73 72 108 25 186 25 C287 25 343 98 343 187 L343 187 Z M223 599 C260 599 281 620 281 654 C281 689 260 709 223 709 C185 709 165 689 165 654 C165 620 185 599 223 599 L223 599 Z M223 734 C276 734 309 702 309 654 C309 607 276 574 223 574 C169 574 137 607 137 654 C137 702 169 734 223 734 L223 734 Z " />
<glyph glyph-name="ae" unicode="&#xe6;" horiz-adv-x="722" d="M535 23 C576 23 611 31 643 46 C648 48 651 46 653 40 L658 25 C660 20 657 17 651 14 C623 1 576 -10 534 -10 C441 -10 381 41 358 126 C341 50 281 -6 184 -6 C86 -6 38 52 38 136 C38 276 159 284 337 286 L337 363 C337 454 303 493 220 493 C170 493 123 476 86 465 C80 463 77 466 76 471 L71 487 C70 492 72 496 78 498 C115 512 168 526 220 526 C306 526 353 491 363 419 C386 488 439 526 515 526 C628 526 678 430 678 294 L678 262 C678 256 676 253 670 253 L372 253 C375 102 427 23 535 23 L535 23 Z M513 494 C421 494 375 421 372 286 L642 286 L642 295 C642 411 608 494 513 494 L513 494 Z M337 187 L337 255 C183 252 73 253 73 136 C73 72 108 25 187 25 C286 25 337 98 337 187 L337 187 Z " />
<glyph glyph-name="ccedilla" unicode="&#xe7;" horiz-adv-x="386" d="M45 259 C45 434 107 526 237 526 C283 526 319 516 341 505 C346 502 350 499 348 493 L342 478 C340 473 338 470 331 473 C310 484 280 493 240 493 C130 493 82 414 82 259 C82 104 130 25 238 25 C282 25 314 34 335 45 C341 49 345 45 346 41 L351 25 C353 19 350 17 344 14 C322 3 285 -9 239 -9 C234 -9 228 -9 223 -8 C254 -29 273 -56 273 -83 C273 -125 242 -139 199 -139 C188 -139 178 -139 172 -137 C167 -135 166 -132 166 -128 L166 -117 C166 -113 168 -111 173 -111 L195 -111 C225 -111 241 -102 241 -79 C241 -52 223 -26 185 -2 C90 21 45 111 45 259 L45 259 Z " />
<glyph glyph-name="egrave" unicode="&#xe8;" horiz-adv-x="444" d="M252 23 C298 23 335 28 365 46 C369 49 373 46 375 40 L380 26 C382 21 379 18 373 15 C343 1 298 -10 250 -10 C109 -10 45 83 45 259 C45 432 106 526 229 526 C351 526 401 427 401 282 L401 249 C401 243 398 241 393 241 L82 241 C85 98 136 23 252 23 L252 23 Z M229 494 C130 494 84 418 82 273 L365 273 L365 283 C365 409 329 494 229 494 L229 494 Z M188 679 L248 592 C251 588 249 583 243 583 L231 583 C225 583 223 585 219 589 L138 676 C134 681 134 688 142 688 L172 688 C181 688 184 684 188 679 L188 679 Z " />
<glyph glyph-name="eacute" unicode="&#xe9;" horiz-adv-x="444" d="M252 23 C298 23 335 28 365 46 C369 49 373 46 375 40 L380 26 C382 21 379 18 373 15 C343 1 298 -10 250 -10 C109 -10 45 83 45 259 C45 432 106 526 229 526 C351 526 401 427 401 282 L401 249 C401 243 398 241 393 241 L82 241 C85 98 136 23 252 23 L252 23 Z M229 494 C130 494 84 418 82 273 L365 273 L365 283 C365 409 329 494 229 494 L229 494 Z M199 592 L259 679 C262 684 265 688 274 688 L305 688 C312 688 313 682 308 676 L227 589 C224 585 221 583 216 583 L203 583 C197 583 196 588 199 592 L199 592 Z " />
<glyph glyph-name="ecircumflex" unicode="&#xea;" horiz-adv-x="444" d="M252 23 C298 23 335 28 365 46 C369 49 373 46 375 40 L380 26 C382 21 379 18 373 15 C343 1 298 -10 250 -10 C109 -10 45 83 45 259 C45 432 106 526 229 526 C351 526 401 427 401 282 L401 249 C401 243 398 241 393 241 L82 241 C85 98 136 23 252 23 L252 23 Z M229 494 C130 494 84 418 82 273 L365 273 L365 283 C365 409 329 494 229 494 L229 494 Z M300 589 L228 662 L156 589 C152 585 149 583 145 583 L129 583 C123 583 121 588 125 592 L204 683 C207 687 210 689 218 689 L237 689 C246 689 248 687 252 683 L331 592 C334 588 332 583 327 583 L311 583 C307 583 304 585 300 589 L300 589 Z " />
<glyph glyph-name="edieresis" unicode="&#xeb;" horiz-adv-x="444" d="M252 23 C298 23 335 28 365 46 C369 49 373 46 375 40 L380 26 C382 21 379 18 373 15 C343 1 298 -10 250 -10 C109 -10 45 83 45 259 C45 432 106 526 229 526 C351 526 401 427 401 282 L401 249 C401 243 398 241 393 241 L82 241 C85 98 136 23 252 23 L252 23 Z M229 494 C130 494 84 418 82 273 L365 273 L365 283 C365 409 329 494 229 494 L229 494 Z M176 647 L176 591 C176 586 174 583 168 583 L144 583 C139 583 136 586 136 591 L136 647 C136 653 139 656 144 656 L168 656 C174 656 176 653 176 647 L176 647 Z M320 647 L320 591 C320 586 317 583 311 583 L288 583 C282 583 279 586 279 591 L279 647 C279 653 282 656 288 656 L311 656 C317 656 320 653 320 647 L320 647 Z " />
<glyph glyph-name="igrave" unicode="&#xec;" horiz-adv-x="184" d="M109 508 L109 8 C109 3 107 0 102 0 L82 0 C76 0 73 3 73 8 L73 508 C73 514 76 516 82 516 L102 516 C107 516 109 514 109 508 L109 508 Z M44 679 L104 592 C107 588 105 583 99 583 L87 583 C81 583 79 585 75 589 L-6 676 C-10 681 -10 688 -2 688 L28 688 C37 688 40 684 44 679 L44 679 Z " />
<glyph glyph-name="iacute" unicode="&#xed;" horiz-adv-x="184" d="M109 508 L109 8 C109 3 107 0 102 0 L82 0 C76 0 73 3 73 8 L73 508 C73 514 76 516 82 516 L102 516 C107 516 109 514 109 508 L109 508 Z M81 592 L141 679 C144 684 147 688 156 688 L187 688 C194 688 195 682 190 676 L109 589 C106 585 103 583 98 583 L85 583 C79 583 78 588 81 592 L81 592 Z " />
<glyph glyph-name="icircumflex" unicode="&#xee;" horiz-adv-x="184" d="M109 508 L109 8 C109 3 107 0 102 0 L82 0 C76 0 73 3 73 8 L73 508 C73 514 76 516 82 516 L102 516 C107 516 109 514 109 508 L109 508 Z M165 589 L93 662 L21 589 C17 585 14 583 10 583 L-6 583 C-12 583 -14 588 -10 592 L69 683 C72 687 75 689 83 689 L102 689 C111 689 113 687 117 683 L196 592 C199 588 197 583 192 583 L176 583 C172 583 169 585 165 589 L165 589 Z " />
<glyph glyph-name="idieresis" unicode="&#xef;" horiz-adv-x="184" d="M109 508 L109 8 C109 3 107 0 102 0 L82 0 C76 0 73 3 73 8 L73 508 C73 514 76 516 82 516 L102 516 C107 516 109 514 109 508 L109 508 Z M41 647 L41 591 C41 586 39 583 33 583 L9 583 C4 583 1 586 1 591 L1 647 C1 653 4 656 9 656 L33 656 C39 656 41 653 41 647 L41 647 Z M185 647 L185 591 C185 586 182 583 176 583 L153 583 C147 583 144 586 144 591 L144 647 C144 653 147 656 153 656 L176 656 C182 656 185 653 185 647 L185 647 Z " />
<glyph glyph-name="eth" unicode="&#xf0;" horiz-adv-x="471" d="M391 596 L331 596 C395 500 426 387 426 259 C426 84 363 -9 236 -9 C108 -9 45 84 45 259 C45 433 108 526 235 526 C287 526 332 508 360 471 C345 515 323 556 294 596 L180 596 C175 596 172 599 172 604 L172 615 C172 621 175 623 180 623 L274 623 C254 649 228 673 209 690 C203 695 205 701 211 701 L232 701 C239 701 242 699 247 695 C268 675 293 649 312 623 L391 623 C396 623 399 621 399 615 L399 604 C399 599 396 596 391 596 L391 596 Z M236 24 C340 24 388 104 388 259 C388 414 340 493 236 493 C131 493 82 414 82 259 C82 104 131 24 236 24 L236 24 Z " />
<glyph glyph-name="ntilde" unicode="&#xf1;" horiz-adv-x="477" d="M410 359 L410 8 C410 3 408 0 402 0 L383 0 C377 0 374 3 374 8 L374 357 C374 440 341 492 257 492 C167 492 104 424 104 330 L104 8 C104 3 101 0 96 0 L77 0 C71 0 68 3 68 8 L68 508 C68 514 71 516 77 516 L96 516 C101 516 104 514 104 508 L104 425 C122 469 168 526 262 526 C365 526 410 460 410 359 L410 359 Z M357 641 C357 606 338 582 303 582 C282 582 265 588 244 600 L219 614 C205 623 192 626 182 626 C165 626 154 616 151 603 L149 593 C148 587 145 584 139 584 L129 584 C123 584 120 587 120 595 C120 629 139 655 174 655 C195 655 214 647 234 636 L258 622 C273 613 286 610 297 610 C314 610 325 619 327 634 L328 643 C329 650 333 651 338 651 L349 651 C355 651 357 649 357 641 L357 641 Z " />
<glyph glyph-name="ograve" unicode="&#xf2;" horiz-adv-x="471" d="M236 -9 C108 -9 45 84 45 259 C45 433 108 526 236 526 C363 526 426 433 426 259 C426 84 363 -9 236 -9 L236 -9 Z M236 24 C340 24 388 104 388 259 C388 414 340 493 236 493 C131 493 82 414 82 259 C82 104 131 24 236 24 L236 24 Z M200 679 L260 592 C263 588 261 583 255 583 L243 583 C237 583 235 585 231 589 L150 676 C146 681 146 688 154 688 L184 688 C193 688 196 684 200 679 L200 679 Z " />
<glyph glyph-name="oacute" unicode="&#xf3;" horiz-adv-x="471" d="M236 -9 C108 -9 45 84 45 259 C45 433 108 526 236 526 C363 526 426 433 426 259 C426 84 363 -9 236 -9 L236 -9 Z M236 24 C340 24 388 104 388 259 C388 414 340 493 236 493 C131 493 82 414 82 259 C82 104 131 24 236 24 L236 24 Z M211 592 L271 679 C274 684 277 688 286 688 L317 688 C324 688 325 682 320 676 L239 589 C236 585 233 583 228 583 L215 583 C209 583 208 588 211 592 L211 592 Z " />
<glyph glyph-name="ocircumflex" unicode="&#xf4;" horiz-adv-x="471" d="M236 -9 C108 -9 45 84 45 259 C45 433 108 526 236 526 C363 526 426 433 426 259 C426 84 363 -9 236 -9 L236 -9 Z M236 24 C340 24 388 104 388 259 C388 414 340 493 236 493 C131 493 82 414 82 259 C82 104 131 24 236 24 L236 24 Z M307 589 L235 662 L163 589 C159 585 156 583 152 583 L136 583 C130 583 128 588 132 592 L211 683 C214 687 217 689 225 689 L244 689 C253 689 255 687 259 683 L338 592 C341 588 339 583 334 583 L318 583 C314 583 311 585 307 589 L307 589 Z " />
<glyph glyph-name="otilde" unicode="&#xf5;" horiz-adv-x="471" d="M236 -9 C108 -9 45 84 45 259 C45 433 108 526 236 526 C363 526 426 433 426 259 C426 84 363 -9 236 -9 L236 -9 Z M236 24 C340 24 388 104 388 259 C388 414 340 493 236 493 C131 493 82 414 82 259 C82 104 131 24 236 24 L236 24 Z M353 641 C353 606 334 582 299 582 C278 582 261 588 240 600 L215 614 C201 623 188 626 178 626 C161 626 150 616 147 603 L145 593 C144 587 141 584 135 584 L125 584 C119 584 116 587 116 595 C116 629 135 655 170 655 C191 655 210 647 230 636 L254 622 C269 613 282 610 293 610 C310 610 321 619 323 634 L324 643 C325 650 329 651 334 651 L345 651 C351 651 353 649 353 641 L353 641 Z " />
<glyph glyph-name="odieresis" unicode="&#xf6;" horiz-adv-x="471" d="M236 -9 C108 -9 45 84 45 259 C45 433 108 526 236 526 C363 526 426 433 426 259 C426 84 363 -9 236 -9 L236 -9 Z M236 24 C340 24 388 104 388 259 C388 414 340 493 236 493 C131 493 82 414 82 259 C82 104 131 24 236 24 L236 24 Z M183 647 L183 591 C183 586 181 583 175 583 L151 583 C146 583 143 586 143 591 L143 647 C143 653 146 656 151 656 L175 656 C181 656 183 653 183 647 L183 647 Z M327 647 L327 591 C327 586 324 583 318 583 L295 583 C289 583 286 586 286 591 L286 647 C286 653 289 656 295 656 L318 656 C324 656 327 653 327 647 L327 647 Z " />
<glyph glyph-name="divide" unicode="&#xf7;" horiz-adv-x="515" d="M449 336 L65 336 C60 336 58 339 58 345 L58 361 C58 367 60 370 65 370 L449 370 C454 370 457 367 457 361 L457 345 C457 339 454 336 449 336 L449 336 Z M231 165 L231 226 C231 231 233 233 239 233 L276 233 C281 233 284 231 284 226 L284 165 C284 160 281 157 276 157 L239 157 C233 157 231 160 231 165 L231 165 Z M231 480 L231 541 C231 546 233 549 239 549 L276 549 C281 549 284 546 284 541 L284 480 C284 474 281 472 276 472 L239 472 C233 472 231 474 231 480 L231 480 Z " />
<glyph glyph-name="oslash" unicode="&#xf8;" horiz-adv-x="475" d="M238 -9 C180 -9 135 10 104 48 L73 4 C69 -1 64 -3 60 1 L52 9 C48 13 47 16 49 19 L86 72 C60 116 47 179 47 259 C47 433 110 526 238 526 C294 526 340 507 371 469 L402 513 C406 518 409 518 414 515 L423 509 C428 505 427 502 425 498 L389 445 C415 401 428 337 428 259 C428 84 365 -9 238 -9 L238 -9 Z M238 493 C133 493 84 414 84 259 C84 197 93 142 110 104 L348 440 C324 474 287 493 238 493 L238 493 Z M238 24 C342 24 390 104 390 259 C390 321 381 375 364 412 L127 77 C152 43 187 24 238 24 L238 24 Z " />
<glyph glyph-name="ugrave" unicode="&#xf9;" horiz-adv-x="471" d="M64 164 L64 508 C64 514 67 516 73 516 L93 516 C99 516 101 514 101 508 L101 167 C101 81 134 25 221 25 C308 25 366 95 366 188 L366 508 C366 514 368 516 374 516 L394 516 C400 516 402 514 402 508 L402 8 C402 3 400 0 394 0 L374 0 C368 0 366 3 366 8 L366 92 C351 49 308 -9 216 -9 C111 -9 64 58 64 164 L64 164 Z M201 679 L261 592 C264 588 262 583 256 583 L244 583 C238 583 236 585 232 589 L151 676 C147 681 147 688 155 688 L185 688 C194 688 197 684 201 679 L201 679 Z " />
<glyph glyph-name="uacute" unicode="&#xfa;" horiz-adv-x="471" d="M64 164 L64 508 C64 514 67 516 73 516 L93 516 C99 516 101 514 101 508 L101 167 C101 81 134 25 221 25 C308 25 366 95 366 188 L366 508 C366 514 368 516 374 516 L394 516 C400 516 402 514 402 508 L402 8 C402 3 400 0 394 0 L374 0 C368 0 366 3 366 8 L366 92 C351 49 308 -9 216 -9 C111 -9 64 58 64 164 L64 164 Z M210 592 L270 679 C273 684 276 688 285 688 L316 688 C323 688 324 682 319 676 L238 589 C235 585 232 583 227 583 L214 583 C208 583 207 588 210 592 L210 592 Z " />
<glyph glyph-name="ucircumflex" unicode="&#xfb;" horiz-adv-x="471" d="M64 164 L64 508 C64 514 67 516 73 516 L93 516 C99 516 101 514 101 508 L101 167 C101 81 134 25 221 25 C308 25 366 95 366 188 L366 508 C366 514 368 516 374 516 L394 516 C400 516 402 514 402 508 L402 8 C402 3 400 0 394 0 L374 0 C368 0 366 3 366 8 L366 92 C351 49 308 -9 216 -9 C111 -9 64 58 64 164 L64 164 Z M308 589 L236 662 L164 589 C160 585 157 583 153 583 L137 583 C131 583 129 588 133 592 L212 683 C215 687 218 689 226 689 L245 689 C254 689 256 687 260 683 L339 592 C342 588 340 583 335 583 L319 583 C315 583 312 585 308 589 L308 589 Z " />
<glyph glyph-name="udieresis" unicode="&#xfc;" horiz-adv-x="471" d="M64 164 L64 508 C64 514 67 516 73 516 L93 516 C99 516 101 514 101 508 L101 167 C101 81 134 25 221 25 C308 25 366 95 366 188 L366 508 C366 514 368 516 374 516 L394 516 C400 516 402 514 402 508 L402 8 C402 3 400 0 394 0 L374 0 C368 0 366 3 366 8 L366 92 C351 49 308 -9 216 -9 C111 -9 64 58 64 164 L64 164 Z M184 647 L184 591 C184 586 182 583 176 583 L152 583 C147 583 144 586 144 591 L144 647 C144 653 147 656 152 656 L176 656 C182 656 184 653 184 647 L184 647 Z M328 647 L328 591 C328 586 325 583 319 583 L296 583 C290 583 287 586 287 591 L287 647 C287 653 290 656 296 656 L319 656 C325 656 328 653 328 647 L328 647 Z " />
<glyph glyph-name="yacute" unicode="&#xfd;" horiz-adv-x="405" d="M378 507 L232 12 C208 -72 181 -115 108 -115 C85 -115 67 -111 54 -107 C48 -105 45 -102 46 -97 L50 -82 C52 -76 55 -74 61 -75 C74 -79 87 -82 107 -82 C173 -82 195 -10 184 25 L29 507 C27 513 29 516 35 516 L57 516 C63 516 65 514 67 508 L167 186 L208 50 L210 50 L249 186 L340 508 C342 514 345 516 350 516 L371 516 C378 516 380 513 378 507 L378 507 Z M179 592 L239 679 C242 684 245 688 254 688 L285 688 C292 688 293 682 288 676 L207 589 C204 585 201 583 196 583 L183 583 C177 583 176 588 179 592 L179 592 Z " />
<glyph glyph-name="thorn" unicode="&#xfe;" horiz-adv-x="492" d="M80 701 L99 701 C104 701 107 698 107 692 L107 413 C129 482 185 526 265 526 C386 526 447 431 447 259 C447 86 386 -9 265 -9 C185 -9 129 33 107 103 L107 -102 C107 -107 104 -110 99 -110 L80 -110 C74 -110 71 -107 71 -102 L71 692 C71 698 74 701 80 701 L80 701 Z M107 259 C107 104 161 24 261 24 C362 24 409 106 409 259 C409 412 362 493 261 493 C161 493 107 413 107 259 L107 259 Z " />
<glyph glyph-name="ydieresis" unicode="&#xff;" horiz-adv-x="405" d="M378 507 L232 12 C208 -72 181 -115 108 -115 C85 -115 67 -111 54 -107 C48 -105 45 -102 46 -97 L50 -82 C52 -76 55 -74 61 -75 C74 -79 87 -82 107 -82 C173 -82 195 -10 184 25 L29 507 C27 513 29 516 35 516 L57 516 C63 516 65 514 67 508 L167 186 L208 50 L210 50 L249 186 L340 508 C342 514 345 516 350 516 L371 516 C378 516 380 513 378 507 L378 507 Z M151 647 L151 591 C151 586 149 583 143 583 L119 583 C114 583 111 586 111 591 L111 647 C111 653 114 656 119 656 L143 656 C149 656 151 653 151 647 L151 647 Z M295 647 L295 591 C295 586 292 583 286 583 L263 583 C257 583 254 586 254 591 L254 647 C254 653 257 656 263 656 L286 656 C292 656 295 653 295 647 L295 647 Z " />
<glyph glyph-name="Amacron" unicode="&#x100;" horiz-adv-x="537" d="M144 249 L394 249 L270 650 L268 650 L144 249 L144 249 Z M256 701 L281 701 C289 701 291 697 293 692 L509 9 C511 3 508 0 502 0 L479 0 C473 0 471 3 469 8 L404 214 L133 214 L69 8 C67 3 64 0 59 0 L35 0 C30 0 27 3 29 9 L245 692 C246 697 248 701 256 701 L256 701 Z M375 758 L163 758 C157 758 155 761 155 766 L155 780 C155 785 157 787 163 787 L375 787 C380 787 382 785 382 780 L382 766 C382 761 380 758 375 758 L375 758 Z " />
<glyph glyph-name="amacron" unicode="&#x101;" horiz-adv-x="444" d="M379 370 L379 8 C379 3 376 0 370 0 L352 0 C346 0 343 3 343 8 L343 94 C327 52 285 -6 181 -6 C87 -6 38 51 38 139 C38 285 167 303 343 307 L343 368 C343 454 311 493 223 493 C173 493 123 477 86 465 C81 463 77 466 76 471 L72 487 C71 492 72 496 78 498 C113 513 172 526 226 526 C333 526 379 475 379 370 L379 370 Z M343 187 L343 277 C192 271 73 264 73 140 C73 72 108 25 186 25 C287 25 343 98 343 187 L343 187 Z M327 591 L119 591 C113 591 110 594 110 599 L110 612 C110 617 113 620 119 620 L327 620 C332 620 335 617 335 612 L335 599 C335 594 332 591 327 591 L327 591 Z " />
<glyph glyph-name="Abreve" unicode="&#x102;" horiz-adv-x="537" d="M144 249 L394 249 L270 650 L268 650 L144 249 L144 249 Z M256 701 L281 701 C289 701 291 697 293 692 L509 9 C511 3 508 0 502 0 L479 0 C473 0 471 3 469 8 L404 214 L133 214 L69 8 C67 3 64 0 59 0 L35 0 C30 0 27 3 29 9 L245 692 C246 697 248 701 256 701 L256 701 Z M269 748 C197 748 164 792 162 837 C162 842 164 844 169 844 L183 844 C188 844 190 843 191 837 C198 805 216 777 269 777 C322 777 341 805 346 837 C347 843 349 844 355 844 L368 844 C373 844 376 842 376 837 C374 792 340 748 269 748 L269 748 Z " />
<glyph glyph-name="abreve" unicode="&#x103;" horiz-adv-x="444" d="M379 370 L379 8 C379 3 376 0 370 0 L352 0 C346 0 343 3 343 8 L343 94 C327 52 285 -6 181 -6 C87 -6 38 51 38 139 C38 285 167 303 343 307 L343 368 C343 454 311 493 223 493 C173 493 123 477 86 465 C81 463 77 466 76 471 L72 487 C71 492 72 496 78 498 C113 513 172 526 226 526 C333 526 379 475 379 370 L379 370 Z M343 187 L343 277 C192 271 73 264 73 140 C73 72 108 25 186 25 C287 25 343 98 343 187 L343 187 Z M223 580 C149 580 118 627 116 672 C116 677 118 680 123 680 L137 680 C142 680 144 678 145 673 C151 640 168 610 223 610 C278 610 295 640 300 673 C301 678 303 680 309 680 L322 680 C327 680 330 677 330 672 C328 627 296 580 223 580 L223 580 Z " />
<glyph glyph-name="Aogonek" unicode="&#x104;" horiz-adv-x="537" d="M256 701 L281 701 C289 701 291 697 293 692 L509 9 C511 3 508 0 502 0 L491 0 C448 -24 427 -52 427 -83 C427 -107 445 -116 475 -116 C483 -116 495 -114 503 -113 C507 -112 510 -113 511 -118 L513 -130 C514 -135 512 -137 508 -139 C501 -143 485 -147 468 -147 C429 -147 395 -132 395 -88 C395 -54 425 -16 470 6 C469 6 469 7 469 8 L404 214 L133 214 L69 8 C67 3 64 0 59 0 L35 0 C30 0 27 3 29 9 L245 692 C246 697 248 701 256 701 L256 701 Z M144 249 L394 249 L270 650 L268 650 L144 249 L144 249 Z " />
<glyph glyph-name="aogonek" unicode="&#x105;" horiz-adv-x="444" d="M379 370 L379 8 C379 3 376 0 370 0 L360 0 C320 -24 300 -51 300 -79 C300 -102 316 -110 344 -110 C352 -110 362 -109 370 -108 C374 -107 376 -109 377 -113 L380 -124 C381 -129 379 -131 375 -133 C368 -136 355 -140 338 -140 C300 -140 270 -126 270 -85 C270 -51 299 -14 343 7 L343 8 L343 94 C327 52 285 -6 181 -6 C87 -6 38 51 38 139 C38 285 167 303 343 307 L343 368 C343 454 311 493 223 493 C173 493 123 477 86 465 C81 463 77 466 76 471 L72 487 C71 492 72 496 78 498 C113 513 172 526 226 526 C333 526 379 475 379 370 L379 370 Z M343 187 L343 277 C192 271 73 264 73 140 C73 72 108 25 186 25 C287 25 343 98 343 187 L343 187 Z " />
<glyph glyph-name="Cacute" unicode="&#x106;" horiz-adv-x="480" d="M310 27 C359 27 397 38 420 49 C426 51 428 48 431 42 L438 26 C440 21 436 18 430 16 C403 5 361 -9 306 -9 C133 -9 52 103 52 350 C52 598 132 710 303 710 C355 710 397 698 423 686 C429 683 433 680 431 674 L425 659 C423 653 420 650 413 653 C390 663 353 674 306 674 C157 674 92 575 92 350 C92 126 157 27 310 27 L310 27 Z M256 761 L314 843 C318 848 320 853 329 853 L360 853 C367 853 369 846 364 841 L285 758 C281 754 279 752 272 752 L260 752 C254 752 253 756 256 761 L256 761 Z " />
<glyph glyph-name="cacute" unicode="&#x107;" horiz-adv-x="386" d="M45 259 C45 434 107 526 237 526 C283 526 319 516 341 505 C346 502 350 499 348 493 L342 478 C340 473 338 470 331 473 C310 484 280 493 240 493 C130 493 82 414 82 259 C82 104 130 25 238 25 C282 25 314 34 335 45 C341 49 345 45 346 41 L351 25 C353 19 350 17 344 14 C322 3 285 -9 239 -9 C107 -9 45 85 45 259 L45 259 Z M204 592 L264 679 C267 684 270 688 279 688 L310 688 C317 688 318 682 313 676 L232 589 C229 585 226 583 221 583 L208 583 C202 583 201 588 204 592 L204 592 Z " />
<glyph glyph-name="Ccircumflex" unicode="&#x108;" horiz-adv-x="480" d="M310 27 C359 27 397 38 420 49 C426 51 428 48 431 42 L438 26 C440 21 436 18 430 16 C403 5 361 -9 306 -9 C133 -9 52 103 52 350 C52 598 132 710 303 710 C355 710 397 698 423 686 C429 683 433 680 431 674 L425 659 C423 653 420 650 413 653 C390 663 353 674 306 674 C157 674 92 575 92 350 C92 126 157 27 310 27 L310 27 Z M364 758 L293 824 L221 758 C217 755 214 752 210 752 L194 752 C187 752 186 757 190 761 L269 846 C273 850 275 853 283 853 L302 853 C311 853 313 850 317 846 L395 761 C399 757 398 752 391 752 L376 752 C371 752 368 754 364 758 L364 758 Z " />
<glyph glyph-name="ccircumflex" unicode="&#x109;" horiz-adv-x="386" d="M45 259 C45 434 107 526 237 526 C283 526 319 516 341 505 C346 502 350 499 348 493 L342 478 C340 473 338 470 331 473 C310 484 280 493 240 493 C130 493 82 414 82 259 C82 104 130 25 238 25 C282 25 314 34 335 45 C341 49 345 45 346 41 L351 25 C353 19 350 17 344 14 C322 3 285 -9 239 -9 C107 -9 45 85 45 259 L45 259 Z M299 589 L227 662 L155 589 C151 585 148 583 144 583 L128 583 C122 583 120 588 124 592 L203 683 C206 687 209 689 217 689 L236 689 C245 689 247 687 251 683 L330 592 C333 588 331 583 326 583 L310 583 C306 583 303 585 299 589 L299 589 Z " />
<glyph glyph-name="Cdotaccent" unicode="&#x10a;" horiz-adv-x="480" d="M310 27 C359 27 397 38 420 49 C426 51 428 48 431 42 L438 26 C440 21 436 18 430 16 C403 5 361 -9 306 -9 C133 -9 52 103 52 350 C52 598 132 710 303 710 C355 710 397 698 423 686 C429 683 433 680 431 674 L425 659 C423 653 420 650 413 653 C390 663 353 674 306 674 C157 674 92 575 92 350 C92 126 157 27 310 27 L310 27 Z M313 816 L313 761 C313 755 311 752 306 752 L280 752 C274 752 272 755 272 761 L272 816 C272 822 274 825 280 825 L306 825 C311 825 313 822 313 816 L313 816 Z " />
<glyph glyph-name="cdotaccent" unicode="&#x10b;" horiz-adv-x="386" d="M45 259 C45 434 107 526 237 526 C283 526 319 516 341 505 C346 502 350 499 348 493 L342 478 C340 473 338 470 331 473 C310 484 280 493 240 493 C130 493 82 414 82 259 C82 104 130 25 238 25 C282 25 314 34 335 45 C341 49 345 45 346 41 L351 25 C353 19 350 17 344 14 C322 3 285 -9 239 -9 C107 -9 45 85 45 259 L45 259 Z M251 648 L251 591 C251 586 249 583 244 583 L218 583 C212 583 210 586 210 591 L210 648 C210 654 212 657 218 657 L244 657 C249 657 251 654 251 648 L251 648 Z " />
<glyph glyph-name="Ccaron" unicode="&#x10c;" horiz-adv-x="480" d="M310 27 C359 27 397 38 420 49 C426 51 428 48 431 42 L438 26 C440 21 436 18 430 16 C403 5 361 -9 306 -9 C133 -9 52 103 52 350 C52 598 132 710 303 710 C355 710 397 698 423 686 C429 683 433 680 431 674 L425 659 C423 653 420 650 413 653 C390 663 353 674 306 674 C157 674 92 575 92 350 C92 126 157 27 310 27 L310 27 Z M363 847 C368 851 370 853 375 853 L391 853 C397 853 399 848 395 844 L317 759 C313 755 311 752 302 752 L283 752 C275 752 272 755 269 759 L190 844 C186 848 188 853 194 853 L210 853 C215 853 217 850 221 847 L293 781 L363 847 L363 847 Z " />
<glyph glyph-name="ccaron" unicode="&#x10d;" horiz-adv-x="386" d="M45 259 C45 434 107 526 237 526 C283 526 319 516 341 505 C346 502 350 499 348 493 L342 478 C340 473 338 470 331 473 C310 484 280 493 240 493 C130 493 82 414 82 259 C82 104 130 25 238 25 C282 25 314 34 335 45 C341 49 345 45 346 41 L351 25 C353 19 350 17 344 14 C322 3 285 -9 239 -9 C107 -9 45 85 45 259 L45 259 Z M301 684 C305 688 308 689 312 689 L328 689 C333 689 335 685 332 681 L253 590 C249 586 247 583 238 583 L219 583 C211 583 209 586 205 590 L126 681 C122 685 124 689 130 689 L146 689 C150 689 153 688 157 684 L229 611 L301 684 L301 684 Z " />
<glyph glyph-name="Dcaron" unicode="&#x10e;" horiz-adv-x="549" d="M222 0 L87 0 C81 0 78 3 78 8 L78 692 C78 698 81 701 87 701 L221 701 C395 701 498 623 498 353 C498 77 395 0 222 0 L222 0 Z M221 665 L116 665 L116 36 L222 36 C371 36 458 100 458 353 C458 601 371 665 221 665 L221 665 Z M344 847 C349 851 351 853 356 853 L372 853 C378 853 380 848 376 844 L298 759 C294 755 292 752 283 752 L264 752 C256 752 253 755 250 759 L171 844 C167 848 169 853 175 853 L191 853 C196 853 198 850 202 847 L274 781 L344 847 L344 847 Z " />
<glyph glyph-name="dcaron" unicode="&#x10f;" horiz-adv-x="544" d="M385 259 C385 413 330 493 230 493 C130 493 82 412 82 259 C82 106 130 24 230 24 C330 24 385 104 385 259 L385 259 Z M384 8 L384 104 C362 34 306 -9 227 -9 C106 -9 45 86 45 259 C45 431 106 526 227 526 C306 526 362 482 384 413 L384 692 C384 698 386 701 392 701 L412 701 C418 701 421 698 421 692 L421 8 C421 3 418 0 412 0 L392 0 C386 0 384 3 384 8 L384 8 Z M543 636 L517 546 C516 542 513 539 508 539 L500 539 C494 539 493 543 494 548 L513 636 L497 636 C491 636 488 639 488 645 L488 705 C488 711 491 714 497 714 L536 714 C542 714 545 711 545 705 L545 647 C545 642 545 641 543 636 L543 636 Z " />
<glyph glyph-name="Dcroat" unicode="&#x110;" horiz-adv-x="551" d="M224 0 L89 0 C83 0 80 3 80 8 L80 336 L29 336 C24 336 21 338 21 344 L21 358 C21 364 24 366 29 366 L80 366 L80 692 C80 698 83 701 89 701 L223 701 C397 701 500 623 500 350 C500 77 398 0 224 0 L224 0 Z M245 336 L118 336 L118 36 L224 36 C373 36 460 100 460 350 C460 601 373 665 223 665 L118 665 L118 366 L245 366 C250 366 253 364 253 358 L253 344 C253 338 250 336 245 336 L245 336 Z " />
<glyph glyph-name="dcroat" unicode="&#x111;" horiz-adv-x="492" d="M384 8 L384 104 C362 34 306 -9 227 -9 C106 -9 45 86 45 259 C45 431 106 526 227 526 C306 526 362 482 384 413 L384 596 L256 596 C251 596 248 598 248 604 L248 615 C248 620 251 622 256 622 L384 622 L384 692 C384 698 386 701 392 701 L412 701 C418 701 421 698 421 692 L421 622 L467 622 C473 622 475 620 475 615 L475 604 C475 598 473 596 467 596 L421 596 L421 8 C421 3 418 0 412 0 L392 0 C386 0 384 3 384 8 L384 8 Z M385 259 C385 413 330 493 230 493 C130 493 82 412 82 259 C82 106 130 24 230 24 C330 24 385 104 385 259 L385 259 Z " />
<glyph glyph-name="Emacron" unicode="&#x112;" horiz-adv-x="443" d="M377 341 L116 341 L116 36 L387 36 C393 36 396 33 396 28 L396 9 C396 3 393 0 387 0 L87 0 C81 0 78 3 78 8 L78 692 C78 698 81 701 87 701 L385 701 C391 701 394 698 394 692 L394 673 C394 668 391 665 385 665 L116 665 L116 377 L377 377 C383 377 386 374 386 368 L386 350 C386 344 383 341 377 341 L377 341 Z M347 758 L135 758 C129 758 127 761 127 766 L127 780 C127 785 129 787 135 787 L347 787 C352 787 354 785 354 780 L354 766 C354 761 352 758 347 758 L347 758 Z " />
<glyph glyph-name="emacron" unicode="&#x113;" horiz-adv-x="444" d="M252 23 C298 23 335 28 365 46 C369 49 373 46 375 40 L380 26 C382 21 379 18 373 15 C343 1 298 -10 250 -10 C109 -10 45 83 45 259 C45 432 106 526 229 526 C351 526 401 427 401 282 L401 249 C401 243 398 241 393 241 L82 241 C85 98 136 23 252 23 L252 23 Z M229 494 C130 494 84 418 82 273 L365 273 L365 283 C365 409 329 494 229 494 L229 494 Z M332 591 L124 591 C118 591 115 594 115 599 L115 612 C115 617 118 620 124 620 L332 620 C337 620 340 617 340 612 L340 599 C340 594 337 591 332 591 L332 591 Z " />
<glyph glyph-name="Ebreve" unicode="&#x114;" horiz-adv-x="443" d="M377 341 L116 341 L116 36 L387 36 C393 36 396 33 396 28 L396 9 C396 3 393 0 387 0 L87 0 C81 0 78 3 78 8 L78 692 C78 698 81 701 87 701 L385 701 C391 701 394 698 394 692 L394 673 C394 668 391 665 385 665 L116 665 L116 377 L377 377 C383 377 386 374 386 368 L386 350 C386 344 383 341 377 341 L377 341 Z M250 748 C178 748 145 792 143 837 C143 842 145 844 150 844 L164 844 C169 844 171 843 172 837 C179 805 197 777 250 777 C303 777 322 805 327 837 C328 843 330 844 336 844 L349 844 C354 844 357 842 357 837 C355 792 321 748 250 748 L250 748 Z " />
<glyph glyph-name="ebreve" unicode="&#x115;" horiz-adv-x="444" d="M252 23 C298 23 335 28 365 46 C369 49 373 46 375 40 L380 26 C382 21 379 18 373 15 C343 1 298 -10 250 -10 C109 -10 45 83 45 259 C45 432 106 526 229 526 C351 526 401 427 401 282 L401 249 C401 243 398 241 393 241 L82 241 C85 98 136 23 252 23 L252 23 Z M229 494 C130 494 84 418 82 273 L365 273 L365 283 C365 409 329 494 229 494 L229 494 Z M228 580 C154 580 123 627 121 672 C121 677 123 680 128 680 L142 680 C147 680 149 678 150 673 C156 640 173 610 228 610 C283 610 300 640 305 673 C306 678 308 680 314 680 L327 680 C332 680 335 677 335 672 C333 627 301 580 228 580 L228 580 Z " />
<glyph glyph-name="Edotaccent" unicode="&#x116;" horiz-adv-x="443" d="M377 341 L116 341 L116 36 L387 36 C393 36 396 33 396 28 L396 9 C396 3 393 0 387 0 L87 0 C81 0 78 3 78 8 L78 692 C78 698 81 701 87 701 L385 701 C391 701 394 698 394 692 L394 673 C394 668 391 665 385 665 L116 665 L116 377 L377 377 C383 377 386 374 386 368 L386 350 C386 344 383 341 377 341 L377 341 Z M275 816 L275 761 C275 755 273 752 268 752 L242 752 C236 752 234 755 234 761 L234 816 C234 822 236 825 242 825 L268 825 C273 825 275 822 275 816 L275 816 Z " />
<glyph glyph-name="edotaccent" unicode="&#x117;" horiz-adv-x="444" d="M252 23 C298 23 335 28 365 46 C369 49 373 46 375 40 L380 26 C382 21 379 18 373 15 C343 1 298 -10 250 -10 C109 -10 45 83 45 259 C45 432 106 526 229 526 C351 526 401 427 401 282 L401 249 C401 243 398 241 393 241 L82 241 C85 98 136 23 252 23 L252 23 Z M229 494 C130 494 84 418 82 273 L365 273 L365 283 C365 409 329 494 229 494 L229 494 Z M248 648 L248 591 C248 586 246 583 241 583 L215 583 C209 583 207 586 207 591 L207 648 C207 654 209 657 215 657 L241 657 C246 657 248 654 248 648 L248 648 Z " />
<glyph glyph-name="Eogonek" unicode="&#x118;" horiz-adv-x="443" d="M377 341 L116 341 L116 36 L387 36 C393 36 396 33 396 28 L396 9 C396 3 393 0 387 0 L361 0 C318 -24 297 -52 297 -83 C297 -107 315 -116 345 -116 C353 -116 365 -114 373 -113 C377 -112 380 -113 381 -118 L383 -130 C384 -135 382 -137 378 -139 C371 -143 355 -147 338 -147 C299 -147 265 -132 265 -88 C265 -57 290 -22 328 0 L87 0 C81 0 78 3 78 8 L78 692 C78 698 81 701 87 701 L385 701 C391 701 394 698 394 692 L394 673 C394 668 391 665 385 665 L116 665 L116 377 L377 377 C383 377 386 374 386 368 L386 350 C386 344 383 341 377 341 L377 341 Z " />
<glyph glyph-name="eogonek" unicode="&#x119;" horiz-adv-x="444" d="M252 23 C298 23 335 28 365 46 C369 49 373 46 375 40 L380 26 C382 21 379 18 373 15 C356 7 334 0 310 -4 C275 -27 257 -53 257 -79 C257 -102 273 -110 301 -110 C309 -110 319 -109 327 -108 C331 -107 333 -109 334 -113 L337 -124 C338 -129 336 -131 332 -133 C325 -136 312 -140 295 -140 C257 -140 227 -126 227 -85 C227 -58 244 -31 273 -9 C265 -10 257 -10 250 -10 C109 -10 45 83 45 259 C45 432 106 526 229 526 C351 526 401 427 401 282 L401 249 C401 243 398 241 393 241 L82 241 C85 98 136 23 252 23 L252 23 Z M229 494 C130 494 84 418 82 273 L365 273 L365 283 C365 409 329 494 229 494 L229 494 Z " />
<glyph glyph-name="Ecaron" unicode="&#x11a;" horiz-adv-x="443" d="M377 341 L116 341 L116 36 L387 36 C393 36 396 33 396 28 L396 9 C396 3 393 0 387 0 L87 0 C81 0 78 3 78 8 L78 692 C78 698 81 701 87 701 L385 701 C391 701 394 698 394 692 L394 673 C394 668 391 665 385 665 L116 665 L116 377 L377 377 C383 377 386 374 386 368 L386 350 C386 344 383 341 377 341 L377 341 Z M316 847 C321 851 323 853 328 853 L344 853 C350 853 352 848 348 844 L270 759 C266 755 264 752 255 752 L236 752 C228 752 225 755 222 759 L143 844 C139 848 141 853 147 853 L163 853 C168 853 170 850 174 847 L246 781 L316 847 L316 847 Z " />
<glyph glyph-name="ecaron" unicode="&#x11b;" horiz-adv-x="444" d="M252 23 C298 23 335 28 365 46 C369 49 373 46 375 40 L380 26 C382 21 379 18 373 15 C343 1 298 -10 250 -10 C109 -10 45 83 45 259 C45 432 106 526 229 526 C351 526 401 427 401 282 L401 249 C401 243 398 241 393 241 L82 241 C85 98 136 23 252 23 L252 23 Z M229 494 C130 494 84 418 82 273 L365 273 L365 283 C365 409 329 494 229 494 L229 494 Z M300 684 C304 688 307 689 311 689 L327 689 C332 689 334 685 331 681 L252 590 C248 586 246 583 237 583 L218 583 C210 583 208 586 204 590 L125 681 C121 685 123 689 129 689 L145 689 C149 689 152 688 156 684 L228 611 L300 684 L300 684 Z " />
<glyph glyph-name="Gcircumflex" unicode="&#x11c;" horiz-adv-x="539" d="M283 383 L464 383 C469 383 473 381 473 375 L473 39 C473 29 467 24 461 20 C434 6 384 -9 317 -9 C135 -9 52 97 52 351 C52 603 134 710 317 710 C371 710 418 697 445 685 C451 682 455 679 453 673 L447 657 C445 651 442 648 435 651 C410 660 369 674 318 674 C158 674 92 579 92 351 C92 121 159 27 318 27 C368 27 410 38 435 49 L435 348 L283 348 C276 348 274 351 274 357 L274 375 C274 381 276 383 283 383 L283 383 Z M373 758 L302 824 L230 758 C226 755 223 752 219 752 L203 752 C196 752 195 757 199 761 L278 846 C282 850 284 853 292 853 L311 853 C320 853 322 850 326 846 L404 761 C408 757 407 752 400 752 L385 752 C380 752 377 754 373 758 L373 758 Z " />
<glyph glyph-name="gcircumflex" unicode="&#x11d;" horiz-adv-x="472" d="M368 286 C368 420 315 494 221 494 C127 494 82 416 82 282 C82 149 127 71 221 71 C315 71 368 151 368 286 L368 286 Z M403 508 L403 61 C403 -64 338 -120 224 -120 C174 -120 125 -107 90 -92 C84 -90 80 -87 82 -82 L88 -66 C89 -62 92 -59 98 -61 C133 -76 179 -87 223 -87 C317 -87 367 -43 367 63 L367 148 C346 82 292 39 218 39 C105 39 45 130 45 282 C45 436 103 526 217 526 C291 526 346 483 367 419 L367 508 C367 514 370 516 376 516 L395 516 C400 516 403 514 403 508 L403 508 Z M304 589 L232 662 L160 589 C156 585 153 583 149 583 L133 583 C127 583 125 588 129 592 L208 683 C211 687 214 689 222 689 L241 689 C250 689 252 687 256 683 L335 592 C338 588 336 583 331 583 L315 583 C311 583 308 585 304 589 L304 589 Z " />
<glyph glyph-name="Gbreve" unicode="&#x11e;" horiz-adv-x="539" d="M283 383 L464 383 C469 383 473 381 473 375 L473 39 C473 29 467 24 461 20 C434 6 384 -9 317 -9 C135 -9 52 97 52 351 C52 603 134 710 317 710 C371 710 418 697 445 685 C451 682 455 679 453 673 L447 657 C445 651 442 648 435 651 C410 660 369 674 318 674 C158 674 92 579 92 351 C92 121 159 27 318 27 C368 27 410 38 435 49 L435 348 L283 348 C276 348 274 351 274 357 L274 375 C274 381 276 383 283 383 L283 383 Z M303 748 C231 748 198 792 196 837 C196 842 198 844 203 844 L217 844 C222 844 224 843 225 837 C232 805 250 777 303 777 C356 777 375 805 380 837 C381 843 383 844 389 844 L402 844 C407 844 410 842 410 837 C408 792 374 748 303 748 L303 748 Z " />
<glyph glyph-name="gbreve" unicode="&#x11f;" horiz-adv-x="472" d="M368 286 C368 420 315 494 221 494 C127 494 82 416 82 282 C82 149 127 71 221 71 C315 71 368 151 368 286 L368 286 Z M403 508 L403 61 C403 -64 338 -120 224 -120 C174 -120 125 -107 90 -92 C84 -90 80 -87 82 -82 L88 -66 C89 -62 92 -59 98 -61 C133 -76 179 -87 223 -87 C317 -87 367 -43 367 63 L367 148 C346 82 292 39 218 39 C105 39 45 130 45 282 C45 436 103 526 217 526 C291 526 346 483 367 419 L367 508 C367 514 370 516 376 516 L395 516 C400 516 403 514 403 508 L403 508 Z M232 580 C158 580 127 627 125 672 C125 677 127 680 132 680 L146 680 C151 680 153 678 154 673 C160 640 177 610 232 610 C287 610 304 640 309 673 C310 678 312 680 318 680 L331 680 C336 680 339 677 339 672 C337 627 305 580 232 580 L232 580 Z " />
<glyph glyph-name="Gdotaccent" unicode="&#x120;" horiz-adv-x="539" d="M283 383 L464 383 C469 383 473 381 473 375 L473 39 C473 29 467 24 461 20 C434 6 384 -9 317 -9 C135 -9 52 97 52 351 C52 603 134 710 317 710 C371 710 418 697 445 685 C451 682 455 679 453 673 L447 657 C445 651 442 648 435 651 C410 660 369 674 318 674 C158 674 92 579 92 351 C92 121 159 27 318 27 C368 27 410 38 435 49 L435 348 L283 348 C276 348 274 351 274 357 L274 375 C274 381 276 383 283 383 L283 383 Z M328 816 L328 761 C328 755 326 752 321 752 L295 752 C289 752 287 755 287 761 L287 816 C287 822 289 825 295 825 L321 825 C326 825 328 822 328 816 L328 816 Z " />
<glyph glyph-name="gdotaccent" unicode="&#x121;" horiz-adv-x="472" d="M368 286 C368 420 315 494 221 494 C127 494 82 416 82 282 C82 149 127 71 221 71 C315 71 368 151 368 286 L368 286 Z M403 508 L403 61 C403 -64 338 -120 224 -120 C174 -120 125 -107 90 -92 C84 -90 80 -87 82 -82 L88 -66 C89 -62 92 -59 98 -61 C133 -76 179 -87 223 -87 C317 -87 367 -43 367 63 L367 148 C346 82 292 39 218 39 C105 39 45 130 45 282 C45 436 103 526 217 526 C291 526 346 483 367 419 L367 508 C367 514 370 516 376 516 L395 516 C400 516 403 514 403 508 L403 508 Z M256 648 L256 591 C256 586 254 583 249 583 L223 583 C217 583 215 586 215 591 L215 648 C215 654 217 657 223 657 L249 657 C254 657 256 654 256 648 L256 648 Z " />
<glyph glyph-name="Gcommaaccent" unicode="&#x122;" horiz-adv-x="539" d="M283 383 L464 383 C469 383 473 381 473 375 L473 39 C473 29 467 24 461 20 C434 6 384 -9 317 -9 C135 -9 52 97 52 351 C52 603 134 710 317 710 C371 710 418 697 445 685 C451 682 455 679 453 673 L447 657 C445 651 442 648 435 651 C410 660 369 674 318 674 C158 674 92 579 92 351 C92 121 159 27 318 27 C368 27 410 38 435 49 L435 348 L283 348 C276 348 274 351 274 357 L274 375 C274 381 276 383 283 383 L283 383 Z M349 -124 L324 -206 C323 -210 320 -213 315 -213 L308 -213 C303 -213 302 -209 303 -204 L320 -123 L303 -123 C297 -123 295 -120 295 -115 L295 -62 C295 -57 297 -54 303 -54 L342 -54 C348 -54 351 -57 351 -62 L351 -113 C351 -118 351 -119 349 -124 L349 -124 Z " />
<glyph glyph-name="gcommaaccent" unicode="&#x123;" horiz-adv-x="472" d="M368 286 C368 420 315 494 221 494 C127 494 82 416 82 282 C82 149 127 71 221 71 C315 71 368 151 368 286 L368 286 Z M403 508 L403 61 C403 -64 338 -120 224 -120 C174 -120 125 -107 90 -92 C84 -90 80 -87 82 -82 L88 -66 C89 -62 92 -59 98 -61 C133 -76 179 -87 223 -87 C317 -87 367 -43 367 63 L367 148 C346 82 292 39 218 39 C105 39 45 130 45 282 C45 436 103 526 217 526 C291 526 346 483 367 419 L367 508 C367 514 370 516 376 516 L395 516 C400 516 403 514 403 508 L403 508 Z M207 647 L229 722 C230 726 233 729 238 729 L245 729 C250 729 251 725 250 721 L235 646 L251 646 C257 646 260 644 260 638 L260 587 C260 581 257 579 251 579 L213 579 C208 579 205 581 205 587 L205 636 C205 641 205 642 207 647 L207 647 Z " />
<glyph glyph-name="Hcircumflex" unicode="&#x124;" horiz-adv-x="563" d="M446 8 L446 341 L116 341 L116 8 C116 3 113 0 108 0 L87 0 C81 0 78 3 78 8 L78 692 C78 698 81 701 87 701 L108 701 C113 701 116 698 116 692 L116 377 L446 377 L446 692 C446 698 449 701 455 701 L476 701 C482 701 485 698 485 692 L485 8 C485 3 482 0 476 0 L455 0 C449 0 446 3 446 8 L446 8 Z M352 758 L281 824 L209 758 C205 755 202 752 198 752 L182 752 C175 752 174 757 178 761 L257 846 C261 850 263 853 271 853 L290 853 C299 853 301 850 305 846 L383 761 C387 757 386 752 379 752 L364 752 C359 752 356 754 352 758 L352 758 Z " />
<glyph glyph-name="hcircumflex" unicode="&#x125;" horiz-adv-x="481" d="M415 359 L415 8 C415 3 412 0 407 0 L388 0 C381 0 379 3 379 8 L379 356 C379 440 346 492 261 492 C172 492 108 426 108 331 L108 9 C108 3 105 0 100 0 L80 0 C74 0 71 3 71 8 L71 692 C71 698 74 701 80 701 L100 701 C105 701 108 698 108 692 L108 425 C125 470 172 526 266 526 C368 526 415 460 415 359 L415 359 Z M312 758 L241 824 L169 758 C165 755 162 752 158 752 L142 752 C135 752 134 757 138 761 L217 846 C221 850 223 853 231 853 L250 853 C259 853 261 850 265 846 L343 761 C347 757 346 752 339 752 L324 752 C319 752 316 754 312 758 L312 758 Z " />
<glyph glyph-name="Hbar" unicode="&#x126;" horiz-adv-x="553" d="M446 8 L446 341 L116 341 L116 8 C116 3 113 0 108 0 L87 0 C81 0 78 3 78 8 L78 546 L30 546 C24 546 22 549 22 555 L22 565 C22 570 24 573 30 573 L78 573 L78 692 C78 698 81 701 87 701 L108 701 C113 701 116 698 116 692 L116 573 L446 573 L446 692 C446 698 449 701 455 701 L476 701 C482 701 485 698 485 692 L485 573 L532 573 C538 573 541 570 541 565 L541 555 C541 549 538 546 532 546 L485 546 L485 8 C485 3 482 0 476 0 L455 0 C449 0 446 3 446 8 L446 8 Z M116 377 L446 377 L446 546 L116 546 L116 377 L116 377 Z " />
<glyph glyph-name="hbar" unicode="&#x127;" horiz-adv-x="481" d="M415 359 L415 8 C415 3 412 0 407 0 L388 0 C381 0 379 3 379 8 L379 356 C379 440 346 492 261 492 C172 492 108 426 108 331 L108 8 C108 3 105 0 100 0 L80 0 C74 0 71 3 71 8 L71 596 L25 596 C19 596 17 598 17 604 L17 615 C17 620 19 622 25 622 L71 622 L71 692 C71 698 74 701 80 701 L100 701 C105 701 108 698 108 692 L108 622 L236 622 C241 622 244 620 244 615 L244 604 C244 598 241 596 236 596 L108 596 L108 425 C125 470 172 526 266 526 C368 526 415 460 415 359 L415 359 Z " />
<glyph glyph-name="Itilde" unicode="&#x128;" horiz-adv-x="205" d="M84 8 L84 692 C84 698 86 701 92 701 L113 701 C119 701 122 698 122 692 L122 8 C122 3 119 0 113 0 L92 0 C86 0 84 3 84 8 L84 8 Z M228 810 C228 775 207 748 170 748 C149 748 130 756 108 767 L82 782 C67 790 54 794 42 794 C24 794 11 786 9 770 L8 760 C7 753 3 751 -3 751 L-13 751 C-19 751 -22 753 -22 761 C-22 797 -1 824 36 824 C57 824 76 816 97 805 L122 790 C138 781 153 776 166 776 C183 776 194 784 197 802 L198 812 C199 818 202 821 209 821 L219 821 C225 821 228 818 228 810 L228 810 Z " />
<glyph glyph-name="itilde" unicode="&#x129;" horiz-adv-x="184" d="M109 508 L109 8 C109 3 107 0 102 0 L82 0 C76 0 73 3 73 8 L73 508 C73 514 76 516 82 516 L102 516 C107 516 109 514 109 508 L109 508 Z M211 641 C211 606 192 582 157 582 C136 582 119 588 98 600 L73 614 C59 623 46 626 36 626 C19 626 8 616 5 603 L3 593 C2 587 -1 584 -7 584 L-17 584 C-23 584 -26 587 -26 595 C-26 629 -7 655 28 655 C49 655 68 647 88 636 L112 622 C127 613 140 610 151 610 C168 610 179 619 181 634 L182 643 C183 650 187 651 192 651 L203 651 C209 651 211 649 211 641 L211 641 Z " />
<glyph glyph-name="Imacron" unicode="&#x12a;" horiz-adv-x="205" d="M84 8 L84 692 C84 698 86 701 92 701 L113 701 C119 701 122 698 122 692 L122 8 C122 3 119 0 113 0 L92 0 C86 0 84 3 84 8 L84 8 Z M209 758 L-3 758 C-9 758 -11 761 -11 766 L-11 780 C-11 785 -9 787 -3 787 L209 787 C214 787 216 785 216 780 L216 766 C216 761 214 758 209 758 L209 758 Z " />
<glyph glyph-name="imacron" unicode="&#x12b;" horiz-adv-x="184" d="M109 508 L109 8 C109 3 107 0 102 0 L82 0 C76 0 73 3 73 8 L73 508 C73 514 76 516 82 516 L102 516 C107 516 109 514 109 508 L109 508 Z M197 591 L-11 591 C-17 591 -20 594 -20 599 L-20 612 C-20 617 -17 620 -11 620 L197 620 C202 620 205 617 205 612 L205 599 C205 594 202 591 197 591 L197 591 Z " />
<glyph glyph-name="Ibreve" unicode="&#x12c;" horiz-adv-x="205" d="M84 8 L84 692 C84 698 86 701 92 701 L113 701 C119 701 122 698 122 692 L122 8 C122 3 119 0 113 0 L92 0 C86 0 84 3 84 8 L84 8 Z M103 748 C31 748 -2 792 -4 837 C-4 842 -2 844 3 844 L17 844 C22 844 24 843 25 837 C32 805 50 777 103 777 C156 777 175 805 180 837 C181 843 183 844 189 844 L202 844 C207 844 210 842 210 837 C208 792 174 748 103 748 L103 748 Z " />
<glyph glyph-name="ibreve" unicode="&#x12d;" horiz-adv-x="184" d="M109 508 L109 8 C109 3 107 0 102 0 L82 0 C76 0 73 3 73 8 L73 508 C73 514 76 516 82 516 L102 516 C107 516 109 514 109 508 L109 508 Z M93 580 C19 580 -12 627 -14 672 C-14 677 -12 680 -7 680 L7 680 C12 680 14 678 15 673 C21 640 38 610 93 610 C148 610 165 640 170 673 C171 678 173 680 179 680 L192 680 C197 680 200 677 200 672 C198 627 166 580 93 580 L93 580 Z " />
<glyph glyph-name="Iogonek" unicode="&#x12e;" horiz-adv-x="205" d="M84 8 L84 692 C84 698 86 701 92 701 L113 701 C119 701 122 698 122 692 L122 8 C122 3 119 0 113 0 L106 0 C63 -24 42 -52 42 -83 C42 -107 60 -116 90 -116 C98 -116 110 -114 118 -113 C122 -112 125 -113 126 -118 L128 -130 C129 -135 127 -137 123 -139 C116 -143 100 -147 83 -147 C44 -147 10 -132 10 -88 C10 -54 39 -16 84 5 L84 8 L84 8 Z " />
<glyph glyph-name="iogonek" unicode="&#x12f;" horiz-adv-x="184" d="M109 508 L109 8 C109 3 107 0 102 0 L91 0 C51 -24 31 -51 31 -79 C31 -102 47 -110 75 -110 C83 -110 93 -109 101 -108 C105 -107 107 -109 108 -113 L111 -124 C112 -129 110 -131 106 -133 C99 -136 86 -140 69 -140 C31 -140 1 -126 1 -85 C1 -51 30 -15 73 6 L73 8 L73 508 C73 514 76 516 82 516 L102 516 C107 516 109 514 109 508 L109 508 Z M111 681 L111 603 C111 598 109 595 103 595 L81 595 C75 595 72 598 72 603 L72 681 C72 686 75 689 81 689 L103 689 C109 689 111 686 111 681 L111 681 Z " />
<glyph glyph-name="Idotaccent" unicode="&#x130;" horiz-adv-x="205" d="M84 8 L84 692 C84 698 86 701 92 701 L113 701 C119 701 122 698 122 692 L122 8 C122 3 119 0 113 0 L92 0 C86 0 84 3 84 8 L84 8 Z M123 816 L123 761 C123 755 121 752 116 752 L90 752 C84 752 82 755 82 761 L82 816 C82 822 84 825 90 825 L116 825 C121 825 123 822 123 816 L123 816 Z " />
<glyph glyph-name="dotlessi" unicode="&#x131;" horiz-adv-x="184" d="M109 508 L109 8 C109 3 107 0 102 0 L82 0 C76 0 73 3 73 8 L73 508 C73 514 76 516 82 516 L102 516 C107 516 109 514 109 508 L109 508 Z " />
<glyph glyph-name="IJ" unicode="&#x132;" horiz-adv-x="561" d="M84 8 L84 692 C84 698 86 701 92 701 L113 701 C119 701 122 698 122 692 L122 8 C122 3 119 0 113 0 L92 0 C86 0 84 3 84 8 L84 8 Z M447 171 L447 692 C447 698 449 701 454 701 L476 701 C482 701 484 698 484 692 L484 168 C484 48 439 -8 335 -8 C294 -8 255 3 232 16 C225 19 222 21 224 28 L229 45 C231 51 234 54 240 50 C261 38 294 28 334 28 C414 28 447 71 447 171 L447 171 Z " />
<glyph glyph-name="ij" unicode="&#x133;" horiz-adv-x="374" d="M109 508 L109 8 C109 3 107 0 102 0 L82 0 C76 0 73 3 73 8 L73 508 C73 514 76 516 82 516 L102 516 C107 516 109 514 109 508 L109 508 Z M111 681 L111 603 C111 598 109 595 103 595 L81 595 C75 595 72 598 72 603 L72 681 C72 686 75 689 81 689 L103 689 C109 689 111 686 111 681 L111 681 Z M265 106 L265 508 C265 514 268 516 273 516 L292 516 C298 516 301 514 301 508 L301 103 C301 31 281 -6 219 -6 C207 -6 194 -4 183 -2 C178 -1 175 3 176 9 L176 25 C177 30 180 32 185 31 C195 29 207 28 215 28 C253 28 265 53 265 106 L265 106 Z M302 681 L302 603 C302 598 299 595 293 595 L272 595 C267 595 264 598 264 603 L264 681 C264 686 267 689 272 689 L293 689 C299 689 302 686 302 681 L302 681 Z " />
<glyph glyph-name="Jcircumflex" unicode="&#x134;" horiz-adv-x="363" d="M250 171 L250 692 C250 698 252 701 257 701 L279 701 C285 701 287 698 287 692 L287 168 C287 48 242 -8 138 -8 C97 -8 58 3 35 16 C28 19 25 21 27 28 L32 45 C34 51 37 54 43 50 C64 38 97 28 137 28 C217 28 250 71 250 171 L250 171 Z M253 758 L182 824 L110 758 C106 755 103 752 99 752 L83 752 C76 752 75 757 79 761 L158 846 C162 850 164 853 172 853 L191 853 C200 853 202 850 206 846 L284 761 C288 757 287 752 280 752 L265 752 C260 752 257 754 253 758 L253 758 Z " />
<glyph glyph-name="jcircumflex" unicode="&#x135;" horiz-adv-x="191" d="M81 -3 L81 508 C81 514 84 516 90 516 L109 516 C114 516 117 514 117 508 L117 -6 C117 -77 97 -114 35 -114 C23 -114 10 -113 0 -111 C-6 -109 -8 -106 -8 -100 L-7 -84 C-7 -78 -3 -77 3 -78 C11 -80 22 -81 32 -81 C70 -81 81 -55 81 -3 L81 -3 Z M169 589 L97 662 L25 589 C21 585 18 583 14 583 L-2 583 C-8 583 -10 588 -6 592 L73 683 C76 687 79 689 87 689 L106 689 C115 689 117 687 121 683 L200 592 C203 588 201 583 196 583 L180 583 C176 583 173 585 169 589 L169 589 Z " />
<glyph glyph-name="Kcommaaccent" unicode="&#x136;" horiz-adv-x="477" d="M116 387 L399 694 C403 698 405 701 412 701 L440 701 C448 701 449 695 445 690 L146 367 L453 11 C457 6 455 0 449 0 L419 0 C413 0 410 3 406 7 L116 344 L116 8 C116 3 113 0 108 0 L87 0 C81 0 78 3 78 8 L78 692 C78 698 81 701 87 701 L108 701 C113 701 116 698 116 692 L116 387 L116 387 Z M289 -124 L264 -206 C263 -210 260 -213 255 -213 L248 -213 C243 -213 242 -209 243 -204 L260 -123 L243 -123 C237 -123 235 -120 235 -115 L235 -62 C235 -57 237 -54 243 -54 L282 -54 C288 -54 291 -57 291 -62 L291 -113 C291 -118 291 -119 289 -124 L289 -124 Z " />
<glyph glyph-name="kcommaaccent" unicode="&#x137;" horiz-adv-x="393" d="M368 0 L342 0 C335 0 331 2 327 7 L108 266 L108 8 C108 3 105 0 100 0 L80 0 C74 0 71 3 71 8 L71 692 C71 698 74 701 80 701 L100 701 C105 701 108 698 108 692 L108 308 L319 511 C323 514 327 516 333 516 L361 516 C368 516 370 510 364 505 L134 289 L373 11 C378 6 375 0 368 0 L368 0 Z M245 -122 L223 -197 C222 -201 219 -204 214 -204 L207 -204 C202 -204 201 -200 202 -196 L217 -121 L201 -121 C195 -121 192 -119 192 -113 L192 -62 C192 -56 195 -54 201 -54 L239 -54 C244 -54 247 -56 247 -62 L247 -111 C247 -116 247 -117 245 -122 L245 -122 Z " />
<glyph glyph-name="kgreenlandic" unicode="&#x138;" horiz-adv-x="390" d="M366 0 L340 0 C332 0 330 3 326 7 L105 266 L105 8 C105 3 103 0 97 0 L78 0 C72 0 69 3 69 8 L69 508 C69 514 72 516 78 516 L97 516 C103 516 105 514 105 508 L105 308 L317 511 C321 514 324 516 331 516 L358 516 C365 516 368 510 362 505 L132 289 L371 11 C376 6 373 0 366 0 L366 0 Z " />
<glyph glyph-name="Lacute" unicode="&#x139;" horiz-adv-x="422" d="M122 692 L122 36 L382 36 C388 36 392 33 392 27 L392 8 C392 3 388 0 382 0 L93 0 C87 0 84 3 84 8 L84 692 C84 698 87 701 93 701 L114 701 C119 701 122 698 122 692 L122 692 Z M96 761 L154 843 C158 848 160 853 169 853 L200 853 C207 853 209 846 204 841 L125 758 C121 754 119 752 112 752 L100 752 C94 752 93 756 96 761 L96 761 Z " />
<glyph glyph-name="lacute" unicode="&#x13a;" horiz-adv-x="184" d="M109 692 L109 8 C109 3 107 0 102 0 L82 0 C76 0 73 3 73 8 L73 692 C73 698 76 701 82 701 L102 701 C107 701 109 698 109 692 L109 692 Z M80 761 L138 843 C142 848 144 853 153 853 L184 853 C191 853 193 846 188 841 L109 758 C105 754 103 752 96 752 L84 752 C78 752 77 756 80 761 L80 761 Z " />
<glyph glyph-name="Lcommaaccent" unicode="&#x13b;" horiz-adv-x="422" d="M116 692 L116 36 L376 36 C382 36 386 33 386 27 L386 8 C386 3 382 0 376 0 L87 0 C81 0 78 3 78 8 L78 692 C78 698 81 701 87 701 L108 701 C113 701 116 698 116 692 L116 692 Z M247 -124 L222 -206 C221 -210 218 -213 213 -213 L206 -213 C201 -213 200 -209 201 -204 L218 -123 L201 -123 C195 -123 193 -120 193 -115 L193 -62 C193 -57 195 -54 201 -54 L240 -54 C246 -54 249 -57 249 -62 L249 -113 C249 -118 249 -119 247 -124 L247 -124 Z " />
<glyph glyph-name="lcommaaccent" unicode="&#x13c;" horiz-adv-x="184" d="M110 692 L110 8 C110 3 108 0 103 0 L83 0 C77 0 74 3 74 8 L74 692 C74 698 77 701 83 701 L103 701 C108 701 110 698 110 692 L110 692 Z M117 -122 L95 -197 C94 -201 91 -204 86 -204 L79 -204 C74 -204 73 -200 74 -196 L89 -121 L73 -121 C67 -121 64 -119 64 -113 L64 -62 C64 -56 67 -54 73 -54 L111 -54 C116 -54 119 -56 119 -62 L119 -111 C119 -116 119 -117 117 -122 L117 -122 Z " />
<glyph glyph-name="Lcaron" unicode="&#x13d;" horiz-adv-x="422" d="M116 692 L116 36 L376 36 C382 36 386 33 386 27 L386 8 C386 3 382 0 376 0 L87 0 C81 0 78 3 78 8 L78 692 C78 698 81 701 87 701 L108 701 C113 701 116 698 116 692 L116 692 Z M286 636 L260 546 C259 542 256 539 251 539 L243 539 C237 539 236 543 237 548 L256 636 L240 636 C234 636 231 639 231 645 L231 705 C231 711 234 714 240 714 L279 714 C285 714 288 711 288 705 L288 647 C288 642 288 641 286 636 L286 636 Z " />
<glyph glyph-name="lcaron" unicode="&#x13e;" horiz-adv-x="235" d="M110 692 L110 8 C110 3 108 0 103 0 L83 0 C77 0 74 3 74 8 L74 692 C74 698 77 701 83 701 L103 701 C108 701 110 698 110 692 L110 692 Z M233 636 L207 546 C206 542 203 539 198 539 L190 539 C184 539 183 543 184 548 L203 636 L187 636 C181 636 178 639 178 645 L178 705 C178 711 181 714 187 714 L226 714 C232 714 235 711 235 705 L235 647 C235 642 235 641 233 636 L233 636 Z " />
<glyph glyph-name="Ldot" unicode="&#x13f;" horiz-adv-x="424" d="M116 692 L116 36 L376 36 C382 36 386 33 386 27 L386 8 C386 3 382 0 376 0 L87 0 C81 0 78 3 78 8 L78 692 C78 698 81 701 87 701 L108 701 C113 701 116 698 116 692 L116 692 Z M314 281 L314 342 C314 348 317 350 323 350 L359 350 C366 350 368 348 368 342 L368 281 C368 276 366 273 360 273 L322 273 C316 273 314 276 314 281 L314 281 Z " />
<glyph glyph-name="ldot" unicode="&#x140;" horiz-adv-x="238" d="M105 692 L105 8 C105 3 103 0 98 0 L78 0 C72 0 69 3 69 8 L69 692 C69 698 72 701 78 701 L98 701 C103 701 105 698 105 692 L105 692 Z M181 229 L181 290 C181 296 184 298 190 298 L226 298 C233 298 235 296 235 290 L235 229 C235 224 233 221 227 221 L189 221 C183 221 181 224 181 229 L181 229 Z " />
<glyph glyph-name="Lslash" unicode="&#x141;" horiz-adv-x="424" d="M118 692 L118 360 L236 428 C241 431 245 430 248 425 L254 415 C257 411 255 408 250 405 L118 328 L118 36 L378 36 C384 36 388 33 388 28 L388 8 C388 3 384 0 378 0 L89 0 C83 0 80 3 80 8 L80 305 L42 283 C36 280 32 281 30 286 L25 296 C22 302 22 305 27 308 L80 337 L80 692 C80 698 83 701 89 701 L110 701 C115 701 118 698 118 692 L118 692 Z " />
<glyph glyph-name="lslash" unicode="&#x142;" horiz-adv-x="188" d="M111 692 L111 375 L146 395 C150 398 154 397 157 391 L163 381 C166 376 165 374 159 371 L111 343 L111 8 C111 3 109 0 104 0 L84 0 C78 0 75 3 75 8 L75 322 L42 303 C37 300 33 302 30 306 L25 316 C22 321 23 324 28 327 L75 355 L75 692 C75 698 78 701 84 701 L104 701 C109 701 111 698 111 692 L111 692 Z " />
<glyph glyph-name="Nacute" unicode="&#x143;" horiz-adv-x="568" d="M490 692 L490 8 C490 3 487 0 482 0 L460 0 C454 0 450 2 447 7 L116 629 L116 8 C116 3 113 0 108 0 L87 0 C81 0 78 3 78 8 L78 692 C78 698 81 701 87 701 L108 701 C115 701 119 698 121 694 L453 71 L453 692 C453 698 455 701 461 701 L482 701 C487 701 490 698 490 692 L490 692 Z M267 761 L325 843 C329 848 331 853 340 853 L371 853 C378 853 380 846 375 841 L296 758 C292 754 290 752 283 752 L271 752 C265 752 264 756 267 761 L267 761 Z " />
<glyph glyph-name="nacute" unicode="&#x144;" horiz-adv-x="477" d="M410 359 L410 8 C410 3 408 0 402 0 L383 0 C377 0 374 3 374 8 L374 357 C374 440 341 492 257 492 C167 492 104 424 104 330 L104 8 C104 3 101 0 96 0 L77 0 C71 0 68 3 68 8 L68 508 C68 514 71 516 77 516 L96 516 C101 516 104 514 104 508 L104 425 C122 469 168 526 262 526 C365 526 410 460 410 359 L410 359 Z M213 592 L273 679 C276 684 279 688 288 688 L319 688 C326 688 327 682 322 676 L241 589 C238 585 235 583 230 583 L217 583 C211 583 210 588 213 592 L213 592 Z " />
<glyph glyph-name="Ncommaaccent" unicode="&#x145;" horiz-adv-x="568" d="M490 692 L490 8 C490 3 487 0 482 0 L460 0 C454 0 450 2 447 7 L116 629 L116 8 C116 3 113 0 108 0 L87 0 C81 0 78 3 78 8 L78 692 C78 698 81 701 87 701 L108 701 C115 701 119 698 121 694 L453 71 L453 692 C453 698 455 701 461 701 L482 701 C487 701 490 698 490 692 L490 692 Z M310 -124 L285 -206 C284 -210 281 -213 276 -213 L269 -213 C264 -213 263 -209 264 -204 L281 -123 L264 -123 C258 -123 256 -120 256 -115 L256 -62 C256 -57 258 -54 264 -54 L303 -54 C309 -54 312 -57 312 -62 L312 -113 C312 -118 312 -119 310 -124 L310 -124 Z " />
<glyph glyph-name="ncommaaccent" unicode="&#x146;" horiz-adv-x="477" d="M410 359 L410 8 C410 3 408 0 402 0 L383 0 C377 0 374 3 374 8 L374 357 C374 440 341 492 257 492 C167 492 104 424 104 330 L104 8 C104 3 101 0 96 0 L77 0 C71 0 68 3 68 8 L68 508 C68 514 71 516 77 516 L96 516 C101 516 104 514 104 508 L104 425 C122 469 168 526 262 526 C365 526 410 460 410 359 L410 359 Z M268 -122 L246 -197 C245 -201 242 -204 237 -204 L230 -204 C225 -204 224 -200 225 -196 L240 -121 L224 -121 C218 -121 215 -119 215 -113 L215 -62 C215 -56 218 -54 224 -54 L262 -54 C267 -54 270 -56 270 -62 L270 -111 C270 -116 270 -117 268 -122 L268 -122 Z " />
<glyph glyph-name="Ncaron" unicode="&#x147;" horiz-adv-x="568" d="M490 692 L490 8 C490 3 487 0 482 0 L460 0 C454 0 450 2 447 7 L116 629 L116 8 C116 3 113 0 108 0 L87 0 C81 0 78 3 78 8 L78 692 C78 698 81 701 87 701 L108 701 C115 701 119 698 121 694 L453 71 L453 692 C453 698 455 701 461 701 L482 701 C487 701 490 698 490 692 L490 692 Z M354 847 C359 851 361 853 366 853 L382 853 C388 853 390 848 386 844 L308 759 C304 755 302 752 293 752 L274 752 C266 752 263 755 260 759 L181 844 C177 848 179 853 185 853 L201 853 C206 853 208 850 212 847 L284 781 L354 847 L354 847 Z " />
<glyph glyph-name="ncaron" unicode="&#x148;" horiz-adv-x="477" d="M410 359 L410 8 C410 3 408 0 402 0 L383 0 C377 0 374 3 374 8 L374 357 C374 440 341 492 257 492 C167 492 104 424 104 330 L104 8 C104 3 101 0 96 0 L77 0 C71 0 68 3 68 8 L68 508 C68 514 71 516 77 516 L96 516 C101 516 104 514 104 508 L104 425 C122 469 168 526 262 526 C365 526 410 460 410 359 L410 359 Z M314 684 C318 688 321 689 325 689 L341 689 C346 689 348 685 345 681 L266 590 C262 586 260 583 251 583 L232 583 C224 583 222 586 218 590 L139 681 C135 685 137 689 143 689 L159 689 C163 689 166 688 170 684 L242 611 L314 684 L314 684 Z " />
<glyph glyph-name="napostrophe" unicode="&#x149;" horiz-adv-x="525" d="M458 359 L458 8 C458 3 456 0 450 0 L431 0 C425 0 422 3 422 8 L422 357 C422 440 389 492 305 492 C215 492 152 424 152 330 L152 8 C152 3 149 0 144 0 L125 0 C119 0 116 3 116 8 L116 508 C116 514 119 516 125 516 L144 516 C149 516 152 514 152 508 L152 425 C170 469 216 526 310 526 C413 526 458 460 458 359 L458 359 Z M53 639 L27 549 C26 545 23 542 18 542 L10 542 C4 542 3 546 4 551 L23 639 L7 639 C1 639 -2 642 -2 648 L-2 708 C-2 714 1 717 7 717 L46 717 C52 717 55 714 55 708 L55 650 C55 645 55 644 53 639 L53 639 Z " />
<glyph glyph-name="Eng" unicode="&#x14a;" horiz-adv-x="568" d="M490 692 L490 14 C490 -80 453 -115 387 -115 C363 -115 343 -112 328 -107 C323 -105 319 -102 321 -96 L325 -80 C326 -75 329 -72 335 -74 C347 -78 363 -81 383 -81 C426 -81 450 -61 452 0 L116 629 L116 8 C116 3 113 0 108 0 L87 0 C81 0 78 3 78 8 L78 692 C78 698 81 701 87 701 L108 701 C115 701 119 698 121 694 L453 71 L453 692 C453 698 455 701 461 701 L482 701 C487 701 490 698 490 692 L490 692 Z " />
<glyph glyph-name="eng" unicode="&#x14b;" horiz-adv-x="477" d="M374 -3 L374 356 C374 440 341 492 257 492 C167 492 104 424 104 330 L104 8 C104 3 101 0 96 0 L77 0 C71 0 68 3 68 8 L68 508 C68 514 71 516 77 516 L96 516 C101 516 104 514 104 508 L104 425 C122 469 168 526 262 526 C365 526 410 460 410 359 L410 -6 C410 -76 390 -114 328 -114 C317 -114 305 -112 293 -110 C287 -109 286 -105 286 -100 L287 -84 C287 -79 290 -77 295 -78 C305 -79 315 -81 324 -81 C362 -81 374 -58 374 -3 L374 -3 Z " />
<glyph glyph-name="Omacron" unicode="&#x14c;" horiz-adv-x="578" d="M289 710 C448 710 526 598 526 350 C526 103 448 -9 290 -9 C131 -9 51 103 51 350 C51 598 131 710 289 710 L289 710 Z M289 26 C424 26 487 126 487 350 C487 574 424 674 289 674 C153 674 91 574 91 350 C91 126 153 26 289 26 L289 26 Z M395 758 L183 758 C177 758 175 761 175 766 L175 780 C175 785 177 787 183 787 L395 787 C400 787 402 785 402 780 L402 766 C402 761 400 758 395 758 L395 758 Z " />
<glyph glyph-name="omacron" unicode="&#x14d;" horiz-adv-x="471" d="M236 -9 C108 -9 45 84 45 259 C45 433 108 526 236 526 C363 526 426 433 426 259 C426 84 363 -9 236 -9 L236 -9 Z M236 24 C340 24 388 104 388 259 C388 414 340 493 236 493 C131 493 82 414 82 259 C82 104 131 24 236 24 L236 24 Z M339 591 L131 591 C125 591 122 594 122 599 L122 612 C122 617 125 620 131 620 L339 620 C344 620 347 617 347 612 L347 599 C347 594 344 591 339 591 L339 591 Z " />
<glyph glyph-name="Obreve" unicode="&#x14e;" horiz-adv-x="578" d="M289 710 C448 710 526 598 526 350 C526 103 448 -9 290 -9 C131 -9 51 103 51 350 C51 598 131 710 289 710 L289 710 Z M289 26 C424 26 487 126 487 350 C487 574 424 674 289 674 C153 674 91 574 91 350 C91 126 153 26 289 26 L289 26 Z M289 748 C217 748 184 792 182 837 C182 842 184 844 189 844 L203 844 C208 844 210 843 211 837 C218 805 236 777 289 777 C342 777 361 805 366 837 C367 843 369 844 375 844 L388 844 C393 844 396 842 396 837 C394 792 360 748 289 748 L289 748 Z " />
<glyph glyph-name="obreve" unicode="&#x14f;" horiz-adv-x="471" d="M236 -9 C108 -9 45 84 45 259 C45 433 108 526 236 526 C363 526 426 433 426 259 C426 84 363 -9 236 -9 L236 -9 Z M236 24 C340 24 388 104 388 259 C388 414 340 493 236 493 C131 493 82 414 82 259 C82 104 131 24 236 24 L236 24 Z M235 580 C161 580 130 627 128 672 C128 677 130 680 135 680 L149 680 C154 680 156 678 157 673 C163 640 180 610 235 610 C290 610 307 640 312 673 C313 678 315 680 321 680 L334 680 C339 680 342 677 342 672 C340 627 308 580 235 580 L235 580 Z " />
<glyph glyph-name="Ohungarumlaut" unicode="&#x150;" horiz-adv-x="578" d="M289 710 C448 710 526 598 526 350 C526 103 448 -9 290 -9 C131 -9 51 103 51 350 C51 598 131 710 289 710 L289 710 Z M289 26 C424 26 487 126 487 350 C487 574 424 674 289 674 C153 674 91 574 91 350 C91 126 153 26 289 26 L289 26 Z M216 761 L266 843 C269 848 272 852 282 852 L308 852 C315 852 316 845 312 841 L246 758 C243 754 239 752 234 752 L221 752 C215 752 214 757 216 761 L216 761 Z M337 761 L388 843 C391 849 394 852 403 852 L429 852 C436 852 437 845 433 841 L367 758 C363 754 360 752 355 752 L342 752 C337 752 335 757 337 761 L337 761 Z " />
<glyph glyph-name="ohungarumlaut" unicode="&#x151;" horiz-adv-x="471" d="M236 -9 C108 -9 45 84 45 259 C45 433 108 526 236 526 C363 526 426 433 426 259 C426 84 363 -9 236 -9 L236 -9 Z M236 24 C340 24 388 104 388 259 C388 414 340 493 236 493 C131 493 82 414 82 259 C82 104 131 24 236 24 L236 24 Z M162 592 L213 679 C216 684 220 688 229 688 L254 688 C262 688 263 681 259 676 L190 589 C187 585 185 583 179 583 L167 583 C160 583 160 588 162 592 L162 592 Z M282 592 L334 679 C337 684 340 688 349 688 L375 688 C382 688 384 681 380 676 L311 589 C307 584 305 583 299 583 L287 583 C282 583 280 588 282 592 L282 592 Z " />
<glyph glyph-name="OE" unicode="&#x152;" horiz-adv-x="766" d="M700 341 L454 341 L454 36 L710 36 C716 36 719 33 719 28 L719 8 C719 3 716 0 710 0 L349 0 C175 0 70 77 70 350 C70 623 175 701 349 701 L707 701 C713 701 717 698 717 692 L717 673 C717 668 713 665 707 665 L454 665 L454 377 L700 377 C705 377 708 374 708 368 L708 350 C708 344 705 341 700 341 L700 341 Z M417 665 L350 665 C200 665 109 601 109 350 C109 100 199 36 349 36 L417 36 L417 665 L417 665 Z " />
<glyph glyph-name="oe" unicode="&#x153;" horiz-adv-x="765" d="M579 23 C618 23 654 31 685 45 C691 48 694 46 696 40 L701 25 C702 20 700 17 694 15 C663 2 619 -10 576 -10 C481 -10 421 38 396 128 C373 39 316 -9 229 -9 C108 -9 45 85 45 259 C45 433 108 526 229 526 C315 526 372 479 396 390 C418 478 473 526 556 526 C670 526 721 427 721 284 L721 251 C721 245 719 243 712 243 L413 243 C416 99 469 23 579 23 L579 23 Z M229 24 C328 24 377 104 377 259 C377 413 328 493 229 493 C132 493 82 413 82 259 C82 104 132 24 229 24 L229 24 Z M556 494 C464 494 416 418 413 275 L685 275 L685 286 C685 408 649 494 556 494 L556 494 Z " />
<glyph glyph-name="Racute" unicode="&#x154;" horiz-adv-x="520" d="M116 297 L230 297 C372 297 427 344 427 481 C427 619 373 665 227 665 L116 665 L116 297 L116 297 Z M87 701 L227 701 C398 701 466 641 466 481 C466 338 410 276 284 265 L459 11 C463 6 461 0 454 0 L430 0 C423 0 420 3 417 7 L242 261 L116 261 L116 8 C116 3 113 0 108 0 L87 0 C81 0 78 3 78 8 L78 692 C78 698 81 701 87 701 L87 701 Z M233 761 L291 843 C295 848 297 853 306 853 L337 853 C344 853 346 846 341 841 L262 758 C258 754 256 752 249 752 L237 752 C231 752 230 756 233 761 L233 761 Z " />
<glyph glyph-name="racute" unicode="&#x155;" horiz-adv-x="289" d="M77 516 L97 516 C102 516 105 514 105 508 L105 406 C118 458 171 523 253 523 C261 523 264 520 264 513 L264 492 C264 485 261 483 256 483 C251 483 245 484 239 484 C169 484 105 402 105 303 L105 8 C105 3 102 0 97 0 L77 0 C71 0 68 3 68 8 L68 508 C68 514 71 516 77 516 L77 516 Z M119 592 L179 679 C182 684 185 688 194 688 L225 688 C232 688 233 682 228 676 L147 589 C144 585 141 583 136 583 L123 583 C117 583 116 588 119 592 L119 592 Z " />
<glyph glyph-name="Rcommaaccent" unicode="&#x156;" horiz-adv-x="520" d="M116 297 L230 297 C372 297 427 344 427 481 C427 619 373 665 227 665 L116 665 L116 297 L116 297 Z M87 701 L227 701 C398 701 466 641 466 481 C466 338 410 276 284 265 L459 11 C463 6 461 0 454 0 L430 0 C423 0 420 3 417 7 L242 261 L116 261 L116 8 C116 3 113 0 108 0 L87 0 C81 0 78 3 78 8 L78 692 C78 698 81 701 87 701 L87 701 Z M285 -124 L260 -206 C259 -210 256 -213 251 -213 L244 -213 C239 -213 238 -209 239 -204 L256 -123 L239 -123 C233 -123 231 -120 231 -115 L231 -62 C231 -57 233 -54 239 -54 L278 -54 C284 -54 287 -57 287 -62 L287 -113 C287 -118 287 -119 285 -124 L285 -124 Z " />
<glyph glyph-name="rcommaaccent" unicode="&#x157;" horiz-adv-x="289" d="M77 516 L97 516 C102 516 105 514 105 508 L105 406 C118 458 171 523 253 523 C261 523 264 520 264 513 L264 492 C264 485 261 483 256 483 C251 483 245 484 239 484 C169 484 105 402 105 303 L105 8 C105 3 102 0 97 0 L77 0 C71 0 68 3 68 8 L68 508 C68 514 71 516 77 516 L77 516 Z M112 -122 L90 -197 C89 -201 86 -204 81 -204 L74 -204 C69 -204 68 -200 69 -196 L84 -121 L68 -121 C62 -121 59 -119 59 -113 L59 -62 C59 -56 62 -54 68 -54 L106 -54 C111 -54 114 -56 114 -62 L114 -111 C114 -116 114 -117 112 -122 L112 -122 Z " />
<glyph glyph-name="Rcaron" unicode="&#x158;" horiz-adv-x="520" d="M116 297 L230 297 C372 297 427 344 427 481 C427 619 373 665 227 665 L116 665 L116 297 L116 297 Z M87 701 L227 701 C398 701 466 641 466 481 C466 338 410 276 284 265 L459 11 C463 6 461 0 454 0 L430 0 C423 0 420 3 417 7 L242 261 L116 261 L116 8 C116 3 113 0 108 0 L87 0 C81 0 78 3 78 8 L78 692 C78 698 81 701 87 701 L87 701 Z M330 847 C335 851 337 853 342 853 L358 853 C364 853 366 848 362 844 L284 759 C280 755 278 752 269 752 L250 752 C242 752 239 755 236 759 L157 844 C153 848 155 853 161 853 L177 853 C182 853 184 850 188 847 L260 781 L330 847 L330 847 Z " />
<glyph glyph-name="rcaron" unicode="&#x159;" horiz-adv-x="289" d="M77 516 L97 516 C102 516 105 514 105 508 L105 406 C118 458 171 523 253 523 C261 523 264 520 264 513 L264 492 C264 485 261 483 256 483 C251 483 245 484 239 484 C169 484 105 402 105 303 L105 8 C105 3 102 0 97 0 L77 0 C71 0 68 3 68 8 L68 508 C68 514 71 516 77 516 L77 516 Z M224 684 C228 688 231 689 235 689 L251 689 C256 689 258 685 255 681 L176 590 C172 586 170 583 161 583 L142 583 C134 583 132 586 128 590 L49 681 C45 685 47 689 53 689 L69 689 C73 689 76 688 80 684 L152 611 L224 684 L224 684 Z " />
<glyph glyph-name="Sacute" unicode="&#x15a;" horiz-adv-x="434" d="M390 162 C390 57 326 -9 193 -9 C135 -9 81 0 52 11 C46 14 42 17 44 22 L50 39 C52 45 54 48 60 45 C87 34 137 26 192 26 C301 26 352 80 352 163 C352 263 279 303 200 348 C122 393 49 436 49 547 C49 643 99 710 234 710 C287 710 328 700 355 690 C362 688 364 685 363 679 L358 662 C357 656 353 654 347 656 C323 666 284 674 235 674 C125 674 88 624 88 547 C88 455 149 421 221 379 C305 330 390 284 390 162 L390 162 Z M196 761 L254 843 C258 848 260 853 269 853 L300 853 C307 853 309 846 304 841 L225 758 C221 754 219 752 212 752 L200 752 C194 752 193 756 196 761 L196 761 Z " />
<glyph glyph-name="sacute" unicode="&#x15b;" horiz-adv-x="373" d="M334 130 C334 41 280 -9 175 -9 C122 -9 73 1 44 13 C38 15 36 18 37 24 L41 38 C42 44 46 46 52 44 C81 34 125 24 173 24 C259 24 298 62 298 130 C298 201 243 222 171 259 C103 293 41 319 41 403 C41 482 88 526 190 526 C237 526 278 518 303 508 C310 506 312 503 310 497 L306 482 C305 477 302 475 296 477 C271 485 235 494 193 494 C113 494 77 465 77 403 C77 340 125 319 192 286 C268 247 334 219 334 130 L334 130 Z M156 592 L216 679 C219 684 222 688 231 688 L262 688 C269 688 270 682 265 676 L184 589 C181 585 178 583 173 583 L160 583 C154 583 153 588 156 592 L156 592 Z " />
<glyph glyph-name="Scircumflex" unicode="&#x15c;" horiz-adv-x="434" d="M390 162 C390 57 326 -9 193 -9 C135 -9 81 0 52 11 C46 14 42 17 44 22 L50 39 C52 45 54 48 60 45 C87 34 137 26 192 26 C301 26 352 80 352 163 C352 263 279 303 200 348 C122 393 49 436 49 547 C49 643 99 710 234 710 C287 710 328 700 355 690 C362 688 364 685 363 679 L358 662 C357 656 353 654 347 656 C323 666 284 674 235 674 C125 674 88 624 88 547 C88 455 149 421 221 379 C305 330 390 284 390 162 L390 162 Z M290 758 L219 824 L147 758 C143 755 140 752 136 752 L120 752 C113 752 112 757 116 761 L195 846 C199 850 201 853 209 853 L228 853 C237 853 239 850 243 846 L321 761 C325 757 324 752 317 752 L302 752 C297 752 294 754 290 758 L290 758 Z " />
<glyph glyph-name="scircumflex" unicode="&#x15d;" horiz-adv-x="373" d="M334 130 C334 41 280 -9 175 -9 C122 -9 73 1 44 13 C38 15 36 18 37 24 L41 38 C42 44 46 46 52 44 C81 34 125 24 173 24 C259 24 298 62 298 130 C298 201 243 222 171 259 C103 293 41 319 41 403 C41 482 88 526 190 526 C237 526 278 518 303 508 C310 506 312 503 310 497 L306 482 C305 477 302 475 296 477 C271 485 235 494 193 494 C113 494 77 465 77 403 C77 340 125 319 192 286 C268 247 334 219 334 130 L334 130 Z M259 589 L187 662 L115 589 C111 585 108 583 104 583 L88 583 C82 583 80 588 84 592 L163 683 C166 687 169 689 177 689 L196 689 C205 689 207 687 211 683 L290 592 C293 588 291 583 286 583 L270 583 C266 583 263 585 259 589 L259 589 Z " />
<glyph glyph-name="Scedilla" unicode="&#x15e;" horiz-adv-x="434" d="M390 162 C390 71 342 9 243 -5 C277 -26 299 -57 299 -87 C299 -131 266 -147 221 -147 C210 -147 199 -146 193 -144 C187 -142 186 -139 186 -135 L186 -123 C186 -119 188 -117 193 -117 L218 -117 C248 -117 266 -107 266 -83 C266 -57 249 -31 216 -8 C209 -9 201 -9 193 -9 C135 -9 81 0 52 11 C46 14 42 17 44 22 L50 39 C52 45 54 48 60 45 C87 34 137 26 192 26 C301 26 352 80 352 163 C352 263 279 303 200 348 C122 393 49 436 49 547 C49 643 99 710 234 710 C287 710 328 700 355 690 C362 688 364 685 363 679 L358 662 C357 656 353 654 347 656 C323 666 284 674 235 674 C125 674 88 624 88 547 C88 455 149 421 221 379 C305 330 390 284 390 162 L390 162 Z " />
<glyph glyph-name="scedilla" unicode="&#x15f;" horiz-adv-x="373" d="M334 130 C334 46 286 -3 194 -8 C225 -29 244 -56 244 -83 C244 -125 213 -139 170 -139 C159 -139 149 -139 143 -137 C138 -135 137 -132 137 -128 L137 -117 C137 -113 139 -111 144 -111 L166 -111 C196 -111 212 -102 212 -79 C212 -55 197 -30 166 -9 C116 -8 71 1 44 13 C38 15 36 18 37 24 L41 38 C42 44 46 46 52 44 C81 34 125 24 173 24 C259 24 298 62 298 130 C298 201 243 222 171 259 C103 293 41 319 41 403 C41 482 88 526 190 526 C237 526 278 518 303 508 C310 506 312 503 310 497 L306 482 C305 477 302 475 296 477 C271 485 235 494 193 494 C113 494 77 465 77 403 C77 340 125 319 192 286 C268 247 334 219 334 130 L334 130 Z " />
<glyph glyph-name="Scaron" unicode="&#x160;" horiz-adv-x="434" d="M390 162 C390 57 326 -9 193 -9 C135 -9 81 0 52 11 C46 14 42 17 44 22 L50 39 C52 45 54 48 60 45 C87 34 137 26 192 26 C301 26 352 80 352 163 C352 263 279 303 200 348 C122 393 49 436 49 547 C49 643 99 710 234 710 C287 710 328 700 355 690 C362 688 364 685 363 679 L358 662 C357 656 353 654 347 656 C323 666 284 674 235 674 C125 674 88 624 88 547 C88 455 149 421 221 379 C305 330 390 284 390 162 L390 162 Z M291 847 C296 851 298 853 303 853 L319 853 C325 853 327 848 323 844 L245 759 C241 755 239 752 230 752 L211 752 C203 752 200 755 197 759 L118 844 C114 848 116 853 122 853 L138 853 C143 853 145 850 149 847 L221 781 L291 847 L291 847 Z " />
<glyph glyph-name="scaron" unicode="&#x161;" horiz-adv-x="373" d="M334 130 C334 41 280 -9 175 -9 C122 -9 73 1 44 13 C38 15 36 18 37 24 L41 38 C42 44 46 46 52 44 C81 34 125 24 173 24 C259 24 298 62 298 130 C298 201 243 222 171 259 C103 293 41 319 41 403 C41 482 88 526 190 526 C237 526 278 518 303 508 C310 506 312 503 310 497 L306 482 C305 477 302 475 296 477 C271 485 235 494 193 494 C113 494 77 465 77 403 C77 340 125 319 192 286 C268 247 334 219 334 130 L334 130 Z M259 684 C263 688 266 689 270 689 L286 689 C291 689 293 685 290 681 L211 590 C207 586 205 583 196 583 L177 583 C169 583 167 586 163 590 L84 681 C80 685 82 689 88 689 L104 689 C108 689 111 688 115 684 L187 611 L259 684 L259 684 Z " />
<glyph glyph-name="Tcommaaccent" unicode="&#x162;" horiz-adv-x="424" d="M28 673 L28 692 C28 698 31 701 37 701 L388 701 C393 701 396 698 396 692 L396 673 C396 668 393 665 388 665 L231 665 L231 8 C231 3 228 0 223 0 L202 0 C196 0 193 3 193 8 L193 665 L37 665 C31 665 28 668 28 673 L28 673 Z M237 -124 L212 -206 C211 -210 208 -213 203 -213 L196 -213 C191 -213 190 -209 191 -204 L208 -123 L191 -123 C185 -123 183 -120 183 -115 L183 -62 C183 -57 185 -54 191 -54 L230 -54 C236 -54 239 -57 239 -62 L239 -113 C239 -118 239 -119 237 -124 L237 -124 Z " />
<glyph glyph-name="tcommaaccent" unicode="&#x163;" horiz-adv-x="291" d="M249 483 L131 483 L131 134 C131 51 150 28 208 28 C225 28 237 31 250 33 C255 34 258 32 259 26 L262 11 C263 6 261 2 255 1 C243 -2 223 -5 205 -5 C128 -5 95 27 95 131 L95 483 L27 483 C21 483 18 486 18 492 L18 508 C18 514 21 516 27 516 L96 516 L96 649 C96 655 98 658 104 658 L123 658 C129 658 131 655 131 649 L131 516 L249 516 C255 516 258 514 258 508 L258 492 C258 486 255 483 249 483 L249 483 Z M189 -122 L167 -197 C166 -201 163 -204 158 -204 L151 -204 C146 -204 145 -200 146 -196 L161 -121 L145 -121 C139 -121 136 -119 136 -113 L136 -62 C136 -56 139 -54 145 -54 L183 -54 C188 -54 191 -56 191 -62 L191 -111 C191 -116 191 -117 189 -122 L189 -122 Z " />
<glyph glyph-name="Tcaron" unicode="&#x164;" horiz-adv-x="424" d="M28 673 L28 692 C28 698 31 701 37 701 L388 701 C393 701 396 698 396 692 L396 673 C396 668 393 665 388 665 L231 665 L231 8 C231 3 228 0 223 0 L202 0 C196 0 193 3 193 8 L193 665 L37 665 C31 665 28 668 28 673 L28 673 Z M281 847 C286 851 288 853 293 853 L309 853 C315 853 317 848 313 844 L235 759 C231 755 229 752 220 752 L201 752 C193 752 190 755 187 759 L108 844 C104 848 106 853 112 853 L128 853 C133 853 135 850 139 847 L211 781 L281 847 L281 847 Z " />
<glyph glyph-name="tcaron" unicode="&#x165;" horiz-adv-x="347" d="M249 483 L131 483 L131 134 C131 51 150 28 208 28 C225 28 237 31 250 33 C255 34 258 32 259 26 L262 11 C263 6 261 2 255 1 C243 -2 223 -5 205 -5 C128 -5 95 27 95 131 L95 483 L27 483 C21 483 18 486 18 492 L18 508 C18 514 21 516 27 516 L96 516 L96 649 C96 655 98 658 104 658 L123 658 C129 658 131 655 131 649 L131 516 L249 516 C255 516 258 514 258 508 L258 492 C258 486 255 483 249 483 L249 483 Z M345 639 L319 549 C318 545 315 542 310 542 L302 542 C296 542 295 546 296 551 L315 639 L299 639 C293 639 290 642 290 648 L290 708 C290 714 293 717 299 717 L338 717 C344 717 347 714 347 708 L347 650 C347 645 347 644 345 639 L345 639 Z " />
<glyph glyph-name="Tbar" unicode="&#x166;" horiz-adv-x="424" d="M28 673 L28 692 C28 698 31 701 37 701 L388 701 C393 701 396 698 396 692 L396 673 C396 668 393 665 388 665 L231 665 L231 370 L326 370 C331 370 334 368 334 362 L334 351 C334 346 331 343 326 343 L231 343 L231 8 C231 3 228 0 223 0 L202 0 C196 0 193 3 193 8 L193 343 L98 343 C93 343 89 346 89 351 L89 362 C89 368 92 370 98 370 L193 370 L193 665 L37 665 C31 665 28 668 28 673 L28 673 Z " />
<glyph glyph-name="tbar" unicode="&#x167;" horiz-adv-x="291" d="M249 483 L131 483 L131 291 L239 291 C244 291 247 288 247 283 L247 272 C247 266 244 264 239 264 L131 264 L131 134 C131 51 150 28 208 28 C225 28 237 31 250 33 C255 34 258 32 259 26 L262 11 C263 6 261 2 255 1 C243 -2 223 -5 205 -5 C128 -5 95 27 95 131 L95 264 L27 264 C21 264 18 266 18 272 L18 283 C18 288 21 291 27 291 L95 291 L95 483 L27 483 C21 483 18 486 18 492 L18 508 C18 514 21 516 27 516 L96 516 L96 649 C96 655 98 658 104 658 L123 658 C129 658 131 655 131 649 L131 516 L249 516 C255 516 258 514 258 508 L258 492 C258 486 255 483 249 483 L249 483 Z " />
<glyph glyph-name="Utilde" unicode="&#x168;" horiz-adv-x="554" d="M277 -10 C133 -10 74 66 74 221 L74 692 C74 698 76 701 82 701 L103 701 C109 701 112 698 112 692 L112 223 C112 89 156 25 277 25 C398 25 442 89 442 223 L442 692 C442 698 445 701 450 701 L472 701 C478 701 481 698 481 692 L481 221 C481 66 420 -10 277 -10 L277 -10 Z M402 810 C402 775 381 748 344 748 C323 748 304 756 282 767 L256 782 C241 790 228 794 216 794 C198 794 185 786 183 770 L182 760 C181 753 177 751 171 751 L161 751 C155 751 152 753 152 761 C152 797 173 824 210 824 C231 824 250 816 271 805 L296 790 C312 781 327 776 340 776 C357 776 368 784 371 802 L372 812 C373 818 376 821 383 821 L393 821 C399 821 402 818 402 810 L402 810 Z " />
<glyph glyph-name="utilde" unicode="&#x169;" horiz-adv-x="471" d="M64 164 L64 508 C64 514 67 516 73 516 L93 516 C99 516 101 514 101 508 L101 167 C101 81 134 25 221 25 C308 25 366 95 366 188 L366 508 C366 514 368 516 374 516 L394 516 C400 516 402 514 402 508 L402 8 C402 3 400 0 394 0 L374 0 C368 0 366 3 366 8 L366 92 C351 49 308 -9 216 -9 C111 -9 64 58 64 164 L64 164 Z M354 641 C354 606 335 582 300 582 C279 582 262 588 241 600 L216 614 C202 623 189 626 179 626 C162 626 151 616 148 603 L146 593 C145 587 142 584 136 584 L126 584 C120 584 117 587 117 595 C117 629 136 655 171 655 C192 655 211 647 231 636 L255 622 C270 613 283 610 294 610 C311 610 322 619 324 634 L325 643 C326 650 330 651 335 651 L346 651 C352 651 354 649 354 641 L354 641 Z " />
<glyph glyph-name="Umacron" unicode="&#x16a;" horiz-adv-x="554" d="M277 -10 C133 -10 74 66 74 221 L74 692 C74 698 76 701 82 701 L103 701 C109 701 112 698 112 692 L112 223 C112 89 156 25 277 25 C398 25 442 89 442 223 L442 692 C442 698 445 701 450 701 L472 701 C478 701 481 698 481 692 L481 221 C481 66 420 -10 277 -10 L277 -10 Z M383 758 L171 758 C165 758 163 761 163 766 L163 780 C163 785 165 787 171 787 L383 787 C388 787 390 785 390 780 L390 766 C390 761 388 758 383 758 L383 758 Z " />
<glyph glyph-name="umacron" unicode="&#x16b;" horiz-adv-x="471" d="M64 164 L64 508 C64 514 67 516 73 516 L93 516 C99 516 101 514 101 508 L101 167 C101 81 134 25 221 25 C308 25 366 95 366 188 L366 508 C366 514 368 516 374 516 L394 516 C400 516 402 514 402 508 L402 8 C402 3 400 0 394 0 L374 0 C368 0 366 3 366 8 L366 92 C351 49 308 -9 216 -9 C111 -9 64 58 64 164 L64 164 Z M340 591 L132 591 C126 591 123 594 123 599 L123 612 C123 617 126 620 132 620 L340 620 C345 620 348 617 348 612 L348 599 C348 594 345 591 340 591 L340 591 Z " />
<glyph glyph-name="Ubreve" unicode="&#x16c;" horiz-adv-x="554" d="M277 -10 C133 -10 74 66 74 221 L74 692 C74 698 76 701 82 701 L103 701 C109 701 112 698 112 692 L112 223 C112 89 156 25 277 25 C398 25 442 89 442 223 L442 692 C442 698 445 701 450 701 L472 701 C478 701 481 698 481 692 L481 221 C481 66 420 -10 277 -10 L277 -10 Z M277 748 C205 748 172 792 170 837 C170 842 172 844 177 844 L191 844 C196 844 198 843 199 837 C206 805 224 777 277 777 C330 777 349 805 354 837 C355 843 357 844 363 844 L376 844 C381 844 384 842 384 837 C382 792 348 748 277 748 L277 748 Z " />
<glyph glyph-name="ubreve" unicode="&#x16d;" horiz-adv-x="471" d="M64 164 L64 508 C64 514 67 516 73 516 L93 516 C99 516 101 514 101 508 L101 167 C101 81 134 25 221 25 C308 25 366 95 366 188 L366 508 C366 514 368 516 374 516 L394 516 C400 516 402 514 402 508 L402 8 C402 3 400 0 394 0 L374 0 C368 0 366 3 366 8 L366 92 C351 49 308 -9 216 -9 C111 -9 64 58 64 164 L64 164 Z M236 580 C162 580 131 627 129 672 C129 677 131 680 136 680 L150 680 C155 680 157 678 158 673 C164 640 181 610 236 610 C291 610 308 640 313 673 C314 678 316 680 322 680 L335 680 C340 680 343 677 343 672 C341 627 309 580 236 580 L236 580 Z " />
<glyph glyph-name="Uring" unicode="&#x16e;" horiz-adv-x="554" d="M277 -10 C133 -10 74 66 74 221 L74 692 C74 698 76 701 82 701 L103 701 C109 701 112 698 112 692 L112 223 C112 89 156 25 277 25 C398 25 442 89 442 223 L442 692 C442 698 445 701 450 701 L472 701 C478 701 481 698 481 692 L481 221 C481 66 420 -10 277 -10 L277 -10 Z M218 827 C218 792 239 772 277 772 C314 772 335 792 335 827 C335 862 314 883 277 883 C239 883 218 862 218 827 L218 827 Z M191 827 C191 875 223 907 277 907 C330 907 362 875 362 827 C362 780 330 746 277 746 C223 746 191 780 191 827 L191 827 Z " />
<glyph glyph-name="uring" unicode="&#x16f;" horiz-adv-x="471" d="M64 164 L64 508 C64 514 67 516 73 516 L93 516 C99 516 101 514 101 508 L101 167 C101 81 134 25 221 25 C308 25 366 95 366 188 L366 508 C366 514 368 516 374 516 L394 516 C400 516 402 514 402 508 L402 8 C402 3 400 0 394 0 L374 0 C368 0 366 3 366 8 L366 92 C351 49 308 -9 216 -9 C111 -9 64 58 64 164 L64 164 Z M236 599 C273 599 294 620 294 654 C294 689 273 709 236 709 C198 709 178 689 178 654 C178 620 198 599 236 599 L236 599 Z M236 734 C289 734 322 702 322 654 C322 607 289 574 236 574 C182 574 150 607 150 654 C150 702 182 734 236 734 L236 734 Z " />
<glyph glyph-name="Uhungarumlaut" unicode="&#x170;" horiz-adv-x="554" d="M277 -10 C133 -10 74 66 74 221 L74 692 C74 698 76 701 82 701 L103 701 C109 701 112 698 112 692 L112 223 C112 89 156 25 277 25 C398 25 442 89 442 223 L442 692 C442 698 445 701 450 701 L472 701 C478 701 481 698 481 692 L481 221 C481 66 420 -10 277 -10 L277 -10 Z M194 761 L244 843 C247 848 250 852 260 852 L286 852 C293 852 294 845 290 841 L224 758 C221 754 217 752 212 752 L199 752 C193 752 192 757 194 761 L194 761 Z M315 761 L366 843 C369 849 372 852 381 852 L407 852 C414 852 415 845 411 841 L345 758 C341 754 338 752 333 752 L320 752 C315 752 313 757 315 761 L315 761 Z " />
<glyph glyph-name="uhungarumlaut" unicode="&#x171;" horiz-adv-x="471" d="M64 164 L64 508 C64 514 67 516 73 516 L93 516 C99 516 101 514 101 508 L101 167 C101 81 134 25 221 25 C308 25 366 95 366 188 L366 508 C366 514 368 516 374 516 L394 516 C400 516 402 514 402 508 L402 8 C402 3 400 0 394 0 L374 0 C368 0 366 3 366 8 L366 92 C351 49 308 -9 216 -9 C111 -9 64 58 64 164 L64 164 Z M153 592 L204 679 C207 684 211 688 220 688 L245 688 C253 688 254 681 250 676 L181 589 C178 585 176 583 170 583 L158 583 C151 583 151 588 153 592 L153 592 Z M273 592 L325 679 C328 684 331 688 340 688 L366 688 C373 688 375 681 371 676 L302 589 C298 584 296 583 290 583 L278 583 C273 583 271 588 273 592 L273 592 Z " />
<glyph glyph-name="Uogonek" unicode="&#x172;" horiz-adv-x="554" d="M277 -10 C133 -10 74 66 74 221 L74 692 C74 698 76 701 82 701 L103 701 C109 701 112 698 112 692 L112 223 C112 89 156 25 277 25 C398 25 442 89 442 223 L442 692 C442 698 445 701 450 701 L472 701 C478 701 481 698 481 692 L481 221 C481 88 436 13 333 -5 C297 -28 279 -54 279 -83 C279 -107 297 -116 327 -116 C335 -116 347 -114 355 -113 C359 -112 362 -113 363 -118 L365 -130 C366 -135 364 -137 360 -139 C353 -143 337 -147 320 -147 C281 -147 247 -132 247 -88 C247 -61 266 -31 296 -9 C290 -10 283 -10 277 -10 L277 -10 Z " />
<glyph glyph-name="uogonek" unicode="&#x173;" horiz-adv-x="471" d="M64 164 L64 508 C64 514 67 516 73 516 L93 516 C99 516 101 514 101 508 L101 167 C101 81 134 25 221 25 C308 25 366 95 366 188 L366 508 C366 514 368 516 374 516 L394 516 C400 516 402 514 402 508 L402 8 C402 3 400 0 394 0 L382 0 C342 -24 322 -51 322 -79 C322 -102 338 -110 366 -110 C374 -110 384 -109 392 -108 C396 -107 398 -109 399 -113 L402 -124 C403 -129 401 -131 397 -133 C390 -136 377 -140 360 -140 C322 -140 292 -126 292 -85 C292 -51 322 -14 366 7 L366 8 L366 92 C351 49 308 -9 216 -9 C111 -9 64 58 64 164 L64 164 Z " />
<glyph glyph-name="Wcircumflex" unicode="&#x174;" horiz-adv-x="816" d="M397 701 L420 701 C427 701 429 698 431 692 L540 240 L584 48 L587 48 L630 239 L738 692 C739 698 742 701 748 701 L770 701 C776 701 779 697 777 690 L613 10 C611 3 608 0 601 0 L572 0 C565 0 562 3 560 9 L446 473 L409 636 L407 636 L369 473 L256 9 C254 2 251 0 245 0 L215 0 C208 0 205 3 203 10 L39 690 C37 697 40 701 46 701 L68 701 C74 701 77 698 79 692 L186 239 L228 48 L231 48 L276 240 L385 692 C386 698 390 701 397 701 L397 701 Z M479 758 L408 824 L336 758 C332 755 329 752 325 752 L309 752 C302 752 301 757 305 761 L384 846 C388 850 390 853 398 853 L417 853 C426 853 428 850 432 846 L510 761 C514 757 513 752 506 752 L491 752 C486 752 483 754 479 758 L479 758 Z " />
<glyph glyph-name="wcircumflex" unicode="&#x175;" horiz-adv-x="645" d="M311 516 L333 516 C339 516 342 514 343 509 L435 152 L459 47 L461 47 L484 152 L572 508 C573 514 576 516 582 516 L603 516 C609 516 611 513 609 507 L483 8 C482 3 478 0 472 0 L449 0 C443 0 439 3 438 8 L349 352 L323 463 L321 463 L296 352 L205 8 C204 3 201 0 194 0 L172 0 C166 0 162 3 161 8 L35 507 C33 513 36 516 42 516 L62 516 C68 516 71 514 72 508 L160 152 L183 47 L185 47 L209 152 L302 509 C303 514 306 516 311 516 L311 516 Z M395 589 L323 662 L251 589 C247 585 244 583 240 583 L224 583 C218 583 216 588 220 592 L299 683 C302 687 305 689 313 689 L332 689 C341 689 343 687 347 683 L426 592 C429 588 427 583 422 583 L406 583 C402 583 399 585 395 589 L395 589 Z " />
<glyph glyph-name="Ycircumflex" unicode="&#x176;" horiz-adv-x="510" d="M275 271 L275 9 C275 3 272 0 266 0 L245 0 C239 0 236 3 236 9 L236 271 L33 691 C31 696 32 700 39 700 L62 700 C69 700 71 698 74 693 L204 421 L254 309 L256 309 L307 421 L437 693 C439 698 442 700 449 700 L472 700 C479 700 480 695 478 691 L275 271 L275 271 Z M326 758 L255 824 L183 758 C179 755 176 752 172 752 L156 752 C149 752 148 757 152 761 L231 846 C235 850 237 853 245 853 L264 853 C273 853 275 850 279 846 L357 761 C361 757 360 752 353 752 L338 752 C333 752 330 754 326 758 L326 758 Z " />
<glyph glyph-name="ycircumflex" unicode="&#x177;" horiz-adv-x="405" d="M378 507 L232 12 C208 -72 181 -115 108 -115 C85 -115 67 -111 54 -107 C48 -105 45 -102 46 -97 L50 -82 C52 -76 55 -74 61 -75 C74 -79 87 -82 107 -82 C173 -82 195 -10 184 25 L29 507 C27 513 29 516 35 516 L57 516 C63 516 65 514 67 508 L167 186 L208 50 L210 50 L249 186 L340 508 C342 514 345 516 350 516 L371 516 C378 516 380 513 378 507 L378 507 Z M275 589 L203 662 L131 589 C127 585 124 583 120 583 L104 583 C98 583 96 588 100 592 L179 683 C182 687 185 689 193 689 L212 689 C221 689 223 687 227 683 L306 592 C309 588 307 583 302 583 L286 583 C282 583 279 585 275 589 L275 589 Z " />
<glyph glyph-name="Ydieresis" unicode="&#x178;" horiz-adv-x="510" d="M275 271 L275 9 C275 3 272 0 266 0 L245 0 C239 0 236 3 236 9 L236 271 L33 691 C31 696 32 700 39 700 L62 700 C69 700 71 698 74 693 L204 421 L254 309 L256 309 L307 421 L437 693 C439 698 442 700 449 700 L472 700 C479 700 480 695 478 691 L275 271 L275 271 Z M203 814 L203 761 C203 755 200 752 194 752 L168 752 C163 752 161 755 161 761 L161 814 C161 820 163 822 168 822 L194 822 C200 822 203 820 203 814 L203 814 Z M349 814 L349 761 C349 755 347 752 341 752 L315 752 C309 752 307 755 307 761 L307 814 C307 820 309 822 315 822 L341 822 C347 822 349 820 349 814 L349 814 Z " />
<glyph glyph-name="Zacute" unicode="&#x179;" horiz-adv-x="465" d="M48 8 L48 27 C48 33 51 36 53 40 L369 665 L66 665 C60 665 57 668 57 673 L57 692 C57 698 60 701 66 701 L405 701 C411 701 413 698 413 692 L413 674 C413 669 412 665 409 660 L93 36 L408 36 C414 36 416 33 416 28 L416 8 C416 3 414 0 408 0 L56 0 C51 0 48 3 48 8 L48 8 Z M208 761 L266 843 C270 848 272 853 281 853 L312 853 C319 853 321 846 316 841 L237 758 C233 754 231 752 224 752 L212 752 C206 752 205 756 208 761 L208 761 Z " />
<glyph glyph-name="zacute" unicode="&#x17a;" horiz-adv-x="401" d="M351 508 L351 494 C351 490 349 486 347 483 L90 33 L346 33 C352 33 355 31 355 26 L355 8 C355 3 352 0 346 0 L53 0 C48 0 45 3 45 8 L45 22 C45 26 46 30 48 32 L306 483 L59 483 C54 483 51 485 51 491 L51 508 C51 514 54 516 59 516 L343 516 C348 516 351 514 351 508 L351 508 Z M173 592 L233 679 C236 684 239 688 248 688 L279 688 C286 688 287 682 282 676 L201 589 C198 585 195 583 190 583 L177 583 C171 583 170 588 173 592 L173 592 Z " />
<glyph glyph-name="Zdotaccent" unicode="&#x17b;" horiz-adv-x="465" d="M48 8 L48 27 C48 33 51 36 53 40 L369 665 L66 665 C60 665 57 668 57 673 L57 692 C57 698 60 701 66 701 L405 701 C411 701 413 698 413 692 L413 674 C413 669 412 665 409 660 L93 36 L408 36 C414 36 416 33 416 28 L416 8 C416 3 414 0 408 0 L56 0 C51 0 48 3 48 8 L48 8 Z M256 816 L256 761 C256 755 254 752 249 752 L223 752 C217 752 215 755 215 761 L215 816 C215 822 217 825 223 825 L249 825 C254 825 256 822 256 816 L256 816 Z " />
<glyph glyph-name="zdotaccent" unicode="&#x17c;" horiz-adv-x="401" d="M351 508 L351 494 C351 490 349 486 347 483 L90 33 L346 33 C352 33 355 31 355 26 L355 8 C355 3 352 0 346 0 L53 0 C48 0 45 3 45 8 L45 22 C45 26 46 30 48 32 L306 483 L59 483 C54 483 51 485 51 491 L51 508 C51 514 54 516 59 516 L343 516 C348 516 351 514 351 508 L351 508 Z M221 648 L221 591 C221 586 219 583 214 583 L188 583 C182 583 180 586 180 591 L180 648 C180 654 182 657 188 657 L214 657 C219 657 221 654 221 648 L221 648 Z " />
<glyph glyph-name="Zcaron" unicode="&#x17d;" horiz-adv-x="465" d="M48 8 L48 27 C48 33 51 36 53 40 L369 665 L66 665 C60 665 57 668 57 673 L57 692 C57 698 60 701 66 701 L405 701 C411 701 413 698 413 692 L413 674 C413 669 412 665 409 660 L93 36 L408 36 C414 36 416 33 416 28 L416 8 C416 3 414 0 408 0 L56 0 C51 0 48 3 48 8 L48 8 Z M310 847 C315 851 317 853 322 853 L338 853 C344 853 346 848 342 844 L264 759 C260 755 258 752 249 752 L230 752 C222 752 219 755 216 759 L137 844 C133 848 135 853 141 853 L157 853 C162 853 164 850 168 847 L240 781 L310 847 L310 847 Z " />
<glyph glyph-name="zcaron" unicode="&#x17e;" horiz-adv-x="401" d="M351 508 L351 494 C351 490 349 486 347 483 L90 33 L346 33 C352 33 355 31 355 26 L355 8 C355 3 352 0 346 0 L53 0 C48 0 45 3 45 8 L45 22 C45 26 46 30 48 32 L306 483 L59 483 C54 483 51 485 51 491 L51 508 C51 514 54 516 59 516 L343 516 C348 516 351 514 351 508 L351 508 Z M273 684 C277 688 280 689 284 689 L300 689 C305 689 307 685 304 681 L225 590 C221 586 219 583 210 583 L191 583 C183 583 181 586 177 590 L98 681 C94 685 96 689 102 689 L118 689 C122 689 125 688 129 684 L201 611 L273 684 L273 684 Z " />
<glyph glyph-name="longs" unicode="&#x17f;" horiz-adv-x="255" d="M137 563 L137 8 C137 3 134 0 129 0 L110 0 C104 0 101 3 101 8 L101 483 L32 483 C26 483 24 486 24 492 L24 508 C24 514 26 516 32 516 L101 516 L101 567 C101 661 131 706 208 706 C227 706 242 703 253 700 C258 699 261 696 260 689 L259 676 C259 670 256 667 249 668 C238 671 227 673 211 673 C154 673 137 639 137 563 L137 563 Z " />
<glyph glyph-name="florin" unicode="&#x192;" horiz-adv-x="543" d="M305 561 L283 393 L402 393 C407 393 410 390 409 384 L406 370 C405 364 403 362 398 362 L278 362 L232 0 C221 -77 193 -115 125 -115 C105 -115 92 -112 81 -109 C75 -107 73 -104 74 -98 L77 -84 C78 -78 82 -76 89 -77 C97 -79 114 -81 122 -81 C168 -81 187 -53 194 5 L241 362 L168 362 C163 362 160 364 161 370 L163 384 C164 390 167 393 172 393 L246 393 L269 566 C282 662 317 707 395 707 C413 707 436 703 445 700 C451 697 453 695 452 690 L448 676 C447 671 443 668 436 669 C426 671 415 674 398 674 C339 674 316 638 305 561 L305 561 Z " />
<glyph glyph-name="Aringacute" unicode="&#x1fa;" horiz-adv-x="537" d="M183 756 C183 792 201 819 233 830 L283 901 C287 906 289 911 298 911 L329 911 C336 911 338 904 333 899 L273 836 C323 834 354 803 354 756 C354 718 333 688 297 678 L509 9 C511 3 508 0 502 0 L479 0 C473 0 471 3 469 8 L404 214 L133 214 L69 8 C67 3 64 0 59 0 L35 0 C30 0 27 3 29 9 L240 678 C204 688 183 718 183 756 L183 756 Z M144 249 L394 249 L270 650 L268 650 L144 249 L144 249 Z M210 756 C210 722 229 703 263 701 L274 701 C308 703 327 722 327 756 C327 791 306 812 269 812 C231 812 210 791 210 756 L210 756 Z " />
<glyph glyph-name="aringacute" unicode="&#x1fb;" horiz-adv-x="444" d="M379 370 L379 8 C379 3 376 0 370 0 L352 0 C346 0 343 3 343 8 L343 94 C327 52 285 -6 181 -6 C87 -6 38 51 38 139 C38 285 167 303 343 307 L343 368 C343 454 311 493 223 493 C173 493 123 477 86 465 C81 463 77 466 76 471 L72 487 C71 492 72 496 78 498 C113 513 172 526 226 526 C333 526 379 475 379 370 L379 370 Z M343 187 L343 277 C192 271 73 264 73 140 C73 72 108 25 186 25 C287 25 343 98 343 187 L343 187 Z M136 654 C136 691 155 719 189 729 L242 806 C245 811 248 815 257 815 L288 815 C295 815 296 809 291 803 L227 734 C277 732 308 700 308 654 C308 607 275 574 222 574 C168 574 136 607 136 654 L136 654 Z M222 599 C259 599 280 620 280 654 C280 689 259 709 222 709 C184 709 164 689 164 654 C164 620 184 599 222 599 L222 599 Z " />
<glyph glyph-name="AEacute" unicode="&#x1fc;" horiz-adv-x="692" d="M626 341 L390 341 L390 36 L636 36 C643 36 645 33 645 28 L645 8 C645 3 643 0 636 0 L359 0 C354 0 351 3 351 8 L351 206 L136 206 L57 8 C55 3 53 0 47 0 L23 0 C16 0 14 4 16 9 L295 692 C298 698 299 701 307 701 L634 701 C640 701 643 698 643 692 L643 673 C643 668 640 665 634 665 L390 665 L390 377 L626 377 C632 377 635 374 635 368 L635 350 C635 344 632 341 626 341 L626 341 Z M152 241 L350 241 L350 665 L321 665 L152 241 L152 241 Z M334 761 L392 843 C396 848 398 853 407 853 L438 853 C445 853 447 846 442 841 L363 758 C359 754 357 752 350 752 L338 752 C332 752 331 756 334 761 L334 761 Z " />
<glyph glyph-name="aeacute" unicode="&#x1fd;" horiz-adv-x="722" d="M535 23 C576 23 611 31 643 46 C648 48 651 46 653 40 L658 25 C660 20 657 17 651 14 C623 1 576 -10 534 -10 C441 -10 381 41 358 126 C341 50 281 -6 184 -6 C86 -6 38 52 38 136 C38 276 159 284 337 286 L337 363 C337 454 303 493 220 493 C170 493 123 476 86 465 C80 463 77 466 76 471 L71 487 C70 492 72 496 78 498 C115 512 168 526 220 526 C306 526 353 491 363 419 C386 488 439 526 515 526 C628 526 678 430 678 294 L678 262 C678 256 676 253 670 253 L372 253 C375 102 427 23 535 23 L535 23 Z M513 494 C421 494 375 421 372 286 L642 286 L642 295 C642 411 608 494 513 494 L513 494 Z M337 187 L337 255 C183 252 73 253 73 136 C73 72 108 25 187 25 C286 25 337 98 337 187 L337 187 Z M334 592 L394 679 C397 684 400 688 409 688 L440 688 C447 688 448 682 443 676 L362 589 C359 585 356 583 351 583 L338 583 C332 583 331 588 334 592 L334 592 Z " />
<glyph glyph-name="Oslashacute" unicode="&#x1fe;" horiz-adv-x="583" d="M292 710 C371 710 431 680 469 620 L518 687 C521 692 525 693 530 690 L543 680 C548 676 547 673 544 668 L487 589 C514 530 529 453 529 350 C529 103 449 -9 292 -9 C212 -9 152 19 114 80 L63 12 C60 8 56 7 52 10 L39 21 C35 25 34 27 37 32 L95 111 C68 168 54 247 54 350 C54 598 133 710 292 710 L292 710 Z M292 26 C427 26 489 126 489 350 C489 433 479 502 460 554 L138 112 C172 53 219 26 292 26 L292 26 Z M93 350 C93 267 102 196 122 146 L444 588 C412 645 363 674 292 674 C156 674 93 574 93 350 L93 350 Z M272 761 L330 843 C334 848 336 853 345 853 L376 853 C383 853 385 846 380 841 L301 758 C297 754 295 752 288 752 L276 752 C270 752 269 756 272 761 L272 761 Z " />
<glyph glyph-name="oslashacute" unicode="&#x1ff;" horiz-adv-x="475" d="M238 -9 C180 -9 135 10 104 48 L73 4 C69 -1 64 -3 60 1 L52 9 C48 13 47 16 49 19 L86 72 C60 116 47 179 47 259 C47 433 110 526 238 526 C294 526 340 507 371 469 L402 513 C406 518 409 518 414 515 L423 509 C428 505 427 502 425 498 L389 445 C415 401 428 337 428 259 C428 84 365 -9 238 -9 L238 -9 Z M238 493 C133 493 84 414 84 259 C84 197 93 142 110 104 L348 440 C324 474 287 493 238 493 L238 493 Z M238 24 C342 24 390 104 390 259 C390 321 381 375 364 412 L127 77 C152 43 187 24 238 24 L238 24 Z M212 592 L272 679 C275 684 278 688 287 688 L318 688 C325 688 326 682 321 676 L240 589 C237 585 234 583 229 583 L216 583 C210 583 209 588 212 592 L212 592 Z " />
<glyph glyph-name="Scommaaccent" unicode="&#x218;" horiz-adv-x="434" d="M390 162 C390 57 326 -9 193 -9 C135 -9 81 0 52 11 C46 14 42 17 44 22 L50 39 C52 45 54 48 60 45 C87 34 137 26 192 26 C301 26 352 80 352 163 C352 263 279 303 200 348 C122 393 49 436 49 547 C49 643 99 710 234 710 C287 710 328 700 355 690 C362 688 364 685 363 679 L358 662 C357 656 353 654 347 656 C323 666 284 674 235 674 C125 674 88 624 88 547 C88 455 149 421 221 379 C305 330 390 284 390 162 L390 162 Z M244 -124 L219 -206 C218 -210 215 -213 210 -213 L203 -213 C198 -213 197 -209 198 -204 L215 -123 L198 -123 C192 -123 190 -120 190 -115 L190 -62 C190 -57 192 -54 198 -54 L237 -54 C243 -54 246 -57 246 -62 L246 -113 C246 -118 246 -119 244 -124 L244 -124 Z " />
<glyph glyph-name="scommaaccent" unicode="&#x219;" horiz-adv-x="373" d="M334 130 C334 41 280 -9 175 -9 C122 -9 73 1 44 13 C38 15 36 18 37 24 L41 38 C42 44 46 46 52 44 C81 34 125 24 173 24 C259 24 298 62 298 130 C298 201 243 222 171 259 C103 293 41 319 41 403 C41 482 88 526 190 526 C237 526 278 518 303 508 C310 506 312 503 310 497 L306 482 C305 477 302 475 296 477 C271 485 235 494 193 494 C113 494 77 465 77 403 C77 340 125 319 192 286 C268 247 334 219 334 130 L334 130 Z M215 -122 L193 -197 C192 -201 189 -204 184 -204 L177 -204 C172 -204 171 -200 172 -196 L187 -121 L171 -121 C165 -121 162 -119 162 -113 L162 -62 C162 -56 165 -54 171 -54 L209 -54 C214 -54 217 -56 217 -62 L217 -111 C217 -116 217 -117 215 -122 L215 -122 Z " />
<glyph glyph-name="uni021A" unicode="&#x21a;" horiz-adv-x="424" d="M28 673 L28 692 C28 698 31 701 37 701 L388 701 C393 701 396 698 396 692 L396 673 C396 668 393 665 388 665 L231 665 L231 8 C231 3 228 0 223 0 L202 0 C196 0 193 3 193 8 L193 665 L37 665 C31 665 28 668 28 673 L28 673 Z M237 -124 L212 -206 C211 -210 208 -213 203 -213 L196 -213 C191 -213 190 -209 191 -204 L208 -123 L191 -123 C185 -123 183 -120 183 -115 L183 -62 C183 -57 185 -54 191 -54 L230 -54 C236 -54 239 -57 239 -62 L239 -113 C239 -118 239 -119 237 -124 L237 -124 Z " />
<glyph glyph-name="uni021B" unicode="&#x21b;" horiz-adv-x="291" d="M249 483 L131 483 L131 134 C131 51 150 28 208 28 C225 28 237 31 250 33 C255 34 258 32 259 26 L262 11 C263 6 261 2 255 1 C243 -2 223 -5 205 -5 C128 -5 95 27 95 131 L95 483 L27 483 C21 483 18 486 18 492 L18 508 C18 514 21 516 27 516 L96 516 L96 649 C96 655 98 658 104 658 L123 658 C129 658 131 655 131 649 L131 516 L249 516 C255 516 258 514 258 508 L258 492 C258 486 255 483 249 483 L249 483 Z M189 -122 L167 -197 C166 -201 163 -204 158 -204 L151 -204 C146 -204 145 -200 146 -196 L161 -121 L145 -121 C139 -121 136 -119 136 -113 L136 -62 C136 -56 139 -54 145 -54 L183 -54 C188 -54 191 -56 191 -62 L191 -111 C191 -116 191 -117 189 -122 L189 -122 Z " />
<glyph glyph-name="dotlessj" unicode="&#x237;" horiz-adv-x="191" d="M81 -3 L81 508 C81 514 84 516 90 516 L109 516 C114 516 117 514 117 508 L117 -6 C117 -77 97 -114 35 -114 C23 -114 10 -113 0 -111 C-6 -109 -8 -106 -8 -100 L-7 -84 C-7 -78 -3 -77 3 -78 C11 -80 22 -81 32 -81 C70 -81 81 -55 81 -3 L81 -3 Z " />
<glyph glyph-name="circumflex" unicode="&#x2c6;" horiz-adv-x="283" d="M214 589 L142 662 L70 589 C66 585 63 583 59 583 L43 583 C37 583 35 588 39 592 L118 683 C121 687 124 689 132 689 L151 689 C160 689 162 687 166 683 L245 592 C248 588 246 583 241 583 L225 583 C221 583 218 585 214 589 L214 589 Z " />
<glyph glyph-name="caron" unicode="&#x2c7;" horiz-adv-x="283" d="M214 684 C218 688 221 689 225 689 L241 689 C246 689 248 685 245 681 L166 590 C162 586 160 583 151 583 L132 583 C124 583 122 586 118 590 L39 681 C35 685 37 689 43 689 L59 689 C63 689 66 688 70 684 L142 611 L214 684 L214 684 Z " />
<glyph glyph-name="uni02C9" unicode="&#x2c9;" horiz-adv-x="283" d="M246 591 L38 591 C32 591 29 594 29 599 L29 612 C29 617 32 620 38 620 L246 620 C251 620 254 617 254 612 L254 599 C254 594 251 591 246 591 L246 591 Z " />
<glyph glyph-name="breve" unicode="&#x2d8;" horiz-adv-x="283" d="M142 580 C68 580 37 627 35 672 C35 677 37 680 42 680 L56 680 C61 680 63 678 64 673 C70 640 87 610 142 610 C197 610 214 640 219 673 C220 678 222 680 228 680 L241 680 C246 680 249 677 249 672 C247 627 215 580 142 580 L142 580 Z " />
<glyph glyph-name="dotaccent" unicode="&#x2d9;" horiz-adv-x="283" d="M162 648 L162 591 C162 586 160 583 155 583 L129 583 C123 583 121 586 121 591 L121 648 C121 654 123 657 129 657 L155 657 C160 657 162 654 162 648 L162 648 Z " />
<glyph glyph-name="ring" unicode="&#x2da;" horiz-adv-x="283" d="M142 599 C179 599 200 620 200 654 C200 689 179 709 142 709 C104 709 84 689 84 654 C84 620 104 599 142 599 L142 599 Z M142 734 C195 734 228 702 228 654 C228 607 195 574 142 574 C88 574 56 607 56 654 C56 702 88 734 142 734 L142 734 Z " />
<glyph glyph-name="ogonek" unicode="&#x2db;" horiz-adv-x="283" d="M148 11 L174 9 C123 -17 97 -48 97 -79 C97 -102 113 -110 141 -110 C149 -110 159 -109 167 -108 C171 -107 173 -109 174 -113 L177 -124 C178 -129 176 -131 172 -133 C165 -136 152 -140 135 -140 C97 -140 67 -126 67 -85 C67 -49 100 -10 148 11 L148 11 Z " />
<glyph glyph-name="tilde" unicode="&#x2dc;" horiz-adv-x="284" d="M260 641 C260 606 241 582 206 582 C185 582 168 588 147 600 L122 614 C108 623 95 626 85 626 C68 626 57 616 54 603 L52 593 C51 587 48 584 42 584 L32 584 C26 584 23 587 23 595 C23 629 42 655 77 655 C98 655 117 647 137 636 L161 622 C176 613 189 610 200 610 C217 610 228 619 230 634 L231 643 C232 650 236 651 241 651 L252 651 C258 651 260 649 260 641 L260 641 Z " />
<glyph glyph-name="hungarumlaut" unicode="&#x2dd;" horiz-adv-x="283" d="M71 592 L122 679 C125 684 129 688 138 688 L163 688 C171 688 172 681 168 676 L99 589 C96 585 94 583 88 583 L76 583 C69 583 69 588 71 592 L71 592 Z M191 592 L243 679 C246 684 249 688 258 688 L284 688 C291 688 293 681 289 676 L220 589 C216 584 214 583 208 583 L196 583 C191 583 189 588 191 592 L191 592 Z " />
<glyph glyph-name="uni037E" unicode="&#x37e;" horiz-adv-x="178" d="M62 226 L62 287 C62 293 65 295 71 295 L107 295 C114 295 116 293 116 287 L116 226 C116 221 114 218 108 218 L70 218 C64 218 62 221 62 226 L62 226 Z " />
<glyph glyph-name="uni0394" unicode="&#x394;" horiz-adv-x="569" d="M270 702 L299 702 C305 702 308 698 310 693 L505 20 C508 9 503 0 489 0 L79 0 C65 0 61 9 64 20 L258 693 C260 698 263 702 270 702 L270 702 Z M282 656 L104 35 L464 35 L286 656 L282 656 L282 656 Z " />
<glyph glyph-name="uni03A9" unicode="&#x3a9;" horiz-adv-x="649" d="M324 710 C518 710 593 577 593 413 C593 248 511 161 425 110 L425 34 L550 36 C556 36 559 33 559 28 L559 8 C559 3 556 0 550 0 L386 0 L386 116 C386 125 391 129 399 133 C491 183 553 278 553 412 C553 556 492 675 324 675 C156 675 96 556 96 412 C96 278 158 183 250 133 C257 129 263 125 263 116 L263 0 L99 0 C93 0 90 3 90 8 L90 28 C90 33 93 36 99 36 L224 34 L224 110 C137 161 55 248 55 413 C55 577 130 710 324 710 L324 710 Z " />
<glyph glyph-name="uni03BC" unicode="&#x3bc;" horiz-adv-x="472" d="M406 508 L406 163 C406 57 359 -10 255 -10 C163 -10 119 48 105 91 L105 -102 C105 -107 102 -110 97 -110 L77 -110 C71 -110 68 -107 68 -102 L68 508 C68 514 71 516 77 516 L97 516 C102 516 105 514 105 508 L105 187 C105 94 162 24 250 24 C337 24 369 80 369 166 L369 508 C369 514 372 516 378 516 L398 516 C403 516 406 514 406 508 L406 508 Z " />
<glyph glyph-name="pi" unicode="&#x3c0;" horiz-adv-x="545" d="M407 482 L407 117 C407 51 421 28 470 28 C487 28 497 29 508 31 C514 32 518 29 518 25 L519 10 C520 4 518 2 512 0 C502 -3 486 -5 466 -5 C396 -5 371 30 371 113 L371 482 L193 482 L105 8 C104 3 101 0 95 0 L75 0 C70 0 67 2 68 8 L156 482 L55 482 C49 482 46 485 46 491 L46 508 C46 514 49 516 55 516 L507 516 C513 516 515 514 515 508 L515 491 C515 485 513 482 507 482 L407 482 L407 482 Z " />
<glyph glyph-name="Wgrave" unicode="&#x1e80;" horiz-adv-x="816" d="M397 701 L420 701 C427 701 429 698 431 692 L540 240 L584 48 L587 48 L630 239 L738 692 C739 698 742 701 748 701 L770 701 C776 701 779 697 777 690 L613 10 C611 3 608 0 601 0 L572 0 C565 0 562 3 560 9 L446 473 L409 636 L407 636 L369 473 L256 9 C254 2 251 0 245 0 L215 0 C208 0 205 3 203 10 L39 690 C37 697 40 701 46 701 L68 701 C74 701 77 698 79 692 L186 239 L228 48 L231 48 L276 240 L385 692 C386 698 390 701 397 701 L397 701 Z M359 843 L417 761 C420 757 418 752 413 752 L400 752 C394 752 392 754 388 758 L308 841 C304 846 305 853 312 853 L343 853 C352 853 355 849 359 843 L359 843 Z " />
<glyph glyph-name="wgrave" unicode="&#x1e81;" horiz-adv-x="645" d="M311 516 L333 516 C339 516 342 514 343 509 L435 152 L459 47 L461 47 L484 152 L572 508 C573 514 576 516 582 516 L603 516 C609 516 611 513 609 507 L483 8 C482 3 478 0 472 0 L449 0 C443 0 439 3 438 8 L349 352 L323 463 L321 463 L296 352 L205 8 C204 3 201 0 194 0 L172 0 C166 0 162 3 161 8 L35 507 C33 513 36 516 42 516 L62 516 C68 516 71 514 72 508 L160 152 L183 47 L185 47 L209 152 L302 509 C303 514 306 516 311 516 L311 516 Z M269 679 L329 592 C332 588 330 583 324 583 L312 583 C306 583 304 585 300 589 L219 676 C215 681 215 688 223 688 L253 688 C262 688 265 684 269 679 L269 679 Z " />
<glyph glyph-name="Wacute" unicode="&#x1e82;" horiz-adv-x="816" d="M397 701 L420 701 C427 701 429 698 431 692 L540 240 L584 48 L587 48 L630 239 L738 692 C739 698 742 701 748 701 L770 701 C776 701 779 697 777 690 L613 10 C611 3 608 0 601 0 L572 0 C565 0 562 3 560 9 L446 473 L409 636 L407 636 L369 473 L256 9 C254 2 251 0 245 0 L215 0 C208 0 205 3 203 10 L39 690 C37 697 40 701 46 701 L68 701 C74 701 77 698 79 692 L186 239 L228 48 L231 48 L276 240 L385 692 C386 698 390 701 397 701 L397 701 Z M400 761 L458 843 C462 848 464 853 473 853 L504 853 C511 853 513 846 508 841 L429 758 C425 754 423 752 416 752 L404 752 C398 752 397 756 400 761 L400 761 Z " />
<glyph glyph-name="wacute" unicode="&#x1e83;" horiz-adv-x="645" d="M311 516 L333 516 C339 516 342 514 343 509 L435 152 L459 47 L461 47 L484 152 L572 508 C573 514 576 516 582 516 L603 516 C609 516 611 513 609 507 L483 8 C482 3 478 0 472 0 L449 0 C443 0 439 3 438 8 L349 352 L323 463 L321 463 L296 352 L205 8 C204 3 201 0 194 0 L172 0 C166 0 162 3 161 8 L35 507 C33 513 36 516 42 516 L62 516 C68 516 71 514 72 508 L160 152 L183 47 L185 47 L209 152 L302 509 C303 514 306 516 311 516 L311 516 Z M316 592 L376 679 C379 684 382 688 391 688 L422 688 C429 688 430 682 425 676 L344 589 C341 585 338 583 333 583 L320 583 C314 583 313 588 316 592 L316 592 Z " />
<glyph glyph-name="Wdieresis" unicode="&#x1e84;" horiz-adv-x="816" d="M397 701 L420 701 C427 701 429 698 431 692 L540 240 L584 48 L587 48 L630 239 L738 692 C739 698 742 701 748 701 L770 701 C776 701 779 697 777 690 L613 10 C611 3 608 0 601 0 L572 0 C565 0 562 3 560 9 L446 473 L409 636 L407 636 L369 473 L256 9 C254 2 251 0 245 0 L215 0 C208 0 205 3 203 10 L39 690 C37 697 40 701 46 701 L68 701 C74 701 77 698 79 692 L186 239 L228 48 L231 48 L276 240 L385 692 C386 698 390 701 397 701 L397 701 Z M356 814 L356 761 C356 755 353 752 347 752 L321 752 C316 752 314 755 314 761 L314 814 C314 820 316 822 321 822 L347 822 C353 822 356 820 356 814 L356 814 Z M502 814 L502 761 C502 755 500 752 494 752 L468 752 C462 752 460 755 460 761 L460 814 C460 820 462 822 468 822 L494 822 C500 822 502 820 502 814 L502 814 Z " />
<glyph glyph-name="wdieresis" unicode="&#x1e85;" horiz-adv-x="645" d="M311 516 L333 516 C339 516 342 514 343 509 L435 152 L459 47 L461 47 L484 152 L572 508 C573 514 576 516 582 516 L603 516 C609 516 611 513 609 507 L483 8 C482 3 478 0 472 0 L449 0 C443 0 439 3 438 8 L349 352 L323 463 L321 463 L296 352 L205 8 C204 3 201 0 194 0 L172 0 C166 0 162 3 161 8 L35 507 C33 513 36 516 42 516 L62 516 C68 516 71 514 72 508 L160 152 L183 47 L185 47 L209 152 L302 509 C303 514 306 516 311 516 L311 516 Z M271 647 L271 591 C271 586 269 583 263 583 L239 583 C234 583 231 586 231 591 L231 647 C231 653 234 656 239 656 L263 656 C269 656 271 653 271 647 L271 647 Z M415 647 L415 591 C415 586 412 583 406 583 L383 583 C377 583 374 586 374 591 L374 647 C374 653 377 656 383 656 L406 656 C412 656 415 653 415 647 L415 647 Z " />
<glyph glyph-name="Ygrave" unicode="&#x1ef2;" horiz-adv-x="510" d="M275 271 L275 9 C275 3 272 0 266 0 L245 0 C239 0 236 3 236 9 L236 271 L33 691 C31 696 32 700 39 700 L62 700 C69 700 71 698 74 693 L204 421 L254 309 L256 309 L307 421 L437 693 C439 698 442 700 449 700 L472 700 C479 700 480 695 478 691 L275 271 L275 271 Z M209 843 L267 761 C270 757 268 752 263 752 L250 752 C244 752 242 754 238 758 L158 841 C154 846 155 853 162 853 L193 853 C202 853 205 849 209 843 L209 843 Z " />
<glyph glyph-name="ygrave" unicode="&#x1ef3;" horiz-adv-x="405" d="M378 507 L232 12 C208 -72 181 -115 108 -115 C85 -115 67 -111 54 -107 C48 -105 45 -102 46 -97 L50 -82 C52 -76 55 -74 61 -75 C74 -79 87 -82 107 -82 C173 -82 195 -10 184 25 L29 507 C27 513 29 516 35 516 L57 516 C63 516 65 514 67 508 L167 186 L208 50 L210 50 L249 186 L340 508 C342 514 345 516 350 516 L371 516 C378 516 380 513 378 507 L378 507 Z M168 679 L228 592 C231 588 229 583 223 583 L211 583 C205 583 203 585 199 589 L118 676 C114 681 114 688 122 688 L152 688 C161 688 164 684 168 679 L168 679 Z " />
<glyph glyph-name="figuredash" unicode="&#x2012;" horiz-adv-x="461" d="M392 256 L68 256 C62 256 60 259 60 265 L60 281 C60 287 62 290 68 290 L392 290 C398 290 401 287 401 281 L401 265 C401 259 398 256 392 256 L392 256 Z " />
<glyph glyph-name="endash" unicode="&#x2013;" horiz-adv-x="432" d="M382 247 L50 247 C44 247 42 249 42 254 L42 272 C42 277 44 280 50 280 L382 280 C387 280 390 277 390 272 L390 254 C390 249 387 247 382 247 L382 247 Z " />
<glyph glyph-name="emdash" unicode="&#x2014;" horiz-adv-x="632" d="M583 247 L50 247 C44 247 42 249 42 254 L42 272 C42 277 44 280 50 280 L583 280 C588 280 591 277 591 272 L591 254 C591 249 588 247 583 247 L583 247 Z " />
<glyph glyph-name="quoteleft" unicode="&#x2018;" horiz-adv-x="170" d="M61 607 L87 696 C88 701 91 703 96 703 L105 703 C111 703 112 699 111 694 L91 606 L107 606 C113 606 116 603 116 597 L116 537 C116 531 113 529 107 529 L68 529 C62 529 59 531 59 537 L59 596 C59 600 59 602 61 607 L61 607 Z " />
<glyph glyph-name="quoteright" unicode="&#x2019;" horiz-adv-x="170" d="M109 623 L83 533 C82 529 79 526 74 526 L66 526 C60 526 59 530 60 535 L79 623 L63 623 C57 623 54 626 54 632 L54 692 C54 698 57 701 63 701 L102 701 C108 701 111 698 111 692 L111 634 C111 629 111 628 109 623 L109 623 Z " />
<glyph glyph-name="quotesinglbase" unicode="&#x201a;" horiz-adv-x="170" d="M109 0 L83 -90 C82 -94 79 -97 74 -97 L66 -97 C60 -97 59 -93 60 -88 L79 0 L63 0 C57 0 54 3 54 9 L54 69 C54 75 57 78 63 78 L102 78 C108 78 111 75 111 69 L111 11 C111 6 111 5 109 0 L109 0 Z " />
<glyph glyph-name="quotedblleft" unicode="&#x201c;" horiz-adv-x="295" d="M185 607 L211 696 C213 701 215 703 221 703 L229 703 C235 703 236 699 235 694 L215 606 L231 606 C237 606 240 603 240 597 L240 537 C240 531 237 529 231 529 L192 529 C186 529 184 531 184 537 L184 596 C184 600 184 602 185 607 L185 607 Z M61 607 L87 696 C88 701 91 703 96 703 L105 703 C111 703 112 699 111 694 L91 606 L107 606 C113 606 116 603 116 597 L116 537 C116 531 113 529 107 529 L68 529 C62 529 59 531 59 537 L59 596 C59 600 59 602 61 607 L61 607 Z " />
<glyph glyph-name="quotedblright" unicode="&#x201d;" horiz-adv-x="295" d="M109 624 L83 534 C82 530 79 528 74 528 L66 528 C60 528 59 531 60 536 L79 625 L63 625 C57 625 54 627 54 633 L54 693 C54 699 57 701 63 701 L102 701 C108 701 111 699 111 693 L111 635 C111 630 110 628 109 624 L109 624 Z M234 624 L207 534 C206 530 204 528 198 528 L190 528 C184 528 183 531 184 536 L203 625 L187 625 C181 625 179 627 179 633 L179 693 C179 699 181 701 187 701 L227 701 C233 701 235 699 235 693 L235 635 C235 630 235 628 234 624 L234 624 Z " />
<glyph glyph-name="quotedblbase" unicode="&#x201e;" horiz-adv-x="295" d="M109 -1 L83 -91 C82 -95 79 -97 74 -97 L66 -97 C60 -97 59 -94 60 -89 L79 0 L63 0 C57 0 54 2 54 8 L54 68 C54 74 57 76 63 76 L102 76 C108 76 111 74 111 68 L111 10 C111 5 110 3 109 -1 L109 -1 Z M234 -1 L207 -91 C206 -95 204 -97 198 -97 L190 -97 C184 -97 183 -94 184 -89 L203 0 L187 0 C181 0 179 2 179 8 L179 68 C179 74 181 76 187 76 L227 76 C233 76 235 74 235 68 L235 10 C235 5 235 3 234 -1 L234 -1 Z " />
<glyph glyph-name="dagger" unicode="&#x2020;" horiz-adv-x="420" d="M378 508 L378 492 C378 486 375 483 369 483 L228 483 L228 -102 C228 -107 225 -110 220 -110 L200 -110 C194 -110 191 -107 191 -102 L191 483 L51 483 C45 483 42 486 42 492 L42 508 C42 514 45 516 51 516 L191 516 L191 692 C191 698 194 701 200 701 L220 701 C225 701 228 698 228 692 L228 516 L369 516 C375 516 378 514 378 508 L378 508 Z " />
<glyph glyph-name="daggerdbl" unicode="&#x2021;" horiz-adv-x="421" d="M378 99 L378 82 C378 76 376 74 370 74 L229 74 L229 -102 C229 -107 226 -110 220 -110 L201 -110 C195 -110 192 -107 192 -102 L192 74 L51 74 C45 74 42 76 42 82 L42 99 C42 105 45 107 51 107 L192 107 L192 483 L51 483 C45 483 42 486 42 492 L42 508 C42 514 45 516 51 516 L192 516 L192 692 C192 698 195 701 201 701 L220 701 C226 701 229 698 229 692 L229 516 L370 516 C376 516 378 514 378 508 L378 492 C378 486 376 483 370 483 L229 483 L229 107 L370 107 C376 107 378 105 378 99 L378 99 Z " />
<glyph glyph-name="bullet" unicode="&#x2022;" horiz-adv-x="325" d="M162 153 C98 153 50 200 50 266 C50 332 98 378 162 378 C227 378 274 332 274 266 C274 200 227 153 162 153 L162 153 Z " />
<glyph glyph-name="onedotenleader" unicode="&#x2024;" horiz-adv-x="178" d="M62 8 L62 69 C62 75 65 77 71 77 L107 77 C114 77 116 75 116 69 L116 8 C116 3 114 0 108 0 L70 0 C64 0 62 3 62 8 L62 8 Z " />
<glyph glyph-name="twodotenleader" unicode="&#x2025;" horiz-adv-x="354" d="M238 8 L238 69 C238 75 241 77 247 77 L283 77 C290 77 292 75 292 69 L292 8 C292 3 290 0 284 0 L246 0 C240 0 238 3 238 8 L238 8 Z M62 8 L62 69 C62 75 65 77 71 77 L107 77 C114 77 116 75 116 69 L116 8 C116 3 114 0 108 0 L70 0 C64 0 62 3 62 8 L62 8 Z " />
<glyph glyph-name="ellipsis" unicode="&#x2026;" horiz-adv-x="533" d="M62 8 L62 69 C62 75 65 77 71 77 L107 77 C114 77 116 75 116 69 L116 8 C116 3 114 0 108 0 L70 0 C64 0 62 3 62 8 L62 8 Z M240 8 L240 69 C240 75 243 77 248 77 L286 77 C291 77 293 75 293 69 L293 8 C293 3 291 0 286 0 L248 0 C242 0 240 3 240 8 L240 8 Z M418 8 L418 69 C418 75 420 77 426 77 L464 77 C469 77 471 75 471 69 L471 8 C471 3 469 0 464 0 L426 0 C420 0 418 3 418 8 L418 8 Z " />
<glyph glyph-name="perthousand" unicode="&#x2030;" horiz-adv-x="1098" d="M210 8 C207 2 204 0 197 0 L177 0 C170 0 168 4 172 10 L551 693 C554 698 557 701 564 701 L585 701 C590 701 593 697 590 691 L210 8 L210 8 Z M40 509 C40 638 88 707 174 707 C260 707 309 638 309 509 C309 380 260 312 174 312 C88 312 40 380 40 509 L40 509 Z M273 509 C273 619 239 675 174 675 C110 675 75 619 75 509 C75 399 110 344 174 344 C239 344 273 399 273 509 L273 509 Z M453 192 C453 321 501 389 587 389 C672 389 721 321 721 192 C721 63 672 -6 588 -6 C501 -6 453 63 453 192 L453 192 Z M687 192 C687 302 652 357 587 357 C522 357 487 302 487 192 C487 82 522 26 587 26 C652 26 687 82 687 192 L687 192 Z M790 192 C790 321 838 389 924 389 C1009 389 1058 321 1058 192 C1058 63 1009 -6 924 -6 C838 -6 790 63 790 192 L790 192 Z M1023 192 C1023 302 989 357 924 357 C859 357 824 302 824 192 C824 82 859 26 924 26 C989 26 1023 82 1023 192 L1023 192 Z " />
<glyph glyph-name="guilsinglleft" unicode="&#x2039;" horiz-adv-x="194" d="M38 261 C38 263 38 264 39 267 L108 398 C110 402 112 405 118 405 L137 405 C143 405 145 401 142 396 L73 261 L142 127 C145 122 143 118 137 118 L118 118 C112 118 110 120 108 124 L39 257 C38 259 38 260 38 261 L38 261 Z " />
<glyph glyph-name="guilsinglright" unicode="&#x203a;" horiz-adv-x="194" d="M156 261 C156 260 156 259 155 257 L87 124 C85 120 83 118 77 118 L57 118 C52 118 50 122 53 127 L121 261 L53 396 C50 401 52 405 57 405 L77 405 C83 405 85 402 87 398 L155 267 C156 264 156 263 156 261 L156 261 Z " />
<glyph glyph-name="exclamdbl" unicode="&#x203c;" horiz-adv-x="440" d="M84 8 L84 70 C84 75 87 77 93 77 L131 77 C137 77 140 75 140 70 L140 8 C140 3 137 0 131 0 L93 0 C87 0 84 3 84 8 L84 8 Z M120 183 L104 183 C99 183 96 186 96 191 L90 692 C90 698 93 701 98 701 L126 701 C131 701 134 698 134 692 L128 191 C128 186 125 183 120 183 L120 183 Z M300 8 L300 70 C300 75 303 77 309 77 L347 77 C353 77 356 75 356 70 L356 8 C356 3 353 0 347 0 L309 0 C303 0 300 3 300 8 L300 8 Z M336 183 L320 183 C315 183 312 186 312 191 L306 692 C306 698 309 701 314 701 L342 701 C347 701 350 698 350 692 L344 191 C344 186 341 183 336 183 L336 183 Z " />
<glyph glyph-name="fraction" unicode="&#x2044;" horiz-adv-x="65" d="M242 691 L-138 8 C-141 2 -144 0 -151 0 L-171 0 C-178 0 -180 4 -176 10 L203 693 C206 698 208 701 216 701 L236 701 C242 701 245 697 242 691 L242 691 Z " />
<glyph glyph-name="zero.superior" unicode="&#x2070;" horiz-adv-x="338" d="M170 482 C75 482 28 556 28 701 C28 846 75 920 170 920 C263 920 311 846 311 701 C311 556 264 482 170 482 L170 482 Z M170 514 C241 514 276 574 276 701 C276 828 241 888 170 888 C97 888 62 828 62 701 C62 574 97 514 170 514 L170 514 Z " />
<glyph glyph-name="four.superior" unicode="&#x2074;" horiz-adv-x="338" d="M226 862 L62 621 L226 621 L226 862 L226 862 Z M314 590 L260 590 L260 498 C260 491 257 488 251 488 L236 488 C229 488 226 491 226 498 L226 590 L32 590 C25 590 22 594 22 600 L22 613 C22 618 25 621 27 624 L224 907 C227 911 230 914 235 914 L251 914 C257 914 260 911 260 904 L260 621 L314 621 C320 621 324 619 324 612 L324 600 C324 593 320 590 314 590 L314 590 Z " />
<glyph glyph-name="five.superior" unicode="&#x2075;" horiz-adv-x="338" d="M289 617 C289 529 239 482 147 482 C105 482 67 491 50 499 C44 502 41 504 43 510 L47 523 C48 527 51 531 57 529 C76 521 109 513 146 513 C218 513 255 549 255 617 C255 676 233 718 161 718 C107 718 89 703 74 703 C70 703 67 702 64 705 L59 709 C55 712 52 714 52 719 C57 773 63 853 63 904 C63 910 67 914 74 914 L255 914 C261 914 264 911 264 904 L264 892 C264 885 261 883 255 883 L94 883 C93 837 89 778 85 733 C104 740 133 748 165 748 C256 748 289 691 289 617 L289 617 Z " />
<glyph glyph-name="six.superior" unicode="&#x2076;" horiz-adv-x="338" d="M258 879 C241 885 221 889 197 889 C113 889 71 830 74 690 C86 732 125 764 183 764 C271 764 308 702 308 626 C308 541 263 482 184 482 C87 482 39 554 39 696 C39 843 89 920 195 920 C223 920 249 916 265 908 C270 905 273 903 271 897 L267 884 C266 879 263 877 258 879 L258 879 Z M184 513 C242 513 275 559 275 625 C275 685 250 734 181 734 C121 734 83 691 83 624 C83 572 113 513 184 513 L184 513 Z " />
<glyph glyph-name="seven.superior" unicode="&#x2077;" horiz-adv-x="338" d="M291 893 C291 888 290 885 287 881 C219 784 142 613 139 497 C139 491 136 488 130 488 L113 488 C107 488 105 491 105 497 C107 615 182 780 253 883 L52 883 C46 883 43 885 43 892 L43 904 C43 911 46 914 52 914 L281 914 C288 914 291 911 291 904 L291 893 L291 893 Z " />
<glyph glyph-name="eight.superior" unicode="&#x2078;" horiz-adv-x="338" d="M170 482 C82 482 36 527 36 593 C36 657 79 693 130 709 C82 728 45 760 45 819 C45 877 87 920 170 920 C251 920 294 877 294 819 C294 760 256 728 209 709 C259 693 304 657 304 593 C304 527 256 482 170 482 L170 482 Z M170 695 C117 681 70 650 70 594 C70 546 105 512 170 512 C233 512 268 546 268 594 C268 650 221 681 170 695 L170 695 Z M170 723 C223 739 259 768 259 818 C259 861 228 891 170 891 C110 891 79 861 79 818 C79 768 116 739 170 723 L170 723 Z " />
<glyph glyph-name="nine.superior" unicode="&#x2079;" horiz-adv-x="338" d="M81 523 C96 517 118 512 142 512 C225 512 268 572 265 712 C252 670 213 638 155 638 C67 638 30 700 30 776 C30 861 75 920 155 920 C251 920 299 848 299 706 C299 557 249 482 143 482 C116 482 89 486 73 494 C68 497 66 500 68 505 L72 518 C73 523 75 525 81 523 L81 523 Z M155 889 C96 889 63 843 63 777 C63 717 89 668 157 668 C217 668 256 711 256 778 C256 830 225 889 155 889 L155 889 Z " />
<glyph glyph-name="parenleft.superior" unicode="&#x207d;" horiz-adv-x="185" d="M55 701 C55 793 95 865 132 919 C135 923 137 924 141 924 L158 924 C163 924 165 919 162 916 C114 863 90 786 90 701 C90 616 114 539 162 486 C165 483 163 478 158 478 L141 478 C137 478 135 479 132 483 C95 537 55 609 55 701 L55 701 Z " />
<glyph glyph-name="parenright.superior" unicode="&#x207e;" horiz-adv-x="185" d="M131 701 C131 609 99 532 54 483 C51 479 49 478 45 478 L27 478 C22 478 20 483 23 486 C70 540 96 616 96 701 C96 786 72 863 23 916 C20 920 22 924 27 924 L45 924 C49 924 51 923 54 919 C98 870 131 793 131 701 L131 701 Z " />
<glyph glyph-name="n.superior" unicode="&#x207f;" horiz-adv-x="397" d="M64 914 L79 914 C86 914 89 910 89 904 L89 839 C104 877 143 919 218 919 C303 919 342 864 342 782 L342 497 C342 491 339 488 333 488 L318 488 C311 488 308 491 308 497 L308 779 C308 845 281 887 214 887 C140 887 89 829 89 757 L89 497 C89 491 87 488 80 488 L64 488 C58 488 55 491 55 497 L55 904 C55 910 58 914 64 914 L64 914 Z " />
<glyph glyph-name="zero.inferior" unicode="&#x2080;" horiz-adv-x="338" d="M170 -219 C75 -219 28 -145 28 0 C28 145 75 219 170 219 C263 219 311 145 311 0 C311 -145 264 -219 170 -219 L170 -219 Z M170 -187 C241 -187 276 -127 276 0 C276 127 241 187 170 187 C97 187 62 127 62 0 C62 -127 97 -187 170 -187 L170 -187 Z " />
<glyph glyph-name="one.inferior" unicode="&#x2081;" horiz-adv-x="338" d="M177 166 L87 91 C82 87 78 88 74 93 L65 104 C61 109 62 113 66 116 L175 209 C178 211 182 213 187 213 L201 213 C207 213 210 210 210 203 L210 -203 C210 -210 207 -213 201 -213 L186 -213 C179 -213 177 -210 177 -203 L177 166 L177 166 Z " />
<glyph glyph-name="two.inferior" unicode="&#x2082;" horiz-adv-x="338" d="M77 110 C77 101 78 94 79 85 C79 79 76 76 70 76 L55 76 C50 76 48 78 46 84 C45 89 43 101 43 110 C43 170 75 219 164 219 C254 219 284 166 284 101 C284 -13 165 -119 91 -182 L284 -182 C290 -182 293 -184 293 -191 L293 -203 C293 -210 290 -213 284 -213 L50 -213 C44 -213 41 -210 41 -203 L41 -191 C41 -186 42 -184 46 -180 C123 -114 250 -4 250 100 C250 150 231 189 163 189 C98 189 77 153 77 110 L77 110 Z " />
<glyph glyph-name="three.inferior" unicode="&#x2083;" horiz-adv-x="338" d="M120 -6 C114 -6 110 -3 110 3 L110 15 C110 22 114 25 120 25 L156 25 C204 25 240 50 240 109 C240 163 207 188 143 188 C110 188 79 179 61 173 C54 170 50 173 49 177 L45 191 C44 196 46 198 52 201 C70 210 103 219 145 219 C230 219 274 183 274 110 C274 54 245 23 213 11 C248 3 284 -28 284 -94 C284 -178 234 -219 143 -219 C100 -219 62 -208 45 -200 C40 -198 37 -196 39 -190 L42 -177 C43 -172 47 -169 53 -171 C72 -179 104 -188 141 -188 C212 -188 249 -157 249 -94 C249 -27 208 -6 156 -6 L120 -6 L120 -6 Z " />
<glyph glyph-name="four.inferior" unicode="&#x2084;" horiz-adv-x="338" d="M226 161 L62 -80 L226 -80 L226 161 L226 161 Z M314 -111 L260 -111 L260 -203 C260 -210 257 -213 251 -213 L236 -213 C229 -213 226 -210 226 -203 L226 -111 L32 -111 C25 -111 22 -107 22 -101 L22 -88 C22 -83 25 -80 27 -77 L224 206 C227 210 230 213 235 213 L251 213 C257 213 260 210 260 203 L260 -80 L314 -80 C320 -80 324 -82 324 -89 L324 -101 C324 -108 320 -111 314 -111 L314 -111 Z " />
<glyph glyph-name="five.inferior" unicode="&#x2085;" horiz-adv-x="338" d="M289 -84 C289 -172 239 -219 147 -219 C105 -219 67 -210 50 -202 C44 -199 41 -197 43 -191 L47 -178 C48 -174 51 -170 57 -172 C76 -180 109 -188 146 -188 C218 -188 255 -152 255 -84 C255 -25 233 17 161 17 C107 17 89 2 74 2 C70 2 67 1 64 4 L59 8 C55 11 52 13 52 18 C57 72 63 152 63 203 C63 209 67 213 74 213 L255 213 C261 213 264 210 264 203 L264 191 C264 184 261 182 255 182 L94 182 C93 136 89 77 85 32 C104 39 133 47 165 47 C256 47 289 -10 289 -84 L289 -84 Z " />
<glyph glyph-name="six.inferior" unicode="&#x2086;" horiz-adv-x="338" d="M258 178 C241 184 221 188 197 188 C113 188 71 129 74 -11 C86 31 125 63 183 63 C271 63 308 1 308 -75 C308 -160 263 -219 184 -219 C87 -219 39 -147 39 -5 C39 142 89 219 195 219 C223 219 249 215 265 207 C270 204 273 202 271 196 L267 183 C266 178 263 176 258 178 L258 178 Z M184 -188 C242 -188 275 -142 275 -76 C275 -16 250 33 181 33 C121 33 83 -10 83 -77 C83 -129 113 -188 184 -188 L184 -188 Z " />
<glyph glyph-name="seven.inferior" unicode="&#x2087;" horiz-adv-x="338" d="M291 192 C291 187 290 184 287 180 C219 83 142 -88 139 -204 C139 -210 136 -213 130 -213 L113 -213 C107 -213 105 -210 105 -204 C107 -86 182 79 253 182 L52 182 C46 182 43 184 43 191 L43 203 C43 210 46 213 52 213 L281 213 C288 213 291 210 291 203 L291 192 L291 192 Z " />
<glyph glyph-name="eight.inferior" unicode="&#x2088;" horiz-adv-x="338" d="M170 -219 C82 -219 36 -174 36 -108 C36 -44 79 -8 130 8 C82 27 45 59 45 118 C45 176 87 219 170 219 C251 219 294 176 294 118 C294 59 256 27 209 8 C259 -8 304 -44 304 -108 C304 -174 256 -219 170 -219 L170 -219 Z M170 -6 C117 -20 70 -51 70 -107 C70 -155 105 -189 170 -189 C233 -189 268 -155 268 -107 C268 -51 221 -20 170 -6 L170 -6 Z M170 22 C223 38 259 67 259 117 C259 160 228 190 170 190 C110 190 79 160 79 117 C79 67 116 38 170 22 L170 22 Z " />
<glyph glyph-name="nine.inferior" unicode="&#x2089;" horiz-adv-x="338" d="M81 -178 C96 -184 118 -189 142 -189 C225 -189 268 -129 265 11 C252 -31 213 -63 155 -63 C67 -63 30 -1 30 75 C30 160 75 219 155 219 C251 219 299 147 299 5 C299 -144 249 -219 143 -219 C116 -219 89 -215 73 -207 C68 -204 66 -201 68 -196 L72 -183 C73 -178 75 -176 81 -178 L81 -178 Z M155 188 C96 188 63 142 63 76 C63 16 89 -33 157 -33 C217 -33 256 10 256 77 C256 129 225 188 155 188 L155 188 Z " />
<glyph glyph-name="parenleft.inferior" unicode="&#x208d;" horiz-adv-x="185" d="M55 0 C55 92 95 164 132 218 C135 222 137 223 141 223 L158 223 C163 223 165 218 162 215 C114 162 90 85 90 0 C90 -85 114 -162 162 -215 C165 -218 163 -223 158 -223 L141 -223 C137 -223 135 -222 132 -218 C95 -164 55 -92 55 0 L55 0 Z " />
<glyph glyph-name="parenright.inferior" unicode="&#x208e;" horiz-adv-x="185" d="M131 0 C131 -92 99 -169 54 -218 C51 -222 49 -223 45 -223 L27 -223 C22 -223 20 -218 23 -215 C70 -161 96 -85 96 0 C96 85 72 162 23 215 C20 219 22 223 27 223 L45 223 C49 223 51 222 54 218 C98 169 131 92 131 0 L131 0 Z " />
<glyph glyph-name="Euro" unicode="&#x20ac;" horiz-adv-x="535" d="M37 300 L109 300 C108 316 107 333 107 350 C107 367 108 387 109 400 L37 400 C31 400 29 403 29 408 L29 423 C29 429 31 432 37 432 L111 432 C128 607 210 710 369 710 C421 710 464 697 490 685 C496 683 498 680 496 674 L491 657 C489 652 484 649 478 652 C454 662 417 674 370 674 C233 674 166 585 151 432 L413 432 C419 432 421 428 420 423 L416 408 C415 402 411 400 406 400 L148 400 C147 384 147 367 147 350 C147 333 147 316 148 300 L375 300 C380 300 382 297 381 291 L377 277 C375 271 372 268 366 268 L151 268 C166 116 233 27 373 27 C422 27 458 41 483 50 C490 53 493 49 495 44 L502 27 C504 22 501 19 495 17 C468 6 425 -9 371 -9 C210 -9 129 94 111 268 L37 268 C31 268 29 271 29 277 L29 292 C29 298 31 300 37 300 L37 300 Z " />
<glyph glyph-name="afii61289" unicode="&#x2113;" horiz-adv-x="464" d="M262 27 C285 27 303 30 315 34 C321 36 324 33 325 28 L329 13 C331 7 327 5 320 3 C308 0 285 -5 260 -5 C180 -5 138 32 138 136 L138 231 C101 214 67 203 41 198 C37 197 33 198 31 203 L26 218 C24 223 27 227 32 228 C62 235 99 247 138 266 L138 483 C138 629 171 710 271 710 C347 710 387 655 387 560 C387 407 276 305 173 249 L173 140 C173 55 200 27 262 27 L262 27 Z M173 486 L173 284 C266 337 355 427 355 561 C355 642 326 679 272 679 C198 679 173 615 173 486 L173 486 Z " />
<glyph glyph-name="trademark" unicode="&#x2122;" horiz-adv-x="563" d="M210 673 L141 673 L141 384 C141 380 139 378 136 378 L118 378 C114 378 111 380 111 384 L111 673 L44 673 C40 673 37 675 37 679 L37 694 C37 698 40 701 44 701 L210 701 C213 701 215 698 215 694 L215 679 C215 675 213 673 210 673 L210 673 Z M387 475 C382 475 380 478 378 482 L291 653 L291 384 C291 380 288 378 285 378 L269 378 C264 378 262 380 262 384 L262 694 C262 698 264 701 269 701 L290 701 C293 701 295 700 297 696 L387 513 L479 696 C481 700 482 701 486 701 L507 701 C511 701 514 698 514 694 L514 384 C514 380 511 378 507 378 L490 378 C487 378 485 380 485 384 L485 653 L397 482 C395 478 393 475 387 475 L387 475 Z " />
<glyph glyph-name="Omega" unicode="&#x2126;" horiz-adv-x="649" d="M324 710 C518 710 593 577 593 413 C593 248 511 161 425 110 L425 34 L550 36 C556 36 559 33 559 28 L559 8 C559 3 556 0 550 0 L386 0 L386 116 C386 125 391 129 399 133 C491 183 553 278 553 412 C553 556 492 675 324 675 C156 675 96 556 96 412 C96 278 158 183 250 133 C257 129 263 125 263 116 L263 0 L99 0 C93 0 90 3 90 8 L90 28 C90 33 93 36 99 36 L224 34 L224 110 C137 161 55 248 55 413 C55 577 130 710 324 710 L324 710 Z " />
<glyph glyph-name="estimated" unicode="&#x212e;" horiz-adv-x="856" d="M820 335 L192 335 C189 335 187 334 187 331 L187 146 C187 131 190 123 195 117 C254 49 340 21 435 21 C538 21 624 57 687 130 L745 130 C673 46 562 -9 434 -9 C213 -9 40 152 40 349 C40 548 209 708 430 708 C651 708 820 548 820 349 L820 335 L820 335 Z M673 365 L673 551 C673 571 670 578 662 587 C601 647 525 678 431 678 C336 678 259 646 196 581 C191 576 187 567 187 552 L187 365 C187 362 189 359 192 359 L668 359 C672 359 673 362 673 365 L673 365 Z " />
<glyph glyph-name="onethird" unicode="&#x2153;" horiz-adv-x="808" d="M583 691 L203 8 C200 2 197 0 190 0 L170 0 C163 0 161 4 165 10 L544 693 C547 698 549 701 557 701 L577 701 C583 701 586 697 583 691 L583 691 Z M590 207 C584 207 580 210 580 216 L580 228 C580 235 584 238 590 238 L626 238 C674 238 710 263 710 322 C710 376 677 401 613 401 C580 401 549 392 531 386 C524 383 520 386 519 390 L515 404 C514 409 516 411 522 414 C540 423 573 432 615 432 C700 432 744 396 744 323 C744 267 715 236 683 224 C718 216 754 185 754 119 C754 35 704 -6 613 -6 C570 -6 532 5 515 13 C510 15 507 17 509 23 L512 36 C513 41 517 44 523 42 C542 34 574 25 611 25 C682 25 719 56 719 119 C719 186 678 207 626 207 L590 207 L590 207 Z M177 654 L87 579 C82 575 78 576 74 581 L65 592 C61 597 62 601 66 604 L175 697 C178 699 182 701 187 701 L201 701 C207 701 210 698 210 691 L210 285 C210 278 207 275 201 275 L186 275 C179 275 177 278 177 285 L177 654 L177 654 Z " />
<glyph glyph-name="twothirds" unicode="&#x2154;" horiz-adv-x="808" d="M77 598 C77 589 78 582 79 573 C79 567 76 564 70 564 L55 564 C50 564 48 566 46 572 C45 577 43 589 43 598 C43 658 75 707 164 707 C254 707 284 654 284 589 C284 475 165 369 91 306 L284 306 C290 306 293 304 293 297 L293 285 C293 278 290 275 284 275 L50 275 C44 275 41 278 41 285 L41 297 C41 302 42 304 46 308 C123 374 250 484 250 588 C250 638 231 677 163 677 C98 677 77 641 77 598 L77 598 Z M618 691 L238 8 C235 2 232 0 225 0 L205 0 C198 0 196 4 200 10 L579 693 C582 698 584 701 592 701 L612 701 C618 701 621 697 618 691 L618 691 Z M590 207 C584 207 580 210 580 216 L580 228 C580 235 584 238 590 238 L626 238 C674 238 710 263 710 322 C710 376 677 401 613 401 C580 401 549 392 531 386 C524 383 520 386 519 390 L515 404 C514 409 516 411 522 414 C540 423 573 432 615 432 C700 432 744 396 744 323 C744 267 715 236 683 224 C718 216 754 185 754 119 C754 35 704 -6 613 -6 C570 -6 532 5 515 13 C510 15 507 17 509 23 L512 36 C513 41 517 44 523 42 C542 34 574 25 611 25 C682 25 719 56 719 119 C719 186 678 207 626 207 L590 207 L590 207 Z " />
</font>
</svg>
