<?xml version="1.0" encoding="UTF-8"?>
<svg xmlns="http://www.w3.org/2000/svg" xmlns:xlink="http://www.w3.org/1999/xlink" version="1.2" >
<font id="Energi Pro Bold Italic">
<font-face  font-family="Energi Pro" units-per-em="1000" ascent="800" descent="-200" font-style="italic" font-weight="700" font-stretch="normal" slope="-25" cap-height="708" x-height="530" underline-position="-65" underline-thickness="70" />
<missing-glyph  horiz-adv-x="500" d="M30 0 L30 700 L470 700 L470 0 L30 0 L30 0 Z M271 350 L430 71 L430 628 L271 350 L271 350 Z M228 350 L70 628 L70 71 L228 350 L228 350 Z M95 660 L250 387 L405 660 L95 660 L95 660 Z M250 312 L95 40 L405 40 L250 312 L250 312 Z " />
<glyph glyph-name="NULL" d="" />
<glyph glyph-name="CR" unicode="&#xd;" horiz-adv-x="220" d="" />
<glyph glyph-name="space" unicode="&#x20;" horiz-adv-x="228" d="" />
<glyph glyph-name="exclam" unicode="&#x21;" horiz-adv-x="318" d="M303 708 L419 708 C435 708 442 691 435 677 L206 243 C197 226 186 218 166 218 L108 218 C89 218 84 237 90 249 L266 683 C273 700 284 708 303 708 L303 708 Z M48 144 L147 144 C166 144 171 125 165 112 L124 25 C116 8 107 0 86 0 L-12 0 C-31 0 -37 19 -30 32 L10 119 C18 136 28 144 48 144 L48 144 Z " />
<glyph glyph-name="quotedbl" unicode="&#x22;" horiz-adv-x="440" d="M313 723 L339 723 C391 723 382 683 337 607 L244 447 C236 433 229 430 211 430 L178 430 C164 430 157 442 162 457 L217 607 C243 682 264 723 313 723 L313 723 Z M515 723 L541 723 C593 723 584 683 539 607 L446 447 C438 433 431 430 413 430 L380 430 C366 430 359 442 364 457 L419 607 C445 682 466 723 515 723 L515 723 Z " />
<glyph glyph-name="numbersign" unicode="&#x23;" horiz-adv-x="718" d="M245 532 L337 532 L469 703 C478 713 489 716 503 711 L563 690 C576 685 579 672 570 660 L471 532 L599 532 L731 703 C740 713 751 715 765 711 L824 690 C838 685 840 672 832 660 L733 532 L787 532 C801 532 809 519 802 505 L777 449 C770 434 763 429 748 429 L654 429 L539 279 L592 279 C607 279 615 265 608 251 L583 195 C576 180 569 176 554 176 L460 176 L330 6 C321 -5 308 -7 294 -2 L238 17 C224 22 220 38 230 50 L326 176 L198 176 L68 6 C59 -5 47 -7 31 -2 L-24 17 C-38 22 -42 38 -32 50 L64 176 L11 176 C-4 176 -11 189 -5 203 L21 259 C28 274 35 279 50 279 L143 279 L258 429 L205 429 C191 429 183 443 190 457 L215 513 C222 528 229 532 245 532 L245 532 Z M392 429 L277 279 L405 279 L520 429 L392 429 L392 429 Z " />
<glyph glyph-name="dollar" unicode="&#x24;" horiz-adv-x="615" d="M533 808 L607 808 C623 808 629 792 624 780 L588 703 C642 697 685 685 708 675 C720 670 723 655 714 644 L662 581 C652 568 639 564 623 569 C597 579 545 589 487 589 C398 589 360 575 337 523 C331 512 329 501 329 492 C329 460 356 436 425 406 C504 374 546 335 546 268 C546 244 541 216 525 183 C470 66 392 16 262 3 L225 -77 C218 -92 206 -100 188 -100 L114 -100 C98 -100 91 -84 97 -72 L131 2 C57 8 -6 28 -32 40 C-46 47 -48 58 -40 68 L14 136 C23 148 35 150 51 144 C77 134 141 119 215 119 C300 119 349 136 376 193 C382 206 385 218 385 228 C385 261 360 285 287 316 C219 344 169 385 169 456 C169 478 174 504 188 536 C239 645 312 697 460 706 L496 785 C503 800 516 808 533 808 L533 808 Z " />
<glyph glyph-name="percent" unicode="&#x25;" horiz-adv-x="1005" d="M851 708 L922 708 C939 708 942 688 932 679 L272 20 C260 8 249 0 233 0 L162 0 C145 0 142 20 152 29 L812 688 C824 700 835 708 851 708 L851 708 Z M422 716 C511 716 553 674 553 612 C553 583 545 547 525 503 C464 373 384 313 260 313 C172 313 129 355 129 416 C129 446 137 483 158 526 C219 656 298 716 422 716 L422 716 Z M296 407 C345 407 372 435 407 509 C423 542 430 567 430 584 C430 607 417 622 386 622 C337 622 311 594 276 520 C261 486 253 462 253 444 C253 422 265 407 296 407 L296 407 Z M823 395 C912 395 955 353 955 291 C955 262 946 225 926 182 C865 52 785 -8 661 -8 C573 -8 530 34 530 95 C530 125 539 161 559 205 C620 335 699 395 823 395 L823 395 Z M697 86 C746 86 773 114 808 188 C824 221 831 246 831 263 C831 286 818 301 787 301 C738 301 712 273 677 199 C662 165 654 141 654 123 C654 101 667 86 697 86 L697 86 Z " />
<glyph glyph-name="ampersand" unicode="&#x26;" horiz-adv-x="772" d="M573 720 C700 720 750 678 750 619 C750 598 748 580 738 555 C723 517 706 492 675 492 L594 492 C579 492 573 505 578 515 C582 521 592 541 596 548 C612 583 600 601 546 601 C493 601 425 576 425 510 C425 492 432 477 443 456 L538 217 C563 242 582 270 596 299 C604 317 609 338 614 354 C619 369 625 373 642 373 L731 373 C746 373 753 364 751 350 C749 334 745 317 734 292 C701 214 647 152 583 105 L614 30 C620 15 614 0 593 0 L493 0 C471 0 463 7 458 18 L450 36 C378 4 310 -10 244 -10 C102 -10 4 35 4 145 C4 292 135 392 290 430 C284 447 280 464 280 488 C280 624 397 720 573 720 L573 720 Z M307 111 C341 111 377 118 411 132 L331 329 C243 310 176 268 176 184 C176 130 219 111 307 111 L307 111 Z " />
<glyph glyph-name="quotesingle" unicode="&#x27;" horiz-adv-x="234" d="M311 723 L337 723 C389 723 380 683 335 607 L242 447 C234 433 227 430 209 430 L176 430 C162 430 155 442 160 457 L215 607 C241 682 262 723 311 723 L311 723 Z " />
<glyph glyph-name="parenleft" unicode="&#x28;" horiz-adv-x="391" d="M473 728 L553 728 C566 728 574 710 559 699 C346 542 161 274 161 8 C161 -34 170 -76 182 -109 C188 -124 181 -138 159 -138 L76 -138 C63 -138 55 -133 52 -124 C33 -84 20 -23 20 36 C20 301 214 566 434 714 C447 723 456 728 473 728 L473 728 Z " />
<glyph glyph-name="parenright" unicode="&#x29;" horiz-adv-x="391" d="M-58 -138 L-138 -138 C-151 -138 -159 -120 -144 -109 C70 48 254 316 254 582 C254 624 246 666 233 699 C227 714 234 728 257 728 L339 728 C352 728 360 723 363 714 C383 674 395 613 395 554 C395 289 201 24 -19 -124 C-31 -133 -41 -138 -58 -138 L-58 -138 Z " />
<glyph glyph-name="asterisk" unicode="&#x2a;" horiz-adv-x="473" d="M445 718 C475 718 486 703 474 677 C461 648 423 601 404 566 C441 586 491 621 523 635 C549 647 570 641 573 618 C578 588 563 573 533 559 C501 545 449 536 411 521 C435 506 479 498 497 483 C513 472 509 450 482 425 C456 400 432 394 416 407 C398 422 381 457 362 477 C349 442 342 395 329 366 C315 336 294 325 262 325 C232 325 223 341 234 366 C248 395 284 442 304 477 C266 457 217 421 185 407 C155 394 136 402 135 424 C133 453 142 469 175 483 C206 497 259 506 298 521 C273 536 229 544 211 559 C194 572 199 593 225 618 C253 643 275 648 291 635 C310 621 326 586 346 566 C359 601 366 648 379 677 C392 707 413 718 445 718 L445 718 Z " />
<glyph glyph-name="plus" unicode="&#x2b;" horiz-adv-x="562" d="M142 413 L283 413 L352 561 C359 577 370 584 386 584 L463 584 C479 584 486 568 480 554 L414 413 L546 413 C562 413 570 397 563 384 L532 318 C525 302 514 295 498 295 L358 295 L289 147 C282 131 271 124 255 124 L179 124 C163 124 156 140 162 154 L228 295 L94 295 C78 295 71 311 77 324 L108 390 C115 406 127 413 142 413 L142 413 Z " />
<glyph glyph-name="comma" unicode="&#x2c;" horiz-adv-x="268" d="M21 144 L123 144 C140 144 147 127 140 113 L101 30 C95 17 91 12 83 3 L-35 -112 C-44 -120 -50 -124 -64 -124 L-96 -124 C-108 -124 -112 -110 -105 -101 L-14 0 L-38 0 C-56 0 -63 17 -57 30 L-15 119 C-7 136 5 144 21 144 L21 144 Z " />
<glyph glyph-name="hyphen" unicode="&#x2d;" horiz-adv-x="412" d="M117 378 L390 378 C408 378 414 361 408 349 L378 284 C370 267 359 259 341 259 L67 259 C49 259 44 276 50 288 L80 353 C88 370 99 378 117 378 L117 378 Z " />
<glyph glyph-name="period" unicode="&#x2e;" horiz-adv-x="268" d="M21 144 L123 144 C140 144 147 127 140 114 L99 24 C92 8 81 0 64 0 L-38 0 C-56 0 -62 17 -56 30 L-15 119 C-7 136 5 144 21 144 L21 144 Z " />
<glyph glyph-name="slash" unicode="&#x2f;" horiz-adv-x="458" d="M536 728 L629 728 C645 728 652 710 641 697 L39 -1 C27 -15 18 -20 2 -20 L-92 -20 C-108 -20 -115 -2 -105 11 L499 709 C511 723 520 728 536 728 L536 728 Z " />
<glyph glyph-name="zero" unicode="0" horiz-adv-x="722" d="M552 720 C687 720 757 658 757 549 C757 495 737 424 697 336 C578 79 440 -12 248 -12 C114 -12 44 50 44 159 C44 214 64 283 104 371 C223 629 358 720 552 720 L552 720 Z M295 111 C389 111 456 166 540 345 C577 425 594 481 594 519 C594 569 568 597 508 597 C412 597 346 542 263 363 C225 283 208 226 208 189 C208 138 235 111 295 111 L295 111 Z " />
<glyph glyph-name="one" unicode="1" horiz-adv-x="473" d="M442 708 L548 708 C566 708 573 689 566 676 L263 25 C255 8 245 0 225 0 L124 0 C105 0 99 19 106 32 L353 561 L201 503 C185 497 171 508 172 523 L181 592 C182 607 190 615 206 622 L400 698 C413 704 423 708 442 708 L442 708 Z " />
<glyph glyph-name="two" unicode="2" horiz-adv-x="644" d="M508 720 C645 720 713 669 713 579 C713 365 400 217 214 124 L491 124 C510 124 516 105 509 92 L478 25 C470 8 460 0 440 0 L-41 0 C-60 0 -65 19 -59 32 L-24 107 C-17 122 -8 129 10 137 C198 225 551 404 551 541 C551 583 523 597 461 597 C380 597 343 559 322 512 C311 491 307 474 301 460 C295 445 286 440 270 440 L176 440 C159 440 153 449 155 463 C156 476 165 499 173 517 C224 635 323 720 508 720 L508 720 Z " />
<glyph glyph-name="three" unicode="3" horiz-adv-x="613" d="M471 720 C613 720 680 683 680 598 C680 570 672 541 658 513 C624 441 568 384 503 369 L501 364 C532 350 551 321 551 285 C551 247 540 209 526 179 C471 56 340 -11 173 -11 C70 -11 -16 9 -51 28 C-63 34 -62 46 -55 55 L-1 125 C8 136 21 141 37 135 C67 124 117 112 193 112 C298 112 386 163 386 252 C386 291 352 299 286 299 L229 299 C210 299 203 315 210 330 L241 396 C248 413 259 419 281 419 L349 419 C431 419 507 465 507 546 C507 586 474 597 414 597 C350 597 291 586 255 576 C237 571 225 582 226 597 L236 663 C238 678 248 687 266 693 C317 710 376 720 471 720 L471 720 Z " />
<glyph glyph-name="four" unicode="4" horiz-adv-x="680" d="M503 526 L184 271 L388 271 L507 526 L503 526 L503 526 Z M604 708 L718 708 C737 708 743 689 736 676 L547 271 L620 271 C639 271 644 253 638 239 L608 175 C601 157 591 149 570 149 L490 149 L432 25 C425 8 415 0 394 0 L293 0 C274 0 269 19 275 32 L330 149 L8 149 C-11 149 -17 168 -10 181 L29 263 C34 275 42 284 54 292 L565 694 C578 704 587 708 604 708 L604 708 Z " />
<glyph glyph-name="five" unicode="5" horiz-adv-x="638" d="M308 708 L719 708 C738 708 744 689 737 676 L706 610 C699 593 689 584 668 584 L364 584 C343 543 307 470 282 425 C314 434 359 440 403 440 C532 440 587 390 587 316 C587 284 577 246 556 201 C485 44 390 -11 192 -11 C80 -11 -7 12 -44 30 C-56 36 -56 47 -48 56 L9 127 C18 139 29 143 45 137 C76 124 141 112 214 112 C310 112 361 132 399 214 C411 240 418 261 418 277 C418 310 387 328 327 328 C244 328 228 308 200 308 C194 308 189 309 183 310 L111 321 C99 323 94 333 102 346 C147 431 235 605 270 683 C278 700 288 708 308 708 L308 708 Z " />
<glyph glyph-name="six" unicode="6" horiz-adv-x="682" d="M571 720 C651 720 720 703 756 685 C768 678 768 667 760 658 L703 588 C695 578 684 574 668 580 C641 591 594 599 544 599 C419 599 353 547 287 424 C333 452 395 471 469 471 C586 471 638 411 638 336 C638 303 628 265 609 222 C540 71 427 -11 255 -11 C108 -11 39 59 39 157 C39 209 59 275 95 353 C212 605 334 720 571 720 L571 720 Z M281 107 C361 107 417 141 456 225 C469 254 475 277 475 294 C475 333 447 357 388 357 C307 357 250 321 212 237 C199 211 193 189 193 171 C193 131 225 107 281 107 L281 107 Z " />
<glyph glyph-name="seven" unicode="7" horiz-adv-x="591" d="M269 708 L722 708 C741 708 746 689 740 676 L704 598 C696 581 684 570 674 562 C507 414 327 230 185 24 C174 8 163 0 143 0 L41 0 C26 0 18 16 26 29 C174 255 383 454 533 579 L536 584 L217 584 C198 584 193 603 199 616 L231 683 C239 700 248 708 269 708 L269 708 Z " />
<glyph glyph-name="eight" unicode="8" horiz-adv-x="692" d="M538 720 C681 720 752 671 752 590 C752 566 745 538 731 506 C690 419 633 379 568 362 L565 356 C602 343 621 311 621 267 C621 244 616 216 600 183 C541 55 447 -11 243 -11 C84 -11 5 44 5 125 C5 151 11 180 26 213 C72 311 145 356 216 371 L219 377 C187 391 175 416 175 452 C175 475 182 503 198 536 C255 660 352 720 538 720 L538 720 Z M422 416 C508 416 544 442 574 507 C582 524 586 540 586 552 C586 584 558 604 496 604 C409 604 372 575 346 519 C336 498 331 481 331 467 C331 437 361 416 422 416 L422 416 Z M276 105 C374 105 418 135 447 197 C457 219 462 237 462 251 C462 285 426 307 357 307 C259 307 217 280 184 208 C175 190 171 174 171 161 C171 126 205 105 276 105 L276 105 Z " />
<glyph glyph-name="nine" unicode="9" horiz-adv-x="682" d="M191 -12 C111 -12 42 5 6 23 C-6 30 -6 41 2 50 L59 120 C67 130 78 134 94 128 C121 117 168 109 218 109 C343 109 408 160 475 284 C428 255 366 237 293 237 C176 237 124 297 124 372 C124 405 134 443 153 486 C222 637 335 719 507 719 C654 719 723 649 723 551 C723 499 703 433 667 355 C550 103 428 -12 191 -12 L191 -12 Z M481 601 C401 601 345 567 306 483 C293 454 287 431 287 414 C287 375 315 351 374 351 C455 351 512 387 550 471 C563 497 569 519 569 537 C569 577 537 601 481 601 L481 601 Z " />
<glyph glyph-name="colon" unicode="&#x3a;" horiz-adv-x="289" d="M211 530 L313 530 C330 530 337 513 330 500 L289 410 C282 394 271 386 254 386 L152 386 C134 386 128 403 134 416 L175 505 C183 522 195 530 211 530 L211 530 Z M31 144 L133 144 C150 144 157 127 150 114 L109 24 C102 8 91 0 74 0 L-28 0 C-46 0 -52 17 -46 30 L-5 119 C3 136 15 144 31 144 L31 144 Z " />
<glyph glyph-name="semicolon" unicode="&#x3b;" horiz-adv-x="289" d="M211 530 L313 530 C330 530 337 513 330 500 L289 410 C282 394 271 386 254 386 L152 386 C134 386 128 403 134 416 L175 505 C183 522 195 530 211 530 L211 530 Z M31 144 L133 144 C150 144 157 127 150 113 L111 30 C105 17 101 12 93 3 L-25 -112 C-34 -120 -40 -124 -54 -124 L-86 -124 C-98 -124 -102 -110 -95 -101 L-4 0 L-28 0 C-46 0 -53 17 -47 30 L-5 119 C3 136 15 144 31 144 L31 144 Z " />
<glyph glyph-name="less" unicode="&#x3c;" horiz-adv-x="562" d="M530 628 C543 636 558 635 566 624 L599 564 C605 554 601 544 590 537 L286 340 L392 167 C401 153 397 140 385 131 L312 83 C294 71 276 78 268 91 L120 327 C112 344 114 360 135 374 L530 628 L530 628 Z " />
<glyph glyph-name="equal" unicode="&#x3d;" horiz-adv-x="562" d="M200 515 L587 515 C604 515 609 498 603 486 L575 425 C567 408 556 400 538 400 L151 400 C134 400 128 417 134 430 L163 490 C170 507 182 515 200 515 L200 515 Z M103 308 L490 308 C507 308 513 291 507 278 L478 218 C471 201 459 193 441 193 L54 193 C37 193 31 210 37 222 L66 283 C74 300 85 308 103 308 L103 308 Z " />
<glyph glyph-name="greater" unicode="&#x3e;" horiz-adv-x="562" d="M506 333 L111 79 C98 71 82 72 75 83 L42 143 C36 153 40 163 51 170 L355 366 L249 540 C240 554 243 567 256 576 L329 624 C346 636 365 629 373 616 L521 380 C531 364 527 346 506 333 L506 333 Z " />
<glyph glyph-name="question" unicode="&#x3f;" horiz-adv-x="625" d="M496 720 C641 720 702 665 702 587 C702 403 429 332 386 259 L379 244 C371 225 359 218 340 218 L246 218 C230 218 222 233 229 248 L235 259 C305 405 535 419 535 548 C535 578 512 597 454 597 C369 597 335 559 314 512 C303 491 300 474 293 460 C287 445 277 440 260 440 L170 440 C153 440 145 447 147 463 C148 476 157 499 165 517 C214 628 305 720 496 720 L496 720 Z M204 144 L302 144 C321 144 327 125 320 112 L280 25 C272 8 262 0 242 0 L144 0 C125 0 119 19 125 32 L166 119 C174 136 183 144 204 144 L204 144 Z " />
<glyph glyph-name="at" unicode="&#x40;" horiz-adv-x="964" d="M661 621 C857 621 951 545 951 434 C951 389 938 337 911 278 C834 114 731 33 602 33 C539 33 513 62 515 106 L509 106 C459 58 396 35 328 35 C242 35 205 74 205 134 C205 155 210 180 224 208 C295 359 421 463 615 463 C682 463 746 447 771 432 C779 428 780 417 774 407 L622 176 C603 147 586 105 637 105 C698 105 777 184 828 294 C852 345 865 388 865 425 C865 504 801 549 645 549 C421 549 226 437 128 227 C103 172 90 126 90 88 C90 -11 175 -59 330 -59 C427 -59 500 -47 561 -28 C572 -24 580 -32 578 -41 L570 -82 C568 -91 563 -97 552 -101 C495 -117 420 -131 313 -131 C123 -131 2 -58 2 73 C2 121 15 178 46 244 C157 485 384 621 661 621 L661 621 Z M572 373 C468 373 397 303 351 203 C343 185 339 171 339 159 C339 138 353 125 384 125 C443 125 488 161 541 241 L624 366 C611 370 590 373 572 373 L572 373 Z " />
<glyph glyph-name="A" unicode="A" horiz-adv-x="705" d="M470 708 L638 708 C658 708 665 693 663 677 L575 33 C573 10 562 0 538 0 L446 0 C426 0 419 15 421 30 L440 157 L177 157 L66 18 C56 5 48 0 28 0 L-77 0 C-95 0 -101 21 -91 34 L432 690 C442 703 452 708 470 708 L470 708 Z M268 281 L464 281 L514 580 L499 580 L268 281 L268 281 Z " />
<glyph glyph-name="B" unicode="B" horiz-adv-x="711" d="M309 708 L569 708 C714 708 776 664 776 588 C776 546 761 503 733 466 C696 408 646 378 602 366 L600 361 C636 350 657 321 657 281 C657 228 642 181 609 139 C538 33 426 0 280 0 L-17 0 C-37 0 -43 19 -36 33 L267 683 C275 701 285 708 309 708 L309 708 Z M382 586 L304 419 L436 419 C507 419 552 430 586 479 C601 499 608 519 608 541 C608 577 578 586 511 586 L382 586 L382 586 Z M248 299 L166 121 L307 121 C384 121 428 134 463 182 C479 202 487 225 487 248 C487 288 456 299 383 299 L248 299 L248 299 Z " />
<glyph glyph-name="C" unicode="C" horiz-adv-x="636" d="M103 372 C225 633 349 719 572 719 C661 719 731 698 757 681 C768 674 769 660 762 651 L704 580 C694 568 680 565 665 572 C640 583 601 593 546 593 C414 593 341 535 259 358 C226 287 209 236 209 200 C209 143 250 115 333 115 C387 115 432 125 468 137 C484 143 499 132 496 117 L488 46 C487 30 476 22 458 15 C421 1 360 -11 284 -11 C135 -11 44 54 44 159 C44 212 62 283 103 372 L103 372 Z " />
<glyph glyph-name="D" unicode="D" horiz-adv-x="731" d="M309 708 L532 708 C681 708 761 646 761 544 C761 492 749 424 711 338 C600 86 471 0 253 0 L-17 0 C-37 0 -43 19 -36 33 L267 683 C275 701 285 708 309 708 L309 708 Z M381 584 L167 124 L284 124 C408 124 473 180 551 346 C583 415 599 465 599 500 C599 561 563 584 484 584 L381 584 L381 584 Z " />
<glyph glyph-name="E" unicode="E" horiz-adv-x="621" d="M309 708 L729 708 C748 708 755 689 748 675 L718 610 C709 591 700 584 676 584 L381 584 L305 420 L574 420 C593 420 600 401 593 386 L564 323 C555 305 546 298 522 298 L248 298 L166 124 L461 124 C480 124 487 105 480 90 L450 25 C441 7 432 0 408 0 L-17 0 C-37 0 -43 19 -36 33 L267 683 C275 701 285 708 309 708 L309 708 Z " />
<glyph glyph-name="F" unicode="F" horiz-adv-x="598" d="M309 708 L721 708 C740 708 747 689 740 675 L709 609 C700 590 691 583 667 583 L381 583 L293 394 L558 394 C577 394 583 375 577 360 L547 296 C539 277 529 271 505 271 L235 271 L120 25 C112 7 103 0 78 0 L-17 0 C-37 0 -43 19 -36 33 L267 683 C275 701 285 708 309 708 L309 708 Z " />
<glyph glyph-name="G" unicode="G" horiz-adv-x="718" d="M596 719 C703 719 776 693 802 677 C813 670 815 657 808 647 L751 578 C741 566 727 563 712 570 C688 582 634 593 569 593 C404 593 341 537 256 354 C224 286 208 236 208 200 C208 141 250 114 344 114 C378 114 410 117 439 125 L522 301 L425 301 C406 301 399 320 406 335 L434 394 C443 413 452 420 476 420 L687 420 C706 420 713 401 706 386 L552 56 C543 37 532 28 513 21 C457 1 377 -11 287 -11 C129 -11 41 51 41 160 C41 212 60 280 100 367 C223 633 350 719 596 719 L596 719 Z " />
<glyph glyph-name="H" unicode="H" horiz-adv-x="728" d="M309 708 L404 708 C424 708 430 689 423 675 L305 421 L564 421 L687 683 C696 701 705 708 729 708 L824 708 C844 708 851 689 843 675 L541 25 C532 6 523 0 498 0 L403 0 C384 0 377 19 384 33 L506 297 L247 297 L120 25 C111 7 102 0 78 0 L-17 0 C-37 0 -43 19 -36 33 L267 683 C275 701 285 708 309 708 L309 708 Z " />
<glyph glyph-name="I" unicode="I" horiz-adv-x="311" d="M312 708 L405 708 C425 708 431 689 424 675 L121 25 C113 7 103 0 79 0 L-14 0 C-34 0 -40 19 -33 33 L270 683 C278 701 287 708 312 708 L312 708 Z " />
<glyph glyph-name="J" unicode="J" horiz-adv-x="554" d="M556 708 L652 708 C671 708 678 689 671 675 L442 184 C373 36 288 -9 129 -9 C53 -9 -38 11 -65 29 C-74 35 -76 46 -69 54 L-10 129 C-1 140 11 142 25 136 C46 128 86 118 134 118 C213 118 265 150 301 226 L514 683 C523 701 532 708 556 708 L556 708 Z " />
<glyph glyph-name="K" unicode="K" horiz-adv-x="678" d="M700 708 L826 708 C843 708 849 683 837 674 L430 340 L537 36 C545 15 533 0 509 0 L414 0 C395 0 386 8 381 24 L289 295 L246 295 L120 25 C112 7 103 0 78 0 L-17 0 C-37 0 -43 19 -36 33 L267 683 C275 701 285 708 309 708 L404 708 C424 708 430 689 423 675 L306 425 L340 425 L666 697 C677 705 685 708 700 708 L700 708 Z " />
<glyph glyph-name="L" unicode="L" horiz-adv-x="572" d="M309 708 L404 708 C424 708 430 689 423 675 L167 125 L434 125 C454 125 461 106 453 91 L422 25 C414 7 404 0 380 0 L-16 0 C-36 0 -43 19 -36 33 L267 683 C275 701 285 708 309 708 L309 708 Z " />
<glyph glyph-name="M" unicode="M" horiz-adv-x="850" d="M309 708 L404 708 C423 708 431 702 433 689 L472 400 L479 400 L790 693 C802 703 813 708 832 708 L946 708 C966 708 973 689 965 675 L663 25 C654 7 645 0 620 0 L528 0 C508 0 501 19 508 33 L705 456 L701 456 L427 205 C418 195 407 189 393 189 C380 189 374 195 373 205 L328 465 L323 465 L118 25 C109 7 100 0 76 0 L-17 0 C-37 0 -43 19 -36 33 L267 683 C275 701 285 708 309 708 L309 708 Z " />
<glyph glyph-name="N" unicode="N" horiz-adv-x="745" d="M309 708 L417 708 C437 708 445 700 446 686 L493 235 L498 235 L706 683 C715 701 724 708 748 708 L841 708 C860 708 867 689 860 675 L557 25 C548 7 539 0 515 0 L406 0 C386 0 379 8 377 22 L331 473 L327 473 L118 25 C109 7 100 0 75 0 L-17 0 C-37 0 -43 19 -36 33 L267 683 C275 701 285 708 309 708 L309 708 Z " />
<glyph glyph-name="O" unicode="O" horiz-adv-x="753" d="M559 719 C711 719 792 657 792 554 C792 500 773 429 732 339 C612 82 491 -11 275 -11 C124 -11 42 52 42 155 C42 210 61 280 103 372 C221 628 343 719 559 719 L559 719 Z M308 113 C424 113 491 170 574 347 C610 424 628 478 628 515 C628 565 593 595 524 595 C408 595 342 538 260 361 C224 283 206 229 206 192 C206 142 239 113 308 113 L308 113 Z " />
<glyph glyph-name="P" unicode="P" horiz-adv-x="687" d="M309 708 L528 708 C692 708 754 660 754 568 C754 534 744 492 720 438 C647 268 553 210 344 210 L206 210 L120 25 C112 7 103 0 78 0 L-17 0 C-37 0 -43 19 -36 33 L267 683 C275 701 285 708 309 708 L309 708 Z M382 584 L264 333 L372 333 C476 333 522 355 565 452 C579 482 587 507 587 524 C587 567 554 584 479 584 L382 584 L382 584 Z " />
<glyph glyph-name="Q" unicode="Q" horiz-adv-x="753" d="M562 719 C708 719 793 660 793 553 C793 500 774 430 732 341 C645 154 545 55 423 15 C442 13 463 12 481 12 C500 12 514 14 526 14 C538 14 543 2 539 -6 L503 -84 C497 -98 487 -103 466 -103 C319 -103 242 -63 213 -3 C103 11 42 67 42 159 C42 212 61 282 102 372 C222 628 346 719 562 719 L562 719 Z M310 117 C426 117 495 177 575 350 C610 426 628 479 628 515 C628 565 593 595 524 595 C408 595 341 535 261 362 C226 286 208 233 208 197 C208 146 241 117 310 117 L310 117 Z " />
<glyph glyph-name="R" unicode="R" horiz-adv-x="691" d="M309 708 L536 708 C693 708 758 659 758 575 C758 541 748 497 727 450 C668 320 598 256 470 235 L522 35 C528 14 520 0 497 0 L400 0 C382 0 373 7 370 22 L318 227 L214 227 L120 25 C112 7 103 0 78 0 L-17 0 C-37 0 -43 19 -36 33 L267 683 C275 701 285 708 309 708 L309 708 Z M382 584 L271 348 L384 348 C488 348 533 378 571 460 C584 488 590 510 590 527 C590 566 553 584 478 584 L382 584 L382 584 Z " />
<glyph glyph-name="S" unicode="S" horiz-adv-x="611" d="M513 719 C602 719 682 699 716 684 C728 679 730 665 721 653 L669 588 C658 575 646 571 628 576 C602 586 548 596 488 596 C397 596 359 581 335 527 C329 515 326 504 326 495 C326 462 354 439 424 408 C504 375 549 337 549 267 C549 242 544 213 528 180 C461 37 366 -11 180 -11 C82 -11 -12 15 -45 31 C-59 38 -60 49 -52 60 L3 129 C13 142 24 144 41 138 C68 128 134 112 209 112 C296 112 346 131 374 189 C380 203 383 215 383 225 C383 259 358 283 283 314 C214 343 163 384 163 456 C163 480 166 507 181 539 C240 665 323 719 513 719 L513 719 Z " />
<glyph glyph-name="T" unicode="T" horiz-adv-x="601" d="M265 708 L740 708 C760 708 767 689 760 675 L729 609 C720 590 711 583 687 583 L527 583 L267 25 C258 7 249 0 225 0 L130 0 C110 0 103 19 111 33 L367 583 L212 583 C192 583 186 602 193 617 L223 683 C232 701 241 708 265 708 L265 708 Z " />
<glyph glyph-name="U" unicode="U" horiz-adv-x="728" d="M306 708 L402 708 C421 708 428 689 421 675 L228 261 C183 165 199 115 301 115 C394 115 441 151 486 247 L688 683 C697 701 706 708 731 708 L826 708 C845 708 852 689 845 675 L631 216 C553 49 462 -11 269 -11 C68 -11 -8 97 68 261 L264 683 C273 701 282 708 306 708 L306 708 Z " />
<glyph glyph-name="V" unicode="V" horiz-adv-x="675" d="M248 708 L337 708 C357 708 365 693 362 678 L260 133 L270 133 L681 690 C690 703 699 708 719 708 L830 708 C848 708 853 687 843 674 L341 18 C331 5 321 0 303 0 L130 0 C111 0 103 15 105 31 L211 675 C214 698 224 708 248 708 L248 708 Z " />
<glyph glyph-name="W" unicode="W" horiz-adv-x="1097" d="M253 708 L346 708 C367 708 374 695 370 678 L251 156 L259 156 L650 690 C660 703 670 708 687 708 L809 708 C826 708 837 696 834 680 L723 155 L731 155 L1108 690 C1119 704 1128 708 1145 708 L1246 708 C1264 708 1269 690 1259 675 L786 22 C776 7 762 0 739 0 L590 0 C571 0 561 16 564 32 L671 508 L661 508 L312 22 C302 7 288 0 265 0 L110 0 C91 0 81 16 84 32 L218 678 C223 698 233 708 253 708 L253 708 Z " />
<glyph glyph-name="X" unicode="X" horiz-adv-x="679" d="M250 708 L348 708 C367 708 374 702 377 688 L422 475 L427 475 L674 693 C686 704 694 708 713 708 L823 708 C842 708 844 684 833 674 L465 358 L541 32 C545 14 536 0 514 0 L416 0 C397 0 390 6 387 20 L338 242 L333 242 L77 15 C65 4 56 0 38 0 L-72 0 C-91 0 -93 24 -82 34 L297 361 L223 676 C219 694 228 708 250 708 L250 708 Z " />
<glyph glyph-name="Y" unicode="Y" horiz-adv-x="658" d="M234 708 L325 708 C347 708 356 696 357 680 L377 410 L382 410 L661 689 C674 702 685 708 705 708 L816 708 C837 708 840 684 827 672 L403 254 L296 25 C287 7 278 0 253 0 L158 0 C139 0 132 19 139 33 L244 259 L205 672 C203 692 210 708 234 708 L234 708 Z " />
<glyph glyph-name="Z" unicode="Z" horiz-adv-x="644" d="M299 708 L753 708 C772 708 779 689 772 675 L738 601 C732 588 725 580 712 570 L184 131 L182 125 L484 125 C504 125 510 106 503 91 L473 25 C464 7 455 0 430 0 L-34 0 C-54 0 -61 19 -54 33 L-18 109 C-11 124 -2 132 11 143 L533 577 L536 583 L246 583 C226 583 219 602 226 617 L257 683 C266 701 275 708 299 708 L299 708 Z " />
<glyph glyph-name="bracketleft" unicode="&#x5b;" horiz-adv-x="384" d="M324 728 L538 728 C555 728 562 711 556 698 L529 640 C521 623 511 615 492 615 L393 615 L95 -25 L186 -25 C204 -25 211 -42 205 -55 L177 -113 C170 -130 160 -138 141 -138 L-73 -138 C-91 -138 -97 -121 -91 -108 L287 703 C295 720 305 728 324 728 L324 728 Z " />
<glyph glyph-name="backslash" unicode="&#x5c;" horiz-adv-x="458" d="M179 9 L220 699 C220 719 233 728 253 728 L334 728 C352 728 360 717 359 701 L318 11 C317 -11 305 -20 283 -20 L204 -20 C185 -20 178 -9 179 9 L179 9 Z " />
<glyph glyph-name="bracketright" unicode="&#x5d;" horiz-adv-x="384" d="M85 -138 L-129 -138 C-146 -138 -153 -121 -147 -108 L-120 -50 C-113 -33 -103 -25 -84 -25 L15 -25 L313 615 L222 615 C204 615 198 632 204 645 L231 703 C238 720 248 728 267 728 L481 728 C499 728 506 711 499 698 L121 -113 C114 -130 104 -138 85 -138 L85 -138 Z " />
<glyph glyph-name="asciicircum" unicode="&#x5e;" horiz-adv-x="562" d="M434 708 L532 708 C550 708 559 698 561 684 L588 413 C590 394 580 385 561 385 L482 385 C465 385 458 394 456 409 L438 584 L250 399 C237 387 231 385 211 385 L124 385 C105 385 100 406 112 417 L390 689 C403 702 414 708 434 708 L434 708 Z " />
<glyph glyph-name="underscore" unicode="&#x5f;" horiz-adv-x="493" d="M-152 -60 L340 -60 L301 -142 L-191 -142 L-152 -60 L-152 -60 Z " />
<glyph glyph-name="grave" unicode="&#x60;" horiz-adv-x="393" d="M292 750 L387 750 C404 750 411 742 412 730 L425 628 C426 615 420 606 403 606 L344 606 C328 606 323 611 317 623 L270 722 C265 735 272 750 292 750 L292 750 Z " />
<glyph glyph-name="a" unicode="a" horiz-adv-x="593" d="M404 541 C532 541 593 503 593 431 C593 405 584 376 569 341 L421 25 C413 8 403 0 384 0 L286 0 C273 0 268 12 271 24 L281 55 L277 55 C235 17 181 -8 105 -8 C17 -8 -31 28 -31 90 C-31 269 163 317 400 316 L415 349 C422 365 426 377 426 387 C426 417 397 429 344 429 C284 429 235 417 193 406 C177 402 163 414 166 427 L176 486 C177 501 185 508 203 514 C253 529 319 541 404 541 L404 541 Z M361 234 C245 238 132 216 132 136 C132 106 155 96 194 96 C264 96 316 134 340 188 L361 234 L361 234 Z " />
<glyph glyph-name="b" unicode="b" horiz-adv-x="645" d="M292 708 L395 708 C412 708 417 691 411 680 L320 486 L323 486 C364 520 410 541 481 541 C578 541 629 488 629 404 C629 363 621 311 592 246 C511 65 410 -11 260 -11 C192 -11 138 14 117 48 L113 48 L96 20 C88 6 79 0 60 0 L-34 0 C-51 0 -55 17 -50 28 L256 683 C263 700 273 708 292 708 L292 708 Z M219 272 C196 224 185 188 185 163 C185 123 208 103 259 103 C338 103 384 146 437 258 C461 307 472 343 472 368 C472 407 449 427 398 427 C319 427 273 389 219 272 L219 272 Z " />
<glyph glyph-name="c" unicode="c" horiz-adv-x="525" d="M48 279 C132 466 237 541 422 541 C495 541 554 526 578 509 C589 501 587 489 580 480 L532 421 C523 409 509 406 493 412 C473 420 437 426 403 426 C312 426 260 392 204 273 C182 226 171 192 171 167 C171 127 200 104 262 104 C299 104 331 112 358 120 C379 126 388 113 387 101 L379 39 C377 27 370 18 351 12 C318 -1 271 -11 205 -11 C76 -11 10 46 10 135 C10 174 22 223 48 279 L48 279 Z " />
<glyph glyph-name="d" unicode="d" horiz-adv-x="645" d="M656 708 L758 708 C775 708 780 691 774 680 L469 25 C461 8 451 0 432 0 L334 0 C319 0 315 12 318 24 L326 48 L322 48 C278 9 232 -11 164 -11 C65 -11 12 43 12 126 C12 167 20 219 49 284 C131 465 232 541 380 541 C451 541 501 519 524 486 L527 486 L619 683 C627 700 636 708 656 708 L656 708 Z M423 257 C446 306 457 342 457 367 C457 406 433 427 382 427 C302 427 258 385 205 273 C181 223 170 187 170 162 C170 123 194 103 245 103 C323 103 368 141 423 257 L423 257 Z " />
<glyph glyph-name="e" unicode="e" horiz-adv-x="589" d="M411 541 C574 541 622 434 554 287 L529 232 C521 217 512 211 492 211 L177 211 C171 192 169 177 169 164 C169 116 203 94 275 94 C323 94 361 107 393 118 C412 124 423 113 423 100 L417 46 C416 33 409 25 391 18 C357 3 299 -11 223 -11 C82 -11 11 50 11 140 C11 178 23 224 49 281 C133 467 247 541 411 541 L411 541 Z M378 436 C305 436 267 406 217 306 L421 306 L427 318 C462 395 444 436 378 436 L378 436 Z " />
<glyph glyph-name="f" unicode="f" horiz-adv-x="372" d="M163 530 L208 530 L227 570 C281 686 337 719 466 719 C496 719 536 715 551 709 C562 704 563 693 559 682 L529 620 C524 610 514 604 498 605 C487 605 470 607 457 607 C412 607 391 593 368 542 L362 530 L448 530 C466 530 470 513 465 502 L437 442 C429 425 419 417 400 417 L309 417 L126 25 C119 8 109 0 90 0 L-9 0 C-26 0 -31 17 -25 28 L156 417 L115 417 C97 417 93 434 98 446 L126 505 C134 522 144 530 163 530 L163 530 Z " />
<glyph glyph-name="g" unicode="g" horiz-adv-x="636" d="M381 541 C449 541 496 519 515 482 L519 482 L537 511 C545 524 552 530 569 530 L667 530 C684 530 688 513 683 502 L475 58 C416 -69 333 -124 154 -124 C65 -124 -29 -105 -63 -85 C-75 -79 -74 -68 -68 -60 L-19 3 C-10 14 0 17 16 11 C47 -1 94 -13 154 -13 C241 -13 300 14 333 85 L345 111 L341 111 C295 75 249 57 185 57 C89 57 33 111 33 187 C33 221 43 263 65 311 C137 465 243 541 381 541 L381 541 Z M217 302 C201 267 193 239 193 219 C193 186 216 163 266 163 C338 163 389 203 430 290 C446 324 453 351 453 371 C453 405 429 429 380 429 C307 429 258 390 217 302 L217 302 Z " />
<glyph glyph-name="h" unicode="h" horiz-adv-x="624" d="M292 708 L395 708 C412 708 417 691 411 680 L317 480 L319 480 C360 511 411 539 491 539 C628 539 647 445 585 310 L451 25 C444 8 434 0 415 0 L313 0 C295 0 291 17 296 28 L429 313 C463 384 455 421 386 421 C313 421 269 376 233 299 L105 25 C98 8 88 0 69 0 L-34 0 C-51 0 -55 17 -50 28 L256 683 C263 700 273 708 292 708 L292 708 Z " />
<glyph glyph-name="i" unicode="i" horiz-adv-x="282" d="M293 708 L394 708 C411 708 416 691 410 680 L377 608 C369 591 360 583 341 583 L239 583 C222 583 217 600 223 611 L257 683 C264 700 274 708 293 708 L293 708 Z M210 530 L311 530 C329 530 333 513 328 502 L105 25 C98 8 88 0 69 0 L-33 0 C-50 0 -55 17 -49 28 L174 505 C181 522 191 530 210 530 L210 530 Z " />
<glyph glyph-name="j" unicode="j" horiz-adv-x="285" d="M297 708 L398 708 C415 708 420 691 414 680 L381 608 C373 591 364 583 345 583 L243 583 C226 583 221 600 227 611 L261 683 C268 700 278 708 297 708 L297 708 Z M214 530 L313 530 C330 530 335 513 330 502 L95 0 C46 -105 7 -126 -88 -126 C-118 -126 -151 -121 -165 -114 C-175 -110 -178 -101 -174 -91 L-141 -22 C-136 -11 -127 -7 -112 -7 C-103 -7 -98 -8 -88 -8 C-68 -8 -58 0 -46 28 L178 505 C185 522 195 530 214 530 L214 530 Z " />
<glyph glyph-name="k" unicode="k" horiz-adv-x="590" d="M540 530 L661 530 C679 530 682 507 672 499 L369 255 L456 32 C463 15 452 0 430 0 L334 0 C318 0 310 7 306 18 L235 210 L191 210 L105 25 C98 8 88 0 69 0 L-34 0 C-51 0 -55 17 -50 28 L256 683 C263 700 273 708 292 708 L395 708 C412 708 417 691 411 680 L245 326 L270 326 L505 517 C516 526 523 530 540 530 L540 530 Z " />
<glyph glyph-name="l" unicode="l" horiz-adv-x="282" d="M293 708 L394 708 C412 708 416 691 411 680 L105 25 C98 8 88 0 69 0 L-33 0 C-50 0 -55 17 -49 28 L257 683 C264 700 274 708 293 708 L293 708 Z " />
<glyph glyph-name="m" unicode="m" horiz-adv-x="952" d="M209 530 L300 530 C318 530 324 516 320 503 L311 472 L313 472 C357 506 412 539 487 539 C560 539 604 512 613 464 L620 464 C666 505 728 539 814 539 C950 539 980 452 921 325 L780 25 C773 8 763 0 744 0 L642 0 C624 0 620 17 625 28 L759 315 C792 386 784 421 719 421 C650 421 610 383 575 308 L443 25 C435 8 425 0 406 0 L304 0 C287 0 282 17 288 28 L421 315 C455 386 446 421 381 421 C318 421 273 385 238 310 L105 25 C98 8 88 0 69 0 L-34 0 C-51 0 -55 17 -50 28 L173 505 C180 522 190 530 209 530 L209 530 Z " />
<glyph glyph-name="n" unicode="n" horiz-adv-x="624" d="M209 530 L304 530 C320 530 326 519 322 508 L311 472 L313 472 C356 507 411 539 492 539 C625 539 646 444 584 310 L451 25 C444 8 434 0 415 0 L313 0 C295 0 291 17 296 28 L429 313 C464 386 454 421 384 421 C312 421 269 376 233 299 L105 25 C98 8 88 0 69 0 L-34 0 C-51 0 -55 17 -50 28 L173 505 C180 522 190 530 209 530 L209 530 Z " />
<glyph glyph-name="o" unicode="o" horiz-adv-x="629" d="M420 541 C542 541 615 487 615 395 C615 355 602 305 574 246 C492 66 388 -11 206 -11 C83 -11 10 43 10 135 C10 175 24 225 51 284 C133 464 238 541 420 541 L420 541 Z M244 103 C322 103 367 138 422 256 C445 305 456 341 456 366 C456 405 433 427 382 427 C303 427 258 392 204 274 C181 225 169 189 169 164 C169 125 193 103 244 103 L244 103 Z " />
<glyph glyph-name="p" unicode="p" horiz-adv-x="645" d="M209 530 L305 530 C322 530 326 518 322 506 L315 482 L318 482 C360 519 410 541 481 541 C577 541 630 487 630 404 C630 363 621 311 592 246 C510 65 414 -11 260 -11 C194 -11 143 12 119 44 L114 44 L38 -120 C30 -137 20 -145 1 -145 L-101 -145 C-118 -145 -123 -129 -118 -117 L173 505 C180 522 190 530 209 530 L209 530 Z M219 273 C196 224 185 188 185 163 C185 124 208 103 260 103 C339 103 383 145 437 257 C460 307 471 343 471 368 C471 407 448 427 397 427 C318 427 273 389 219 273 L219 273 Z " />
<glyph glyph-name="q" unicode="q" horiz-adv-x="645" d="M578 530 L675 530 C692 530 697 513 691 502 L414 -93 C406 -110 396 -118 377 -118 L275 -118 C258 -118 253 -101 258 -90 L320 44 L318 44 C275 8 233 -11 164 -11 C65 -11 13 42 13 126 C13 167 20 219 49 284 C130 465 236 541 380 541 C453 541 504 517 526 482 L529 482 L547 512 C554 525 561 530 578 530 L578 530 Z M423 258 C446 306 457 342 457 367 C457 407 434 427 383 427 C303 427 258 384 204 272 C181 223 170 187 170 162 C170 123 193 103 244 103 C322 103 368 141 423 258 L423 258 Z " />
<glyph glyph-name="r" unicode="r" horiz-adv-x="423" d="M209 530 L304 530 C321 530 326 516 321 505 L307 463 L308 463 C356 505 409 534 494 534 C513 534 518 519 513 508 L469 416 C463 404 451 399 436 399 L393 399 C314 399 255 346 220 270 L105 25 C98 8 88 0 69 0 L-34 0 C-51 0 -55 17 -50 28 L173 505 C180 522 190 530 209 530 L209 530 Z " />
<glyph glyph-name="s" unicode="s" horiz-adv-x="506" d="M370 541 C442 541 512 526 542 513 C554 508 553 496 547 488 L501 428 C493 418 481 414 466 419 C441 428 396 435 353 435 C296 435 271 425 255 392 C252 384 250 377 250 371 C250 347 273 326 322 308 C389 283 420 256 420 202 C420 182 415 159 403 130 C353 18 262 -11 131 -11 C48 -11 -29 6 -58 21 C-69 26 -71 36 -64 45 L-16 106 C-8 116 4 119 18 114 C42 104 90 95 143 95 C207 95 236 105 253 140 C258 150 260 158 260 164 C260 188 239 204 191 221 C129 243 91 273 91 333 C91 352 94 374 107 402 C150 499 222 541 370 541 L370 541 Z " />
<glyph glyph-name="t" unicode="t" horiz-adv-x="401" d="M161 530 L214 530 L265 639 C273 656 283 664 302 664 L393 664 C410 664 415 647 409 636 L359 530 L458 530 C475 530 480 513 474 502 L446 442 C439 425 429 417 410 417 L307 417 L193 173 C170 122 177 108 223 108 C236 108 255 111 266 111 C282 111 288 102 281 88 L253 28 C245 12 236 5 220 1 C203 -4 175 -7 148 -7 C16 -7 -20 45 35 163 L153 417 L113 417 C95 417 91 434 96 446 L124 505 C132 522 142 530 161 530 L161 530 Z " />
<glyph glyph-name="u" unicode="u" horiz-adv-x="623" d="M205 530 L308 530 C325 530 330 513 324 502 L187 210 C155 141 171 109 230 109 C298 109 351 157 381 221 L514 505 C522 522 531 530 551 530 L652 530 C670 530 674 513 669 502 L447 25 C439 8 429 0 410 0 L317 0 C300 0 294 15 298 28 L309 58 L306 58 C266 23 213 -9 135 -9 C1 -9 -30 79 32 213 L169 505 C176 522 186 530 205 530 L205 530 Z " />
<glyph glyph-name="v" unicode="v" horiz-adv-x="561" d="M157 530 L252 530 C270 530 277 515 274 501 L207 140 L215 140 L488 508 C500 523 511 530 528 530 L636 530 C655 530 660 510 647 495 L272 22 C260 7 250 0 223 0 L88 0 C68 0 60 13 62 31 L125 502 C128 523 138 530 157 530 L157 530 Z " />
<glyph glyph-name="w" unicode="w" horiz-adv-x="893" d="M166 530 L254 530 C274 530 280 517 277 502 L203 152 L210 152 L465 508 C477 524 489 530 508 530 L615 530 C635 530 641 517 638 501 L565 152 L573 152 L827 510 C838 526 849 530 869 530 L962 530 C981 530 984 511 974 498 L617 21 C604 5 595 0 570 0 L446 0 C428 0 420 14 423 29 L496 362 L489 362 L248 22 C237 6 224 0 201 0 L72 0 C54 0 47 14 50 28 L133 502 C136 523 149 530 166 530 L166 530 Z " />
<glyph glyph-name="x" unicode="x" horiz-adv-x="572" d="M164 530 L259 530 C279 530 287 521 290 507 L325 370 L331 370 L494 516 C507 527 516 530 534 530 L634 530 C653 530 656 506 645 497 L371 261 L436 29 C441 12 433 0 411 0 L314 0 C294 0 287 9 284 23 L248 168 L243 168 L65 14 C52 3 43 0 25 0 L-73 0 C-93 0 -95 24 -85 33 L200 277 L139 501 C134 518 142 530 164 530 L164 530 Z " />
<glyph glyph-name="y" unicode="y" horiz-adv-x="555" d="M159 530 L252 530 C270 530 277 517 276 501 L235 175 L241 175 L491 515 C500 527 509 530 525 530 L629 530 C648 530 652 508 642 496 L264 20 C184 -81 137 -128 10 -128 C-31 -128 -70 -122 -85 -115 C-98 -109 -99 -97 -94 -88 L-63 -22 C-58 -11 -49 -8 -33 -8 C-18 -8 -6 -11 24 -11 C71 -11 90 10 93 52 L128 501 C129 522 140 530 159 530 L159 530 Z " />
<glyph glyph-name="z" unicode="z" horiz-adv-x="531" d="M203 530 L570 530 C587 530 592 513 586 502 L553 432 C547 419 539 410 526 401 L168 118 L166 113 L379 113 C396 113 401 96 395 84 L368 25 C360 8 350 0 331 0 L-48 0 C-65 0 -70 17 -64 28 L-36 89 C-31 101 -22 110 -12 118 L360 412 L363 417 L155 417 C138 417 133 434 138 446 L167 505 C174 522 184 530 203 530 L203 530 Z " />
<glyph glyph-name="braceleft" unicode="&#x7b;" horiz-adv-x="417" d="M486 728 L571 728 C589 728 595 711 589 697 L561 638 C554 622 543 615 524 615 L483 615 C431 615 408 573 372 493 C312 359 255 310 189 294 L187 289 C235 271 243 224 187 97 C151 16 133 -25 185 -25 L220 -25 C238 -25 244 -42 238 -56 L210 -115 C203 -131 192 -138 172 -138 L117 -138 C-24 -138 -36 -64 34 82 C88 197 86 236 45 236 L35 236 C19 236 15 250 21 263 L54 334 C60 348 69 354 87 354 L100 354 C141 354 179 392 232 508 C304 664 346 728 486 728 L486 728 Z " />
<glyph glyph-name="bar" unicode="&#x7c;" horiz-adv-x="354" d="M133 728 L221 728 C239 728 249 718 249 700 L249 -110 C249 -128 239 -138 221 -138 L133 -138 C115 -138 105 -128 105 -110 L105 700 C105 718 115 728 133 728 L133 728 Z " />
<glyph glyph-name="braceright" unicode="&#x7d;" horiz-adv-x="417" d="M-45 -138 L-130 -138 C-148 -138 -154 -121 -148 -107 L-120 -48 C-113 -32 -102 -25 -83 -25 L-42 -25 C10 -25 33 17 69 97 C129 231 186 280 252 296 L254 301 C206 319 198 366 254 493 C290 574 308 615 256 615 L221 615 C203 615 197 632 203 646 L231 705 C238 721 249 728 268 728 L324 728 C465 728 476 654 407 508 C353 393 354 354 395 354 L406 354 C421 354 426 340 420 327 L387 256 C381 242 371 236 353 236 L341 236 C300 236 262 198 209 82 C136 -74 95 -138 -45 -138 L-45 -138 Z " />
<glyph glyph-name="asciitilde" unicode="&#x7e;" horiz-adv-x="562" d="M253 443 C286 443 308 437 340 420 L370 405 C391 394 411 386 429 386 C451 386 462 392 480 410 L498 429 C509 440 520 442 533 436 L568 419 C581 414 584 404 576 389 C538 321 472 275 392 275 C360 275 338 281 306 298 L275 313 C254 324 234 332 216 332 C194 332 183 326 166 308 L150 292 C138 279 126 275 114 281 L75 300 C65 305 62 314 69 328 C108 397 174 443 253 443 L253 443 Z " />
<glyph glyph-name="uni00A0" unicode="&#xa0;" horiz-adv-x="228" d="" />
<glyph glyph-name="exclamdown" unicode="&#xa1;" horiz-adv-x="318" d="M14 -178 L-102 -178 C-118 -178 -125 -161 -118 -147 L111 287 C120 304 131 312 151 312 L209 312 C228 312 233 293 227 281 L51 -153 C44 -170 33 -178 14 -178 L14 -178 Z M269 386 L170 386 C151 386 146 405 152 418 L193 505 C201 522 210 530 231 530 L329 530 C348 530 354 511 347 498 L307 411 C299 394 289 386 269 386 L269 386 Z " />
<glyph glyph-name="cent" unicode="&#xa2;" horiz-adv-x="520" d="M437 630 L513 630 C530 630 535 613 529 602 L492 523 C526 517 552 508 564 499 C575 491 573 479 566 471 L520 415 C511 404 498 401 482 406 C463 414 426 420 394 420 C302 420 258 388 205 273 C184 228 172 195 172 171 C172 131 203 110 262 110 C297 110 327 118 353 126 C373 131 382 119 381 107 L374 48 C373 36 365 28 347 21 C321 11 290 4 249 1 L214 -75 C206 -92 197 -100 177 -100 L102 -100 C85 -100 80 -83 86 -72 L124 10 C56 30 18 75 18 140 C18 176 30 223 54 277 C127 439 219 515 365 528 L401 605 C409 622 419 630 437 630 L437 630 Z " />
<glyph glyph-name="sterling" unicode="&#xa3;" horiz-adv-x="616" d="M114 396 L165 396 L218 509 C281 645 359 720 547 720 C717 720 762 634 720 530 C712 512 703 495 692 482 C680 467 668 460 645 460 L557 460 C546 460 538 470 543 481 C550 495 557 503 568 527 C586 565 581 597 515 597 C434 597 402 558 369 489 L325 396 L476 396 C495 396 500 377 494 364 L468 309 C461 292 451 284 430 284 L273 284 L199 124 L507 124 C526 124 532 105 525 92 L494 25 C486 8 477 0 456 0 L-64 0 C-83 0 -88 19 -82 32 L-53 94 C-46 111 -38 117 -18 124 L49 146 L113 284 L68 284 C49 284 43 303 50 316 L76 371 C84 388 93 396 114 396 L114 396 Z " />
<glyph glyph-name="currency" unicode="&#xa4;" horiz-adv-x="650" d="M144 579 L202 520 C237 544 279 559 325 559 C371 559 413 544 447 520 L506 579 L555 530 L496 471 C521 437 535 395 535 350 C535 304 521 262 496 228 L555 170 L506 121 L447 179 C413 155 371 141 325 141 C279 141 237 155 202 179 L144 121 L95 170 L153 228 C129 262 115 304 115 350 C115 395 129 437 153 471 L95 530 L144 579 L144 579 Z M325 199 C406 199 468 263 468 350 C468 437 406 501 325 501 C244 501 182 437 182 350 C182 263 244 199 325 199 L325 199 Z " />
<glyph glyph-name="yen" unicode="&#xa5;" horiz-adv-x="631" d="M145 407 L220 407 L210 672 C208 692 214 708 238 708 L322 708 C345 708 354 696 355 680 L358 409 L364 409 L626 689 C638 702 650 708 670 708 L771 708 C792 708 795 684 783 672 L526 406 L596 407 C612 407 617 393 611 380 L584 320 C578 306 568 300 551 300 L423 300 L386 262 L379 247 L521 247 C537 247 542 233 536 220 L509 160 C503 147 493 141 476 141 L329 141 L275 25 C266 7 257 0 233 0 L138 0 C118 0 111 19 118 33 L168 141 L25 141 C9 141 4 155 10 168 L37 227 C43 241 53 247 70 247 L217 247 L226 265 L224 300 L100 300 C84 300 79 315 85 327 L112 387 C118 401 128 407 145 407 L145 407 Z " />
<glyph glyph-name="brokenbar" unicode="&#xa6;" horiz-adv-x="354" d="M133 728 L221 728 C239 728 249 718 249 700 L249 370 C249 352 239 342 221 342 L133 342 C115 342 105 352 105 370 L105 700 C105 718 115 728 133 728 L133 728 Z M133 248 L221 248 C239 248 249 238 249 220 L249 -110 C249 -128 239 -138 221 -138 L133 -138 C115 -138 105 -128 105 -110 L105 220 C105 238 115 248 133 248 L133 248 Z " />
<glyph glyph-name="section" unicode="&#xa7;" horiz-adv-x="647" d="M536 718 C617 718 698 704 730 689 C739 685 742 673 736 664 L691 605 C682 593 669 589 654 594 C629 603 567 610 513 610 C441 610 413 602 397 567 C394 561 392 555 392 549 C392 508 448 486 495 466 C579 436 616 401 616 337 C616 316 610 292 596 261 C563 188 499 146 424 124 C432 110 436 95 436 79 C436 62 432 43 421 22 C367 -94 281 -127 123 -127 C31 -127 -58 -107 -93 -90 C-104 -85 -104 -73 -97 -64 L-51 -5 C-44 6 -32 9 -17 3 C9 -8 70 -18 136 -18 C218 -18 255 -7 273 31 C276 38 277 44 277 49 C277 88 224 107 177 128 C106 152 60 190 60 263 C60 283 64 306 77 334 C109 404 168 444 244 466 C236 481 232 497 232 515 C232 533 237 552 248 575 C294 675 367 718 536 718 L536 718 Z M371 373 C357 378 342 385 328 392 C277 381 244 358 228 322 C223 312 221 302 221 294 C221 264 249 240 299 218 C312 212 326 207 338 200 C392 212 428 236 445 273 C450 284 453 293 453 302 C453 333 422 352 371 373 L371 373 Z " />
<glyph glyph-name="dieresis" unicode="&#xa8;" horiz-adv-x="393" d="M256 729 L352 729 C368 729 375 713 369 700 L332 623 C324 608 314 600 297 600 L202 600 C186 600 179 616 185 630 L222 707 C229 721 239 729 256 729 L256 729 Z M464 729 L560 729 C576 729 583 713 577 700 L540 623 C533 608 522 600 505 600 L410 600 C394 600 387 616 393 630 L430 707 C437 721 447 729 464 729 L464 729 Z " />
<glyph glyph-name="copyright" unicode="&#xa9;" horiz-adv-x="850" d="M425 719 C668 719 790 570 790 354 C790 138 668 -11 425 -11 C182 -11 60 138 60 354 C60 570 182 719 425 719 L425 719 Z M425 60 C624 60 711 182 711 354 C711 526 624 648 425 648 C226 648 139 526 139 354 C139 182 226 60 425 60 L425 60 Z M247 354 C247 500 314 568 448 568 C495 568 535 556 556 547 C566 543 570 535 567 525 L551 478 C548 469 540 466 529 469 C512 475 487 479 462 479 C383 479 360 445 360 354 C360 263 383 229 462 229 C488 229 512 233 529 239 C541 242 548 239 551 230 L567 183 C571 173 566 165 557 161 C536 152 495 140 448 140 C314 140 247 208 247 354 L247 354 Z " />
<glyph glyph-name="ordfeminine" unicode="&#xaa;" horiz-adv-x="488" d="M530 932 C673 932 719 871 673 770 L552 512 C545 498 536 490 517 490 L439 490 C426 490 420 500 423 513 L429 534 L426 534 C390 505 347 483 287 483 C221 483 177 516 177 566 C177 712 346 752 525 749 L537 775 C557 819 538 837 478 837 C433 837 391 828 360 820 C347 817 338 827 339 839 L344 884 C345 898 355 904 371 909 C408 921 462 932 530 932 L530 932 Z M493 681 C438 683 320 673 320 600 C320 581 336 571 364 571 C414 571 457 603 476 643 L493 681 L493 681 Z " />
<glyph glyph-name="guillemotleft" unicode="&#xab;" horiz-adv-x="561" d="M50 320 C52 324 55 329 61 333 L228 475 C238 484 248 490 263 490 L351 490 C365 490 370 471 360 462 L197 320 L227 178 C231 161 223 150 204 150 L105 150 C90 150 85 156 83 167 L49 306 C48 311 47 316 50 320 L50 320 Z M293 320 C295 324 298 329 304 333 L471 475 C481 484 491 490 506 490 L594 490 C608 490 613 471 603 462 L440 320 L470 178 C474 161 466 150 447 150 L348 150 C333 150 328 156 326 167 L292 306 C291 311 290 316 293 320 L293 320 Z " />
<glyph glyph-name="logicalnot" unicode="&#xac;" horiz-adv-x="562" d="M133 414 L532 414 C549 414 556 396 550 383 L446 161 C438 144 428 136 409 136 L314 136 C297 136 291 154 297 166 L356 293 L83 293 C67 293 60 311 66 324 L96 389 C104 406 114 414 133 414 L133 414 Z " />
<glyph glyph-name="uni00AD" unicode="&#xad;" horiz-adv-x="412" d="M117 378 L390 378 C408 378 414 361 408 349 L378 284 C370 267 359 259 341 259 L67 259 C49 259 44 276 50 288 L80 353 C88 370 99 378 117 378 L117 378 Z " />
<glyph glyph-name="registered" unicode="&#xae;" horiz-adv-x="850" d="M425 719 C668 719 790 570 790 354 C790 138 668 -11 425 -11 C182 -11 60 138 60 354 C60 570 182 719 425 719 L425 719 Z M425 60 C624 60 711 182 711 354 C711 526 624 648 425 648 C226 648 139 526 139 354 C139 182 226 60 425 60 L425 60 Z M287 557 L446 557 C565 557 616 514 616 418 C616 350 588 309 530 291 L611 169 C616 161 613 151 603 151 L523 151 C513 151 507 153 500 163 L423 280 L378 280 L378 169 C378 157 371 151 360 151 L287 151 C276 151 270 157 270 169 L270 539 C270 551 276 557 287 557 L287 557 Z M378 473 L378 362 L433 362 C492 362 507 375 507 418 C507 461 492 473 433 473 L378 473 L378 473 Z " />
<glyph glyph-name="macron" unicode="&#xaf;" horiz-adv-x="393" d="M242 695 L541 695 C558 695 564 681 558 668 L538 624 C532 610 521 604 506 604 L206 604 C190 604 184 619 190 632 L210 676 C217 690 227 695 242 695 L242 695 Z " />
<glyph glyph-name="degree" unicode="&#xb0;" horiz-adv-x="391" d="M387 718 C465 718 508 678 508 621 C508 506 400 417 278 417 C203 417 160 456 160 513 C160 626 268 718 387 718 L387 718 Z M308 490 C362 490 418 540 418 602 C418 626 397 645 365 645 C307 645 251 594 251 533 C251 509 271 490 308 490 L308 490 Z " />
<glyph glyph-name="plusminus" unicode="&#xb1;" horiz-adv-x="562" d="M165 463 L306 463 L372 605 C379 620 391 628 406 628 L483 628 C499 628 506 611 500 598 L437 463 L569 463 C585 463 592 446 586 433 L555 367 C548 351 537 344 521 344 L381 344 L315 202 C308 186 296 179 281 179 L204 179 C188 179 181 195 187 208 L250 344 L117 344 C101 344 94 360 100 373 L131 440 C138 455 150 463 165 463 L165 463 Z M0 108 L404 108 C420 108 427 91 420 78 L395 23 C388 7 377 0 361 0 L-43 0 C-59 0 -67 16 -60 30 L-34 85 C-27 100 -16 108 0 108 L0 108 Z " />
<glyph glyph-name="two.superior" unicode="&#xb2;" horiz-adv-x="445" d="M510 931 C613 931 651 891 651 837 C651 725 487 637 378 585 L523 585 C540 585 546 571 540 557 L520 514 C513 499 503 492 480 492 L174 492 C159 492 153 506 158 519 L180 568 C187 580 192 584 209 592 C325 643 522 732 522 812 C522 832 506 843 474 843 C429 843 412 825 402 802 C397 792 395 787 391 777 C385 764 379 759 363 759 L297 759 C278 759 278 782 286 801 C321 879 383 931 510 931 L510 931 Z " />
<glyph glyph-name="three.superior" unicode="&#xb3;" horiz-adv-x="445" d="M501 931 C598 931 648 902 648 850 C648 786 598 737 539 717 L537 712 C557 703 570 684 570 660 C570 539 438 485 317 485 C247 485 192 502 173 513 C165 518 165 528 170 535 L209 584 C216 591 225 593 235 590 C253 583 292 573 338 573 C381 573 442 588 442 642 C442 663 421 671 382 671 L345 671 C332 671 324 682 330 696 L346 732 C353 750 365 755 385 755 L433 755 C469 755 516 770 516 813 C516 837 492 843 453 843 C407 843 371 833 348 827 C335 824 328 831 329 842 L336 886 C337 899 342 905 354 909 C381 919 430 931 501 931 L501 931 Z " />
<glyph glyph-name="acute" unicode="&#xb4;" horiz-adv-x="393" d="M298 630 L398 732 C410 744 421 750 440 750 L537 750 C553 750 554 728 544 721 L410 616 C398 608 392 606 377 606 L306 606 C294 606 288 621 298 630 L298 630 Z " />
<glyph glyph-name="mu" unicode="&#xb5;" horiz-adv-x="624" d="M209 530 L312 530 C329 530 334 513 328 502 L204 236 C169 161 183 109 253 109 C321 109 347 135 380 207 L519 505 C527 522 536 530 555 530 L658 530 C675 530 680 513 674 502 L523 179 C460 44 397 -9 260 -9 C179 -9 139 21 121 53 L119 53 L50 -93 C43 -110 33 -118 14 -118 L-89 -118 C-106 -118 -110 -101 -105 -90 L173 505 C180 522 190 530 209 530 L209 530 Z " />
<glyph glyph-name="paragraph" unicode="&#xb6;" horiz-adv-x="629" d="M276 728 L276 254 C142 254 48 343 48 491 C48 639 142 728 276 728 L276 728 Z M323 728 L573 728 C589 728 598 719 598 703 L598 637 C598 621 589 612 573 612 L470 612 L470 -94 C470 -110 461 -119 446 -119 L348 -119 C332 -119 323 -110 323 -94 L323 728 L323 728 Z " />
<glyph glyph-name="periodcentered" unicode="&#xb7;" horiz-adv-x="268" d="M135 390 L237 390 C254 390 261 373 254 360 L213 270 C206 254 195 246 178 246 L76 246 C58 246 52 263 58 276 L99 365 C107 382 119 390 135 390 L135 390 Z " />
<glyph glyph-name="cedilla" unicode="&#xb8;" horiz-adv-x="393" d="M18 25 L97 14 C135 1 169 -34 169 -74 C169 -154 101 -190 10 -190 C-14 -190 -43 -186 -55 -182 C-65 -179 -68 -169 -63 -159 L-47 -125 C-41 -112 -32 -108 -17 -108 L10 -108 C47 -108 75 -88 75 -48 C75 -12 51 10 18 25 L18 25 Z " />
<glyph glyph-name="one.superior" unicode="&#xb9;" horiz-adv-x="445" d="M516 924 L587 924 C604 924 610 909 604 895 L426 514 C419 499 409 492 386 492 L319 492 C303 492 297 506 303 519 L438 811 L342 771 C329 766 316 773 316 785 L313 827 C312 840 317 847 328 852 L479 916 C493 922 497 924 516 924 L516 924 Z " />
<glyph glyph-name="ordmasculine" unicode="&#xba;" horiz-adv-x="514" d="M551 932 C652 932 710 888 710 813 C710 780 700 740 677 691 C606 539 519 480 370 480 C269 480 212 524 212 599 C212 631 221 672 245 721 C315 873 401 932 551 932 L551 932 Z M406 578 C468 578 498 607 542 701 C561 742 570 771 570 791 C570 819 553 834 515 834 C454 834 422 805 379 711 C360 670 350 641 350 621 C350 592 368 578 406 578 L406 578 Z " />
<glyph glyph-name="guillemotright" unicode="&#xbb;" horiz-adv-x="561" d="M316 320 C314 316 311 312 305 307 L138 165 C128 156 118 150 103 150 L15 150 C1 150 -5 169 6 178 L169 320 L139 462 C135 479 143 490 162 490 L262 490 C276 490 281 484 283 473 L317 334 C318 329 319 324 316 320 L316 320 Z M559 320 C557 316 554 312 548 307 L381 165 C371 156 361 150 346 150 L258 150 C244 150 238 169 249 178 L412 320 L382 462 C378 479 386 490 405 490 L505 490 C519 490 524 484 526 473 L560 334 C561 329 562 324 559 320 L559 320 Z " />
<glyph glyph-name="onequarter" unicode="&#xbc;" horiz-adv-x="1038" d="M877 708 L945 708 C962 708 965 689 955 679 L288 16 C278 6 268 0 252 0 L183 0 C167 0 163 19 173 29 L841 692 C850 702 861 708 877 708 L877 708 Z M919 426 L1000 426 C1017 426 1023 411 1016 398 L913 178 L945 178 C962 178 967 163 961 149 L942 107 C935 91 925 85 902 85 L870 85 L841 22 C834 7 824 0 801 0 L733 0 C717 0 712 15 718 28 L745 85 L554 85 C538 85 532 100 538 113 L563 166 C568 178 576 184 585 192 L879 412 C892 422 901 426 919 426 L919 426 Z M847 309 L672 178 L788 178 L850 309 L847 309 L847 309 Z M416 708 L487 708 C504 708 510 693 504 679 L326 298 C319 283 309 276 286 276 L219 276 C203 276 197 290 203 303 L338 595 L242 555 C229 550 216 557 216 569 L213 611 C212 624 217 631 228 636 L379 700 C393 706 397 708 416 708 L416 708 Z " />
<glyph glyph-name="onehalf" unicode="&#xbd;" horiz-adv-x="1038" d="M873 439 C976 439 1014 399 1014 345 C1014 233 850 145 741 93 L886 93 C903 93 909 79 903 65 L883 22 C876 7 866 0 843 0 L537 0 C522 0 516 14 521 27 L543 76 C550 88 555 92 572 100 C688 151 885 240 885 320 C885 340 869 351 837 351 C792 351 775 333 765 310 C760 300 758 295 754 285 C748 272 742 267 726 267 L660 267 C641 267 641 290 649 309 C684 387 746 439 873 439 L873 439 Z M831 708 L903 708 C921 708 924 688 914 677 L262 19 C250 6 240 0 221 0 L148 0 C131 0 127 21 138 31 L791 689 C803 701 812 708 831 708 L831 708 Z M416 708 L487 708 C504 708 510 693 504 679 L326 298 C319 283 309 276 286 276 L219 276 C203 276 197 290 203 303 L338 595 L242 555 C229 550 216 557 216 569 L213 611 C212 624 217 631 228 636 L379 700 C393 706 397 708 416 708 L416 708 Z " />
<glyph glyph-name="threequarters" unicode="&#xbe;" horiz-adv-x="1038" d="M899 708 L967 708 C984 708 987 689 978 679 L310 16 C300 6 290 0 274 0 L206 0 C189 0 186 19 195 29 L863 692 C873 702 883 708 899 708 L899 708 Z M919 426 L1000 426 C1017 426 1023 411 1016 398 L913 178 L945 178 C962 178 967 163 961 149 L942 107 C935 91 925 85 902 85 L870 85 L841 22 C834 7 824 0 801 0 L733 0 C717 0 712 15 718 28 L745 85 L554 85 C538 85 532 100 538 113 L563 166 C568 178 576 184 585 192 L879 412 C893 422 901 426 919 426 L919 426 Z M847 309 L672 178 L788 178 L850 309 L847 309 L847 309 Z M401 715 C498 715 548 686 548 634 C548 570 498 521 439 501 L437 496 C457 487 470 468 470 444 C470 323 338 269 217 269 C147 269 92 286 73 297 C65 302 65 312 70 319 L109 368 C116 375 125 377 135 374 C153 367 192 357 238 357 C281 357 342 372 342 426 C342 447 321 455 282 455 L245 455 C232 455 224 466 230 480 L246 516 C253 534 265 539 285 539 L333 539 C369 539 416 554 416 597 C416 621 392 627 353 627 C307 627 271 617 248 611 C235 608 228 615 229 626 L236 670 C237 683 242 689 254 693 C281 703 330 715 401 715 L401 715 Z " />
<glyph glyph-name="questiondown" unicode="&#xbf;" horiz-adv-x="625" d="M128 -190 C-17 -190 -78 -135 -78 -57 C-78 127 195 198 238 271 L245 286 C253 305 265 312 284 312 L378 312 C394 312 402 297 395 282 L389 271 C319 125 89 111 89 -18 C89 -48 112 -67 170 -67 C255 -67 289 -29 310 18 C321 39 324 56 331 70 C337 85 347 90 364 90 L454 90 C471 90 479 83 477 67 C476 54 467 31 459 13 C410 -98 319 -190 128 -190 L128 -190 Z M420 386 L322 386 C303 386 297 405 304 418 L344 505 C352 522 362 530 382 530 L480 530 C499 530 505 511 499 498 L458 411 C450 394 441 386 420 386 L420 386 Z " />
<glyph glyph-name="Agrave" unicode="&#xc0;" horiz-adv-x="705" d="M470 708 L638 708 C658 708 665 693 663 677 L575 33 C573 10 562 0 538 0 L446 0 C426 0 419 15 421 30 L440 157 L177 157 L66 18 C56 5 48 0 28 0 L-77 0 C-95 0 -101 21 -91 34 L432 690 C442 703 452 708 470 708 L470 708 Z M268 281 L464 281 L514 580 L499 580 L268 281 L268 281 Z M508 912 L603 912 C620 912 627 904 628 892 L641 790 C642 777 636 768 619 768 L560 768 C544 768 539 773 533 785 L486 884 C481 897 488 912 508 912 L508 912 Z " />
<glyph glyph-name="Aacute" unicode="&#xc1;" horiz-adv-x="705" d="M470 708 L638 708 C658 708 665 693 663 677 L575 33 C573 10 562 0 538 0 L446 0 C426 0 419 15 421 30 L440 157 L177 157 L66 18 C56 5 48 0 28 0 L-77 0 C-95 0 -101 21 -91 34 L432 690 C442 703 452 708 470 708 L470 708 Z M268 281 L464 281 L514 580 L499 580 L268 281 L268 281 Z M547 792 L647 894 C659 906 670 912 689 912 L786 912 C802 912 803 890 793 883 L659 778 C647 770 641 768 626 768 L555 768 C543 768 537 783 547 792 L547 792 Z " />
<glyph glyph-name="Acircumflex" unicode="&#xc2;" horiz-adv-x="705" d="M470 708 L638 708 C658 708 665 693 663 677 L575 33 C573 10 562 0 538 0 L446 0 C426 0 419 15 421 30 L440 157 L177 157 L66 18 C56 5 48 0 28 0 L-77 0 C-95 0 -101 21 -91 34 L432 690 C442 703 452 708 470 708 L470 708 Z M268 281 L464 281 L514 580 L499 580 L268 281 L268 281 Z M600 913 L699 913 C713 913 720 911 725 899 L772 791 C777 779 770 768 751 768 L684 768 C672 768 666 771 661 780 L626 839 L536 778 C527 771 520 768 507 768 L425 768 C412 768 410 786 419 791 L564 902 C575 910 585 913 600 913 L600 913 Z " />
<glyph glyph-name="Atilde" unicode="&#xc3;" horiz-adv-x="705" d="M470 708 L638 708 C658 708 665 693 663 677 L575 33 C573 10 562 0 538 0 L446 0 C426 0 419 15 421 30 L440 157 L177 157 L66 18 C56 5 48 0 28 0 L-77 0 C-95 0 -101 21 -91 34 L432 690 C442 703 452 708 470 708 L470 708 Z M268 281 L464 281 L514 580 L499 580 L268 281 L268 281 Z M551 912 C588 912 611 901 639 884 C658 872 678 858 700 858 C724 858 735 873 744 889 C753 906 760 909 776 909 L817 909 C833 909 842 895 828 866 C800 806 754 765 685 765 C647 765 624 776 595 794 C577 805 556 819 535 819 C510 819 500 804 490 788 C482 772 473 768 457 768 L419 768 C405 768 392 781 406 811 C434 870 481 912 551 912 L551 912 Z " />
<glyph glyph-name="Adieresis" unicode="&#xc4;" horiz-adv-x="705" d="M470 708 L638 708 C658 708 665 693 663 677 L575 33 C573 10 562 0 538 0 L446 0 C426 0 419 15 421 30 L440 157 L177 157 L66 18 C56 5 48 0 28 0 L-77 0 C-95 0 -101 21 -91 34 L432 690 C442 703 452 708 470 708 L470 708 Z M268 281 L464 281 L514 580 L499 580 L268 281 L268 281 Z M698 897 L794 897 C810 897 817 881 811 868 L774 791 C767 776 756 768 739 768 L644 768 C628 768 621 784 627 798 L664 875 C671 889 681 897 698 897 L698 897 Z M490 897 L586 897 C602 897 609 881 603 868 L566 791 C558 776 548 768 531 768 L436 768 C420 768 413 784 419 798 L456 875 C463 889 473 897 490 897 L490 897 Z " />
<glyph glyph-name="Aring" unicode="&#xc5;" horiz-adv-x="705" d="M470 708 L638 708 C658 708 665 693 663 677 L575 33 C573 10 562 0 538 0 L446 0 C426 0 419 15 421 30 L440 157 L177 157 L66 18 C56 5 48 0 28 0 L-77 0 C-95 0 -101 21 -91 34 L432 690 C442 703 452 708 470 708 L470 708 Z M268 281 L464 281 L514 580 L499 580 L268 281 L268 281 Z M676 994 C739 994 774 964 774 915 C774 831 686 760 596 760 C533 760 496 790 496 838 C496 924 585 994 676 994 L676 994 Z M613 820 C655 820 699 857 699 901 C699 921 686 935 658 935 C616 935 572 898 572 853 C572 833 584 820 613 820 L613 820 Z " />
<glyph glyph-name="AE" unicode="&#xc6;" horiz-adv-x="1012" d="M361 33 L419 157 L192 157 L81 23 C67 5 59 0 37 0 L-71 0 C-89 0 -93 20 -84 32 L475 691 C485 703 494 708 512 708 L1120 708 C1140 708 1147 689 1140 675 L1110 610 C1101 591 1092 584 1067 584 L778 584 L702 420 L967 420 C986 420 993 401 986 386 L956 323 C947 305 938 298 914 298 L645 298 L563 124 L853 124 C872 124 879 105 872 90 L842 25 C833 7 824 0 800 0 L380 0 C361 0 354 19 361 33 L361 33 Z M291 281 L476 281 L618 584 L538 584 L291 281 L291 281 Z " />
<glyph glyph-name="Ccedilla" unicode="&#xc7;" horiz-adv-x="636" d="M103 372 C225 633 349 719 572 719 C661 719 731 698 757 681 C768 674 769 660 762 651 L704 580 C694 568 680 565 665 572 C640 583 601 593 546 593 C414 593 341 535 259 358 C226 287 209 236 209 200 C209 143 250 115 333 115 C387 115 432 125 468 137 C484 143 499 132 496 117 L488 46 C487 30 476 22 458 15 C421 1 360 -11 284 -11 L269 -11 C287 -27 299 -50 299 -74 C299 -154 231 -190 140 -190 C116 -190 87 -186 75 -182 C65 -179 62 -169 67 -159 L83 -125 C89 -112 98 -108 113 -108 L140 -108 C177 -108 205 -88 205 -48 C205 -28 197 -12 185 0 C96 23 44 80 44 159 C44 212 62 283 103 372 L103 372 Z " />
<glyph glyph-name="Egrave" unicode="&#xc8;" horiz-adv-x="621" d="M309 708 L729 708 C748 708 755 689 748 675 L718 610 C709 591 700 584 676 584 L381 584 L305 420 L574 420 C593 420 600 401 593 386 L564 323 C555 305 546 298 522 298 L248 298 L166 124 L461 124 C480 124 487 105 480 90 L450 25 C441 7 432 0 408 0 L-17 0 C-37 0 -43 19 -36 33 L267 683 C275 701 285 708 309 708 L309 708 Z M499 912 L594 912 C611 912 618 904 619 892 L632 790 C633 777 627 768 610 768 L551 768 C535 768 530 773 524 785 L477 884 C472 897 479 912 499 912 L499 912 Z " />
<glyph glyph-name="Eacute" unicode="&#xc9;" horiz-adv-x="621" d="M309 708 L729 708 C748 708 755 689 748 675 L718 610 C709 591 700 584 676 584 L381 584 L305 420 L574 420 C593 420 600 401 593 386 L564 323 C555 305 546 298 522 298 L248 298 L166 124 L461 124 C480 124 487 105 480 90 L450 25 C441 7 432 0 408 0 L-17 0 C-37 0 -43 19 -36 33 L267 683 C275 701 285 708 309 708 L309 708 Z M508 792 L608 894 C620 906 631 912 650 912 L747 912 C763 912 764 890 754 883 L620 778 C608 770 602 768 587 768 L516 768 C504 768 498 783 508 792 L508 792 Z " />
<glyph glyph-name="Ecircumflex" unicode="&#xca;" horiz-adv-x="621" d="M309 708 L729 708 C748 708 755 689 748 675 L718 610 C709 591 700 584 676 584 L381 584 L305 420 L574 420 C593 420 600 401 593 386 L564 323 C555 305 546 298 522 298 L248 298 L166 124 L461 124 C480 124 487 105 480 90 L450 25 C441 7 432 0 408 0 L-17 0 C-37 0 -43 19 -36 33 L267 683 C275 701 285 708 309 708 L309 708 Z M564 913 L663 913 C677 913 684 911 689 899 L736 791 C741 779 734 768 715 768 L648 768 C636 768 630 771 625 780 L590 839 L500 778 C491 771 484 768 471 768 L389 768 C376 768 374 786 383 791 L528 902 C539 910 549 913 564 913 L564 913 Z " />
<glyph glyph-name="Edieresis" unicode="&#xcb;" horiz-adv-x="621" d="M309 708 L729 708 C748 708 755 689 748 675 L718 610 C709 591 700 584 676 584 L381 584 L305 420 L574 420 C593 420 600 401 593 386 L564 323 C555 305 546 298 522 298 L248 298 L166 124 L461 124 C480 124 487 105 480 90 L450 25 C441 7 432 0 408 0 L-17 0 C-37 0 -43 19 -36 33 L267 683 C275 701 285 708 309 708 L309 708 Z M663 897 L759 897 C775 897 782 881 776 868 L739 791 C732 776 721 768 704 768 L609 768 C593 768 586 784 592 798 L629 875 C636 889 646 897 663 897 L663 897 Z M455 897 L551 897 C567 897 574 881 568 868 L531 791 C523 776 513 768 496 768 L401 768 C385 768 378 784 384 798 L421 875 C428 889 438 897 455 897 L455 897 Z " />
<glyph glyph-name="Igrave" unicode="&#xcc;" horiz-adv-x="346" d="M311 708 L404 708 C424 708 430 689 423 675 L120 25 C112 7 102 0 78 0 L-15 0 C-35 0 -41 19 -34 33 L269 683 C277 701 286 708 311 708 L311 708 Z M316 912 L411 912 C428 912 435 904 436 892 L449 790 C450 777 444 768 427 768 L368 768 C352 768 347 773 341 785 L294 884 C289 897 296 912 316 912 L316 912 Z " />
<glyph glyph-name="Iacute" unicode="&#xcd;" horiz-adv-x="311" d="M312 708 L405 708 C425 708 431 689 424 675 L121 25 C113 7 103 0 79 0 L-14 0 C-34 0 -40 19 -33 33 L270 683 C278 701 287 708 312 708 L312 708 Z M350 792 L450 894 C462 906 473 912 492 912 L589 912 C605 912 606 890 596 883 L462 778 C450 770 444 768 429 768 L358 768 C346 768 340 783 350 792 L350 792 Z " />
<glyph glyph-name="Icircumflex" unicode="&#xce;" horiz-adv-x="311" d="M312 708 L405 708 C425 708 431 689 424 675 L121 25 C113 7 103 0 79 0 L-14 0 C-34 0 -40 19 -33 33 L270 683 C278 701 287 708 312 708 L312 708 Z M403 913 L502 913 C516 913 523 911 528 899 L575 791 C580 779 573 768 554 768 L487 768 C475 768 469 771 464 780 L429 839 L339 778 C330 771 323 768 310 768 L228 768 C215 768 213 786 222 791 L367 902 C378 910 388 913 403 913 L403 913 Z " />
<glyph glyph-name="Idieresis" unicode="&#xcf;" horiz-adv-x="311" d="M312 708 L405 708 C425 708 431 689 424 675 L121 25 C113 7 103 0 79 0 L-14 0 C-34 0 -40 19 -33 33 L270 683 C278 701 287 708 312 708 L312 708 Z M293 897 L389 897 C405 897 412 881 406 868 L369 791 C361 776 351 768 334 768 L239 768 C223 768 216 784 222 798 L259 875 C266 889 276 897 293 897 L293 897 Z M501 897 L597 897 C613 897 620 881 614 868 L577 791 C570 776 559 768 542 768 L447 768 C431 768 424 784 430 798 L467 875 C474 889 484 897 501 897 L501 897 Z " />
<glyph glyph-name="Eth" unicode="&#xd0;" horiz-adv-x="732" d="M310 708 L533 708 C682 708 762 646 762 544 C762 492 750 424 712 338 C601 86 472 0 254 0 L-16 0 C-36 0 -42 19 -35 33 L87 296 L57 296 C39 296 34 312 40 325 L69 388 C76 404 88 412 106 412 L141 412 L268 683 C276 701 286 708 310 708 L310 708 Z M382 584 L302 412 L426 412 C444 412 450 396 444 383 L415 320 C407 304 396 296 378 296 L248 296 L168 124 L285 124 C409 124 474 180 552 346 C584 415 600 465 600 500 C600 561 564 584 485 584 L382 584 L382 584 Z " />
<glyph glyph-name="Ntilde" unicode="&#xd1;" horiz-adv-x="745" d="M309 708 L417 708 C437 708 445 700 446 686 L493 235 L498 235 L706 683 C715 701 724 708 748 708 L841 708 C860 708 867 689 860 675 L557 25 C548 7 539 0 515 0 L406 0 C386 0 379 8 377 22 L331 473 L327 473 L118 25 C109 7 100 0 75 0 L-17 0 C-37 0 -43 19 -36 33 L267 683 C275 701 285 708 309 708 L309 708 Z M571 912 C608 912 631 901 659 884 C678 872 698 858 720 858 C744 858 755 873 764 889 C773 906 780 909 796 909 L837 909 C853 909 862 895 848 866 C820 806 774 765 705 765 C667 765 644 776 615 794 C597 805 576 819 555 819 C530 819 520 804 510 788 C502 772 493 768 477 768 L439 768 C425 768 412 781 426 811 C454 870 501 912 571 912 L571 912 Z " />
<glyph glyph-name="Ograve" unicode="&#xd2;" horiz-adv-x="753" d="M559 719 C711 719 792 657 792 554 C792 500 773 429 732 339 C612 82 491 -11 275 -11 C124 -11 42 52 42 155 C42 210 61 280 103 372 C221 628 343 719 559 719 L559 719 Z M308 113 C424 113 491 170 574 347 C610 424 628 478 628 515 C628 565 593 595 524 595 C408 595 342 538 260 361 C224 283 206 229 206 192 C206 142 239 113 308 113 L308 113 Z M534 912 L629 912 C646 912 653 904 654 892 L667 790 C668 777 662 768 645 768 L586 768 C570 768 565 773 559 785 L512 884 C507 897 514 912 534 912 L534 912 Z " />
<glyph glyph-name="Oacute" unicode="&#xd3;" horiz-adv-x="753" d="M559 719 C711 719 792 657 792 554 C792 500 773 429 732 339 C612 82 491 -11 275 -11 C124 -11 42 52 42 155 C42 210 61 280 103 372 C221 628 343 719 559 719 L559 719 Z M308 113 C424 113 491 170 574 347 C610 424 628 478 628 515 C628 565 593 595 524 595 C408 595 342 538 260 361 C224 283 206 229 206 192 C206 142 239 113 308 113 L308 113 Z M576 792 L676 894 C688 906 699 912 718 912 L815 912 C831 912 832 890 822 883 L688 778 C676 770 670 768 655 768 L584 768 C572 768 566 783 576 792 L576 792 Z " />
<glyph glyph-name="Ocircumflex" unicode="&#xd4;" horiz-adv-x="753" d="M559 719 C711 719 792 657 792 554 C792 500 773 429 732 339 C612 82 491 -11 275 -11 C124 -11 42 52 42 155 C42 210 61 280 103 372 C221 628 343 719 559 719 L559 719 Z M308 113 C424 113 491 170 574 347 C610 424 628 478 628 515 C628 565 593 595 524 595 C408 595 342 538 260 361 C224 283 206 229 206 192 C206 142 239 113 308 113 L308 113 Z M624 913 L723 913 C737 913 744 911 749 899 L796 791 C801 779 794 768 775 768 L708 768 C696 768 690 771 685 780 L650 839 L560 778 C551 771 544 768 531 768 L449 768 C436 768 434 786 443 791 L588 902 C599 910 609 913 624 913 L624 913 Z " />
<glyph glyph-name="Otilde" unicode="&#xd5;" horiz-adv-x="753" d="M559 719 C711 719 792 657 792 554 C792 500 773 429 732 339 C612 82 491 -11 275 -11 C124 -11 42 52 42 155 C42 210 61 280 103 372 C221 628 343 719 559 719 L559 719 Z M308 113 C424 113 491 170 574 347 C610 424 628 478 628 515 C628 565 593 595 524 595 C408 595 342 538 260 361 C224 283 206 229 206 192 C206 142 239 113 308 113 L308 113 Z M575 912 C612 912 635 901 663 884 C682 872 702 858 724 858 C748 858 759 873 768 889 C777 906 784 909 800 909 L841 909 C857 909 866 895 852 866 C824 806 778 765 709 765 C671 765 648 776 619 794 C601 805 580 819 559 819 C534 819 524 804 514 788 C506 772 497 768 481 768 L443 768 C429 768 416 781 430 811 C458 870 505 912 575 912 L575 912 Z " />
<glyph glyph-name="Odieresis" unicode="&#xd6;" horiz-adv-x="753" d="M559 719 C711 719 792 657 792 554 C792 500 773 429 732 339 C612 82 491 -11 275 -11 C124 -11 42 52 42 155 C42 210 61 280 103 372 C221 628 343 719 559 719 L559 719 Z M308 113 C424 113 491 170 574 347 C610 424 628 478 628 515 C628 565 593 595 524 595 C408 595 342 538 260 361 C224 283 206 229 206 192 C206 142 239 113 308 113 L308 113 Z M514 897 L610 897 C626 897 633 881 627 868 L590 791 C582 776 572 768 555 768 L460 768 C444 768 437 784 443 798 L480 875 C487 889 497 897 514 897 L514 897 Z M722 897 L818 897 C834 897 841 881 835 868 L798 791 C791 776 780 768 763 768 L668 768 C652 768 645 784 651 798 L688 875 C695 889 705 897 722 897 L722 897 Z " />
<glyph glyph-name="multiply" unicode="&#xd7;" horiz-adv-x="562" d="M338 161 L281 267 L112 152 C99 143 82 145 76 157 L47 211 C41 220 44 232 55 240 L231 360 L177 463 C169 478 171 491 182 498 L257 549 C274 560 291 557 299 543 L352 443 L525 561 C539 570 556 568 562 556 L591 502 C597 492 594 480 582 472 L401 349 L460 239 C467 226 466 216 454 207 L380 155 C362 144 345 147 338 161 L338 161 Z " />
<glyph glyph-name="Oslash" unicode="&#xd8;" horiz-adv-x="757" d="M561 719 C634 719 692 704 732 675 L777 711 C787 720 800 721 808 711 L848 662 C855 653 852 642 841 634 L790 591 C793 579 794 567 794 554 C794 500 775 429 734 339 C614 82 493 -11 277 -11 C203 -11 145 5 105 34 L57 -6 C48 -14 37 -13 29 -4 L-9 43 C-17 52 -17 64 -8 71 L48 117 C45 129 44 142 44 155 C44 210 63 280 105 372 C223 628 345 719 561 719 L561 719 Z M310 113 C426 113 493 170 576 347 C598 393 613 432 621 463 L225 141 C241 123 269 113 310 113 L310 113 Z M262 361 C240 314 225 277 216 246 L612 566 C595 585 566 595 526 595 C410 595 344 538 262 361 L262 361 Z " />
<glyph glyph-name="Ugrave" unicode="&#xd9;" horiz-adv-x="728" d="M306 708 L402 708 C421 708 428 689 421 675 L228 261 C183 165 199 115 301 115 C394 115 441 151 486 247 L688 683 C697 701 706 708 731 708 L826 708 C845 708 852 689 845 675 L631 216 C553 49 462 -11 269 -11 C68 -11 -8 97 68 261 L264 683 C273 701 282 708 306 708 L306 708 Z M522 912 L617 912 C634 912 641 904 642 892 L655 790 C656 777 650 768 633 768 L574 768 C558 768 553 773 547 785 L500 884 C495 897 502 912 522 912 L522 912 Z " />
<glyph glyph-name="Uacute" unicode="&#xda;" horiz-adv-x="728" d="M306 708 L402 708 C421 708 428 689 421 675 L228 261 C183 165 199 115 301 115 C394 115 441 151 486 247 L688 683 C697 701 706 708 731 708 L826 708 C845 708 852 689 845 675 L631 216 C553 49 462 -11 269 -11 C68 -11 -8 97 68 261 L264 683 C273 701 282 708 306 708 L306 708 Z M554 792 L654 894 C666 906 677 912 696 912 L793 912 C809 912 810 890 800 883 L666 778 C654 770 648 768 633 768 L562 768 C550 768 544 783 554 792 L554 792 Z " />
<glyph glyph-name="Ucircumflex" unicode="&#xdb;" horiz-adv-x="728" d="M306 708 L402 708 C421 708 428 689 421 675 L228 261 C183 165 199 115 301 115 C394 115 441 151 486 247 L688 683 C697 701 706 708 731 708 L826 708 C845 708 852 689 845 675 L631 216 C553 49 462 -11 269 -11 C68 -11 -8 97 68 261 L264 683 C273 701 282 708 306 708 L306 708 Z M612 913 L711 913 C725 913 732 911 737 899 L784 791 C789 779 782 768 763 768 L696 768 C684 768 678 771 673 780 L638 839 L548 778 C539 771 532 768 519 768 L437 768 C424 768 422 786 431 791 L576 902 C587 910 597 913 612 913 L612 913 Z " />
<glyph glyph-name="Udieresis" unicode="&#xdc;" horiz-adv-x="728" d="M306 708 L402 708 C421 708 428 689 421 675 L228 261 C183 165 199 115 301 115 C394 115 441 151 486 247 L688 683 C697 701 706 708 731 708 L826 708 C845 708 852 689 845 675 L631 216 C553 49 462 -11 269 -11 C68 -11 -8 97 68 261 L264 683 C273 701 282 708 306 708 L306 708 Z M502 897 L598 897 C614 897 621 881 615 868 L578 791 C570 776 560 768 543 768 L448 768 C432 768 425 784 431 798 L468 875 C475 889 485 897 502 897 L502 897 Z M710 897 L806 897 C822 897 829 881 823 868 L786 791 C779 776 768 768 751 768 L656 768 C640 768 633 784 639 798 L676 875 C683 889 693 897 710 897 L710 897 Z " />
<glyph glyph-name="Yacute" unicode="&#xdd;" horiz-adv-x="658" d="M234 708 L325 708 C347 708 356 696 357 680 L377 410 L382 410 L661 689 C674 702 685 708 705 708 L816 708 C837 708 840 684 827 672 L403 254 L296 25 C287 7 278 0 253 0 L158 0 C139 0 132 19 139 33 L244 259 L205 672 C203 692 210 708 234 708 L234 708 Z M518 792 L618 894 C630 906 641 912 660 912 L757 912 C773 912 774 890 764 883 L630 778 C618 770 612 768 597 768 L526 768 C514 768 508 783 518 792 L518 792 Z " />
<glyph glyph-name="Thorn" unicode="&#xde;" horiz-adv-x="689" d="M309 708 L404 708 C424 708 430 689 423 675 L401 628 L495 628 C650 628 718 578 718 491 C718 457 708 416 685 366 C608 200 521 143 314 143 L175 143 L120 25 C112 7 103 0 78 0 L-17 0 C-37 0 -43 19 -36 33 L267 683 C275 701 285 708 309 708 L309 708 Z M344 504 L232 266 L340 266 C445 266 490 291 531 379 C544 406 550 428 550 445 C550 487 513 504 438 504 L344 504 L344 504 Z " />
<glyph glyph-name="germandbls" unicode="&#xdf;" horiz-adv-x="693" d="M511 707 C660 707 716 654 716 583 C716 455 529 410 529 366 C529 329 624 304 624 218 C624 55 475 -8 317 -8 C291 -8 213 -8 191 1 C180 4 179 15 183 24 L209 81 C216 96 224 100 242 100 L323 100 C397 100 461 125 461 201 C461 263 370 290 370 351 C370 469 562 466 562 557 C562 582 536 600 481 600 C406 600 358 573 326 505 L102 25 C94 8 85 0 64 0 L-30 0 C-49 0 -55 19 -48 32 L182 527 C244 658 341 707 511 707 L511 707 Z " />
<glyph glyph-name="agrave" unicode="&#xe0;" horiz-adv-x="593" d="M404 541 C532 541 593 503 593 431 C593 405 584 376 569 341 L421 25 C413 8 403 0 384 0 L286 0 C273 0 268 12 271 24 L281 55 L277 55 C235 17 181 -8 105 -8 C17 -8 -31 28 -31 90 C-31 269 163 317 400 316 L415 349 C422 365 426 377 426 387 C426 417 397 429 344 429 C284 429 235 417 193 406 C177 402 163 414 166 427 L176 486 C177 501 185 508 203 514 C253 529 319 541 404 541 L404 541 Z M361 234 C245 238 132 216 132 136 C132 106 155 96 194 96 C264 96 316 134 340 188 L361 234 L361 234 Z M385 750 L480 750 C497 750 504 742 505 730 L518 628 C519 615 513 606 496 606 L437 606 C421 606 416 611 410 623 L363 722 C358 735 365 750 385 750 L385 750 Z " />
<glyph glyph-name="aacute" unicode="&#xe1;" horiz-adv-x="593" d="M404 541 C532 541 593 503 593 431 C593 405 584 376 569 341 L421 25 C413 8 403 0 384 0 L286 0 C273 0 268 12 271 24 L281 55 L277 55 C235 17 181 -8 105 -8 C17 -8 -31 28 -31 90 C-31 269 163 317 400 316 L415 349 C422 365 426 377 426 387 C426 417 397 429 344 429 C284 429 235 417 193 406 C177 402 163 414 166 427 L176 486 C177 501 185 508 203 514 C253 529 319 541 404 541 L404 541 Z M361 234 C245 238 132 216 132 136 C132 106 155 96 194 96 C264 96 316 134 340 188 L361 234 L361 234 Z M411 630 L511 732 C523 744 534 750 553 750 L650 750 C666 750 667 728 657 721 L523 616 C511 608 505 606 490 606 L419 606 C407 606 401 621 411 630 L411 630 Z " />
<glyph glyph-name="acircumflex" unicode="&#xe2;" horiz-adv-x="593" d="M404 541 C532 541 593 503 593 431 C593 405 584 376 569 341 L421 25 C413 8 403 0 384 0 L286 0 C273 0 268 12 271 24 L281 55 L277 55 C235 17 181 -8 105 -8 C17 -8 -31 28 -31 90 C-31 269 163 317 400 316 L415 349 C422 365 426 377 426 387 C426 417 397 429 344 429 C284 429 235 417 193 406 C177 402 163 414 166 427 L176 486 C177 501 185 508 203 514 C253 529 319 541 404 541 L404 541 Z M361 234 C245 238 132 216 132 136 C132 106 155 96 194 96 C264 96 316 134 340 188 L361 234 L361 234 Z M471 751 L570 751 C584 751 591 749 596 737 L643 629 C648 617 641 606 622 606 L555 606 C543 606 537 609 532 618 L497 677 L407 616 C398 609 391 606 378 606 L296 606 C283 606 281 624 290 629 L435 740 C446 748 456 751 471 751 L471 751 Z " />
<glyph glyph-name="atilde" unicode="&#xe3;" horiz-adv-x="593" d="M404 541 C532 541 593 503 593 431 C593 405 584 376 569 341 L421 25 C413 8 403 0 384 0 L286 0 C273 0 268 12 271 24 L281 55 L277 55 C235 17 181 -8 105 -8 C17 -8 -31 28 -31 90 C-31 269 163 317 400 316 L415 349 C422 365 426 377 426 387 C426 417 397 429 344 429 C284 429 235 417 193 406 C177 402 163 414 166 427 L176 486 C177 501 185 508 203 514 C253 529 319 541 404 541 L404 541 Z M361 234 C245 238 132 216 132 136 C132 106 155 96 194 96 C264 96 316 134 340 188 L361 234 L361 234 Z M417 735 C454 735 477 724 505 707 C524 695 544 681 566 681 C590 681 601 696 610 712 C619 729 626 732 642 732 L683 732 C699 732 708 718 694 689 C666 629 620 588 551 588 C513 588 490 599 461 617 C443 628 422 642 401 642 C376 642 366 627 356 611 C348 595 339 591 323 591 L285 591 C271 591 258 604 272 634 C300 693 347 735 417 735 L417 735 Z " />
<glyph glyph-name="adieresis" unicode="&#xe4;" horiz-adv-x="593" d="M404 541 C532 541 593 503 593 431 C593 405 584 376 569 341 L421 25 C413 8 403 0 384 0 L286 0 C273 0 268 12 271 24 L281 55 L277 55 C235 17 181 -8 105 -8 C17 -8 -31 28 -31 90 C-31 269 163 317 400 316 L415 349 C422 365 426 377 426 387 C426 417 397 429 344 429 C284 429 235 417 193 406 C177 402 163 414 166 427 L176 486 C177 501 185 508 203 514 C253 529 319 541 404 541 L404 541 Z M361 234 C245 238 132 216 132 136 C132 106 155 96 194 96 C264 96 316 134 340 188 L361 234 L361 234 Z M568 729 L664 729 C680 729 687 713 681 700 L644 623 C637 608 626 600 609 600 L514 600 C498 600 491 616 497 630 L534 707 C541 721 551 729 568 729 L568 729 Z M360 729 L456 729 C472 729 479 713 473 700 L436 623 C428 608 418 600 401 600 L306 600 C290 600 283 616 289 630 L326 707 C333 721 343 729 360 729 L360 729 Z " />
<glyph glyph-name="aring" unicode="&#xe5;" horiz-adv-x="593" d="M404 541 C532 541 593 503 593 431 C593 405 584 376 569 341 L421 25 C413 8 403 0 384 0 L286 0 C273 0 268 12 271 24 L281 55 L277 55 C235 17 181 -8 105 -8 C17 -8 -31 28 -31 90 C-31 269 163 317 400 316 L415 349 C422 365 426 377 426 387 C426 417 397 429 344 429 C284 429 235 417 193 406 C177 402 163 414 166 427 L176 486 C177 501 185 508 203 514 C253 529 319 541 404 541 L404 541 Z M361 234 C245 238 132 216 132 136 C132 106 155 96 194 96 C264 96 316 134 340 188 L361 234 L361 234 Z M544 825 C607 825 642 795 642 746 C642 662 554 591 464 591 C401 591 364 621 364 669 C364 755 453 825 544 825 L544 825 Z M481 651 C523 651 567 688 567 732 C567 752 554 766 526 766 C484 766 440 729 440 684 C440 664 452 651 481 651 L481 651 Z " />
<glyph glyph-name="ae" unicode="&#xe6;" horiz-adv-x="925" d="M747 541 C910 541 959 434 890 287 L866 235 C859 220 849 213 829 213 L514 213 C508 193 505 177 505 164 C505 116 540 94 612 94 C660 94 697 107 730 118 C748 124 760 113 759 100 L754 46 C753 33 745 25 727 18 C693 3 635 -11 559 -11 C467 -11 407 17 378 63 C313 18 230 -8 143 -8 C29 -8 -30 29 -30 101 C-30 273 165 317 400 316 L415 349 C443 410 421 429 348 429 C288 429 235 418 193 406 C177 402 162 414 165 429 L176 483 C179 499 185 507 203 512 C253 528 322 541 403 541 C484 541 540 526 568 495 C621 526 680 541 747 541 L747 541 Z M715 436 C643 436 605 406 555 309 L759 309 L764 318 C799 395 781 436 715 436 L715 436 Z M361 234 C241 238 132 208 132 137 C132 104 155 96 194 96 C268 96 312 126 341 188 L361 234 L361 234 Z " />
<glyph glyph-name="ccedilla" unicode="&#xe7;" horiz-adv-x="525" d="M48 279 C132 466 237 541 422 541 C495 541 554 526 578 509 C589 501 587 489 580 480 L532 421 C523 409 509 406 493 412 C473 420 437 426 403 426 C312 426 260 392 204 273 C182 226 171 192 171 167 C171 127 200 104 262 104 C299 104 331 112 358 120 C379 126 388 113 387 101 L379 39 C377 27 370 18 351 12 C318 -1 271 -11 205 -11 C199 -11 194 -10 188 -10 C207 -27 219 -50 219 -74 C219 -154 151 -190 60 -190 C36 -190 7 -186 -5 -182 C-15 -179 -18 -169 -13 -159 L3 -125 C9 -112 18 -108 33 -108 L60 -108 C97 -108 125 -88 125 -48 C125 -25 115 -7 99 6 C40 29 10 75 10 135 C10 174 22 223 48 279 L48 279 Z " />
<glyph glyph-name="egrave" unicode="&#xe8;" horiz-adv-x="589" d="M411 541 C574 541 622 434 554 287 L529 232 C521 217 512 211 492 211 L177 211 C171 192 169 177 169 164 C169 116 203 94 275 94 C323 94 361 107 393 118 C412 124 423 113 423 100 L417 46 C416 33 409 25 391 18 C357 3 299 -11 223 -11 C82 -11 11 50 11 140 C11 178 23 224 49 281 C133 467 247 541 411 541 L411 541 Z M378 436 C305 436 267 406 217 306 L421 306 L427 318 C462 395 444 436 378 436 L378 436 Z M384 750 L479 750 C496 750 503 742 504 730 L517 628 C518 615 512 606 495 606 L436 606 C420 606 415 611 409 623 L362 722 C357 735 364 750 384 750 L384 750 Z " />
<glyph glyph-name="eacute" unicode="&#xe9;" horiz-adv-x="589" d="M411 541 C574 541 622 434 554 287 L529 232 C521 217 512 211 492 211 L177 211 C171 192 169 177 169 164 C169 116 203 94 275 94 C323 94 361 107 393 118 C412 124 423 113 423 100 L417 46 C416 33 409 25 391 18 C357 3 299 -11 223 -11 C82 -11 11 50 11 140 C11 178 23 224 49 281 C133 467 247 541 411 541 L411 541 Z M378 436 C305 436 267 406 217 306 L421 306 L427 318 C462 395 444 436 378 436 L378 436 Z M429 630 L529 732 C541 744 552 750 571 750 L668 750 C684 750 685 728 675 721 L541 616 C529 608 523 606 508 606 L437 606 C425 606 419 621 429 630 L429 630 Z " />
<glyph glyph-name="ecircumflex" unicode="&#xea;" horiz-adv-x="589" d="M411 541 C574 541 622 434 554 287 L529 232 C521 217 512 211 492 211 L177 211 C171 192 169 177 169 164 C169 116 203 94 275 94 C323 94 361 107 393 118 C412 124 423 113 423 100 L417 46 C416 33 409 25 391 18 C357 3 299 -11 223 -11 C82 -11 11 50 11 140 C11 178 23 224 49 281 C133 467 247 541 411 541 L411 541 Z M378 436 C305 436 267 406 217 306 L421 306 L427 318 C462 395 444 436 378 436 L378 436 Z M471 751 L570 751 C584 751 591 749 596 737 L643 629 C648 617 641 606 622 606 L555 606 C543 606 537 609 532 618 L497 677 L407 616 C398 609 391 606 378 606 L296 606 C283 606 281 624 290 629 L435 740 C446 748 456 751 471 751 L471 751 Z " />
<glyph glyph-name="edieresis" unicode="&#xeb;" horiz-adv-x="589" d="M411 541 C574 541 622 434 554 287 L529 232 C521 217 512 211 492 211 L177 211 C171 192 169 177 169 164 C169 116 203 94 275 94 C323 94 361 107 393 118 C412 124 423 113 423 100 L417 46 C416 33 409 25 391 18 C357 3 299 -11 223 -11 C82 -11 11 50 11 140 C11 178 23 224 49 281 C133 467 247 541 411 541 L411 541 Z M378 436 C305 436 267 406 217 306 L421 306 L427 318 C462 395 444 436 378 436 L378 436 Z M566 729 L662 729 C678 729 685 713 679 700 L642 623 C635 608 624 600 607 600 L512 600 C496 600 489 616 495 630 L532 707 C539 721 549 729 566 729 L566 729 Z M358 729 L454 729 C470 729 477 713 471 700 L434 623 C426 608 416 600 399 600 L304 600 C288 600 281 616 287 630 L324 707 C331 721 341 729 358 729 L358 729 Z " />
<glyph glyph-name="igrave" unicode="&#xec;" horiz-adv-x="282" d="M210 530 L311 530 C329 530 333 513 328 502 L105 25 C98 8 88 0 69 0 L-33 0 C-50 0 -55 17 -49 28 L174 505 C181 522 191 530 210 530 L210 530 Z M218 750 L313 750 C330 750 337 742 338 730 L351 628 C352 615 346 606 329 606 L270 606 C254 606 249 611 243 623 L196 722 C191 735 198 750 218 750 L218 750 Z " />
<glyph glyph-name="iacute" unicode="&#xed;" horiz-adv-x="282" d="M210 530 L311 530 C329 530 333 513 328 502 L105 25 C98 8 88 0 69 0 L-33 0 C-50 0 -55 17 -49 28 L174 505 C181 522 191 530 210 530 L210 530 Z M261 630 L361 732 C373 744 384 750 403 750 L500 750 C516 750 517 728 507 721 L373 616 C361 608 355 606 340 606 L269 606 C257 606 251 621 261 630 L261 630 Z " />
<glyph glyph-name="icircumflex" unicode="&#xee;" horiz-adv-x="282" d="M210 530 L311 530 C329 530 333 513 328 502 L105 25 C98 8 88 0 69 0 L-33 0 C-50 0 -55 17 -49 28 L174 505 C181 522 191 530 210 530 L210 530 Z M314 751 L413 751 C427 751 434 749 439 737 L486 629 C491 617 484 606 465 606 L398 606 C386 606 380 609 375 618 L340 677 L250 616 C241 609 234 606 221 606 L139 606 C126 606 124 624 133 629 L278 740 C289 748 299 751 314 751 L314 751 Z " />
<glyph glyph-name="idieresis" unicode="&#xef;" horiz-adv-x="282" d="M210 530 L311 530 C329 530 333 513 328 502 L105 25 C98 8 88 0 69 0 L-33 0 C-50 0 -55 17 -49 28 L174 505 C181 522 191 530 210 530 L210 530 Z M201 729 L297 729 C313 729 320 713 314 700 L277 623 C269 608 259 600 242 600 L147 600 C131 600 124 616 130 630 L167 707 C174 721 184 729 201 729 L201 729 Z M409 729 L505 729 C521 729 528 713 522 700 L485 623 C478 608 467 600 450 600 L355 600 C339 600 332 616 338 630 L375 707 C382 721 392 729 409 729 L409 729 Z " />
<glyph glyph-name="eth" unicode="&#xf0;" horiz-adv-x="632" d="M398 642 L447 642 C436 659 423 675 409 689 C400 697 408 716 423 716 L531 716 C544 716 555 712 564 703 C577 687 590 666 601 642 L707 642 C719 642 728 629 722 618 L710 591 C702 575 691 570 674 570 L625 570 C630 544 634 518 634 491 C634 417 615 332 575 247 C490 64 380 -11 207 -11 C78 -11 9 43 9 131 C9 170 22 218 49 276 C133 457 243 530 410 530 C441 530 468 526 489 520 C488 536 485 553 480 570 L365 570 C353 570 345 584 351 595 L363 622 C371 637 382 642 398 642 L398 642 Z M245 102 C324 102 366 139 419 253 C441 300 453 335 453 359 C453 398 426 417 375 417 C295 417 254 379 201 266 C179 218 167 183 167 159 C167 120 193 102 245 102 L245 102 Z " />
<glyph glyph-name="ntilde" unicode="&#xf1;" horiz-adv-x="624" d="M209 530 L304 530 C320 530 326 519 322 508 L311 472 L313 472 C356 507 411 539 492 539 C625 539 646 444 584 310 L451 25 C444 8 434 0 415 0 L313 0 C295 0 291 17 296 28 L429 313 C464 386 454 421 384 421 C312 421 269 376 233 299 L105 25 C98 8 88 0 69 0 L-34 0 C-51 0 -55 17 -50 28 L173 505 C180 522 190 530 209 530 L209 530 Z M429 735 C466 735 489 724 517 707 C536 695 556 681 578 681 C602 681 613 696 622 712 C631 729 638 732 654 732 L695 732 C711 732 720 718 706 689 C678 629 632 588 563 588 C525 588 502 599 473 617 C455 628 434 642 413 642 C388 642 378 627 368 611 C360 595 351 591 335 591 L297 591 C283 591 270 604 284 634 C312 693 359 735 429 735 L429 735 Z " />
<glyph glyph-name="ograve" unicode="&#xf2;" horiz-adv-x="629" d="M420 541 C542 541 615 487 615 395 C615 355 602 305 574 246 C492 66 388 -11 206 -11 C83 -11 10 43 10 135 C10 175 24 225 51 284 C133 464 238 541 420 541 L420 541 Z M244 103 C322 103 367 138 422 256 C445 305 456 341 456 366 C456 405 433 427 382 427 C303 427 258 392 204 274 C181 225 169 189 169 164 C169 125 193 103 244 103 L244 103 Z M397 750 L492 750 C509 750 516 742 517 730 L530 628 C531 615 525 606 508 606 L449 606 C433 606 428 611 422 623 L375 722 C370 735 377 750 397 750 L397 750 Z " />
<glyph glyph-name="oacute" unicode="&#xf3;" horiz-adv-x="629" d="M420 541 C542 541 615 487 615 395 C615 355 602 305 574 246 C492 66 388 -11 206 -11 C83 -11 10 43 10 135 C10 175 24 225 51 284 C133 464 238 541 420 541 L420 541 Z M244 103 C322 103 367 138 422 256 C445 305 456 341 456 366 C456 405 433 427 382 427 C303 427 258 392 204 274 C181 225 169 189 169 164 C169 125 193 103 244 103 L244 103 Z M434 630 L534 732 C546 744 557 750 576 750 L673 750 C689 750 690 728 680 721 L546 616 C534 608 528 606 513 606 L442 606 C430 606 424 621 434 630 L434 630 Z " />
<glyph glyph-name="ocircumflex" unicode="&#xf4;" horiz-adv-x="629" d="M420 541 C542 541 615 487 615 395 C615 355 602 305 574 246 C492 66 388 -11 206 -11 C83 -11 10 43 10 135 C10 175 24 225 51 284 C133 464 238 541 420 541 L420 541 Z M244 103 C322 103 367 138 422 256 C445 305 456 341 456 366 C456 405 433 427 382 427 C303 427 258 392 204 274 C181 225 169 189 169 164 C169 125 193 103 244 103 L244 103 Z M487 751 L586 751 C600 751 607 749 612 737 L659 629 C664 617 657 606 638 606 L571 606 C559 606 553 609 548 618 L513 677 L423 616 C414 609 407 606 394 606 L312 606 C299 606 297 624 306 629 L451 740 C462 748 472 751 487 751 L487 751 Z " />
<glyph glyph-name="otilde" unicode="&#xf5;" horiz-adv-x="629" d="M420 541 C542 541 615 487 615 395 C615 355 602 305 574 246 C492 66 388 -11 206 -11 C83 -11 10 43 10 135 C10 175 24 225 51 284 C133 464 238 541 420 541 L420 541 Z M244 103 C322 103 367 138 422 256 C445 305 456 341 456 366 C456 405 433 427 382 427 C303 427 258 392 204 274 C181 225 169 189 169 164 C169 125 193 103 244 103 L244 103 Z M431 735 C468 735 491 724 519 707 C538 695 558 681 580 681 C604 681 615 696 624 712 C633 729 640 732 656 732 L697 732 C713 732 722 718 708 689 C680 629 634 588 565 588 C527 588 504 599 475 617 C457 628 436 642 415 642 C390 642 380 627 370 611 C362 595 353 591 337 591 L299 591 C285 591 272 604 286 634 C314 693 361 735 431 735 L431 735 Z " />
<glyph glyph-name="odieresis" unicode="&#xf6;" horiz-adv-x="629" d="M420 541 C542 541 615 487 615 395 C615 355 602 305 574 246 C492 66 388 -11 206 -11 C83 -11 10 43 10 135 C10 175 24 225 51 284 C133 464 238 541 420 541 L420 541 Z M244 103 C322 103 367 138 422 256 C445 305 456 341 456 366 C456 405 433 427 382 427 C303 427 258 392 204 274 C181 225 169 189 169 164 C169 125 193 103 244 103 L244 103 Z M374 729 L470 729 C486 729 493 713 487 700 L450 623 C442 608 432 600 415 600 L320 600 C304 600 297 616 303 630 L340 707 C347 721 357 729 374 729 L374 729 Z M582 729 L678 729 C694 729 701 713 695 700 L658 623 C651 608 640 600 623 600 L528 600 C512 600 505 616 511 630 L548 707 C555 721 565 729 582 729 L582 729 Z " />
<glyph glyph-name="divide" unicode="&#xf7;" horiz-adv-x="573" d="M153 413 L536 413 C552 413 560 397 553 384 L522 318 C515 302 503 295 488 295 L104 295 C88 295 81 311 87 324 L119 390 C126 406 137 413 153 413 L153 413 Z M398 627 L500 627 C517 627 524 610 517 597 L476 507 C469 491 458 483 441 483 L339 483 C321 483 315 500 321 513 L362 602 C370 619 382 627 398 627 L398 627 Z M210 225 L312 225 C329 225 336 208 329 195 L288 105 C281 89 270 81 253 81 L151 81 C133 81 127 98 133 111 L174 200 C182 217 194 225 210 225 L210 225 Z " />
<glyph glyph-name="oslash" unicode="&#xf8;" horiz-adv-x="633" d="M420 541 C481 541 531 527 564 501 L606 531 C618 540 634 539 640 528 L667 481 C673 471 669 463 659 455 L613 421 C614 413 615 404 615 395 C615 355 602 305 574 246 C492 66 388 -11 206 -11 C145 -11 96 2 62 27 L21 -3 C8 -11 -4 -9 -10 1 L-36 47 C-43 57 -42 67 -31 74 L12 105 C10 115 10 124 10 135 C10 175 24 225 51 284 C133 464 238 541 420 541 L420 541 Z M204 274 C194 253 186 234 180 218 L443 406 C431 419 411 427 382 427 C303 427 258 392 204 274 L204 274 Z M244 103 C322 103 367 138 422 256 C431 275 438 293 444 308 L184 122 C196 109 216 103 244 103 L244 103 Z " />
<glyph glyph-name="ugrave" unicode="&#xf9;" horiz-adv-x="623" d="M205 530 L308 530 C325 530 330 513 324 502 L187 210 C155 141 171 109 230 109 C298 109 351 157 381 221 L514 505 C522 522 531 530 551 530 L652 530 C670 530 674 513 669 502 L447 25 C439 8 429 0 410 0 L317 0 C300 0 294 15 298 28 L309 58 L306 58 C266 23 213 -9 135 -9 C1 -9 -30 79 32 213 L169 505 C176 522 186 530 205 530 L205 530 Z M394 750 L489 750 C506 750 513 742 514 730 L527 628 C528 615 522 606 505 606 L446 606 C430 606 425 611 419 623 L372 722 C367 735 374 750 394 750 L394 750 Z " />
<glyph glyph-name="uacute" unicode="&#xfa;" horiz-adv-x="623" d="M205 530 L308 530 C325 530 330 513 324 502 L187 210 C155 141 171 109 230 109 C298 109 351 157 381 221 L514 505 C522 522 531 530 551 530 L652 530 C670 530 674 513 669 502 L447 25 C439 8 429 0 410 0 L317 0 C300 0 294 15 298 28 L309 58 L306 58 C266 23 213 -9 135 -9 C1 -9 -30 79 32 213 L169 505 C176 522 186 530 205 530 L205 530 Z M426 630 L526 732 C538 744 549 750 568 750 L665 750 C681 750 682 728 672 721 L538 616 C526 608 520 606 505 606 L434 606 C422 606 416 621 426 630 L426 630 Z " />
<glyph glyph-name="ucircumflex" unicode="&#xfb;" horiz-adv-x="623" d="M205 530 L308 530 C325 530 330 513 324 502 L187 210 C155 141 171 109 230 109 C298 109 351 157 381 221 L514 505 C522 522 531 530 551 530 L652 530 C670 530 674 513 669 502 L447 25 C439 8 429 0 410 0 L317 0 C300 0 294 15 298 28 L309 58 L306 58 C266 23 213 -9 135 -9 C1 -9 -30 79 32 213 L169 505 C176 522 186 530 205 530 L205 530 Z M484 751 L583 751 C597 751 604 749 609 737 L656 629 C661 617 654 606 635 606 L568 606 C556 606 550 609 545 618 L510 677 L420 616 C411 609 404 606 391 606 L309 606 C296 606 294 624 303 629 L448 740 C459 748 469 751 484 751 L484 751 Z " />
<glyph glyph-name="udieresis" unicode="&#xfc;" horiz-adv-x="623" d="M205 530 L308 530 C325 530 330 513 324 502 L187 210 C155 141 171 109 230 109 C298 109 351 157 381 221 L514 505 C522 522 531 530 551 530 L652 530 C670 530 674 513 669 502 L447 25 C439 8 429 0 410 0 L317 0 C300 0 294 15 298 28 L309 58 L306 58 C266 23 213 -9 135 -9 C1 -9 -30 79 32 213 L169 505 C176 522 186 530 205 530 L205 530 Z M579 729 L675 729 C691 729 698 713 692 700 L655 623 C648 608 637 600 620 600 L525 600 C509 600 502 616 508 630 L545 707 C552 721 562 729 579 729 L579 729 Z M371 729 L467 729 C483 729 490 713 484 700 L447 623 C439 608 429 600 412 600 L317 600 C301 600 294 616 300 630 L337 707 C344 721 354 729 371 729 L371 729 Z " />
<glyph glyph-name="yacute" unicode="&#xfd;" horiz-adv-x="555" d="M159 530 L252 530 C270 530 277 517 276 501 L235 175 L241 175 L491 515 C500 527 509 530 525 530 L629 530 C648 530 652 508 642 496 L264 20 C184 -81 137 -128 10 -128 C-31 -128 -70 -122 -85 -115 C-98 -109 -99 -97 -94 -88 L-63 -22 C-58 -11 -49 -8 -33 -8 C-18 -8 -6 -11 24 -11 C71 -11 90 10 93 52 L128 501 C129 522 140 530 159 530 L159 530 Z M402 630 L502 732 C514 744 525 750 544 750 L641 750 C657 750 658 728 648 721 L514 616 C502 608 496 606 481 606 L410 606 C398 606 392 621 402 630 L402 630 Z " />
<glyph glyph-name="thorn" unicode="&#xfe;" horiz-adv-x="645" d="M292 708 L395 708 C412 708 417 691 411 680 L320 486 L323 486 C364 520 410 541 481 541 C578 541 629 488 629 404 C629 363 621 311 592 246 C510 65 414 -11 260 -11 C194 -11 143 12 119 44 L114 44 L38 -120 C30 -137 20 -145 1 -145 L-101 -145 C-118 -145 -123 -129 -118 -117 L256 683 C263 700 273 708 292 708 L292 708 Z M219 272 C196 224 185 188 185 163 C185 124 208 103 260 103 C339 103 383 145 437 257 C460 307 472 343 472 368 C472 407 449 427 398 427 C319 427 273 389 219 272 L219 272 Z " />
<glyph glyph-name="ydieresis" unicode="&#xff;" horiz-adv-x="555" d="M159 530 L252 530 C270 530 277 517 276 501 L235 175 L241 175 L491 515 C500 527 509 530 525 530 L629 530 C648 530 652 508 642 496 L264 20 C184 -81 137 -128 10 -128 C-31 -128 -70 -122 -85 -115 C-98 -109 -99 -97 -94 -88 L-63 -22 C-58 -11 -49 -8 -33 -8 C-18 -8 -6 -11 24 -11 C71 -11 90 10 93 52 L128 501 C129 522 140 530 159 530 L159 530 Z M337 729 L433 729 C449 729 456 713 450 700 L413 623 C405 608 395 600 378 600 L283 600 C267 600 260 616 266 630 L303 707 C310 721 320 729 337 729 L337 729 Z M545 729 L641 729 C657 729 664 713 658 700 L621 623 C614 608 603 600 586 600 L491 600 C475 600 468 616 474 630 L511 707 C518 721 528 729 545 729 L545 729 Z " />
<glyph glyph-name="dotlessi" unicode="&#x131;" horiz-adv-x="282" d="M210 530 L311 530 C329 530 333 513 328 502 L105 25 C98 8 88 0 69 0 L-33 0 C-50 0 -55 17 -49 28 L174 505 C181 522 191 530 210 530 L210 530 Z " />
<glyph glyph-name="Lslash" unicode="&#x141;" horiz-adv-x="574" d="M311 708 L406 708 C426 708 432 689 425 675 L318 446 L469 509 C484 515 497 509 498 497 L500 447 C500 432 494 425 480 419 L264 329 L169 125 L436 125 C456 125 463 106 455 91 L424 25 C416 7 406 0 382 0 L-14 0 C-34 0 -41 19 -34 33 L65 246 L46 238 C32 232 19 238 19 250 L16 298 C16 314 22 321 35 327 L119 362 L269 683 C277 701 287 708 311 708 L311 708 Z " />
<glyph glyph-name="lslash" unicode="&#x142;" horiz-adv-x="285" d="M295 708 L396 708 C414 708 418 691 413 680 L302 442 L308 445 C321 451 336 445 336 433 L339 383 C340 371 333 364 320 358 L248 328 L107 25 C100 8 90 0 71 0 L-31 0 C-48 0 -53 17 -47 28 L54 246 L45 242 C32 237 19 242 19 255 L16 302 C15 317 22 324 34 330 L108 361 L259 683 C266 700 276 708 295 708 L295 708 Z " />
<glyph glyph-name="OE" unicode="&#x152;" horiz-adv-x="1177" d="M865 708 L1285 708 C1304 708 1311 689 1304 675 L1274 610 C1265 591 1256 584 1232 584 L937 584 L861 420 L1130 420 C1149 420 1156 401 1149 386 L1120 323 C1111 305 1102 298 1078 298 L804 298 L722 124 L1017 124 C1036 124 1043 105 1036 90 L1006 25 C997 7 988 0 964 0 L539 0 C519 0 513 19 520 33 L534 63 C463 11 380 -11 275 -11 C124 -11 42 52 42 155 C42 210 61 280 103 372 C221 628 343 719 559 719 C685 719 762 676 785 602 L823 683 C831 701 841 708 865 708 L865 708 Z M308 113 C424 113 491 170 574 347 C610 424 628 478 628 515 C628 565 593 595 524 595 C408 595 342 538 260 361 C224 283 206 229 206 192 C206 142 239 113 308 113 L308 113 Z " />
<glyph glyph-name="oe" unicode="&#x153;" horiz-adv-x="1003" d="M826 541 C989 541 1037 434 969 287 L944 232 C936 217 927 211 907 211 L592 211 C586 192 584 177 584 164 C584 116 618 94 690 94 C738 94 776 107 808 118 C827 124 838 113 838 100 L832 46 C831 33 824 25 806 18 C772 3 714 -11 638 -11 C541 -11 477 17 447 64 C384 12 307 -11 206 -11 C83 -11 10 43 10 135 C10 175 24 225 51 284 C133 464 238 541 420 541 C506 541 567 514 596 466 C660 518 735 541 826 541 L826 541 Z M244 103 C322 103 367 138 422 256 C445 305 456 341 456 366 C456 405 433 427 382 427 C303 427 258 392 204 274 C181 225 169 189 169 164 C169 125 193 103 244 103 L244 103 Z M793 436 C720 436 682 406 632 306 L836 306 L842 318 C877 395 859 436 793 436 L793 436 Z " />
<glyph glyph-name="Scaron" unicode="&#x160;" horiz-adv-x="611" d="M513 719 C602 719 682 699 716 684 C728 679 730 665 721 653 L669 588 C658 575 646 571 628 576 C602 586 548 596 488 596 C397 596 359 581 335 527 C329 515 326 504 326 495 C326 462 354 439 424 408 C504 375 549 337 549 267 C549 242 544 213 528 180 C461 37 366 -11 180 -11 C82 -11 -12 15 -45 31 C-59 38 -60 49 -52 60 L3 129 C13 142 24 144 41 138 C68 128 134 112 209 112 C296 112 346 131 374 189 C380 203 383 215 383 225 C383 259 358 283 283 314 C214 343 163 384 163 456 C163 480 166 507 181 539 C240 665 323 719 513 719 L513 719 Z M590 768 L491 768 C477 768 470 771 465 782 L418 890 C413 903 420 913 439 913 L506 913 C518 913 524 910 529 901 L563 842 L654 904 C663 910 670 913 683 913 L765 913 C778 913 780 896 772 890 L626 780 C615 771 605 768 590 768 L590 768 Z " />
<glyph glyph-name="scaron" unicode="&#x161;" horiz-adv-x="506" d="M370 541 C442 541 512 526 542 513 C554 508 553 496 547 488 L501 428 C493 418 481 414 466 419 C441 428 396 435 353 435 C296 435 271 425 255 392 C252 384 250 377 250 371 C250 347 273 326 322 308 C389 283 420 256 420 202 C420 182 415 159 403 130 C353 18 262 -11 131 -11 C48 -11 -29 6 -58 21 C-69 26 -71 36 -64 45 L-16 106 C-8 116 4 119 18 114 C42 104 90 95 143 95 C207 95 236 105 253 140 C258 150 260 158 260 164 C260 188 239 204 191 221 C129 243 91 273 91 333 C91 352 94 374 107 402 C150 499 222 541 370 541 L370 541 Z M457 606 L358 606 C344 606 337 609 332 620 L285 728 C280 741 287 751 306 751 L373 751 C385 751 391 748 396 739 L430 680 L521 742 C530 748 537 751 550 751 L632 751 C645 751 647 734 639 728 L493 618 C482 609 472 606 457 606 L457 606 Z " />
<glyph glyph-name="Ydieresis" unicode="&#x178;" horiz-adv-x="658" d="M234 708 L325 708 C347 708 356 696 357 680 L377 410 L382 410 L661 689 C674 702 685 708 705 708 L816 708 C837 708 840 684 827 672 L403 254 L296 25 C287 7 278 0 253 0 L158 0 C139 0 132 19 139 33 L244 259 L205 672 C203 692 210 708 234 708 L234 708 Z M466 897 L562 897 C578 897 585 881 579 868 L542 791 C534 776 524 768 507 768 L412 768 C396 768 389 784 395 798 L432 875 C439 889 449 897 466 897 L466 897 Z M674 897 L770 897 C786 897 793 881 787 868 L750 791 C743 776 732 768 715 768 L620 768 C604 768 597 784 603 798 L640 875 C647 889 657 897 674 897 L674 897 Z " />
<glyph glyph-name="Zcaron" unicode="&#x17d;" horiz-adv-x="644" d="M299 708 L753 708 C772 708 779 689 772 675 L738 601 C732 588 725 580 712 570 L184 131 L182 125 L484 125 C504 125 510 106 503 91 L473 25 C464 7 455 0 430 0 L-34 0 C-54 0 -61 19 -54 33 L-18 109 C-11 124 -2 132 11 143 L533 577 L536 583 L246 583 C226 583 219 602 226 617 L257 683 C266 701 275 708 299 708 L299 708 Z M606 768 L507 768 C493 768 486 771 481 782 L434 890 C429 903 436 913 455 913 L522 913 C534 913 540 910 545 901 L579 842 L670 904 C679 910 686 913 699 913 L781 913 C794 913 796 896 788 890 L642 780 C631 771 621 768 606 768 L606 768 Z " />
<glyph glyph-name="zcaron" unicode="&#x17e;" horiz-adv-x="531" d="M203 530 L570 530 C587 530 592 513 586 502 L553 432 C547 419 539 410 526 401 L168 118 L166 113 L379 113 C396 113 401 96 395 84 L368 25 C360 8 350 0 331 0 L-48 0 C-65 0 -70 17 -64 28 L-36 89 C-31 101 -22 110 -12 118 L360 412 L363 417 L155 417 C138 417 133 434 138 446 L167 505 C174 522 184 530 203 530 L203 530 Z M472 606 L373 606 C359 606 352 609 347 620 L300 728 C295 741 302 751 321 751 L388 751 C400 751 406 748 411 739 L445 680 L536 742 C545 748 552 751 565 751 L647 751 C660 751 662 734 654 728 L508 618 C497 609 487 606 472 606 L472 606 Z " />
<glyph glyph-name="florin" unicode="&#x192;" horiz-adv-x="580" d="M237 411 L294 411 L392 569 C464 686 521 719 653 719 C683 719 722 714 737 708 C747 704 747 693 741 683 L700 619 C694 609 684 604 668 605 C657 605 640 607 627 607 C583 607 557 593 526 542 L445 411 L530 411 C547 411 552 393 545 382 L508 321 C499 304 490 298 470 298 L375 298 L187 -5 C122 -111 85 -126 -10 -126 C-40 -126 -73 -120 -85 -114 C-95 -109 -96 -99 -91 -91 L-48 -21 C-40 -10 -31 -7 -15 -7 C-7 -7 -2 -8 8 -8 C28 -8 41 0 57 28 L224 298 L176 298 C160 298 154 316 162 327 L199 388 C209 405 217 411 237 411 L237 411 Z " />
<glyph glyph-name="circumflex" unicode="&#x2c6;" horiz-adv-x="393" d="M369 751 L468 751 C482 751 489 749 494 737 L541 629 C546 617 539 606 520 606 L453 606 C441 606 435 609 430 618 L395 677 L305 616 C296 609 289 606 276 606 L194 606 C181 606 179 624 188 629 L333 740 C344 748 354 751 369 751 L369 751 Z " />
<glyph glyph-name="caron" unicode="&#x2c7;" horiz-adv-x="393" d="M403 606 L304 606 C290 606 283 609 278 620 L231 728 C226 741 233 751 252 751 L319 751 C331 751 337 748 342 739 L376 680 L467 742 C476 748 483 751 496 751 L578 751 C591 751 593 734 585 728 L439 618 C428 609 418 606 403 606 L403 606 Z " />
<glyph glyph-name="breve" unicode="&#x2d8;" horiz-adv-x="393" d="M373 602 C248 602 212 666 243 737 C250 753 260 759 276 759 L323 759 C335 759 342 751 339 740 C331 711 331 687 387 687 C440 687 467 712 486 740 C494 754 499 759 514 759 L571 759 C584 759 592 750 586 737 C556 668 491 602 373 602 L373 602 Z " />
<glyph glyph-name="dotaccent" unicode="&#x2d9;" horiz-adv-x="393" d="M365 729 L457 729 C474 729 482 715 474 699 L439 625 C430 606 417 600 397 600 L305 600 C288 600 280 614 288 630 L323 704 C333 723 345 729 365 729 L365 729 Z " />
<glyph glyph-name="ring" unicode="&#x2da;" horiz-adv-x="393" d="M442 825 C505 825 540 795 540 746 C540 662 452 591 362 591 C299 591 262 621 262 669 C262 755 351 825 442 825 L442 825 Z M379 651 C421 651 465 688 465 732 C465 752 452 766 424 766 C382 766 338 729 338 684 C338 664 350 651 379 651 L379 651 Z " />
<glyph glyph-name="ogonek" unicode="&#x2db;" horiz-adv-x="393" d="M80 10 L150 10 C120 0 33 -34 33 -78 C33 -88 43 -93 64 -93 C81 -93 90 -88 102 -88 C110 -88 114 -94 113 -100 L105 -144 C103 -154 97 -160 82 -165 C65 -171 34 -177 6 -177 C-63 -177 -93 -153 -93 -119 C-93 -49 11 -3 80 10 L80 10 Z " />
<glyph glyph-name="tilde" unicode="&#x2dc;" horiz-adv-x="393" d="M313 735 C350 735 373 724 401 707 C420 695 440 681 462 681 C486 681 497 696 506 712 C515 729 522 732 538 732 L579 732 C595 732 604 718 590 689 C562 629 516 588 447 588 C409 588 386 599 357 617 C339 628 318 642 297 642 C272 642 262 627 252 611 C244 595 235 591 219 591 L181 591 C167 591 154 604 168 634 C196 693 243 735 313 735 L313 735 Z " />
<glyph glyph-name="hungarumlaut" unicode="&#x2dd;" horiz-adv-x="393" d="M218 630 L314 735 C324 746 331 750 349 750 L440 750 C457 750 458 730 449 723 L323 616 C315 609 307 606 292 606 L226 606 C214 606 210 621 218 630 L218 630 Z M414 630 L510 735 C520 746 527 750 545 750 L636 750 C654 750 654 730 645 723 L518 616 C510 609 503 606 488 606 L422 606 C410 606 406 621 414 630 L414 630 Z " />
<glyph glyph-name="uni03A9" unicode="&#x3a9;" horiz-adv-x="834" d="M599 720 C796 720 881 642 881 539 C881 353 701 214 544 155 L527 118 L652 125 C670 126 677 109 671 95 L640 28 C631 8 622 0 596 0 L340 0 L420 173 C426 185 438 194 450 199 C569 246 714 370 714 505 C714 565 663 596 562 596 C397 596 250 471 250 305 C250 260 277 229 318 199 C326 194 329 185 324 173 L244 0 L-13 0 C-31 0 -38 16 -31 31 L3 102 C10 118 19 126 39 125 L166 118 L186 159 C136 187 97 234 97 303 C97 551 334 720 599 720 L599 720 Z " />
<glyph glyph-name="pi" unicode="&#x3c0;" horiz-adv-x="730" d="M180 530 L782 530 C799 530 804 513 798 502 L770 442 C762 425 753 417 733 417 L641 417 L527 173 C504 122 511 108 552 108 C564 108 580 111 591 111 C603 111 609 97 604 86 L575 26 C569 13 560 7 544 2 C527 -3 505 -7 478 -7 C352 -7 316 49 372 168 L488 417 L386 417 L129 25 C119 10 110 0 91 0 L-7 0 C-24 0 -31 18 -23 28 L232 417 L132 417 C114 417 110 434 115 446 L143 505 C151 522 161 530 180 530 L180 530 Z " />
<glyph glyph-name="endash" unicode="&#x2013;" horiz-adv-x="549" d="M118 378 L529 378 C545 378 551 362 545 350 L516 289 C510 274 497 265 480 265 L70 265 C53 265 48 281 54 293 L82 355 C89 370 101 378 118 378 L118 378 Z " />
<glyph glyph-name="emdash" unicode="&#x2014;" horiz-adv-x="787" d="M118 378 L765 378 C782 378 787 362 781 350 L753 289 C746 274 734 265 717 265 L70 265 C53 265 48 281 53 293 L82 355 C88 370 101 378 118 378 L118 378 Z " />
<glyph glyph-name="quoteleft" unicode="&#x2018;" horiz-adv-x="270" d="M279 455 L177 455 C160 455 153 472 160 486 L199 569 C205 582 209 587 217 596 L335 711 C344 719 350 723 364 723 L396 723 C408 723 412 709 405 700 L314 599 L338 599 C356 599 363 582 357 569 L315 480 C307 463 295 455 279 455 L279 455 Z " />
<glyph glyph-name="quoteright" unicode="&#x2019;" horiz-adv-x="270" d="M290 724 L392 724 C409 724 416 707 409 693 L370 610 C364 597 360 592 352 583 L234 468 C225 460 219 456 205 456 L173 456 C161 456 157 470 164 479 L255 580 L231 580 C213 580 206 597 212 610 L254 699 C262 716 274 724 290 724 L290 724 Z " />
<glyph glyph-name="quotesinglbase" unicode="&#x201a;" horiz-adv-x="270" d="M20 144 L122 144 C139 144 146 127 139 113 L100 30 C94 17 90 12 82 3 L-36 -112 C-45 -120 -51 -124 -65 -124 L-97 -124 C-109 -124 -113 -110 -106 -101 L-15 0 L-39 0 C-57 0 -64 17 -58 30 L-16 119 C-8 136 4 144 20 144 L20 144 Z " />
<glyph glyph-name="quotedblleft" unicode="&#x201c;" horiz-adv-x="490" d="M279 455 L177 455 C160 455 153 472 160 486 L199 569 C205 582 209 587 217 596 L335 711 C344 719 350 723 364 723 L396 723 C408 723 412 709 405 700 L314 599 L338 599 C356 599 363 582 357 569 L315 480 C307 463 295 455 279 455 L279 455 Z M499 455 L397 455 C380 455 373 472 380 486 L419 569 C425 582 429 587 437 596 L555 711 C564 719 570 723 584 723 L616 723 C628 723 632 709 625 700 L534 599 L558 599 C576 599 583 582 577 569 L535 480 C527 463 515 455 499 455 L499 455 Z " />
<glyph glyph-name="quotedblright" unicode="&#x201d;" horiz-adv-x="490" d="M290 724 L392 724 C409 724 416 707 409 693 L370 610 C364 597 360 592 352 583 L234 468 C225 460 219 456 205 456 L173 456 C161 456 157 470 164 479 L255 580 L231 580 C213 580 206 597 212 610 L254 699 C262 716 274 724 290 724 L290 724 Z M510 724 L612 724 C629 724 636 707 629 693 L590 610 C584 597 580 592 572 583 L454 468 C445 460 439 456 425 456 L393 456 C381 456 377 470 384 479 L475 580 L451 580 C433 580 426 597 432 610 L474 699 C482 716 494 724 510 724 L510 724 Z " />
<glyph glyph-name="quotedblbase" unicode="&#x201e;" horiz-adv-x="490" d="M20 144 L122 144 C139 144 146 127 139 113 L100 30 C94 17 90 12 82 3 L-36 -112 C-45 -120 -51 -124 -65 -124 L-97 -124 C-109 -124 -113 -110 -106 -101 L-15 0 L-39 0 C-57 0 -64 17 -58 30 L-16 119 C-8 136 4 144 20 144 L20 144 Z M240 144 L342 144 C359 144 366 127 359 113 L320 30 C314 17 310 12 302 3 L184 -112 C175 -120 169 -124 155 -124 L123 -124 C111 -124 107 -110 114 -101 L205 0 L181 0 C163 0 156 17 162 30 L204 119 C212 136 224 144 240 144 L240 144 Z " />
<glyph glyph-name="dagger" unicode="&#x2020;" horiz-adv-x="511" d="M183 530 L302 530 L374 683 C381 700 391 708 411 708 L504 708 C523 708 528 689 522 676 L454 530 L566 530 C585 530 591 511 584 498 L554 435 C546 417 536 409 516 409 L397 409 L163 -93 C155 -110 145 -118 125 -118 L32 -118 C13 -118 8 -99 14 -86 L245 409 L132 409 C113 409 108 428 114 441 L145 505 C153 522 162 530 183 530 L183 530 Z " />
<glyph glyph-name="daggerdbl" unicode="&#x2021;" horiz-adv-x="505" d="M183 530 L302 530 L374 683 C381 700 391 708 411 708 L504 708 C523 708 528 689 522 676 L454 530 L566 530 C585 530 591 511 584 498 L554 435 C546 417 536 409 516 409 L397 409 L291 181 L403 181 C422 181 427 162 421 149 L390 85 C382 68 373 60 353 60 L234 60 L163 -93 C155 -110 145 -118 125 -118 L32 -118 C13 -118 8 -99 14 -86 L82 60 L-31 60 C-50 60 -55 79 -49 92 L-18 155 C-10 173 -1 181 20 181 L139 181 L245 409 L132 409 C113 409 108 428 114 441 L145 505 C153 522 162 530 183 530 L183 530 Z " />
<glyph glyph-name="bullet" unicode="&#x2022;" horiz-adv-x="399" d="M270 449 C335 449 374 409 374 357 C374 262 269 171 167 171 C102 171 63 211 63 263 C63 358 168 449 270 449 L270 449 Z " />
<glyph glyph-name="ellipsis" unicode="&#x2026;" horiz-adv-x="805" d="M21 142 L122 142 C139 142 146 125 139 112 L99 25 C92 8 80 0 63 0 L-38 0 C-56 0 -62 17 -56 30 L-15 118 C-7 134 4 142 21 142 L21 142 Z M289 142 L390 142 C407 142 414 125 407 112 L367 25 C360 8 349 0 331 0 L230 0 C213 0 206 17 213 30 L253 118 C261 134 273 142 289 142 L289 142 Z M557 142 L658 142 C675 142 682 125 676 112 L635 25 C628 8 617 0 599 0 L498 0 C481 0 474 17 481 30 L521 118 C529 134 541 142 557 142 L557 142 Z " />
<glyph glyph-name="perthousand" unicode="&#x2030;" horiz-adv-x="1434" d="M851 708 L922 708 C939 708 942 688 932 679 L272 20 C260 8 249 0 233 0 L162 0 C145 0 142 20 152 29 L812 688 C824 700 835 708 851 708 L851 708 Z M422 716 C511 716 553 674 553 612 C553 583 545 547 525 503 C464 373 384 313 260 313 C172 313 129 355 129 416 C129 446 137 483 158 526 C219 656 298 716 422 716 L422 716 Z M296 407 C345 407 372 435 407 509 C423 542 430 567 430 584 C430 607 417 622 386 622 C337 622 311 594 276 520 C261 486 253 462 253 444 C253 422 265 407 296 407 L296 407 Z M823 395 C912 395 955 353 955 291 C955 262 946 225 926 182 C865 52 785 -8 661 -8 C573 -8 530 34 530 95 C530 125 539 161 559 205 C620 335 699 395 823 395 L823 395 Z M697 86 C746 86 773 114 808 188 C824 221 831 246 831 263 C831 286 818 301 787 301 C738 301 712 273 677 199 C662 165 654 141 654 123 C654 101 667 86 697 86 L697 86 Z M1252 395 C1341 395 1383 353 1383 291 C1383 262 1375 225 1355 182 C1294 52 1214 -8 1090 -8 C1002 -8 959 34 959 95 C959 125 967 161 988 205 C1049 335 1128 395 1252 395 L1252 395 Z M1126 86 C1175 86 1202 114 1237 188 C1252 221 1260 246 1260 263 C1260 286 1247 301 1216 301 C1167 301 1141 273 1106 199 C1091 165 1083 141 1083 123 C1083 101 1095 86 1126 86 L1126 86 Z " />
<glyph glyph-name="guilsinglleft" unicode="&#x2039;" horiz-adv-x="318" d="M50 320 C52 324 55 329 61 333 L228 475 C238 484 248 490 263 490 L351 490 C365 490 370 471 360 462 L197 320 L227 178 C231 161 223 150 204 150 L105 150 C90 150 85 156 83 167 L49 306 C48 311 47 316 50 320 L50 320 Z " />
<glyph glyph-name="guilsinglright" unicode="&#x203a;" horiz-adv-x="318" d="M316 320 C314 316 311 312 305 307 L138 165 C128 156 118 150 103 150 L15 150 C1 150 -5 169 6 178 L169 320 L139 462 C135 479 143 490 162 490 L262 490 C276 490 281 484 283 473 L317 334 C318 329 319 324 316 320 L316 320 Z " />
<glyph glyph-name="fraction" unicode="&#x2044;" horiz-adv-x="106" d="M401 708 L474 708 C491 708 494 689 484 679 L-179 16 C-188 6 -199 0 -215 0 L-288 0 C-304 0 -307 19 -298 29 L365 692 C375 702 385 708 401 708 L401 708 Z " />
<glyph glyph-name="Euro" unicode="&#x20ac;" horiz-adv-x="648" d="M73 329 L111 329 C117 342 122 355 129 369 C130 372 131 375 133 378 L96 378 C81 378 77 392 82 402 L108 458 C114 472 123 477 142 477 L186 477 C296 656 424 719 601 719 C693 719 750 698 775 681 C787 673 788 662 782 653 L724 584 C714 572 699 567 684 574 C660 586 620 593 580 593 C489 593 419 563 355 477 L596 477 C611 477 615 464 610 453 L584 397 C578 383 569 378 550 378 L296 378 L288 360 L274 329 L476 329 C491 329 495 315 490 304 L464 249 C457 235 449 229 430 229 L242 229 C240 220 240 211 240 204 C240 143 279 115 358 115 C398 115 444 122 480 135 C498 141 511 130 508 114 L500 46 C499 30 489 22 468 14 C430 0 366 -11 299 -11 C158 -11 71 51 71 158 C71 179 74 202 79 229 L26 229 C11 229 7 243 12 254 L39 310 C45 323 54 329 73 329 L73 329 Z " />
<glyph glyph-name="trademark" unicode="&#x2122;" horiz-adv-x="776" d="M379 708 L443 708 C452 708 457 705 460 700 L541 578 L544 578 L626 700 C629 705 634 708 642 708 L706 708 C718 708 724 702 724 690 L724 390 C724 378 718 372 706 372 L651 372 C640 372 634 378 634 390 L634 581 L630 581 L556 471 C553 467 549 464 543 464 C536 464 533 467 530 471 L455 581 L452 581 L452 390 C452 378 446 372 434 372 L379 372 C368 372 362 378 362 390 L362 690 C362 702 368 708 379 708 L379 708 Z M45 708 L295 708 C306 708 313 702 313 690 L313 647 C313 635 306 629 295 629 L216 629 L216 390 C216 378 210 372 199 372 L141 372 C130 372 124 378 124 390 L124 629 L45 629 C34 629 27 635 27 647 L27 690 C27 702 34 708 45 708 L45 708 Z " />
<glyph glyph-name="Omega" unicode="&#x2126;" horiz-adv-x="834" d="M599 720 C796 720 881 642 881 539 C881 353 701 214 544 155 L527 118 L652 125 C670 126 677 109 671 95 L640 28 C631 8 622 0 596 0 L340 0 L420 173 C426 185 438 194 450 199 C569 246 714 370 714 505 C714 565 663 596 562 596 C397 596 250 471 250 305 C250 260 277 229 318 199 C326 194 329 185 324 173 L244 0 L-13 0 C-31 0 -38 16 -31 31 L3 102 C10 118 19 126 39 125 L166 118 L186 159 C136 187 97 234 97 303 C97 551 334 720 599 720 L599 720 Z " />
<glyph glyph-name="estimated" unicode="&#x212e;" horiz-adv-x="840" d="M420 670 C331 670 252 634 196 575 L196 370 L649 370 L649 570 C593 631 513 670 420 670 L420 670 Z M675 141 L710 115 C643 44 551 -10 424 -10 C219 -10 60 149 60 350 C60 551 219 710 420 710 C620 710 780 552 780 350 C780 343 779 337 779 330 L196 330 L196 125 C252 66 328 30 424 30 C536 30 619 76 675 141 L675 141 Z " />
<glyph glyph-name="partialdiff" unicode="&#x2202;" horiz-adv-x="704" d="M543 720 C679 720 757 674 757 579 C757 324 469 -11 198 -11 C75 -11 4 45 4 134 C4 340 238 471 406 471 C491 471 538 442 558 408 C580 445 602 488 602 529 C602 576 562 599 481 599 C430 599 388 590 349 580 C335 577 321 587 326 605 L341 665 C344 680 354 689 373 695 C421 709 472 720 543 720 L543 720 Z M247 107 C339 107 469 204 469 298 C469 337 439 357 380 357 C277 357 163 261 163 164 C163 126 189 107 247 107 L247 107 Z " />
<glyph glyph-name="Delta" unicode="&#x2206;" horiz-adv-x="691" d="M500 594 L152 123 L415 123 L506 594 L500 594 L500 594 Z M479 708 L619 708 C636 708 645 697 643 682 L541 40 C537 16 519 0 492 0 L-47 0 C-66 0 -77 23 -64 40 L433 684 C447 701 457 708 479 708 L479 708 Z " />
<glyph glyph-name="product" unicode="&#x220f;" horiz-adv-x="817" d="M263 708 L957 708 C976 708 981 689 975 676 L944 610 C936 593 927 584 906 584 L819 584 L558 25 C550 8 540 0 520 0 L422 0 C403 0 397 19 404 32 L662 584 L450 584 L189 25 C181 8 171 0 151 0 L53 0 C34 0 28 19 35 32 L293 584 L212 584 C193 584 187 603 194 616 L225 683 C233 700 242 708 263 708 L263 708 Z " />
<glyph glyph-name="summation" unicode="&#x2211;" horiz-adv-x="629" d="M275 708 L749 708 C768 708 774 689 767 676 L735 609 C727 591 718 583 698 583 L364 583 L482 348 C488 339 488 327 482 314 L457 263 C450 248 444 242 430 233 L111 7 L426 7 C445 7 450 -12 444 -25 L412 -93 C405 -110 395 -118 375 -118 L-107 -118 C-126 -118 -131 -99 -125 -86 L-85 -3 C-78 12 -69 22 -56 32 L329 303 L332 310 L200 571 C194 582 194 591 201 607 L237 683 C245 700 254 708 275 708 L275 708 Z " />
<glyph glyph-name="minus" unicode="&#x2212;" horiz-adv-x="562" d="M153 413 L536 413 C552 413 560 397 553 384 L522 318 C515 302 503 295 488 295 L104 295 C88 295 81 311 87 324 L119 390 C126 406 137 413 153 413 L153 413 Z " />
<glyph glyph-name="radical" unicode="&#x221a;" horiz-adv-x="706" d="M142 451 L279 451 C297 451 302 442 301 428 L257 84 L260 84 L742 752 C751 765 759 769 775 769 L872 769 C886 769 892 753 883 740 L307 -45 C294 -63 281 -70 259 -70 L142 -70 C124 -70 114 -56 116 -36 L156 338 L95 338 C78 338 71 356 78 369 L105 426 C112 443 123 451 142 451 L142 451 Z " />
<glyph glyph-name="infinity" unicode="&#x221e;" horiz-adv-x="716" d="M306 486 C379 486 417 462 433 432 C471 463 514 486 580 486 C672 486 709 441 709 381 C709 236 591 138 445 138 C372 138 340 162 324 192 C285 161 243 138 177 138 C85 138 42 184 42 243 C42 385 161 486 306 486 L306 486 Z M317 299 L367 369 C361 388 342 404 296 404 C233 404 154 347 154 262 C154 239 173 219 205 219 C256 219 271 236 317 299 L317 299 Z M440 325 L389 255 C396 237 415 220 461 220 C525 220 602 277 602 362 C602 388 586 405 551 405 C501 405 485 388 440 325 L440 325 Z " />
<glyph glyph-name="integral" unicode="&#x222b;" horiz-adv-x="428" d="M462 727 C494 727 525 720 539 715 C548 711 552 700 547 690 L516 623 C510 611 501 607 485 608 C477 608 469 609 459 609 C428 609 413 597 401 563 L187 -3 C144 -117 92 -142 -13 -142 C-40 -142 -76 -136 -89 -130 C-99 -126 -101 -115 -97 -106 L-68 -41 C-61 -26 -52 -23 -35 -23 C-27 -23 -19 -24 -9 -24 C21 -24 36 -12 49 21 L262 588 C305 701 358 727 462 727 L462 727 Z " />
<glyph glyph-name="approxequal" unicode="&#x2248;" horiz-adv-x="562" d="M304 552 C337 552 359 546 391 529 L421 514 C442 503 462 495 480 495 C502 495 513 501 531 519 L549 538 C560 549 571 551 584 545 L619 528 C632 523 635 513 627 498 C589 430 523 384 443 384 C411 384 389 390 357 407 L326 422 C305 433 285 441 267 441 C245 441 234 435 217 417 L201 401 C189 388 177 384 165 390 L126 409 C116 414 113 423 120 437 C159 506 225 552 304 552 L304 552 Z M197 322 C230 322 252 316 284 299 L314 284 C335 273 355 265 373 265 C395 265 406 271 424 289 L442 308 C453 319 464 321 477 315 L512 298 C525 293 528 283 520 268 C482 200 416 154 336 154 C304 154 282 160 250 177 L219 192 C198 203 178 211 160 211 C138 211 127 205 110 187 L94 171 C82 158 70 154 58 160 L19 179 C9 184 6 193 13 207 C52 276 118 322 197 322 L197 322 Z " />
<glyph glyph-name="notequal" unicode="&#x2260;" horiz-adv-x="562" d="M103 308 L204 308 L283 400 L151 400 C134 400 128 417 134 430 L163 490 C170 507 182 515 200 515 L383 515 L551 709 C563 723 572 728 588 728 L681 728 C697 728 704 710 693 697 L536 515 L587 515 C604 515 609 498 603 486 L575 425 C567 408 556 400 538 400 L437 400 L357 308 L490 308 C507 308 513 291 507 278 L478 218 C471 201 459 193 441 193 L258 193 L91 -1 C79 -15 70 -20 54 -20 L-40 -20 C-56 -20 -63 -2 -53 11 L104 193 L54 193 C37 193 31 210 37 222 L66 283 C74 300 85 308 103 308 L103 308 Z " />
<glyph glyph-name="lessequal" unicode="&#x2264;" horiz-adv-x="562" d="M553 676 C567 685 582 684 589 672 L622 613 C628 602 624 592 614 586 L315 402 L426 239 C435 225 433 213 422 205 L344 153 C329 143 313 144 304 157 L152 382 C141 399 141 420 163 434 L553 676 L553 676 Z M28 108 L357 108 C372 108 379 93 373 80 L346 23 C339 7 328 0 312 0 L-17 0 C-32 0 -40 14 -33 28 L-6 85 C1 100 12 108 28 108 L28 108 Z " />
<glyph glyph-name="greaterequal" unicode="&#x2265;" horiz-adv-x="562" d="M533 393 L144 151 C131 142 115 144 108 156 L75 214 C69 225 73 235 83 242 L381 426 L271 589 C262 602 263 614 275 622 L353 675 C368 685 384 683 393 671 L544 446 C556 428 556 407 533 393 L533 393 Z M49 108 L378 108 C393 108 399 93 393 80 L367 23 C360 7 349 0 333 0 L4 0 C-11 0 -19 14 -12 28 L15 85 C22 100 33 108 49 108 L49 108 Z " />
<glyph glyph-name="lozenge" unicode="&#x25ca;" horiz-adv-x="654" d="M534 713 C544 713 550 708 553 699 L659 371 C661 362 662 358 659 353 C657 348 653 344 645 338 L225 3 C214 -5 208 -7 198 -7 C188 -7 182 0 179 7 L74 334 C72 339 71 347 73 353 C76 359 78 362 86 368 L508 703 C519 711 524 713 534 713 L534 713 Z M447 527 L234 353 L286 180 L499 353 L447 527 L447 527 Z " />
<glyph glyph-name="uniF8FF" unicode="&#xf8ff;" horiz-adv-x="1300" d="M282 463 C282 456 276 452 267 452 C254 452 246 456 246 467 L223 467 C224 443 240 432 268 432 C289 432 306 442 306 464 C306 480 298 490 280 494 L263 498 C255 500 249 503 249 509 C249 515 254 519 265 519 C277 519 282 513 282 506 L305 506 C303 527 288 539 264 539 C239 539 225 526 225 509 C225 489 238 483 254 479 L271 475 C279 473 282 469 282 463 L282 463 Z M398 516 L398 538 L311 538 L311 516 L342 516 L342 434 L367 434 L367 516 L398 516 L398 516 Z M678 434 L678 538 L652 538 L652 434 L678 434 L678 434 Z M740 470 L765 434 L793 434 L755 487 L792 538 L763 538 L740 505 L717 538 L688 538 L725 487 L687 434 L715 434 L740 470 L740 470 Z M253 355 L309 355 L309 377 L228 377 L228 273 L253 273 L253 308 L304 308 L304 330 L253 330 L253 355 L253 355 Z M486 272 C518 272 535 288 535 318 L535 377 L510 377 L510 322 C510 303 502 294 486 294 C470 294 462 303 462 322 L462 377 L437 377 L437 318 C437 288 454 272 486 272 L486 272 Z M645 273 L645 377 L621 377 L621 313 L574 377 L549 377 L549 273 L573 273 L573 337 L620 273 L645 273 L645 273 Z M659 273 L701 273 C734 273 754 295 754 325 C754 355 734 377 701 377 L659 377 L659 273 L659 273 Z M904 336 L880 377 L851 377 L891 313 L891 273 L916 273 L916 313 L956 377 L929 377 L904 336 L904 336 Z M223 614 L1077 614 C1080 614 1082 617 1082 619 C1082 621 1080 623 1077 623 L223 623 C221 623 219 621 219 619 C219 617 221 614 223 614 L223 614 Z M1205 646 L1205 -73 C1205 -143 1174 -164 1104 -164 L197 -164 C127 -164 96 -143 96 -73 L96 646 C96 716 127 737 197 737 L1104 737 C1174 737 1205 716 1205 646 L1205 646 Z M223 188 L1077 188 C1080 188 1082 191 1082 193 C1082 195 1080 197 1077 197 L223 197 C221 197 219 195 219 193 C219 191 221 188 223 188 L223 188 Z M447 538 L427 538 L383 434 L409 434 L416 453 L458 453 L465 434 L491 434 L447 538 L447 538 Z M568 538 L545 538 L525 468 L496 538 L468 538 L512 434 L537 434 L557 503 L583 434 L609 434 L642 538 L614 538 L592 467 L568 538 L568 538 Z M370 272 C401 272 425 294 425 325 C425 356 401 378 370 378 C339 378 315 356 315 325 C315 294 339 272 370 272 L370 272 Z M856 273 L830 307 C845 312 854 324 854 341 C854 363 839 377 813 377 L765 377 L765 273 L790 273 L790 305 L805 305 L828 273 L856 273 L856 273 Z M699 295 L684 295 L684 355 L699 355 C719 355 729 342 729 325 C729 308 719 295 699 295 L699 295 Z M450 473 L424 473 L437 507 L450 473 L450 473 Z M370 294 C353 294 340 306 340 325 C340 344 353 356 370 356 C387 356 400 344 400 325 C400 306 387 294 370 294 L370 294 Z M790 326 L790 356 L811 356 C821 356 829 352 829 341 C829 330 821 326 811 326 L790 326 L790 326 Z " />
<glyph glyph-name="f_f" unicode="&#xfb00;" horiz-adv-x="683" d="M163 530 L209 530 L227 569 C281 684 338 719 458 719 C486 719 522 716 537 710 C548 705 549 694 545 684 L515 620 C510 610 499 605 483 605 C472 605 462 607 449 607 C413 607 389 593 366 544 L359 530 L520 530 L539 570 C593 686 649 719 778 719 C807 719 847 715 862 709 C873 704 875 693 870 682 L841 620 C836 610 825 605 809 605 C798 605 781 607 768 607 C724 607 702 593 679 542 L673 530 L760 530 C777 530 782 513 776 502 L748 442 C740 425 731 417 711 417 L620 417 L438 25 C430 8 420 0 401 0 L302 0 C285 0 280 17 286 28 L467 417 L308 417 L126 25 C119 8 109 0 90 0 L-9 0 C-26 0 -31 17 -25 28 L156 417 L115 417 C97 417 93 434 98 446 L126 505 C134 522 144 530 163 530 L163 530 Z " />
<glyph glyph-name="fi" unicode="&#xfb01;" horiz-adv-x="612" d="M479 719 C519 719 565 715 579 709 C590 704 591 693 587 683 L557 619 C552 609 541 603 526 604 C511 604 491 607 469 607 C416 607 388 591 362 535 L360 530 L642 530 C659 530 664 513 658 502 L435 25 C428 8 418 0 399 0 L298 0 C281 0 276 17 282 28 L463 417 L309 417 L126 25 C119 8 109 0 90 0 L-9 0 C-26 0 -31 17 -25 28 L156 417 L115 417 C97 417 93 434 98 446 L126 505 C134 522 144 530 163 530 L209 530 L224 562 C280 683 342 719 479 719 L479 719 Z " />
<glyph glyph-name="fl" unicode="&#xfb02;" horiz-adv-x="612" d="M163 530 L209 530 L225 564 C279 678 331 720 528 720 C615 720 694 705 722 693 C735 688 738 674 732 662 L435 25 C428 8 418 0 399 0 L298 0 C281 0 276 17 282 28 L549 602 C530 606 503 608 477 608 C411 608 389 593 363 537 L359 530 L421 530 C438 530 443 513 437 502 L409 442 C402 425 392 417 373 417 L309 417 L126 25 C119 8 109 0 90 0 L-9 0 C-26 0 -31 17 -25 28 L156 417 L115 417 C97 417 93 434 98 446 L126 505 C134 522 144 530 163 530 L163 530 Z " />
<glyph glyph-name="f_f_i" unicode="&#xfb03;" horiz-adv-x="923" d="M163 530 L209 530 L227 569 C281 684 338 719 458 719 C486 719 522 716 537 710 C548 705 549 694 545 684 L515 620 C510 610 499 605 483 605 C472 605 462 607 449 607 C413 607 389 593 366 544 L359 530 L521 530 L536 562 C591 683 653 719 790 719 C830 719 876 715 891 709 C902 704 903 693 898 683 L868 619 C863 609 853 603 837 604 C822 604 803 607 781 607 C728 607 699 591 674 535 L671 530 L953 530 C970 530 975 513 970 502 L747 25 C739 8 730 0 710 0 L609 0 C592 0 587 17 593 28 L774 417 L621 417 L438 25 C430 8 420 0 401 0 L302 0 C285 0 280 17 286 28 L468 417 L308 417 L126 25 C119 8 109 0 90 0 L-9 0 C-26 0 -31 17 -25 28 L156 417 L114 417 C97 417 92 434 98 446 L126 505 C134 522 144 530 163 530 L163 530 Z " />
<glyph glyph-name="f_f_l" unicode="&#xfb04;" horiz-adv-x="924" d="M163 530 L209 530 L227 569 C281 684 338 719 458 719 C486 719 522 716 537 710 C548 705 549 694 545 684 L515 620 C510 610 499 605 483 605 C472 605 462 607 449 607 C413 607 389 593 366 544 L359 530 L520 530 L536 564 C590 678 643 720 839 720 C926 720 1005 705 1034 693 C1046 688 1049 674 1043 662 L747 25 C739 8 730 0 710 0 L609 0 C592 0 587 17 593 28 L860 602 C841 606 814 608 789 608 C723 608 700 593 675 537 L671 530 L732 530 C749 530 754 513 749 502 L720 442 C713 425 703 417 684 417 L621 417 L438 25 C430 8 420 0 401 0 L302 0 C285 0 280 17 286 28 L467 417 L308 417 L126 25 C119 8 109 0 90 0 L-9 0 C-26 0 -31 17 -25 28 L156 417 L115 417 C97 417 93 434 98 446 L126 505 C134 522 144 530 163 530 L163 530 Z " />
</font>
</svg>
